<svg width="90" height="250" viewBox="0 0 90 250" fill="none" xmlns="http://www.w3.org/2000/svg">
<path d="M10 98H80V220H10V98Z" fill="#B49D72"/>
<path d="M43 107H15V146H43V107Z" fill="#FFFDF2"/>
<path d="M15 150V162H43V150H15Z" fill="#FFFDF2"/>
<path d="M15 166V178H43V166H15Z" fill="#FFFDF2"/>
<path d="M15 182V194H43V182H15Z" fill="#FFFDF2"/>
<path d="M15 198V211.571H43V198H15Z" fill="#FFFDF2"/>
<path d="M47 211.571H75V198H47V211.571Z" fill="#FFFDF2"/>
<path d="M75 194V182H47V194H75Z" fill="#FFFDF2"/>
<path d="M75 178V166H47V178H75Z" fill="#FFFDF2"/>
<path d="M75 162V150H47V162H75Z" fill="#FFFDF2"/>
<path d="M75 146V107H47V146H75Z" fill="#FFFDF2"/>
<rect x="10" y="102" width="70" height="4" fill="#7E6755"/>
<path d="M12 108H78V156H64L63 127L62 156H28L27 127L26 156H12V108Z" fill="#EBEBEB"/>
<path d="M44 102H46V108H44V102Z" fill="#EBEBEB"/>
<path d="M52 102H54V108H52V102Z" fill="#EBEBEB"/>
<path d="M60 102H62V108H60V102Z" fill="#EBEBEB"/>
<path d="M68 102H70V108H68V102Z" fill="#EBEBEB"/>
<path d="M76 102H78V108H76V102Z" fill="#EBEBEB"/>
<path d="M12 102H14V108H12V102Z" fill="#EBEBEB"/>
<path d="M20 102H22V108H20V102Z" fill="#EBEBEB"/>
<path d="M28 102H30V108H28V102Z" fill="#EBEBEB"/>
<path d="M36 102H38V108H36V102Z" fill="#EBEBEB"/>
</svg>
