<svg width="90" height="250" viewBox="0 0 90 250" fill="none" xmlns="http://www.w3.org/2000/svg">
<path fill-rule="evenodd" clip-rule="evenodd" d="M78 132H12V220H15V135H75V220H78V132Z" fill="#A3A3A3"/>
<path fill-rule="evenodd" clip-rule="evenodd" d="M75 135H15V220H18V138H72V220H75V135Z" fill="#C7C7C7"/>
<path fill-rule="evenodd" clip-rule="evenodd" d="M72 138H18V220H20V140H70V220H72V138Z" fill="#DCDCDC"/>
<path fill-rule="evenodd" clip-rule="evenodd" d="M78 91H12V132H78V91ZM75 94H15V129H75V94Z" fill="#A3A3A3"/>
<path fill-rule="evenodd" clip-rule="evenodd" d="M75 94H15V129H75V94ZM72 97H18V126H72V97Z" fill="#C7C7C7"/>
<path fill-rule="evenodd" clip-rule="evenodd" d="M72 97H18V126H72V97ZM70 99H20V124H70V99Z" fill="#A3A3A3"/>
<rect x="20" y="99" width="50" height="25" fill="#CCE3F9"/>
<path d="M20 140H70L65 143H25L20 140Z" fill="#DCDCDC"/>
<path fill-rule="evenodd" clip-rule="evenodd" d="M70 140L65 143V220H70V140ZM25 220V143L20 140V220H25Z" fill="#A3A3A3"/>
<rect x="25" y="143" width="40" height="77" fill="#C7C7C7"/>
<path d="M29 148L32 151V164L29 167V148Z" fill="#A3A3A3"/>
<path d="M29 176L32 179V211L29 214V176Z" fill="#A3A3A3"/>
<path d="M61 167L58 164V151L61 148V167Z" fill="#A3A3A3"/>
<path d="M61 214L58 211V179L61 176V214Z" fill="#A3A3A3"/>
<path d="M29 167L32 164H58L61 167H29Z" fill="#DCDCDC"/>
<path d="M29 214L32 211H58L61 214H29Z" fill="#DCDCDC"/>
<path d="M61 148L58 151H32L29 148H61Z" fill="#DCDCDC"/>
<path d="M61 176L58 179H32L29 176H61Z" fill="#DCDCDC"/>
<rect x="44.5908" y="170.691" width="0.690627" height="15.6256" transform="rotate(36.6241 44.5908 170.691)" fill="#876047"/>
<rect x="44.3594" y="171.175" width="0.690627" height="11.7707" transform="rotate(-44.5144 44.3594 171.175)" fill="#876047"/>
<circle cx="44.7049" cy="171.036" r="1.03594" fill="#B49D72"/>
<rect x="34" y="183.148" width="20.7188" height="7.04914" transform="rotate(-13.5663 34 183.148)" fill="#C7B471"/>
<path d="M38.6571 185.613C38.766 186.064 38.9551 186.393 39.2246 186.601C39.4938 186.807 39.8309 186.862 40.2359 186.764C40.6409 186.666 40.9146 186.465 41.0568 186.159C41.2006 185.853 41.2179 185.474 41.1087 185.021C40.9972 184.559 40.807 184.226 40.5383 184.021C40.2711 183.816 39.9374 183.762 39.5371 183.859C39.1368 183.955 38.8622 184.156 38.7133 184.462C38.5643 184.767 38.5456 185.151 38.6571 185.613ZM41.5477 184.915C41.6123 185.183 41.6341 185.436 41.6132 185.676C41.5939 185.915 41.5339 186.131 41.4332 186.324C41.3338 186.516 41.1895 186.681 41.0005 186.821C40.8111 186.958 40.585 187.059 40.3224 187.122C39.968 187.208 39.6461 187.206 39.3566 187.117C39.0684 187.026 38.8286 186.861 38.6371 186.622C38.4468 186.382 38.3077 186.08 38.2199 185.716C38.0843 185.154 38.1237 184.676 38.3381 184.281C38.5525 183.886 38.9232 183.625 39.45 183.498C39.969 183.373 40.4144 183.438 40.7861 183.695C41.1591 183.95 41.4129 184.357 41.5477 184.915ZM43.5867 186.279L43.1666 186.381L42.3097 182.83L43.4536 182.554C43.6276 182.512 43.7894 182.492 43.939 182.495C44.0886 182.497 44.227 182.522 44.3541 182.57C44.4812 182.618 44.5899 182.698 44.6802 182.808C44.7705 182.919 44.8357 183.057 44.8758 183.223C44.909 183.361 44.9261 183.487 44.9272 183.602C44.9278 183.716 44.9088 183.828 44.87 183.938C44.8312 184.047 44.7696 184.146 44.6852 184.233C44.6004 184.319 44.4841 184.399 44.3362 184.473C44.1896 184.546 44.0134 184.606 43.8077 184.656C43.6448 184.695 43.4493 184.732 43.2212 184.765L43.5867 186.279ZM43.7604 184.283C43.9155 184.246 44.0448 184.199 44.1483 184.142C44.2518 184.085 44.3274 184.028 44.3753 183.969C44.4247 183.91 44.4574 183.841 44.4735 183.762C44.4911 183.682 44.4968 183.612 44.4906 183.552C44.484 183.49 44.4706 183.417 44.4503 183.333C44.4018 183.132 44.2981 183.001 44.1391 182.939C43.9817 182.876 43.7867 182.873 43.5541 182.929L42.8208 183.106L43.1399 184.428C43.446 184.358 43.6528 184.309 43.7604 184.283ZM46.5693 185.559L45.7221 182.049L47.7346 181.563L47.8056 181.931L46.2203 182.313L46.4975 183.462L48.0046 183.098L48.091 183.457L46.584 183.82L46.8922 185.097L48.5298 184.702L48.5984 185.069L46.5693 185.559ZM52.6395 184.094L52.1743 184.206L49.6849 181.884L49.5267 181.749C49.6196 182.078 49.6975 182.373 49.7605 182.634L50.252 184.67L49.8675 184.763L49.0203 181.253L49.4784 181.143L51.9725 183.464L52.1331 183.598C52.0002 183.096 51.9242 182.806 51.9051 182.727L51.4102 180.676L51.7923 180.584L52.6395 184.094Z" fill="#FFF6D8"/>
</svg>
