<svg width="90" height="250" viewBox="0 0 90 250" fill="none" xmlns="http://www.w3.org/2000/svg">
<path d="M10 133.088C10 113.709 25.7093 98 45.0877 98C64.4661 98 80.1754 113.709 80.1754 133.088V219.93H10V133.088Z" fill="#C7C7C7"/>
<path fill-rule="evenodd" clip-rule="evenodd" d="M10 219.93H13V133.088C13 115.366 27.3662 101 45.0877 101C62.8093 101 77.1754 115.366 77.1754 133.088V219.93H80.1754V133.088C80.1754 113.709 64.4661 98 45.0877 98C25.7093 98 10 113.709 10 133.088V219.93Z" fill="#EBEBEB"/>
<path d="M24 133.5C24 122.178 33.1782 113 44.5 113C55.8218 113 65 122.178 65 133.5V141.704C65 142.972 63.9719 144 62.7037 144H26.2963C25.0281 144 24 142.972 24 141.704V133.5Z" fill="#CCE3F9"/>
<path fill-rule="evenodd" clip-rule="evenodd" d="M24 133.5V141.704C24 142.972 25.0281 144 26.2963 144H62.7037C63.9719 144 65 142.972 65 141.704V133.5C65 122.178 55.8218 113 44.5 113C33.1782 113 24 122.178 24 133.5ZM63 133.5C63 123.283 54.7173 115 44.5 115C34.2827 115 26 123.283 26 133.5V141.704C26 141.867 26.1327 142 26.2963 142H62.7037C62.8673 142 63 141.867 63 141.704V133.5Z" fill="#EBEBEB"/>
<path d="M24 154C24 151.791 25.7909 150 28 150H61C63.2091 150 65 151.791 65 154V200C65 202.209 63.2091 204 61 204H28C25.7909 204 24 202.209 24 200V154Z" fill="#CCE3F9"/>
<path fill-rule="evenodd" clip-rule="evenodd" d="M24 154V200C24 202.209 25.7909 204 28 204H61C63.2091 204 65 202.209 65 200V154C65 151.791 63.2091 150 61 150H28C25.7909 150 24 151.791 24 154ZM61 152H28C26.8954 152 26 152.895 26 154V200C26 201.105 26.8954 202 28 202H61C62.1046 202 63 201.105 63 200V154C63 152.895 62.1046 152 61 152Z" fill="#EBEBEB"/>
<path d="M74 162.5C74 163.881 72.8807 165 71.5 165C70.1193 165 69 163.881 69 162.5C69 161.119 70.1193 160 71.5 160C72.8807 160 74 161.119 74 162.5Z" fill="#EBEBEB"/>
</svg>
