<svg width="356" height="250" viewBox="0 0 356 250" fill="none" xmlns="http://www.w3.org/2000/svg">
<path d="M217.138 180.863C218.092 180.946 219.066 181.571 219.87 182.617C226.974 191.858 230.165 205.949 227.735 217.35C227.46 218.639 226.85 219.623 226.025 220.109L224.607 220.945C223.503 221.595 222.063 220.39 221.624 218.449L213.881 184.257C213.442 182.316 214.222 180.608 215.498 180.72L217.138 180.863Z" fill="#AB8B4D"/>
<path d="M217.32 181.568C218.274 181.652 219.066 181.571 219.87 182.617C226.974 191.858 230.165 205.949 227.735 217.35C227.46 218.639 226.85 219.623 226.025 220.109L224.607 220.945C223.503 221.595 223.028 220.181 222.588 218.24L214.861 184.113C214.724 183.512 214.618 183.041 214.564 182.671C214.428 181.729 215.96 181.441 217.32 181.568Z" fill="#CB9F6C"/>
<path d="M227.645 200.433C226.057 200.789 224.646 200.516 224.489 199.823C224.332 199.129 225.488 198.275 227.074 197.912C227.287 198.747 227.477 199.588 227.645 200.433Z" fill="#C79152"/>
<path d="M228.087 203.037C227.824 203.062 227.55 203.106 227.271 203.169C225.676 203.53 224.511 204.388 224.669 205.084C224.826 205.78 226.247 206.052 227.842 205.691C228.025 205.649 228.202 205.601 228.373 205.548C228.301 204.711 228.205 203.873 228.087 203.037Z" fill="#C79152"/>
<path d="M228.526 208.278C228.186 208.296 227.823 208.346 227.45 208.43C225.855 208.792 224.69 209.649 224.848 210.345C225.006 211.042 226.426 211.313 228.021 210.952C228.191 210.914 228.356 210.87 228.515 210.821C228.544 209.979 228.547 209.13 228.526 208.278Z" fill="#C79152"/>
<path d="M228.326 213.572C228.1 213.598 227.867 213.638 227.63 213.692C226.035 214.053 224.87 214.91 225.028 215.607C225.177 216.265 226.457 216.544 227.945 216.266C228.105 215.381 228.231 214.482 228.326 213.572Z" fill="#C79152"/>
<path d="M223.384 188.163C223.22 188.187 223.052 188.219 222.882 188.257C221.287 188.618 220.122 189.475 220.28 190.172C220.438 190.868 221.858 191.14 223.453 190.779C223.826 190.694 224.175 190.583 224.489 190.453C224.142 189.674 223.773 188.91 223.384 188.163Z" fill="#C79152"/>
<path d="M225.528 192.983C225.351 193.008 225.17 193.041 224.987 193.082C223.392 193.444 222.227 194.301 222.384 194.997C222.542 195.693 223.963 195.965 225.558 195.604C225.837 195.541 226.103 195.462 226.351 195.372C226.098 194.566 225.823 193.769 225.528 192.983Z" fill="#C79152"/>
<path d="M222.028 185.761C221.551 184.981 221.049 184.224 220.524 183.494C219.061 183.884 218.026 184.687 218.175 185.346C218.333 186.043 219.754 186.314 221.348 185.953C221.586 185.9 221.813 185.835 222.028 185.761Z" fill="#C79152"/>
<path d="M224.509 199.487C224.95 199.956 226.164 200.103 227.502 199.803C227.439 199.486 227.373 199.169 227.304 198.854C227.231 198.539 227.154 198.225 227.074 197.912C225.737 198.218 224.705 198.873 224.509 199.487Z" fill="#E0CA92"/>
<path d="M228.03 203.042C227.784 203.068 227.53 203.11 227.271 203.169C225.925 203.474 224.886 204.132 224.688 204.748C225.132 205.219 226.353 205.365 227.699 205.06C227.882 205.019 228.06 204.971 228.23 204.917C228.176 204.293 228.109 203.667 228.03 203.042Z" fill="#E0CA92"/>
<path d="M228.395 208.287C228.093 208.31 227.775 208.357 227.45 208.43C226.105 208.735 225.065 209.393 224.868 210.009C225.311 210.481 226.533 210.626 227.878 210.322C228.048 210.283 228.213 210.239 228.372 210.19C228.394 209.559 228.401 208.924 228.395 208.287Z" fill="#E0CA92"/>
<path d="M228.109 213.601C227.951 213.625 227.791 213.655 227.63 213.692C226.284 213.996 225.245 214.654 225.047 215.271C225.463 215.712 226.56 215.868 227.803 215.636C227.923 214.965 228.025 214.287 228.109 213.601Z" fill="#E0CA92"/>
<path d="M224.225 189.871C223.956 189.293 223.676 188.723 223.384 188.163C223.22 188.187 223.052 188.219 222.882 188.257C221.537 188.562 220.497 189.219 220.3 189.836C220.743 190.307 221.965 190.453 223.31 190.148C223.635 190.075 223.943 189.98 224.225 189.871Z" fill="#E0CA92"/>
<path d="M226.154 194.761C225.957 194.163 225.748 193.57 225.528 192.983C225.351 193.008 225.17 193.041 224.987 193.082C223.641 193.387 222.601 194.045 222.404 194.661C222.848 195.133 224.069 195.278 225.415 194.974C225.674 194.915 225.922 194.843 226.154 194.761Z" fill="#E0CA92"/>
<path d="M221.677 185.198C221.306 184.616 220.922 184.047 220.524 183.494C219.303 183.82 218.38 184.433 218.195 185.01C218.639 185.482 219.86 185.627 221.206 185.323C221.368 185.286 221.525 185.244 221.677 185.198Z" fill="#E0CA92"/>
<path d="M211.983 187.095C212.972 187.127 214.074 187.802 215.075 188.988C223.921 199.47 229.604 215.982 229.083 229.688C229.024 231.238 228.57 232.449 227.811 233.083L226.506 234.174C225.491 235.022 223.813 233.691 223.03 231.416L209.241 191.351C208.458 189.076 208.961 186.994 210.284 187.038L211.983 187.095Z" fill="#FCCA6B"/>
<path d="M212.291 187.92C213.279 187.953 214.074 187.802 215.075 188.988C223.921 199.47 229.604 215.982 229.083 229.688C229.024 231.238 228.57 232.449 227.811 233.083L226.506 234.174C225.491 235.022 224.762 233.376 223.979 231.101L210.217 191.112C209.974 190.407 209.784 189.856 209.666 189.42C209.364 188.311 210.88 187.862 212.291 187.92Z" fill="#FFD88D"/>
<path d="M226.081 209.607C224.521 210.139 223.033 209.913 222.753 209.1C222.473 208.287 223.507 207.193 225.064 206.652C225.425 207.629 225.765 208.615 226.081 209.607Z" fill="#FFE99B"/>
<path d="M226.98 212.667C226.716 212.716 226.444 212.787 226.169 212.881C224.603 213.42 223.56 214.519 223.841 215.335C224.122 216.151 225.62 216.375 227.186 215.836C227.366 215.774 227.539 215.705 227.704 215.629C227.487 214.641 227.245 213.652 226.98 212.667Z" fill="#FFE99B"/>
<path d="M228.33 218.861C227.986 218.906 227.624 218.99 227.258 219.116C225.691 219.656 224.649 220.754 224.929 221.57C225.21 222.386 226.708 222.611 228.275 222.071C228.442 222.014 228.602 221.95 228.756 221.881C228.641 220.879 228.499 219.872 228.33 218.861Z" fill="#FFE99B"/>
<path d="M229.037 225.161C228.81 225.208 228.579 225.271 228.346 225.352C226.779 225.891 225.737 226.989 226.018 227.805C226.284 228.577 227.639 228.82 229.111 228.387C229.122 227.325 229.096 226.249 229.037 225.161Z" fill="#FFE99B"/>
<path d="M219.619 195.331C219.455 195.371 219.289 195.42 219.122 195.477C217.555 196.017 216.513 197.115 216.794 197.931C217.075 198.747 218.572 198.972 220.139 198.432C220.505 198.306 220.843 198.15 221.141 197.973C220.652 197.073 220.145 196.192 219.619 195.331Z" fill="#FFE99B"/>
<path d="M222.637 200.906C222.461 200.948 222.281 201 222.101 201.062C220.535 201.601 219.492 202.7 219.773 203.516C220.054 204.332 221.552 204.556 223.118 204.017C223.393 203.922 223.651 203.811 223.889 203.686C223.492 202.747 223.074 201.819 222.637 200.906Z" fill="#FFE99B"/>
<path d="M217.821 192.573C217.199 191.679 216.556 190.815 215.895 189.985C214.468 190.55 213.548 191.575 213.814 192.347C214.095 193.163 215.593 193.387 217.159 192.848C217.392 192.768 217.614 192.675 217.821 192.573Z" fill="#FFE99B"/>
<path d="M222.715 208.7C223.247 209.226 224.511 209.316 225.827 208.868C225.708 208.496 225.586 208.125 225.461 207.755C225.332 207.386 225.2 207.018 225.064 206.652C223.751 207.108 222.81 207.957 222.715 208.7Z" fill="#FFF6D8"/>
<path d="M226.923 212.678C226.677 212.726 226.424 212.794 226.169 212.881C224.848 213.336 223.899 214.189 223.803 214.935C224.338 215.464 225.61 215.552 226.932 215.097C227.112 215.035 227.285 214.966 227.45 214.891C227.288 214.153 227.112 213.415 226.923 212.678Z" fill="#FFF6D8"/>
<path d="M228.198 218.88C227.894 218.928 227.577 219.007 227.258 219.116C225.936 219.571 224.987 220.424 224.892 221.17C225.426 221.699 226.699 221.788 228.02 221.333C228.187 221.275 228.348 221.211 228.502 221.142C228.416 220.391 228.314 219.637 228.198 218.88Z" fill="#FFF6D8"/>
<path d="M228.82 225.211C228.663 225.25 228.505 225.297 228.346 225.352C227.024 225.807 226.076 226.66 225.98 227.405C226.48 227.9 227.628 228.01 228.857 227.648C228.865 226.844 228.852 226.031 228.82 225.211Z" fill="#FFF6D8"/>
<path d="M220.771 197.301C220.397 196.633 220.013 195.976 219.619 195.331C219.455 195.371 219.289 195.42 219.122 195.477C217.8 195.932 216.852 196.786 216.756 197.531C217.29 198.06 218.563 198.149 219.885 197.694C220.204 197.584 220.502 197.451 220.771 197.301Z" fill="#FFF6D8"/>
<path d="M223.583 202.974C223.279 202.278 222.963 201.588 222.637 200.906C222.461 200.948 222.281 201 222.101 201.062C220.78 201.517 219.831 202.37 219.735 203.115C220.27 203.644 221.542 203.733 222.864 203.278C223.119 203.19 223.36 203.088 223.583 202.974Z" fill="#FFF6D8"/>
<path d="M217.365 191.929C216.886 191.263 216.396 190.614 215.895 189.985C214.703 190.456 213.866 191.249 213.776 191.947C214.311 192.476 215.583 192.564 216.905 192.109C217.064 192.055 217.218 191.994 217.365 191.929Z" fill="#FFF6D8"/>
<path d="M214 206L216.5 208L219.5 206L222.5 208L225.5 206L228.5 208L231.5 206L234.5 208L237 206V236H218C215.791 236 214 234.209 214 232V206Z" fill="#F0AE62"/>
<path d="M245 206L242.913 208L240.826 206L238.739 208L237 206V236H241C243.209 236 245 234.209 245 232V206Z" fill="#E6994E"/>
</svg>
