<svg width="356" height="250" viewBox="0 0 356 250" fill="none" xmlns="http://www.w3.org/2000/svg">
<path d="M47 115H51L52 243H46L47 115Z" fill="#5F7A93"/>
<path d="M41 217C41 212.582 44.5817 209 49 209V209C53.4183 209 57 212.582 57 217V241C57 242.105 56.1046 243 55 243H43C41.8954 243 41 242.105 41 241V217Z" fill="#5F7A93"/>
<rect x="44" y="194" width="10" height="7" rx="3.5" fill="#5F7A93"/>
<rect x="44" y="199" width="10" height="2" rx="1" fill="#5F7A93"/>
<rect x="39" y="216" width="20" height="4" rx="2" fill="#5F7A93"/>
<rect x="31" y="119" width="36" height="2" rx="1" fill="#5F7A93"/>
<g filter="url(#filter0_f_215_5607)">
<circle cx="68" cy="113" r="3" fill="#F7E197"/>
</g>
<rect x="62" y="117" width="12" height="2" rx="1" fill="#5F7A93"/>
<rect x="63" y="118" width="10" height="2" rx="1" fill="#5F7A93"/>
<rect x="64" y="119" width="8" height="2" rx="1" fill="#5F7A93"/>
<rect x="65" y="120" width="6" height="2" rx="1" fill="#5F7A93"/>
<rect x="66" y="121" width="4" height="2" rx="1" fill="#5F7A93"/>
<rect x="60" y="104" width="16" height="1" rx="0.5" fill="#5F7A93"/>
<rect x="63" y="118.161" width="14.1097" height="1.2" transform="rotate(-95 63 118.161)" fill="#5F7A93"/>
<rect width="14.1097" height="1.2" transform="matrix(-0.0871557 0.996195 0.996195 0.0871557 73 104)" fill="#5F7A93"/>
<circle cx="68" cy="98" r="1" fill="#5F7A93"/>
<path d="M67.6721 97.5902C67.815 97.3329 68.1849 97.3329 68.3279 97.5902V97.5902C69.7559 100.161 71.7684 102.359 74.2029 104.009L74.9282 104.5H61.0718L61.7971 104.009C64.2315 102.359 66.2441 100.161 67.6721 97.5902V97.5902Z" fill="#5F7A93"/>
<g filter="url(#filter1_f_215_5607)">
<circle cx="30" cy="113" r="3" fill="#F7E197"/>
</g>
<rect x="24" y="117" width="12" height="2" rx="1" fill="#5F7A93"/>
<rect x="25" y="118" width="10" height="2" rx="1" fill="#5F7A93"/>
<rect x="26" y="119" width="8" height="2" rx="1" fill="#5F7A93"/>
<rect x="27" y="120" width="6" height="2" rx="1" fill="#5F7A93"/>
<rect x="28" y="121" width="4" height="2" rx="1" fill="#5F7A93"/>
<rect x="22" y="104" width="16" height="1" rx="0.5" fill="#5F7A93"/>
<rect x="25" y="118.161" width="14.1097" height="1.2" transform="rotate(-95 25 118.161)" fill="#5F7A93"/>
<rect width="14.1097" height="1.2" transform="matrix(-0.0871557 0.996195 0.996195 0.0871557 35 104)" fill="#5F7A93"/>
<circle cx="30" cy="98" r="1" fill="#5F7A93"/>
<path d="M29.6721 97.5902C29.815 97.3329 30.1849 97.3329 30.3279 97.5902V97.5902C31.7559 100.161 33.7684 102.359 36.2029 104.009L36.9282 104.5H23.0718L23.7971 104.009C26.2315 102.359 28.2441 100.161 29.6721 97.5902V97.5902Z" fill="#5F7A93"/>
<g filter="url(#filter2_f_215_5607)">
<circle cx="49" cy="107" r="3" fill="#F7E197"/>
</g>
<rect x="43" y="111" width="12" height="2" rx="1" fill="#5F7A93"/>
<rect x="44" y="112" width="10" height="2" rx="1" fill="#5F7A93"/>
<rect x="45" y="113" width="8" height="2" rx="1" fill="#5F7A93"/>
<rect x="46" y="114" width="6" height="2" rx="1" fill="#5F7A93"/>
<rect x="47" y="115" width="4" height="2" rx="1" fill="#5F7A93"/>
<rect x="41" y="98" width="16" height="1" rx="0.5" fill="#5F7A93"/>
<rect x="44" y="112.161" width="14.1097" height="1.2" transform="rotate(-95 44 112.161)" fill="#5F7A93"/>
<rect width="14.1097" height="1.2" transform="matrix(-0.0871557 0.996195 0.996195 0.0871557 54 98)" fill="#5F7A93"/>
<circle cx="49" cy="92" r="1" fill="#5F7A93"/>
<path d="M48.6721 91.5902C48.815 91.3329 49.1849 91.3329 49.3279 91.5902V91.5902C50.7559 94.1607 52.7684 96.3593 55.2029 98.0086L55.9282 98.5H42.0718L42.7971 98.0086C45.2315 96.3593 47.2441 94.1607 48.6721 91.5902V91.5902Z" fill="#5F7A93"/>
<rect x="27" y="132" width="1" height="3" fill="#5F7A93"/>
<rect x="55" y="132" width="1" height="3" fill="#5F7A93"/>
<rect x="42" y="132" width="1" height="3" fill="#5F7A93"/>
<rect x="70" y="132" width="1" height="3" fill="#5F7A93"/>
<rect x="24" y="130" width="50" height="2" rx="1" fill="#5F7A93"/>
<path d="M27 134H43V156.8C43 157.294 42.4355 157.577 42.04 157.28L36.2 152.9C35.4889 152.367 34.5111 152.367 33.8 152.9L27.96 157.28C27.5645 157.577 27 157.294 27 156.8V134Z" fill="#BEBEBE"/>
<path fill-rule="evenodd" clip-rule="evenodd" d="M30 134H27V156.8C27 157.294 27.5645 157.577 27.96 157.28L30 155.75V134ZM43 156.8V134H40V155.75L42.04 157.28C42.4355 157.577 43 157.294 43 156.8Z" fill="#808080"/>
<path d="M55 134H71V156.8C71 157.294 70.4355 157.577 70.04 157.28L64.2 152.9C63.4889 152.367 62.5111 152.367 61.8 152.9L55.96 157.28C55.5645 157.577 55 157.294 55 156.8V134Z" fill="#BEBEBE"/>
<path fill-rule="evenodd" clip-rule="evenodd" d="M58 134H55V156.8C55 157.294 55.5645 157.577 55.96 157.28L58 155.75V134ZM71 156.8V134H68V155.75L70.04 157.28C70.4355 157.577 71 157.294 71 156.8Z" fill="#808080"/>
<ellipse cx="70.5" cy="131" rx="1.5" ry="2" fill="#5F7A93"/>
<ellipse cx="27.5" cy="131" rx="1.5" ry="2" fill="#5F7A93"/>
<ellipse cx="42.5" cy="131" rx="1.5" ry="2" fill="#5F7A93"/>
<ellipse cx="55.5" cy="131" rx="1.5" ry="2" fill="#5F7A93"/>
<defs>
<filter id="filter0_f_215_5607" x="61" y="106" width="14" height="14" filterUnits="userSpaceOnUse" color-interpolation-filters="sRGB">
<feFlood flood-opacity="0" result="BackgroundImageFix"/>
<feBlend mode="normal" in="SourceGraphic" in2="BackgroundImageFix" result="shape"/>
<feGaussianBlur stdDeviation="2" result="effect1_foregroundBlur_215_5607"/>
</filter>
<filter id="filter1_f_215_5607" x="23" y="106" width="14" height="14" filterUnits="userSpaceOnUse" color-interpolation-filters="sRGB">
<feFlood flood-opacity="0" result="BackgroundImageFix"/>
<feBlend mode="normal" in="SourceGraphic" in2="BackgroundImageFix" result="shape"/>
<feGaussianBlur stdDeviation="2" result="effect1_foregroundBlur_215_5607"/>
</filter>
<filter id="filter2_f_215_5607" x="42" y="100" width="14" height="14" filterUnits="userSpaceOnUse" color-interpolation-filters="sRGB">
<feFlood flood-opacity="0" result="BackgroundImageFix"/>
<feBlend mode="normal" in="SourceGraphic" in2="BackgroundImageFix" result="shape"/>
<feGaussianBlur stdDeviation="2" result="effect1_foregroundBlur_215_5607"/>
</filter>
</defs>
</svg>
