<svg width="356" height="250" viewBox="0 0 356 250" fill="none" xmlns="http://www.w3.org/2000/svg">
<path d="M234 172H254L255.532 181.959C255.842 183.975 255.842 186.026 255.532 188.041L254 198H234L232.468 188.041C232.158 186.026 232.158 183.975 232.468 181.959L234 172Z" fill="#F0C419"/>
<path fill-rule="evenodd" clip-rule="evenodd" d="M233.339 193.702L232.468 188.041C232.158 186.026 232.158 183.974 232.468 181.959L233.182 177.318L241.582 176.295C243.188 176.099 244.812 176.099 246.418 176.295L254.818 177.318L255.532 181.959C255.842 183.974 255.842 186.026 255.532 188.041L254.661 193.702L246.418 194.705C244.812 194.901 243.188 194.901 241.582 194.705L233.339 193.702Z" fill="#F29C1F"/>
<path d="M232.569 197.906C232.255 197.14 232.621 196.263 233.388 195.949L234.313 195.569C235.079 195.255 235.956 195.621 236.27 196.388V196.388V196.388C236.584 197.154 236.218 198.031 235.452 198.345L234.526 198.725C233.76 199.039 232.884 198.673 232.569 197.906V197.906V197.906Z" fill="#F0C419"/>
<path d="M232.569 172.388C232.255 173.154 232.621 174.03 233.388 174.345L234.313 174.724C235.079 175.039 235.956 174.672 236.27 173.906V173.906V173.906C236.584 173.14 236.218 172.263 235.452 171.949L234.526 171.569C233.76 171.255 232.884 171.621 232.569 172.388V172.388V172.388Z" fill="#F0C419"/>
<path d="M255.27 197.906C255.584 197.14 255.218 196.263 254.452 195.949L253.526 195.569C252.76 195.255 251.884 195.621 251.569 196.388V196.388V196.388C251.255 197.154 251.621 198.031 252.388 198.345L253.313 198.725C254.079 199.039 254.956 198.673 255.27 197.906V197.906V197.906Z" fill="#F0C419"/>
<path d="M255.27 172.388C255.584 173.154 255.218 174.03 254.452 174.345L253.526 174.724C252.76 175.039 251.884 174.672 251.569 173.906V173.906V173.906C251.255 173.14 251.621 172.263 252.388 171.949L253.313 171.569C254.079 171.255 254.956 171.621 255.27 172.388V172.388V172.388Z" fill="#F0C419"/>
<circle cx="244" cy="185" r="6" fill="#F5EFCA"/>
<mask id="mask0_215_7975" style="mask-type:alpha" maskUnits="userSpaceOnUse" x="238" y="179" width="12" height="12">
<circle cx="244" cy="185" r="6" fill="#F5EFCA"/>
</mask>
<g mask="url(#mask0_215_7975)">
<path d="M240.008 183.721C239.935 183.307 240.361 182.985 240.739 183.17L241.937 183.756C243.697 184.616 244.813 186.404 244.813 188.363L244.813 189.998C244.813 190.19 244.609 190.314 244.439 190.226L243.089 189.529C241.67 188.797 240.673 187.445 240.393 185.873L240.008 183.721Z" fill="#B1CF7F"/>
<path d="M247.989 184.036C248.086 183.492 247.524 183.068 247.027 183.31C244.71 184.444 243.241 186.798 243.241 189.377L243.241 189.808C243.241 190.087 243.539 190.265 243.787 190.137C245.935 189.028 247.465 186.971 247.89 184.591L247.989 184.036Z" fill="#B1CF7F"/>
<path d="M243.239 182.417C243.45 181.906 244.152 181.852 244.44 182.324C245.78 184.528 245.748 187.303 244.358 189.475L244.126 189.838C243.975 190.073 243.628 190.062 243.488 189.821C242.277 187.729 242.097 185.172 243.023 182.938L243.239 182.417Z" fill="#9BAF7A"/>
<path d="M241.319 189.396H246.617V192.265H241.319V189.396Z" fill="#B88257"/>
<path d="M240.421 188.162C240.421 187.483 240.972 186.931 241.652 186.931H246.165C246.845 186.931 247.396 187.483 247.396 188.162C247.396 188.842 246.845 189.393 246.165 189.393H241.652C240.972 189.393 240.421 188.842 240.421 188.162Z" fill="#D2905B"/>
</g>
<path d="M260.033 171.347L275.49 175.482L270.807 185.786C270.605 186.231 270.11 186.465 269.638 186.338L259.682 183.675C259.21 183.549 258.899 183.1 258.945 182.613L260.033 171.347Z" fill="#B88257"/>
<path d="M259.135 166.966C259.278 166.433 259.826 166.116 260.359 166.258L277.748 170.91C278.281 171.053 278.598 171.601 278.455 172.135L277.939 174.067C277.51 175.667 275.866 176.618 274.265 176.19L260.741 172.571C259.14 172.143 258.19 170.499 258.618 168.898L259.135 166.966Z" fill="#D2905B"/>
<path d="M259 182H275L273.139 193.164C273.059 193.647 272.642 194 272.153 194H261.847C261.358 194 260.941 193.647 260.861 193.164L259 182Z" fill="#B88257"/>
<path d="M257 178C257 177.448 257.448 177 258 177H276C276.552 177 277 177.448 277 178V180C277 181.657 275.657 183 274 183H260C258.343 183 257 181.657 257 180V178Z" fill="#D2905B"/>
<path d="M91 170.539C91 194.033 86.7467 190.856 81.5 190.856C76.2533 190.856 72 194.033 72 170.539C72 147.045 76.2533 128 81.5 128C86.7467 128 91 147.045 91 170.539Z" fill="#9BAF7A"/>
<path fill-rule="evenodd" clip-rule="evenodd" d="M90.9652 174.028C90.9882 172.936 91 171.774 91 170.539C91 168.961 90.9808 167.404 90.9434 165.87C90.8108 166.09 90.4534 165.992 89.9618 165.857L89.9617 165.857C89.5506 165.744 89.0457 165.606 88.5 165.606C87.9543 165.606 87.4494 165.744 87.0383 165.857L87.0382 165.857C86.4093 166.03 86 166.142 86 165.606C86 164.719 87.1193 164 88.5 164C89.6722 164 90.656 164.518 90.9264 165.217C90.8633 162.954 90.7605 160.746 90.6213 158.608C90.5811 158.607 90.5407 158.606 90.5 158.606C89.9542 158.606 89.4493 158.744 89.0383 158.857L89.0382 158.857C88.4093 159.03 88 159.142 88 158.606C88 157.719 89.1193 157 90.5 157C90.5029 157 90.5058 157 90.5087 157C90.2982 154.191 90.024 151.512 89.6938 148.999C89.5142 149.009 89.2632 148.94 88.9618 148.857L88.9617 148.857C88.5507 148.744 88.0458 148.606 87.5 148.606C86.9542 148.606 86.4493 148.744 86.0383 148.857L86.0382 148.857C85.4093 149.03 85 149.142 85 148.606C85 147.719 86.1193 147 87.5 147C88.3232 147 89.0534 147.256 89.5089 147.65C88.7102 142.058 87.6274 137.358 86.3517 133.958C86.2343 133.932 86.1036 133.896 85.9618 133.857C85.5507 133.744 85.0458 133.606 84.5 133.606C83.9542 133.606 83.4493 133.744 83.0382 133.857C82.4093 134.03 82 134.142 82 133.606C82 132.719 83.1193 132 84.5 132C84.8966 132 85.2716 132.059 85.6048 132.165C84.3623 129.495 82.9702 128 81.5 128C80.7935 128 80.105 128.345 79.4424 129C79.4616 129 79.4808 129 79.5 129C80.8807 129 82 129.719 82 130.606C82 131.142 81.5907 131.03 80.9618 130.857C80.5507 130.744 80.0458 130.606 79.5 130.606C78.9708 130.606 78.48 130.736 78.0759 130.847C76.8709 132.933 75.7846 136.087 74.875 140.051C75.0748 140.018 75.2842 140 75.5 140C76.8807 140 78 140.719 78 141.606C78 142.142 77.5907 142.03 76.9618 141.857C76.5507 141.744 76.0458 141.606 75.5 141.606C75.148 141.606 74.813 141.663 74.5092 141.735C74.0415 144.01 73.6284 146.513 73.2794 149.204C73.6404 149.074 74.0567 149 74.5 149C75.8807 149 77 149.719 77 150.606C77 151.142 76.5907 151.03 75.9618 150.857L75.9618 150.857C75.5507 150.744 75.0458 150.606 74.5 150.606C73.9713 150.606 73.4809 150.736 73.077 150.847C72.7411 153.722 72.4764 156.79 72.2935 160.005C72.3616 160.002 72.4305 160 72.5 160C73.8807 160 75 160.719 75 161.606C75 162.142 74.5907 162.03 73.9618 161.857L73.9617 161.857C73.5506 161.744 73.0457 161.606 72.5 161.606C72.4016 161.606 72.3046 161.61 72.2092 161.618C72.0721 164.495 72 167.479 72 170.539C72 173.41 72.0635 175.884 72.1847 178.013C72.2879 178.004 72.3932 178 72.5 178C73.8807 178 75 178.719 75 179.606C75 180.142 74.5907 180.03 73.9618 179.857L73.9617 179.857C73.5506 179.744 73.0457 179.606 72.5 179.606C72.4297 179.606 72.3601 179.608 72.2913 179.612C73.1999 191.379 76.1422 191.18 79.8166 190.931C80.363 190.894 80.9255 190.856 81.5 190.856C82.0745 190.856 82.637 190.894 83.1834 190.931C87.2321 191.205 90.3919 191.419 90.9217 175.632C90.7846 175.615 90.6437 175.606 90.5 175.606C89.9543 175.606 89.4494 175.744 89.0383 175.857L89.0382 175.857C88.4093 176.03 88 176.142 88 175.606C88 174.719 89.1193 174 90.5 174C90.659 174 90.8145 174.01 90.9652 174.028ZM83 137.606C83 138.142 82.5907 138.03 81.9618 137.857C81.5507 137.744 81.0458 137.606 80.5 137.606C79.9542 137.606 79.4493 137.744 79.0382 137.857C78.4093 138.03 78 138.142 78 137.606C78 136.719 79.1193 136 80.5 136C81.8807 136 83 136.719 83 137.606ZM85.9618 142.857C86.5907 143.03 87 143.142 87 142.606C87 141.719 85.8807 141 84.5 141C83.1193 141 82 141.719 82 142.606C82 143.142 82.4093 143.03 83.0382 142.857C83.4493 142.744 83.9542 142.606 84.5 142.606C85.0458 142.606 85.5507 142.744 85.9618 142.857ZM81.9618 146.857C82.5907 147.03 83 147.142 83 146.606C83 145.719 81.8807 145 80.5 145C79.1193 145 78 145.719 78 146.606C78 147.142 78.4093 147.03 79.0382 146.857L79.0382 146.857C79.4493 146.744 79.9542 146.606 80.5 146.606C81.0458 146.606 81.5507 146.744 81.9618 146.857L81.9618 146.857ZM88 154.606C88 155.142 87.5907 155.03 86.9618 154.857L86.9618 154.857C86.5507 154.744 86.0458 154.606 85.5 154.606C84.9542 154.606 84.4493 154.744 84.0383 154.857L84.0382 154.857C83.4093 155.03 83 155.142 83 154.606C83 153.719 84.1193 153 85.5 153C86.8807 153 88 153.719 88 154.606ZM85 162.606C85 163.142 84.5907 163.03 83.9618 162.857L83.9617 162.857C83.5506 162.744 83.0457 162.606 82.5 162.606C81.9543 162.606 81.4494 162.744 81.0383 162.857L81.0382 162.857C80.4093 163.03 80 163.142 80 162.606C80 161.719 81.1193 161 82.5 161C83.8807 161 85 161.719 85 162.606ZM79.9618 167.857C80.5907 168.03 81 168.142 81 167.606C81 166.719 79.8807 166 78.5 166C77.1193 166 76 166.719 76 167.606C76 168.142 76.4093 168.03 77.0382 167.857L77.0383 167.857C77.4494 167.744 77.9543 167.606 78.5 167.606C79.0457 167.606 79.5506 167.744 79.9617 167.857L79.9618 167.857ZM86.9618 172.857C87.5907 173.03 88 173.142 88 172.606C88 171.719 86.8807 171 85.5 171C84.1193 171 83 171.719 83 172.606C83 173.142 83.4093 173.03 84.0382 172.857L84.0383 172.857C84.4494 172.744 84.9543 172.606 85.5 172.606C86.0457 172.606 86.5506 172.744 86.9617 172.857L86.9618 172.857ZM76.9618 174.857C77.5907 175.03 78 175.142 78 174.606C78 173.719 76.8807 173 75.5 173C74.1193 173 73 173.719 73 174.606C73 175.142 73.4093 175.03 74.0382 174.857L74.0383 174.857C74.4494 174.744 74.9543 174.606 75.5 174.606C76.0457 174.606 76.5506 174.744 76.9617 174.857L76.9618 174.857ZM84 178.606C84 179.142 83.5907 179.03 82.9618 178.857L82.9617 178.857C82.5506 178.744 82.0457 178.606 81.5 178.606C80.9543 178.606 80.4494 178.744 80.0383 178.857L80.0382 178.857C79.4093 179.03 79 179.142 79 178.606C79 177.719 80.1193 177 81.5 177C82.8807 177 84 177.719 84 178.606ZM87.9618 182.857C88.5907 183.03 89 183.142 89 182.606C89 181.719 87.8807 181 86.5 181C85.1193 181 84 181.719 84 182.606C84 183.142 84.4093 183.03 85.0382 182.857L85.0383 182.857C85.4494 182.744 85.9543 182.606 86.5 182.606C87.0457 182.606 87.5506 182.744 87.9617 182.857L87.9618 182.857ZM78.9618 185.857C79.5907 186.03 80 186.142 80 185.606C80 184.719 78.8807 184 77.5 184C76.1193 184 75 184.719 75 185.606C75 186.142 75.4093 186.03 76.0382 185.857L76.0383 185.857C76.4494 185.744 76.9543 185.606 77.5 185.606C78.0457 185.606 78.5506 185.744 78.9617 185.857L78.9618 185.857ZM78.9618 156.857C79.5907 157.03 80 157.142 80 156.606C80 155.719 78.8807 155 77.5 155C76.1193 155 75 155.719 75 156.606C75 157.142 75.4093 157.03 76.0382 156.857L76.0382 156.857C76.4493 156.744 76.9542 156.606 77.5 156.606C78.0458 156.606 78.5507 156.744 78.9618 156.857L78.9618 156.857Z" fill="#889A6B"/>
<path d="M74 193H90L88.1393 204.164C88.0589 204.647 87.6417 205 87.1529 205H76.8471C76.3583 205 75.9411 204.647 75.8607 204.164L74 193Z" fill="#B88257"/>
<path d="M72 189C72 188.448 72.4477 188 73 188H91C91.5523 188 92 188.448 92 189V191C92 192.657 90.6569 194 89 194H75C73.3431 194 72 192.657 72 191V189Z" fill="#D2905B"/>
</svg>
