<svg width="356" height="250" viewBox="0 0 356 250" fill="none" xmlns="http://www.w3.org/2000/svg">
<path d="M305 115H309L310 243H304L305 115Z" fill="#5F7A93"/>
<path d="M299 217C299 212.582 302.582 209 307 209V209C311.418 209 315 212.582 315 217V241C315 242.105 314.105 243 313 243H301C299.895 243 299 242.105 299 241V217Z" fill="#5F7A93"/>
<rect x="302" y="194" width="10" height="7" rx="3.5" fill="#5F7A93"/>
<rect x="302" y="199" width="10" height="2" rx="1" fill="#5F7A93"/>
<rect x="297" y="216" width="20" height="4" rx="2" fill="#5F7A93"/>
<rect x="289" y="119" width="36" height="2" rx="1" fill="#5F7A93"/>
<g filter="url(#filter0_f_215_5102)">
<circle cx="326" cy="113" r="3" fill="#F7E197"/>
</g>
<rect x="320" y="117" width="12" height="2" rx="1" fill="#5F7A93"/>
<rect x="321" y="118" width="10" height="2" rx="1" fill="#5F7A93"/>
<rect x="322" y="119" width="8" height="2" rx="1" fill="#5F7A93"/>
<rect x="323" y="120" width="6" height="2" rx="1" fill="#5F7A93"/>
<rect x="324" y="121" width="4" height="2" rx="1" fill="#5F7A93"/>
<rect x="318" y="104" width="16" height="1" rx="0.5" fill="#5F7A93"/>
<rect x="321" y="118.161" width="14.1097" height="1.2" transform="rotate(-95 321 118.161)" fill="#5F7A93"/>
<rect width="14.1097" height="1.2" transform="matrix(-0.0871557 0.996195 0.996195 0.0871557 331 104)" fill="#5F7A93"/>
<circle cx="326" cy="98" r="1" fill="#5F7A93"/>
<path d="M325.672 97.5902C325.815 97.3329 326.185 97.3329 326.328 97.5902V97.5902C327.756 100.161 329.768 102.359 332.203 104.009L332.928 104.5H319.072L319.797 104.009C322.232 102.359 324.244 100.161 325.672 97.5902V97.5902Z" fill="#5F7A93"/>
<g filter="url(#filter1_f_215_5102)">
<circle cx="288" cy="113" r="3" fill="#F7E197"/>
</g>
<rect x="282" y="117" width="12" height="2" rx="1" fill="#5F7A93"/>
<rect x="283" y="118" width="10" height="2" rx="1" fill="#5F7A93"/>
<rect x="284" y="119" width="8" height="2" rx="1" fill="#5F7A93"/>
<rect x="285" y="120" width="6" height="2" rx="1" fill="#5F7A93"/>
<rect x="286" y="121" width="4" height="2" rx="1" fill="#5F7A93"/>
<rect x="280" y="104" width="16" height="1" rx="0.5" fill="#5F7A93"/>
<rect x="283" y="118.161" width="14.1097" height="1.2" transform="rotate(-95 283 118.161)" fill="#5F7A93"/>
<rect width="14.1097" height="1.2" transform="matrix(-0.0871557 0.996195 0.996195 0.0871557 293 104)" fill="#5F7A93"/>
<circle cx="288" cy="98" r="1" fill="#5F7A93"/>
<path d="M287.672 97.5902C287.815 97.3329 288.185 97.3329 288.328 97.5902V97.5902C289.756 100.161 291.768 102.359 294.203 104.009L294.928 104.5H281.072L281.797 104.009C284.232 102.359 286.244 100.161 287.672 97.5902V97.5902Z" fill="#5F7A93"/>
<g filter="url(#filter2_f_215_5102)">
<circle cx="307" cy="107" r="3" fill="#F7E197"/>
</g>
<rect x="301" y="111" width="12" height="2" rx="1" fill="#5F7A93"/>
<rect x="302" y="112" width="10" height="2" rx="1" fill="#5F7A93"/>
<rect x="303" y="113" width="8" height="2" rx="1" fill="#5F7A93"/>
<rect x="304" y="114" width="6" height="2" rx="1" fill="#5F7A93"/>
<rect x="305" y="115" width="4" height="2" rx="1" fill="#5F7A93"/>
<rect x="299" y="98" width="16" height="1" rx="0.5" fill="#5F7A93"/>
<rect x="302" y="112.161" width="14.1097" height="1.2" transform="rotate(-95 302 112.161)" fill="#5F7A93"/>
<rect width="14.1097" height="1.2" transform="matrix(-0.0871557 0.996195 0.996195 0.0871557 312 98)" fill="#5F7A93"/>
<circle cx="307" cy="92" r="1" fill="#5F7A93"/>
<path d="M306.672 91.5902C306.815 91.3329 307.185 91.3329 307.328 91.5902V91.5902C308.756 94.1607 310.768 96.3593 313.203 98.0086L313.928 98.5H300.072L300.797 98.0086C303.232 96.3593 305.244 94.1607 306.672 91.5902V91.5902Z" fill="#5F7A93"/>
<rect x="285" y="132" width="1" height="3" fill="#5F7A93"/>
<rect x="313" y="132" width="1" height="3" fill="#5F7A93"/>
<rect x="300" y="132" width="1" height="3" fill="#5F7A93"/>
<rect x="328" y="132" width="1" height="3" fill="#5F7A93"/>
<rect x="282" y="130" width="50" height="2" rx="1" fill="#5F7A93"/>
<path d="M285 134H301V156.8C301 157.294 300.436 157.577 300.04 157.28L294.2 152.9C293.489 152.367 292.511 152.367 291.8 152.9L285.96 157.28C285.564 157.577 285 157.294 285 156.8V134Z" fill="#BEBEBE"/>
<path fill-rule="evenodd" clip-rule="evenodd" d="M288 134H285V156.8C285 157.294 285.564 157.577 285.96 157.28L288 155.75V134ZM301 156.8V134H298V155.75L300.04 157.28C300.436 157.577 301 157.294 301 156.8Z" fill="#808080"/>
<path d="M313 134H329V156.8C329 157.294 328.436 157.577 328.04 157.28L322.2 152.9C321.489 152.367 320.511 152.367 319.8 152.9L313.96 157.28C313.564 157.577 313 157.294 313 156.8V134Z" fill="#BEBEBE"/>
<path fill-rule="evenodd" clip-rule="evenodd" d="M316 134H313V156.8C313 157.294 313.564 157.577 313.96 157.28L316 155.75V134ZM329 156.8V134H326V155.75L328.04 157.28C328.436 157.577 329 157.294 329 156.8Z" fill="#808080"/>
<ellipse cx="328.5" cy="131" rx="1.5" ry="2" fill="#5F7A93"/>
<ellipse cx="285.5" cy="131" rx="1.5" ry="2" fill="#5F7A93"/>
<ellipse cx="300.5" cy="131" rx="1.5" ry="2" fill="#5F7A93"/>
<ellipse cx="313.5" cy="131" rx="1.5" ry="2" fill="#5F7A93"/>
<defs>
<filter id="filter0_f_215_5102" x="319" y="106" width="14" height="14" filterUnits="userSpaceOnUse" color-interpolation-filters="sRGB">
<feFlood flood-opacity="0" result="BackgroundImageFix"/>
<feBlend mode="normal" in="SourceGraphic" in2="BackgroundImageFix" result="shape"/>
<feGaussianBlur stdDeviation="2" result="effect1_foregroundBlur_215_5102"/>
</filter>
<filter id="filter1_f_215_5102" x="281" y="106" width="14" height="14" filterUnits="userSpaceOnUse" color-interpolation-filters="sRGB">
<feFlood flood-opacity="0" result="BackgroundImageFix"/>
<feBlend mode="normal" in="SourceGraphic" in2="BackgroundImageFix" result="shape"/>
<feGaussianBlur stdDeviation="2" result="effect1_foregroundBlur_215_5102"/>
</filter>
<filter id="filter2_f_215_5102" x="300" y="100" width="14" height="14" filterUnits="userSpaceOnUse" color-interpolation-filters="sRGB">
<feFlood flood-opacity="0" result="BackgroundImageFix"/>
<feBlend mode="normal" in="SourceGraphic" in2="BackgroundImageFix" result="shape"/>
<feGaussianBlur stdDeviation="2" result="effect1_foregroundBlur_215_5102"/>
</filter>
</defs>
</svg>
