<svg width="356" height="250" viewBox="0 0 356 250" fill="none" xmlns="http://www.w3.org/2000/svg">
<rect x="173" y="174" width="34" height="44" fill="#C5B9A4"/>
<rect x="176" y="177" width="28" height="38" fill="#556965"/>
<rect x="173" y="218" width="3" height="6" fill="#C5B9A4"/>
<rect x="176" y="218" width="2" height="4" fill="#A39B8D"/>
<rect x="202" y="218" width="2" height="4" fill="#A39B8D"/>
<rect x="204" y="218" width="3" height="6" fill="#C5B9A4"/>
<path d="M185.775 193.186C185.735 193.066 185.815 192.939 185.941 192.924L195.573 191.749C195.698 191.733 195.806 191.837 195.796 191.963L195.291 198.269C195.253 198.743 194.887 199.125 194.416 199.182L188.851 199.861C188.38 199.919 187.933 199.636 187.782 199.185L185.775 193.186Z" fill="#F0F8FF"/>
<path d="M195.3 198.155L195.244 198.857C195.234 198.988 195.124 199.096 194.983 199.113L188.284 199.93C188.143 199.948 188.01 199.87 187.969 199.745L187.432 198.14C187.591 197.874 187.853 197.685 188.244 197.614C188.611 197.549 188.404 197.812 188.154 198.132C187.788 198.598 187.33 199.182 188.418 199.038C188.466 199.033 188.514 199.03 188.562 199.027C188.489 197.923 188.849 196.928 189.909 196.947C190.281 196.953 190.02 197.172 189.703 197.437C189.242 197.823 188.664 198.308 189.756 198.378C189.814 198.384 189.871 198.391 189.928 198.4C190.046 197.891 190.369 197.519 190.975 197.446C191.345 197.401 191.121 197.653 190.85 197.957C190.681 198.147 190.493 198.358 190.42 198.53C190.656 198.618 190.874 198.736 191.069 198.877C191.227 198.872 191.381 198.88 191.531 198.901C191.385 198.024 191.612 197.254 192.497 197.095C192.864 197.03 192.657 197.293 192.406 197.613C192.041 198.079 191.582 198.663 192.671 198.519C192.771 198.509 192.87 198.505 192.968 198.506C192.897 197.392 193.263 196.384 194.329 196.41C194.701 196.419 194.438 196.636 194.12 196.899C193.656 197.282 193.074 197.763 194.166 197.84C194.306 197.855 194.443 197.88 194.574 197.915C194.609 197.364 194.857 196.922 195.412 196.758L195.361 197.398C195.103 197.738 194.891 198.089 195.3 198.155Z" fill="#589EDD"/>
<ellipse cx="192.844" cy="197.241" rx="0.0738636" ry="0.068289" transform="rotate(-6.95623 192.844 197.241)" fill="#589EDD"/>
<ellipse cx="191.02" cy="198.152" rx="0.0738636" ry="0.068289" transform="rotate(-6.95623 191.02 198.152)" fill="#589EDD"/>
<ellipse cx="187.955" cy="197.425" rx="0.0738636" ry="0.068289" transform="rotate(-6.95623 187.955 197.425)" fill="#589EDD"/>
<ellipse cx="194.211" cy="196.249" rx="0.0738636" ry="0.068289" transform="rotate(-6.95623 194.211 196.249)" fill="#589EDD"/>
<ellipse cx="194.066" cy="197.505" rx="0.0738636" ry="0.068289" transform="rotate(-6.95623 194.066 197.505)" fill="#589EDD"/>
<ellipse cx="192.226" cy="198.28" rx="0.0738636" ry="0.068289" transform="rotate(-6.95623 192.226 198.28)" fill="#589EDD"/>
<ellipse cx="189.634" cy="197.771" rx="0.0738636" ry="0.068289" transform="rotate(-6.95623 189.634 197.771)" fill="#589EDD"/>
<ellipse cx="187.957" cy="198.663" rx="0.0738636" ry="0.068289" transform="rotate(-6.95623 187.957 198.663)" fill="#589EDD"/>
<ellipse cx="190.547" cy="197.934" rx="0.0738636" ry="0.068289" transform="rotate(-6.95623 190.547 197.934)" fill="#F0F8FF"/>
<ellipse cx="193.674" cy="196.727" rx="0.0738636" ry="0.068289" transform="rotate(-6.95623 193.674 196.727)" fill="#F0F8FF"/>
<ellipse cx="195.223" cy="197.226" rx="0.0738636" ry="0.068289" transform="rotate(-6.95623 195.223 197.226)" fill="#F0F8FF"/>
<ellipse cx="194.279" cy="198.029" rx="0.0738636" ry="0.068289" transform="rotate(-6.95623 194.279 198.029)" fill="#F0F8FF"/>
<ellipse cx="192.273" cy="197.449" rx="0.0738636" ry="0.068289" transform="rotate(-6.95623 192.273 197.449)" fill="#F0F8FF"/>
<ellipse cx="191.836" cy="198.74" rx="0.0738636" ry="0.068289" transform="rotate(-6.95623 191.836 198.74)" fill="#F0F8FF"/>
<ellipse cx="189.014" cy="197.571" rx="0.0738636" ry="0.068289" transform="rotate(-6.95623 189.014 197.571)" fill="#F0F8FF"/>
<ellipse cx="193.22" cy="197.883" rx="0.0738636" ry="0.068289" transform="rotate(-6.95623 193.22 197.883)" fill="#F0F8FF"/>
<ellipse cx="187.597" cy="198.157" rx="0.0738636" ry="0.068289" transform="rotate(-6.95623 187.597 198.157)" fill="#F0F8FF"/>
<ellipse cx="188.853" cy="198.691" rx="0.0738636" ry="0.068289" transform="rotate(-6.95623 188.853 198.691)" fill="#F0F8FF"/>
<path d="M190.999 195.047C190.968 195.225 190.924 195.392 190.869 195.548C190.815 195.701 190.749 195.845 190.67 195.98C190.597 196.108 190.517 196.218 190.428 196.31C190.341 196.402 190.252 196.471 190.16 196.517C190.091 196.56 190.041 196.566 190.009 196.535C189.977 196.502 189.99 196.455 190.048 196.395C190.106 196.341 190.166 196.268 190.227 196.177C190.287 196.084 190.343 195.978 190.394 195.86C190.447 195.742 190.493 195.611 190.531 195.467C190.569 195.323 190.597 195.172 190.615 195.014L190.127 195.073L189.979 195.119L189.859 194.904L190.069 194.913L190.622 194.845L190.64 194.704C190.642 194.659 190.675 194.644 190.739 194.657C190.803 194.668 190.871 194.701 190.943 194.757C191.005 194.806 191.043 194.844 191.058 194.872C191.061 194.877 191.063 194.88 191.063 194.882L190.909 193.618C190.911 193.617 190.946 193.617 191.013 193.615C191.083 193.614 191.154 193.62 191.228 193.634C191.302 193.649 191.346 193.668 191.361 193.692C191.375 193.713 191.38 193.739 191.377 193.77C191.369 193.796 191.357 193.822 191.341 193.847C191.328 193.872 191.322 193.894 191.325 193.912L191.396 194.5C191.424 194.576 191.458 194.65 191.497 194.725C191.536 194.799 191.566 194.848 191.585 194.871L192.004 194.22L192.271 194.466C192.313 194.501 192.336 194.533 192.342 194.562C192.35 194.589 192.347 194.613 192.334 194.633C192.324 194.648 192.303 194.662 192.272 194.676C192.241 194.689 192.21 194.697 192.178 194.701C192.169 194.704 192.148 194.72 192.114 194.747C192.08 194.772 192.04 194.803 191.996 194.838C191.947 194.877 191.896 194.918 191.843 194.962C191.793 195.003 191.746 195.042 191.704 195.08C191.767 195.177 191.838 195.27 191.917 195.361C191.997 195.451 192.082 195.532 192.17 195.605C192.257 195.676 192.345 195.735 192.432 195.783C192.519 195.83 192.599 195.86 192.673 195.872C192.725 195.882 192.759 195.893 192.775 195.905C192.79 195.917 192.791 195.936 192.778 195.964C192.771 195.981 192.753 196.001 192.723 196.023C192.693 196.045 192.66 196.072 192.625 196.104C192.587 196.139 192.558 196.166 192.537 196.185C192.518 196.204 192.504 196.218 192.493 196.229C192.478 196.24 192.464 196.248 192.451 196.255C192.438 196.259 192.425 196.256 192.412 196.246C192.361 196.233 192.301 196.207 192.231 196.166C192.163 196.124 192.091 196.065 192.014 195.991C191.938 195.919 191.86 195.834 191.781 195.737C191.701 195.637 191.63 195.526 191.566 195.404C191.55 195.371 191.533 195.331 191.513 195.284C191.504 195.267 191.495 195.247 191.485 195.225L191.629 196.404C191.634 196.447 191.629 196.486 191.615 196.521C191.601 196.555 191.581 196.59 191.555 196.626C191.535 196.651 191.508 196.674 191.476 196.695C191.444 196.717 191.413 196.73 191.383 196.734C191.374 196.735 191.366 196.734 191.358 196.73C191.351 196.728 191.345 196.727 191.34 196.725C191.333 196.721 191.326 196.718 191.321 196.713C191.316 196.712 191.313 196.71 191.31 196.708C191.277 196.684 191.24 196.665 191.199 196.652C191.16 196.64 191.12 196.631 191.08 196.624C191.042 196.617 191.007 196.612 190.974 196.609C190.943 196.608 190.927 196.607 190.924 196.605C190.871 196.607 190.841 196.586 190.833 196.543C190.828 196.499 190.858 196.473 190.925 196.465L191.251 196.426L191.071 194.951C191.065 194.973 191.053 194.988 191.035 194.997C191.016 195.011 191.004 195.028 190.999 195.047ZM190.729 194.491C190.68 194.548 190.63 194.561 190.577 194.53C190.524 194.497 190.481 194.452 190.449 194.396C190.404 194.329 190.357 194.277 190.308 194.239C190.261 194.2 190.22 194.168 190.184 194.142C190.151 194.116 190.124 194.094 190.103 194.075C190.084 194.057 190.093 194.036 190.13 194.013C190.174 193.993 190.243 193.987 190.337 193.994C190.433 194.001 190.527 194.025 190.618 194.065C190.722 194.117 190.784 194.184 190.803 194.265C190.822 194.347 190.797 194.422 190.729 194.491Z" fill="#DE2E2E"/>
<path fill-rule="evenodd" clip-rule="evenodd" d="M186.528 190.808C186.577 188.671 188.048 186.863 190.059 186.617C192.069 186.372 193.932 187.774 194.494 189.836C195.059 190.354 195.432 191.011 195.523 191.755L190.757 192.336L185.991 192.918C185.9 192.174 186.104 191.446 186.528 190.808Z" fill="#FFFEF6"/>
<path fill-rule="evenodd" clip-rule="evenodd" d="M194.4 189.534C193.747 187.639 191.97 186.384 190.059 186.617C188.048 186.863 186.577 188.671 186.528 190.808C186.362 191.057 186.23 191.32 186.136 191.592C186.892 191.376 187.541 190.847 187.801 190.026C187.821 189.962 187.838 189.896 187.852 189.828C188.186 190.163 188.498 189.971 188.65 189.241C189.052 190.494 189.61 191 190.029 190.749C190.892 191.817 192.077 191.987 192.927 191.297C193.315 191.368 193.682 191.095 193.874 190.481C194.109 190.48 194.306 190.166 194.4 189.534Z" fill="#FCCA6B"/>
<ellipse cx="191.696" cy="187.36" rx="0.312344" ry="0.147727" transform="rotate(-68.3037 191.696 187.36)" fill="#FFEAA0"/>
<ellipse cx="192.535" cy="187.842" rx="0.312344" ry="0.147727" transform="rotate(-137.526 192.535 187.842)" fill="#FFEAA0"/>
<ellipse cx="190.379" cy="187.305" rx="0.312344" ry="0.147727" transform="rotate(-94.5525 190.379 187.305)" fill="#FFEAA0"/>
<path d="M188.49 187.777C188.565 187.81 188.57 187.964 188.501 188.122C188.432 188.281 188.316 188.382 188.241 188.35C188.166 188.317 188.161 188.163 188.23 188.004C188.299 187.846 188.416 187.745 188.49 187.777Z" fill="#FFEAA0"/>
<ellipse cx="189.163" cy="187.332" rx="0.312344" ry="0.147727" transform="rotate(-68.3037 189.163 187.332)" fill="#FFEAA0"/>
<ellipse cx="189.7" cy="188.347" rx="0.312344" ry="0.147727" transform="rotate(-117.227 189.7 188.347)" fill="#FFEAA0"/>
<ellipse cx="191.272" cy="188.573" rx="0.312344" ry="0.147727" transform="rotate(-98.264 191.272 188.573)" fill="#FFEAA0"/>
<path d="M190.541 192.397C189.661 192.504 189.72 192.497 188.708 192.621C187.695 192.744 187.844 192.729 186.875 192.844C186.751 191.832 187.472 190.911 188.484 190.788C189.496 190.664 190.417 191.385 190.541 192.397Z" fill="#F0AE62"/>
<path d="M190.394 192.415C189.734 192.495 189.639 192.507 188.708 192.621C187.776 192.734 188.489 192.655 187.021 192.826C186.908 191.895 187.571 191.048 188.502 190.934C189.433 190.821 190.28 191.484 190.394 192.415Z" fill="#FFE7BA"/>
<path d="M188.76 192.47C188.747 192.502 188.703 192.507 188.683 192.479L187.865 191.354C187.849 191.332 187.856 191.302 187.88 191.289L188.015 191.215C188.347 191.032 188.737 190.985 189.104 191.082L189.253 191.121C189.279 191.128 189.293 191.156 189.283 191.181L188.76 192.47Z" fill="#F0AE62"/>
<path d="M188.58 192.495C188.601 192.522 188.584 192.561 188.55 192.565L187.242 192.725C187.215 192.728 187.191 192.707 187.192 192.679L187.199 192.51C187.215 192.12 187.386 191.752 187.672 191.487L187.735 191.429C187.754 191.411 187.785 191.414 187.8 191.435L188.58 192.495Z" fill="#F0AE62"/>
<path d="M188.874 192.46C188.861 192.491 188.887 192.525 188.92 192.521L190.227 192.376C190.254 192.373 190.272 192.346 190.264 192.319L190.217 192.157C190.107 191.782 189.853 191.466 189.511 191.278L189.437 191.237C189.414 191.224 189.385 191.234 189.375 191.258L188.874 192.46Z" fill="#F0AE62"/>
<path d="M178.397 204.579C178.364 204.457 178.452 204.336 178.579 204.329L188.265 203.766C188.392 203.758 188.493 203.869 188.475 203.994L187.572 210.256C187.504 210.726 187.114 211.084 186.64 211.111L181.044 211.436C180.569 211.464 180.141 211.154 180.019 210.694L178.397 204.579Z" fill="#F0F8FF"/>
<path d="M187.588 210.142L187.487 210.839C187.469 210.969 187.352 211.07 187.21 211.078L180.473 211.469C180.331 211.478 180.204 211.391 180.17 211.264L179.736 209.628C179.911 209.373 180.186 209.201 180.58 209.156C180.95 209.113 180.727 209.363 180.457 209.666C180.063 210.108 179.568 210.662 180.664 210.587C180.712 210.585 180.76 210.585 180.808 210.586C180.805 209.479 181.228 208.509 182.284 208.595C182.654 208.625 182.38 208.827 182.048 209.071C181.563 209.427 180.955 209.874 182.041 210.013C182.098 210.023 182.155 210.034 182.211 210.047C182.36 209.546 182.706 209.195 183.316 209.16C183.688 209.139 183.449 209.376 183.159 209.663C182.978 209.842 182.778 210.04 182.693 210.207C182.924 210.31 183.133 210.442 183.32 210.595C183.477 210.599 183.63 210.618 183.779 210.648C183.688 209.764 183.964 209.01 184.857 208.907C185.227 208.865 185.004 209.115 184.734 209.418C184.34 209.859 183.845 210.414 184.941 210.339C185.041 210.335 185.14 210.337 185.238 210.345C185.238 209.228 185.666 208.245 186.729 208.339C187.1 208.372 186.824 208.572 186.489 208.814C186.002 209.167 185.391 209.61 186.475 209.756C186.615 209.78 186.749 209.814 186.878 209.857C186.948 209.309 187.224 208.884 187.788 208.755L187.696 209.39C187.417 209.713 187.183 210.051 187.588 210.142Z" fill="#589EDD"/>
<ellipse cx="185.194" cy="209.075" rx="0.0738636" ry="0.068289" transform="rotate(-3.32438 185.194 209.075)" fill="#589EDD"/>
<ellipse cx="183.316" cy="209.868" rx="0.0738636" ry="0.068289" transform="rotate(-3.32438 183.316 209.868)" fill="#589EDD"/>
<ellipse cx="180.303" cy="208.948" rx="0.0738636" ry="0.068289" transform="rotate(-3.32438 180.303 208.948)" fill="#589EDD"/>
<ellipse cx="186.621" cy="208.171" rx="0.0738636" ry="0.068289" transform="rotate(-3.32438 186.621 208.171)" fill="#589EDD"/>
<ellipse cx="186.397" cy="209.415" rx="0.0738636" ry="0.068289" transform="rotate(-3.32438 186.397 209.415)" fill="#589EDD"/>
<ellipse cx="184.512" cy="210.072" rx="0.0738636" ry="0.068289" transform="rotate(-3.32438 184.512 210.072)" fill="#589EDD"/>
<ellipse cx="181.957" cy="209.4" rx="0.0738636" ry="0.068289" transform="rotate(-3.32438 181.957 209.4)" fill="#589EDD"/>
<ellipse cx="180.227" cy="210.184" rx="0.0738636" ry="0.068289" transform="rotate(-3.32438 180.227 210.184)" fill="#589EDD"/>
<ellipse cx="182.858" cy="209.621" rx="0.0738636" ry="0.068289" transform="rotate(-3.32438 182.858 209.621)" fill="#F0F8FF"/>
<ellipse cx="186.055" cy="208.614" rx="0.0738636" ry="0.068289" transform="rotate(-3.32438 186.055 208.614)" fill="#F0F8FF"/>
<ellipse cx="187.569" cy="209.21" rx="0.0738636" ry="0.068289" transform="rotate(-3.32438 187.569 209.21)" fill="#F0F8FF"/>
<ellipse cx="186.576" cy="209.952" rx="0.0738636" ry="0.068289" transform="rotate(-3.32438 186.576 209.952)" fill="#F0F8FF"/>
<ellipse cx="184.612" cy="209.245" rx="0.0738636" ry="0.068289" transform="rotate(-3.32438 184.612 209.245)" fill="#F0F8FF"/>
<ellipse cx="184.093" cy="210.507" rx="0.0738636" ry="0.068289" transform="rotate(-3.32438 184.093 210.507)" fill="#F0F8FF"/>
<ellipse cx="181.351" cy="209.161" rx="0.0738636" ry="0.068289" transform="rotate(-3.32438 181.351 209.161)" fill="#F0F8FF"/>
<ellipse cx="185.528" cy="209.739" rx="0.0738636" ry="0.068289" transform="rotate(-3.32438 185.528 209.739)" fill="#F0F8FF"/>
<ellipse cx="179.9" cy="209.656" rx="0.0738636" ry="0.068289" transform="rotate(-3.32438 179.9 209.656)" fill="#F0F8FF"/>
<ellipse cx="181.12" cy="210.269" rx="0.0738636" ry="0.068289" transform="rotate(-3.32438 181.12 210.269)" fill="#F0F8FF"/>
<path d="M183.492 206.768C183.449 206.944 183.395 207.108 183.33 207.259C183.267 207.409 183.192 207.548 183.105 207.678C183.024 207.801 182.936 207.905 182.842 207.992C182.75 208.078 182.657 208.141 182.562 208.182C182.49 208.22 182.439 208.223 182.41 208.19C182.38 208.155 182.396 208.109 182.457 208.052C182.519 208.003 182.583 207.934 182.65 207.847C182.716 207.758 182.779 207.656 182.837 207.541C182.897 207.427 182.951 207.299 182.998 207.157C183.045 207.016 183.083 206.867 183.111 206.71L182.62 206.739L182.47 206.775L182.363 206.553L182.572 206.575L183.129 206.543L183.156 206.403C183.16 206.358 183.194 206.345 183.257 206.362C183.321 206.377 183.386 206.415 183.455 206.475C183.513 206.527 183.549 206.568 183.562 206.597C183.565 206.602 183.566 206.605 183.566 206.608L183.492 205.336C183.495 205.335 183.529 205.337 183.597 205.34C183.666 205.343 183.737 205.354 183.81 205.373C183.883 205.392 183.926 205.413 183.939 205.438C183.952 205.46 183.956 205.487 183.95 205.517C183.94 205.543 183.927 205.568 183.91 205.592C183.895 205.616 183.888 205.638 183.889 205.656L183.923 206.247C183.946 206.324 183.975 206.401 184.01 206.478C184.044 206.554 184.07 206.605 184.088 206.629L184.548 206.006L184.799 206.269C184.838 206.306 184.859 206.339 184.863 206.369C184.87 206.397 184.865 206.42 184.85 206.439C184.839 206.454 184.818 206.467 184.786 206.478C184.755 206.489 184.723 206.495 184.69 206.497C184.681 206.5 184.659 206.514 184.624 206.539C184.588 206.562 184.547 206.59 184.5 206.623C184.449 206.658 184.396 206.696 184.34 206.736C184.287 206.774 184.238 206.81 184.194 206.845C184.251 206.946 184.315 207.044 184.388 207.139C184.463 207.234 184.542 207.321 184.625 207.399C184.708 207.475 184.792 207.54 184.876 207.593C184.96 207.646 185.038 207.681 185.11 207.697C185.162 207.71 185.195 207.723 185.21 207.736C185.225 207.749 185.224 207.769 185.21 207.795C185.202 207.812 185.182 207.831 185.151 207.851C185.119 207.871 185.085 207.896 185.047 207.926C185.008 207.959 184.977 207.983 184.955 208.001C184.935 208.018 184.92 208.032 184.909 208.042C184.893 208.052 184.878 208.06 184.865 208.065C184.851 208.068 184.838 208.064 184.826 208.054C184.777 208.038 184.718 208.008 184.651 207.963C184.586 207.916 184.517 207.853 184.446 207.774C184.374 207.697 184.302 207.608 184.229 207.506C184.156 207.401 184.091 207.286 184.035 207.16C184.022 207.126 184.007 207.085 183.99 207.037C183.982 207.019 183.974 206.999 183.966 206.976L184.035 208.162C184.037 208.206 184.03 208.244 184.014 208.278C183.997 208.311 183.975 208.345 183.947 208.379C183.925 208.403 183.897 208.424 183.864 208.442C183.83 208.463 183.798 208.474 183.768 208.476C183.759 208.476 183.751 208.474 183.744 208.47C183.737 208.468 183.731 208.466 183.726 208.464C183.719 208.46 183.713 208.456 183.708 208.451C183.703 208.449 183.7 208.447 183.697 208.445C183.666 208.419 183.63 208.398 183.59 208.382C183.552 208.368 183.513 208.356 183.473 208.347C183.436 208.338 183.4 208.331 183.368 208.326C183.338 208.323 183.321 208.32 183.319 208.318C183.266 208.316 183.236 208.294 183.232 208.25C183.229 208.206 183.261 208.183 183.328 208.179L183.656 208.16L183.57 206.677C183.562 206.698 183.549 206.713 183.531 206.721C183.511 206.733 183.498 206.749 183.492 206.768ZM183.258 206.195C183.206 206.249 183.154 206.259 183.104 206.225C183.053 206.189 183.013 206.141 182.984 206.083C182.943 206.014 182.9 205.958 182.853 205.917C182.809 205.876 182.77 205.841 182.736 205.813C182.705 205.785 182.679 205.761 182.659 205.741C182.642 205.721 182.652 205.701 182.69 205.68C182.736 205.664 182.805 205.662 182.898 205.675C182.994 205.688 183.086 205.718 183.174 205.763C183.274 205.822 183.332 205.893 183.346 205.975C183.36 206.058 183.331 206.131 183.258 206.195Z" fill="#DE2E2E"/>
<path fill-rule="evenodd" clip-rule="evenodd" d="M179.299 202.254C179.483 200.125 181.066 198.413 183.088 198.296C185.11 198.178 186.88 199.695 187.31 201.789C187.842 202.341 188.172 203.02 188.215 203.769L183.422 204.047L178.629 204.326C178.586 203.577 178.835 202.864 179.299 202.254Z" fill="#FFFEF6"/>
<path fill-rule="evenodd" clip-rule="evenodd" d="M187.236 201.482C186.704 199.549 185.01 198.184 183.088 198.295C181.066 198.413 179.483 200.125 179.299 202.254C179.118 202.492 178.969 202.746 178.858 203.012C179.625 202.844 180.307 202.358 180.618 201.555C180.643 201.492 180.664 201.427 180.682 201.36C180.994 201.716 181.318 201.544 181.515 200.824C181.838 202.101 182.363 202.641 182.796 202.417C183.59 203.538 184.761 203.783 185.654 203.148C186.037 203.243 186.42 202.993 186.651 202.393C186.885 202.408 187.101 202.107 187.236 201.482Z" fill="#D8F2AC"/>
<ellipse cx="184.675" cy="199.141" rx="0.312344" ry="0.147727" transform="rotate(-64.6719 184.675 199.141)" fill="#FEFBB1"/>
<ellipse cx="185.482" cy="199.674" rx="0.312344" ry="0.147727" transform="rotate(-133.894 185.482 199.674)" fill="#FEFBB1"/>
<ellipse cx="183.364" cy="199.002" rx="0.312344" ry="0.147727" transform="rotate(-90.9206 183.364 199.002)" fill="#FEFBB1"/>
<path d="M181.449 199.354C181.521 199.391 181.516 199.545 181.437 199.699C181.359 199.852 181.236 199.947 181.163 199.909C181.091 199.872 181.096 199.718 181.175 199.564C181.253 199.411 181.376 199.316 181.449 199.354Z" fill="#FEFBB1"/>
<ellipse cx="182.148" cy="198.952" rx="0.312344" ry="0.147727" transform="rotate(-64.6719 182.148 198.952)" fill="#FEFBB1"/>
<ellipse cx="182.62" cy="199.999" rx="0.312344" ry="0.147727" transform="rotate(-113.595 182.62 199.999)" fill="#FEFBB1"/>
<ellipse cx="184.175" cy="200.324" rx="0.312344" ry="0.147727" transform="rotate(-94.6321 184.175 200.324)" fill="#FEFBB1"/>
<path d="M183.203 204.094C182.318 204.146 182.377 204.142 181.359 204.201C180.341 204.26 180.491 204.255 179.516 204.308C179.457 203.29 180.234 202.417 181.252 202.358C182.27 202.299 183.144 203.076 183.203 204.094Z" fill="#B1CF7F"/>
<path d="M183.055 204.103C182.392 204.141 182.296 204.147 181.359 204.201C180.423 204.256 181.138 204.221 179.663 204.3C179.609 203.363 180.324 202.56 181.261 202.505C182.197 202.451 183.001 203.166 183.055 204.103Z" fill="#DEF3BB"/>
<path d="M181.421 204.054C181.405 204.085 181.362 204.088 181.343 204.058L180.598 202.884C180.584 202.861 180.593 202.831 180.617 202.82L180.757 202.754C181.1 202.593 181.492 202.57 181.852 202.691L181.999 202.74C182.024 202.748 182.036 202.777 182.024 202.801L181.421 204.054Z" fill="#B1CF7F"/>
<path d="M181.24 204.068C181.259 204.097 181.239 204.134 181.205 204.136L179.889 204.213C179.862 204.214 179.84 204.191 179.843 204.164L179.861 203.995C179.902 203.607 180.095 203.25 180.398 203.004L180.463 202.951C180.484 202.934 180.514 202.939 180.529 202.961L181.24 204.068Z" fill="#B1CF7F"/>
<path d="M181.536 204.052C181.521 204.082 181.544 204.117 181.578 204.115L182.891 204.053C182.918 204.052 182.938 204.026 182.932 203.999L182.895 203.834C182.809 203.453 182.576 203.121 182.246 202.912L182.175 202.866C182.152 202.852 182.123 202.86 182.111 202.884L181.536 204.052Z" fill="#B1CF7F"/>
<path d="M191.531 204.875C191.532 204.749 191.649 204.656 191.773 204.682L201.256 206.738C201.38 206.765 201.448 206.899 201.397 207.014L198.847 212.804C198.656 213.239 198.184 213.479 197.72 213.379L192.242 212.191C191.777 212.09 191.448 211.677 191.454 211.201L191.531 204.875Z" fill="#F0F8FF"/>
<path d="M198.893 212.699L198.61 213.344C198.556 213.464 198.417 213.53 198.279 213.5L191.683 212.07C191.544 212.04 191.445 211.922 191.447 211.791L191.467 210.098C191.704 209.9 192.015 209.807 192.407 209.869C192.775 209.928 192.493 210.109 192.151 210.328C191.653 210.648 191.028 211.049 192.103 211.271C192.15 211.282 192.197 211.295 192.242 211.308C192.537 210.241 193.204 209.42 194.199 209.786C194.548 209.914 194.229 210.035 193.843 210.181C193.281 210.395 192.575 210.662 193.584 211.087C193.637 211.112 193.688 211.138 193.739 211.165C194.017 210.723 194.445 210.477 195.042 210.608C195.406 210.687 195.111 210.851 194.755 211.05C194.533 211.173 194.287 211.311 194.16 211.449C194.355 211.61 194.522 211.793 194.66 211.991C194.81 212.037 194.953 212.096 195.088 212.165C195.238 211.289 195.706 210.636 196.594 210.777C196.962 210.835 196.68 211.016 196.338 211.236C195.84 211.556 195.215 211.957 196.29 212.179C196.388 212.202 196.483 212.231 196.575 212.264C196.874 211.188 197.551 210.357 198.55 210.732C198.898 210.863 198.579 210.981 198.191 211.125C197.627 211.335 196.919 211.597 197.925 212.029C198.053 212.089 198.173 212.158 198.286 212.234C198.501 211.725 198.88 211.389 199.458 211.417L199.2 212.004C198.844 212.24 198.528 212.503 198.893 212.699Z" fill="#589EDD"/>
<ellipse cx="196.873" cy="211.029" rx="0.0738636" ry="0.068289" transform="rotate(12.2327 196.873 211.029)" fill="#589EDD"/>
<ellipse cx="194.852" cy="211.289" rx="0.0738636" ry="0.068289" transform="rotate(12.2327 194.852 211.289)" fill="#589EDD"/>
<ellipse cx="192.196" cy="209.595" rx="0.0738636" ry="0.068289" transform="rotate(12.2327 192.196 209.595)" fill="#589EDD"/>
<ellipse cx="198.491" cy="210.541" rx="0.0738636" ry="0.068289" transform="rotate(12.2327 198.491 210.541)" fill="#589EDD"/>
<ellipse cx="197.941" cy="211.679" rx="0.0738636" ry="0.068289" transform="rotate(12.2327 197.941 211.679)" fill="#589EDD"/>
<ellipse cx="195.949" cy="211.807" rx="0.0738636" ry="0.068289" transform="rotate(12.2327 195.949 211.807)" fill="#589EDD"/>
<ellipse cx="193.668" cy="210.473" rx="0.0738636" ry="0.068289" transform="rotate(12.2327 193.668 210.473)" fill="#589EDD"/>
<ellipse cx="191.791" cy="210.765" rx="0.0738636" ry="0.068289" transform="rotate(12.2327 191.791 210.765)" fill="#589EDD"/>
<ellipse cx="194.476" cy="210.928" rx="0.0738636" ry="0.068289" transform="rotate(12.2327 194.476 210.928)" fill="#F0F8FF"/>
<ellipse cx="197.826" cy="210.816" rx="0.0738636" ry="0.068289" transform="rotate(12.2327 197.826 210.816)" fill="#F0F8FF"/>
<ellipse cx="199.125" cy="211.796" rx="0.0738636" ry="0.068289" transform="rotate(12.2327 199.125 211.796)" fill="#F0F8FF"/>
<ellipse cx="197.97" cy="212.245" rx="0.0738636" ry="0.068289" transform="rotate(12.2327 197.97 212.245)" fill="#F0F8FF"/>
<ellipse cx="196.267" cy="211.037" rx="0.0738636" ry="0.068289" transform="rotate(12.2327 196.267 211.037)" fill="#F0F8FF"/>
<ellipse cx="195.429" cy="212.113" rx="0.0738636" ry="0.068289" transform="rotate(12.2327 195.429 212.113)" fill="#F0F8FF"/>
<ellipse cx="193.149" cy="210.081" rx="0.0738636" ry="0.068289" transform="rotate(12.2327 193.149 210.081)" fill="#F0F8FF"/>
<ellipse cx="197.017" cy="211.759" rx="0.0738636" ry="0.068289" transform="rotate(12.2327 197.017 211.759)" fill="#F0F8FF"/>
<ellipse cx="191.618" cy="210.169" rx="0.0738636" ry="0.068289" transform="rotate(12.2327 191.618 210.169)" fill="#F0F8FF"/>
<ellipse cx="192.628" cy="211.087" rx="0.0738636" ry="0.068289" transform="rotate(12.2327 192.628 211.087)" fill="#F0F8FF"/>
<path d="M195.852 208.35C195.764 208.508 195.668 208.652 195.564 208.78C195.464 208.907 195.354 209.022 195.235 209.123C195.124 209.22 195.012 209.297 194.898 209.355C194.786 209.413 194.679 209.449 194.577 209.463C194.497 209.481 194.448 209.47 194.428 209.43C194.409 209.388 194.436 209.348 194.511 209.31C194.584 209.279 194.664 209.23 194.751 209.164C194.839 209.096 194.927 209.014 195.013 208.92C195.102 208.825 195.189 208.717 195.272 208.593C195.355 208.469 195.432 208.336 195.501 208.193L195.02 208.088L194.865 208.083L194.822 207.84L195.018 207.918L195.563 208.036L195.626 207.908C195.642 207.867 195.678 207.863 195.735 207.896C195.792 207.927 195.845 207.981 195.895 208.058C195.937 208.124 195.961 208.173 195.966 208.205C195.967 208.21 195.967 208.213 195.967 208.216L196.237 206.97C196.239 206.971 196.272 206.982 196.336 207.003C196.402 207.024 196.468 207.054 196.533 207.091C196.598 207.129 196.633 207.162 196.639 207.189C196.646 207.214 196.642 207.24 196.629 207.268C196.613 207.291 196.593 207.311 196.57 207.33C196.549 207.349 196.537 207.367 196.533 207.385L196.407 207.964C196.409 208.045 196.416 208.126 196.429 208.21C196.441 208.293 196.453 208.348 196.463 208.376L197.073 207.899L197.245 208.22C197.273 208.266 197.284 208.304 197.28 208.334C197.279 208.362 197.268 208.383 197.249 208.398C197.234 208.409 197.211 208.416 197.177 208.418C197.143 208.42 197.111 208.418 197.079 208.411C197.07 208.411 197.045 208.419 197.004 208.433C196.963 208.446 196.916 208.462 196.862 208.481C196.804 208.501 196.742 208.523 196.678 208.547C196.616 208.569 196.56 208.591 196.508 208.613C196.535 208.725 196.571 208.837 196.616 208.948C196.662 209.06 196.715 209.164 196.774 209.262C196.834 209.358 196.897 209.442 196.964 209.516C197.03 209.589 197.097 209.644 197.162 209.679C197.208 209.706 197.237 209.727 197.247 209.744C197.258 209.76 197.253 209.779 197.231 209.801C197.219 209.815 197.195 209.827 197.16 209.838C197.124 209.849 197.084 209.864 197.04 209.883C196.993 209.904 196.957 209.919 196.931 209.93C196.907 209.942 196.888 209.951 196.875 209.957C196.857 209.963 196.841 209.966 196.827 209.968C196.813 209.967 196.801 209.96 196.792 209.946C196.749 209.918 196.701 209.873 196.648 209.812C196.598 209.75 196.549 209.67 196.501 209.575C196.453 209.482 196.407 209.376 196.364 209.258C196.322 209.138 196.291 209.01 196.271 208.873C196.267 208.837 196.263 208.794 196.26 208.743C196.257 208.724 196.255 208.702 196.253 208.678L196.001 209.839C195.992 209.882 195.975 209.917 195.95 209.944C195.925 209.972 195.894 209.999 195.858 210.024C195.831 210.041 195.798 210.055 195.761 210.063C195.723 210.074 195.69 210.076 195.66 210.069C195.651 210.068 195.644 210.064 195.638 210.058C195.632 210.054 195.627 210.05 195.623 210.047C195.617 210.041 195.612 210.035 195.609 210.03C195.605 210.027 195.602 210.024 195.6 210.021C195.577 209.988 195.548 209.958 195.513 209.931C195.481 209.908 195.446 209.886 195.41 209.866C195.377 209.847 195.345 209.831 195.315 209.817C195.286 209.807 195.271 209.8 195.27 209.797C195.219 209.781 195.197 209.752 195.204 209.708C195.213 209.665 195.25 209.651 195.316 209.665L195.637 209.735L195.952 208.283C195.939 208.302 195.922 208.312 195.903 208.315C195.88 208.322 195.863 208.334 195.852 208.35ZM195.78 207.736C195.715 207.774 195.663 207.77 195.624 207.723C195.584 207.675 195.559 207.618 195.547 207.554C195.526 207.477 195.499 207.412 195.465 207.359C195.434 207.308 195.405 207.264 195.38 207.228C195.357 207.192 195.339 207.162 195.325 207.138C195.314 207.114 195.329 207.097 195.372 207.088C195.42 207.084 195.487 207.101 195.573 207.138C195.662 207.176 195.742 207.229 195.815 207.297C195.896 207.381 195.932 207.464 195.924 207.547C195.915 207.631 195.867 207.693 195.78 207.736Z" fill="#DE2E2E"/>
<path fill-rule="evenodd" clip-rule="evenodd" d="M193.024 202.877C193.772 200.875 195.756 199.651 197.735 200.08C199.715 200.509 201.013 202.445 200.866 204.577C201.23 205.252 201.366 205.995 201.207 206.728L196.515 205.71L191.823 204.693C191.981 203.961 192.413 203.341 193.024 202.877Z" fill="#FFFEF6"/>
<path fill-rule="evenodd" clip-rule="evenodd" d="M200.877 204.262C200.883 202.257 199.617 200.488 197.735 200.08C195.756 199.651 193.772 200.875 193.023 202.877C192.785 203.058 192.574 203.263 192.396 203.489C193.18 203.533 193.967 203.248 194.482 202.557C194.522 202.503 194.56 202.447 194.596 202.387C194.801 202.813 195.159 202.734 195.542 202.094C195.51 203.411 195.871 204.072 196.349 203.972C196.813 205.265 197.876 205.815 198.905 205.443C199.249 205.637 199.685 205.499 200.069 204.983C200.291 205.06 200.58 204.828 200.877 204.262Z" fill="#FFE99B"/>
<ellipse cx="199.037" cy="201.32" rx="0.312344" ry="0.147727" transform="rotate(-49.1148 199.037 201.32)" fill="#EEBF19"/>
<ellipse cx="199.671" cy="202.05" rx="0.312344" ry="0.147727" transform="rotate(-118.337 199.671 202.05)" fill="#EEBF19"/>
<ellipse cx="197.811" cy="200.835" rx="0.312344" ry="0.147727" transform="rotate(-75.3635 197.811 200.835)" fill="#EEBF19"/>
<path d="M195.872 200.66C195.932 200.715 195.886 200.863 195.769 200.989C195.652 201.116 195.508 201.174 195.448 201.119C195.388 201.063 195.435 200.916 195.552 200.789C195.669 200.662 195.812 200.604 195.872 200.66Z" fill="#EEBF19"/>
<ellipse cx="196.654" cy="200.46" rx="0.312344" ry="0.147727" transform="rotate(-49.1148 196.654 200.46)" fill="#EEBF19"/>
<ellipse cx="196.828" cy="201.596" rx="0.312344" ry="0.147727" transform="rotate(-98.0376 196.828 201.596)" fill="#EEBF19"/>
<ellipse cx="198.238" cy="202.326" rx="0.312344" ry="0.147727" transform="rotate(-79.075 198.238 202.326)" fill="#EEBF19"/>
<path d="M201.098 205.832C200.882 206.829 199.899 207.462 198.903 207.246C197.906 207.03 197.273 206.046 197.489 205.05C197.705 204.053 198.688 203.42 199.685 203.636C200.682 203.852 201.315 204.836 201.098 205.832Z" fill="#FFDE6A"/>
<path d="M200.954 205.801C200.755 206.718 199.851 207.3 198.934 207.101C198.017 206.903 197.435 205.998 197.633 205.081C197.832 204.164 198.737 203.582 199.654 203.781C200.571 203.98 201.153 204.884 200.954 205.801Z" fill="#FFFCE4"/>
<path d="M199.392 205.315C199.369 205.342 199.327 205.332 199.317 205.299L198.914 203.968C198.906 203.942 198.923 203.916 198.949 203.911L199.101 203.886C199.475 203.822 199.859 203.906 200.174 204.118L200.302 204.204C200.324 204.219 200.328 204.25 200.31 204.27L199.392 205.315Z" fill="#FFDE6A"/>
<path d="M199.301 205.59C199.291 205.556 199.248 205.547 199.225 205.573L198.308 206.618C198.29 206.638 198.294 206.669 198.316 206.684L198.444 206.771C198.758 206.983 199.142 207.066 199.516 207.003L199.669 206.977C199.695 206.973 199.711 206.946 199.704 206.921L199.301 205.59Z" fill="#FFDE6A"/>
<path d="M199.143 205.412C199.177 205.418 199.192 205.459 199.169 205.485L198.251 206.531C198.233 206.551 198.202 206.551 198.185 206.531L198.128 206.468C197.867 206.178 197.731 205.796 197.751 205.406L197.76 205.234C197.761 205.208 197.785 205.188 197.811 205.193L199.143 205.412Z" fill="#FFDE6A"/>
<path d="M199.215 205.281C199.225 205.313 199.196 205.344 199.163 205.337L197.875 205.058C197.848 205.052 197.833 205.024 197.843 204.998L197.905 204.841C198.049 204.477 198.331 204.186 198.689 204.03L198.766 203.996C198.79 203.985 198.819 203.998 198.826 204.023L199.215 205.281Z" fill="#FFDE6A"/>
<path d="M199.443 205.477C199.41 205.468 199.379 205.5 199.39 205.533L199.802 206.852C199.81 206.877 199.838 206.89 199.862 206.88L199.94 206.846C200.298 206.69 200.58 206.398 200.723 206.035L200.787 205.875C200.796 205.851 200.782 205.823 200.756 205.816L199.443 205.477Z" fill="#FFDE6A"/>
<path d="M199.504 205.344C199.481 205.369 199.494 205.409 199.527 205.417L200.809 205.709C200.836 205.715 200.861 205.695 200.863 205.668L200.871 205.499C200.891 205.109 200.755 204.727 200.494 204.437L200.437 204.374C200.42 204.354 200.389 204.354 200.371 204.374L199.504 205.344Z" fill="#FFDE6A"/>
<path d="M180 187.729C180 187.719 180.001 187.71 180.004 187.701L180.435 186.223C180.459 186.139 180.573 186.125 180.617 186.201L181.414 187.566C181.452 187.632 181.548 187.632 181.586 187.566L182.414 186.148C182.452 186.082 182.548 186.082 182.586 186.148L183.414 187.566C183.452 187.632 183.548 187.632 183.586 187.566L184.383 186.201C184.427 186.125 184.541 186.139 184.565 186.223L184.996 187.701C184.999 187.71 185 187.719 185 187.729V189.4C185 189.731 184.731 190 184.4 190H180.6C180.269 190 180 189.731 180 189.4V187.729Z" fill="#FFDE6A"/>
<path d="M181.693 188.63C181.678 188.63 181.663 188.629 181.649 188.627C181.635 188.625 181.622 188.62 181.611 188.614C181.601 188.607 181.592 188.597 181.585 188.584C181.578 188.571 181.575 188.554 181.575 188.531C181.575 188.507 181.578 188.488 181.585 188.475C181.592 188.461 181.601 188.451 181.611 188.445C181.622 188.438 181.635 188.434 181.649 188.433C181.663 188.431 181.678 188.431 181.693 188.431H181.832L181.856 188.291C181.856 188.284 181.858 188.275 181.861 188.264C181.865 188.252 181.87 188.241 181.876 188.23C181.883 188.22 181.892 188.21 181.903 188.202C181.914 188.195 181.929 188.191 181.946 188.191C181.959 188.191 181.973 188.192 181.986 188.194C182 188.196 182.012 188.2 182.022 188.207C182.032 188.213 182.041 188.222 182.047 188.235C182.054 188.247 182.057 188.263 182.057 188.283C182.057 188.285 182.057 188.288 182.056 188.291C182.056 188.294 182.055 188.301 182.054 188.311C182.052 188.32 182.05 188.334 182.046 188.354C182.044 188.372 182.039 188.398 182.034 188.431H182.216L182.239 188.291C182.24 188.284 182.242 188.275 182.245 188.264C182.248 188.252 182.253 188.241 182.26 188.23C182.267 188.22 182.276 188.21 182.286 188.202C182.298 188.195 182.312 188.191 182.329 188.191C182.343 188.191 182.356 188.192 182.37 188.194C182.384 188.196 182.395 188.2 182.405 188.207C182.416 188.213 182.425 188.222 182.431 188.235C182.437 188.247 182.441 188.263 182.441 188.283C182.441 188.285 182.44 188.288 182.44 188.291C182.44 188.294 182.439 188.301 182.437 188.311C182.436 188.32 182.434 188.334 182.43 188.354C182.427 188.372 182.423 188.398 182.417 188.431H182.509C182.523 188.431 182.537 188.431 182.551 188.433C182.565 188.434 182.578 188.438 182.589 188.445C182.6 188.451 182.609 188.461 182.616 188.475C182.624 188.488 182.627 188.507 182.627 188.531C182.627 188.554 182.624 188.571 182.616 188.584C182.609 188.597 182.6 188.607 182.589 188.614C182.578 188.62 182.565 188.625 182.551 188.627C182.537 188.629 182.523 188.63 182.509 188.63H182.385L182.342 188.87H182.432C182.446 188.87 182.46 188.871 182.474 188.872C182.488 188.874 182.501 188.877 182.511 188.884C182.523 188.89 182.532 188.9 182.539 188.914C182.546 188.927 182.55 188.946 182.55 188.971C182.55 188.994 182.546 189.011 182.539 189.024C182.532 189.037 182.523 189.047 182.511 189.054C182.501 189.061 182.488 189.065 182.474 189.067C182.46 189.069 182.446 189.069 182.432 189.069H182.308L182.291 189.181C182.287 189.201 182.283 189.221 182.278 189.239C182.274 189.256 182.267 189.272 182.26 189.286C182.252 189.299 182.243 189.309 182.232 189.317C182.221 189.325 182.208 189.329 182.192 189.329C182.179 189.329 182.165 189.328 182.151 189.326C182.139 189.325 182.127 189.321 182.116 189.316C182.105 189.309 182.097 189.3 182.09 189.289C182.084 189.277 182.081 189.261 182.081 189.241C182.081 189.239 182.081 189.236 182.081 189.232C182.081 189.228 182.082 189.22 182.084 189.209C182.085 189.197 182.088 189.181 182.091 189.159C182.095 189.137 182.1 189.107 182.106 189.069H181.924L181.907 189.181C181.904 189.201 181.899 189.221 181.894 189.239C181.89 189.256 181.884 189.272 181.876 189.286C181.869 189.299 181.86 189.309 181.848 189.317C181.837 189.325 181.824 189.329 181.809 189.329C181.795 189.329 181.781 189.328 181.768 189.326C181.755 189.325 181.743 189.321 181.732 189.316C181.722 189.309 181.713 189.3 181.707 189.289C181.7 189.277 181.697 189.261 181.697 189.241C181.697 189.239 181.697 189.236 181.697 189.232C181.698 189.228 181.699 189.22 181.7 189.209C181.702 189.197 181.704 189.181 181.708 189.159C181.711 189.137 181.716 189.107 181.723 189.069H181.618C181.603 189.069 181.588 189.069 181.574 189.067C181.56 189.065 181.547 189.061 181.536 189.054C181.526 189.047 181.517 189.037 181.51 189.024C181.503 189.011 181.5 188.994 181.5 188.971C181.5 188.946 181.503 188.927 181.51 188.914C181.517 188.9 181.526 188.89 181.536 188.884C181.547 188.877 181.56 188.874 181.574 188.872C181.588 188.871 181.603 188.87 181.618 188.87H181.755L181.798 188.63H181.693ZM181.959 188.87H182.139L182.181 188.63H182.001L181.959 188.87Z" fill="white"/>
<path d="M183.118 188.469C183.094 188.491 183.069 188.507 183.041 188.52C183.013 188.532 182.98 188.538 182.942 188.538C182.921 188.538 182.901 188.534 182.882 188.526C182.864 188.517 182.849 188.506 182.836 188.493C182.823 188.479 182.813 188.462 182.805 188.445C182.798 188.427 182.794 188.408 182.794 188.388C182.794 188.368 182.797 188.351 182.804 188.336C182.81 188.321 182.819 188.309 182.831 188.298C182.842 188.287 182.855 188.277 182.87 188.269C182.885 188.26 182.901 188.251 182.919 188.242C182.954 188.219 182.986 188.195 183.014 188.17C183.042 188.146 183.068 188.124 183.09 188.103C183.112 188.081 183.131 188.063 183.148 188.048C183.164 188.033 183.179 188.023 183.191 188.017C183.198 188.014 183.204 188.011 183.21 188.009C183.216 188.006 183.223 188.004 183.229 188.003C183.236 188.002 183.243 188.001 183.251 188.001C183.259 188 183.269 188 183.281 188C183.318 188 183.347 188.007 183.369 188.022C183.391 188.037 183.407 188.057 183.418 188.081C183.429 188.105 183.436 188.132 183.439 188.162C183.442 188.192 183.444 188.222 183.444 188.253V189.247C183.444 189.279 183.442 189.31 183.439 189.34C183.436 189.37 183.429 189.397 183.418 189.421C183.407 189.444 183.391 189.464 183.369 189.479C183.347 189.493 183.318 189.5 183.281 189.5C183.243 189.5 183.213 189.493 183.192 189.479C183.17 189.464 183.154 189.444 183.142 189.421C183.132 189.397 183.125 189.37 183.122 189.34C183.119 189.31 183.118 189.279 183.118 189.247V188.469Z" fill="white"/>
<path d="M195.472 188.349C195.303 188.454 195.101 188.273 195.186 188.093L196.175 186.001C196.233 185.88 196.39 185.848 196.489 185.937L197.466 186.809C197.566 186.898 197.552 187.058 197.439 187.128L195.472 188.349Z" fill="#F0AE62"/>
<path d="M196.016 189.311C195.817 189.318 195.731 189.061 195.894 188.947L197.791 187.62C197.9 187.544 198.052 187.594 198.095 187.72L198.511 188.962C198.554 189.088 198.463 189.22 198.329 189.225L196.016 189.311Z" fill="#F0AE62"/>
<path d="M196.13 190.395C195.956 190.297 196.017 190.033 196.216 190.021L198.526 189.881C198.659 189.873 198.763 189.996 198.733 190.126L198.439 191.402C198.409 191.532 198.262 191.597 198.146 191.531L196.13 190.395Z" fill="#F0AE62"/>
<path d="M182.497 183.771C182.569 183.746 182.645 183.728 182.723 183.716C182.803 183.702 182.88 183.688 182.954 183.675V181.536H182.45L182.415 181.284C182.438 181.274 182.477 181.261 182.529 181.243C182.584 181.226 182.645 181.209 182.711 181.193C182.779 181.176 182.848 181.161 182.916 181.149C182.986 181.138 183.05 181.132 183.106 181.132C183.188 181.132 183.251 181.143 183.294 181.164C183.339 181.186 183.371 181.212 183.391 181.243C183.412 181.274 183.424 181.309 183.426 181.346C183.43 181.383 183.432 181.416 183.432 181.445V181.495C183.516 181.435 183.596 181.382 183.672 181.337C183.75 181.29 183.827 181.252 183.903 181.223C183.981 181.191 184.061 181.169 184.141 181.155C184.221 181.14 184.305 181.132 184.393 181.132C184.498 181.132 184.592 181.139 184.674 181.152C184.758 181.164 184.83 181.186 184.891 181.217C184.953 181.246 185.005 181.286 185.046 181.337C185.087 181.386 185.12 181.448 185.146 181.524L185.21 181.48C185.294 181.424 185.376 181.374 185.456 181.331C185.538 181.286 185.619 181.249 185.699 181.22C185.779 181.19 185.86 181.169 185.942 181.155C186.026 181.14 186.113 181.132 186.203 181.132C186.357 181.132 186.486 181.146 186.59 181.173C186.695 181.2 186.779 181.249 186.842 181.319C186.906 181.39 186.952 181.486 186.979 181.609C187.007 181.73 187.021 181.886 187.021 182.075V183.684L187.478 183.763C187.481 183.774 187.483 183.788 187.483 183.804C187.483 183.819 187.483 183.834 187.483 183.848C187.483 183.875 187.479 183.904 187.472 183.936C187.464 183.965 187.456 183.986 187.448 184H186.153L186.13 183.771C186.2 183.746 186.267 183.729 186.329 183.719C186.392 183.709 186.457 183.697 186.525 183.684V182.104C186.525 182.001 186.518 181.913 186.502 181.841C186.488 181.767 186.464 181.707 186.429 181.662C186.394 181.615 186.348 181.581 186.291 181.56C186.234 181.538 186.165 181.527 186.083 181.527C185.995 181.527 185.914 181.531 185.84 181.539C185.768 181.547 185.698 181.559 185.632 181.574C185.565 181.59 185.5 181.61 185.436 181.636C185.373 181.659 185.308 181.688 185.239 181.721L185.192 181.744C185.204 181.842 185.21 181.952 185.21 182.075V183.684L185.667 183.763C185.671 183.774 185.673 183.788 185.673 183.804C185.675 183.819 185.676 183.834 185.676 183.848C185.676 183.875 185.672 183.904 185.664 183.936C185.656 183.965 185.648 183.986 185.641 184H184.346L184.325 183.771C184.394 183.746 184.459 183.729 184.521 183.719C184.586 183.709 184.652 183.697 184.721 183.684V182.104C184.721 182.003 184.713 181.916 184.697 181.844C184.684 181.77 184.659 181.709 184.624 181.662C184.589 181.615 184.543 181.581 184.486 181.56C184.43 181.538 184.36 181.527 184.278 181.527C184.19 181.527 184.109 181.531 184.035 181.539C183.963 181.547 183.894 181.559 183.827 181.574C183.761 181.59 183.695 181.609 183.631 181.633C183.568 181.656 183.502 181.684 183.432 181.715V183.675L183.909 183.763C183.913 183.774 183.915 183.788 183.915 183.804C183.915 183.819 183.915 183.834 183.915 183.848C183.915 183.875 183.911 183.904 183.903 183.936C183.897 183.965 183.891 183.986 183.883 184H182.523L182.497 183.771ZM187.935 182.74C187.933 182.455 187.961 182.211 188.02 182.008C188.08 181.805 188.165 181.639 188.274 181.51C188.384 181.379 188.517 181.283 188.673 181.223C188.831 181.162 189.008 181.132 189.203 181.132C189.416 181.132 189.591 181.157 189.728 181.208C189.864 181.257 189.972 181.335 190.05 181.442C190.128 181.548 190.182 181.684 190.211 181.85C190.242 182.016 190.257 182.215 190.255 182.447L188.438 182.462C188.438 182.601 188.44 182.728 188.444 182.843C188.45 182.958 188.463 183.062 188.482 183.156C188.504 183.248 188.534 183.329 188.573 183.399C188.612 183.468 188.666 183.525 188.734 183.572C188.805 183.617 188.891 183.651 188.992 183.675C189.096 183.698 189.221 183.71 189.367 183.71C189.441 183.71 189.521 183.703 189.607 183.689C189.695 183.676 189.777 183.66 189.854 183.643C189.932 183.625 189.998 183.608 190.053 183.593C190.109 183.575 190.146 183.563 190.161 183.558L190.261 183.807C190.247 183.816 190.212 183.837 190.155 183.868C190.099 183.897 190.024 183.929 189.933 183.962C189.843 183.993 189.736 184.021 189.613 184.047C189.49 184.072 189.355 184.085 189.209 184.085C189.027 184.085 188.858 184.068 188.702 184.035C188.548 184.004 188.414 183.94 188.301 183.845C188.188 183.749 188.099 183.613 188.034 183.438C187.97 183.262 187.937 183.029 187.935 182.74ZM189.751 182.131C189.747 181.965 189.726 181.835 189.687 181.741C189.649 181.647 189.603 181.578 189.546 181.533C189.491 181.486 189.432 181.458 189.367 181.448C189.303 181.437 189.241 181.431 189.183 181.431C189.056 181.431 188.948 181.445 188.86 181.475C188.774 181.502 188.703 181.546 188.646 181.606C188.59 181.667 188.547 181.745 188.518 181.841C188.488 181.935 188.468 182.047 188.456 182.178L189.751 182.131ZM190.858 183.771C190.931 183.75 191.007 183.732 191.087 183.719C191.169 183.703 191.245 183.688 191.315 183.675V181.536H190.812L190.776 181.284C190.8 181.274 190.838 181.261 190.891 181.243C190.945 181.226 191.006 181.209 191.072 181.193C191.141 181.176 191.209 181.161 191.277 181.149C191.348 181.138 191.411 181.132 191.468 181.132C191.55 181.132 191.613 181.143 191.658 181.164C191.703 181.186 191.736 181.212 191.758 181.243C191.779 181.274 191.792 181.309 191.796 181.346C191.802 181.383 191.806 181.416 191.808 181.445V181.495C191.974 181.372 192.137 181.281 192.297 181.223C192.457 181.162 192.626 181.132 192.804 181.132C192.958 181.132 193.087 181.146 193.19 181.173C193.296 181.2 193.38 181.249 193.442 181.319C193.507 181.39 193.553 181.486 193.58 181.609C193.607 181.73 193.621 181.886 193.621 182.075V183.684L194.081 183.763C194.085 183.774 194.087 183.788 194.087 183.804C194.087 183.819 194.087 183.834 194.087 183.848C194.087 183.875 194.082 183.904 194.072 183.936C194.064 183.965 194.057 183.986 194.049 184H192.754L192.733 183.771C192.804 183.75 192.87 183.733 192.933 183.722C192.995 183.71 193.061 183.697 193.129 183.684V182.104C193.129 181.993 193.121 181.9 193.105 181.826C193.092 181.752 193.067 181.693 193.032 181.65C192.997 181.605 192.951 181.574 192.895 181.557C192.838 181.537 192.769 181.527 192.687 181.527C192.599 181.527 192.516 181.531 192.438 181.539C192.361 181.547 192.288 181.559 192.218 181.574C192.147 181.59 192.079 181.609 192.013 181.633C191.946 181.656 191.878 181.684 191.808 181.715V183.675L192.271 183.763C192.274 183.774 192.276 183.788 192.276 183.804C192.276 183.819 192.276 183.834 192.276 183.848C192.276 183.875 192.272 183.904 192.265 183.936C192.259 183.965 192.252 183.986 192.244 184H190.885L190.858 183.771ZM194.863 181.536H194.427L194.392 181.293C194.417 181.283 194.452 181.27 194.497 181.252C194.544 181.232 194.596 181.214 194.652 181.196C194.711 181.179 194.771 181.164 194.831 181.152C194.894 181.139 194.952 181.132 195.007 181.132C195.089 181.132 195.152 181.143 195.197 181.164C195.244 181.186 195.278 181.212 195.3 181.243C195.323 181.274 195.337 181.309 195.341 181.346C195.347 181.383 195.35 181.416 195.35 181.445V183.115C195.35 183.23 195.357 183.324 195.373 183.396C195.389 183.469 195.415 183.525 195.452 183.566C195.489 183.607 195.538 183.636 195.599 183.651C195.659 183.665 195.735 183.673 195.827 183.675C195.888 183.677 195.956 183.671 196.032 183.657C196.11 183.642 196.188 183.622 196.267 183.599C196.345 183.573 196.42 183.545 196.492 183.514C196.566 183.482 196.631 183.451 196.686 183.42V181.536H196.179L196.144 181.284C196.169 181.274 196.208 181.261 196.261 181.243C196.315 181.226 196.375 181.209 196.439 181.193C196.506 181.176 196.573 181.161 196.642 181.149C196.71 181.138 196.772 181.132 196.829 181.132C196.911 181.132 196.975 181.143 197.02 181.164C197.064 181.186 197.098 181.212 197.119 181.243C197.143 181.274 197.156 181.309 197.16 181.346C197.166 181.383 197.169 181.416 197.169 181.445V183.689H197.702L197.723 183.933C197.699 183.942 197.66 183.956 197.605 183.974C197.553 183.991 197.494 184.008 197.43 184.023C197.365 184.041 197.298 184.056 197.228 184.067C197.159 184.079 197.098 184.085 197.043 184.085C196.961 184.085 196.897 184.073 196.853 184.05C196.808 184.028 196.774 184.002 196.753 183.971C196.731 183.938 196.718 183.902 196.712 183.865C196.708 183.826 196.706 183.792 196.706 183.763V183.643H196.697C196.646 183.682 196.582 183.728 196.504 183.78C196.426 183.831 196.338 183.879 196.24 183.924C196.145 183.969 196.042 184.007 195.933 184.038C195.823 184.069 195.713 184.085 195.602 184.085C195.467 184.085 195.353 184.071 195.259 184.044C195.165 184.017 195.089 183.968 195.03 183.897C194.972 183.825 194.929 183.729 194.901 183.607C194.876 183.484 194.863 183.329 194.863 183.142V181.536Z" fill="white"/>
</svg>
