<svg width="356" height="250" viewBox="0 0 356 250" fill="none" xmlns="http://www.w3.org/2000/svg">
<path fill-rule="evenodd" clip-rule="evenodd" d="M268 60L178 9L88 60H99L178 14L257 60H268Z" fill="#A39B8D"/>
<path d="M96 59H88V61H89V62H95V61H96V59Z" fill="#A39B8D"/>
<path d="M268 59H260V61H261V62H267V61H268V59Z" fill="#A39B8D"/>
<path d="M178 14L257 60H99L178 14Z" fill="#A78D78"/>
<path d="M178 15L256 60H100L178 15Z" fill="#E4E4E4"/>
<path d="M162.941 14.0854L175.583 7.4575V7.4575C177.362 8.01722 178.381 9.88314 177.89 11.6825L177.858 11.7974L165.217 18.4253L165.216 18.1812C165.214 16.5152 164.355 14.9676 162.941 14.0854V14.0854Z" fill="#9D9D9D"/>
<path fill-rule="evenodd" clip-rule="evenodd" d="M165.316 18.3733L165.217 18.1836L165.217 18.1812C165.215 16.9064 164.711 15.7009 163.841 14.8098L176.714 8.06065C177.762 8.90169 178.264 10.3114 177.89 11.6826L177.858 11.7974L165.316 18.3733Z" fill="#7F7F7F"/>
<path d="M152.636 20.2873L165.277 13.6594V13.6594C167.057 14.2191 168.075 16.085 167.584 17.8844L167.553 17.9993L154.911 24.6272L154.911 24.3831C154.909 22.7171 154.049 21.1695 152.636 20.2873V20.2873Z" fill="#9D9D9D"/>
<path fill-rule="evenodd" clip-rule="evenodd" d="M155.01 24.5752L154.911 24.3855L154.911 24.3831C154.909 23.1083 154.406 21.9028 153.536 21.0117L166.408 14.2626C167.456 15.1036 167.958 16.5133 167.584 17.8845L167.553 17.9993L155.01 24.5752Z" fill="#7F7F7F"/>
<path d="M142.33 26.4892L154.972 19.8613V19.8613C156.751 20.421 157.77 22.2869 157.278 24.0863L157.247 24.2012L144.605 30.8291L144.605 30.585C144.603 28.919 143.743 27.3714 142.33 26.4892V26.4892Z" fill="#9D9D9D"/>
<path fill-rule="evenodd" clip-rule="evenodd" d="M144.705 30.7772L144.605 30.5874L144.605 30.585C144.604 29.3102 144.1 28.1047 143.23 27.2136L156.103 20.4645C157.15 21.3055 157.653 22.7152 157.278 24.0864L157.247 24.2012L144.705 30.7772Z" fill="#7F7F7F"/>
<path d="M132.024 32.6911L144.665 26.0632V26.0632C146.445 26.6229 147.463 28.4889 146.972 30.2882L146.941 30.4031L134.299 37.031L134.299 36.7869C134.297 35.1209 133.437 33.5733 132.024 32.6911V32.6911Z" fill="#9D9D9D"/>
<path fill-rule="evenodd" clip-rule="evenodd" d="M134.399 36.9791L134.299 36.7893L134.299 36.7869C134.297 35.5121 133.794 34.3066 132.924 33.4155L145.797 26.6664C146.844 27.5074 147.347 28.9171 146.972 30.2883L146.941 30.4031L134.399 36.9791Z" fill="#7F7F7F"/>
<path d="M121.718 38.893L134.36 32.2651V32.2651C136.139 32.8248 137.158 34.6908 136.667 36.4901L136.635 36.605L123.994 43.2329L123.993 42.9888C123.991 41.3228 123.132 39.7752 121.718 38.893V38.893Z" fill="#9D9D9D"/>
<path fill-rule="evenodd" clip-rule="evenodd" d="M124.093 43.181L123.993 42.9912L123.993 42.9888C123.992 41.714 123.488 40.5085 122.618 39.6174L135.491 32.8683C136.539 33.7093 137.041 35.119 136.667 36.4902L136.635 36.605L124.093 43.181Z" fill="#7F7F7F"/>
<path d="M111.413 45.0951L124.054 38.4672V38.4672C125.833 39.0269 126.852 40.8928 126.361 42.6922L126.329 42.8071L113.688 49.435L113.688 49.1909C113.685 47.5249 112.826 45.9773 111.413 45.0951V45.0951Z" fill="#9D9D9D"/>
<path fill-rule="evenodd" clip-rule="evenodd" d="M113.787 49.383L113.688 49.1933L113.688 49.1909C113.686 47.916 113.182 46.7105 112.313 45.8194L125.185 39.0703C126.233 39.9114 126.735 41.3211 126.361 42.6922L126.33 42.8071L113.787 49.383Z" fill="#7F7F7F"/>
<path d="M101.107 51.297L113.748 44.6691V44.6691C115.528 45.2288 116.546 47.0947 116.055 48.8941L116.024 49.009L103.382 55.6369L103.382 55.3928C103.38 53.7268 102.52 52.1792 101.107 51.297V51.297Z" fill="#9D9D9D"/>
<path fill-rule="evenodd" clip-rule="evenodd" d="M103.482 55.5849L103.382 55.3952L103.382 55.3928C103.38 54.1179 102.877 52.9124 102.007 52.0213L114.88 45.2722C115.927 46.1133 116.43 47.523 116.055 48.8941L116.024 49.009L103.482 55.5849Z" fill="#7F7F7F"/>
<path d="M91.1069 57.0854L103.748 50.4575V50.4575C105.528 51.0172 106.546 52.8831 106.055 54.6825L106.024 54.7974L93.3823 61.4253L93.382 61.1812C93.3798 59.5152 92.5202 57.9676 91.1069 57.0854V57.0854Z" fill="#9D9D9D"/>
<path fill-rule="evenodd" clip-rule="evenodd" d="M93.4817 61.3733L93.3822 61.1835L93.3822 61.1812C93.3805 59.9063 92.8767 58.7008 92.007 57.8097L104.88 51.0606C105.927 51.9016 106.43 53.3114 106.055 54.6825L106.024 54.7974L93.4817 61.3733Z" fill="#7F7F7F"/>
<path d="M193.059 14.0854L180.417 7.4575V7.4575C178.638 8.01722 177.619 9.88314 178.11 11.6825L178.142 11.7974L190.783 18.4253L190.784 18.1812C190.786 16.5152 191.645 14.9676 193.059 14.0854V14.0854Z" fill="#9D9D9D"/>
<path fill-rule="evenodd" clip-rule="evenodd" d="M190.684 18.3733L190.783 18.1836L190.783 18.1812C190.785 16.9064 191.289 15.7009 192.159 14.8098L179.286 8.06065C178.238 8.90169 177.736 10.3114 178.11 11.6826L178.142 11.7974L190.684 18.3733Z" fill="#7F7F7F"/>
<path d="M203.364 20.2873L190.723 13.6594V13.6594C188.943 14.2191 187.925 16.085 188.416 17.8844L188.447 17.9993L201.089 24.6272L201.089 24.3831C201.091 22.7171 201.951 21.1695 203.364 20.2873V20.2873Z" fill="#9D9D9D"/>
<path fill-rule="evenodd" clip-rule="evenodd" d="M200.99 24.5752L201.089 24.3855L201.089 24.3831C201.091 23.1083 201.594 21.9028 202.464 21.0117L189.592 14.2626C188.544 15.1036 188.042 16.5133 188.416 17.8845L188.447 17.9993L200.99 24.5752Z" fill="#7F7F7F"/>
<path d="M213.67 26.4892L201.028 19.8613V19.8613C199.249 20.421 198.23 22.2869 198.722 24.0863L198.753 24.2012L211.395 30.8291L211.395 30.585C211.397 28.919 212.257 27.3714 213.67 26.4892V26.4892Z" fill="#9D9D9D"/>
<path fill-rule="evenodd" clip-rule="evenodd" d="M211.295 30.7772L211.395 30.5874L211.395 30.585C211.396 29.3102 211.9 28.1047 212.77 27.2136L199.897 20.4645C198.85 21.3055 198.347 22.7152 198.722 24.0864L198.753 24.2012L211.295 30.7772Z" fill="#7F7F7F"/>
<path d="M223.976 32.6911L211.335 26.0632V26.0632C209.555 26.6229 208.537 28.4889 209.028 30.2882L209.059 30.4031L221.701 37.031L221.701 36.7869C221.703 35.1209 222.563 33.5733 223.976 32.6911V32.6911Z" fill="#9D9D9D"/>
<path fill-rule="evenodd" clip-rule="evenodd" d="M221.601 36.9791L221.701 36.7893L221.701 36.7869C221.703 35.5121 222.206 34.3066 223.076 33.4155L210.203 26.6664C209.156 27.5074 208.653 28.9171 209.028 30.2883L209.059 30.4031L221.601 36.9791Z" fill="#7F7F7F"/>
<path d="M234.282 38.893L221.64 32.2651V32.2651C219.861 32.8248 218.842 34.6908 219.333 36.4901L219.365 36.605L232.006 43.2329L232.007 42.9888C232.009 41.3228 232.868 39.7752 234.282 38.893V38.893Z" fill="#9D9D9D"/>
<path fill-rule="evenodd" clip-rule="evenodd" d="M231.907 43.181L232.007 42.9912L232.007 42.9888C232.008 41.714 232.512 40.5085 233.382 39.6174L220.509 32.8683C219.461 33.7093 218.959 35.119 219.333 36.4902L219.365 36.605L231.907 43.181Z" fill="#7F7F7F"/>
<path d="M244.587 45.0951L231.946 38.4672V38.4672C230.167 39.0269 229.148 40.8928 229.639 42.6922L229.671 42.8071L242.312 49.435L242.312 49.1909C242.315 47.5249 243.174 45.9773 244.587 45.0951V45.0951Z" fill="#9D9D9D"/>
<path fill-rule="evenodd" clip-rule="evenodd" d="M242.213 49.383L242.312 49.1933L242.312 49.1909C242.314 47.916 242.818 46.7105 243.687 45.8194L230.815 39.0703C229.767 39.9114 229.265 41.3211 229.639 42.6922L229.67 42.8071L242.213 49.383Z" fill="#7F7F7F"/>
<path d="M254.893 51.297L242.252 44.6691V44.6691C240.472 45.2288 239.454 47.0947 239.945 48.8941L239.976 49.009L252.618 55.6369L252.618 55.3928C252.62 53.7268 253.48 52.1792 254.893 51.297V51.297Z" fill="#9D9D9D"/>
<path fill-rule="evenodd" clip-rule="evenodd" d="M252.518 55.5849L252.618 55.3952L252.618 55.3928C252.62 54.1179 253.123 52.9124 253.993 52.0213L241.12 45.2722C240.073 46.1133 239.57 47.523 239.945 48.8941L239.976 49.009L252.518 55.5849Z" fill="#7F7F7F"/>
<path d="M264.893 57.0854L252.252 50.4575V50.4575C250.472 51.0172 249.454 52.8831 249.945 54.6825L249.976 54.7974L262.618 61.4253L262.618 61.1812C262.62 59.5152 263.48 57.9676 264.893 57.0854V57.0854Z" fill="#9D9D9D"/>
<path fill-rule="evenodd" clip-rule="evenodd" d="M262.518 61.3733L262.618 61.1835L262.618 61.1812C262.62 59.9063 263.123 58.7008 263.993 57.8097L251.12 51.0606C250.073 51.9016 249.57 53.3114 249.945 54.6825L249.976 54.7974L262.518 61.3733Z" fill="#7F7F7F"/>
<circle cx="178" cy="8" r="3" fill="#9D9D9D"/>
<path fill-rule="evenodd" clip-rule="evenodd" d="M174.965 9.19936C175.068 7.63601 176.369 6.3999 177.958 6.3999C179.548 6.3999 180.849 7.63663 180.952 9.20054C180.849 10.7639 179.548 12 177.958 12C176.368 12 175.067 10.7633 174.965 9.19936Z" fill="#7F7F7F"/>
</svg>
