<svg width="356" height="250" viewBox="0 0 356 250" fill="none" xmlns="http://www.w3.org/2000/svg">
<rect x="72" y="85" width="212" height="3.48387" fill="#E3E3E3"/>
<path d="M72 88H92V90C92 95.5228 87.5228 100 82 100V100C76.4772 100 72 95.5228 72 90V88Z" fill="#808080"/>
<path d="M92 88H111V90.5C111 95.7467 106.747 100 101.5 100V100C96.2533 100 92 95.7467 92 90.5V88Z" fill="#E3E3E3"/>
<path d="M111 88H130V90.5C130 95.7467 125.747 100 120.5 100V100C115.253 100 111 95.7467 111 90.5V88Z" fill="#808080"/>
<path d="M130 88H150V90C150 95.5228 145.523 100 140 100V100C134.477 100 130 95.5228 130 90V88Z" fill="#E3E3E3"/>
<path d="M150 88H169V90.5C169 95.7467 164.747 100 159.5 100V100C154.253 100 150 95.7467 150 90.5V88Z" fill="#808080"/>
<path d="M169 88H188V90.5C188 95.7467 183.747 100 178.5 100V100C173.253 100 169 95.7467 169 90.5V88Z" fill="#E3E3E3"/>
<path d="M188 88H207V90.5C207 95.7467 202.747 100 197.5 100V100C192.253 100 188 95.7467 188 90.5V88Z" fill="#808080"/>
<path d="M207 88H226V90.5C226 95.7467 221.747 100 216.5 100V100C211.253 100 207 95.7467 207 90.5V88Z" fill="#E3E3E3"/>
<path d="M226 88H246V90C246 95.5228 241.523 100 236 100V100C230.477 100 226 95.5228 226 90V88Z" fill="#808080"/>
<path d="M246 88H265V90.5C265 95.7467 260.747 100 255.5 100V100C250.253 100 246 95.7467 246 90.5V88Z" fill="#E3E3E3"/>
<path d="M265 88H284V90.5C284 95.7467 279.747 100 274.5 100V100C269.253 100 265 95.7467 265 90.5V88Z" fill="#808080"/>
<rect x="88" y="55" width="180" height="12.1101" fill="#808080"/>
<path d="M87.9 66.8349H268.1L284 85H72L87.9 66.8349Z" fill="#808080"/>
<path fill-rule="evenodd" clip-rule="evenodd" d="M92 35C92 37.2091 90.2091 39 88 39V60C90.2091 60 92 61.7909 92 64H264C264 61.7909 265.791 60 268 60V39C265.791 39 264 37.2091 264 35H92Z" fill="#F69D9D"/>
<path fill-rule="evenodd" clip-rule="evenodd" d="M96 39C96 41.2091 94.2091 43 92 43V56C94.2091 56 96 57.7909 96 60H260C260 57.7909 261.791 56 264 56V43C261.791 43 260 41.2091 260 39H96Z" fill="#F56D6D"/>
<path fill-rule="evenodd" clip-rule="evenodd" d="M97.9071 41C97.9071 42.7883 96.1579 44.238 94.0001 44.238C94.0001 44.238 94 44.238 94 44.238V54.7619C94 54.7619 94.0001 54.7619 94.0001 54.7619C96.1579 54.7619 97.9071 56.2116 97.9071 58C97.9071 58 97.9071 58 97.9071 58L258.093 57.9999C258.093 56.2116 259.842 54.7618 262 54.7618C262 54.7618 262 54.7618 262 54.7618V44.238C262 44.238 262 44.238 262 44.238C259.842 44.238 258.093 42.7883 258.093 41H97.9071Z" fill="#FFF5F6"/>
</svg>
