<svg width="356" height="250" viewBox="0 0 356 250" fill="none" xmlns="http://www.w3.org/2000/svg">
<rect x="88" y="60" width="180" height="160" fill="#808080"/>
<mask id="mask0_218_44" style="mask-type:alpha" maskUnits="userSpaceOnUse" x="88" y="60" width="180" height="160">
<rect x="88" y="60" width="180" height="160" fill="#E4E0D5"/>
</mask>
<g mask="url(#mask0_218_44)">
<path d="M128.576 77.4942C126.202 77.8594 123.905 78.0137 121.69 77.9898C119.937 79.7163 117.518 82.647 115.99 86.2046C114.429 89.8399 113.807 94.1037 115.744 98.434C118.247 104.029 119.643 107.309 120.126 109.416C120.37 110.478 120.401 111.314 120.175 112.033C119.944 112.766 119.473 113.292 118.892 113.772C118.678 113.948 118.404 114.084 118.11 114.193C117.811 114.305 117.461 114.402 117.074 114.489C116.299 114.661 115.338 114.799 114.265 114.919C112.916 115.07 111.36 115.196 109.746 115.326C108.802 115.403 107.836 115.481 106.882 115.567C104.279 115.8 101.739 116.091 99.7741 116.556C98.7901 116.79 97.9783 117.061 97.384 117.375C96.7767 117.696 96.4862 118.014 96.3895 118.295C95.8885 119.753 95.9671 120.662 96.188 121.199C96.4103 121.74 96.7996 121.966 97.0448 122.021L96.7762 123.018C96.2534 122.9 95.623 122.481 95.2821 121.652C94.9397 120.819 94.9116 119.631 95.4685 118.011C95.7024 117.33 96.2942 116.839 96.9873 116.473C97.6933 116.099 98.5998 115.805 99.6182 115.563C101.658 115.08 104.26 114.785 106.863 114.551C107.838 114.464 108.812 114.385 109.76 114.308C111.361 114.179 112.889 114.055 114.226 113.906C115.287 113.787 116.208 113.654 116.931 113.493C117.292 113.412 117.594 113.327 117.834 113.237C118.08 113.145 118.232 113.059 118.314 112.991C118.82 112.573 119.107 112.215 119.245 111.777C119.387 111.324 119.398 110.702 119.172 109.715C118.715 107.725 117.371 104.548 114.85 98.9138C112.768 94.2605 113.452 89.6781 115.099 85.8427C116.512 82.5511 118.642 79.7907 120.375 77.9545C104.153 77.258 92.5542 67.0731 88 60.862V60L88.6107 60C93.5796 66.973 108.158 79.6237 128.424 76.5059C141.407 74.5084 148.879 73.4694 153.389 73.4538C155.647 73.446 157.226 73.6927 158.402 74.2455C159.603 74.8096 160.332 75.6675 160.937 76.7572C161.142 77.1269 161.244 77.5882 161.283 78.091C161.323 78.5994 161.301 79.1865 161.235 79.8326C161.101 81.1245 160.78 82.7053 160.353 84.462C159.815 86.6726 159.098 89.2025 158.353 91.8297L158.352 91.8318C157.916 93.3715 157.47 94.9446 157.045 96.5063C155.889 100.757 154.884 104.936 154.6 108.261C154.457 109.926 154.499 111.339 154.771 112.425C155.042 113.507 155.525 114.204 156.224 114.553C161.699 117.29 164.457 115.6 165.093 114.709L165.907 115.291C164.876 116.733 161.501 118.31 155.776 115.447C154.725 114.922 154.114 113.915 153.801 112.669C153.49 111.427 153.457 109.887 153.603 108.176C153.897 104.751 154.924 100.493 156.08 96.2438C156.512 94.6567 156.961 93.0725 157.399 91.5289L157.399 91.5279L157.399 91.5268C158.14 88.9156 158.847 86.4208 159.381 84.2256C159.805 82.4823 160.114 80.9537 160.24 79.7299C160.303 79.1183 160.319 78.596 160.286 78.1688C160.252 77.7361 160.17 77.4357 160.063 77.2429C159.523 76.2709 158.929 75.598 157.977 75.1505C157.001 74.6917 155.598 74.4461 153.393 74.4538C148.976 74.469 141.593 75.4917 128.576 77.4942Z" fill="#889A6B"/>
<path d="M159.201 93.7978C159.232 93.8213 159.276 93.8057 159.282 93.7682C159.313 93.5774 159.307 93.3823 159.253 93.1844C159.093 92.5898 158.573 92.0004 158.025 91.5748C157.477 91.1493 156.778 90.7913 156.162 90.7828C155.937 90.7796 155.729 90.8308 155.538 90.9229C155.527 90.928 155.527 90.9431 155.536 90.9504L156.226 91.4864C156.321 91.5604 156.328 91.7118 156.24 91.8245C156.153 91.9372 156.004 91.9686 155.909 91.8946L155.219 91.3586C155.199 91.3426 155.182 91.3229 155.17 91.3009C155.148 91.2608 155.088 91.2337 155.055 91.2649C154.831 91.4779 154.634 91.7452 154.462 92.0325C154.438 92.0727 154.481 92.13 154.526 92.1443C154.547 92.1509 154.567 92.1611 154.585 92.175L155.275 92.711C155.37 92.785 155.376 92.9364 155.289 93.0491C155.201 93.1618 155.053 93.1932 154.958 93.1192L154.268 92.5832C154.237 92.5593 154.181 92.5584 154.164 92.5931C154.074 92.783 153.992 92.9722 153.919 93.152C153.874 93.2611 153.831 93.3737 153.791 93.4891C153.785 93.5052 153.792 93.523 153.806 93.5336L154.496 94.0696C154.591 94.1436 154.597 94.295 154.51 94.4077C154.422 94.5204 154.274 94.5518 154.179 94.4778L153.676 94.0873C153.647 94.0646 153.604 94.0781 153.595 94.1132C153.503 94.4383 153.424 94.7744 153.353 95.1086C153.349 95.128 153.357 95.1483 153.373 95.1606L153.717 95.4282C153.812 95.5022 153.819 95.6536 153.731 95.7663C153.643 95.879 153.495 95.9104 153.4 95.8364L153.303 95.7613C153.272 95.7373 153.227 95.754 153.22 95.7922C153.14 96.2383 153.074 96.6644 153.016 97.0373C152.987 97.2281 152.959 97.405 152.933 97.5635C152.914 97.6818 152.901 97.8071 152.954 97.9155C152.993 97.994 153.05 98.038 153.135 98.0561C153.253 98.081 153.372 98.0378 153.482 97.9897C153.629 97.9252 153.793 97.8549 153.971 97.779C154.318 97.6308 154.714 97.4614 155.127 97.2732C155.162 97.2571 155.167 97.2093 155.136 97.1852L155.125 97.1764C155.03 97.1024 155.023 96.951 155.111 96.8383C155.198 96.7255 155.347 96.6942 155.442 96.7682L155.701 96.9695C155.717 96.9819 155.738 96.9842 155.756 96.9754C156.063 96.8246 156.369 96.6643 156.661 96.4955C156.693 96.4773 156.695 96.4327 156.666 96.41L156.249 96.0857C156.153 96.0117 156.147 95.8604 156.235 95.7476C156.322 95.6349 156.471 95.6035 156.566 95.6775L157.165 96.143C157.183 96.1568 157.207 96.1579 157.226 96.1455C157.325 96.0793 157.42 96.0121 157.512 95.9438C157.671 95.8263 157.836 95.6985 158 95.5615C158.026 95.5405 158.024 95.5015 157.998 95.4811L157.372 94.9951C157.277 94.9211 157.271 94.7698 157.359 94.657C157.446 94.5443 157.594 94.5129 157.69 94.5869L158.38 95.1229C158.381 95.1237 158.381 95.1244 158.382 95.1252C158.409 95.1468 158.45 95.1531 158.474 95.129C158.699 94.9005 158.901 94.655 159.048 94.3968C159.065 94.3678 159.048 94.331 159.02 94.3114C159.018 94.3098 159.016 94.3082 159.014 94.3065L158.324 93.7705C158.229 93.6965 158.222 93.5451 158.31 93.4324C158.397 93.3197 158.546 93.2883 158.641 93.3623L159.201 93.7978Z" fill="#9BAF7A"/>
<path d="M157.361 91.7126C157.52 91.4813 157.843 91.4335 158.068 91.6079C158.292 91.7824 158.326 92.1074 158.141 92.3183L154.489 96.4862C154.431 96.5517 154.332 96.5606 154.262 96.5064C154.193 96.4522 154.177 96.3539 154.226 96.2821L157.361 91.7126Z" fill="#889A6B"/>
<path d="M156.299 104.879C156.322 104.867 156.322 104.83 156.299 104.809C156.179 104.705 156.048 104.626 155.903 104.579C155.468 104.436 154.951 104.55 154.536 104.754C154.121 104.957 153.714 105.297 153.561 105.728C153.505 105.885 153.489 106.054 153.504 106.228C153.505 106.238 153.515 106.245 153.522 106.241L154.045 105.985C154.117 105.949 154.22 106.01 154.274 106.12C154.328 106.23 154.313 106.348 154.241 106.384L153.718 106.64C153.703 106.648 153.686 106.651 153.668 106.65C153.636 106.649 153.603 106.679 153.616 106.716C153.704 106.966 153.835 107.219 153.986 107.464C154.006 107.498 154.055 107.492 154.075 107.467C154.085 107.455 154.096 107.445 154.11 107.438L154.633 107.182C154.705 107.147 154.807 107.207 154.861 107.317C154.915 107.428 154.901 107.546 154.828 107.581L154.306 107.838C154.282 107.849 154.268 107.888 154.287 107.915C154.392 108.06 154.499 108.199 154.601 108.328C154.663 108.406 154.728 108.485 154.795 108.563C154.804 108.574 154.818 108.577 154.828 108.572L155.351 108.315C155.423 108.28 155.525 108.34 155.579 108.45C155.633 108.561 155.619 108.679 155.547 108.714L155.166 108.901C155.144 108.912 155.142 108.948 155.163 108.97C155.358 109.174 155.563 109.374 155.769 109.567C155.781 109.579 155.796 109.582 155.808 109.576L156.069 109.448C156.141 109.413 156.243 109.473 156.297 109.583C156.352 109.694 156.337 109.812 156.265 109.847L156.192 109.883C156.168 109.895 156.168 109.934 156.192 109.955C156.47 110.203 156.738 110.433 156.973 110.634C157.093 110.737 157.204 110.832 157.303 110.918C157.377 110.983 157.458 111.046 157.543 111.055C157.604 111.061 157.647 111.04 157.68 110.987C157.725 110.915 157.725 110.813 157.719 110.714C157.711 110.583 157.704 110.437 157.696 110.279C157.681 109.97 157.663 109.618 157.636 109.246C157.634 109.214 157.604 109.19 157.58 109.202L157.571 109.206C157.499 109.241 157.397 109.181 157.343 109.07C157.289 108.96 157.303 108.842 157.376 108.807L157.572 108.71C157.584 108.704 157.591 108.69 157.589 108.674C157.562 108.393 157.529 108.108 157.487 107.83C157.482 107.799 157.453 107.778 157.431 107.789L157.115 107.945C157.042 107.98 156.94 107.919 156.886 107.809C156.832 107.699 156.847 107.581 156.919 107.545L157.373 107.323C157.386 107.316 157.393 107.299 157.389 107.281C157.369 107.183 157.347 107.086 157.323 106.992C157.283 106.83 157.238 106.658 157.186 106.484C157.178 106.457 157.152 106.441 157.132 106.451L156.658 106.683C156.586 106.719 156.483 106.658 156.429 106.548C156.375 106.438 156.39 106.32 156.462 106.284L156.985 106.028C156.985 106.027 156.986 106.027 156.987 106.027C157.008 106.017 157.022 105.991 157.011 105.964C156.913 105.707 156.798 105.459 156.661 105.244C156.646 105.22 156.617 105.216 156.598 105.227C156.596 105.228 156.595 105.229 156.593 105.23L156.07 105.486C155.998 105.521 155.896 105.461 155.842 105.351C155.788 105.24 155.802 105.122 155.874 105.087L156.299 104.879Z" fill="#9BAF7A"/>
<path d="M154.468 105.281C154.352 105.07 154.398 104.821 154.568 104.738C154.738 104.654 154.963 104.77 155.059 104.991L156.959 109.358C156.989 109.427 156.971 109.501 156.918 109.526C156.865 109.552 156.796 109.521 156.76 109.456L154.468 105.281Z" fill="#889A6B"/>
<path d="M159.769 116.99C159.8 116.998 159.827 116.977 159.818 116.952C159.772 116.821 159.697 116.696 159.586 116.58C159.252 116.232 158.651 115.973 158.09 115.826C157.528 115.68 156.878 115.613 156.417 115.752C156.248 115.803 156.112 115.885 156.002 115.99C155.996 115.996 156.002 116.006 156.011 116.008L156.719 116.193C156.816 116.219 156.876 116.315 156.851 116.409C156.827 116.503 156.728 116.558 156.63 116.532L155.923 116.348C155.901 116.342 155.882 116.333 155.865 116.322C155.834 116.301 155.78 116.298 155.766 116.326C155.676 116.516 155.627 116.736 155.603 116.963C155.599 116.994 155.652 117.021 155.691 117.02C155.709 117.019 155.727 117.021 155.745 117.026L156.453 117.211C156.55 117.236 156.61 117.333 156.585 117.427C156.561 117.52 156.462 117.576 156.364 117.55L155.657 117.365C155.625 117.357 155.583 117.37 155.583 117.396C155.585 117.541 155.592 117.682 155.602 117.816C155.609 117.898 155.617 117.981 155.629 118.065C155.63 118.077 155.642 118.087 155.656 118.09L156.364 118.275C156.461 118.3 156.521 118.397 156.496 118.491C156.472 118.584 156.373 118.64 156.275 118.614L155.76 118.48C155.73 118.472 155.703 118.491 155.708 118.516C155.758 118.748 155.82 118.984 155.888 119.218C155.892 119.231 155.905 119.242 155.922 119.247L156.275 119.339C156.372 119.364 156.432 119.461 156.407 119.555C156.383 119.648 156.284 119.704 156.186 119.678L156.087 119.652C156.055 119.644 156.028 119.666 156.036 119.692C156.138 120 156.242 120.292 156.334 120.547C156.381 120.678 156.425 120.799 156.462 120.908C156.491 120.989 156.527 121.073 156.605 121.131C156.663 121.172 156.721 121.188 156.791 121.179C156.888 121.167 156.96 121.112 157.025 121.054C157.111 120.978 157.208 120.894 157.313 120.803C157.518 120.625 157.752 120.422 157.991 120.202C158.011 120.184 157.998 120.151 157.966 120.143L157.954 120.14C157.857 120.115 157.797 120.018 157.822 119.924C157.846 119.831 157.945 119.775 158.043 119.801L158.309 119.87C158.325 119.874 158.342 119.871 158.352 119.861C158.526 119.691 158.696 119.515 158.852 119.337C158.869 119.317 158.855 119.288 158.825 119.28L158.397 119.168C158.299 119.143 158.24 119.046 158.265 118.953C158.289 118.859 158.388 118.804 158.486 118.829L159.1 118.99C159.118 118.994 159.137 118.989 159.146 118.977C159.196 118.911 159.243 118.844 159.287 118.779C159.362 118.665 159.439 118.543 159.512 118.416C159.523 118.396 159.508 118.371 159.481 118.364L158.84 118.197C158.742 118.171 158.683 118.075 158.707 117.981C158.732 117.887 158.831 117.832 158.928 117.857L159.636 118.042C159.637 118.042 159.638 118.043 159.639 118.043C159.666 118.051 159.699 118.045 159.708 118.024C159.793 117.823 159.855 117.616 159.871 117.414C159.873 117.391 159.847 117.371 159.82 117.365C159.817 117.365 159.815 117.364 159.813 117.364L159.106 117.179C159.008 117.153 158.949 117.057 158.973 116.963C158.997 116.869 159.096 116.814 159.194 116.84L159.769 116.99Z" fill="#9BAF7A"/>
<path d="M157.645 116.072C157.68 115.885 157.903 115.778 158.134 115.838C158.364 115.898 158.506 116.101 158.445 116.281L157.232 119.843C157.212 119.899 157.142 119.928 157.07 119.909C156.999 119.89 156.951 119.83 156.962 119.772L157.645 116.072Z" fill="#889A6B"/>
<path d="M163.963 113.592C163.941 113.564 163.895 113.57 163.88 113.603C163.802 113.776 163.758 113.961 163.758 114.157C163.757 114.747 164.095 115.405 164.5 115.915C164.905 116.425 165.47 116.902 166.045 117.034C166.255 117.083 166.463 117.077 166.666 117.029C166.677 117.026 166.682 117.012 166.675 117.003L166.164 116.361C166.094 116.272 166.126 116.129 166.237 116.041C166.348 115.953 166.495 115.953 166.566 116.042L167.076 116.684C167.091 116.703 167.102 116.725 167.107 116.748C167.118 116.79 167.167 116.828 167.206 116.805C167.471 116.651 167.723 116.439 167.957 116.205C167.99 116.172 167.965 116.109 167.926 116.087C167.908 116.076 167.892 116.063 167.879 116.046L167.368 115.404C167.298 115.315 167.331 115.172 167.441 115.084C167.552 114.996 167.699 114.996 167.77 115.085L168.28 115.727C168.303 115.756 168.355 115.768 168.38 115.739C168.513 115.579 168.638 115.418 168.752 115.264C168.822 115.17 168.891 115.073 168.958 114.973C168.968 114.959 168.965 114.941 168.955 114.928L168.445 114.286C168.374 114.198 168.407 114.054 168.518 113.966C168.629 113.878 168.776 113.879 168.846 113.967L169.218 114.435C169.24 114.462 169.283 114.458 169.301 114.427C169.47 114.141 169.63 113.841 169.781 113.542C169.79 113.525 169.788 113.504 169.776 113.489L169.521 113.169C169.451 113.08 169.484 112.937 169.595 112.849C169.705 112.76 169.852 112.761 169.923 112.85L169.994 112.94C170.017 112.968 170.064 112.962 170.08 112.927C170.269 112.525 170.44 112.138 170.589 111.8C170.665 111.627 170.736 111.467 170.801 111.323C170.849 111.216 170.893 111.101 170.871 110.989C170.854 110.907 170.812 110.854 170.737 110.82C170.632 110.773 170.51 110.79 170.395 110.813C170.241 110.843 170.068 110.876 169.882 110.912C169.519 110.981 169.104 111.06 168.67 111.153C168.632 111.161 168.616 111.205 168.638 111.234L168.647 111.244C168.717 111.333 168.685 111.476 168.574 111.564C168.463 111.652 168.316 111.652 168.245 111.563L168.054 111.322C168.042 111.307 168.022 111.301 168.003 111.305C167.678 111.385 167.35 111.474 167.033 111.573C166.998 111.584 166.985 111.625 167.006 111.652L167.315 112.041C167.386 112.13 167.353 112.273 167.242 112.361C167.131 112.449 166.984 112.449 166.914 112.36L166.47 111.802C166.457 111.786 166.434 111.78 166.414 111.788C166.304 111.83 166.198 111.874 166.094 111.919C165.915 111.997 165.727 112.084 165.539 112.179C165.51 112.194 165.501 112.231 165.521 112.255L165.983 112.837C166.054 112.926 166.021 113.069 165.91 113.158C165.799 113.246 165.652 113.245 165.582 113.157L165.072 112.514C165.071 112.513 165.07 112.513 165.069 112.512C165.05 112.486 165.013 112.472 164.985 112.49C164.715 112.659 164.464 112.848 164.259 113.061C164.236 113.085 164.243 113.123 164.264 113.147C164.266 113.148 164.267 113.15 164.269 113.152L164.779 113.795C164.85 113.883 164.817 114.027 164.706 114.115C164.595 114.203 164.448 114.202 164.378 114.114L163.963 113.592Z" fill="#9BAF7A"/>
<path d="M165.157 115.92C164.95 116.105 164.634 116.085 164.468 115.875C164.302 115.666 164.353 115.355 164.58 115.194L169.067 112.02C169.138 111.97 169.233 111.982 169.285 112.047C169.336 112.112 169.326 112.207 169.262 112.265L165.157 115.92Z" fill="#889A6B"/>
<path d="M164.19 79.5594C164.245 79.5527 164.275 79.4907 164.242 79.4451C164.079 79.213 163.873 79.0148 163.616 78.8624C162.842 78.4046 161.702 78.3238 160.702 78.4437C159.702 78.5636 158.614 78.9114 157.97 79.539C157.735 79.7683 157.573 80.0366 157.47 80.3312C157.464 80.3475 157.479 80.3637 157.496 80.3616L158.756 80.2106C158.93 80.1898 159.091 80.3421 159.116 80.5509C159.141 80.7596 159.021 80.9457 158.847 80.9666L157.587 81.1176C157.549 81.1221 157.512 81.1185 157.477 81.108C157.413 81.0889 157.323 81.1224 157.321 81.1891C157.308 81.6443 157.379 82.1276 157.496 82.6067C157.512 82.6737 157.615 82.6897 157.676 82.658C157.704 82.6433 157.735 82.6335 157.768 82.6296L159.028 82.4785C159.202 82.4577 159.363 82.61 159.388 82.8188C159.413 83.0275 159.293 83.2137 159.119 83.2345L157.859 83.3855C157.802 83.3923 157.744 83.4493 157.762 83.5028C157.863 83.7956 157.972 84.0784 158.081 84.343C158.146 84.5036 158.217 84.6657 158.293 84.8288C158.304 84.8516 158.33 84.8627 158.355 84.8597L159.615 84.7087C159.789 84.6878 159.95 84.8402 159.975 85.0489C160 85.2577 159.879 85.4438 159.705 85.4647L158.787 85.5747C158.734 85.5811 158.704 85.6392 158.73 85.6863C158.968 86.1216 159.23 86.5564 159.499 86.9796C159.515 87.0043 159.544 87.0177 159.573 87.0142L160.202 86.9389C160.376 86.918 160.537 87.0703 160.562 87.2791C160.587 87.4878 160.466 87.674 160.292 87.6948L160.116 87.716C160.059 87.7228 160.03 87.7869 160.062 87.834C160.435 88.3851 160.803 88.9004 161.125 89.3512C161.29 89.582 161.442 89.7959 161.578 89.9891C161.679 90.1333 161.794 90.2778 161.96 90.3363C162.08 90.3786 162.184 90.3662 162.29 90.2967C162.438 90.2006 162.515 90.033 162.58 89.8691C162.665 89.6493 162.763 89.4054 162.869 89.1422C163.075 88.628 163.311 88.0405 163.543 87.4167C163.563 87.3634 163.519 87.308 163.463 87.3148L163.442 87.3173C163.268 87.3381 163.107 87.1858 163.082 86.9771C163.057 86.7683 163.178 86.5822 163.351 86.5613L163.825 86.5046C163.854 86.5011 163.878 86.4813 163.888 86.4536C164.05 85.9787 164.201 85.4944 164.33 85.015C164.344 84.9632 164.301 84.9139 164.248 84.9202L163.485 85.0116C163.311 85.0325 163.15 84.8801 163.125 84.6714C163.1 84.4626 163.221 84.2765 163.395 84.2556L164.489 84.1245C164.521 84.1206 164.548 84.0963 164.554 84.0641C164.588 83.8926 164.618 83.7231 164.643 83.5563C164.687 83.2695 164.727 82.9641 164.756 82.651C164.76 82.603 164.719 82.5633 164.671 82.569L163.528 82.706C163.354 82.7268 163.193 82.5745 163.168 82.3657C163.143 82.157 163.264 81.9708 163.438 81.95L164.698 81.799C164.7 81.7987 164.701 81.7986 164.703 81.7984C164.753 81.7934 164.801 81.7579 164.801 81.708C164.8 81.2353 164.756 80.7694 164.645 80.346C164.632 80.2984 164.577 80.2773 164.528 80.2853C164.524 80.286 164.521 80.2865 164.517 80.287L163.257 80.438C163.083 80.4589 162.921 80.3066 162.896 80.0978C162.871 79.8891 162.992 79.7029 163.166 79.6821L164.19 79.5594Z" fill="#9BAF7A"/>
<path d="M160.158 79.2744C160.085 78.8678 160.37 78.4836 160.78 78.4344C161.19 78.3852 161.557 78.6914 161.582 79.1038L162.08 87.2509C162.088 87.3789 161.995 87.4908 161.867 87.5061C161.74 87.5213 161.623 87.4346 161.6 87.3084L160.158 79.2744Z" fill="#889A6B"/>
<path d="M141.304 75.9999C141.337 75.9959 141.357 75.9697 141.338 75.9516C141.246 75.8596 141.126 75.7825 140.975 75.7256C140.521 75.5545 139.838 75.5473 139.234 75.6197C138.631 75.692 137.969 75.8604 137.568 76.1339C137.421 76.2339 137.318 76.3483 137.249 76.4722C137.245 76.479 137.254 76.4853 137.264 76.4841L138.025 76.393C138.13 76.3804 138.223 76.4395 138.233 76.525C138.244 76.6106 138.167 76.6901 138.062 76.7027L137.301 76.7938C137.279 76.7965 137.257 76.7959 137.236 76.7924C137.198 76.786 137.143 76.8019 137.14 76.8294C137.122 77.0174 137.154 77.2151 137.213 77.4101C137.221 77.4373 137.282 77.4416 137.32 77.4271C137.337 77.4204 137.356 77.4156 137.376 77.4133L138.136 77.3221C138.241 77.3095 138.335 77.3687 138.345 77.4542C138.355 77.5397 138.278 77.6193 138.173 77.6318L137.413 77.723C137.379 77.7271 137.342 77.7519 137.352 77.7736C137.406 77.892 137.465 78.0061 137.524 78.1128C137.56 78.1775 137.599 78.2428 137.641 78.3083C137.647 78.3175 137.662 78.3214 137.677 78.3196L138.438 78.2285C138.543 78.2159 138.636 78.275 138.646 78.3606C138.657 78.4461 138.58 78.5256 138.475 78.5382L137.921 78.6046C137.889 78.6085 137.869 78.6331 137.884 78.652C138.017 78.826 138.164 78.9994 138.316 79.1678C138.325 79.1776 138.342 79.1825 138.359 79.1804L138.739 79.1349C138.844 79.1223 138.937 79.1814 138.948 79.2669C138.958 79.3525 138.881 79.432 138.776 79.4446L138.67 79.4574C138.636 79.4614 138.616 79.4886 138.635 79.5073C138.846 79.726 139.056 79.9301 139.239 80.1087C139.332 80.2001 139.419 80.2848 139.496 80.3614C139.553 80.4186 139.619 80.4755 139.718 80.4958C139.789 80.5106 139.851 80.5031 139.917 80.4719C140.008 80.4289 140.058 80.358 140.101 80.289C140.157 80.1963 140.222 80.0935 140.291 79.9825C140.427 79.7657 140.582 79.518 140.736 79.2554C140.749 79.233 140.724 79.2111 140.69 79.2152L140.677 79.2167C140.572 79.2293 140.479 79.1702 140.469 79.0847C140.458 78.9991 140.535 78.9196 140.64 78.907L140.926 78.8728C140.943 78.8707 140.958 78.8619 140.965 78.8503C141.073 78.6507 141.175 78.4475 141.263 78.2469C141.273 78.2251 141.248 78.2058 141.216 78.2096L140.756 78.2648C140.651 78.2774 140.558 78.2182 140.547 78.1327C140.537 78.0472 140.614 77.9677 140.719 77.9551L141.379 77.8759C141.399 77.8736 141.415 77.8629 141.42 77.8495C141.444 77.778 141.466 77.7074 141.485 77.638C141.518 77.5187 141.549 77.3919 141.573 77.2621C141.577 77.2422 141.553 77.2267 141.524 77.2302L140.835 77.3128C140.73 77.3254 140.636 77.2663 140.626 77.1808C140.616 77.0952 140.693 77.0157 140.798 77.0031L141.558 76.912C141.559 76.9119 141.56 76.9117 141.561 76.9116C141.591 76.9084 141.621 76.8927 141.622 76.8721C141.632 76.6772 141.617 76.486 141.559 76.3139C141.553 76.2946 141.52 76.2872 141.491 76.2916C141.489 76.2919 141.486 76.2923 141.484 76.2925L140.723 76.3837C140.618 76.3963 140.525 76.3371 140.515 76.2516C140.504 76.1661 140.581 76.0865 140.686 76.074L141.304 75.9999Z" fill="#9BAF7A"/>
<path d="M138.889 75.9747C138.854 75.8087 139.034 75.6437 139.281 75.614C139.529 75.5843 139.742 75.7022 139.748 75.8717L139.86 79.2205C139.862 79.2732 139.804 79.3214 139.727 79.3307C139.65 79.3399 139.581 79.3068 139.571 79.2553L138.889 75.9747Z" fill="#889A6B"/>
<path d="M143.304 74.769C143.337 74.773 143.357 74.7993 143.338 74.8174C143.246 74.9094 143.126 74.9864 142.975 75.0433C142.521 75.2144 141.838 75.2216 141.234 75.1493C140.631 75.0769 139.969 74.9086 139.568 74.635C139.421 74.535 139.318 74.4207 139.249 74.2968C139.245 74.2899 139.254 74.2836 139.264 74.2848L140.025 74.376C140.13 74.3885 140.223 74.3294 140.233 74.2439C140.244 74.1584 140.167 74.0788 140.062 74.0662L139.301 73.9751C139.279 73.9724 139.257 73.973 139.236 73.9765C139.198 73.983 139.143 73.9671 139.14 73.9395C139.122 73.7515 139.154 73.5538 139.213 73.3588C139.221 73.3316 139.282 73.3274 139.32 73.3418C139.337 73.3485 139.356 73.3533 139.376 73.3557L140.136 73.4468C140.241 73.4594 140.335 73.4003 140.345 73.3147C140.355 73.2292 140.278 73.1497 140.173 73.1371L139.413 73.0459C139.379 73.0419 139.342 73.017 139.352 72.9954C139.406 72.8769 139.465 72.7628 139.524 72.6561C139.56 72.5914 139.599 72.5261 139.641 72.4606C139.647 72.4514 139.662 72.4475 139.677 72.4493L140.438 72.5404C140.543 72.553 140.636 72.4939 140.646 72.4084C140.657 72.3228 140.58 72.2433 140.475 72.2307L139.921 72.1643C139.889 72.1604 139.869 72.1358 139.884 72.117C140.017 71.9429 140.164 71.7696 140.316 71.6012C140.325 71.5913 140.342 71.5865 140.359 71.5886L140.739 71.6341C140.844 71.6466 140.937 71.5875 140.948 71.502C140.958 71.4165 140.881 71.3369 140.776 71.3243L140.67 71.3116C140.636 71.3075 140.616 71.2804 140.635 71.2616C140.846 71.0429 141.056 70.8388 141.239 70.6602C141.332 70.5688 141.419 70.4841 141.496 70.4075C141.553 70.3504 141.619 70.2934 141.718 70.2731C141.789 70.2584 141.851 70.2658 141.917 70.297C142.008 70.34 142.058 70.4109 142.101 70.48C142.157 70.5726 142.222 70.6754 142.291 70.7864C142.427 71.0032 142.582 71.2509 142.736 71.5135C142.749 71.5359 142.724 71.5578 142.69 71.5537L142.677 71.5522C142.572 71.5396 142.479 71.5987 142.469 71.6843C142.458 71.7698 142.535 71.8493 142.64 71.8619L142.926 71.8962C142.943 71.8983 142.958 71.907 142.965 71.9186C143.073 72.1182 143.175 72.3214 143.263 72.5221C143.273 72.5438 143.248 72.5631 143.216 72.5593L142.756 72.5041C142.651 72.4916 142.558 72.5507 142.547 72.6362C142.537 72.7217 142.614 72.8013 142.719 72.8139L143.379 72.893C143.399 72.8954 143.415 72.906 143.42 72.9194C143.444 72.9909 143.466 73.0615 143.485 73.1309C143.518 73.2502 143.549 73.3771 143.573 73.5068C143.577 73.5268 143.553 73.5422 143.524 73.5387L142.835 73.4561C142.73 73.4435 142.636 73.5026 142.626 73.5882C142.616 73.6737 142.693 73.7532 142.798 73.7658L143.558 73.8569C143.559 73.8571 143.56 73.8572 143.561 73.8573C143.591 73.8605 143.621 73.8763 143.622 73.8968C143.632 74.0917 143.617 74.2829 143.559 74.455C143.553 74.4743 143.52 74.4818 143.491 74.4773C143.489 74.477 143.486 74.4767 143.484 74.4764L142.723 74.3852C142.618 74.3727 142.525 74.4318 142.515 74.5173C142.504 74.6028 142.581 74.6824 142.686 74.695L143.304 74.769Z" fill="#9BAF7A"/>
<path d="M140.889 74.7942C140.854 74.9602 141.034 75.1252 141.281 75.1549C141.529 75.1846 141.742 75.0667 141.748 74.8972L141.86 71.5484C141.862 71.4958 141.804 71.4475 141.727 71.4383C141.65 71.4291 141.581 71.4621 141.571 71.5137L140.889 74.7942Z" fill="#889A6B"/>
<path d="M112.243 74.9347C112.281 74.9155 112.291 74.8725 112.26 74.8559C112.102 74.7713 111.92 74.7177 111.709 74.7042C111.076 74.6638 110.249 74.9371 109.558 75.284C108.867 75.631 108.154 76.1303 107.808 76.6624C107.682 76.8568 107.614 77.0525 107.594 77.2467C107.592 77.2575 107.606 77.2623 107.618 77.2564L108.489 76.8194C108.609 76.759 108.751 76.7994 108.806 76.9095C108.862 77.0196 108.809 77.1578 108.689 77.2181L107.818 77.6552C107.792 77.6682 107.765 77.6766 107.738 77.6805C107.689 77.6876 107.631 77.7315 107.642 77.7695C107.714 78.0285 107.851 78.2798 108.02 78.516C108.044 78.549 108.12 78.5292 108.158 78.4943C108.176 78.4782 108.196 78.464 108.218 78.4527L109.089 78.0157C109.209 77.9553 109.352 77.9957 109.407 78.1058C109.462 78.2159 109.409 78.3541 109.289 78.4144L108.419 78.8514C108.38 78.8709 108.348 78.9194 108.371 78.9442C108.495 79.0803 108.624 79.2083 108.749 79.3266C108.824 79.3983 108.904 79.4693 108.987 79.5395C108.999 79.5494 109.019 79.5484 109.037 79.5397L109.907 79.1027C110.027 79.0424 110.17 79.0827 110.225 79.1928C110.28 79.3029 110.228 79.4411 110.107 79.5015L109.473 79.8199C109.436 79.8384 109.425 79.8794 109.452 79.8986C109.7 80.0761 109.965 80.2468 110.232 80.4089C110.248 80.4184 110.271 80.418 110.291 80.4079L110.725 80.1897C110.846 80.1294 110.988 80.1697 111.043 80.2799C111.098 80.39 111.046 80.5282 110.926 80.5885L110.804 80.6497C110.765 80.6693 110.755 80.7135 110.786 80.731C111.151 80.9357 111.506 81.1219 111.816 81.2849C111.975 81.3683 112.122 81.4456 112.253 81.5161C112.351 81.5688 112.459 81.6176 112.588 81.6041C112.681 81.5942 112.752 81.5583 112.816 81.4894C112.904 81.3943 112.929 81.2786 112.945 81.1687C112.967 81.0214 112.993 80.8572 113.021 80.6801C113.076 80.334 113.138 79.9385 113.192 79.5235C113.197 79.488 113.156 79.4691 113.117 79.4887L113.102 79.4959C112.982 79.5563 112.84 79.5159 112.784 79.4058C112.729 79.2957 112.782 79.1575 112.902 79.0972L113.229 78.933C113.249 78.9229 113.263 78.905 113.265 78.8868C113.295 78.5751 113.316 78.2611 113.322 77.9561C113.322 77.9231 113.283 77.9075 113.246 77.926L112.719 78.1904C112.599 78.2507 112.457 78.2104 112.402 78.1003C112.346 77.9902 112.399 77.852 112.519 77.7916L113.275 77.4121C113.298 77.4008 113.312 77.3798 113.311 77.3599C113.304 77.2542 113.295 77.1507 113.283 77.0502C113.263 76.8772 113.236 76.6946 113.201 76.5109C113.195 76.4827 113.159 76.472 113.126 76.4886L112.336 76.8849C112.216 76.9452 112.074 76.9048 112.019 76.7947C111.963 76.6846 112.016 76.5464 112.136 76.4861L113.007 76.0491C113.008 76.0485 113.009 76.0478 113.011 76.0472C113.045 76.0306 113.073 75.9971 113.064 75.9691C112.979 75.7043 112.864 75.4551 112.708 75.2488C112.691 75.2256 112.648 75.2292 112.615 75.2473C112.612 75.2487 112.609 75.2502 112.607 75.2515L111.736 75.6886C111.616 75.7489 111.473 75.7086 111.418 75.5984C111.363 75.4883 111.416 75.3501 111.536 75.2898L112.243 74.9347Z" fill="#9BAF7A"/>
<path d="M109.32 75.9021C109.195 75.6944 109.328 75.3993 109.612 75.257C109.895 75.1148 110.212 75.1839 110.304 75.4082L112.12 79.8395C112.148 79.9092 112.102 79.998 112.014 80.0422C111.926 80.0864 111.827 80.0705 111.788 80.006L109.32 75.9021Z" fill="#889A6B"/>
<path d="M93.9269 64.2993C93.9058 64.262 93.8623 64.2543 93.8473 64.2862C93.7709 64.4483 93.7268 64.6332 93.7242 64.8445C93.7165 65.4792 94.0319 66.2903 94.414 66.9627C94.7961 67.6351 95.3315 68.3213 95.8807 68.6395C96.0813 68.7558 96.2803 68.8128 96.4753 68.8235C96.4861 68.8241 96.4902 68.8102 96.4837 68.7987L96.0024 67.9517C95.9359 67.8348 95.9689 67.6906 96.076 67.6298C96.1832 67.5689 96.3239 67.6144 96.3903 67.7313L96.8716 68.5783C96.886 68.6036 96.8957 68.6302 96.901 68.6569C96.9107 68.7054 96.9575 68.7609 96.9948 68.7484C97.2498 68.6629 97.4937 68.5128 97.7209 68.3319C97.7526 68.3066 97.729 68.2317 97.6922 68.1956C97.6751 68.1789 97.66 68.1594 97.6474 68.1374L97.1662 67.2904C97.0997 67.1735 97.1327 67.0293 97.2398 66.9685C97.3469 66.9076 97.4876 66.9531 97.5541 67.07L98.0354 67.917C98.0568 67.9548 98.1068 67.9839 98.1305 67.9598C98.2599 67.8286 98.3812 67.6935 98.4929 67.563C98.5606 67.4839 98.6274 67.4005 98.6933 67.3136C98.7025 67.3014 98.7005 67.2812 98.6909 67.2643L98.2096 66.4174C98.1432 66.3004 98.1762 66.1563 98.2833 66.0954C98.3904 66.0346 98.5311 66.08 98.5976 66.197L98.9482 66.814C98.9686 66.8499 99.0101 66.8588 99.0279 66.831C99.1924 66.5742 99.3493 66.3013 99.4974 66.0254C99.506 66.0093 99.5045 65.9867 99.4934 65.9672L99.2531 65.5443C99.1866 65.4274 99.2196 65.2833 99.3267 65.2224C99.4339 65.1615 99.5746 65.207 99.641 65.3239L99.7084 65.4426C99.73 65.4806 99.7746 65.4877 99.7905 65.4556C99.9762 65.0805 100.144 64.7169 100.291 64.3987C100.366 64.2359 100.435 64.0849 100.499 63.9504C100.547 63.8501 100.59 63.7397 100.57 63.6118C100.555 63.5192 100.515 63.4497 100.443 63.3897C100.344 63.3069 100.227 63.2875 100.116 63.277C99.9682 63.2629 99.8029 63.2455 99.6246 63.2266C99.2761 63.1899 98.8779 63.1478 98.4607 63.1153C98.425 63.1125 98.4083 63.1545 98.4299 63.1925L98.4378 63.2065C98.5043 63.3235 98.4713 63.4676 98.3642 63.5285C98.2571 63.5893 98.1164 63.5439 98.0499 63.4269L97.8691 63.1088C97.858 63.0892 97.8394 63.0763 97.8212 63.0755C97.5083 63.0615 97.1936 63.0566 96.8888 63.0665C96.8558 63.0676 96.8422 63.1078 96.8626 63.1436L97.1537 63.6561C97.2202 63.773 97.1872 63.9172 97.0801 63.978C96.973 64.0389 96.8323 63.9935 96.7658 63.8765L96.3479 63.141C96.3354 63.1191 96.3137 63.1057 96.2939 63.108C96.1886 63.1198 96.0858 63.1342 95.986 63.1515C95.8143 63.1811 95.6333 63.2167 95.4517 63.2616C95.4238 63.2685 95.4149 63.3054 95.4332 63.3376L95.8696 64.1056C95.9361 64.2226 95.9031 64.3667 95.796 64.4276C95.6889 64.4885 95.5482 64.443 95.4817 64.3261L95.0004 63.4791C94.9998 63.4779 94.9991 63.4767 94.9984 63.4755C94.98 63.4419 94.9451 63.4155 94.9177 63.426C94.6576 63.5252 94.4146 63.6524 94.2166 63.8184C94.1944 63.837 94.2002 63.8799 94.2199 63.9121C94.2215 63.9147 94.2231 63.9173 94.2246 63.92L94.7059 64.7669C94.7723 64.8839 94.7393 65.028 94.6322 65.0889C94.5251 65.1498 94.3844 65.1043 94.3179 64.9874L93.9269 64.2993Z" fill="#9BAF7A"/>
<path d="M95.0435 67.1689C94.8425 67.3044 94.541 67.1861 94.3843 66.9104C94.2276 66.6347 94.2804 66.3151 94.4996 66.2118L98.8316 64.1699C98.8996 64.1378 98.9908 64.1796 99.0394 64.2652C99.0881 64.3508 99.0773 64.4505 99.0149 64.4925L95.0435 67.1689Z" fill="#889A6B"/>
<path d="M110.691 116.973C110.723 116.98 110.751 116.947 110.741 116.91C110.692 116.726 110.613 116.554 110.497 116.4C110.148 115.94 109.526 115.644 108.945 115.507C108.364 115.37 107.693 115.361 107.219 115.628C107.045 115.725 106.906 115.863 106.795 116.031C106.788 116.041 106.794 116.054 106.804 116.057L107.536 116.229C107.637 116.253 107.699 116.386 107.675 116.526C107.651 116.665 107.549 116.76 107.448 116.736L106.717 116.563C106.695 116.558 106.675 116.548 106.657 116.534C106.625 116.508 106.569 116.51 106.555 116.553C106.465 116.843 106.417 117.17 106.394 117.504C106.391 117.55 106.446 117.583 106.486 117.575C106.504 117.572 106.523 117.572 106.542 117.577L107.274 117.749C107.375 117.773 107.438 117.906 107.413 118.046C107.389 118.186 107.288 118.28 107.187 118.256L106.455 118.084C106.423 118.076 106.379 118.1 106.38 118.138C106.383 118.349 106.393 118.555 106.405 118.748C106.412 118.866 106.422 118.986 106.435 119.107C106.437 119.124 106.449 119.137 106.464 119.14L107.196 119.313C107.297 119.336 107.359 119.469 107.335 119.609C107.311 119.749 107.209 119.843 107.108 119.819L106.575 119.694C106.544 119.686 106.517 119.717 106.523 119.753C106.577 120.085 106.644 120.421 106.717 120.752C106.721 120.771 106.735 120.786 106.752 120.79L107.117 120.876C107.218 120.9 107.28 121.032 107.256 121.172C107.232 121.312 107.131 121.406 107.03 121.383L106.927 121.358C106.894 121.351 106.866 121.386 106.876 121.423C106.984 121.858 107.096 122.269 107.193 122.629C107.243 122.813 107.29 122.983 107.33 123.137C107.36 123.252 107.398 123.369 107.48 123.443C107.54 123.496 107.6 123.51 107.672 123.488C107.772 123.457 107.846 123.366 107.912 123.274C108 123.151 108.099 123.014 108.206 122.867C108.415 122.58 108.654 122.252 108.897 121.9C108.918 121.869 108.904 121.824 108.871 121.817L108.859 121.814C108.758 121.79 108.696 121.657 108.72 121.517C108.744 121.377 108.845 121.283 108.946 121.307L109.221 121.372C109.238 121.376 109.255 121.368 109.266 121.352C109.443 121.081 109.616 120.801 109.775 120.52C109.792 120.489 109.777 120.448 109.746 120.441L109.303 120.337C109.202 120.313 109.14 120.18 109.164 120.04C109.188 119.9 109.29 119.806 109.391 119.83L110.026 119.98C110.045 119.984 110.064 119.974 110.074 119.955C110.124 119.851 110.172 119.749 110.216 119.646C110.292 119.471 110.37 119.283 110.444 119.087C110.455 119.057 110.439 119.022 110.411 119.016L109.748 118.86C109.647 118.836 109.584 118.703 109.609 118.563C109.633 118.423 109.734 118.329 109.835 118.353L110.567 118.525C110.568 118.526 110.569 118.526 110.57 118.526C110.599 118.533 110.632 118.521 110.641 118.489C110.727 118.184 110.787 117.874 110.802 117.577C110.804 117.544 110.777 117.518 110.748 117.513C110.746 117.513 110.743 117.512 110.741 117.512L110.009 117.339C109.908 117.316 109.846 117.183 109.87 117.043C109.894 116.903 109.996 116.809 110.097 116.833L110.691 116.973Z" fill="#9BAF7A"/>
<path d="M108.49 115.926C108.523 115.648 108.752 115.461 108.99 115.517C109.229 115.573 109.378 115.849 109.317 116.121L108.11 121.479C108.091 121.563 108.018 121.616 107.944 121.598C107.87 121.581 107.821 121.5 107.831 121.414L108.49 115.926Z" fill="#889A6B"/>
<path d="M118.746 103.886C118.792 103.897 118.833 103.847 118.819 103.794C118.748 103.522 118.634 103.27 118.466 103.044C117.96 102.368 117.057 101.935 116.213 101.736C115.37 101.537 114.394 101.527 113.704 101.922C113.452 102.066 113.249 102.271 113.086 102.518C113.077 102.532 113.085 102.552 113.099 102.555L114.162 102.806C114.309 102.84 114.399 103.036 114.364 103.242C114.328 103.448 114.181 103.587 114.034 103.552L112.971 103.302C112.939 103.294 112.91 103.279 112.884 103.258C112.838 103.22 112.756 103.224 112.737 103.287C112.604 103.715 112.533 104.196 112.5 104.688C112.495 104.757 112.574 104.804 112.632 104.793C112.659 104.788 112.687 104.788 112.714 104.795L113.777 105.045C113.924 105.08 114.014 105.275 113.979 105.481C113.943 105.687 113.795 105.826 113.649 105.792L112.586 105.541C112.538 105.53 112.476 105.566 112.476 105.622C112.48 105.932 112.493 106.235 112.51 106.52C112.521 106.693 112.535 106.869 112.553 107.048C112.556 107.073 112.574 107.091 112.595 107.096L113.658 107.347C113.804 107.382 113.895 107.577 113.859 107.783C113.824 107.989 113.676 108.128 113.529 108.093L112.755 107.911C112.71 107.9 112.67 107.946 112.678 107.999C112.756 108.487 112.852 108.982 112.957 109.468C112.964 109.496 112.983 109.518 113.008 109.524L113.538 109.649C113.685 109.683 113.775 109.878 113.74 110.085C113.704 110.291 113.556 110.43 113.41 110.395L113.261 110.36C113.213 110.349 113.172 110.401 113.186 110.455C113.342 111.096 113.502 111.7 113.643 112.229C113.715 112.5 113.782 112.751 113.84 112.976C113.884 113.145 113.938 113.318 114.057 113.426C114.144 113.503 114.231 113.524 114.336 113.491C114.482 113.446 114.589 113.311 114.685 113.176C114.813 112.994 114.958 112.792 115.114 112.575C115.419 112.152 115.767 111.667 116.122 111.147C116.153 111.103 116.132 111.037 116.084 111.025L116.067 111.021C115.92 110.987 115.83 110.792 115.865 110.586C115.901 110.379 116.048 110.24 116.195 110.275L116.594 110.369C116.619 110.375 116.644 110.364 116.659 110.34C116.917 109.94 117.17 109.527 117.402 109.112C117.427 109.067 117.406 109.007 117.361 108.996L116.718 108.845C116.571 108.81 116.481 108.615 116.516 108.409C116.552 108.203 116.699 108.064 116.846 108.098L117.769 108.316C117.796 108.322 117.824 108.307 117.838 108.279C117.912 108.127 117.981 107.975 118.046 107.824C118.158 107.565 118.272 107.288 118.379 107C118.395 106.955 118.373 106.905 118.332 106.895L117.368 106.668C117.222 106.634 117.132 106.438 117.167 106.232C117.202 106.026 117.35 105.887 117.497 105.922L118.56 106.172C118.561 106.173 118.563 106.173 118.564 106.173C118.606 106.184 118.655 106.166 118.668 106.118C118.793 105.669 118.882 105.213 118.905 104.776C118.907 104.726 118.868 104.689 118.827 104.682C118.823 104.681 118.82 104.68 118.816 104.679L117.754 104.429C117.607 104.394 117.517 104.199 117.552 103.993C117.588 103.787 117.735 103.648 117.882 103.683L118.746 103.886Z" fill="#9BAF7A"/>
<path d="M115.55 102.355C115.6 101.946 115.933 101.67 116.279 101.751C116.625 101.833 116.841 102.239 116.751 102.638L114.979 110.532C114.951 110.656 114.846 110.734 114.738 110.708C114.631 110.683 114.559 110.564 114.574 110.437L115.55 102.355Z" fill="#889A6B"/>
<path d="M113.244 85.8574C113.225 85.8319 113.238 85.7894 113.269 85.7797C113.424 85.7303 113.582 85.7149 113.742 85.7429C114.223 85.8269 114.695 86.244 115.034 86.7046C115.373 87.1652 115.656 87.7737 115.656 88.3424C115.656 88.5502 115.612 88.7478 115.535 88.935C115.531 88.9453 115.519 88.9473 115.513 88.9394L115.086 88.3593C115.027 88.2792 114.904 88.2898 114.812 88.383C114.719 88.4763 114.692 88.6168 114.751 88.6969L115.178 89.277C115.191 89.2944 115.207 89.3075 115.225 89.3164C115.257 89.3326 115.278 89.3851 115.253 89.4189C115.077 89.6493 114.858 89.8599 114.623 90.0502C114.59 90.0768 114.544 90.0435 114.533 90.0032C114.528 89.9846 114.52 89.9674 114.509 89.9523L114.082 89.3721C114.023 89.292 113.9 89.3027 113.808 89.3959C113.715 89.4892 113.688 89.6297 113.747 89.7098L114.174 90.2899C114.193 90.3158 114.193 90.3676 114.165 90.3867C114.01 90.491 113.856 90.587 113.709 90.6746C113.62 90.7277 113.528 90.7793 113.434 90.8295C113.421 90.8365 113.407 90.8317 113.398 90.8201L112.971 90.24C112.912 90.1599 112.789 90.1705 112.697 90.2638C112.604 90.357 112.577 90.4975 112.636 90.5776L112.947 91.0003C112.966 91.0249 112.954 91.0657 112.926 91.0786C112.661 91.1983 112.387 91.3084 112.115 91.4097C112.1 91.4156 112.083 91.4109 112.073 91.3975L111.86 91.1079C111.801 91.0278 111.678 91.0384 111.586 91.1316C111.494 91.2249 111.466 91.3654 111.525 91.4455L111.585 91.5268C111.604 91.5528 111.59 91.5963 111.559 91.6068C111.196 91.7296 110.85 91.8369 110.547 91.9308C110.392 91.9789 110.248 92.0234 110.119 92.0648C110.023 92.0956 109.921 92.1209 109.834 92.0832C109.77 92.056 109.735 92.0083 109.722 91.9311C109.703 91.8244 109.739 91.7103 109.779 91.6035C109.833 91.4604 109.892 91.3005 109.956 91.1279C110.08 90.7909 110.222 90.4057 110.379 90.0038C110.392 89.9694 110.431 89.9595 110.45 89.9855L110.458 89.9951C110.517 90.0752 110.639 90.0646 110.732 89.9713C110.824 89.8781 110.851 89.7376 110.792 89.6575L110.632 89.4395C110.622 89.4262 110.62 89.4066 110.628 89.3891C110.753 89.0892 110.887 88.7888 111.027 88.5C111.042 88.4688 111.078 88.4616 111.096 88.4862L111.355 88.8372C111.414 88.9173 111.537 88.9067 111.629 88.8134C111.721 88.7202 111.749 88.5797 111.69 88.4996L111.319 87.9958C111.308 87.9808 111.307 87.9581 111.317 87.9396C111.372 87.8411 111.428 87.7453 111.484 87.6527C111.581 87.4935 111.687 87.3263 111.8 87.1599C111.817 87.1343 111.849 87.1311 111.865 87.1532L112.252 87.6793C112.311 87.7594 112.434 87.7487 112.526 87.6555C112.619 87.5623 112.646 87.4217 112.587 87.3416L112.16 86.7615C112.159 86.7607 112.159 86.7599 112.158 86.7591C112.141 86.7367 112.136 86.6997 112.156 86.675C112.344 86.4417 112.545 86.2286 112.756 86.064C112.78 86.0455 112.81 86.0572 112.825 86.0807C112.826 86.0826 112.828 86.0844 112.829 86.0862L113.256 86.6664C113.315 86.7465 113.438 86.7358 113.53 86.6426C113.623 86.5494 113.65 86.4089 113.591 86.3288L113.244 85.8574Z" fill="#9BAF7A"/>
<path d="M114.915 87.3336C115.104 87.1617 115.147 86.8576 115.008 86.6687C114.869 86.4799 114.606 86.4841 114.432 86.678L111.01 90.5087C110.957 90.5688 110.948 90.6617 110.991 90.7203C111.035 90.7789 111.114 90.783 111.173 90.7297L114.915 87.3336Z" fill="#889A6B"/>
<path d="M121.225 111.9C121.254 111.874 121.257 111.83 121.228 111.819C121.083 111.762 120.921 111.741 120.742 111.763C120.203 111.831 119.547 112.24 119.015 112.7C118.483 113.159 117.956 113.772 117.741 114.355C117.663 114.568 117.635 114.772 117.646 114.967C117.646 114.978 117.658 114.98 117.667 114.972L118.337 114.394C118.43 114.314 118.555 114.33 118.618 114.429C118.68 114.528 118.656 114.673 118.563 114.753L117.894 115.331C117.874 115.349 117.852 115.362 117.83 115.37C117.79 115.385 117.748 115.438 117.762 115.474C117.86 115.717 118.012 115.941 118.189 116.145C118.214 116.174 118.275 116.142 118.302 116.101C118.314 116.082 118.329 116.065 118.346 116.05L119.016 115.471C119.109 115.391 119.234 115.407 119.297 115.506C119.359 115.605 119.335 115.75 119.242 115.83L118.573 116.409C118.543 116.434 118.523 116.487 118.546 116.508C118.671 116.621 118.797 116.725 118.919 116.821C118.993 116.879 119.071 116.935 119.151 116.99C119.163 116.998 119.18 116.993 119.193 116.982L119.863 116.404C119.955 116.324 120.081 116.339 120.143 116.438C120.206 116.538 120.181 116.683 120.089 116.763L119.601 117.184C119.573 117.208 119.569 117.251 119.595 117.265C119.829 117.398 120.077 117.521 120.326 117.636C120.34 117.642 120.359 117.638 120.375 117.625L120.709 117.336C120.801 117.256 120.927 117.272 120.99 117.371C121.052 117.47 121.028 117.615 120.935 117.695L120.842 117.776C120.811 117.802 120.81 117.847 120.839 117.859C121.176 117.999 121.501 118.122 121.786 118.23C121.932 118.285 122.067 118.337 122.187 118.384C122.277 118.419 122.375 118.449 122.482 118.414C122.559 118.388 122.614 118.341 122.657 118.262C122.718 118.153 122.722 118.035 122.72 117.924C122.717 117.775 122.715 117.609 122.713 117.43C122.709 117.079 122.704 116.679 122.689 116.261C122.688 116.225 122.651 116.213 122.621 116.239L122.609 116.249C122.517 116.329 122.391 116.313 122.329 116.214C122.266 116.115 122.291 115.97 122.383 115.89L122.635 115.673C122.65 115.659 122.659 115.639 122.658 115.621C122.638 115.309 122.61 114.996 122.571 114.694C122.567 114.662 122.531 114.653 122.503 114.677L122.098 115.027C122.005 115.107 121.88 115.092 121.817 114.992C121.755 114.893 121.779 114.748 121.872 114.668L122.453 114.166C122.47 114.151 122.48 114.128 122.476 114.108C122.455 114.005 122.432 113.905 122.407 113.808C122.365 113.641 122.316 113.465 122.26 113.29C122.251 113.264 122.219 113.259 122.193 113.281L121.586 113.806C121.494 113.886 121.368 113.87 121.306 113.771C121.243 113.672 121.267 113.526 121.36 113.447L122.03 112.868C122.031 112.867 122.031 112.867 122.032 112.866C122.059 112.844 122.078 112.806 122.066 112.78C121.956 112.533 121.823 112.307 121.662 112.13C121.644 112.11 121.608 112.121 121.583 112.145C121.581 112.146 121.579 112.148 121.577 112.15L120.907 112.729C120.815 112.808 120.689 112.793 120.627 112.694C120.564 112.595 120.588 112.449 120.681 112.37L121.225 111.9Z" fill="#9BAF7A"/>
<path d="M118.904 113.349C118.769 113.166 118.838 112.852 119.056 112.664C119.274 112.475 119.551 112.49 119.661 112.695L121.832 116.754C121.866 116.818 121.84 116.913 121.772 116.972C121.705 117.03 121.619 117.032 121.577 116.975L118.904 113.349Z" fill="#889A6B"/>
<path d="M94.6287 120.985C94.6231 121.022 94.6553 121.053 94.6884 121.042C94.8563 120.986 95.0112 120.896 95.1475 120.763C95.5567 120.364 95.8021 119.655 95.9026 118.994C96.0031 118.332 95.9816 117.567 95.7149 117.028C95.6174 116.831 95.4838 116.673 95.3243 116.546C95.3155 116.539 95.3031 116.546 95.3014 116.557L95.1747 117.39C95.1573 117.505 95.0377 117.577 94.9077 117.55C94.7777 117.523 94.6864 117.407 94.7039 117.292L94.8306 116.459C94.8343 116.434 94.8429 116.411 94.8553 116.391C94.8779 116.354 94.8731 116.29 94.8333 116.275C94.5615 116.173 94.2583 116.119 93.9497 116.094C93.9065 116.091 93.8792 116.153 93.8877 116.198C93.8917 116.22 93.8922 116.241 93.8889 116.263L93.7623 117.096C93.7448 117.211 93.6253 117.283 93.4952 117.256C93.3652 117.229 93.274 117.114 93.2915 116.998L93.4181 116.165C93.4238 116.128 93.3996 116.079 93.3642 116.079C93.1705 116.083 92.9813 116.095 92.8033 116.109C92.6953 116.118 92.5854 116.13 92.474 116.145C92.4584 116.147 92.4473 116.161 92.4448 116.177L92.3182 117.011C92.3007 117.126 92.1811 117.197 92.0511 117.17C91.9211 117.143 91.8299 117.028 91.8474 116.913L91.9396 116.306C91.945 116.27 91.9152 116.239 91.8824 116.246C91.5792 116.308 91.2722 116.385 90.9708 116.47C90.9532 116.475 90.9402 116.49 90.9373 116.509L90.8741 116.925C90.8566 117.04 90.737 117.112 90.607 117.085C90.477 117.058 90.3858 116.942 90.4033 116.827L90.421 116.71C90.4267 116.673 90.3932 116.641 90.3593 116.652C89.9629 116.776 89.5892 116.904 89.2622 117.016C89.0948 117.074 88.9396 117.127 88.7999 117.173C88.6957 117.208 88.5888 117.252 88.5249 117.345C88.4787 117.413 88.4683 117.482 88.4917 117.564C88.5241 117.678 88.6116 117.762 88.6992 117.836C88.8167 117.936 88.9467 118.049 89.087 118.17C89.3609 118.407 89.674 118.678 90.0094 118.955C90.0381 118.979 90.0789 118.962 90.0846 118.925L90.0867 118.911C90.1042 118.796 90.2238 118.725 90.3538 118.752C90.4838 118.779 90.575 118.894 90.5575 119.009L90.51 119.322C90.507 119.341 90.5147 119.361 90.5298 119.373C90.7878 119.574 91.0533 119.77 91.3196 119.951C91.3484 119.97 91.3855 119.953 91.3909 119.918L91.4675 119.413C91.485 119.298 91.6046 119.227 91.7346 119.254C91.8646 119.281 91.9558 119.396 91.9383 119.511L91.8284 120.235C91.8251 120.257 91.8352 120.279 91.8534 120.289C91.9508 120.346 92.0477 120.4 92.1438 120.451C92.309 120.537 92.486 120.626 92.6695 120.709C92.6977 120.721 92.7287 120.703 92.7335 120.672L92.8483 119.916C92.8658 119.801 92.9853 119.729 93.1154 119.756C93.2454 119.783 93.3366 119.899 93.3191 120.014L93.1925 120.847L93.1919 120.851C93.1863 120.884 93.1993 120.922 93.2294 120.932C93.5142 121.028 93.8022 121.097 94.0765 121.113C94.1073 121.115 94.1295 121.084 94.1331 121.051C94.1334 121.049 94.1337 121.046 94.1341 121.043L94.2607 120.21C94.2782 120.095 94.3978 120.023 94.5278 120.05C94.6578 120.077 94.749 120.193 94.7316 120.308L94.6287 120.985Z" fill="#9BAF7A"/>
<path d="M95.4963 118.476C95.7537 118.514 95.936 118.774 95.8948 119.045C95.8536 119.316 95.6058 119.487 95.3532 119.418L90.3619 118.057C90.2835 118.036 90.2322 117.953 90.245 117.869C90.2578 117.785 90.3302 117.728 90.4101 117.74L95.4963 118.476Z" fill="#889A6B"/>
<path d="M99.4772 121.432C99.5142 121.397 99.5072 121.329 99.4631 121.307C99.2392 121.199 98.9999 121.141 98.7443 121.15C97.9766 121.177 97.1172 121.719 96.4499 122.355C95.7826 122.991 95.1562 123.867 94.9783 124.742C94.9133 125.061 94.9191 125.375 94.9791 125.679C94.9824 125.696 95.0008 125.701 95.0122 125.69L95.8527 124.889C95.9687 124.778 96.1548 124.82 96.2682 124.983C96.3817 125.146 96.3796 125.368 96.2635 125.479L95.423 126.281C95.3979 126.304 95.3695 126.321 95.3393 126.331C95.2844 126.349 95.2351 126.426 95.2642 126.483C95.4626 126.875 95.7347 127.245 96.0379 127.587C96.0802 127.635 96.1617 127.594 96.1913 127.534C96.2051 127.507 96.2229 127.482 96.2448 127.461L97.0853 126.66C97.2013 126.549 97.3874 126.591 97.5008 126.754C97.6143 126.917 97.6122 127.139 97.4961 127.25L96.6556 128.051C96.6181 128.087 96.6018 128.167 96.6395 128.202C96.8462 128.395 97.0544 128.576 97.2534 128.742C97.3741 128.842 97.4996 128.941 97.629 129.038C97.6471 129.052 97.6708 129.047 97.6875 129.032L98.528 128.23C98.644 128.119 98.8301 128.162 98.9435 128.325C99.057 128.488 99.0549 128.71 98.9388 128.82L98.3265 129.404C98.2909 129.438 98.2957 129.503 98.3358 129.529C98.7069 129.77 99.0945 129.997 99.4824 130.211C99.505 130.223 99.5317 130.219 99.5511 130.201L99.9707 129.8C100.087 129.69 100.273 129.732 100.386 129.895C100.5 130.058 100.498 130.28 100.382 130.391L100.264 130.503C100.226 130.539 100.234 130.609 100.279 130.632C100.8 130.897 101.301 131.136 101.74 131.345C101.964 131.452 102.172 131.551 102.358 131.642C102.497 131.709 102.646 131.77 102.792 131.731C102.898 131.702 102.968 131.636 103.013 131.52C103.075 131.36 103.055 131.177 103.026 131.004C102.988 130.773 102.947 130.514 102.903 130.236C102.817 129.691 102.718 129.068 102.601 128.417C102.591 128.361 102.534 128.338 102.497 128.374L102.483 128.387C102.367 128.498 102.181 128.455 102.067 128.292C101.954 128.129 101.956 127.907 102.072 127.797L102.388 127.496C102.407 127.477 102.416 127.447 102.41 127.419C102.31 126.931 102.198 126.441 102.072 125.967C102.058 125.916 102.004 125.897 101.969 125.931L101.46 126.416C101.344 126.526 101.158 126.484 101.045 126.321C100.931 126.158 100.933 125.936 101.049 125.825L101.779 125.129C101.801 125.109 101.809 125.074 101.799 125.043C101.745 124.88 101.689 124.721 101.631 124.567C101.531 124.301 101.421 124.022 101.298 123.742C101.28 123.699 101.232 123.687 101.2 123.718L100.438 124.445C100.322 124.555 100.136 124.513 100.022 124.35C99.9088 124.187 99.9109 123.965 100.027 123.854L100.867 123.053C100.869 123.052 100.87 123.05 100.871 123.049C100.905 123.019 100.923 122.963 100.901 122.921C100.684 122.522 100.439 122.151 100.165 121.853C100.134 121.82 100.085 121.832 100.054 121.864C100.051 121.867 100.048 121.87 100.046 121.872L99.2052 122.674C99.0892 122.784 98.9032 122.742 98.7897 122.579C98.6762 122.416 98.6783 122.194 98.7944 122.083L99.4772 121.432Z" fill="#9BAF7A"/>
<path d="M96.4371 123.348C96.1986 123.043 96.2282 122.566 96.5018 122.306C96.7755 122.045 97.1803 122.107 97.3869 122.442L101.469 129.059C101.533 129.163 101.517 129.308 101.432 129.389C101.347 129.47 101.223 129.459 101.149 129.365L96.4371 123.348Z" fill="#889A6B"/>
<path d="M253.103 59.1038C249.554 64.3905 244.296 77.5016 251.662 87.6524C260.87 100.341 261.88 102.32 259.65 105.131C257.217 108.197 233.338 111.894 232.707 117.041C232.203 121.158 234.078 122.216 235.079 122.23" stroke="#889A6B"/>
<path d="M250.756 111.69C250.798 111.691 250.824 111.641 250.802 111.599C250.693 111.381 250.549 111.188 250.364 111.027C249.809 110.544 248.957 110.338 248.198 110.32C247.44 110.301 246.602 110.467 246.083 110.924C245.893 111.091 245.756 111.3 245.662 111.539C245.657 111.552 245.667 111.568 245.68 111.568L246.636 111.591C246.767 111.594 246.88 111.743 246.887 111.924C246.894 112.105 246.793 112.249 246.661 112.246L245.705 112.223C245.677 112.223 245.649 112.215 245.623 112.202C245.576 112.178 245.507 112.196 245.502 112.252C245.466 112.639 245.492 113.059 245.552 113.481C245.561 113.54 245.637 113.566 245.685 113.547C245.707 113.537 245.731 113.533 245.755 113.533L246.711 113.556C246.843 113.559 246.955 113.709 246.962 113.889C246.969 114.07 246.868 114.214 246.736 114.211L245.781 114.188C245.738 114.187 245.691 114.229 245.701 114.277C245.761 114.538 245.827 114.792 245.893 115.031C245.933 115.176 245.977 115.322 246.025 115.471C246.032 115.491 246.051 115.504 246.07 115.504L247.025 115.527C247.157 115.53 247.27 115.679 247.277 115.86C247.284 116.041 247.182 116.185 247.05 116.182L246.354 116.165C246.314 116.165 246.288 116.21 246.305 116.254C246.459 116.653 246.631 117.055 246.809 117.448C246.82 117.471 246.84 117.486 246.862 117.487L247.339 117.498C247.471 117.501 247.584 117.65 247.591 117.831C247.598 118.012 247.497 118.156 247.365 118.153L247.231 118.15C247.188 118.149 247.162 118.2 247.184 118.244C247.433 118.758 247.68 119.242 247.896 119.665C248.007 119.881 248.11 120.082 248.2 120.263C248.268 120.398 248.346 120.534 248.468 120.604C248.556 120.655 248.634 120.657 248.718 120.61C248.835 120.546 248.903 120.413 248.96 120.281C249.037 120.104 249.124 119.908 249.219 119.696C249.403 119.283 249.613 118.811 249.824 118.307C249.842 118.264 249.812 118.212 249.769 118.211L249.753 118.21C249.621 118.207 249.509 118.058 249.502 117.877C249.495 117.696 249.596 117.552 249.728 117.555L250.087 117.564C250.109 117.564 250.129 117.55 250.137 117.528C250.286 117.143 250.427 116.748 250.551 116.355C250.565 116.313 250.535 116.266 250.495 116.265L249.917 116.251C249.785 116.248 249.672 116.098 249.665 115.917C249.658 115.737 249.76 115.593 249.892 115.596L250.721 115.616C250.746 115.616 250.767 115.599 250.774 115.572C250.809 115.43 250.842 115.289 250.87 115.15C250.919 114.911 250.966 114.655 251.006 114.392C251.012 114.352 250.983 114.313 250.947 114.312L250.08 114.291C249.948 114.288 249.836 114.139 249.829 113.958C249.822 113.777 249.923 113.633 250.055 113.636L251.011 113.659C251.012 113.659 251.013 113.659 251.015 113.659C251.052 113.661 251.091 113.637 251.094 113.594C251.119 113.191 251.113 112.789 251.053 112.415C251.047 112.373 251.006 112.348 250.969 112.349C250.966 112.349 250.963 112.349 250.96 112.349L250.005 112.326C249.873 112.323 249.76 112.174 249.753 111.993C249.746 111.812 249.848 111.668 249.98 111.671L250.756 111.69Z" fill="#9BAF7A"/>
<path d="M247.743 110.962C247.711 110.607 247.946 110.314 248.257 110.321C248.568 110.328 248.827 110.633 248.822 110.988L248.733 117.99C248.732 118.1 248.656 118.184 248.559 118.182C248.462 118.179 248.379 118.091 248.369 117.981L247.743 110.962Z" fill="#889A6B"/>
<path d="M257.325 93.2483C257.386 93.2498 257.423 93.1772 257.392 93.1142C257.233 92.794 257.024 92.5088 256.755 92.272C255.948 91.5607 254.711 91.2578 253.609 91.2315C252.507 91.2051 251.291 91.4492 250.537 92.1231C250.261 92.3694 250.063 92.6775 249.926 93.029C249.918 93.0484 249.933 93.0715 249.952 93.0719L251.34 93.1051C251.532 93.1097 251.695 93.3294 251.705 93.5958C251.716 93.8623 251.569 94.0746 251.377 94.07L249.989 94.0368C249.948 94.0358 249.908 94.0247 249.87 94.0053C249.802 93.97 249.701 93.9963 249.694 94.0796C249.642 94.6486 249.68 95.2677 249.768 95.8897C249.78 95.9766 249.891 96.0148 249.96 95.9859C249.993 95.9724 250.027 95.9656 250.063 95.9665L251.451 95.9997C251.643 96.0043 251.806 96.224 251.817 96.4904C251.827 96.7568 251.68 96.9691 251.488 96.9645L250.1 96.9313C250.038 96.9298 249.969 96.991 249.985 97.0615C250.071 97.4467 250.168 97.8211 250.264 98.1723C250.323 98.3855 250.387 98.6015 250.457 98.8197C250.466 98.8502 250.494 98.8687 250.521 98.8693L251.909 98.9025C252.101 98.9071 252.264 99.1268 252.275 99.3932C252.285 99.6597 252.138 99.872 251.946 99.8674L250.935 99.8432C250.876 99.8418 250.839 99.9094 250.863 99.973C251.088 100.562 251.338 101.154 251.597 101.732C251.612 101.766 251.642 101.788 251.674 101.789L252.367 101.805C252.559 101.81 252.722 102.03 252.733 102.296C252.743 102.563 252.596 102.775 252.404 102.77L252.21 102.766C252.147 102.764 252.11 102.839 252.141 102.904C252.504 103.662 252.863 104.374 253.178 104.996C253.339 105.315 253.488 105.611 253.62 105.877C253.718 106.076 253.832 106.278 254.008 106.38C254.136 106.455 254.25 106.458 254.372 106.389C254.541 106.295 254.64 106.098 254.723 105.904C254.835 105.643 254.962 105.354 255.098 105.042C255.365 104.433 255.671 103.738 255.976 102.996C256.002 102.933 255.959 102.855 255.897 102.854L255.874 102.853C255.682 102.849 255.518 102.629 255.508 102.363C255.498 102.096 255.645 101.884 255.837 101.888L256.358 101.901C256.39 101.902 256.418 101.881 256.431 101.848C256.646 101.281 256.852 100.699 257.031 100.121C257.051 100.058 257.008 99.9885 256.949 99.9871L256.11 99.967C255.918 99.9624 255.754 99.7427 255.744 99.4763C255.734 99.2098 255.881 98.9976 256.073 99.0021L257.278 99.031C257.314 99.0318 257.345 99.006 257.354 98.9667C257.405 98.7575 257.452 98.5501 257.493 98.3452C257.564 97.9928 257.632 97.6165 257.69 97.2287C257.698 97.1692 257.657 97.1121 257.604 97.1109L256.345 97.0807C256.154 97.0762 255.99 96.8565 255.98 96.59C255.97 96.3236 256.117 96.1113 256.308 96.1159L257.696 96.1491C257.698 96.1491 257.7 96.1492 257.702 96.1493C257.757 96.1519 257.813 96.1158 257.817 96.0532C257.854 95.4597 257.845 94.8673 257.757 94.3161C257.747 94.2541 257.689 94.2179 257.635 94.2194C257.631 94.2195 257.627 94.2195 257.622 94.2194L256.234 94.1862C256.043 94.1816 255.879 93.9619 255.869 93.6955C255.859 93.429 256.006 93.2168 256.197 93.2213L257.325 93.2483Z" fill="#9BAF7A"/>
<path d="M252.947 92.178C252.901 91.6547 253.243 91.2227 253.695 91.2335C254.147 91.2443 254.522 91.6935 254.516 92.2155L254.392 102.529C254.39 102.691 254.279 102.815 254.139 102.812C253.999 102.808 253.878 102.679 253.864 102.516L252.947 92.178Z" fill="#889A6B"/>
<path d="M245.731 72.2037C245.701 72.1768 245.706 72.1204 245.741 72.1002C245.921 71.9979 246.114 71.9371 246.32 71.93C246.94 71.9085 247.638 72.3047 248.181 72.7901C248.724 73.2756 249.236 73.9604 249.386 74.6698C249.441 74.929 249.438 75.1871 249.392 75.4408C249.389 75.4548 249.375 75.4605 249.365 75.4522L248.681 74.8407C248.587 74.7563 248.437 74.8018 248.347 74.9424C248.256 75.083 248.26 75.2654 248.354 75.3498L249.038 75.9613C249.059 75.9796 249.082 75.9918 249.106 75.9982C249.15 76.0099 249.191 76.0699 249.168 76.1187C249.01 76.4523 248.794 76.7726 248.551 77.0716C248.518 77.1135 248.452 77.084 248.427 77.0367C248.416 77.0148 248.401 76.9954 248.384 76.9795L247.699 76.3681C247.605 76.2836 247.455 76.3292 247.365 76.4698C247.274 76.6104 247.278 76.7928 247.372 76.8772L248.056 77.4887C248.087 77.516 248.101 77.5805 248.07 77.6118C247.905 77.7827 247.738 77.943 247.579 78.0908C247.482 78.1804 247.382 78.2689 247.278 78.3563C247.263 78.3685 247.244 78.3662 247.231 78.3541L246.546 77.7426C246.452 77.6581 246.302 77.7037 246.212 77.8443C246.121 77.9849 246.125 78.1673 246.219 78.2517L246.718 78.6972C246.747 78.7231 246.743 78.777 246.711 78.8007C246.413 79.0195 246.102 79.2287 245.791 79.4266C245.772 79.4381 245.751 79.4364 245.735 79.4224L245.394 79.1171C245.299 79.0327 245.149 79.0782 245.059 79.2188C244.968 79.3594 244.972 79.5418 245.066 79.6262L245.162 79.7119C245.193 79.7393 245.187 79.7973 245.151 79.8185C244.732 80.067 244.329 80.2919 243.977 80.4888C243.797 80.5895 243.63 80.6829 243.48 80.7683C243.369 80.832 243.249 80.8903 243.13 80.8663C243.044 80.8489 242.988 80.7987 242.951 80.7059C242.899 80.5778 242.914 80.4259 242.936 80.2821C242.966 80.0894 242.997 79.8744 243.03 79.6425C243.096 79.1894 243.171 78.6717 243.26 78.1289C243.268 78.0825 243.314 78.06 243.345 78.0874L243.356 78.0975C243.45 78.1819 243.6 78.1364 243.691 77.9958C243.781 77.8552 243.778 77.6728 243.683 77.5884L243.426 77.3587C243.41 77.3446 243.403 77.3205 243.408 77.2968C243.485 76.8897 243.572 76.4799 243.67 76.0828C243.681 76.0399 243.724 76.0214 243.753 76.0473L244.167 76.4173C244.261 76.5017 244.411 76.4562 244.501 76.3156C244.592 76.175 244.588 75.9926 244.494 75.9081L243.9 75.3771C243.882 75.3613 243.876 75.3332 243.883 75.3075C243.926 75.1702 243.97 75.036 244.015 74.9057C244.094 74.6815 244.181 74.4453 244.278 74.208C244.293 74.1715 244.331 74.1593 244.357 74.1825L244.978 74.737C245.072 74.8215 245.222 74.7759 245.312 74.6353C245.403 74.4947 245.399 74.3123 245.305 74.2279L244.621 73.6164C244.62 73.6156 244.619 73.6147 244.618 73.6139C244.59 73.5905 244.575 73.5455 244.593 73.5096C244.765 73.1692 244.96 72.8504 245.179 72.5896C245.203 72.5603 245.243 72.5671 245.269 72.5922C245.271 72.5943 245.273 72.5962 245.275 72.5982L245.959 73.2096C246.054 73.2941 246.204 73.2485 246.294 73.108C246.385 72.9674 246.381 72.785 246.287 72.7005L245.731 72.2037Z" fill="#9BAF7A"/>
<path d="M248.198 73.6061C248.389 73.3419 248.361 72.9514 248.139 72.7523C247.916 72.5533 247.59 72.6277 247.425 72.9151L244.179 78.5929C244.128 78.6821 244.142 78.8 244.211 78.8618C244.28 78.9236 244.38 78.9079 244.439 78.8258L248.198 73.6061Z" fill="#889A6B"/>
<path d="M262.52 102.594C262.55 102.554 262.541 102.499 262.503 102.492C262.307 102.46 262.101 102.475 261.884 102.55C261.231 102.776 260.523 103.46 259.983 104.172C259.442 104.885 258.948 105.788 258.835 106.572C258.794 106.858 258.812 107.12 258.877 107.361C258.88 107.374 258.896 107.374 258.906 107.362L259.586 106.464C259.68 106.34 259.84 106.327 259.944 106.434C260.048 106.541 260.056 106.729 259.962 106.852L259.282 107.75C259.261 107.777 259.238 107.798 259.213 107.815C259.167 107.845 259.128 107.922 259.155 107.962C259.342 108.24 259.59 108.48 259.863 108.688C259.902 108.717 259.969 108.661 259.992 108.603C260.002 108.576 260.016 108.55 260.034 108.527L260.714 107.629C260.808 107.505 260.969 107.492 261.073 107.599C261.176 107.706 261.184 107.894 261.091 108.018L260.41 108.915C260.38 108.955 260.369 109.027 260.403 109.046C260.588 109.155 260.773 109.251 260.95 109.338C261.057 109.391 261.168 109.441 261.283 109.489C261.299 109.495 261.319 109.485 261.332 109.468L262.013 108.57C262.107 108.446 262.267 108.433 262.371 108.54C262.475 108.647 262.483 108.835 262.389 108.958L261.893 109.612C261.864 109.65 261.871 109.704 261.907 109.715C262.233 109.819 262.574 109.908 262.914 109.985C262.933 109.99 262.956 109.98 262.972 109.959L263.311 109.511C263.405 109.387 263.566 109.373 263.67 109.481C263.773 109.588 263.781 109.775 263.687 109.899L263.592 110.025C263.562 110.065 263.572 110.122 263.611 110.129C264.067 110.215 264.504 110.283 264.887 110.343C265.082 110.374 265.264 110.402 265.426 110.43C265.548 110.45 265.677 110.461 265.8 110.39C265.889 110.337 265.945 110.264 265.979 110.154C266.025 110.003 265.999 109.854 265.967 109.716C265.924 109.531 265.878 109.324 265.828 109.101C265.731 108.665 265.619 108.167 265.491 107.649C265.48 107.605 265.43 107.6 265.4 107.641L265.389 107.655C265.295 107.779 265.134 107.793 265.03 107.686C264.927 107.578 264.918 107.391 265.012 107.267L265.268 106.93C265.284 106.909 265.29 106.882 265.284 106.859C265.177 106.475 265.059 106.092 264.931 105.726C264.917 105.686 264.871 105.685 264.842 105.723L264.43 106.266C264.336 106.39 264.176 106.403 264.072 106.296C263.968 106.189 263.96 106.001 264.054 105.878L264.645 105.098C264.663 105.075 264.668 105.044 264.658 105.02C264.605 104.897 264.55 104.778 264.494 104.663C264.397 104.466 264.29 104.26 264.174 104.057C264.156 104.025 264.115 104.028 264.089 104.062L263.472 104.876C263.378 105 263.218 105.014 263.114 104.907C263.01 104.799 263.002 104.612 263.096 104.488L263.776 103.59C263.777 103.589 263.778 103.588 263.779 103.587C263.806 103.552 263.82 103.5 263.799 103.47C263.596 103.192 263.372 102.945 263.125 102.766C263.097 102.746 263.056 102.769 263.03 102.805C263.028 102.808 263.026 102.811 263.024 102.814L262.344 103.711C262.25 103.835 262.089 103.849 261.986 103.741C261.882 103.634 261.874 103.447 261.968 103.323L262.52 102.594Z" fill="#9BAF7A"/>
<path d="M260.016 105.012C259.799 104.818 259.803 104.409 260.025 104.117C260.246 103.824 260.594 103.77 260.785 103.997L264.555 108.49C264.614 108.561 264.607 108.687 264.538 108.777C264.469 108.868 264.363 108.892 264.296 108.832L260.016 105.012Z" fill="#889A6B"/>
<path d="M231.836 120.916C231.839 120.963 231.887 120.994 231.925 120.971C232.12 120.857 232.288 120.704 232.423 120.502C232.827 119.898 232.945 118.949 232.896 118.097C232.846 117.245 232.618 116.297 232.144 115.694C231.971 115.474 231.763 115.311 231.531 115.195C231.519 115.189 231.505 115.2 231.506 115.215L231.568 116.288C231.577 116.436 231.447 116.557 231.278 116.557C231.109 116.557 230.965 116.438 230.957 116.289L230.894 115.216C230.893 115.184 230.897 115.153 230.907 115.125C230.926 115.073 230.903 114.995 230.849 114.986C230.484 114.93 230.093 114.942 229.703 114.993C229.648 115 229.631 115.085 229.653 115.139C229.664 115.164 229.67 115.191 229.672 115.219L229.734 116.292C229.742 116.44 229.612 116.561 229.444 116.561C229.275 116.562 229.131 116.442 229.122 116.294L229.06 115.221C229.057 115.173 229.014 115.118 228.971 115.128C228.731 115.184 228.498 115.248 228.281 115.313C228.149 115.352 228.015 115.396 227.881 115.443C227.862 115.45 227.852 115.471 227.853 115.492L227.915 116.565C227.924 116.713 227.794 116.834 227.625 116.834C227.456 116.834 227.312 116.715 227.304 116.566L227.258 115.785C227.256 115.739 227.211 115.708 227.172 115.725C226.811 115.882 226.449 116.059 226.097 116.244C226.076 116.255 226.064 116.277 226.065 116.302L226.097 116.838C226.105 116.986 225.975 117.106 225.806 117.107C225.638 117.107 225.494 116.987 225.485 116.839L225.476 116.689C225.474 116.641 225.424 116.61 225.384 116.632C224.924 116.891 224.493 117.149 224.116 117.375C223.923 117.491 223.744 117.598 223.582 117.692C223.462 117.763 223.34 117.845 223.286 117.979C223.246 118.076 223.251 118.164 223.302 118.26C223.372 118.394 223.503 118.476 223.632 118.545C223.804 118.639 223.995 118.745 224.202 118.86C224.605 119.084 225.066 119.34 225.556 119.597C225.598 119.619 225.644 119.588 225.642 119.54L225.641 119.522C225.632 119.374 225.762 119.253 225.931 119.253C226.1 119.252 226.243 119.372 226.252 119.52L226.275 119.924C226.277 119.948 226.292 119.971 226.313 119.981C226.687 120.164 227.069 120.339 227.448 120.495C227.489 120.512 227.531 120.48 227.528 120.435L227.49 119.786C227.482 119.638 227.612 119.517 227.78 119.517C227.949 119.516 228.093 119.636 228.102 119.784L228.156 120.716C228.157 120.744 228.176 120.768 228.201 120.777C228.337 120.823 228.472 120.865 228.605 120.902C228.833 120.967 229.077 121.03 229.327 121.086C229.365 121.094 229.399 121.063 229.396 121.023L229.34 120.05C229.331 119.901 229.461 119.781 229.63 119.781C229.799 119.78 229.943 119.9 229.951 120.048L230.014 121.121L230.014 121.126C230.015 121.168 230.042 121.212 230.082 121.217C230.462 121.263 230.838 121.272 231.183 121.22C231.222 121.214 231.241 121.17 231.237 121.128C231.237 121.125 231.237 121.122 231.236 121.118L231.174 120.045C231.166 119.897 231.296 119.777 231.464 119.776C231.633 119.776 231.777 119.896 231.786 120.044L231.836 120.916Z" fill="#9BAF7A"/>
<path d="M232.254 117.558C232.584 117.537 232.879 117.814 232.9 118.163C232.92 118.512 232.657 118.79 232.324 118.771L225.758 118.384C225.655 118.378 225.569 118.289 225.563 118.181C225.557 118.072 225.632 117.982 225.734 117.976L232.254 117.558Z" fill="#889A6B"/>
<path d="M237.984 120.2C238.021 120.146 237.994 120.063 237.934 120.048C237.627 119.971 237.314 119.962 236.999 120.041C236.051 120.276 235.125 121.177 234.462 122.146C233.8 123.115 233.252 124.372 233.261 125.51C233.264 125.926 233.354 126.315 233.509 126.679C233.518 126.699 233.542 126.701 233.553 126.685L234.387 125.464C234.503 125.295 234.745 125.299 234.929 125.473C235.113 125.646 235.169 125.924 235.054 126.092L234.22 127.313C234.195 127.349 234.164 127.378 234.129 127.398C234.066 127.435 234.024 127.543 234.076 127.607C234.426 128.044 234.862 128.434 235.329 128.782C235.394 128.83 235.485 128.757 235.506 128.675C235.516 128.637 235.531 128.601 235.553 128.57L236.387 127.349C236.502 127.18 236.745 127.185 236.929 127.358C237.113 127.532 237.169 127.809 237.054 127.977L236.219 129.198C236.182 129.253 236.183 129.356 236.239 129.39C236.547 129.577 236.854 129.748 237.145 129.902C237.322 129.996 237.504 130.086 237.69 130.173C237.716 130.186 237.745 130.174 237.761 130.15L238.595 128.929C238.71 128.76 238.953 128.765 239.137 128.938C239.321 129.112 239.377 129.389 239.262 129.557L238.654 130.447C238.619 130.498 238.642 130.579 238.699 130.6C239.224 130.803 239.766 130.984 240.304 131.149C240.336 131.158 240.368 131.147 240.387 131.118L240.803 130.509C240.919 130.34 241.161 130.345 241.345 130.518C241.529 130.692 241.585 130.969 241.47 131.137L241.353 131.308C241.316 131.363 241.344 131.448 241.406 131.465C242.124 131.66 242.81 131.826 243.411 131.971C243.718 132.045 244.003 132.114 244.258 132.179C244.448 132.227 244.65 132.263 244.822 132.175C244.946 132.112 245.015 132.012 245.04 131.855C245.076 131.639 245.002 131.416 244.921 131.208C244.812 130.929 244.693 130.618 244.565 130.281C244.314 129.625 244.028 128.874 243.71 128.092C243.683 128.025 243.606 128.011 243.569 128.065L243.555 128.086C243.44 128.254 243.198 128.25 243.013 128.077C242.829 127.903 242.774 127.626 242.889 127.457L243.202 126.999C243.221 126.971 243.224 126.931 243.209 126.897C242.956 126.315 242.688 125.733 242.406 125.175C242.376 125.114 242.304 125.105 242.269 125.157L241.764 125.895C241.649 126.064 241.406 126.06 241.222 125.886C241.038 125.713 240.982 125.435 241.098 125.267L241.822 124.207C241.843 124.175 241.844 124.13 241.824 124.094C241.714 123.905 241.602 123.721 241.489 123.544C241.295 123.239 241.084 122.919 240.858 122.602C240.824 122.553 240.761 122.552 240.729 122.598L239.973 123.705C239.858 123.873 239.615 123.869 239.431 123.696C239.247 123.522 239.191 123.245 239.306 123.077L240.141 121.856C240.142 121.854 240.143 121.852 240.144 121.851C240.178 121.804 240.186 121.729 240.147 121.682C239.772 121.242 239.371 120.844 238.951 120.544C238.904 120.511 238.845 120.538 238.815 120.587C238.813 120.591 238.81 120.595 238.807 120.599L237.973 121.82C237.858 121.988 237.616 121.984 237.431 121.811C237.247 121.637 237.192 121.36 237.307 121.191L237.984 120.2Z" fill="#9BAF7A"/>
<path d="M234.708 123.388C234.331 123.071 234.242 122.468 234.514 122.071C234.785 121.673 235.305 121.645 235.651 122.008L242.472 129.191C242.579 129.304 242.597 129.488 242.513 129.612C242.428 129.735 242.271 129.754 242.154 129.656L234.708 123.388Z" fill="#889A6B"/>
<path d="M268.429 93.3094C260.501 96.3923 240.789 98.9785 225.366 84.6601C206.087 66.7621 203.086 64.5789 198.877 66.7071C194.282 69.0295 189.041 101.718 181.282 100.688C175.076 99.8639 173.454 96.7913 173.418 95.3581" stroke="#889A6B"/>
<path d="M190.527 81.3407C190.489 81.3432 190.461 81.3055 190.477 81.271C190.559 81.0957 190.673 80.9377 190.829 80.8038C191.295 80.4017 192.056 80.2054 192.748 80.1605C193.44 80.1155 194.22 80.2117 194.735 80.5501C194.923 80.6738 195.066 80.8326 195.173 81.0163C195.179 81.0265 195.171 81.0392 195.159 81.0399L194.287 81.0965C194.167 81.1044 194.077 81.2262 194.086 81.3686C194.095 81.5111 194.2 81.6202 194.321 81.6124L195.192 81.5558C195.218 81.5541 195.243 81.547 195.266 81.5356C195.306 81.5149 195.371 81.5261 195.381 81.5703C195.447 81.8724 195.46 82.2038 195.441 82.5382C195.438 82.5849 195.371 82.6084 195.325 82.5949C195.304 82.5886 195.282 82.5859 195.259 82.5874L194.388 82.644C194.267 82.6518 194.177 82.7736 194.186 82.9161C194.196 83.0585 194.301 83.1677 194.421 83.1598L195.293 83.1032C195.332 83.1007 195.379 83.1314 195.373 83.1694C195.341 83.3774 195.303 83.5798 195.263 83.77C195.238 83.8853 195.211 84.0024 195.18 84.1207C195.175 84.1373 195.159 84.1479 195.142 84.149L194.27 84.2056C194.15 84.2135 194.06 84.3353 194.069 84.4777C194.078 84.6201 194.183 84.7293 194.304 84.7215L194.939 84.6802C194.976 84.6778 195.003 84.7128 194.992 84.7475C194.885 85.0678 194.762 85.3906 194.633 85.7067C194.625 85.7252 194.608 85.7377 194.588 85.739L194.153 85.7673C194.032 85.7751 193.942 85.8969 193.951 86.0393C193.961 86.1818 194.066 86.2909 194.186 86.2831L194.308 86.2752C194.347 86.2726 194.375 86.3118 194.359 86.3472C194.176 86.7617 193.991 87.1514 193.83 87.4925C193.748 87.6671 193.671 87.8289 193.604 87.9748C193.553 88.0836 193.494 88.1944 193.389 88.2542C193.313 88.2975 193.241 88.3021 193.16 88.269C193.048 88.2233 192.974 88.1212 192.91 88.0198C192.825 87.8839 192.728 87.7333 192.624 87.5708C192.419 87.2535 192.186 86.8908 191.951 86.5036C191.93 86.4705 191.953 86.4281 191.992 86.4255L192.006 86.4246C192.127 86.4168 192.217 86.295 192.208 86.1525C192.198 86.0101 192.093 85.901 191.973 85.9088L191.645 85.93C191.625 85.9313 191.606 85.9212 191.596 85.9039C191.427 85.6072 191.264 85.3029 191.117 84.9991C191.101 84.9662 191.124 84.9279 191.161 84.9255L191.688 84.8913C191.808 84.8835 191.899 84.7617 191.889 84.6192C191.88 84.4768 191.775 84.3676 191.655 84.3755L190.897 84.4246C190.875 84.4261 190.854 84.4131 190.846 84.3925C190.801 84.2823 190.759 84.1729 190.722 84.0647C190.656 83.8787 190.591 83.6799 190.532 83.4746C190.523 83.4431 190.546 83.4114 190.579 83.4093L191.37 83.358C191.49 83.3501 191.58 83.2283 191.571 83.0859C191.562 82.9435 191.457 82.8343 191.336 82.8421L190.464 82.8987C190.463 82.8988 190.462 82.8989 190.461 82.899C190.426 82.9019 190.389 82.8843 190.383 82.851C190.325 82.5354 190.295 82.219 190.318 81.9225C190.321 81.8891 190.355 81.8682 190.389 81.8675C190.392 81.8674 190.395 81.8673 190.397 81.8671L191.269 81.8105C191.39 81.8027 191.48 81.6809 191.47 81.5384C191.461 81.396 191.356 81.2869 191.236 81.2947L190.527 81.3407Z" fill="#9BAF7A"/>
<path d="M193.22 80.6469C193.219 80.3664 192.978 80.1455 192.694 80.164C192.411 80.1824 192.2 80.4326 192.235 80.7109L192.92 86.2101C192.931 86.2965 193.008 86.3596 193.096 86.3538C193.184 86.3481 193.253 86.2756 193.252 86.1886L193.22 80.6469Z" fill="#889A6B"/>
<path d="M186.713 92.1417C186.701 92.1194 186.722 92.088 186.753 92.0843C186.91 92.0655 187.063 92.0735 187.21 92.1155C187.649 92.2417 188.014 92.6261 188.243 93.0274C188.472 93.4288 188.618 93.9382 188.504 94.3808C188.462 94.5426 188.38 94.6909 188.269 94.8269C188.263 94.8344 188.251 94.8343 188.247 94.8275L187.959 94.3219C187.919 94.2521 187.8 94.2449 187.693 94.3057C187.587 94.3666 187.533 94.4726 187.573 94.5424L187.861 95.0479C187.87 95.063 187.882 95.0752 187.897 95.0844C187.925 95.1011 187.934 95.1447 187.903 95.1677C187.69 95.3249 187.44 95.4611 187.178 95.5795C187.142 95.5961 187.105 95.5643 187.102 95.5316C187.101 95.5164 187.097 95.502 187.089 95.4889L186.801 94.9833C186.761 94.9135 186.642 94.9062 186.535 94.9671C186.429 95.028 186.375 95.1339 186.415 95.2038L186.703 95.7093C186.716 95.7319 186.706 95.7722 186.675 95.7835C186.507 95.8451 186.341 95.9003 186.184 95.9499C186.089 95.9799 185.991 96.0085 185.892 96.0357C185.878 96.0395 185.865 96.0339 185.859 96.0239L185.57 95.5183C185.531 95.4485 185.412 95.4412 185.305 95.5021C185.199 95.563 185.145 95.6689 185.184 95.7387L185.395 96.1071C185.407 96.1285 185.388 96.1588 185.358 96.1653C185.083 96.225 184.801 96.2761 184.522 96.3205C184.506 96.3231 184.491 96.3173 184.484 96.3057L184.34 96.0533C184.3 95.9835 184.182 95.9762 184.075 96.0371C183.968 96.098 183.914 96.2039 183.954 96.2737L183.995 96.3446C184.008 96.3672 183.986 96.3993 183.954 96.4036C183.585 96.4533 183.234 96.493 182.927 96.5278C182.77 96.5455 182.624 96.562 182.494 96.5779C182.396 96.5897 182.294 96.5965 182.219 96.5562C182.164 96.527 182.14 96.4854 182.143 96.4236C182.147 96.3382 182.204 96.254 182.264 96.1759C182.344 96.0714 182.432 95.9543 182.527 95.8281C182.713 95.5814 182.926 95.2996 183.156 95.0066C183.176 94.9816 183.215 94.9788 183.228 95.0015L183.232 95.0098C183.272 95.0796 183.391 95.0869 183.498 95.026C183.604 94.9651 183.658 94.8592 183.618 94.7893L183.51 94.5994C183.503 94.5878 183.506 94.5723 183.516 94.5596C183.696 94.3421 183.883 94.1252 184.075 93.9181C184.095 93.8957 184.131 93.8947 184.143 93.9161L184.318 94.222C184.358 94.2918 184.477 94.2991 184.583 94.2382C184.69 94.1773 184.744 94.0714 184.704 94.0016L184.453 93.5625C184.446 93.5495 184.45 93.5318 184.463 93.5187C184.535 93.4489 184.608 93.3813 184.68 93.3164C184.804 93.2048 184.938 93.088 185.079 92.9727C185.1 92.955 185.131 92.9566 185.142 92.9758L185.404 93.4342C185.444 93.5041 185.563 93.5113 185.669 93.4504C185.776 93.3895 185.83 93.2836 185.79 93.2138L185.501 92.7082C185.501 92.7075 185.5 92.7068 185.5 92.7061C185.488 92.6865 185.491 92.6571 185.515 92.6404C185.74 92.4826 185.975 92.3422 186.208 92.2408C186.235 92.2294 186.261 92.2422 186.271 92.2624C186.271 92.2641 186.272 92.2657 186.273 92.2673L186.562 92.7729C186.602 92.8427 186.721 92.8499 186.827 92.789C186.934 92.7281 186.988 92.6222 186.948 92.5524L186.713 92.1417Z" fill="#9BAF7A"/>
<path d="M188.003 93.502C188.218 93.3921 188.319 93.1608 188.225 92.9962C188.131 92.8316 187.88 92.8016 187.677 92.9306L183.654 95.4794C183.591 95.5195 183.564 95.5907 183.593 95.6418C183.622 95.6929 183.697 95.7061 183.764 95.672L188.003 93.502Z" fill="#889A6B"/>
<path d="M177.046 100.221C177.016 100.21 177.005 100.178 177.027 100.161C177.138 100.079 177.271 100.017 177.428 99.984C177.899 99.8839 178.542 100.006 179.089 100.199C179.636 100.393 180.212 100.702 180.516 101.077C180.627 101.214 180.693 101.358 180.725 101.506C180.727 101.514 180.717 101.52 180.707 101.516L180.018 101.272C179.923 101.239 179.82 101.285 179.788 101.377C179.755 101.468 179.806 101.569 179.901 101.603L180.59 101.847C180.611 101.854 180.632 101.858 180.653 101.858C180.69 101.858 180.737 101.886 180.732 101.916C180.699 102.125 180.617 102.334 180.51 102.536C180.495 102.564 180.437 102.557 180.405 102.534C180.391 102.523 180.374 102.514 180.357 102.508L179.667 102.264C179.572 102.23 179.469 102.277 179.437 102.368C179.404 102.46 179.455 102.561 179.55 102.595L180.24 102.839C180.27 102.849 180.298 102.884 180.283 102.905C180.201 103.024 180.115 103.137 180.032 103.242C179.981 103.306 179.927 103.37 179.87 103.433C179.862 103.442 179.847 103.444 179.833 103.439L179.144 103.195C179.049 103.161 178.946 103.208 178.913 103.299C178.881 103.39 178.932 103.492 179.027 103.525L179.529 103.703C179.558 103.713 179.57 103.744 179.551 103.762C179.38 103.926 179.196 104.087 179.009 104.242C178.998 104.251 178.981 104.253 178.965 104.247L178.621 104.126C178.526 104.092 178.422 104.139 178.39 104.23C178.358 104.321 178.409 104.422 178.504 104.456L178.6 104.49C178.631 104.501 178.642 104.534 178.62 104.551C178.363 104.75 178.113 104.932 177.894 105.092C177.782 105.174 177.678 105.25 177.585 105.319C177.516 105.37 177.439 105.42 177.342 105.423C177.271 105.426 177.214 105.406 177.161 105.359C177.087 105.295 177.059 105.208 177.037 105.125C177.009 105.013 176.976 104.889 176.94 104.755C176.87 104.492 176.791 104.193 176.716 103.877C176.709 103.85 176.739 103.831 176.769 103.842L176.781 103.846C176.876 103.88 176.979 103.833 177.012 103.742C177.044 103.651 176.993 103.549 176.898 103.516L176.639 103.424C176.623 103.419 176.611 103.406 176.608 103.392C176.56 103.154 176.518 102.913 176.488 102.678C176.485 102.652 176.513 102.636 176.543 102.646L176.96 102.794C177.055 102.827 177.158 102.781 177.19 102.689C177.223 102.598 177.172 102.497 177.077 102.463L176.478 102.251C176.46 102.245 176.448 102.23 176.447 102.215C176.443 102.132 176.441 102.051 176.442 101.972C176.443 101.836 176.448 101.691 176.459 101.545C176.461 101.523 176.487 101.511 176.513 101.52L177.138 101.741C177.233 101.775 177.337 101.728 177.369 101.637C177.401 101.545 177.35 101.444 177.255 101.41L176.566 101.166C176.565 101.166 176.564 101.166 176.563 101.165C176.536 101.156 176.512 101.133 176.516 101.111C176.559 100.896 176.624 100.691 176.724 100.514C176.735 100.494 176.767 100.493 176.794 100.503C176.796 100.504 176.798 100.505 176.8 100.505L177.489 100.749C177.584 100.783 177.688 100.736 177.72 100.645C177.752 100.554 177.701 100.452 177.606 100.419L177.046 100.221Z" fill="#9BAF7A"/>
<path d="M179.319 100.652C179.395 100.478 179.271 100.264 179.046 100.184C178.822 100.105 178.59 100.193 178.54 100.377L177.546 104.006C177.53 104.063 177.573 104.127 177.642 104.151C177.712 104.176 177.785 104.153 177.809 104.099L179.319 100.652Z" fill="#889A6B"/>
<path d="M175.48 95.0548C175.515 95.044 175.549 95.0743 175.543 95.111C175.51 95.2975 175.443 95.4747 175.333 95.6376C175.003 96.1268 174.354 96.4822 173.733 96.6769C173.111 96.8715 172.376 96.9496 171.826 96.7363C171.625 96.6584 171.456 96.5368 171.315 96.3833C171.307 96.3748 171.311 96.3608 171.322 96.3574L172.105 96.1122C172.213 96.0784 172.266 95.9414 172.224 95.8063C172.182 95.6712 172.06 95.5891 171.952 95.6229L171.169 95.8681C171.145 95.8755 171.125 95.8876 171.107 95.9036C171.074 95.9325 171.012 95.9359 170.993 95.8954C170.861 95.6189 170.771 95.3026 170.708 94.9766C170.7 94.9311 170.756 94.8937 170.8 94.8968C170.821 94.8982 170.842 94.8959 170.862 94.8896L171.645 94.6444C171.753 94.6105 171.806 94.4735 171.764 94.3384C171.722 94.2033 171.6 94.1212 171.492 94.1551L170.709 94.4003C170.674 94.4112 170.624 94.3919 170.62 94.354C170.6 94.1469 170.587 93.9435 170.578 93.7518C170.573 93.6354 170.57 93.5166 170.57 93.3958C170.571 93.3789 170.583 93.3652 170.598 93.3604L171.381 93.1152C171.489 93.0813 171.542 92.9443 171.5 92.8092C171.458 92.6741 171.336 92.592 171.228 92.6259L170.657 92.8045C170.624 92.8149 170.591 92.7872 170.593 92.7513C170.614 92.4196 170.65 92.082 170.692 91.7493C170.695 91.7299 170.708 91.714 170.726 91.7084L171.117 91.586C171.225 91.5521 171.278 91.4151 171.236 91.28C171.194 91.1449 171.072 91.0628 170.964 91.0967L170.854 91.131C170.819 91.142 170.784 91.1104 170.79 91.0729C170.859 90.6337 170.935 90.2181 171.001 89.8544C171.035 89.6682 171.066 89.4957 171.093 89.3405C171.113 89.2248 171.141 89.105 171.223 89.0245C171.282 88.9662 171.347 88.946 171.428 88.9602C171.541 88.9797 171.633 89.0619 171.715 89.1456C171.826 89.2577 171.95 89.3815 172.084 89.5151C172.346 89.776 172.645 90.0741 172.953 90.3954C172.979 90.4228 172.968 90.4686 172.933 90.4796L172.92 90.4837C172.812 90.5175 172.759 90.6545 172.801 90.7896C172.844 90.9247 172.966 91.0068 173.074 90.973L173.368 90.8808C173.386 90.8752 173.406 90.8808 173.419 90.8953C173.644 91.144 173.865 91.4013 174.072 91.6615C174.094 91.6897 174.083 91.7315 174.05 91.7419L173.576 91.8903C173.468 91.9241 173.415 92.0611 173.457 92.1962C173.499 92.3313 173.621 92.4134 173.729 92.3796L174.409 92.1666C174.429 92.1603 174.451 92.1682 174.464 92.1862C174.531 92.2825 174.595 92.3788 174.655 92.4746C174.759 92.6395 174.866 92.8166 174.969 93.0014C174.984 93.0297 174.971 93.0652 174.941 93.0745L174.231 93.2968C174.123 93.3307 174.07 93.4677 174.112 93.6028C174.155 93.7379 174.277 93.82 174.385 93.7861L175.167 93.5409C175.169 93.5406 175.17 93.5402 175.171 93.5399C175.201 93.5296 175.24 93.5384 175.253 93.5691C175.382 93.8602 175.483 94.1584 175.533 94.4489C175.539 94.4815 175.512 94.5093 175.481 94.5174C175.479 94.5181 175.477 94.5188 175.474 94.5195L174.691 94.7647C174.583 94.7986 174.53 94.9356 174.572 95.0707C174.615 95.2058 174.736 95.2879 174.845 95.254L175.48 95.0548Z" fill="#9BAF7A"/>
<path d="M173.186 96.3118C173.254 96.5815 173.526 96.7416 173.781 96.6617C174.036 96.5819 174.168 96.2951 174.071 96.0347L172.137 90.89C172.107 90.8092 172.021 90.7654 171.942 90.7902C171.863 90.8149 171.818 90.8997 171.839 90.9834L173.186 96.3118Z" fill="#889A6B"/>
<path d="M194.386 66.7556C194.344 66.719 194.355 66.6512 194.407 66.6314C194.672 66.5308 194.954 66.4823 195.253 66.5007C196.15 66.5559 197.139 67.1283 197.899 67.7888C198.66 68.4492 199.366 69.3475 199.546 70.2281C199.613 70.5499 199.596 70.8628 199.516 71.1647C199.512 71.1814 199.49 71.1863 199.477 71.175L198.519 70.3431C198.387 70.2282 198.168 70.2638 198.03 70.4226C197.892 70.5814 197.887 70.8032 198.02 70.918L198.978 71.7499C199.007 71.7748 199.039 71.7926 199.074 71.8036C199.138 71.8237 199.193 71.9017 199.158 71.958C198.913 72.3422 198.583 72.7024 198.218 73.0336C198.167 73.0799 198.073 73.0355 198.04 72.975C198.025 72.9469 198.005 72.9215 197.98 72.8998L197.021 72.0679C196.889 71.9531 196.67 71.9887 196.532 72.1474C196.395 72.3062 196.39 72.528 196.522 72.6429L197.481 73.4748C197.523 73.5119 197.54 73.5921 197.495 73.626C197.247 73.8118 196.998 73.9845 196.76 74.1429C196.615 74.239 196.465 74.3332 196.311 74.4256C196.289 74.4385 196.262 74.4332 196.243 74.4167L195.285 73.5848C195.152 73.47 194.933 73.5056 194.795 73.6643C194.658 73.8231 194.653 74.0449 194.785 74.1598L195.484 74.7659C195.524 74.8011 195.516 74.8661 195.469 74.8906C195.027 75.1171 194.566 75.3302 194.106 75.5294C194.079 75.541 194.048 75.5362 194.026 75.517L193.548 75.1017C193.415 74.9869 193.196 75.0225 193.058 75.1812C192.921 75.34 192.916 75.5618 193.048 75.6767L193.183 75.7932C193.226 75.8305 193.214 75.9001 193.161 75.9212C192.543 76.1678 191.949 76.388 191.43 76.5806C191.164 76.6792 190.918 76.7706 190.697 76.8547C190.533 76.9174 190.356 76.9724 190.186 76.9277C190.063 76.8953 189.984 76.827 189.935 76.7095C189.867 76.5472 189.896 76.3649 189.935 76.1933C189.988 75.9632 190.043 75.7064 190.104 75.4293C190.221 74.888 190.356 74.2695 190.513 73.6226C190.527 73.5672 190.594 73.5459 190.637 73.5832L190.653 73.597C190.785 73.7118 191.004 73.6762 191.142 73.5175C191.28 73.3587 191.284 73.1369 191.152 73.022L190.792 72.7095C190.77 72.6903 190.761 72.6602 190.768 72.632C190.901 72.1481 191.047 71.6621 191.21 71.1931C191.227 71.1423 191.29 71.1256 191.331 71.1608L191.911 71.6641C192.043 71.779 192.262 71.7434 192.4 71.5846C192.538 71.4259 192.542 71.204 192.41 71.0892L191.578 70.3668C191.553 70.3453 191.545 70.3103 191.557 70.28C191.625 70.1189 191.696 69.9619 191.768 69.8097C191.894 69.548 192.032 69.2728 192.184 68.9974C192.207 68.9551 192.263 68.9453 192.3 68.977L193.168 69.7313C193.301 69.8462 193.52 69.8106 193.658 69.6518C193.795 69.493 193.8 69.2712 193.668 69.1563L192.709 68.3245C192.708 68.3233 192.707 68.3221 192.705 68.321C192.667 68.289 192.647 68.2324 192.675 68.1912C192.941 67.8006 193.238 67.4393 193.568 67.1515C193.606 67.1192 193.663 67.1326 193.699 67.1665C193.702 67.1692 193.705 67.1719 193.708 67.1746L194.666 68.0064C194.798 68.1213 195.017 68.0857 195.155 67.9269C195.293 67.7682 195.297 67.5463 195.165 67.4315L194.386 66.7556Z" fill="#9BAF7A"/>
<path d="M197.883 68.7814C198.172 68.4857 198.152 68.0082 197.84 67.7374C197.528 67.4665 197.053 67.5141 196.8 67.8413L191.818 74.3061C191.739 74.4077 191.754 74.5527 191.851 74.6368C191.947 74.7209 192.093 74.7148 192.183 74.6231L197.883 68.7814Z" fill="#889A6B"/>
<path d="M215.328 76.6489C215.303 76.6268 215.301 76.5943 215.327 76.5896C215.455 76.5654 215.597 76.5686 215.754 76.6063C216.226 76.7196 216.796 77.0967 217.255 77.4953C217.714 77.8939 218.167 78.4044 218.346 78.8559C218.411 79.0209 218.432 79.1736 218.42 79.3147C218.419 79.3225 218.408 79.3229 218.4 79.3161L217.822 78.814C217.742 78.7447 217.632 78.7412 217.575 78.8063C217.519 78.8713 217.538 78.9802 217.618 79.0495L218.196 79.5516C218.213 79.5666 218.232 79.5785 218.251 79.5873C218.286 79.6033 218.323 79.6471 218.309 79.6714C218.219 79.8374 218.082 79.9833 217.924 80.1115C217.902 80.1295 217.848 80.0986 217.825 80.0655C217.815 80.0502 217.802 80.0358 217.787 80.0227L217.209 79.5207C217.129 79.4513 217.018 79.4479 216.962 79.5129C216.905 79.578 216.924 79.6869 217.004 79.7562L217.582 80.2583C217.608 80.2807 217.625 80.3218 217.604 80.3342C217.493 80.402 217.38 80.4632 217.272 80.5185C217.206 80.552 217.137 80.5841 217.065 80.6148C217.055 80.6191 217.04 80.6139 217.029 80.6039L216.451 80.1018C216.371 80.0325 216.26 80.029 216.204 80.0941C216.147 80.1591 216.166 80.2681 216.246 80.3374L216.667 80.7032C216.692 80.7244 216.694 80.7557 216.672 80.7632C216.464 80.8325 216.244 80.8934 216.024 80.9474C216.011 80.9506 215.995 80.9452 215.981 80.9336L215.692 80.683C215.613 80.6137 215.502 80.6102 215.446 80.6752C215.389 80.7403 215.408 80.8492 215.488 80.9185L215.569 80.9889C215.595 81.0114 215.596 81.0446 215.57 81.0499C215.272 81.1121 214.984 81.1637 214.733 81.2088C214.604 81.2319 214.484 81.2534 214.378 81.2737C214.298 81.2888 214.212 81.299 214.119 81.2606C214.052 81.2328 214.004 81.1916 213.967 81.1289C213.916 81.0424 213.914 80.9553 213.918 80.8745C213.923 80.7661 213.928 80.6448 213.932 80.514C213.942 80.2585 213.952 79.9664 213.972 79.6626C213.974 79.6366 214.007 79.6325 214.033 79.6551L214.042 79.6634C214.122 79.7327 214.233 79.7361 214.289 79.6711C214.345 79.6061 214.326 79.4971 214.247 79.4278L214.029 79.2392C214.016 79.2276 214.008 79.2119 214.01 79.1987C214.032 78.9729 214.062 78.7473 214.101 78.5317C214.105 78.5083 214.137 78.5062 214.161 78.5274L214.511 78.8312C214.591 78.9005 214.701 78.904 214.758 78.8389C214.814 78.7739 214.795 78.6649 214.716 78.5956L214.213 78.1596C214.198 78.1466 214.191 78.1286 214.194 78.1149C214.214 78.042 214.236 77.9713 214.259 77.9033C214.299 77.7863 214.345 77.6639 214.397 77.5427C214.405 77.5241 214.434 77.5246 214.456 77.5437L214.98 77.999C215.06 78.0683 215.17 78.0718 215.227 78.0067C215.283 77.9417 215.264 77.8328 215.184 77.7634L214.606 77.2614C214.605 77.2607 214.604 77.26 214.604 77.2593C214.581 77.2398 214.565 77.21 214.575 77.1923C214.676 77.0253 214.796 76.8757 214.94 76.7655C214.957 76.7531 214.988 76.7653 215.01 76.7854C215.011 76.7871 215.013 76.7887 215.015 76.7903L215.593 77.2923C215.673 77.3616 215.784 77.3651 215.84 77.3001C215.897 77.235 215.878 77.1261 215.798 77.0568L215.328 76.6489Z" fill="#9BAF7A"/>
<path d="M217.342 77.9831C217.463 77.865 217.407 77.6277 217.219 77.4642C217.031 77.3008 216.788 77.2786 216.688 77.4157L214.716 80.1247C214.685 80.1673 214.707 80.2402 214.765 80.2909C214.823 80.3417 214.899 80.3527 214.936 80.316L217.342 77.9831Z" fill="#889A6B"/>
<path d="M214.363 74.5078C214.333 74.4924 214.303 74.5034 214.307 74.5286C214.333 74.6568 214.388 74.7874 214.481 74.9195C214.762 75.316 215.323 75.705 215.863 75.9838C216.403 76.2626 217.045 76.4944 217.531 76.493C217.708 76.4925 217.858 76.4558 217.985 76.3919C217.992 76.3883 217.988 76.3782 217.979 76.3734L217.298 76.0222C217.204 75.9738 217.16 75.8724 217.199 75.7958C217.239 75.7193 217.347 75.6965 217.441 75.745L218.122 76.0962C218.142 76.1067 218.16 76.1197 218.175 76.1343C218.203 76.1609 218.257 76.1784 218.275 76.1571C218.396 76.0118 218.48 75.8304 218.541 75.6359C218.549 75.6087 218.501 75.5708 218.462 75.5617C218.444 75.5575 218.426 75.5509 218.408 75.5418L217.727 75.1906C217.633 75.1421 217.589 75.0408 217.629 74.9642C217.668 74.8877 217.776 74.8649 217.87 74.9134L218.551 75.2646C218.581 75.2802 218.625 75.2802 218.629 75.2567C218.651 75.1285 218.666 75.0007 218.677 74.8794C218.684 74.8057 218.688 74.7298 218.69 74.652C218.691 74.6411 218.68 74.6293 218.667 74.6224L217.986 74.2712C217.892 74.2227 217.848 74.1213 217.888 74.0448C217.927 73.9682 218.035 73.9455 218.129 73.994L218.625 74.2498C218.654 74.2647 218.684 74.2552 218.682 74.2315C218.67 74.0126 218.645 73.7865 218.614 73.5617C218.612 73.5486 218.601 73.5352 218.585 73.5271L218.245 73.3518C218.151 73.3033 218.107 73.2019 218.146 73.1254C218.186 73.0488 218.294 73.0261 218.388 73.0745L218.483 73.1237C218.514 73.1395 218.545 73.1278 218.541 73.1021C218.488 72.8022 218.429 72.5159 218.378 72.2654C218.352 72.1372 218.327 72.0183 218.307 71.9118C218.291 71.8323 218.269 71.7482 218.199 71.6762C218.148 71.624 218.092 71.5952 218.02 71.5841C217.921 71.5687 217.839 71.5991 217.766 71.6326C217.667 71.6775 217.556 71.7265 217.436 71.7794C217.202 71.8828 216.935 72.0009 216.66 72.1318C216.636 72.143 216.645 72.1751 216.675 72.1908L216.687 72.1966C216.781 72.2451 216.825 72.3465 216.785 72.423C216.746 72.4996 216.638 72.5223 216.544 72.4738L216.288 72.3419C216.272 72.3338 216.255 72.3325 216.243 72.3386C216.042 72.4432 215.843 72.5541 215.657 72.6706C215.637 72.6832 215.647 72.7131 215.676 72.728L216.087 72.9405C216.181 72.9889 216.226 73.0903 216.186 73.1669C216.147 73.2434 216.038 73.2662 215.944 73.2177L215.353 72.9127C215.336 72.9036 215.316 72.9032 215.305 72.9118C215.244 72.9572 215.187 73.0034 215.132 73.0502C215.038 73.1308 214.942 73.2184 214.848 73.312C214.834 73.3264 214.845 73.3525 214.871 73.3659L215.488 73.6843C215.582 73.7328 215.626 73.8341 215.587 73.9107C215.547 73.9872 215.439 74.01 215.345 73.9615L214.664 73.6103C214.664 73.6098 214.663 73.6093 214.662 73.6088C214.635 73.5947 214.601 73.5909 214.589 73.6073C214.471 73.7631 214.377 73.9299 214.328 74.1046C214.322 74.1243 214.345 74.1487 214.372 74.1615C214.374 74.1626 214.376 74.1636 214.378 74.1648L215.059 74.5159C215.153 74.5644 215.197 74.6658 215.158 74.7423C215.118 74.8189 215.01 74.8416 214.916 74.7931L214.363 74.5078Z" fill="#9BAF7A"/>
<path d="M216.348 75.8838C216.284 76.0406 216.043 76.0764 215.821 75.9621C215.599 75.8478 215.489 75.6304 215.579 75.4869L217.365 72.6517C217.393 72.6072 217.469 72.6001 217.537 72.6356C217.606 72.6711 217.644 72.7368 217.624 72.7855L216.348 75.8838Z" fill="#889A6B"/>
<path d="M239.982 92.0711C239.961 92.0337 239.977 91.9925 240.012 91.9962C240.19 92.0148 240.371 92.0727 240.553 92.1799C241.1 92.5018 241.631 93.1916 242.009 93.8666C242.386 94.5416 242.696 95.3549 242.684 95.9895C242.68 96.2214 242.626 96.4211 242.534 96.5935C242.529 96.603 242.515 96.5993 242.508 96.5878L242.033 95.7376C241.967 95.6202 241.827 95.5738 241.719 95.6339C241.612 95.6941 241.578 95.838 241.643 95.9554L242.119 96.8056C242.133 96.831 242.151 96.8531 242.171 96.8715C242.207 96.9049 242.231 96.9736 242.201 96.9991C241.995 97.173 241.741 97.304 241.468 97.4047C241.43 97.4187 241.378 97.3597 241.367 97.3096C241.361 97.2863 241.352 97.2633 241.34 97.2412L240.864 96.391C240.799 96.2736 240.658 96.2272 240.551 96.2873C240.443 96.3474 240.409 96.4914 240.475 96.6088L240.951 97.459C240.972 97.4969 240.971 97.5547 240.938 97.5626C240.759 97.6054 240.58 97.6392 240.411 97.6672C240.308 97.6842 240.202 97.6982 240.094 97.7095C240.079 97.7111 240.062 97.6989 240.053 97.682L239.577 96.8318C239.512 96.7144 239.371 96.668 239.264 96.7281C239.156 96.7883 239.122 96.9322 239.188 97.0496L239.534 97.669C239.554 97.705 239.541 97.7452 239.508 97.746C239.203 97.7538 238.888 97.7468 238.575 97.7307C238.557 97.7298 238.539 97.7167 238.528 97.6971L238.29 97.2726C238.225 97.1552 238.084 97.1088 237.977 97.169C237.869 97.2291 237.835 97.373 237.901 97.4904L237.967 97.6095C237.989 97.6477 237.972 97.6895 237.936 97.6865C237.519 97.6512 237.121 97.6064 236.773 97.5673C236.595 97.5472 236.43 97.5287 236.281 97.5136C236.171 97.5023 236.054 97.4822 235.955 97.3987C235.884 97.3382 235.844 97.2684 235.831 97.1757C235.811 97.0477 235.855 96.9376 235.903 96.8376C235.968 96.7035 236.039 96.553 236.115 96.3907C236.264 96.0735 236.434 95.711 236.622 95.3372C236.638 95.3053 236.683 95.3127 236.704 95.3508L236.712 95.3649C236.778 95.4823 236.918 95.5287 237.026 95.4686C237.133 95.4084 237.167 95.2645 237.101 95.1471L236.923 94.8277C236.912 94.8081 236.91 94.7855 236.919 94.7694C237.069 94.4946 237.228 94.2227 237.394 93.9671C237.412 93.9394 237.454 93.9486 237.474 93.9846L237.761 94.499C237.827 94.6164 237.967 94.6628 238.075 94.6026C238.182 94.5425 238.216 94.3986 238.151 94.2812L237.738 93.5428C237.726 93.5209 237.725 93.4953 237.738 93.4796C237.802 93.3956 237.868 93.3151 237.934 93.2386C238.048 93.107 238.172 92.9707 238.305 92.8385C238.325 92.8182 238.361 92.8297 238.38 92.8621L238.811 93.633C238.876 93.7504 239.017 93.7968 239.124 93.7367C239.232 93.6765 239.266 93.5326 239.2 93.4152L238.725 92.565C238.724 92.5638 238.723 92.5626 238.723 92.5614C238.703 92.5283 238.699 92.4847 238.722 92.4667C238.942 92.2956 239.176 92.1535 239.421 92.07C239.448 92.0606 239.482 92.0878 239.499 92.1213C239.501 92.1241 239.502 92.1268 239.503 92.1294L239.979 92.9796C240.045 93.097 240.185 93.1434 240.293 93.0833C240.4 93.0232 240.434 92.8792 240.368 92.7619L239.982 92.0711Z" fill="#9BAF7A"/>
<path d="M241.859 94.5119C242.079 94.4101 242.134 94.0909 241.979 93.8141C241.825 93.5373 241.524 93.417 241.322 93.5511L237.332 96.2005C237.27 96.2421 237.258 96.3417 237.306 96.4276C237.354 96.5136 237.445 96.556 237.514 96.5244L241.859 94.5119Z" fill="#889A6B"/>
<path d="M261.111 93.5432C261.149 93.5242 261.19 93.5422 261.184 93.5771C261.157 93.754 261.089 93.9318 260.973 94.1082C260.623 94.6379 259.907 95.1324 259.213 95.4747C258.52 95.8169 257.692 96.0846 257.059 96.0399C256.827 96.0235 256.631 95.9591 256.463 95.8586C256.454 95.8531 256.458 95.8392 256.47 95.8333L257.344 95.4022C257.464 95.3427 257.518 95.2049 257.463 95.0944C257.409 94.9839 257.267 94.9426 257.146 95.0021L256.273 95.4332C256.247 95.4461 256.224 95.4627 256.204 95.4818C256.169 95.5166 256.099 95.5362 256.075 95.5049C255.912 95.2911 255.794 95.0301 255.708 94.7528C255.696 94.7141 255.757 94.6653 255.808 94.6561C255.832 94.6518 255.855 94.6442 255.878 94.633L256.751 94.2019C256.872 94.1424 256.926 94.0046 256.871 93.8941C256.817 93.7836 256.675 93.7423 256.554 93.8018L255.68 94.2329C255.641 94.2521 255.584 94.2482 255.578 94.215C255.544 94.0338 255.52 93.8539 255.5 93.6832C255.489 93.5797 255.48 93.4732 255.474 93.3643C255.474 93.3491 255.487 93.3334 255.504 93.3249L256.377 92.8938C256.498 92.8343 256.552 92.6964 256.497 92.5859C256.443 92.4755 256.301 92.4341 256.18 92.4937L255.544 92.8078C255.507 92.826 255.467 92.8101 255.468 92.7771C255.476 92.4722 255.499 92.1583 255.531 91.8468C255.533 91.8287 255.547 91.8108 255.567 91.8009L256.003 91.5857C256.124 91.5261 256.178 91.3883 256.123 91.2778C256.069 91.1673 255.927 91.126 255.806 91.1856L255.684 91.2459C255.644 91.2653 255.604 91.2461 255.608 91.2107C255.665 90.796 255.73 90.401 255.787 90.0552C255.817 89.8783 255.844 89.7143 255.866 89.5672C255.883 89.4574 255.909 89.3418 255.998 89.2473C256.062 89.1789 256.134 89.1434 256.227 89.1342C256.356 89.1215 256.463 89.1711 256.561 89.2244C256.691 89.2959 256.838 89.3742 256.996 89.4587C257.305 89.6237 257.659 89.8123 258.022 90.0195C258.053 90.0372 258.044 90.0813 258.004 90.1007L257.99 90.1078C257.869 90.1673 257.816 90.3052 257.87 90.4156C257.925 90.5261 258.067 90.5674 258.187 90.5079L258.516 90.346C258.536 90.336 258.558 90.3358 258.574 90.3453C258.841 90.5093 259.104 90.6818 259.351 90.861C259.378 90.8804 259.366 90.9213 259.329 90.9395L258.801 91.2004C258.68 91.2599 258.627 91.3977 258.681 91.5082C258.736 91.6187 258.878 91.66 258.998 91.6005L259.757 91.2261C259.779 91.215 259.805 91.2161 259.82 91.229C259.9 91.2979 259.978 91.3676 260.05 91.4378C260.176 91.5586 260.306 91.6896 260.431 91.8287C260.45 91.8501 260.437 91.8856 260.404 91.902L259.611 92.2929C259.491 92.3525 259.437 92.4903 259.492 92.6008C259.546 92.7113 259.688 92.7526 259.809 92.6931L260.682 92.262C260.684 92.2613 260.685 92.2607 260.686 92.2601C260.72 92.2426 260.764 92.2403 260.781 92.2644C260.94 92.4924 261.07 92.7341 261.141 92.9826C261.149 93.0105 261.12 93.0427 261.086 93.0583C261.083 93.0595 261.08 93.0608 261.077 93.0622L260.204 93.4933C260.083 93.5528 260.03 93.6906 260.084 93.8011C260.139 93.9116 260.281 93.9529 260.401 93.8934L261.111 93.5432Z" fill="#9BAF7A"/>
<path d="M258.577 95.2922C258.667 95.5171 258.983 95.5884 259.267 95.448C259.552 95.3077 259.687 95.0136 259.564 94.805L257.124 90.6844C257.085 90.6196 256.986 90.6031 256.898 90.6467C256.81 90.6902 256.763 90.7788 256.791 90.8486L258.577 95.2922Z" fill="#889A6B"/>
</g>
</svg>
