<svg width="356" height="250" viewBox="0 0 356 250" fill="none" xmlns="http://www.w3.org/2000/svg">
<rect x="88" y="60" width="180" height="160" fill="#808080"/>
<path fill-rule="evenodd" clip-rule="evenodd" d="M88 70V72.7639C88.6137 73.3132 89 74.1115 89 75V79C89 79.8885 88.6137 80.6868 88 81.2361V84H101C102.657 84 104 85.3431 104 87V91C104 92.6569 102.657 94 101 94H88V96.7639C88.6137 97.3132 89 98.1115 89 99V103C89 103.889 88.6137 104.687 88 105.236V108H101C102.657 108 104 109.343 104 111V115C104 116.657 102.657 118 101 118H88V120.764C88.6137 121.313 89 122.111 89 123V127C89 127.888 88.6137 128.687 88 129.236V132H101C102.657 132 104 133.343 104 135V139C104 140.657 102.657 142 101 142H88V144.764C88.6137 145.313 89 146.112 89 147V151C89 151.888 88.6137 152.687 88 153.236V156H101C102.657 156 104 157.343 104 159V163C104 164.657 102.657 166 101 166H88V168.764C88.6137 169.313 89 170.112 89 171V175C89 175.888 88.6137 176.687 88 177.236V180H101C102.657 180 104 181.343 104 183V187C104 188.657 102.657 190 101 190H88V192.764C88.6137 193.313 89 194.111 89 195V199C89 199.889 88.6137 200.687 88 201.236V204H101C102.657 204 104 205.343 104 207V211C104 212.657 102.657 214 101 214H88V216.764C88.6137 217.313 89 218.111 89 219V220H91V219C91 217.343 92.3431 216 94 216H118C119.657 216 121 217.343 121 219V220H123V219C123 217.343 124.343 216 126 216H150C151.657 216 153 217.343 153 219V220H155V219C155 217.343 156.343 216 158 216H182C183.657 216 185 217.343 185 219V220H187V219C187 217.343 188.343 216 190 216H214C215.657 216 217 217.343 217 219V220H219V219C219 217.343 220.343 216 222 216H246C247.657 216 249 217.343 249 219V220H251V219C251 217.343 252.343 216 254 216H268V213.829C266.835 213.417 266 212.306 266 211V207C266 205.694 266.835 204.583 268 204.171V202H254C252.343 202 251 200.657 251 199V195C251 193.343 252.343 192 254 192H268V189.829C266.835 189.417 266 188.306 266 187V183C266 181.694 266.835 180.583 268 180.171V178H254C252.343 178 251 176.657 251 175V171C251 169.343 252.343 168 254 168H268V165.829C266.835 165.417 266 164.306 266 163V159C266 157.694 266.835 156.583 268 156.171V154H254C252.343 154 251 152.657 251 151V147C251 145.343 252.343 144 254 144H268V141.829C266.835 141.417 266 140.306 266 139V135C266 133.694 266.835 132.583 268 132.171V130H254C252.343 130 251 128.657 251 127V123C251 121.343 252.343 120 254 120H268V117.829C266.835 117.417 266 116.306 266 115V111C266 109.694 266.835 108.583 268 108.171V106H254C252.343 106 251 104.657 251 103V99C251 97.3431 252.343 96 254 96H268V93.8293C266.835 93.4175 266 92.3062 266 91V87C266 85.6938 266.835 84.5825 268 84.1707V82H254C252.343 82 251 80.6569 251 79V75C251 73.3431 252.343 72 254 72H268V69.8293C266.835 69.4175 266 68.3062 266 67V63C266 61.6938 266.835 60.5825 268 60.1707V60H261C262.657 60 264 61.3431 264 63V67C264 68.6569 262.657 70 261 70H237C235.343 70 234 68.6569 234 67V63C234 61.3431 235.343 60 237 60H229C230.657 60 232 61.3431 232 63V67C232 68.6569 230.657 70 229 70H205C203.343 70 202 68.6569 202 67V63C202 61.3431 203.343 60 205 60H197C198.657 60 200 61.3431 200 63V67C200 68.6569 198.657 70 197 70H173C171.343 70 170 68.6569 170 67V63C170 61.3431 171.343 60 173 60H165C166.657 60 168 61.3431 168 63V67C168 68.6569 166.657 70 165 70H141C139.343 70 138 68.6569 138 67V63C138 61.3431 139.343 60 141 60H133C134.657 60 136 61.3431 136 63V67C136 68.6569 134.657 70 133 70H109C107.343 70 106 68.6569 106 67V63C106 61.3431 107.343 60 109 60H101C102.657 60 104 61.3431 104 63V67C104 68.6569 102.657 70 101 70H88ZM91 195C91 193.343 92.3431 192 94 192H118C119.657 192 121 193.343 121 195V199C121 200.657 119.657 202 118 202H94C92.3431 202 91 200.657 91 199V195ZM126 192C124.343 192 123 193.343 123 195V199C123 200.657 124.343 202 126 202H150C151.657 202 153 200.657 153 199V195C153 193.343 151.657 192 150 192H126ZM155 195C155 193.343 156.343 192 158 192H182C183.657 192 185 193.343 185 195V199C185 200.657 183.657 202 182 202H158C156.343 202 155 200.657 155 199V195ZM190 192C188.343 192 187 193.343 187 195V199C187 200.657 188.343 202 190 202H214C215.657 202 217 200.657 217 199V195C217 193.343 215.657 192 214 192H190ZM219 195C219 193.343 220.343 192 222 192H246C247.657 192 249 193.343 249 195V199C249 200.657 247.657 202 246 202H222C220.343 202 219 200.657 219 199V195ZM109 204C107.343 204 106 205.343 106 207V211C106 212.657 107.343 214 109 214H133C134.657 214 136 212.657 136 211V207C136 205.343 134.657 204 133 204H109ZM138 207C138 205.343 139.343 204 141 204H165C166.657 204 168 205.343 168 207V211C168 212.657 166.657 214 165 214H141C139.343 214 138 212.657 138 211V207ZM173 204C171.343 204 170 205.343 170 207V211C170 212.657 171.343 214 173 214H197C198.657 214 200 212.657 200 211V207C200 205.343 198.657 204 197 204H173ZM202 207C202 205.343 203.343 204 205 204H229C230.657 204 232 205.343 232 207V211C232 212.657 230.657 214 229 214H205C203.343 214 202 212.657 202 211V207ZM237 204C235.343 204 234 205.343 234 207V211C234 212.657 235.343 214 237 214H261C262.657 214 264 212.657 264 211V207C264 205.343 262.657 204 261 204H237ZM106 183C106 181.343 107.343 180 109 180H133C134.657 180 136 181.343 136 183V187C136 188.657 134.657 190 133 190H109C107.343 190 106 188.657 106 187V183ZM141 180C139.343 180 138 181.343 138 183V187C138 188.657 139.343 190 141 190H165C166.657 190 168 188.657 168 187V183C168 181.343 166.657 180 165 180H141ZM170 183C170 181.343 171.343 180 173 180H197C198.657 180 200 181.343 200 183V187C200 188.657 198.657 190 197 190H173C171.343 190 170 188.657 170 187V183ZM205 180C203.343 180 202 181.343 202 183V187C202 188.657 203.343 190 205 190H229C230.657 190 232 188.657 232 187V183C232 181.343 230.657 180 229 180H205ZM234 183C234 181.343 235.343 180 237 180H261C262.657 180 264 181.343 264 183V187C264 188.657 262.657 190 261 190H237C235.343 190 234 188.657 234 187V183ZM94 168C92.3431 168 91 169.343 91 171V175C91 176.657 92.3431 178 94 178H118C119.657 178 121 176.657 121 175V171C121 169.343 119.657 168 118 168H94ZM123 171C123 169.343 124.343 168 126 168H150C151.657 168 153 169.343 153 171V175C153 176.657 151.657 178 150 178H126C124.343 178 123 176.657 123 175V171ZM158 168C156.343 168 155 169.343 155 171V175C155 176.657 156.343 178 158 178H182C183.657 178 185 176.657 185 175V171C185 169.343 183.657 168 182 168H158ZM187 171C187 169.343 188.343 168 190 168H214C215.657 168 217 169.343 217 171V175C217 176.657 215.657 178 214 178H190C188.343 178 187 176.657 187 175V171ZM222 168C220.343 168 219 169.343 219 171V175C219 176.657 220.343 178 222 178H246C247.657 178 249 176.657 249 175V171C249 169.343 247.657 168 246 168H222ZM91 123C91 121.343 92.3431 120 94 120H118C119.657 120 121 121.343 121 123V127C121 128.657 119.657 130 118 130H94C92.3431 130 91 128.657 91 127V123ZM126 120C124.343 120 123 121.343 123 123V127C123 128.657 124.343 130 126 130H150C151.657 130 153 128.657 153 127V123C153 121.343 151.657 120 150 120H126ZM155 123C155 121.343 156.343 120 158 120H182C183.657 120 185 121.343 185 123V127C185 128.657 183.657 130 182 130H158C156.343 130 155 128.657 155 127V123ZM190 120C188.343 120 187 121.343 187 123V127C187 128.657 188.343 130 190 130H214C215.657 130 217 128.657 217 127V123C217 121.343 215.657 120 214 120H190ZM219 123C219 121.343 220.343 120 222 120H246C247.657 120 249 121.343 249 123V127C249 128.657 247.657 130 246 130H222C220.343 130 219 128.657 219 127V123ZM94 72C92.3431 72 91 73.3431 91 75V79C91 80.6569 92.3431 82 94 82H118C119.657 82 121 80.6569 121 79V75C121 73.3431 119.657 72 118 72H94ZM123 75C123 73.3431 124.343 72 126 72H150C151.657 72 153 73.3431 153 75V79C153 80.6569 151.657 82 150 82H126C124.343 82 123 80.6569 123 79V75ZM158 72C156.343 72 155 73.3431 155 75V79C155 80.6569 156.343 82 158 82H182C183.657 82 185 80.6569 185 79V75C185 73.3431 183.657 72 182 72H158ZM187 75C187 73.3431 188.343 72 190 72H214C215.657 72 217 73.3431 217 75V79C217 80.6569 215.657 82 214 82H190C188.343 82 187 80.6569 187 79V75ZM222 72C220.343 72 219 73.3431 219 75V79C219 80.6569 220.343 82 222 82H246C247.657 82 249 80.6569 249 79V75C249 73.3431 247.657 72 246 72H222ZM91 147C91 145.343 92.3431 144 94 144H118C119.657 144 121 145.343 121 147V151C121 152.657 119.657 154 118 154H94C92.3431 154 91 152.657 91 151V147ZM126 144C124.343 144 123 145.343 123 147V151C123 152.657 124.343 154 126 154H150C151.657 154 153 152.657 153 151V147C153 145.343 151.657 144 150 144H126ZM155 147C155 145.343 156.343 144 158 144H182C183.657 144 185 145.343 185 147V151C185 152.657 183.657 154 182 154H158C156.343 154 155 152.657 155 151V147ZM190 144C188.343 144 187 145.343 187 147V151C187 152.657 188.343 154 190 154H214C215.657 154 217 152.657 217 151V147C217 145.343 215.657 144 214 144H190ZM219 147C219 145.343 220.343 144 222 144H246C247.657 144 249 145.343 249 147V151C249 152.657 247.657 154 246 154H222C220.343 154 219 152.657 219 151V147ZM94 96C92.3431 96 91 97.3431 91 99V103C91 104.657 92.3431 106 94 106H118C119.657 106 121 104.657 121 103V99C121 97.3431 119.657 96 118 96H94ZM123 99C123 97.3431 124.343 96 126 96H150C151.657 96 153 97.3431 153 99V103C153 104.657 151.657 106 150 106H126C124.343 106 123 104.657 123 103V99ZM158 96C156.343 96 155 97.3431 155 99V103C155 104.657 156.343 106 158 106H182C183.657 106 185 104.657 185 103V99C185 97.3431 183.657 96 182 96H158ZM187 99C187 97.3431 188.343 96 190 96H214C215.657 96 217 97.3431 217 99V103C217 104.657 215.657 106 214 106H190C188.343 106 187 104.657 187 103V99ZM222 96C220.343 96 219 97.3431 219 99V103C219 104.657 220.343 106 222 106H246C247.657 106 249 104.657 249 103V99C249 97.3431 247.657 96 246 96H222ZM106 159C106 157.343 107.343 156 109 156H133C134.657 156 136 157.343 136 159V163C136 164.657 134.657 166 133 166H109C107.343 166 106 164.657 106 163V159ZM141 156C139.343 156 138 157.343 138 159V163C138 164.657 139.343 166 141 166H165C166.657 166 168 164.657 168 163V159C168 157.343 166.657 156 165 156H141ZM170 159C170 157.343 171.343 156 173 156H197C198.657 156 200 157.343 200 159V163C200 164.657 198.657 166 197 166H173C171.343 166 170 164.657 170 163V159ZM205 156C203.343 156 202 157.343 202 159V163C202 164.657 203.343 166 205 166H229C230.657 166 232 164.657 232 163V159C232 157.343 230.657 156 229 156H205ZM234 159C234 157.343 235.343 156 237 156H261C262.657 156 264 157.343 264 159V163C264 164.657 262.657 166 261 166H237C235.343 166 234 164.657 234 163V159ZM109 108C107.343 108 106 109.343 106 111V115C106 116.657 107.343 118 109 118H133C134.657 118 136 116.657 136 115V111C136 109.343 134.657 108 133 108H109ZM138 111C138 109.343 139.343 108 141 108H165C166.657 108 168 109.343 168 111V115C168 116.657 166.657 118 165 118H141C139.343 118 138 116.657 138 115V111ZM173 108C171.343 108 170 109.343 170 111V115C170 116.657 171.343 118 173 118H197C198.657 118 200 116.657 200 115V111C200 109.343 198.657 108 197 108H173ZM202 111C202 109.343 203.343 108 205 108H229C230.657 108 232 109.343 232 111V115C232 116.657 230.657 118 229 118H205C203.343 118 202 116.657 202 115V111ZM237 108C235.343 108 234 109.343 234 111V115C234 116.657 235.343 118 237 118H261C262.657 118 264 116.657 264 115V111C264 109.343 262.657 108 261 108H237ZM109 132C107.343 132 106 133.343 106 135V139C106 140.657 107.343 142 109 142H133C134.657 142 136 140.657 136 139V135C136 133.343 134.657 132 133 132H109ZM138 135C138 133.343 139.343 132 141 132H165C166.657 132 168 133.343 168 135V139C168 140.657 166.657 142 165 142H141C139.343 142 138 140.657 138 139V135ZM173 132C171.343 132 170 133.343 170 135V139C170 140.657 171.343 142 173 142H197C198.657 142 200 140.657 200 139V135C200 133.343 198.657 132 197 132H173ZM202 135C202 133.343 203.343 132 205 132H229C230.657 132 232 133.343 232 135V139C232 140.657 230.657 142 229 142H205C203.343 142 202 140.657 202 139V135ZM237 132C235.343 132 234 133.343 234 135V139C234 140.657 235.343 142 237 142H261C262.657 142 264 140.657 264 139V135C264 133.343 262.657 132 261 132H237ZM106 87C106 85.3431 107.343 84 109 84H133C134.657 84 136 85.3431 136 87V91C136 92.6569 134.657 94 133 94H109C107.343 94 106 92.6569 106 91V87ZM141 84C139.343 84 138 85.3431 138 87V91C138 92.6569 139.343 94 141 94H165C166.657 94 168 92.6569 168 91V87C168 85.3431 166.657 84 165 84H141ZM170 87C170 85.3431 171.343 84 173 84H197C198.657 84 200 85.3431 200 87V91C200 92.6569 198.657 94 197 94H173C171.343 94 170 92.6569 170 91V87ZM205 84C203.343 84 202 85.3431 202 87V91C202 92.6569 203.343 94 205 94H229C230.657 94 232 92.6569 232 91V87C232 85.3431 230.657 84 229 84H205ZM234 87C234 85.3431 235.343 84 237 84H261C262.657 84 264 85.3431 264 87V91C264 92.6569 262.657 94 261 94H237C235.343 94 234 92.6569 234 91V87Z" fill="#AAAAAA"/>
</svg>
