<svg width="356" height="250" viewBox="0 0 356 250" fill="none" xmlns="http://www.w3.org/2000/svg">
<rect x="90" y="60" width="180" height="160" fill="#808080"/>
<mask id="mask0_215_6520" style="mask-type:alpha" maskUnits="userSpaceOnUse" x="90" y="60" width="180" height="160">
<rect x="90" y="60" width="180" height="160" fill="#E4E0D5"/>
</mask>
<g mask="url(#mask0_215_6520)">
<path d="M130.576 77.4941C128.202 77.8593 125.905 78.0136 123.69 77.9897C121.937 79.7162 119.518 82.6469 117.99 86.2044C116.429 89.8397 115.807 94.1036 117.744 98.4339C120.247 104.029 121.643 107.309 122.126 109.416C122.37 110.477 122.401 111.314 122.175 112.033C121.944 112.766 121.473 113.292 120.892 113.772C120.678 113.948 120.404 114.083 120.11 114.193C119.811 114.305 119.461 114.402 119.074 114.489C118.299 114.661 117.338 114.799 116.265 114.919C114.916 115.07 113.36 115.196 111.746 115.326C110.802 115.403 109.836 115.481 108.882 115.567C106.279 115.8 103.739 116.09 101.774 116.556C100.79 116.789 99.9783 117.06 99.384 117.375C98.7767 117.696 98.4862 118.014 98.3895 118.295C97.8885 119.753 97.9671 120.662 98.188 121.199C98.4103 121.74 98.7996 121.966 99.0448 122.021L98.7762 123.017C98.2534 122.9 97.623 122.481 97.2821 121.652C96.9397 120.819 96.9116 119.631 97.4685 118.011C97.7024 117.33 98.2942 116.839 98.9873 116.473C99.6933 116.099 100.6 115.805 101.618 115.563C103.658 115.08 106.26 114.785 108.863 114.551C109.838 114.464 110.812 114.385 111.76 114.308C113.361 114.179 114.889 114.055 116.226 113.905C117.287 113.787 118.208 113.654 118.931 113.493C119.292 113.412 119.594 113.327 119.834 113.237C120.08 113.145 120.232 113.059 120.314 112.99C120.82 112.573 121.107 112.215 121.245 111.776C121.387 111.324 121.398 110.702 121.172 109.715C120.715 107.725 119.371 104.548 116.85 98.9136C114.768 94.2603 115.452 89.6779 117.099 85.8426C118.512 82.551 120.642 79.7905 122.375 77.9544C106.153 77.2578 94.5542 67.073 90 60.8619V59.9999L90.6107 59.9999C95.5796 66.9728 110.158 79.6236 130.424 76.5057C143.407 74.5083 150.879 73.4692 155.389 73.4536C157.647 73.4458 159.226 73.6926 160.402 74.2453C161.603 74.8094 162.332 75.6673 162.937 76.7571C163.142 77.1267 163.244 77.5881 163.283 78.0909C163.323 78.5992 163.301 79.1863 163.235 79.8325C163.101 81.1244 162.78 82.7052 162.353 84.4619C161.815 86.6724 161.098 89.2024 160.353 91.8296L160.352 91.8316C159.916 93.3713 159.47 94.9444 159.045 96.5062C157.889 100.757 156.884 104.936 156.6 108.261C156.457 109.926 156.499 111.339 156.771 112.425C157.042 113.507 157.525 114.203 158.224 114.553C163.699 117.29 166.457 115.6 167.093 114.709L167.907 115.291C166.876 116.733 163.501 118.309 157.776 115.447C156.725 114.921 156.114 113.915 155.801 112.668C155.49 111.427 155.457 109.887 155.603 108.176C155.897 104.751 156.924 100.493 158.08 96.2437C158.512 94.6566 158.961 93.0724 159.399 91.5288L159.399 91.5278L159.399 91.5267C160.14 88.9155 160.847 86.4207 161.381 84.2255C161.805 82.4821 162.114 80.9535 162.24 79.7298C162.303 79.1182 162.319 78.5959 162.286 78.1687C162.252 77.736 162.17 77.4356 162.063 77.2427C161.523 76.2708 160.929 75.5979 159.977 75.1504C159.001 74.6916 157.598 74.446 155.393 74.4536C150.976 74.4689 143.593 75.4915 130.576 77.4941Z" fill="#889A6B"/>
<path d="M161.201 93.7978C161.232 93.8213 161.276 93.8057 161.282 93.7682C161.313 93.5774 161.307 93.3823 161.253 93.1844C161.093 92.5898 160.573 92.0004 160.025 91.5748C159.477 91.1493 158.778 90.7913 158.162 90.7828C157.937 90.7796 157.729 90.8308 157.538 90.9229C157.527 90.928 157.527 90.9431 157.536 90.9504L158.226 91.4864C158.321 91.5604 158.328 91.7118 158.24 91.8245C158.153 91.9372 158.004 91.9686 157.909 91.8946L157.219 91.3586C157.199 91.3426 157.182 91.3229 157.17 91.3009C157.148 91.2608 157.088 91.2337 157.055 91.2649C156.831 91.4779 156.634 91.7452 156.462 92.0325C156.438 92.0727 156.481 92.13 156.526 92.1443C156.547 92.1509 156.567 92.1611 156.585 92.175L157.275 92.711C157.37 92.785 157.376 92.9364 157.289 93.0491C157.201 93.1618 157.053 93.1932 156.958 93.1192L156.268 92.5832C156.237 92.5593 156.181 92.5584 156.164 92.5931C156.074 92.783 155.992 92.9722 155.919 93.152C155.874 93.2611 155.831 93.3737 155.791 93.4891C155.785 93.5052 155.792 93.523 155.806 93.5336L156.496 94.0696C156.591 94.1436 156.597 94.295 156.51 94.4077C156.422 94.5204 156.274 94.5518 156.179 94.4778L155.676 94.0873C155.647 94.0646 155.604 94.0781 155.595 94.1132C155.503 94.4383 155.424 94.7744 155.353 95.1086C155.349 95.128 155.357 95.1483 155.373 95.1606L155.717 95.4282C155.812 95.5022 155.819 95.6536 155.731 95.7663C155.643 95.879 155.495 95.9104 155.4 95.8364L155.303 95.7613C155.272 95.7373 155.227 95.754 155.22 95.7922C155.14 96.2383 155.074 96.6644 155.016 97.0373C154.987 97.2281 154.959 97.405 154.933 97.5635C154.914 97.6818 154.901 97.8071 154.954 97.9155C154.993 97.994 155.05 98.038 155.135 98.0561C155.253 98.081 155.372 98.0378 155.482 97.9897C155.629 97.9252 155.793 97.8549 155.971 97.779C156.318 97.6308 156.714 97.4614 157.127 97.2732C157.162 97.2571 157.167 97.2093 157.136 97.1852L157.125 97.1764C157.03 97.1024 157.023 96.951 157.111 96.8383C157.198 96.7255 157.347 96.6942 157.442 96.7682L157.701 96.9695C157.717 96.9819 157.738 96.9842 157.756 96.9754C158.063 96.8246 158.369 96.6643 158.661 96.4955C158.693 96.4773 158.695 96.4327 158.666 96.41L158.249 96.0857C158.153 96.0117 158.147 95.8604 158.235 95.7476C158.322 95.6349 158.471 95.6035 158.566 95.6775L159.165 96.143C159.183 96.1568 159.207 96.1579 159.226 96.1455C159.325 96.0793 159.42 96.0121 159.512 95.9438C159.671 95.8263 159.836 95.6985 160 95.5615C160.026 95.5405 160.024 95.5015 159.998 95.4811L159.372 94.9951C159.277 94.9211 159.271 94.7698 159.359 94.657C159.446 94.5443 159.594 94.5129 159.69 94.5869L160.38 95.1229C160.381 95.1237 160.381 95.1244 160.382 95.1252C160.409 95.1468 160.45 95.1531 160.474 95.129C160.699 94.9005 160.901 94.655 161.048 94.3968C161.065 94.3678 161.048 94.331 161.02 94.3114C161.018 94.3098 161.016 94.3082 161.014 94.3065L160.324 93.7705C160.229 93.6965 160.222 93.5451 160.31 93.4324C160.397 93.3197 160.546 93.2883 160.641 93.3623L161.201 93.7978Z" fill="#9BAF7A"/>
<path d="M159.361 91.7126C159.52 91.4813 159.843 91.4335 160.068 91.6079C160.292 91.7824 160.326 92.1074 160.141 92.3183L156.489 96.4862C156.431 96.5517 156.332 96.5606 156.262 96.5064C156.193 96.4522 156.177 96.3539 156.226 96.2821L159.361 91.7126Z" fill="#889A6B"/>
<path d="M158.299 104.879C158.322 104.867 158.322 104.83 158.299 104.809C158.179 104.705 158.048 104.626 157.903 104.579C157.468 104.436 156.951 104.55 156.536 104.754C156.121 104.957 155.714 105.297 155.561 105.728C155.505 105.885 155.489 106.054 155.504 106.228C155.505 106.238 155.515 106.245 155.522 106.241L156.045 105.985C156.117 105.949 156.22 106.01 156.274 106.12C156.328 106.23 156.313 106.348 156.241 106.384L155.718 106.64C155.703 106.648 155.686 106.651 155.668 106.65C155.636 106.649 155.603 106.679 155.616 106.716C155.704 106.966 155.835 107.219 155.986 107.464C156.006 107.498 156.055 107.492 156.075 107.467C156.085 107.455 156.096 107.445 156.11 107.438L156.633 107.182C156.705 107.147 156.807 107.207 156.861 107.317C156.915 107.428 156.901 107.546 156.828 107.581L156.306 107.838C156.282 107.849 156.268 107.888 156.287 107.915C156.392 108.06 156.499 108.199 156.601 108.328C156.663 108.406 156.728 108.485 156.795 108.563C156.804 108.574 156.818 108.577 156.828 108.572L157.351 108.315C157.423 108.28 157.525 108.34 157.579 108.45C157.633 108.561 157.619 108.679 157.547 108.714L157.166 108.901C157.144 108.912 157.142 108.948 157.163 108.97C157.358 109.174 157.563 109.374 157.769 109.567C157.781 109.579 157.796 109.582 157.808 109.576L158.069 109.448C158.141 109.413 158.243 109.473 158.297 109.583C158.352 109.694 158.337 109.812 158.265 109.847L158.192 109.883C158.168 109.895 158.168 109.934 158.192 109.955C158.47 110.203 158.738 110.433 158.973 110.634C159.093 110.737 159.204 110.832 159.303 110.918C159.377 110.983 159.458 111.046 159.543 111.055C159.604 111.061 159.647 111.04 159.68 110.987C159.725 110.915 159.725 110.813 159.719 110.714C159.711 110.583 159.704 110.437 159.696 110.279C159.681 109.97 159.663 109.618 159.636 109.246C159.634 109.214 159.604 109.19 159.58 109.202L159.571 109.206C159.499 109.241 159.397 109.181 159.343 109.07C159.289 108.96 159.303 108.842 159.376 108.807L159.572 108.71C159.584 108.704 159.591 108.69 159.589 108.674C159.562 108.393 159.529 108.108 159.487 107.83C159.482 107.799 159.453 107.778 159.431 107.789L159.115 107.945C159.042 107.98 158.94 107.919 158.886 107.809C158.832 107.699 158.847 107.581 158.919 107.545L159.373 107.323C159.386 107.316 159.393 107.299 159.389 107.281C159.369 107.183 159.347 107.086 159.323 106.992C159.283 106.83 159.238 106.658 159.186 106.484C159.178 106.457 159.152 106.441 159.132 106.451L158.658 106.683C158.586 106.719 158.483 106.658 158.429 106.548C158.375 106.438 158.39 106.32 158.462 106.284L158.985 106.028C158.985 106.027 158.986 106.027 158.987 106.027C159.008 106.017 159.022 105.991 159.011 105.964C158.913 105.707 158.798 105.459 158.661 105.244C158.646 105.22 158.617 105.216 158.598 105.227C158.596 105.228 158.595 105.229 158.593 105.23L158.07 105.486C157.998 105.521 157.896 105.461 157.842 105.351C157.788 105.24 157.802 105.122 157.874 105.087L158.299 104.879Z" fill="#9BAF7A"/>
<path d="M156.468 105.281C156.352 105.07 156.398 104.821 156.568 104.738C156.738 104.654 156.963 104.77 157.059 104.991L158.959 109.358C158.989 109.427 158.971 109.501 158.918 109.526C158.865 109.552 158.796 109.521 158.76 109.456L156.468 105.281Z" fill="#889A6B"/>
<path d="M161.769 116.99C161.8 116.998 161.827 116.977 161.818 116.952C161.772 116.821 161.697 116.696 161.586 116.58C161.252 116.232 160.651 115.973 160.09 115.826C159.528 115.68 158.878 115.613 158.417 115.752C158.248 115.803 158.112 115.885 158.002 115.99C157.996 115.996 158.002 116.006 158.011 116.008L158.719 116.193C158.816 116.219 158.876 116.315 158.851 116.409C158.827 116.503 158.728 116.558 158.63 116.532L157.923 116.348C157.901 116.342 157.882 116.333 157.865 116.322C157.834 116.301 157.78 116.298 157.766 116.326C157.676 116.516 157.627 116.736 157.603 116.963C157.599 116.994 157.652 117.021 157.691 117.02C157.709 117.019 157.727 117.021 157.745 117.026L158.453 117.211C158.55 117.236 158.61 117.333 158.585 117.427C158.561 117.52 158.462 117.576 158.364 117.55L157.657 117.365C157.625 117.357 157.583 117.37 157.583 117.396C157.585 117.541 157.592 117.682 157.602 117.816C157.609 117.898 157.617 117.981 157.629 118.065C157.63 118.077 157.642 118.087 157.656 118.09L158.364 118.275C158.461 118.3 158.521 118.397 158.496 118.491C158.472 118.584 158.373 118.64 158.275 118.614L157.76 118.48C157.73 118.472 157.703 118.491 157.708 118.516C157.758 118.748 157.82 118.984 157.888 119.218C157.892 119.231 157.905 119.242 157.922 119.247L158.275 119.339C158.372 119.364 158.432 119.461 158.407 119.555C158.383 119.648 158.284 119.704 158.186 119.678L158.087 119.652C158.055 119.644 158.028 119.666 158.036 119.692C158.138 120 158.242 120.292 158.334 120.547C158.381 120.678 158.425 120.799 158.462 120.908C158.491 120.989 158.527 121.073 158.605 121.131C158.663 121.172 158.721 121.188 158.791 121.179C158.888 121.167 158.96 121.112 159.025 121.054C159.111 120.978 159.208 120.894 159.313 120.803C159.518 120.625 159.752 120.422 159.991 120.202C160.011 120.184 159.998 120.151 159.966 120.143L159.954 120.14C159.857 120.115 159.797 120.018 159.822 119.924C159.846 119.831 159.945 119.775 160.043 119.801L160.309 119.87C160.325 119.874 160.342 119.871 160.352 119.861C160.526 119.691 160.696 119.515 160.852 119.337C160.869 119.317 160.855 119.288 160.825 119.28L160.397 119.168C160.299 119.143 160.24 119.046 160.265 118.953C160.289 118.859 160.388 118.804 160.486 118.829L161.1 118.99C161.118 118.994 161.137 118.989 161.146 118.977C161.196 118.911 161.243 118.844 161.287 118.779C161.362 118.665 161.439 118.543 161.512 118.416C161.523 118.396 161.508 118.371 161.481 118.364L160.84 118.197C160.742 118.171 160.683 118.075 160.707 117.981C160.732 117.887 160.831 117.832 160.928 117.857L161.636 118.042C161.637 118.042 161.638 118.043 161.639 118.043C161.666 118.051 161.699 118.045 161.708 118.024C161.793 117.823 161.855 117.616 161.871 117.414C161.873 117.391 161.847 117.371 161.82 117.365C161.817 117.365 161.815 117.364 161.813 117.364L161.106 117.179C161.008 117.153 160.949 117.057 160.973 116.963C160.997 116.869 161.096 116.814 161.194 116.84L161.769 116.99Z" fill="#9BAF7A"/>
<path d="M159.645 116.072C159.68 115.885 159.903 115.778 160.134 115.838C160.364 115.898 160.506 116.101 160.445 116.281L159.232 119.843C159.212 119.899 159.142 119.928 159.07 119.909C158.999 119.89 158.951 119.83 158.962 119.772L159.645 116.072Z" fill="#889A6B"/>
<path d="M165.963 113.592C165.941 113.564 165.895 113.57 165.88 113.603C165.802 113.776 165.758 113.961 165.758 114.157C165.757 114.747 166.095 115.405 166.5 115.915C166.905 116.425 167.47 116.902 168.045 117.034C168.255 117.083 168.463 117.077 168.666 117.029C168.677 117.026 168.682 117.012 168.675 117.003L168.164 116.361C168.094 116.272 168.126 116.129 168.237 116.041C168.348 115.953 168.495 115.953 168.566 116.042L169.076 116.684C169.091 116.703 169.102 116.725 169.107 116.748C169.118 116.79 169.167 116.828 169.206 116.805C169.471 116.651 169.723 116.439 169.957 116.205C169.99 116.172 169.965 116.109 169.926 116.087C169.908 116.076 169.892 116.063 169.879 116.046L169.368 115.404C169.298 115.315 169.331 115.172 169.441 115.084C169.552 114.996 169.699 114.996 169.77 115.085L170.28 115.727C170.303 115.756 170.355 115.768 170.38 115.739C170.513 115.579 170.638 115.418 170.752 115.264C170.822 115.17 170.891 115.073 170.958 114.973C170.968 114.959 170.965 114.941 170.955 114.928L170.445 114.286C170.374 114.198 170.407 114.054 170.518 113.966C170.629 113.878 170.776 113.879 170.846 113.967L171.218 114.435C171.24 114.462 171.283 114.458 171.301 114.427C171.47 114.141 171.63 113.841 171.781 113.542C171.79 113.525 171.788 113.504 171.776 113.489L171.521 113.169C171.451 113.08 171.484 112.937 171.595 112.849C171.705 112.76 171.852 112.761 171.923 112.85L171.994 112.94C172.017 112.968 172.064 112.962 172.08 112.927C172.269 112.525 172.44 112.138 172.589 111.8C172.665 111.627 172.736 111.467 172.801 111.323C172.849 111.216 172.893 111.101 172.871 110.989C172.854 110.907 172.812 110.854 172.737 110.82C172.632 110.773 172.51 110.79 172.395 110.813C172.241 110.843 172.068 110.876 171.882 110.912C171.519 110.981 171.104 111.06 170.67 111.153C170.632 111.161 170.616 111.205 170.638 111.234L170.647 111.244C170.717 111.333 170.685 111.476 170.574 111.564C170.463 111.652 170.316 111.652 170.245 111.563L170.054 111.322C170.042 111.307 170.022 111.301 170.003 111.305C169.678 111.385 169.35 111.474 169.033 111.573C168.998 111.584 168.985 111.625 169.006 111.652L169.315 112.041C169.386 112.13 169.353 112.273 169.242 112.361C169.131 112.449 168.984 112.449 168.914 112.36L168.47 111.802C168.457 111.786 168.434 111.78 168.414 111.788C168.304 111.83 168.198 111.874 168.094 111.919C167.915 111.997 167.727 112.084 167.539 112.179C167.51 112.194 167.501 112.231 167.521 112.255L167.983 112.837C168.054 112.926 168.021 113.069 167.91 113.158C167.799 113.246 167.652 113.245 167.582 113.157L167.072 112.514C167.071 112.513 167.07 112.513 167.069 112.512C167.05 112.486 167.013 112.472 166.985 112.49C166.715 112.659 166.464 112.848 166.259 113.061C166.236 113.085 166.243 113.123 166.264 113.147C166.266 113.148 166.267 113.15 166.269 113.152L166.779 113.795C166.85 113.883 166.817 114.027 166.706 114.115C166.595 114.203 166.448 114.202 166.378 114.114L165.963 113.592Z" fill="#9BAF7A"/>
<path d="M167.157 115.92C166.95 116.105 166.634 116.085 166.468 115.875C166.302 115.666 166.353 115.355 166.58 115.194L171.067 112.02C171.138 111.97 171.233 111.982 171.285 112.047C171.336 112.112 171.326 112.207 171.262 112.265L167.157 115.92Z" fill="#889A6B"/>
<path d="M166.19 79.5594C166.245 79.5527 166.275 79.4907 166.242 79.4451C166.079 79.213 165.873 79.0148 165.616 78.8624C164.842 78.4046 163.702 78.3238 162.702 78.4437C161.702 78.5636 160.614 78.9114 159.97 79.539C159.735 79.7683 159.573 80.0366 159.47 80.3312C159.464 80.3475 159.479 80.3637 159.496 80.3616L160.756 80.2106C160.93 80.1898 161.091 80.3421 161.116 80.5509C161.141 80.7596 161.021 80.9457 160.847 80.9666L159.587 81.1176C159.549 81.1221 159.512 81.1185 159.477 81.108C159.413 81.0889 159.323 81.1224 159.321 81.1891C159.308 81.6443 159.379 82.1276 159.496 82.6067C159.512 82.6737 159.615 82.6897 159.676 82.658C159.704 82.6433 159.735 82.6335 159.768 82.6296L161.028 82.4785C161.202 82.4577 161.363 82.61 161.388 82.8188C161.413 83.0275 161.293 83.2137 161.119 83.2345L159.859 83.3855C159.802 83.3923 159.744 83.4493 159.762 83.5028C159.863 83.7956 159.972 84.0784 160.081 84.343C160.146 84.5036 160.217 84.6657 160.293 84.8288C160.304 84.8516 160.33 84.8627 160.355 84.8597L161.615 84.7087C161.789 84.6878 161.95 84.8402 161.975 85.0489C162 85.2577 161.879 85.4438 161.705 85.4647L160.787 85.5747C160.734 85.5811 160.704 85.6392 160.73 85.6863C160.968 86.1216 161.23 86.5564 161.499 86.9796C161.515 87.0043 161.544 87.0177 161.573 87.0142L162.202 86.9389C162.376 86.918 162.537 87.0703 162.562 87.2791C162.587 87.4878 162.466 87.674 162.292 87.6948L162.116 87.716C162.059 87.7228 162.03 87.7869 162.062 87.834C162.435 88.3851 162.803 88.9004 163.125 89.3512C163.29 89.582 163.442 89.7959 163.578 89.9891C163.679 90.1333 163.794 90.2778 163.96 90.3363C164.08 90.3786 164.184 90.3662 164.29 90.2967C164.438 90.2006 164.515 90.033 164.58 89.8691C164.665 89.6493 164.763 89.4054 164.869 89.1422C165.075 88.628 165.311 88.0405 165.543 87.4167C165.563 87.3634 165.519 87.308 165.463 87.3148L165.442 87.3173C165.268 87.3381 165.107 87.1858 165.082 86.9771C165.057 86.7683 165.178 86.5822 165.351 86.5613L165.825 86.5046C165.854 86.5011 165.878 86.4813 165.888 86.4536C166.05 85.9787 166.201 85.4944 166.33 85.015C166.344 84.9632 166.301 84.9139 166.248 84.9202L165.485 85.0116C165.311 85.0325 165.15 84.8801 165.125 84.6714C165.1 84.4626 165.221 84.2765 165.395 84.2556L166.489 84.1245C166.521 84.1206 166.548 84.0963 166.554 84.0641C166.588 83.8926 166.618 83.7231 166.643 83.5563C166.687 83.2695 166.727 82.9641 166.756 82.651C166.76 82.603 166.719 82.5633 166.671 82.569L165.528 82.706C165.354 82.7268 165.193 82.5745 165.168 82.3657C165.143 82.157 165.264 81.9708 165.438 81.95L166.698 81.799C166.7 81.7987 166.701 81.7986 166.703 81.7984C166.753 81.7934 166.801 81.7579 166.801 81.708C166.8 81.2353 166.756 80.7694 166.645 80.346C166.632 80.2984 166.577 80.2773 166.528 80.2853C166.524 80.286 166.521 80.2865 166.517 80.287L165.257 80.438C165.083 80.4589 164.921 80.3066 164.896 80.0978C164.871 79.8891 164.992 79.7029 165.166 79.6821L166.19 79.5594Z" fill="#9BAF7A"/>
<path d="M162.158 79.2744C162.085 78.8678 162.37 78.4836 162.78 78.4344C163.19 78.3852 163.557 78.6914 163.582 79.1038L164.08 87.2509C164.088 87.3789 163.995 87.4908 163.867 87.5061C163.74 87.5213 163.623 87.4346 163.6 87.3084L162.158 79.2744Z" fill="#889A6B"/>
<path d="M143.304 75.9999C143.337 75.9959 143.357 75.9697 143.338 75.9516C143.246 75.8596 143.126 75.7825 142.975 75.7256C142.521 75.5545 141.838 75.5473 141.234 75.6197C140.631 75.692 139.969 75.8604 139.568 76.1339C139.421 76.2339 139.318 76.3483 139.249 76.4722C139.245 76.479 139.254 76.4853 139.264 76.4841L140.025 76.393C140.13 76.3804 140.223 76.4395 140.233 76.525C140.244 76.6106 140.167 76.6901 140.062 76.7027L139.301 76.7938C139.279 76.7965 139.257 76.7959 139.236 76.7924C139.198 76.786 139.143 76.8019 139.14 76.8294C139.122 77.0174 139.154 77.2151 139.213 77.4101C139.221 77.4373 139.282 77.4416 139.32 77.4271C139.337 77.4204 139.356 77.4156 139.376 77.4133L140.136 77.3221C140.241 77.3095 140.335 77.3687 140.345 77.4542C140.355 77.5397 140.278 77.6193 140.173 77.6318L139.413 77.723C139.379 77.7271 139.342 77.7519 139.352 77.7736C139.406 77.892 139.465 78.0061 139.524 78.1128C139.56 78.1775 139.599 78.2428 139.641 78.3083C139.647 78.3175 139.662 78.3214 139.677 78.3196L140.438 78.2285C140.543 78.2159 140.636 78.275 140.646 78.3606C140.657 78.4461 140.58 78.5256 140.475 78.5382L139.921 78.6046C139.889 78.6085 139.869 78.6331 139.884 78.652C140.017 78.826 140.164 78.9994 140.316 79.1678C140.325 79.1776 140.342 79.1825 140.359 79.1804L140.739 79.1349C140.844 79.1223 140.937 79.1814 140.948 79.2669C140.958 79.3525 140.881 79.432 140.776 79.4446L140.67 79.4574C140.636 79.4614 140.616 79.4886 140.635 79.5073C140.846 79.726 141.056 79.9301 141.239 80.1087C141.332 80.2001 141.419 80.2848 141.496 80.3614C141.553 80.4186 141.619 80.4755 141.718 80.4958C141.789 80.5106 141.851 80.5031 141.917 80.4719C142.008 80.4289 142.058 80.358 142.101 80.289C142.157 80.1963 142.222 80.0935 142.291 79.9825C142.427 79.7657 142.582 79.518 142.736 79.2554C142.749 79.233 142.724 79.2111 142.69 79.2152L142.677 79.2167C142.572 79.2293 142.479 79.1702 142.469 79.0847C142.458 78.9991 142.535 78.9196 142.64 78.907L142.926 78.8728C142.943 78.8707 142.958 78.8619 142.965 78.8503C143.073 78.6507 143.175 78.4475 143.263 78.2469C143.273 78.2251 143.248 78.2058 143.216 78.2096L142.756 78.2648C142.651 78.2774 142.558 78.2182 142.547 78.1327C142.537 78.0472 142.614 77.9677 142.719 77.9551L143.379 77.8759C143.399 77.8736 143.415 77.8629 143.42 77.8495C143.444 77.778 143.466 77.7074 143.485 77.638C143.518 77.5187 143.549 77.3919 143.573 77.2621C143.577 77.2422 143.553 77.2267 143.524 77.2302L142.835 77.3128C142.73 77.3254 142.636 77.2663 142.626 77.1808C142.616 77.0952 142.693 77.0157 142.798 77.0031L143.558 76.912C143.559 76.9119 143.56 76.9117 143.561 76.9116C143.591 76.9084 143.621 76.8927 143.622 76.8721C143.632 76.6772 143.617 76.486 143.559 76.3139C143.553 76.2946 143.52 76.2872 143.491 76.2916C143.489 76.2919 143.486 76.2923 143.484 76.2925L142.723 76.3837C142.618 76.3963 142.525 76.3371 142.515 76.2516C142.504 76.1661 142.581 76.0865 142.686 76.074L143.304 75.9999Z" fill="#9BAF7A"/>
<path d="M140.889 75.9747C140.854 75.8087 141.034 75.6437 141.281 75.614C141.529 75.5843 141.742 75.7022 141.748 75.8717L141.86 79.2205C141.862 79.2732 141.804 79.3214 141.727 79.3307C141.65 79.3399 141.581 79.3068 141.571 79.2553L140.889 75.9747Z" fill="#889A6B"/>
<path d="M145.304 74.769C145.337 74.773 145.357 74.7993 145.338 74.8174C145.246 74.9094 145.126 74.9864 144.975 75.0433C144.521 75.2144 143.838 75.2216 143.234 75.1493C142.631 75.0769 141.969 74.9086 141.568 74.635C141.421 74.535 141.318 74.4207 141.249 74.2968C141.245 74.2899 141.254 74.2836 141.264 74.2848L142.025 74.376C142.13 74.3885 142.223 74.3294 142.233 74.2439C142.244 74.1584 142.167 74.0788 142.062 74.0662L141.301 73.9751C141.279 73.9724 141.257 73.973 141.236 73.9765C141.198 73.983 141.143 73.9671 141.14 73.9395C141.122 73.7515 141.154 73.5538 141.213 73.3588C141.221 73.3316 141.282 73.3274 141.32 73.3418C141.337 73.3485 141.356 73.3533 141.376 73.3557L142.136 73.4468C142.241 73.4594 142.335 73.4003 142.345 73.3147C142.355 73.2292 142.278 73.1497 142.173 73.1371L141.413 73.0459C141.379 73.0419 141.342 73.017 141.352 72.9954C141.406 72.8769 141.465 72.7628 141.524 72.6561C141.56 72.5914 141.599 72.5261 141.641 72.4606C141.647 72.4514 141.662 72.4475 141.677 72.4493L142.438 72.5404C142.543 72.553 142.636 72.4939 142.646 72.4084C142.657 72.3228 142.58 72.2433 142.475 72.2307L141.921 72.1643C141.889 72.1604 141.869 72.1358 141.884 72.117C142.017 71.9429 142.164 71.7696 142.316 71.6012C142.325 71.5913 142.342 71.5865 142.359 71.5886L142.739 71.6341C142.844 71.6466 142.937 71.5875 142.948 71.502C142.958 71.4165 142.881 71.3369 142.776 71.3243L142.67 71.3116C142.636 71.3075 142.616 71.2804 142.635 71.2616C142.846 71.0429 143.056 70.8388 143.239 70.6602C143.332 70.5688 143.419 70.4841 143.496 70.4075C143.553 70.3504 143.619 70.2934 143.718 70.2731C143.789 70.2584 143.851 70.2658 143.917 70.297C144.008 70.34 144.058 70.4109 144.101 70.48C144.157 70.5726 144.222 70.6754 144.291 70.7864C144.427 71.0032 144.582 71.2509 144.736 71.5135C144.749 71.5359 144.724 71.5578 144.69 71.5537L144.677 71.5522C144.572 71.5396 144.479 71.5987 144.469 71.6843C144.458 71.7698 144.535 71.8493 144.64 71.8619L144.926 71.8962C144.943 71.8983 144.958 71.907 144.965 71.9186C145.073 72.1182 145.175 72.3214 145.263 72.5221C145.273 72.5438 145.248 72.5631 145.216 72.5593L144.756 72.5041C144.651 72.4916 144.558 72.5507 144.547 72.6362C144.537 72.7217 144.614 72.8013 144.719 72.8139L145.379 72.893C145.399 72.8954 145.415 72.906 145.42 72.9194C145.444 72.9909 145.466 73.0615 145.485 73.1309C145.518 73.2502 145.549 73.3771 145.573 73.5068C145.577 73.5268 145.553 73.5422 145.524 73.5387L144.835 73.4561C144.73 73.4435 144.636 73.5026 144.626 73.5882C144.616 73.6737 144.693 73.7532 144.798 73.7658L145.558 73.8569C145.559 73.8571 145.56 73.8572 145.561 73.8573C145.591 73.8605 145.621 73.8763 145.622 73.8968C145.632 74.0917 145.617 74.2829 145.559 74.455C145.553 74.4743 145.52 74.4818 145.491 74.4773C145.489 74.477 145.486 74.4767 145.484 74.4764L144.723 74.3852C144.618 74.3727 144.525 74.4318 144.515 74.5173C144.504 74.6028 144.581 74.6824 144.686 74.695L145.304 74.769Z" fill="#9BAF7A"/>
<path d="M142.889 74.7942C142.854 74.9602 143.034 75.1252 143.281 75.1549C143.529 75.1846 143.742 75.0667 143.748 74.8972L143.86 71.5484C143.862 71.4958 143.804 71.4475 143.727 71.4383C143.65 71.4291 143.581 71.4621 143.571 71.5137L142.889 74.7942Z" fill="#889A6B"/>
<path d="M114.243 74.9347C114.281 74.9155 114.291 74.8725 114.26 74.8559C114.102 74.7713 113.92 74.7177 113.709 74.7042C113.076 74.6638 112.249 74.9371 111.558 75.284C110.867 75.631 110.154 76.1303 109.808 76.6624C109.682 76.8568 109.614 77.0525 109.594 77.2467C109.592 77.2575 109.606 77.2623 109.618 77.2564L110.489 76.8194C110.609 76.759 110.751 76.7994 110.806 76.9095C110.862 77.0196 110.809 77.1578 110.689 77.2181L109.818 77.6552C109.792 77.6682 109.765 77.6766 109.738 77.6805C109.689 77.6876 109.631 77.7315 109.642 77.7695C109.714 78.0285 109.851 78.2798 110.02 78.516C110.044 78.549 110.12 78.5292 110.158 78.4943C110.176 78.4782 110.196 78.464 110.218 78.4527L111.089 78.0157C111.209 77.9553 111.352 77.9957 111.407 78.1058C111.462 78.2159 111.409 78.3541 111.289 78.4144L110.419 78.8514C110.38 78.8709 110.348 78.9194 110.371 78.9442C110.495 79.0803 110.624 79.2083 110.749 79.3266C110.824 79.3983 110.904 79.4693 110.987 79.5395C110.999 79.5494 111.019 79.5484 111.037 79.5397L111.907 79.1027C112.027 79.0424 112.17 79.0827 112.225 79.1928C112.28 79.3029 112.228 79.4411 112.107 79.5015L111.473 79.8199C111.436 79.8384 111.425 79.8794 111.452 79.8986C111.7 80.0761 111.965 80.2468 112.232 80.4089C112.248 80.4184 112.271 80.418 112.291 80.4079L112.725 80.1897C112.846 80.1294 112.988 80.1697 113.043 80.2799C113.098 80.39 113.046 80.5282 112.926 80.5885L112.804 80.6497C112.765 80.6693 112.755 80.7135 112.786 80.731C113.151 80.9357 113.506 81.1219 113.816 81.2849C113.975 81.3683 114.122 81.4456 114.253 81.5161C114.351 81.5688 114.459 81.6176 114.588 81.6041C114.681 81.5942 114.752 81.5583 114.816 81.4894C114.904 81.3943 114.929 81.2786 114.945 81.1687C114.967 81.0214 114.993 80.8572 115.021 80.6801C115.076 80.334 115.138 79.9385 115.192 79.5235C115.197 79.488 115.156 79.4691 115.117 79.4887L115.102 79.4959C114.982 79.5563 114.84 79.5159 114.784 79.4058C114.729 79.2957 114.782 79.1575 114.902 79.0972L115.229 78.933C115.249 78.9229 115.263 78.905 115.265 78.8868C115.295 78.5751 115.316 78.2611 115.322 77.9561C115.322 77.9231 115.283 77.9075 115.246 77.926L114.719 78.1904C114.599 78.2507 114.457 78.2104 114.402 78.1003C114.346 77.9902 114.399 77.852 114.519 77.7916L115.275 77.4121C115.298 77.4008 115.312 77.3798 115.311 77.3599C115.304 77.2542 115.295 77.1507 115.283 77.0502C115.263 76.8772 115.236 76.6946 115.201 76.5109C115.195 76.4827 115.159 76.472 115.126 76.4886L114.336 76.8849C114.216 76.9452 114.074 76.9048 114.019 76.7947C113.963 76.6846 114.016 76.5464 114.136 76.4861L115.007 76.0491C115.008 76.0485 115.009 76.0478 115.011 76.0472C115.045 76.0306 115.073 75.9971 115.064 75.9691C114.979 75.7043 114.864 75.4551 114.708 75.2488C114.691 75.2256 114.648 75.2292 114.615 75.2473C114.612 75.2487 114.609 75.2502 114.607 75.2515L113.736 75.6886C113.616 75.7489 113.473 75.7086 113.418 75.5984C113.363 75.4883 113.416 75.3501 113.536 75.2898L114.243 74.9347Z" fill="#9BAF7A"/>
<path d="M111.32 75.9021C111.195 75.6944 111.328 75.3993 111.612 75.257C111.895 75.1148 112.212 75.1839 112.304 75.4082L114.12 79.8395C114.148 79.9092 114.102 79.998 114.014 80.0422C113.926 80.0864 113.827 80.0705 113.788 80.006L111.32 75.9021Z" fill="#889A6B"/>
<path d="M95.9269 64.2993C95.9058 64.262 95.8623 64.2543 95.8473 64.2862C95.7709 64.4483 95.7268 64.6332 95.7242 64.8445C95.7165 65.4792 96.0319 66.2903 96.414 66.9627C96.7961 67.6351 97.3315 68.3213 97.8807 68.6395C98.0813 68.7558 98.2803 68.8128 98.4753 68.8235C98.4861 68.8241 98.4902 68.8102 98.4837 68.7987L98.0024 67.9517C97.9359 67.8348 97.9689 67.6906 98.076 67.6298C98.1832 67.5689 98.3239 67.6144 98.3903 67.7313L98.8716 68.5783C98.886 68.6036 98.8957 68.6302 98.901 68.6569C98.9107 68.7054 98.9575 68.7609 98.9948 68.7484C99.2498 68.6629 99.4937 68.5128 99.7209 68.3319C99.7526 68.3066 99.729 68.2317 99.6922 68.1956C99.6751 68.1789 99.66 68.1594 99.6474 68.1374L99.1662 67.2904C99.0997 67.1735 99.1327 67.0293 99.2398 66.9685C99.3469 66.9076 99.4876 66.9531 99.5541 67.07L100.035 67.917C100.057 67.9548 100.107 67.9839 100.13 67.9598C100.26 67.8286 100.381 67.6935 100.493 67.563C100.561 67.4839 100.627 67.4005 100.693 67.3136C100.702 67.3014 100.7 67.2812 100.691 67.2643L100.21 66.4174C100.143 66.3004 100.176 66.1563 100.283 66.0954C100.39 66.0346 100.531 66.08 100.598 66.197L100.948 66.814C100.969 66.8499 101.01 66.8588 101.028 66.831C101.192 66.5742 101.349 66.3013 101.497 66.0254C101.506 66.0093 101.504 65.9867 101.493 65.9672L101.253 65.5443C101.187 65.4274 101.22 65.2833 101.327 65.2224C101.434 65.1615 101.575 65.207 101.641 65.3239L101.708 65.4426C101.73 65.4806 101.775 65.4877 101.791 65.4556C101.976 65.0805 102.144 64.7169 102.291 64.3987C102.366 64.2359 102.435 64.0849 102.499 63.9504C102.547 63.8501 102.59 63.7397 102.57 63.6118C102.555 63.5192 102.515 63.4497 102.443 63.3897C102.344 63.3069 102.227 63.2875 102.116 63.277C101.968 63.2629 101.803 63.2455 101.625 63.2266C101.276 63.1899 100.878 63.1478 100.461 63.1153C100.425 63.1125 100.408 63.1545 100.43 63.1925L100.438 63.2065C100.504 63.3235 100.471 63.4676 100.364 63.5285C100.257 63.5893 100.116 63.5439 100.05 63.4269L99.8691 63.1088C99.858 63.0892 99.8394 63.0763 99.8212 63.0755C99.5083 63.0615 99.1936 63.0566 98.8888 63.0665C98.8558 63.0676 98.8422 63.1078 98.8626 63.1436L99.1537 63.6561C99.2202 63.773 99.1872 63.9172 99.0801 63.978C98.973 64.0389 98.8323 63.9935 98.7658 63.8765L98.3479 63.141C98.3354 63.1191 98.3137 63.1057 98.2939 63.108C98.1886 63.1198 98.0858 63.1342 97.986 63.1515C97.8143 63.1811 97.6333 63.2167 97.4517 63.2616C97.4238 63.2685 97.4149 63.3054 97.4332 63.3376L97.8696 64.1056C97.9361 64.2226 97.9031 64.3667 97.796 64.4276C97.6889 64.4885 97.5482 64.443 97.4817 64.3261L97.0004 63.4791C96.9998 63.4779 96.9991 63.4767 96.9984 63.4755C96.98 63.4419 96.9451 63.4155 96.9177 63.426C96.6576 63.5252 96.4146 63.6524 96.2166 63.8184C96.1944 63.837 96.2002 63.8799 96.2199 63.9121C96.2215 63.9147 96.2231 63.9173 96.2246 63.92L96.7059 64.7669C96.7723 64.8839 96.7393 65.028 96.6322 65.0889C96.5251 65.1498 96.3844 65.1043 96.3179 64.9874L95.9269 64.2993Z" fill="#9BAF7A"/>
<path d="M97.0435 67.1689C96.8425 67.3044 96.541 67.1861 96.3843 66.9104C96.2276 66.6347 96.2804 66.3151 96.4996 66.2118L100.832 64.1699C100.9 64.1378 100.991 64.1796 101.039 64.2652C101.088 64.3508 101.077 64.4505 101.015 64.4925L97.0435 67.1689Z" fill="#889A6B"/>
<path d="M112.691 116.973C112.723 116.98 112.751 116.947 112.741 116.91C112.692 116.726 112.613 116.554 112.497 116.4C112.148 115.94 111.526 115.643 110.945 115.507C110.364 115.37 109.693 115.361 109.219 115.628C109.045 115.725 108.906 115.863 108.795 116.031C108.788 116.04 108.794 116.054 108.804 116.056L109.536 116.229C109.637 116.253 109.699 116.385 109.675 116.525C109.651 116.665 109.549 116.759 109.448 116.736L108.717 116.563C108.695 116.558 108.675 116.548 108.657 116.533C108.625 116.507 108.569 116.51 108.555 116.552C108.465 116.843 108.417 117.17 108.394 117.504C108.391 117.55 108.446 117.583 108.486 117.575C108.504 117.572 108.523 117.572 108.542 117.577L109.274 117.749C109.375 117.773 109.438 117.906 109.413 118.046C109.389 118.186 109.288 118.28 109.187 118.256L108.455 118.083C108.423 118.076 108.379 118.1 108.38 118.138C108.383 118.349 108.393 118.554 108.405 118.748C108.412 118.866 108.422 118.986 108.435 119.107C108.437 119.124 108.449 119.137 108.464 119.14L109.196 119.312C109.297 119.336 109.359 119.469 109.335 119.609C109.311 119.749 109.209 119.843 109.108 119.819L108.575 119.694C108.544 119.686 108.517 119.717 108.523 119.753C108.577 120.085 108.644 120.421 108.717 120.752C108.721 120.771 108.735 120.786 108.752 120.79L109.117 120.876C109.218 120.9 109.28 121.032 109.256 121.172C109.232 121.312 109.131 121.406 109.03 121.383L108.927 121.358C108.894 121.351 108.866 121.386 108.876 121.423C108.984 121.858 109.096 122.269 109.193 122.629C109.243 122.813 109.29 122.983 109.33 123.137C109.36 123.251 109.398 123.369 109.48 123.442C109.54 123.495 109.6 123.51 109.672 123.488C109.772 123.457 109.846 123.366 109.912 123.274C110 123.151 110.099 123.014 110.206 122.867C110.415 122.58 110.654 122.252 110.897 121.899C110.918 121.869 110.904 121.824 110.871 121.816L110.859 121.814C110.758 121.79 110.696 121.657 110.72 121.517C110.744 121.377 110.845 121.283 110.946 121.307L111.221 121.372C111.238 121.376 111.255 121.368 111.266 121.352C111.443 121.081 111.616 120.801 111.775 120.52C111.792 120.489 111.777 120.448 111.746 120.441L111.303 120.337C111.202 120.313 111.14 120.18 111.164 120.04C111.188 119.9 111.29 119.806 111.391 119.83L112.026 119.98C112.045 119.984 112.064 119.974 112.074 119.955C112.124 119.851 112.172 119.749 112.216 119.646C112.292 119.471 112.37 119.282 112.444 119.087C112.455 119.057 112.439 119.022 112.411 119.016L111.748 118.859C111.647 118.836 111.584 118.703 111.609 118.563C111.633 118.423 111.734 118.329 111.835 118.353L112.567 118.525C112.568 118.525 112.569 118.526 112.57 118.526C112.599 118.533 112.632 118.521 112.641 118.489C112.727 118.184 112.787 117.874 112.802 117.577C112.804 117.544 112.777 117.518 112.748 117.513C112.746 117.513 112.743 117.512 112.741 117.512L112.009 117.339C111.908 117.315 111.846 117.183 111.87 117.043C111.894 116.903 111.996 116.809 112.097 116.832L112.691 116.973Z" fill="#9BAF7A"/>
<path d="M110.49 115.926C110.523 115.648 110.752 115.461 110.99 115.517C111.229 115.573 111.378 115.849 111.317 116.121L110.11 121.479C110.091 121.563 110.018 121.616 109.944 121.598C109.87 121.581 109.821 121.5 109.831 121.413L110.49 115.926Z" fill="#889A6B"/>
<path d="M120.746 103.886C120.792 103.897 120.833 103.847 120.819 103.794C120.748 103.522 120.634 103.27 120.466 103.044C119.96 102.368 119.057 101.935 118.213 101.736C117.37 101.537 116.394 101.527 115.704 101.922C115.452 102.066 115.249 102.271 115.086 102.518C115.077 102.532 115.085 102.552 115.099 102.555L116.162 102.806C116.309 102.84 116.399 103.035 116.364 103.242C116.328 103.448 116.181 103.587 116.034 103.552L114.971 103.302C114.939 103.294 114.91 103.279 114.884 103.258C114.838 103.22 114.756 103.224 114.737 103.287C114.604 103.715 114.533 104.196 114.5 104.688C114.495 104.756 114.574 104.804 114.632 104.793C114.659 104.788 114.687 104.788 114.714 104.795L115.777 105.045C115.924 105.08 116.014 105.275 115.979 105.481C115.943 105.687 115.795 105.826 115.649 105.791L114.586 105.541C114.538 105.53 114.476 105.566 114.476 105.622C114.48 105.932 114.493 106.235 114.51 106.52C114.521 106.693 114.535 106.869 114.553 107.048C114.556 107.073 114.574 107.091 114.595 107.096L115.658 107.347C115.804 107.381 115.895 107.577 115.859 107.783C115.824 107.989 115.676 108.128 115.529 108.093L114.755 107.911C114.71 107.9 114.67 107.946 114.678 107.999C114.756 108.487 114.852 108.982 114.957 109.468C114.964 109.496 114.983 109.518 115.008 109.524L115.538 109.649C115.685 109.683 115.775 109.878 115.74 110.084C115.704 110.291 115.556 110.43 115.41 110.395L115.261 110.36C115.213 110.349 115.172 110.4 115.186 110.455C115.342 111.095 115.502 111.7 115.643 112.229C115.715 112.499 115.782 112.75 115.84 112.976C115.884 113.145 115.938 113.318 116.057 113.425C116.144 113.503 116.231 113.524 116.336 113.491C116.482 113.446 116.589 113.311 116.685 113.175C116.813 112.993 116.958 112.792 117.114 112.575C117.419 112.151 117.767 111.667 118.122 111.147C118.153 111.103 118.132 111.037 118.084 111.025L118.067 111.021C117.92 110.987 117.83 110.792 117.865 110.585C117.901 110.379 118.048 110.24 118.195 110.275L118.594 110.369C118.619 110.375 118.644 110.364 118.659 110.34C118.917 109.94 119.17 109.527 119.402 109.112C119.427 109.067 119.406 109.007 119.361 108.996L118.718 108.845C118.571 108.81 118.481 108.615 118.516 108.409C118.552 108.203 118.699 108.064 118.846 108.098L119.769 108.316C119.796 108.322 119.824 108.307 119.838 108.279C119.912 108.127 119.981 107.975 120.046 107.824C120.158 107.565 120.272 107.288 120.379 107C120.395 106.955 120.373 106.905 120.332 106.895L119.368 106.668C119.222 106.633 119.132 106.438 119.167 106.232C119.202 106.026 119.35 105.887 119.497 105.922L120.56 106.172C120.561 106.172 120.563 106.173 120.564 106.173C120.606 106.184 120.655 106.165 120.668 106.118C120.793 105.669 120.882 105.213 120.905 104.775C120.907 104.726 120.868 104.689 120.827 104.681C120.823 104.681 120.82 104.68 120.816 104.679L119.754 104.429C119.607 104.394 119.517 104.199 119.552 103.993C119.588 103.787 119.735 103.648 119.882 103.682L120.746 103.886Z" fill="#9BAF7A"/>
<path d="M117.55 102.355C117.6 101.946 117.933 101.67 118.279 101.751C118.625 101.833 118.841 102.238 118.751 102.638L116.979 110.532C116.951 110.656 116.846 110.733 116.738 110.708C116.631 110.683 116.559 110.564 116.574 110.437L117.55 102.355Z" fill="#889A6B"/>
<path d="M115.244 85.8573C115.225 85.8318 115.238 85.7893 115.269 85.7796C115.424 85.7302 115.582 85.7148 115.742 85.7428C116.223 85.8268 116.695 86.2439 117.034 86.7045C117.373 87.165 117.656 87.7735 117.656 88.3422C117.656 88.55 117.612 88.7477 117.535 88.9349C117.531 88.9452 117.519 88.9472 117.513 88.9393L117.086 88.3591C117.027 88.279 116.904 88.2897 116.812 88.3829C116.719 88.4762 116.692 88.6167 116.751 88.6968L117.178 89.2769C117.191 89.2943 117.207 89.3073 117.225 89.3163C117.257 89.3324 117.278 89.385 117.253 89.4187C117.077 89.6492 116.858 89.8598 116.623 90.0501C116.59 90.0767 116.544 90.0434 116.533 90.0031C116.528 89.9845 116.52 89.9673 116.509 89.9522L116.082 89.372C116.023 89.2919 115.9 89.3026 115.808 89.3958C115.715 89.489 115.688 89.6296 115.747 89.7097L116.174 90.2898C116.193 90.3157 116.193 90.3675 116.165 90.3865C116.01 90.4909 115.856 90.5869 115.709 90.6745C115.62 90.7276 115.528 90.7792 115.434 90.8294C115.421 90.8364 115.407 90.8315 115.398 90.82L114.971 90.2399C114.912 90.1598 114.789 90.1704 114.697 90.2637C114.604 90.3569 114.577 90.4974 114.636 90.5775L114.947 91.0002C114.966 91.0247 114.954 91.0656 114.926 91.0785C114.661 91.1982 114.387 91.3083 114.115 91.4096C114.1 91.4155 114.083 91.4107 114.073 91.3974L113.86 91.1077C113.801 91.0276 113.678 91.0383 113.586 91.1315C113.494 91.2247 113.466 91.3653 113.525 91.4454L113.585 91.5266C113.604 91.5527 113.59 91.5962 113.559 91.6067C113.196 91.7294 112.85 91.8368 112.547 91.9307C112.392 91.9788 112.248 92.0233 112.119 92.0647C112.023 92.0955 111.921 92.1207 111.834 92.0831C111.77 92.0559 111.735 92.0082 111.722 91.931C111.703 91.8243 111.739 91.7102 111.779 91.6034C111.833 91.4603 111.892 91.3003 111.956 91.1278C112.08 90.7907 112.222 90.4056 112.379 90.0036C112.392 89.9693 112.431 89.9594 112.45 89.9854L112.458 89.995C112.517 90.0751 112.639 90.0645 112.732 89.9712C112.824 89.878 112.851 89.7375 112.792 89.6574L112.632 89.4394C112.622 89.4261 112.62 89.4064 112.628 89.389C112.753 89.0891 112.887 88.7887 113.027 88.4999C113.042 88.4687 113.078 88.4615 113.096 88.4861L113.355 88.8371C113.414 88.9172 113.537 88.9065 113.629 88.8133C113.721 88.7201 113.749 88.5795 113.69 88.4994L113.319 87.9956C113.308 87.9806 113.307 87.958 113.317 87.9395C113.372 87.841 113.428 87.7451 113.484 87.6526C113.581 87.4933 113.687 87.3262 113.8 87.1597C113.817 87.1342 113.849 87.131 113.865 87.1531L114.252 87.6792C114.311 87.7593 114.434 87.7486 114.526 87.6554C114.619 87.5621 114.646 87.4216 114.587 87.3415L114.16 86.7614C114.159 86.7606 114.159 86.7598 114.158 86.7589C114.141 86.7366 114.136 86.6995 114.156 86.6749C114.344 86.4416 114.545 86.2285 114.756 86.0639C114.78 86.0454 114.81 86.0571 114.825 86.0805C114.826 86.0824 114.828 86.0843 114.829 86.0861L115.256 86.6663C115.315 86.7464 115.438 86.7357 115.53 86.6425C115.623 86.5493 115.65 86.4087 115.591 86.3286L115.244 85.8573Z" fill="#9BAF7A"/>
<path d="M116.915 87.3335C117.104 87.1616 117.147 86.8575 117.008 86.6686C116.869 86.4797 116.606 86.484 116.432 86.6779L113.01 90.5085C112.957 90.5687 112.948 90.6615 112.991 90.7202C113.035 90.7788 113.114 90.7829 113.173 90.7296L116.915 87.3335Z" fill="#889A6B"/>
<path d="M123.225 111.9C123.254 111.874 123.257 111.83 123.228 111.819C123.083 111.762 122.921 111.74 122.742 111.763C122.203 111.831 121.547 112.24 121.015 112.699C120.483 113.159 119.956 113.772 119.741 114.355C119.663 114.568 119.635 114.772 119.646 114.967C119.646 114.978 119.658 114.98 119.667 114.972L120.337 114.394C120.43 114.314 120.555 114.33 120.618 114.429C120.68 114.528 120.656 114.673 120.563 114.753L119.894 115.331C119.874 115.349 119.852 115.361 119.83 115.37C119.79 115.385 119.748 115.438 119.762 115.474C119.86 115.717 120.012 115.941 120.189 116.145C120.214 116.174 120.275 116.142 120.302 116.101C120.314 116.082 120.329 116.064 120.346 116.049L121.016 115.471C121.109 115.391 121.234 115.407 121.297 115.506C121.359 115.605 121.335 115.75 121.242 115.83L120.573 116.408C120.543 116.434 120.523 116.487 120.546 116.508C120.671 116.621 120.797 116.725 120.919 116.821C120.993 116.879 121.071 116.935 121.151 116.99C121.163 116.998 121.18 116.993 121.193 116.982L121.863 116.403C121.955 116.324 122.081 116.339 122.143 116.438C122.206 116.537 122.181 116.683 122.089 116.762L121.601 117.184C121.573 117.208 121.569 117.251 121.595 117.265C121.829 117.398 122.077 117.521 122.326 117.636C122.34 117.642 122.359 117.638 122.375 117.625L122.709 117.336C122.801 117.256 122.927 117.272 122.99 117.371C123.052 117.47 123.028 117.615 122.935 117.695L122.842 117.776C122.811 117.802 122.81 117.847 122.839 117.859C123.176 117.999 123.501 118.122 123.786 118.23C123.932 118.285 124.067 118.336 124.187 118.384C124.277 118.419 124.375 118.449 124.482 118.414C124.559 118.388 124.614 118.341 124.657 118.262C124.718 118.153 124.722 118.035 124.72 117.924C124.717 117.775 124.715 117.609 124.713 117.43C124.709 117.079 124.704 116.679 124.689 116.261C124.688 116.225 124.651 116.213 124.621 116.239L124.609 116.249C124.517 116.329 124.391 116.313 124.329 116.214C124.266 116.115 124.291 115.97 124.383 115.89L124.635 115.672C124.65 115.659 124.659 115.639 124.658 115.621C124.638 115.309 124.61 114.996 124.571 114.694C124.567 114.661 124.531 114.653 124.503 114.677L124.098 115.027C124.005 115.107 123.88 115.091 123.817 114.992C123.755 114.893 123.779 114.748 123.872 114.668L124.453 114.166C124.47 114.151 124.48 114.128 124.476 114.108C124.455 114.005 124.432 113.905 124.407 113.808C124.365 113.641 124.316 113.465 124.26 113.29C124.251 113.263 124.219 113.259 124.193 113.281L123.586 113.806C123.494 113.885 123.368 113.87 123.306 113.771C123.243 113.671 123.267 113.526 123.36 113.447L124.03 112.868C124.031 112.867 124.031 112.866 124.032 112.866C124.059 112.843 124.078 112.806 124.066 112.78C123.956 112.533 123.823 112.307 123.662 112.13C123.644 112.11 123.608 112.121 123.583 112.144C123.581 112.146 123.579 112.148 123.577 112.15L122.907 112.728C122.815 112.808 122.689 112.793 122.627 112.694C122.564 112.594 122.588 112.449 122.681 112.369L123.225 111.9Z" fill="#9BAF7A"/>
<path d="M120.904 113.349C120.769 113.165 120.838 112.852 121.056 112.664C121.274 112.475 121.551 112.49 121.661 112.695L123.832 116.754C123.866 116.818 123.84 116.913 123.772 116.972C123.705 117.03 123.619 117.031 123.577 116.974L120.904 113.349Z" fill="#889A6B"/>
<path d="M96.6287 120.985C96.6231 121.022 96.6553 121.053 96.6884 121.042C96.8563 120.986 97.0112 120.896 97.1475 120.763C97.5567 120.364 97.8021 119.655 97.9026 118.993C98.0031 118.332 97.9816 117.567 97.7149 117.028C97.6174 116.831 97.4838 116.673 97.3243 116.546C97.3155 116.539 97.3031 116.545 97.3014 116.557L97.1747 117.39C97.1573 117.505 97.0377 117.577 96.9077 117.55C96.7777 117.523 96.6864 117.407 96.7039 117.292L96.8306 116.459C96.8343 116.434 96.8429 116.411 96.8553 116.391C96.8779 116.354 96.8731 116.29 96.8333 116.275C96.5615 116.173 96.2583 116.119 95.9497 116.094C95.9065 116.091 95.8792 116.153 95.8877 116.198C95.8917 116.219 95.8922 116.241 95.8889 116.263L95.7623 117.096C95.7448 117.211 95.6253 117.283 95.4952 117.256C95.3652 117.229 95.274 117.113 95.2915 116.998L95.4181 116.165C95.4238 116.128 95.3996 116.078 95.3642 116.079C95.1705 116.083 94.9813 116.095 94.8033 116.109C94.6953 116.118 94.5854 116.13 94.474 116.144C94.4584 116.146 94.4473 116.161 94.4448 116.177L94.3182 117.011C94.3007 117.126 94.1811 117.197 94.0511 117.17C93.9211 117.143 93.8299 117.028 93.8474 116.913L93.9396 116.305C93.945 116.27 93.9152 116.239 93.8824 116.246C93.5792 116.308 93.2722 116.385 92.9708 116.469C92.9532 116.474 92.9402 116.49 92.9373 116.509L92.8741 116.925C92.8566 117.04 92.737 117.112 92.607 117.085C92.477 117.057 92.3858 116.942 92.4033 116.827L92.421 116.71C92.4267 116.673 92.3932 116.641 92.3593 116.652C91.9629 116.776 91.5892 116.904 91.2622 117.016C91.0948 117.074 90.9396 117.127 90.7999 117.173C90.6957 117.208 90.5888 117.252 90.5249 117.345C90.4787 117.413 90.4683 117.481 90.4917 117.564C90.5241 117.677 90.6116 117.762 90.6992 117.836C90.8167 117.936 90.9467 118.048 91.087 118.17C91.3609 118.407 91.674 118.678 92.0094 118.955C92.0381 118.979 92.0789 118.962 92.0846 118.925L92.0867 118.911C92.1042 118.796 92.2238 118.725 92.3538 118.752C92.4838 118.779 92.575 118.894 92.5575 119.009L92.51 119.322C92.507 119.341 92.5147 119.361 92.5298 119.373C92.7878 119.574 93.0533 119.77 93.3196 119.951C93.3484 119.97 93.3855 119.953 93.3909 119.918L93.4675 119.413C93.485 119.298 93.6046 119.227 93.7346 119.254C93.8646 119.281 93.9558 119.396 93.9383 119.511L93.8284 120.235C93.8251 120.257 93.8352 120.279 93.8534 120.289C93.9508 120.346 94.0477 120.4 94.1438 120.451C94.309 120.537 94.486 120.626 94.6695 120.709C94.6977 120.721 94.7287 120.703 94.7335 120.672L94.8483 119.916C94.8658 119.801 94.9853 119.729 95.1154 119.756C95.2454 119.783 95.3366 119.899 95.3191 120.014L95.1925 120.847L95.1919 120.851C95.1863 120.883 95.1993 120.922 95.2294 120.932C95.5142 121.028 95.8022 121.097 96.0765 121.113C96.1073 121.114 96.1295 121.084 96.1331 121.051C96.1334 121.048 96.1337 121.046 96.1341 121.043L96.2607 120.21C96.2782 120.095 96.3978 120.023 96.5278 120.05C96.6578 120.077 96.749 120.193 96.7316 120.308L96.6287 120.985Z" fill="#9BAF7A"/>
<path d="M97.4963 118.476C97.7537 118.513 97.936 118.774 97.8948 119.045C97.8536 119.316 97.6058 119.487 97.3532 119.418L92.3619 118.057C92.2835 118.036 92.2322 117.953 92.245 117.869C92.2578 117.785 92.3302 117.728 92.4101 117.74L97.4963 118.476Z" fill="#889A6B"/>
<path d="M101.477 121.432C101.514 121.397 101.507 121.329 101.463 121.307C101.239 121.198 101 121.141 100.744 121.15C99.9766 121.177 99.1172 121.719 98.4499 122.355C97.7826 122.991 97.1562 123.867 96.9783 124.742C96.9133 125.061 96.9191 125.374 96.9791 125.679C96.9824 125.695 97.0008 125.701 97.0122 125.69L97.8527 124.889C97.9687 124.778 98.1548 124.82 98.2682 124.983C98.3817 125.146 98.3796 125.368 98.2635 125.479L97.423 126.28C97.3979 126.304 97.3695 126.321 97.3393 126.331C97.2844 126.349 97.2351 126.425 97.2642 126.483C97.4626 126.874 97.7347 127.245 98.0379 127.587C98.0802 127.635 98.1617 127.594 98.1913 127.534C98.2051 127.507 98.2229 127.482 98.2448 127.461L99.0853 126.659C99.2013 126.549 99.3874 126.591 99.5008 126.754C99.6143 126.917 99.6122 127.139 99.4961 127.25L98.6556 128.051C98.6181 128.087 98.6018 128.167 98.6395 128.202C98.8462 128.395 99.0544 128.576 99.2534 128.742C99.3741 128.842 99.4996 128.941 99.629 129.038C99.6471 129.052 99.6708 129.047 99.6875 129.031L100.528 128.23C100.644 128.119 100.83 128.162 100.944 128.325C101.057 128.488 101.055 128.71 100.939 128.82L100.326 129.404C100.291 129.438 100.296 129.503 100.336 129.529C100.707 129.769 101.094 129.997 101.482 130.21C101.505 130.223 101.532 130.219 101.551 130.2L101.971 129.8C102.087 129.69 102.273 129.732 102.386 129.895C102.5 130.058 102.498 130.28 102.382 130.391L102.264 130.503C102.226 130.539 102.234 130.609 102.279 130.631C102.8 130.897 103.301 131.136 103.74 131.345C103.964 131.452 104.172 131.551 104.358 131.642C104.497 131.709 104.646 131.77 104.792 131.73C104.898 131.702 104.968 131.636 105.013 131.52C105.075 131.36 105.055 131.177 105.026 131.004C104.988 130.773 104.947 130.514 104.903 130.235C104.817 129.691 104.718 129.068 104.601 128.417C104.591 128.361 104.534 128.338 104.497 128.374L104.483 128.387C104.367 128.497 104.181 128.455 104.067 128.292C103.954 128.129 103.956 127.907 104.072 127.797L104.388 127.495C104.407 127.477 104.416 127.447 104.41 127.419C104.31 126.931 104.198 126.441 104.072 125.967C104.058 125.915 104.004 125.897 103.969 125.931L103.46 126.416C103.344 126.526 103.158 126.484 103.045 126.321C102.931 126.158 102.933 125.936 103.049 125.825L103.779 125.129C103.801 125.109 103.809 125.074 103.799 125.043C103.745 124.88 103.689 124.721 103.631 124.567C103.531 124.301 103.421 124.022 103.298 123.742C103.28 123.699 103.232 123.687 103.2 123.718L102.438 124.444C102.322 124.555 102.136 124.513 102.022 124.35C101.909 124.187 101.911 123.965 102.027 123.854L102.867 123.053C102.869 123.051 102.87 123.05 102.871 123.049C102.905 123.019 102.923 122.963 102.901 122.92C102.684 122.522 102.439 122.151 102.165 121.853C102.134 121.82 102.085 121.832 102.054 121.864C102.051 121.867 102.048 121.87 102.046 121.872L101.205 122.674C101.089 122.784 100.903 122.742 100.79 122.579C100.676 122.416 100.678 122.194 100.794 122.083L101.477 121.432Z" fill="#9BAF7A"/>
<path d="M98.4371 123.348C98.1986 123.043 98.2282 122.566 98.5018 122.305C98.7755 122.044 99.1803 122.107 99.3869 122.442L103.469 129.059C103.533 129.163 103.517 129.308 103.432 129.389C103.347 129.47 103.223 129.459 103.149 129.365L98.4371 123.348Z" fill="#889A6B"/>
<path d="M250.512 71.811C251.317 74.0738 252.272 76.1691 253.344 78.1072C252.656 80.4695 251.225 83.99 248.819 87.0233C246.36 90.1228 242.902 92.6939 238.171 93.0439C232.059 93.4961 228.509 93.8244 226.425 94.3989C225.375 94.6883 224.623 95.058 224.098 95.5985C223.563 96.1491 223.324 96.8137 223.177 97.5527C223.123 97.8248 223.134 98.1306 223.177 98.4409C223.22 98.7573 223.301 99.1117 223.409 99.4936C223.625 100.257 223.96 101.169 224.363 102.169C224.871 103.428 225.498 104.858 226.149 106.341C226.53 107.208 226.92 108.095 227.297 108.976C228.327 111.378 229.277 113.751 229.8 115.702C230.061 116.679 230.208 117.522 230.214 118.194C230.219 118.881 230.077 119.288 229.876 119.506C228.83 120.639 227.993 121.001 227.415 121.062C226.834 121.123 226.45 120.887 226.285 120.698L225.535 121.407C225.887 121.811 226.555 122.168 227.447 122.074C228.342 121.98 229.401 121.441 230.563 120.182C231.051 119.653 231.202 118.899 231.196 118.115C231.189 117.316 231.019 116.379 230.748 115.368C230.205 113.343 229.23 110.913 228.2 108.51C227.814 107.611 227.421 106.716 227.039 105.845C226.393 104.374 225.777 102.971 225.274 101.723C224.875 100.733 224.555 99.8592 224.353 99.1467C224.253 98.7905 224.184 98.4843 224.15 98.2302C224.114 97.97 224.118 97.7955 224.139 97.6904C224.266 97.047 224.445 96.625 224.766 96.2952C225.096 95.9551 225.639 95.6501 226.615 95.381C228.584 94.8385 232.017 94.5141 238.173 94.0587C243.257 93.6826 246.966 90.906 249.56 87.6359C251.787 84.8293 253.206 81.645 253.999 79.2483C262.311 93.1954 276.781 98.571 284.41 99.6317L285.168 99.2226L284.878 98.6851C276.383 97.621 258.328 90.7934 251.454 71.4757C247.05 59.0999 244.418 52.0302 242.292 48.053C241.227 46.0618 240.26 44.7889 239.215 44.0161C238.149 43.2274 237.048 42.9929 235.802 42.9773C235.379 42.972 234.925 43.1017 234.463 43.3058C233.997 43.5122 233.49 43.8096 232.953 44.175C231.88 44.9056 230.64 45.9382 229.297 47.1482C227.607 48.6708 225.72 50.5029 223.761 52.4054L223.76 52.4069C222.612 53.5219 221.439 54.6611 220.266 55.7763C217.074 58.8114 213.871 61.6789 211.08 63.5078C209.682 64.4231 208.419 65.0574 207.333 65.3332C206.253 65.6077 205.41 65.5136 204.771 65.0645C199.763 61.5445 199.942 58.3145 200.424 57.3319L199.526 56.8916C198.745 58.4834 198.96 62.2023 204.196 65.8826C205.158 66.5586 206.334 66.6188 207.58 66.3024C208.82 65.9872 210.191 65.2852 211.628 64.3443C214.503 62.4606 217.763 59.5357 220.955 56.5011C222.147 55.3678 223.328 54.2205 224.479 53.1026L224.48 53.1019L224.481 53.1011C226.427 51.21 228.288 49.4032 229.966 47.8912C231.299 46.6905 232.499 45.6938 233.516 45.0018C234.024 44.6559 234.476 44.3937 234.868 44.2203C235.265 44.0446 235.568 43.9744 235.789 43.9772C236.901 43.9912 237.775 44.1944 238.621 44.82C239.488 45.4614 240.37 46.5795 241.41 48.5245C243.493 52.4197 246.097 59.4034 250.512 71.811Z" fill="#889A6B"/>
<path d="M221.626 52.5928C221.591 52.5772 221.584 52.531 221.614 52.5078C221.767 52.39 221.942 52.3029 222.142 52.256C222.741 52.115 223.507 52.2929 224.141 52.5731C224.776 52.8532 225.423 53.2992 225.723 53.8371C225.832 54.0337 225.886 54.2407 225.896 54.453C225.896 54.4648 225.883 54.4722 225.872 54.4674L225.073 54.1146C224.963 54.0658 224.826 54.1322 224.769 54.2628C224.711 54.3933 224.754 54.5387 224.864 54.5874L225.663 54.9403C225.687 54.9509 225.712 54.956 225.738 54.9563C225.783 54.9568 225.836 54.9967 225.824 55.0404C225.743 55.3388 225.601 55.6385 225.429 55.9262C225.405 55.9665 225.335 55.9561 225.301 55.9231C225.285 55.9078 225.267 55.8952 225.246 55.886L224.447 55.5332C224.336 55.4844 224.2 55.5508 224.142 55.6814C224.085 55.8119 224.127 55.9573 224.238 56.006L225.037 56.3589C225.073 56.3747 225.1 56.4236 225.077 56.4546C224.953 56.6244 224.825 56.7861 224.702 56.9362C224.627 57.0272 224.548 57.1182 224.466 57.2087C224.455 57.2214 224.435 57.2234 224.42 57.2164L223.62 56.8635C223.51 56.8148 223.374 56.8812 223.316 57.0117C223.259 57.1423 223.301 57.2877 223.412 57.3364L223.994 57.5935C224.028 57.6084 224.036 57.6523 224.01 57.6777C223.767 57.9123 223.509 58.1418 223.248 58.3624C223.233 58.3752 223.212 58.3782 223.193 58.3701L222.794 58.1939C222.684 58.1452 222.548 58.2115 222.49 58.3421C222.432 58.4727 222.475 58.6181 222.585 58.6668L222.697 58.7162C222.733 58.732 222.74 58.7796 222.71 58.8038C222.355 59.0864 222.011 59.3467 221.711 59.5746C221.557 59.6912 221.414 59.7993 221.287 59.8976C221.192 59.9708 221.088 60.0414 220.967 60.0459C220.88 60.0491 220.814 60.0201 220.757 59.9533C220.679 59.8611 220.661 59.7364 220.651 59.617C220.638 59.4568 220.622 59.2786 220.605 59.0862C220.57 58.7105 220.531 58.2811 220.501 57.8287C220.499 57.7901 220.538 57.7629 220.574 57.7787L220.587 57.7846C220.698 57.8333 220.834 57.7669 220.892 57.6364C220.949 57.5058 220.907 57.3604 220.796 57.3117L220.496 57.1791C220.477 57.171 220.465 57.1532 220.465 57.1333C220.452 56.792 220.448 56.4467 220.457 56.1092C220.459 56.0727 220.497 56.0493 220.53 56.0642L221.014 56.2777C221.124 56.3265 221.26 56.2601 221.318 56.1295C221.376 55.999 221.333 55.8536 221.223 55.8049L220.529 55.4984C220.508 55.4893 220.495 55.4681 220.498 55.4459C220.509 55.3276 220.523 55.2114 220.539 55.098C220.567 54.9029 220.601 54.6964 220.644 54.4871C220.651 54.455 220.685 54.4375 220.716 54.4509L221.44 54.7709C221.551 54.8196 221.687 54.7533 221.745 54.6227C221.802 54.4921 221.76 54.3468 221.649 54.2981L220.85 53.9452C220.849 53.9447 220.848 53.9442 220.847 53.9437C220.815 53.9305 220.79 53.8975 220.8 53.8652C220.894 53.5583 221.015 53.2644 221.172 53.0119C221.189 52.9835 221.23 52.9809 221.26 52.9959C221.263 52.9972 221.265 52.9983 221.268 52.9994L222.067 53.3523C222.177 53.401 222.313 53.3347 222.371 53.2041C222.429 53.0735 222.386 52.9282 222.276 52.8795L221.626 52.5928Z" fill="#9BAF7A"/>
<path d="M224.335 53.2227C224.463 52.9733 224.352 52.6661 224.092 52.5513C223.832 52.4364 223.53 52.5611 223.432 52.8239L221.497 58.0168C221.466 58.0984 221.506 58.19 221.586 58.2257C221.667 58.2613 221.761 58.2287 221.801 58.1513L224.335 53.2227Z" fill="#889A6B"/>
<path d="M213.251 60.4067C213.25 60.3811 213.283 60.363 213.312 60.374C213.46 60.43 213.592 60.5081 213.703 60.613C214.034 60.928 214.18 61.4375 214.197 61.8994C214.215 62.3613 214.109 62.8803 213.803 63.2198C213.691 63.3439 213.55 63.4377 213.389 63.5071C213.38 63.5109 213.369 63.5053 213.369 63.4974L213.347 62.9156C213.344 62.8353 213.242 62.774 213.119 62.7787C212.996 62.7834 212.899 62.8523 212.902 62.9326L212.925 63.5144C212.925 63.5318 212.931 63.5483 212.94 63.5635C212.956 63.5909 212.945 63.634 212.907 63.64C212.645 63.6809 212.36 63.6859 212.073 63.6699C212.033 63.6677 212.015 63.6224 212.028 63.5923C212.034 63.5783 212.037 63.5636 212.036 63.5485L212.014 62.9667C212.011 62.8864 211.909 62.8251 211.786 62.8298C211.664 62.8345 211.567 62.9034 211.57 62.9837L211.592 63.5655C211.593 63.5915 211.565 63.6224 211.533 63.6182C211.355 63.595 211.182 63.5672 211.02 63.5386C210.922 63.5212 210.822 63.5014 210.721 63.4795C210.707 63.4765 210.699 63.4657 210.698 63.4541L210.676 62.8723C210.673 62.792 210.571 62.7307 210.448 62.7354C210.326 62.7401 210.229 62.809 210.232 62.8893L210.248 63.3132C210.249 63.3378 210.218 63.3559 210.189 63.3479C209.917 63.2734 209.643 63.1883 209.375 63.0989C209.36 63.0936 209.349 63.0818 209.349 63.0684L209.338 62.7779C209.335 62.6976 209.233 62.6363 209.11 62.641C208.987 62.6457 208.891 62.7146 208.894 62.795L208.897 62.8765C208.898 62.9026 208.863 62.9208 208.833 62.9099C208.483 62.7832 208.153 62.6563 207.865 62.5452C207.718 62.4884 207.581 62.4357 207.458 62.3893C207.366 62.3547 207.272 62.3136 207.224 62.243C207.189 62.1919 207.187 62.1441 207.218 62.0904C207.261 62.0163 207.351 61.9683 207.44 61.9267C207.559 61.871 207.692 61.808 207.834 61.7401C208.113 61.6073 208.432 61.4555 208.772 61.3023C208.801 61.2892 208.836 61.3047 208.837 61.3308L208.838 61.3405C208.841 61.4208 208.943 61.4821 209.066 61.4774C209.188 61.4727 209.285 61.4038 209.282 61.3234L209.274 61.1049C209.273 61.0915 209.282 61.0789 209.298 61.0725C209.558 60.9628 209.824 60.857 210.09 60.7619C210.118 60.7516 210.15 60.7673 210.151 60.7919L210.165 61.1439C210.168 61.2243 210.27 61.2856 210.393 61.2809C210.515 61.2762 210.612 61.2072 210.609 61.1269L210.59 60.6217C210.589 60.6066 210.601 60.5928 210.619 60.5874C210.715 60.5588 210.81 60.5323 210.904 60.5081C211.066 60.4666 211.239 60.425 211.417 60.3879C211.444 60.3822 211.471 60.3977 211.472 60.4199L211.492 60.9474C211.495 61.0278 211.597 61.0891 211.72 61.0844C211.842 61.0797 211.939 61.0107 211.936 60.9304L211.914 60.3486C211.914 60.3478 211.914 60.347 211.914 60.3461C211.912 60.3233 211.928 60.2986 211.957 60.2948C212.23 60.2591 212.503 60.243 212.757 60.2611C212.786 60.2631 212.803 60.2865 212.802 60.3091C212.802 60.3109 212.802 60.3127 212.802 60.3146L212.824 60.8964C212.828 60.9767 212.929 61.038 213.052 61.0333C213.175 61.0286 213.272 60.9597 213.269 60.8793L213.251 60.4067Z" fill="#9BAF7A"/>
<path d="M213.765 62.2092C214.006 62.211 214.203 62.0528 214.196 61.8634C214.189 61.674 213.98 61.5314 213.74 61.5517L208.995 61.9518C208.92 61.9581 208.863 62.0089 208.866 62.0677C208.868 62.1265 208.928 62.1729 209.003 62.1734L213.765 62.2092Z" fill="#889A6B"/>
<path d="M200.944 63.1007C200.922 63.0772 200.927 63.0435 200.954 63.0392C201.091 63.0174 201.237 63.0242 201.391 63.0673C201.856 63.1966 202.369 63.6017 202.764 64.0264C203.16 64.451 203.528 64.9916 203.624 65.464C203.659 65.6367 203.651 65.7954 203.611 65.9415C203.609 65.9495 203.598 65.9496 203.591 65.9423L203.093 65.4074C203.024 65.3336 202.911 65.3272 202.84 65.3932C202.769 65.4592 202.767 65.5726 202.836 65.6465L203.334 66.1814C203.349 66.1974 203.366 66.2102 203.384 66.2198C203.417 66.2372 203.446 66.2835 203.428 66.3084C203.303 66.4781 203.133 66.626 202.945 66.7549C202.918 66.7729 202.87 66.7396 202.853 66.7048C202.845 66.6886 202.834 66.6733 202.821 66.6594L202.323 66.1245C202.254 66.0507 202.141 66.0443 202.07 66.1103C201.999 66.1763 201.997 66.2897 202.066 66.3635L202.565 66.8984C202.587 66.9223 202.596 66.9653 202.572 66.9777C202.445 67.0452 202.316 67.1058 202.194 67.1603C202.119 67.1934 202.042 67.225 201.962 67.255C201.951 67.2592 201.937 67.2534 201.927 67.2428L201.429 66.7079C201.36 66.634 201.247 66.6276 201.176 66.6936C201.105 66.7597 201.103 66.873 201.172 66.9469L201.535 67.3366C201.556 67.3592 201.552 67.3917 201.528 67.3989C201.3 67.4656 201.062 67.5231 200.824 67.5736C200.811 67.5766 200.795 67.5706 200.783 67.5583L200.534 67.2912C200.465 67.2174 200.352 67.211 200.281 67.277C200.211 67.343 200.209 67.4564 200.278 67.5302L200.347 67.6052C200.37 67.6292 200.364 67.6636 200.337 67.6684C200.017 67.7255 199.711 67.7717 199.443 67.8122C199.306 67.8329 199.178 67.8521 199.064 67.8705C198.98 67.8842 198.888 67.8925 198.8 67.8504C198.736 67.82 198.695 67.776 198.67 67.7102C198.634 67.6192 198.649 67.5289 198.668 67.4452C198.695 67.333 198.723 67.2074 198.753 67.0719C198.813 66.8073 198.88 66.5049 198.96 66.1904C198.967 66.1635 199.001 66.1601 199.024 66.1841L199.032 66.193C199.101 66.2668 199.214 66.2732 199.285 66.2072C199.356 66.1412 199.357 66.0278 199.288 65.954L199.101 65.753C199.09 65.7407 199.085 65.7242 199.089 65.7106C199.156 65.477 199.23 65.244 199.313 65.0215C199.322 64.9974 199.354 64.9959 199.376 65.0185L199.677 65.3422C199.746 65.416 199.859 65.4224 199.93 65.3564C200.001 65.2904 200.002 65.177 199.934 65.1032L199.501 64.6386C199.488 64.6248 199.484 64.6059 199.49 64.5918C199.525 64.5168 199.561 64.444 199.598 64.3741C199.662 64.2539 199.733 64.1281 199.81 64.0038C199.822 63.9847 199.851 63.986 199.87 64.0063L200.322 64.4914C200.391 64.5652 200.504 64.5716 200.575 64.5056C200.646 64.4396 200.648 64.3262 200.579 64.2524L200.08 63.7175C200.08 63.7167 200.079 63.716 200.078 63.7152C200.058 63.6945 200.048 63.6631 200.062 63.6451C200.199 63.4746 200.352 63.3225 200.522 63.2119C200.541 63.1995 200.57 63.2129 200.589 63.2343C200.591 63.236 200.592 63.2377 200.594 63.2394L201.092 63.7743C201.161 63.8482 201.274 63.8545 201.345 63.7885C201.416 63.7225 201.417 63.6091 201.349 63.5353L200.944 63.1007Z" fill="#9BAF7A"/>
<path d="M202.759 64.5342C202.908 64.4148 202.896 64.1674 202.734 63.9933C202.571 63.8192 202.326 63.7901 202.196 63.9297L199.637 66.6881C199.596 66.7315 199.604 66.8075 199.655 66.8616C199.705 66.9156 199.78 66.9289 199.827 66.8919L202.759 64.5342Z" fill="#889A6B"/>
<path d="M245.786 59.8988C245.774 59.8675 245.788 59.8382 245.813 59.8456C245.938 59.8836 246.062 59.952 246.184 60.0581C246.55 60.3769 246.881 60.9744 247.103 61.5401C247.326 62.1058 247.492 62.7681 247.442 63.251C247.423 63.4274 247.372 63.5727 247.295 63.6921C247.291 63.6987 247.281 63.694 247.277 63.6843L246.997 62.9717C246.958 62.8733 246.862 62.8192 246.781 62.8507C246.701 62.8823 246.668 62.9877 246.707 63.086L246.987 63.7986C246.996 63.8199 247.007 63.8391 247.02 63.8559C247.043 63.8862 247.055 63.9418 247.032 63.9573C246.876 64.0627 246.687 64.1287 246.487 64.1692C246.459 64.1749 246.426 64.1229 246.421 64.083C246.419 64.0646 246.414 64.0458 246.407 64.0273L246.126 63.3147C246.087 63.2163 245.991 63.1621 245.911 63.1937C245.831 63.2253 245.797 63.3306 245.836 63.429L246.117 64.1416C246.129 64.1734 246.125 64.2174 246.101 64.219C245.971 64.2278 245.842 64.2298 245.721 64.2286C245.647 64.2278 245.571 64.2244 245.493 64.2186C245.482 64.2177 245.471 64.2062 245.466 64.1921L245.185 63.4795C245.146 63.3811 245.05 63.327 244.97 63.3585C244.89 63.3901 244.856 63.4955 244.895 63.5938L245.099 64.113C245.111 64.1432 245.099 64.172 245.075 64.1682C244.859 64.1335 244.637 64.0861 244.416 64.0321C244.403 64.029 244.391 64.0165 244.384 64.0001L244.244 63.6443C244.206 63.546 244.109 63.4918 244.029 63.5234C243.949 63.5549 243.915 63.6603 243.954 63.7587L243.993 63.8585C244.006 63.8905 243.991 63.9202 243.966 63.9131C243.673 63.8305 243.394 63.7432 243.15 63.6669C243.025 63.6278 242.909 63.5916 242.806 63.5603C242.728 63.5369 242.647 63.506 242.582 63.429C242.535 63.3733 242.512 63.3148 242.508 63.2421C242.503 63.1418 242.542 63.0637 242.582 62.9937C242.637 62.9 242.697 62.7945 242.762 62.6807C242.888 62.4584 243.033 62.2044 243.191 61.9441C243.204 61.9219 243.235 61.9335 243.248 61.9655L243.252 61.9772C243.291 62.0756 243.388 62.1298 243.468 62.0982C243.548 62.0667 243.581 61.9613 243.543 61.8629L243.437 61.5952C243.431 61.5788 243.431 61.5613 243.438 61.5503C243.563 61.3604 243.693 61.174 243.828 61.001C243.842 60.9823 243.871 60.9949 243.883 61.025L244.053 61.4561C244.092 61.5545 244.188 61.6087 244.268 61.5771C244.348 61.5455 244.382 61.4402 244.343 61.3418L244.099 60.723C244.092 60.7046 244.094 60.6851 244.103 60.6747C244.155 60.6192 244.206 60.5665 244.259 60.5169C244.348 60.4317 244.445 60.3442 244.548 60.2609C244.563 60.2482 244.588 60.2618 244.599 60.2889L244.853 60.935C244.892 61.0334 244.989 61.0876 245.069 61.056C245.149 61.0244 245.182 60.9191 245.144 60.8207L244.863 60.1081C244.863 60.1071 244.862 60.1061 244.862 60.1051C244.85 60.0773 244.85 60.0434 244.868 60.0327C245.034 59.9313 245.21 59.8542 245.389 59.8231C245.409 59.8196 245.431 59.8448 245.441 59.8727C245.442 59.875 245.443 59.8772 245.443 59.8795L245.724 60.5921C245.763 60.6904 245.859 60.7446 245.939 60.713C246.02 60.6815 246.053 60.5761 246.014 60.4777L245.786 59.8988Z" fill="#9BAF7A"/>
<path d="M246.955 62.0128C247.117 61.9644 247.177 61.728 247.086 61.4961C246.995 61.2641 246.79 61.1321 246.638 61.2075L243.637 62.698C243.59 62.7214 243.575 62.7959 243.603 62.8679C243.632 62.94 243.693 62.9845 243.744 62.9694L246.955 62.0128Z" fill="#889A6B"/>
<path d="M245.92 57.5542C245.901 57.5267 245.869 57.5223 245.862 57.5469C245.825 57.6722 245.813 57.8137 245.835 57.9739C245.9 58.4551 246.218 59.0594 246.568 59.5564C246.918 60.0535 247.381 60.5559 247.812 60.7791C247.969 60.8607 248.119 60.8974 248.261 60.8992C248.269 60.8993 248.27 60.8886 248.264 60.8801L247.823 60.254C247.762 60.1676 247.77 60.0573 247.84 60.0077C247.91 59.9581 248.017 59.9879 248.078 60.0743L248.519 60.7004C248.532 60.7191 248.542 60.7389 248.549 60.759C248.561 60.7955 248.601 60.836 248.627 60.8253C248.801 60.7522 248.96 60.6306 249.104 60.486C249.124 60.4658 249.098 60.4098 249.068 60.3837C249.053 60.3716 249.04 60.3573 249.029 60.3411L248.588 59.715C248.527 59.6286 248.535 59.5183 248.605 59.4687C248.675 59.419 248.782 59.4489 248.843 59.5353L249.284 60.1614C249.304 60.1893 249.343 60.2097 249.357 60.1908C249.436 60.0871 249.508 59.9808 249.574 59.8783C249.614 59.8161 249.653 59.7508 249.691 59.6828C249.696 59.6732 249.692 59.658 249.684 59.6455L249.243 59.0195C249.182 58.933 249.189 58.8227 249.26 58.7731C249.33 58.7235 249.437 58.7534 249.498 58.8398L249.819 59.2959C249.838 59.3224 249.868 59.3278 249.878 59.3062C249.968 59.1062 250.051 58.8943 250.127 58.6805C250.131 58.668 250.128 58.6509 250.117 58.6365L249.897 58.3239C249.836 58.2375 249.844 58.1272 249.914 58.0776C249.985 58.028 250.091 58.0578 250.152 58.1443L250.214 58.232C250.234 58.2601 250.267 58.264 250.275 58.2392C250.367 57.9489 250.447 57.668 250.517 57.4221C250.553 57.2962 250.587 57.1796 250.618 57.0756C250.641 56.998 250.66 56.913 250.631 56.8167C250.61 56.747 250.574 56.6956 250.515 56.6525C250.434 56.593 250.348 56.5822 250.267 56.5778C250.158 56.572 250.037 56.5641 249.907 56.5557C249.652 56.5392 249.36 56.5203 249.056 56.5093C249.03 56.5083 249.022 56.5407 249.042 56.5688L249.049 56.5791C249.11 56.6656 249.103 56.7759 249.032 56.8255C248.962 56.8751 248.855 56.8452 248.794 56.7588L248.629 56.5236C248.618 56.5092 248.604 56.5 248.59 56.4999C248.363 56.4996 248.136 56.5061 247.918 56.5235C247.894 56.5254 247.889 56.5564 247.907 56.5828L248.174 56.9616C248.235 57.0481 248.227 57.1584 248.157 57.208C248.086 57.2576 247.98 57.2277 247.919 57.1413L247.536 56.5976C247.525 56.5814 247.507 56.572 247.493 56.5744C247.419 56.5868 247.346 56.6011 247.276 56.6173C247.156 56.6454 247.03 56.6783 246.904 56.7182C246.884 56.7244 246.882 56.7526 246.899 56.7764L247.299 57.3441C247.36 57.4306 247.352 57.5409 247.282 57.5905C247.211 57.6401 247.105 57.6103 247.044 57.5238L246.603 56.8978C246.602 56.8969 246.601 56.896 246.601 56.8951C246.584 56.8703 246.556 56.8514 246.537 56.8602C246.361 56.9439 246.2 57.0481 246.076 57.1804C246.062 57.1952 246.071 57.2275 246.088 57.2513C246.09 57.2532 246.091 57.2551 246.093 57.2571L246.534 57.8832C246.595 57.9696 246.587 58.0799 246.517 58.1295C246.446 58.1791 246.34 58.1493 246.279 58.0628L245.92 57.5542Z" fill="#9BAF7A"/>
<path d="M247.045 59.6921C246.915 59.8013 246.684 59.7216 246.541 59.5178C246.397 59.3139 246.4 59.0701 246.546 58.9846L249.44 57.2962C249.486 57.2697 249.556 57.2984 249.601 57.3617C249.645 57.4249 249.649 57.5008 249.608 57.5347L247.045 59.6921Z" fill="#889A6B"/>
<path d="M260.517 84.9725C260.515 84.9296 260.549 84.9005 260.578 84.9199C260.727 85.0188 260.861 85.1539 260.973 85.3331C261.309 85.8715 261.461 86.7285 261.484 87.5016C261.506 88.2746 261.405 89.139 261.101 89.6962C260.99 89.8997 260.85 90.0518 260.688 90.1622C260.68 90.1683 260.669 90.1586 260.668 90.1453L260.64 89.1716C260.636 89.0372 260.533 88.9311 260.41 88.9347C260.287 88.9383 260.19 89.0502 260.194 89.1847L260.222 90.1584C260.223 90.1875 260.229 90.2153 260.238 90.2409C260.255 90.2874 260.244 90.3591 260.205 90.3678C259.943 90.4271 259.657 90.4256 259.369 90.3889C259.328 90.3838 259.31 90.3075 259.322 90.2575C259.328 90.2344 259.331 90.2099 259.33 90.1846L259.302 89.2108C259.298 89.0764 259.195 88.9703 259.072 88.9739C258.949 88.9776 258.852 89.0895 258.856 89.2239L258.884 90.1976C258.886 90.2411 258.858 90.2919 258.825 90.2837C258.647 90.2388 258.473 90.1862 258.31 90.1328C258.211 90.1003 258.11 90.0638 258.009 90.0237C257.995 90.018 257.986 89.9997 257.985 89.9804L257.957 89.0066C257.953 88.8722 257.85 88.7661 257.727 88.7697C257.603 88.7733 257.507 88.8853 257.511 89.0197L257.532 89.7291C257.533 89.7704 257.502 89.7995 257.472 89.785C257.198 89.651 256.923 89.4993 256.653 89.3404C256.637 89.3312 256.627 89.311 256.626 89.2886L256.612 88.8024C256.608 88.668 256.505 88.5619 256.382 88.5655C256.258 88.5691 256.162 88.6811 256.166 88.8155L256.17 88.9519C256.171 88.9956 256.137 89.0248 256.106 89.0057C255.753 88.7816 255.421 88.5579 255.13 88.3622C254.981 88.262 254.843 88.1692 254.719 88.0873C254.626 88.0263 254.532 87.9544 254.483 87.8346C254.447 87.7479 254.445 87.6679 254.475 87.5793C254.518 87.4568 254.607 87.3796 254.696 87.3132C254.816 87.2242 254.948 87.1234 255.091 87.0147C255.369 86.8023 255.688 86.5596 256.027 86.3151C256.056 86.2942 256.093 86.3214 256.094 86.3651L256.094 86.3812C256.098 86.5156 256.201 86.6217 256.324 86.6181C256.448 86.6145 256.544 86.5025 256.54 86.3681L256.53 86.0023C256.529 85.9799 256.538 85.9591 256.553 85.9489C256.813 85.7746 257.08 85.6069 257.345 85.4571C257.374 85.4409 257.407 85.4682 257.408 85.5094L257.425 86.0985C257.429 86.233 257.532 86.339 257.655 86.3354C257.778 86.3318 257.875 86.2199 257.871 86.0854L257.846 85.2399C257.846 85.2147 257.857 85.1919 257.875 85.1836C257.971 85.1391 258.067 85.098 258.161 85.0608C258.323 84.997 258.496 84.9334 258.675 84.8775C258.702 84.8689 258.729 84.8959 258.73 84.9329L258.756 85.8159C258.76 85.9503 258.863 86.0564 258.986 86.0528C259.109 86.0491 259.206 85.9372 259.202 85.8028L259.173 84.8291C259.173 84.8277 259.173 84.8263 259.173 84.8249C259.172 84.7867 259.188 84.7459 259.217 84.7406C259.49 84.6904 259.764 84.6729 260.019 84.7119C260.048 84.7163 260.065 84.7559 260.065 84.7937C260.065 84.7968 260.065 84.7998 260.065 84.8029L260.094 85.7766C260.098 85.9111 260.201 86.0171 260.324 86.0135C260.447 86.0099 260.544 85.898 260.54 85.7636L260.517 84.9725Z" fill="#9BAF7A"/>
<path d="M261.053 88.0047C261.295 88.016 261.491 87.7584 261.482 87.4414C261.473 87.1244 261.262 86.8787 261.02 86.9042L256.258 87.4089C256.183 87.4169 256.127 87.4999 256.13 87.5983C256.133 87.6967 256.194 87.7763 256.269 87.7799L261.053 88.0047Z" fill="#889A6B"/>
<path d="M224.252 106.29C224.23 106.266 224.246 106.225 224.283 106.217C224.469 106.172 224.657 106.16 224.848 106.189C225.419 106.278 225.975 106.685 226.371 107.131C226.767 107.578 227.094 108.165 227.084 108.708C227.08 108.907 227.025 109.096 226.93 109.273C226.925 109.283 226.91 109.285 226.903 109.277L226.404 108.715C226.335 108.637 226.189 108.645 226.077 108.733C225.965 108.821 225.931 108.955 225.999 109.032L226.499 109.594C226.513 109.611 226.532 109.624 226.553 109.633C226.591 109.649 226.616 109.699 226.585 109.731C226.372 109.949 226.107 110.146 225.824 110.324C225.784 110.349 225.73 110.317 225.717 110.278C225.712 110.26 225.702 110.243 225.689 110.229L225.19 109.667C225.121 109.589 224.975 109.597 224.863 109.685C224.751 109.772 224.717 109.906 224.786 109.984L225.285 110.546C225.307 110.571 225.306 110.621 225.272 110.638C225.085 110.736 224.9 110.825 224.723 110.906C224.616 110.955 224.506 111.003 224.393 111.05C224.377 111.056 224.36 111.051 224.35 111.04L223.851 110.478C223.783 110.4 223.636 110.408 223.524 110.496C223.413 110.583 223.378 110.717 223.447 110.795L223.81 111.205C223.831 111.228 223.817 111.267 223.783 111.279C223.465 111.389 223.137 111.49 222.812 111.582C222.793 111.587 222.773 111.583 222.762 111.57L222.513 111.289C222.444 111.211 222.297 111.219 222.186 111.307C222.074 111.395 222.039 111.529 222.108 111.606L222.178 111.685C222.2 111.71 222.183 111.751 222.146 111.761C221.711 111.872 221.296 111.969 220.934 112.054C220.748 112.097 220.576 112.137 220.421 112.174C220.306 112.202 220.185 112.225 220.081 112.187C220.006 112.16 219.965 112.114 219.95 112.04C219.93 111.937 219.975 111.829 220.025 111.728C220.091 111.592 220.164 111.44 220.243 111.276C220.397 110.955 220.572 110.589 220.767 110.208C220.783 110.175 220.83 110.166 220.852 110.191L220.86 110.201C220.929 110.278 221.076 110.27 221.187 110.183C221.299 110.095 221.334 109.961 221.265 109.883L221.078 109.672C221.066 109.659 221.064 109.64 221.073 109.624C221.228 109.339 221.393 109.054 221.565 108.78C221.583 108.751 221.626 108.744 221.648 108.768L221.95 109.108C222.018 109.186 222.165 109.178 222.277 109.09C222.388 109.003 222.423 108.869 222.354 108.791L221.921 108.303C221.908 108.288 221.908 108.267 221.92 108.249C221.987 108.156 222.055 108.065 222.124 107.978C222.242 107.827 222.371 107.669 222.508 107.512C222.529 107.487 222.567 107.485 222.586 107.506L223.039 108.016C223.108 108.094 223.254 108.086 223.366 107.998C223.478 107.91 223.512 107.777 223.443 107.699L222.944 107.137C222.944 107.136 222.943 107.135 222.942 107.134C222.922 107.113 222.917 107.077 222.941 107.054C223.169 106.834 223.413 106.634 223.667 106.48C223.696 106.462 223.731 106.474 223.749 106.497C223.751 106.499 223.752 106.5 223.754 106.502L224.253 107.064C224.322 107.142 224.468 107.134 224.58 107.046C224.692 106.959 224.726 106.825 224.657 106.747L224.252 106.29Z" fill="#9BAF7A"/>
<path d="M226.218 107.731C226.447 107.57 226.503 107.28 226.34 107.097C226.178 106.914 225.864 106.913 225.654 107.096L221.51 110.701C221.445 110.758 221.434 110.847 221.484 110.903C221.535 110.96 221.629 110.965 221.7 110.915L226.218 107.731Z" fill="#889A6B"/>
<path d="M231.948 92.9898C231.916 92.9539 231.941 92.8947 231.994 92.8815C232.267 92.8147 232.543 92.7953 232.821 92.8366C233.657 92.9605 234.467 93.5499 235.042 94.1982C235.618 94.8464 236.09 95.7007 236.069 96.4954C236.062 96.7859 235.979 97.0614 235.838 97.322C235.83 97.3364 235.809 97.339 235.799 97.3279L235.074 96.5113C234.974 96.3985 234.759 96.4117 234.595 96.5408C234.43 96.6698 234.378 96.8658 234.478 96.9785L235.203 97.7951C235.224 97.8195 235.251 97.838 235.282 97.8507C235.338 97.8738 235.373 97.9475 235.327 97.9944C235.013 98.314 234.623 98.6054 234.207 98.868C234.148 98.9047 234.069 98.8576 234.051 98.8012C234.043 98.7751 234.03 98.7509 234.011 98.7297L233.286 97.9131C233.186 97.8003 232.971 97.8135 232.807 97.9426C232.642 98.0716 232.59 98.2676 232.69 98.3803L233.415 99.1969C233.447 99.2334 233.445 99.3057 233.395 99.332C233.121 99.4757 232.848 99.6078 232.589 99.7281C232.432 99.8011 232.27 99.872 232.104 99.9409C232.081 99.9505 232.056 99.9435 232.041 99.9273L231.316 99.1107C231.216 98.998 231.002 99.0112 230.837 99.1402C230.673 99.2692 230.62 99.4652 230.72 99.578L231.249 100.173C231.279 100.208 231.258 100.264 231.207 100.282C230.741 100.446 230.26 100.596 229.782 100.734C229.754 100.742 229.726 100.735 229.709 100.716L229.347 100.308C229.247 100.196 229.032 100.209 228.868 100.338C228.703 100.467 228.651 100.663 228.751 100.776L228.853 100.89C228.885 100.927 228.859 100.987 228.805 101.002C228.167 101.168 227.559 101.313 227.026 101.441C226.754 101.506 226.501 101.566 226.275 101.622C226.106 101.664 225.927 101.698 225.776 101.644C225.667 101.605 225.607 101.538 225.586 101.43C225.557 101.28 225.625 101.121 225.699 100.973C225.798 100.773 225.906 100.551 226.023 100.31C226.252 99.8411 226.513 99.3047 226.802 98.7452C226.826 98.6973 226.894 98.6841 226.927 98.7207L226.939 98.7342C227.039 98.8469 227.254 98.8337 227.418 98.7047C227.583 98.5757 227.635 98.3797 227.535 98.2669L227.263 97.9601C227.246 97.9413 227.244 97.9139 227.257 97.8896C227.487 97.4723 227.731 97.0543 227.986 96.6526C228.013 96.6091 228.077 96.5996 228.107 96.6342L228.546 97.1282C228.646 97.241 228.86 97.2278 229.025 97.0988C229.19 96.9697 229.242 96.7737 229.142 96.661L228.512 95.9518C228.494 95.9307 228.493 95.8991 228.512 95.8734C228.611 95.7364 228.712 95.6032 228.813 95.4746C228.988 95.2535 229.178 95.0213 229.381 94.7902C229.412 94.7547 229.468 94.7508 229.495 94.7818L230.153 95.5223C230.253 95.635 230.467 95.6218 230.632 95.4928C230.797 95.3638 230.849 95.1678 230.749 95.055L230.024 94.2384C230.023 94.2373 230.022 94.2361 230.021 94.235C229.991 94.2035 229.985 94.1517 230.02 94.1175C230.356 93.794 230.715 93.499 231.089 93.2719C231.132 93.2463 231.183 93.2631 231.209 93.296C231.211 93.2987 231.214 93.3013 231.216 93.3039L231.941 94.1205C232.041 94.2332 232.255 94.22 232.42 94.091C232.585 93.962 232.637 93.766 232.537 93.6532L231.948 92.9898Z" fill="#9BAF7A"/>
<path d="M234.812 95.0756C235.149 94.838 235.233 94.4135 234.997 94.1477C234.761 93.8818 234.302 93.8842 233.993 94.1527L227.885 99.4594C227.789 99.5428 227.772 99.6724 227.845 99.7549C227.918 99.8374 228.057 99.8443 228.162 99.7705L234.812 95.0756Z" fill="#889A6B"/>
<path d="M250.428 89.2756C250.459 89.28 250.49 89.2483 250.484 89.2168C250.454 89.0569 250.393 88.9103 250.292 88.7827C249.99 88.3996 249.399 88.1818 248.832 88.1019C248.266 88.022 247.596 88.062 247.096 88.3318C246.913 88.4305 246.76 88.5628 246.631 88.7193C246.624 88.728 246.628 88.7397 246.638 88.7411L247.351 88.8417C247.45 88.8556 247.499 88.9687 247.461 89.0943C247.422 89.2199 247.312 89.3104 247.213 89.2965L246.5 89.1959C246.478 89.1929 246.459 89.1852 246.443 89.1738C246.414 89.1531 246.357 89.1593 246.34 89.1979C246.22 89.4616 246.139 89.7543 246.083 90.0515C246.075 90.093 246.126 90.1177 246.167 90.1084C246.186 90.1041 246.205 90.103 246.223 90.1056L246.936 90.2062C247.035 90.2201 247.084 90.3332 247.046 90.4588C247.007 90.5844 246.897 90.675 246.798 90.6611L246.085 90.5604C246.053 90.5559 246.007 90.5804 246.004 90.6144C245.986 90.8004 245.974 90.9819 245.967 91.1526C245.963 91.2562 245.961 91.3615 245.961 91.468C245.961 91.483 245.972 91.4933 245.986 91.4953L246.7 91.5959C246.798 91.6098 246.847 91.7229 246.809 91.8485C246.771 91.9741 246.66 92.0646 246.561 92.0508L246.042 91.9774C246.012 91.9732 245.981 92.0026 245.983 92.0339C246.004 92.3237 246.036 92.6168 246.076 92.9042C246.079 92.9209 246.091 92.933 246.107 92.9354L246.463 92.9856C246.562 92.9995 246.611 93.1126 246.572 93.2382C246.534 93.3638 246.423 93.4543 246.325 93.4404L246.225 93.4264C246.193 93.4218 246.161 93.4549 246.167 93.4872C246.231 93.8648 246.301 94.2207 246.362 94.5321C246.393 94.6915 246.422 94.8392 246.447 94.9723C246.466 95.0715 246.492 95.1731 246.566 95.2322C246.62 95.2749 246.679 95.2832 246.753 95.2585C246.856 95.2245 246.94 95.1384 247.014 95.0523C247.115 94.9368 247.228 94.8091 247.349 94.6713C247.587 94.4021 247.859 94.0944 248.138 93.7652C248.162 93.7371 248.152 93.6982 248.12 93.6937L248.108 93.692C248.01 93.6781 247.961 93.565 247.999 93.4394C248.037 93.3138 248.148 93.2233 248.247 93.2372L248.515 93.275C248.531 93.2773 248.549 93.2694 248.561 93.2547C248.765 93.0017 248.966 92.7417 249.154 92.4812C249.174 92.453 249.163 92.4178 249.133 92.4135L248.702 92.3526C248.603 92.3387 248.554 92.2257 248.592 92.1C248.631 91.9744 248.741 91.8839 248.84 91.8978L249.459 91.9852C249.478 91.9878 249.498 91.9775 249.509 91.9597C249.57 91.8647 249.628 91.7703 249.683 91.6767C249.777 91.5157 249.874 91.3434 249.967 91.165C249.981 91.1377 249.969 91.1083 249.942 91.1045L249.295 91.0132C249.196 90.9994 249.148 90.8863 249.186 90.7607C249.224 90.6351 249.335 90.5445 249.433 90.5584L250.147 90.659C250.148 90.6592 250.149 90.6593 250.15 90.6595C250.177 90.664 250.212 90.6506 250.225 90.6214C250.341 90.3453 250.433 90.0669 250.477 89.803C250.482 89.7733 250.458 89.7527 250.43 89.7501C250.428 89.7499 250.425 89.7497 250.423 89.7493L249.71 89.6487C249.611 89.6348 249.562 89.5217 249.601 89.3961C249.639 89.2705 249.75 89.18 249.848 89.1939L250.428 89.2756Z" fill="#9BAF7A"/>
<path d="M248.335 88.5053C248.397 88.257 248.644 88.0753 248.876 88.1081C249.109 88.1408 249.23 88.3745 249.141 88.619L247.394 93.4492C247.366 93.5251 247.289 93.5764 247.217 93.5662C247.144 93.5561 247.103 93.4879 247.122 93.4108L248.335 88.5053Z" fill="#889A6B"/>
<path d="M223.718 94.6108C223.726 94.5728 223.764 94.5501 223.787 94.5699C223.906 94.6709 224.002 94.8025 224.067 94.9712C224.263 95.4779 224.214 96.2498 224.062 96.9357C223.911 97.6216 223.621 98.3771 223.21 98.8424C223.06 99.0124 222.893 99.1342 222.716 99.2173C222.707 99.2219 222.699 99.2123 222.701 99.2005L222.893 98.3366C222.919 98.2173 222.846 98.1141 222.729 98.1062C222.612 98.0982 222.496 98.1885 222.469 98.3078L222.278 99.1717C222.272 99.1975 222.271 99.2226 222.274 99.2461C222.28 99.2888 222.253 99.3512 222.215 99.3554C221.954 99.3841 221.685 99.3568 221.421 99.2983C221.385 99.2901 221.384 99.2209 221.407 99.1779C221.418 99.158 221.426 99.1365 221.431 99.1141L221.622 98.2501C221.649 98.1308 221.575 98.0277 221.458 98.0197C221.342 98.0117 221.225 98.102 221.199 98.2213L221.008 99.0852C220.999 99.1238 220.962 99.1662 220.933 99.156C220.774 99.1001 220.622 99.0379 220.48 98.9758C220.394 98.9381 220.308 98.8967 220.221 98.852C220.209 98.8458 220.205 98.8288 220.209 98.8116L220.4 97.9476C220.426 97.8284 220.353 97.7252 220.236 97.7172C220.119 97.7093 220.003 97.7995 219.976 97.9188L219.837 98.5483C219.829 98.5848 219.793 98.6078 219.769 98.5923C219.54 98.449 219.314 98.2897 219.096 98.1248C219.083 98.1152 219.078 98.0964 219.082 98.0765L219.177 97.6452C219.204 97.5259 219.13 97.4227 219.014 97.4148C218.897 97.4068 218.78 97.4971 218.754 97.6163L218.727 97.7374C218.719 97.7761 218.68 97.7989 218.655 97.7792C218.372 97.5489 218.109 97.321 217.879 97.1216C217.761 97.0195 217.652 96.9249 217.553 96.8412C217.48 96.7788 217.407 96.7067 217.387 96.5963C217.373 96.5163 217.389 96.4453 217.437 96.3697C217.505 96.2652 217.607 96.205 217.705 96.1543C217.838 96.0864 217.985 96.0092 218.144 95.9259C218.454 95.7633 218.809 95.5774 219.184 95.392C219.216 95.3761 219.244 95.4034 219.235 95.4422L219.232 95.4565C219.206 95.5757 219.279 95.6789 219.396 95.6869C219.513 95.6948 219.629 95.6046 219.656 95.4853L219.728 95.1607C219.732 95.1408 219.745 95.1233 219.762 95.1157C220.046 94.985 220.335 94.8608 220.619 94.7523C220.65 94.7406 220.674 94.7677 220.666 94.8042L220.55 95.3269C220.524 95.4462 220.597 95.5494 220.714 95.5574C220.831 95.5653 220.947 95.4751 220.974 95.3558L221.14 94.6055C221.145 94.5832 221.161 94.5641 221.18 94.5584C221.28 94.5277 221.38 94.5 221.477 94.4757C221.644 94.4338 221.821 94.3933 222.002 94.36C222.03 94.3549 222.049 94.3812 222.042 94.414L221.868 95.1974C221.842 95.3167 221.915 95.4199 222.032 95.4278C222.149 95.4358 222.265 95.3456 222.292 95.2263L222.483 94.3623C222.483 94.3611 222.484 94.3599 222.484 94.3587C222.491 94.3247 222.515 94.2901 222.544 94.288C222.813 94.2684 223.075 94.2777 223.307 94.3353C223.333 94.3418 223.341 94.3784 223.332 94.4118C223.331 94.4145 223.331 94.4172 223.33 94.42L223.139 95.2839C223.112 95.4032 223.186 95.5064 223.303 95.5143C223.42 95.5223 223.536 95.432 223.562 95.3128L223.718 94.6108Z" fill="#9BAF7A"/>
<path d="M223.543 97.3417C223.769 97.3737 224.012 97.1636 224.074 96.8823C224.137 96.601 223.993 96.3646 223.76 96.3653L219.156 96.3804C219.084 96.3807 219.012 96.4491 218.993 96.5364C218.974 96.6237 219.013 96.6996 219.084 96.7096L223.543 97.3417Z" fill="#889A6B"/>
<path d="M228.344 122.333C228.314 122.355 228.271 122.342 228.265 122.307C228.235 122.133 228.241 121.954 228.293 121.771C228.45 121.221 228.957 120.669 229.492 120.266C230.027 119.864 230.71 119.52 231.311 119.499C231.531 119.491 231.734 119.533 231.921 119.614C231.931 119.618 231.931 119.632 231.922 119.639L231.249 120.146C231.156 120.216 231.149 120.355 231.235 120.457C231.32 120.558 231.465 120.584 231.558 120.514L232.232 120.007C232.252 119.992 232.268 119.973 232.28 119.953C232.302 119.916 232.36 119.889 232.392 119.917C232.611 120.108 232.803 120.349 232.971 120.609C232.994 120.646 232.953 120.699 232.909 120.713C232.888 120.72 232.869 120.73 232.851 120.743L232.178 121.25C232.085 121.32 232.079 121.459 232.164 121.56C232.25 121.662 232.394 121.688 232.487 121.618L233.161 121.111C233.191 121.088 233.246 121.086 233.262 121.117C233.35 121.29 233.43 121.462 233.502 121.625C233.546 121.724 233.587 121.827 233.627 121.932C233.632 121.947 233.625 121.963 233.612 121.973L232.938 122.48C232.845 122.55 232.839 122.689 232.925 122.791C233.01 122.893 233.155 122.918 233.248 122.848L233.739 122.479C233.767 122.457 233.809 122.469 233.819 122.501C233.908 122.797 233.985 123.104 234.054 123.409C234.058 123.427 234.051 123.446 234.035 123.458L233.699 123.711C233.606 123.781 233.6 123.92 233.686 124.021C233.771 124.123 233.916 124.149 234.009 124.079L234.103 124.008C234.133 123.985 234.177 123.999 234.184 124.034C234.263 124.442 234.327 124.832 234.384 125.173C234.413 125.347 234.44 125.509 234.465 125.654C234.484 125.762 234.496 125.877 234.444 125.978C234.407 126.051 234.351 126.092 234.268 126.111C234.152 126.136 234.037 126.099 233.93 126.057C233.786 126.001 233.625 125.94 233.452 125.875C233.113 125.746 232.726 125.599 232.323 125.435C232.288 125.421 232.283 125.377 232.314 125.355L232.325 125.346C232.418 125.276 232.424 125.137 232.338 125.036C232.253 124.934 232.108 124.908 232.015 124.978L231.762 125.169C231.747 125.181 231.726 125.183 231.708 125.175C231.409 125.044 231.11 124.903 230.825 124.755C230.794 124.738 230.791 124.698 230.82 124.676L231.227 124.369C231.32 124.299 231.326 124.16 231.241 124.059C231.155 123.957 231.011 123.931 230.918 124.001L230.333 124.442C230.315 124.455 230.291 124.456 230.273 124.445C230.177 124.387 230.083 124.327 229.993 124.266C229.839 124.162 229.677 124.048 229.517 123.926C229.492 123.907 229.493 123.871 229.519 123.852L230.13 123.392C230.223 123.322 230.229 123.183 230.143 123.082C230.058 122.98 229.913 122.954 229.82 123.025L229.147 123.532L229.144 123.534C229.118 123.554 229.078 123.561 229.055 123.539C228.834 123.334 228.638 123.113 228.493 122.879C228.477 122.853 228.494 122.819 228.521 122.8C228.523 122.799 228.525 122.797 228.527 122.796L229.201 122.289C229.294 122.219 229.3 122.08 229.214 121.978C229.129 121.876 228.984 121.851 228.891 121.921L228.344 122.333Z" fill="#9BAF7A"/>
<path d="M230.14 120.378C229.985 120.17 229.67 120.133 229.45 120.298C229.231 120.463 229.198 120.762 229.379 120.951L232.946 124.699C233.002 124.758 233.099 124.764 233.167 124.712C233.235 124.661 233.25 124.571 233.202 124.506L230.14 120.378Z" fill="#889A6B"/>
<path d="M225.649 118.277C225.662 118.228 225.726 118.202 225.765 118.231C225.968 118.376 226.131 118.559 226.245 118.789C226.585 119.477 226.517 120.491 226.273 121.38C226.03 122.269 225.557 123.236 224.871 123.808C224.621 124.017 224.342 124.161 224.046 124.252C224.03 124.257 224.016 124.244 224.02 124.228L224.327 123.108C224.369 122.954 224.243 122.81 224.046 122.787C223.849 122.765 223.655 122.872 223.612 123.027L223.306 124.147C223.296 124.18 223.295 124.213 223.301 124.245C223.311 124.302 223.267 124.381 223.203 124.383C222.764 124.394 222.309 124.33 221.864 124.226C221.801 124.211 221.799 124.12 221.837 124.066C221.855 124.041 221.869 124.013 221.877 123.984L222.183 122.864C222.225 122.709 222.1 122.565 221.902 122.543C221.705 122.52 221.511 122.628 221.469 122.782L221.162 123.903C221.148 123.953 221.086 124.005 221.037 123.988C220.769 123.898 220.511 123.8 220.271 123.704C220.125 123.645 219.978 123.582 219.831 123.514C219.811 123.505 219.803 123.482 219.81 123.46L220.116 122.339C220.158 122.185 220.033 122.041 219.835 122.019C219.638 121.996 219.444 122.103 219.402 122.258L219.178 123.074C219.165 123.121 219.106 123.148 219.064 123.125C218.676 122.913 218.292 122.679 217.92 122.439C217.898 122.425 217.889 122.4 217.896 122.374L218.049 121.815C218.091 121.66 217.966 121.517 217.768 121.494C217.571 121.472 217.377 121.579 217.335 121.733L217.292 121.89C217.278 121.941 217.212 121.967 217.171 121.938C216.69 121.605 216.242 121.278 215.85 120.991C215.65 120.844 215.464 120.708 215.295 120.587C215.17 120.498 215.046 120.395 215.011 120.247C214.986 120.14 215.011 120.048 215.091 119.953C215.203 119.822 215.373 119.754 215.539 119.697C215.761 119.621 216.008 119.534 216.274 119.441C216.795 119.258 217.389 119.049 218.018 118.843C218.072 118.825 218.12 118.864 218.106 118.914L218.101 118.933C218.059 119.087 218.184 119.231 218.382 119.254C218.579 119.276 218.773 119.169 218.816 119.014L218.931 118.593C218.938 118.568 218.96 118.546 218.988 118.538C219.465 118.394 219.949 118.26 220.426 118.146C220.478 118.134 220.52 118.172 220.507 118.219L220.321 118.897C220.279 119.052 220.405 119.195 220.602 119.218C220.799 119.24 220.994 119.133 221.036 118.979L221.302 118.006C221.31 117.977 221.337 117.953 221.369 117.948C221.538 117.918 221.704 117.891 221.868 117.869C222.149 117.831 222.447 117.796 222.752 117.77C222.798 117.767 222.831 117.803 222.82 117.846L222.542 118.862C222.499 119.016 222.625 119.16 222.822 119.182C223.02 119.205 223.214 119.098 223.256 118.943L223.563 117.823C223.563 117.821 223.564 117.82 223.564 117.818C223.575 117.774 223.615 117.731 223.663 117.731C224.117 117.733 224.559 117.772 224.952 117.872C224.996 117.883 225.009 117.932 224.995 117.975C224.994 117.979 224.993 117.982 224.992 117.986L224.685 119.106C224.643 119.261 224.769 119.404 224.966 119.427C225.163 119.449 225.357 119.342 225.4 119.188L225.649 118.277Z" fill="#9BAF7A"/>
<path d="M225.406 121.862C225.787 121.928 226.193 121.675 226.292 121.311C226.392 120.946 226.145 120.619 225.752 120.596L217.99 120.144C217.868 120.137 217.749 120.22 217.718 120.333C217.687 120.446 217.755 120.551 217.873 120.571L225.406 121.862Z" fill="#889A6B"/>
</g>
</svg>
