<svg width="356" height="250" viewBox="0 0 356 250" fill="none" xmlns="http://www.w3.org/2000/svg">
<rect x="88" y="60" width="180" height="160" fill="#808080"/>
<mask id="mask0_215_5083" style="mask-type:alpha" maskUnits="userSpaceOnUse" x="88" y="60" width="180" height="160">
<rect x="88" y="60" width="180" height="160" fill="#FFE99B"/>
</mask>
<g mask="url(#mask0_215_5083)">
<mask id="mask1_215_5083" style="mask-type:alpha" maskUnits="userSpaceOnUse" x="88" y="60" width="270" height="160">
<rect x="88" y="60" width="270" height="159.649" fill="#FFE99B"/>
</mask>
<g mask="url(#mask1_215_5083)">
<path d="M103.445 123.5C103.445 121.567 105.174 120 107.307 120H122.752C124.884 120 126.613 121.567 126.613 123.5C126.613 125.433 124.884 127 122.752 127H107.307C105.174 127 103.445 125.433 103.445 123.5Z" fill="#686868"/>
<path d="M92.413 116.5C92.413 114.567 94.1417 113 96.2743 113H111.719C113.852 113 115.581 114.567 115.581 116.5C115.581 118.433 113.852 120 111.719 120H96.2743C94.1417 120 92.413 118.433 92.413 116.5Z" fill="#686868"/>
<path d="M115.581 116.5C115.581 114.567 117.309 113 119.442 113H134.887C137.02 113 138.748 114.567 138.748 116.5C138.748 118.433 137.02 120 134.887 120H119.442C117.309 120 115.581 118.433 115.581 116.5Z" fill="#686868"/>
<path d="M195.013 143.5C195.013 145.433 196.742 147 198.874 147H214.319C216.452 147 218.181 145.433 218.181 143.5C218.181 141.567 216.452 140 214.319 140H198.874C196.742 140 195.013 141.567 195.013 143.5Z" fill="#686868"/>
<path d="M183.981 150.5C183.981 152.433 185.709 154 187.842 154H203.287C205.42 154 207.148 152.433 207.148 150.5C207.148 148.567 205.42 147 203.287 147H187.842C185.709 147 183.981 148.567 183.981 150.5Z" fill="#686868"/>
<path d="M207.148 150.5C207.148 152.433 208.877 154 211.01 154H226.455C228.587 154 230.316 152.433 230.316 150.5C230.316 148.567 228.587 147 226.455 147H211.01C208.877 147 207.148 148.567 207.148 150.5Z" fill="#686868"/>
<path d="M220.387 193.5C220.387 195.433 222.116 197 224.248 197H239.694C241.826 197 243.555 195.433 243.555 193.5C243.555 191.567 241.826 190 239.694 190H224.248C222.116 190 220.387 191.567 220.387 193.5Z" fill="#686868"/>
<path d="M209.355 200.5C209.355 202.433 211.084 204 213.216 204H228.661C230.794 204 232.523 202.433 232.523 200.5C232.523 198.567 230.794 197 228.661 197H213.216C211.084 197 209.355 198.567 209.355 200.5Z" fill="#686868"/>
<path d="M232.523 200.5C232.523 202.433 234.251 204 236.384 204H251.829C253.962 204 255.69 202.433 255.69 200.5C255.69 198.567 253.962 197 251.829 197H236.384C234.251 197 232.523 198.567 232.523 200.5Z" fill="#686868"/>
<path d="M153.09 182.5C153.09 180.567 154.819 179 156.952 179H172.397C174.529 179 176.258 180.567 176.258 182.5C176.258 184.433 174.529 186 172.397 186H156.952C154.819 186 153.09 184.433 153.09 182.5Z" fill="#686868"/>
<path d="M142.058 175.5C142.058 173.567 143.787 172 145.919 172H161.365C163.497 172 165.226 173.567 165.226 175.5C165.226 177.433 163.497 179 161.365 179H145.919C143.787 179 142.058 177.433 142.058 175.5Z" fill="#686868"/>
<path d="M275.548 117.5C275.548 115.567 273.82 114 271.687 114H256.242C254.109 114 252.381 115.567 252.381 117.5C252.381 119.433 254.109 121 256.242 121H271.687C273.82 121 275.548 119.433 275.548 117.5Z" fill="#686868"/>
<path d="M286.581 110.5C286.581 108.567 284.852 107 282.719 107H267.274C265.142 107 263.413 108.567 263.413 110.5C263.413 112.433 265.142 114 267.274 114H282.719C284.852 114 286.581 112.433 286.581 110.5Z" fill="#686868"/>
<rect x="82.4839" y="133" width="23.1677" height="7" rx="3.5" fill="#686868"/>
<path d="M102.342 208.5C102.342 206.567 104.071 205 106.203 205H121.648C123.781 205 125.51 206.567 125.51 208.5C125.51 210.433 123.781 212 121.648 212H106.203C104.071 212 102.342 210.433 102.342 208.5Z" fill="#686868"/>
<path d="M91.3097 201.5C91.3097 199.567 93.0385 198 95.171 198H110.616C112.749 198 114.477 199.567 114.477 201.5C114.477 203.433 112.749 205 110.616 205H95.171C93.0385 205 91.3097 203.433 91.3097 201.5Z" fill="#686868"/>
<path d="M114.477 201.5C114.477 199.567 116.206 198 118.339 198H133.784C135.916 198 137.645 199.567 137.645 201.5C137.645 203.433 135.916 205 133.784 205H118.339C116.206 205 114.477 203.433 114.477 201.5Z" fill="#686868"/>
<path d="M136.542 215.5C136.542 213.567 138.271 212 140.403 212H155.848C157.981 212 159.71 213.567 159.71 215.5C159.71 217.433 157.981 219 155.848 219H140.403C138.271 219 136.542 217.433 136.542 215.5Z" fill="#686868"/>
<path d="M125.51 208.5C125.51 206.567 127.238 205 129.371 205H144.816C146.949 205 148.677 206.567 148.677 208.5C148.677 210.433 146.949 212 144.816 212H129.371C127.238 212 125.51 210.433 125.51 208.5Z" fill="#686868"/>
<path d="M148.677 208.5C148.677 206.567 150.406 205 152.539 205H167.984C170.116 205 171.845 206.567 171.845 208.5C171.845 210.433 170.116 212 167.984 212H152.539C150.406 212 148.677 210.433 148.677 208.5Z" fill="#686868"/>
<path d="M102.342 194.5C102.342 192.567 104.071 191 106.203 191H121.648C123.781 191 125.51 192.567 125.51 194.5C125.51 196.433 123.781 198 121.648 198H106.203C104.071 198 102.342 196.433 102.342 194.5Z" fill="#686868"/>
<path d="M143.161 72.5C143.161 70.567 144.89 69 147.023 69H162.468C164.6 69 166.329 70.567 166.329 72.5C166.329 74.433 164.6 76 162.468 76H147.023C144.89 76 143.161 74.433 143.161 72.5Z" fill="#686868"/>
<path d="M132.129 65.5C132.129 63.567 133.858 62 135.99 62H151.435C153.568 62 155.297 63.567 155.297 65.5C155.297 67.433 153.568 69 151.435 69H135.99C133.858 69 132.129 67.433 132.129 65.5Z" fill="#686868"/>
<path d="M155.297 65.5C155.297 63.567 157.026 62 159.158 62H174.603C176.736 62 178.465 63.567 178.465 65.5C178.465 67.433 176.736 69 174.603 69H159.158C157.026 69 155.297 67.433 155.297 65.5Z" fill="#686868"/>
<path d="M177.361 79.5C177.361 77.567 179.09 76 181.223 76H196.668C198.8 76 200.529 77.567 200.529 79.5C200.529 81.433 198.8 83 196.668 83H181.223C179.09 83 177.361 81.433 177.361 79.5Z" fill="#686868"/>
<path d="M166.329 72.5C166.329 70.567 168.058 69 170.19 69H185.635C187.768 69 189.497 70.567 189.497 72.5C189.497 74.433 187.768 76 185.635 76H170.19C168.058 76 166.329 74.433 166.329 72.5Z" fill="#686868"/>
<path d="M189.497 72.5C189.497 70.567 191.226 69 193.358 69H208.803C210.936 69 212.665 70.567 212.665 72.5C212.665 74.433 210.936 76 208.803 76H193.358C191.226 76 189.497 74.433 189.497 72.5Z" fill="#686868"/>
<path d="M143.161 58.5C143.161 56.567 144.89 55 147.023 55H162.468C164.6 55 166.329 56.567 166.329 58.5C166.329 60.433 164.6 62 162.468 62H147.023C144.89 62 143.161 60.433 143.161 58.5Z" fill="#686868"/>
</g>
</g>
</svg>
