<svg width="90" height="250" viewBox="0 0 90 250" fill="none" xmlns="http://www.w3.org/2000/svg">
<rect x="2" y="91" width="86.1667" height="94" rx="5" fill="#808080"/>
<rect x="5.91675" y="94.9167" width="78.3333" height="86.1667" rx="5" fill="#BEDEFC"/>
<rect x="2" y="113.717" width="86.1667" height="3.91667" fill="#808080"/>
<rect x="2" y="136.433" width="86.1667" height="3.91667" fill="#808080"/>
<rect x="21.5833" y="113.717" width="22.7167" height="3.13333" transform="rotate(-90 21.5833 113.717)" fill="#808080"/>
<rect x="21.5833" y="136.433" width="18.8" height="3.13333" transform="rotate(-90 21.5833 136.433)" fill="#808080"/>
<rect x="65.4495" y="113.717" width="22.7167" height="3.13333" transform="rotate(-90 65.4495 113.717)" fill="#808080"/>
<rect x="65.4495" y="136.433" width="18.8" height="3.13333" transform="rotate(-90 65.4495 136.433)" fill="#808080"/>
<rect x="43.5171" y="113.717" width="22.7167" height="3.13333" transform="rotate(-90 43.5171 113.717)" fill="#808080"/>
<rect x="43.5171" y="136.433" width="18.8" height="3.13333" transform="rotate(-90 43.5171 136.433)" fill="#808080"/>
</svg>
