<svg width="90" height="250" viewBox="0 0 90 250" fill="none" xmlns="http://www.w3.org/2000/svg">
<path d="M83.4519 134.476V160C83.4519 161.381 82.3326 162.5 80.9519 162.5H10C8.61929 162.5 7.5 161.381 7.5 160V134.476C7.5 113.502 24.5024 96.5 45.476 96.5C66.4495 96.5 83.4519 113.502 83.4519 134.476Z" fill="#BEDEFC" stroke="#C7C7C7" stroke-width="3"/>
<path d="M83.4519 134.476V160C83.4519 161.381 82.3326 162.5 80.9519 162.5H10C8.61929 162.5 7.5 161.381 7.5 160V134.476C7.5 113.502 24.5024 96.5 45.476 96.5C66.4495 96.5 83.4519 113.502 83.4519 134.476Z" fill="#BEDEFC" stroke="#C7C7C7" stroke-width="3"/>
<line x1="7.5127" y1="150.982" x2="83.1473" y2="150.982" stroke="#C7C7C7" stroke-width="3"/>
<path d="M38.5194 134.462C38.3834 133.7 39.1702 133.106 39.8654 133.446L42.0747 134.527C45.3186 136.113 47.3757 139.409 47.3757 143.02L47.3758 146.034C47.3758 146.388 47.0009 146.616 46.6863 146.454L44.1989 145.17C41.5829 143.82 39.7451 141.328 39.2277 138.43L38.5194 134.462Z" fill="#B1CF7F"/>
<path d="M53.2311 135.043C53.4101 134.04 52.374 133.258 51.4586 133.706V133.706C47.1871 135.795 44.4784 140.134 44.4783 144.889L44.4783 145.684C44.4783 146.197 45.0284 146.526 45.485 146.29V146.29C49.4455 144.246 52.265 140.455 53.0482 136.067L53.2311 135.043Z" fill="#B1CF7F"/>
<path d="M44.4738 132.058C44.8638 131.117 46.1578 131.017 46.6874 131.888V131.888C49.1588 135.95 49.1003 141.065 46.5368 145.07L46.1085 145.739C45.8314 146.172 45.1911 146.152 44.9336 145.707V145.707C42.7 141.85 42.3696 137.137 44.0755 133.019L44.4738 132.058Z" fill="#9BAF7A"/>
<rect x="40.9346" y="144.923" width="9.76675" height="5.29033" fill="#FFB2B2"/>
<rect x="39.2788" y="140.381" width="12.8579" height="4.53808" rx="2.26904" fill="#F56D6D"/>
<path d="M60.4535 134.462C60.3175 133.7 61.1043 133.106 61.7995 133.446L64.0088 134.527C67.2527 136.113 69.3097 139.408 69.3098 143.02L69.3099 146.033C69.3099 146.387 68.935 146.616 68.6204 146.453L66.133 145.17C63.517 143.82 61.6791 141.328 61.1618 138.43L60.4535 134.462Z" fill="#B1CF7F"/>
<path d="M75.1656 135.043C75.3447 134.039 74.3086 133.258 73.3932 133.705V133.705C69.1216 135.794 66.413 140.134 66.4129 144.889L66.4129 145.683C66.4129 146.197 66.9629 146.526 67.4196 146.29V146.29C71.3801 144.246 74.1996 140.454 74.9828 136.067L75.1656 135.043Z" fill="#B1CF7F"/>
<path d="M66.4078 132.058C66.7979 131.117 68.0919 131.017 68.6215 131.888V131.888C71.0929 135.95 71.0344 141.065 68.4708 145.07L68.0426 145.739C67.7655 146.172 67.1252 146.152 66.8676 145.707V145.707C64.6341 141.85 64.3037 137.137 66.0096 133.019L66.4078 132.058Z" fill="#9BAF7A"/>
<rect x="62.8691" y="144.923" width="9.76675" height="5.29033" fill="#FFB2B2"/>
<rect x="61.2134" y="140.381" width="12.8579" height="4.53808" rx="2.26904" fill="#F56D6D"/>
<path d="M16.5853 134.462C16.4493 133.7 17.2362 133.106 17.9313 133.446L20.1406 134.527C23.3846 136.113 25.4416 139.408 25.4417 143.02L25.4417 146.033C25.4417 146.387 25.0668 146.616 24.7522 146.453L22.2649 145.17C19.6488 143.82 17.811 141.328 17.2936 138.43L16.5853 134.462Z" fill="#B1CF7F"/>
<path d="M31.297 135.043C31.4761 134.039 30.4399 133.258 29.5245 133.705V133.705C25.253 135.794 22.5444 140.134 22.5443 144.889L22.5442 145.683C22.5442 146.197 23.0943 146.526 23.5509 146.29V146.29C27.5114 144.246 30.3309 140.454 31.1141 136.067L31.297 135.043Z" fill="#B1CF7F"/>
<path d="M22.5402 132.058C22.9302 131.117 24.2242 131.017 24.7538 131.888V131.888C27.2252 135.95 27.1667 141.065 24.6032 145.07L24.1749 145.739C23.8978 146.172 23.2575 146.152 23 145.707V145.707C20.7664 141.85 20.436 137.137 22.1419 133.019L22.5402 132.058Z" fill="#9BAF7A"/>
<rect x="19.002" y="144.923" width="9.76675" height="5.29033" fill="#FFB2B2"/>
<rect x="17.3462" y="140.381" width="12.8579" height="4.53808" rx="2.26904" fill="#F56D6D"/>
</svg>
