<svg width="90" height="250" viewBox="0 0 90 250" fill="none" xmlns="http://www.w3.org/2000/svg">
<rect x="1" y="98" width="88" height="69" fill="#B49D72"/>
<path d="M17 101H5V112H17V101Z" fill="#FFFDF2"/>
<path d="M5 113V125H17V113H5Z" fill="#FFFDF2"/>
<path d="M5 126V138H17V126H5Z" fill="#FFFDF2"/>
<path d="M5 139V151H17V139H5Z" fill="#FFFDF2"/>
<path d="M5 152V164H17V152H5Z" fill="#FFFDF2"/>
<path d="M18 164H30V152H18V164Z" fill="#FFFDF2"/>
<path d="M31 164H43V152H31V164Z" fill="#FFFDF2"/>
<path d="M47 164H59V152H47V164Z" fill="#FFFDF2"/>
<path d="M60 164H72V152H60V164Z" fill="#FFFDF2"/>
<path d="M73 164H85V152H73V164Z" fill="#FFFDF2"/>
<path d="M85 151V139H73V151H85Z" fill="#FFFDF2"/>
<path d="M85 138V126H73V138H85Z" fill="#FFFDF2"/>
<path d="M85 125V113H73V125H85Z" fill="#FFFDF2"/>
<path d="M85 112V101H73V112H85Z" fill="#FFFDF2"/>
<path d="M72 101H60V112H72V101Z" fill="#FFFDF2"/>
<path d="M59 101H47V112H59V101Z" fill="#FFFDF2"/>
<path d="M43 101H31V112H43V101Z" fill="#FFFDF2"/>
<path d="M30 101V112H18V101H30Z" fill="#FFFDF2"/>
<path d="M18 113V125H30V113H18Z" fill="#FFFDF2"/>
<path d="M31 113V125H43V113H31Z" fill="#FFFDF2"/>
<path d="M47 113V125H59V113H47Z" fill="#FFFDF2"/>
<path d="M60 113V125H72V113H60Z" fill="#FFFDF2"/>
<path d="M18 138V126H30V138H18Z" fill="#FFFDF2"/>
<path d="M31 138V126H43V138H31Z" fill="#FFFDF2"/>
<path d="M47 138V126H59V138H47Z" fill="#FFFDF2"/>
<path d="M60 138V126H72V138H60Z" fill="#FFFDF2"/>
<path d="M18 139V151H30V139H18Z" fill="#FFFDF2"/>
<path d="M31 139V151H43V139H31Z" fill="#FFFDF2"/>
<path d="M47 139V151H59V139H47Z" fill="#FFFDF2"/>
<path d="M60 139V151H72V139H60Z" fill="#FFFDF2"/>
</svg>
