<svg width="90" height="250" viewBox="0 0 90 250" fill="none" xmlns="http://www.w3.org/2000/svg">
<rect x="2" y="91" width="86.1667" height="94" rx="5" fill="#EBEBEB"/>
<rect x="5.9165" y="94.9167" width="78.3333" height="86.1667" rx="5" fill="#BEDEFC"/>
<rect x="2" y="113.717" width="86.1667" height="3.91667" fill="#EBEBEB"/>
<rect x="2" y="136.433" width="86.1667" height="3.91667" fill="#EBEBEB"/>
<rect x="21.5835" y="113.717" width="22.7167" height="3.13333" transform="rotate(-90 21.5835 113.717)" fill="#EBEBEB"/>
<rect x="21.5835" y="136.433" width="18.8" height="3.13333" transform="rotate(-90 21.5835 136.433)" fill="#EBEBEB"/>
<rect x="65.4492" y="113.717" width="22.7167" height="3.13333" transform="rotate(-90 65.4492 113.717)" fill="#EBEBEB"/>
<rect x="65.4492" y="136.433" width="18.8" height="3.13333" transform="rotate(-90 65.4492 136.433)" fill="#EBEBEB"/>
<rect x="43.5171" y="113.717" width="22.7167" height="3.13333" transform="rotate(-90 43.5171 113.717)" fill="#EBEBEB"/>
<rect x="43.5171" y="136.433" width="18.8" height="3.13333" transform="rotate(-90 43.5171 136.433)" fill="#EBEBEB"/>
</svg>
