<svg width="90" height="250" viewBox="0 0 90 250" fill="none" xmlns="http://www.w3.org/2000/svg">
<path d="M83.4519 134.476V160C83.4519 161.381 82.3326 162.5 80.9519 162.5H10C8.61929 162.5 7.5 161.381 7.5 160V134.476C7.5 113.502 24.5024 96.5 45.476 96.5C66.4495 96.5 83.4519 113.502 83.4519 134.476Z" fill="#BEDEFC" stroke="#808080" stroke-width="3"/>
<path d="M83.4519 134.476V160C83.4519 161.381 82.3326 162.5 80.9519 162.5H10C8.61929 162.5 7.5 161.381 7.5 160V134.476C7.5 113.502 24.5024 96.5 45.476 96.5C66.4495 96.5 83.4519 113.502 83.4519 134.476Z" fill="#BEDEFC" stroke="#808080" stroke-width="3"/>
<line x1="7.5127" y1="150.982" x2="83.1473" y2="150.982" stroke="#808080" stroke-width="3"/>
<path d="M38.5199 134.462C38.3839 133.7 39.1707 133.106 39.8659 133.446L42.0752 134.527C45.3191 136.113 47.3762 139.409 47.3762 143.02L47.3763 146.034C47.3763 146.388 47.0014 146.616 46.6868 146.454L44.1994 145.17C41.5834 143.82 39.7456 141.328 39.2282 138.43L38.5199 134.462Z" fill="#B1CF7F"/>
<path d="M53.2313 135.043C53.4104 134.04 52.3743 133.258 51.4589 133.706V133.706C47.1873 135.795 44.4787 140.134 44.4786 144.889L44.4786 145.684C44.4786 146.197 45.0286 146.526 45.4853 146.29V146.29C49.4457 144.246 52.2653 140.455 53.0485 136.067L53.2313 135.043Z" fill="#B1CF7F"/>
<path d="M44.474 132.058C44.864 131.117 46.1581 131.017 46.6877 131.888V131.888C49.159 135.95 49.1006 141.065 46.537 145.07L46.1087 145.739C45.8317 146.172 45.1913 146.152 44.9338 145.707V145.707C42.7003 141.85 42.3698 137.137 44.0757 133.019L44.474 132.058Z" fill="#9BAF7A"/>
<rect x="40.9353" y="144.923" width="9.76675" height="5.29033" fill="#FFB2B2"/>
<rect x="39.2793" y="140.381" width="12.8579" height="4.53808" rx="2.26904" fill="#F56D6D"/>
<path d="M60.4537 134.462C60.3177 133.7 61.1046 133.106 61.7997 133.446L64.009 134.527C67.253 136.113 69.31 139.408 69.3101 143.02L69.3101 146.033C69.3102 146.387 68.9353 146.616 68.6206 146.453L66.1333 145.17C63.5172 143.82 61.6794 141.328 61.162 138.43L60.4537 134.462Z" fill="#B1CF7F"/>
<path d="M75.1656 135.043C75.3447 134.039 74.3086 133.258 73.3932 133.705V133.705C69.1216 135.794 66.413 140.134 66.4129 144.889L66.4129 145.683C66.4129 146.197 66.9629 146.526 67.4196 146.29V146.29C71.3801 144.246 74.1996 140.454 74.9828 136.067L75.1656 135.043Z" fill="#B1CF7F"/>
<path d="M66.4083 132.058C66.7983 131.117 68.0924 131.017 68.622 131.888V131.888C71.0933 135.95 71.0349 141.065 68.4713 145.07L68.043 145.739C67.766 146.172 67.1257 146.152 66.8681 145.707V145.707C64.6346 141.85 64.3042 137.137 66.0101 133.019L66.4083 132.058Z" fill="#9BAF7A"/>
<rect x="62.8696" y="144.923" width="9.76675" height="5.29033" fill="#FFB2B2"/>
<rect x="61.2136" y="140.381" width="12.8579" height="4.53808" rx="2.26904" fill="#F56D6D"/>
<path d="M16.585 134.462C16.4491 133.7 17.2359 133.106 17.9311 133.446L20.1404 134.527C23.3843 136.113 25.4413 139.408 25.4414 143.02L25.4415 146.033C25.4415 146.387 25.0666 146.616 24.752 146.453L22.2646 145.17C19.6486 143.82 17.8107 141.328 17.2934 138.43L16.585 134.462Z" fill="#B1CF7F"/>
<path d="M31.297 135.043C31.4761 134.039 30.4399 133.258 29.5245 133.705V133.705C25.253 135.794 22.5444 140.134 22.5443 144.889L22.5442 145.683C22.5442 146.197 23.0943 146.526 23.5509 146.29V146.29C27.5114 144.246 30.3309 140.454 31.1141 136.067L31.297 135.043Z" fill="#B1CF7F"/>
<path d="M22.5402 132.058C22.9302 131.117 24.2242 131.017 24.7538 131.888V131.888C27.2252 135.95 27.1667 141.065 24.6032 145.07L24.1749 145.739C23.8978 146.172 23.2575 146.152 23 145.707V145.707C20.7664 141.85 20.436 137.137 22.1419 133.019L22.5402 132.058Z" fill="#9BAF7A"/>
<rect x="19.002" y="144.923" width="9.76675" height="5.29033" fill="#FFB2B2"/>
<rect x="17.3462" y="140.381" width="12.8579" height="4.53808" rx="2.26904" fill="#F56D6D"/>
</svg>
