<svg width="90" height="250" viewBox="0 0 90 250" fill="none" xmlns="http://www.w3.org/2000/svg">
<path d="M7.8938 135.417C7.8938 115.093 24.3697 98.6172 44.6938 98.6172V98.6172C65.0179 98.6172 81.4938 115.093 81.4938 135.417V177.816C81.4938 180.025 79.7029 181.816 77.4938 181.816H11.8938C9.68465 181.816 7.8938 180.025 7.8938 177.816V135.417Z" fill="#BEDEFC"/>
<rect x="44" y="98" width="4" height="87" fill="#606060"/>
<rect x="7" y="131" width="4" height="76" transform="rotate(-90 7 131)" fill="#606060"/>
<rect x="7" y="157" width="4" height="76" transform="rotate(-90 7 157)" fill="#606060"/>
<rect x="6" y="183" width="4" height="76" transform="rotate(-90 6 183)" fill="#606060"/>
<path fill-rule="evenodd" clip-rule="evenodd" d="M45 95C22.9086 95 5 112.909 5 135V181.434C5 183.643 6.79086 185.434 9 185.434H81C83.2091 185.434 85 183.643 85 181.434V135C85 112.909 67.0914 95 45 95ZM44.6938 98.6172C24.3697 98.6172 7.8938 115.093 7.8938 135.417V177.816C7.8938 180.025 9.68465 181.816 11.8938 181.816H77.4938C79.7029 181.816 81.4938 180.025 81.4938 177.816V135.417C81.4938 115.093 65.0179 98.6172 44.6938 98.6172Z" fill="#808080"/>
<rect x="42.6204" y="95" width="3.61734" height="90.4336" fill="#808080"/>
<rect x="5" y="158.665" width="3.61734" height="79.5816" transform="rotate(-90 5 158.665)" fill="#808080"/>
<rect x="5.72339" y="132.62" width="3.61734" height="78.8581" transform="rotate(-90 5.72339 132.62)" fill="#808080"/>
<path d="M41.3845 168.615C41.3845 166.959 40.0414 165.615 38.3845 165.615H28.9999C27.3431 165.615 25.9999 166.959 25.9999 168.615V175C25.9999 178.314 28.6862 181 31.9999 181H35.3845C38.6982 181 41.3845 178.314 41.3845 175V168.615Z" fill="#F0F8FF"/>
<path d="M40.3589 166.206C40.3589 165.896 40.082 165.658 39.775 165.705L39.4816 165.75C35.6446 166.341 31.7398 166.341 27.9028 165.75L27.6095 165.705C27.3024 165.658 27.0256 165.896 27.0256 166.206V166.206C27.0256 166.456 27.2081 166.669 27.4553 166.707L27.6945 166.744C31.6696 167.356 35.7149 167.356 39.69 166.744L39.9291 166.707C40.1764 166.669 40.3589 166.456 40.3589 166.206V166.206Z" fill="#D6E2ED"/>
<path d="M27.5384 166.128C28.5309 166.128 30.2935 166.128 33.6922 166.128C37.0909 166.128 37.861 166.128 39.8461 166.128C39.8461 163.862 37.0909 162.026 33.6922 162.026C30.2935 162.026 27.5384 163.862 27.5384 166.128Z" fill="#EEF7FF"/>
<path d="M32.1538 162.538C32.4019 162.538 32.8426 162.538 33.6922 162.538C34.5419 162.538 34.7344 162.538 35.2307 162.538C35.2307 161.689 34.5419 161 33.6922 161C32.8426 161 32.1538 161.689 32.1538 162.538Z" fill="#EEF7FF"/>
<path d="M40.3589 165.856C40.3589 165.453 40.0103 165.138 39.6093 165.179L36.8972 165.458C34.7661 165.676 32.6183 165.676 30.4873 165.458L27.7751 165.179C27.3741 165.138 27.0256 165.453 27.0256 165.856C27.0256 166.205 27.2894 166.497 27.6363 166.533L30.1463 166.79C32.5041 167.032 34.8804 167.032 37.2381 166.79L39.7481 166.533C40.0951 166.497 40.3589 166.205 40.3589 165.856Z" fill="#EEF7FF"/>
<path d="M38.8206 165.296C38.8206 165.194 38.7303 165.115 38.6287 165.128L38.0705 165.203C35.1646 165.59 32.2201 165.59 29.3142 165.203L28.756 165.128C28.6544 165.115 28.5641 165.194 28.5641 165.296V165.296C28.5641 165.381 28.627 165.453 28.7112 165.464L29.1594 165.524C32.1681 165.925 35.2166 165.925 38.2253 165.524L38.6735 165.464C38.7577 165.453 38.8206 165.381 38.8206 165.296V165.296Z" fill="#D6E2ED"/>
<path d="M35.2307 162.779C35.2307 162.666 35.1133 162.591 35.01 162.637V162.637C34.1751 163.008 33.2094 163.008 32.3745 162.637V162.637C32.2712 162.591 32.1538 162.666 32.1538 162.779V162.779C32.1538 162.841 32.1909 162.897 32.2473 162.922V162.922C33.16 163.328 34.2245 163.328 35.1372 162.922V162.922C35.1936 162.897 35.2307 162.841 35.2307 162.779V162.779Z" fill="#D6E2ED"/>
<ellipse rx="4.10256" ry="1.53846" transform="matrix(-0.996424 0.0844879 0.0844879 0.996424 34.6539 178.777)" fill="#DBBD99"/>
<ellipse rx="0.512821" ry="0.25641" transform="matrix(-0.996424 0.0844879 0.0844879 0.996424 32.1205 179.249)" fill="#F5EFEC"/>
<ellipse rx="0.512821" ry="0.25641" transform="matrix(-0.996424 0.0844879 0.0844879 0.996424 37.1869 178.305)" fill="#F5EFEC"/>
<ellipse rx="0.512821" ry="0.25641" transform="matrix(-0.996424 0.0844879 0.0844879 0.996424 35.6108 177.924)" fill="#F5EFEC"/>
<ellipse rx="0.512821" ry="0.25641" transform="matrix(-0.996424 0.0844879 0.0844879 0.996424 34.1645 179.076)" fill="#F5EFEC"/>
<ellipse rx="0.512821" ry="0.25641" transform="matrix(-0.996424 0.0844879 0.0844879 0.996424 36.2519 179.413)" fill="#F5EFEC"/>
<ellipse rx="0.512821" ry="0.25641" transform="matrix(-0.996424 0.0844879 0.0844879 0.996424 33.0344 177.885)" fill="#F5EFEC"/>
<ellipse rx="4.10256" ry="1.86565" transform="matrix(-0.980925 -0.194384 -0.194384 0.980925 30.9709 176.345)" fill="#DBBD99"/>
<ellipse rx="0.512821" ry="0.310942" transform="matrix(-0.980925 -0.194384 -0.194384 0.980925 28.3953 176.151)" fill="#F5EFEC"/>
<ellipse rx="0.512821" ry="0.310942" transform="matrix(-0.980925 -0.194384 -0.194384 0.980925 33.5464 176.538)" fill="#F5EFEC"/>
<ellipse rx="0.512821" ry="0.310942" transform="matrix(-0.980925 -0.194384 -0.194384 0.980925 32.1584 175.629)" fill="#F5EFEC"/>
<ellipse rx="0.512821" ry="0.310942" transform="matrix(-0.980925 -0.194384 -0.194384 0.980925 30.4075 176.55)" fill="#F5EFEC"/>
<ellipse rx="0.512821" ry="0.310942" transform="matrix(-0.980925 -0.194384 -0.194384 0.980925 32.2988 177.559)" fill="#F5EFEC"/>
<ellipse rx="0.512821" ry="0.310942" transform="matrix(-0.980925 -0.194384 -0.194384 0.980925 29.7034 174.825)" fill="#F5EFEC"/>
<ellipse rx="4.10256" ry="1.90884" transform="matrix(-0.997125 0.0757695 0.0757695 0.997125 36.1234 176.035)" fill="#DBBD99"/>
<ellipse rx="0.512821" ry="0.31814" transform="matrix(-0.997125 0.0757695 0.0757695 0.997125 33.5909 176.546)" fill="#F5EFEC"/>
<ellipse rx="0.512821" ry="0.31814" transform="matrix(-0.997125 0.0757695 0.0757695 0.997125 38.6563 175.523)" fill="#F5EFEC"/>
<ellipse rx="0.512821" ry="0.31814" transform="matrix(-0.997125 0.0757695 0.0757695 0.997125 37.0738 175.005)" fill="#F5EFEC"/>
<ellipse rx="0.512821" ry="0.31814" transform="matrix(-0.997125 0.0757695 0.0757695 0.997125 35.636 176.391)" fill="#F5EFEC"/>
<ellipse rx="0.512821" ry="0.31814" transform="matrix(-0.997125 0.0757695 0.0757695 0.997125 37.7298 176.87)" fill="#F5EFEC"/>
<ellipse rx="0.512821" ry="0.31814" transform="matrix(-0.997125 0.0757695 0.0757695 0.997125 34.4932 174.882)" fill="#F5EFEC"/>
<ellipse rx="4.10256" ry="1.2654" transform="matrix(-0.997125 0.0757695 0.0757695 0.997125 31.5569 173.367)" fill="#DBBD99"/>
<ellipse rx="0.512821" ry="0.2109" transform="matrix(-0.997125 0.0757695 0.0757695 0.997125 29.0159 173.772)" fill="#F5EFEC"/>
<ellipse rx="0.512821" ry="0.2109" transform="matrix(-0.997125 0.0757695 0.0757695 0.997125 34.0977 172.963)" fill="#F5EFEC"/>
<ellipse rx="0.512821" ry="0.2109" transform="matrix(-0.997125 0.0757695 0.0757695 0.997125 32.5315 172.659)" fill="#F5EFEC"/>
<ellipse rx="0.512821" ry="0.2109" transform="matrix(-0.997125 0.0757695 0.0757695 0.997125 31.0613 173.617)" fill="#F5EFEC"/>
<ellipse rx="0.512821" ry="0.2109" transform="matrix(-0.997125 0.0757695 0.0757695 0.997125 33.1387 173.882)" fill="#F5EFEC"/>
<ellipse rx="0.512821" ry="0.2109" transform="matrix(-0.997125 0.0757695 0.0757695 0.997125 29.959 172.643)" fill="#F5EFEC"/>
<ellipse rx="4.10256" ry="1.2654" transform="matrix(-0.984624 -0.174689 -0.174689 0.984624 36.611 172.706)" fill="#DBBD99"/>
<ellipse rx="0.512821" ry="0.2109" transform="matrix(-0.984624 -0.174689 -0.174689 0.984624 34.0495 172.466)" fill="#F5EFEC"/>
<ellipse rx="0.512821" ry="0.2109" transform="matrix(-0.984624 -0.174689 -0.174689 0.984624 39.1726 172.946)" fill="#F5EFEC"/>
<ellipse rx="0.512821" ry="0.2109" transform="matrix(-0.984624 -0.174689 -0.174689 0.984624 37.7317 172.262)" fill="#F5EFEC"/>
<ellipse rx="0.512821" ry="0.2109" transform="matrix(-0.984624 -0.174689 -0.174689 0.984624 36.0693 172.824)" fill="#F5EFEC"/>
<ellipse rx="0.512821" ry="0.2109" transform="matrix(-0.984624 -0.174689 -0.174689 0.984624 38.0154 173.598)" fill="#F5EFEC"/>
<ellipse rx="0.512821" ry="0.2109" transform="matrix(-0.984624 -0.174689 -0.174689 0.984624 35.2436 171.607)" fill="#F5EFEC"/>
<ellipse rx="4.10256" ry="1.2654" transform="matrix(-0.94435 0.328941 0.328941 0.94435 30.9402 171.75)" fill="#DBBD99"/>
<ellipse rx="0.512821" ry="0.2109" transform="matrix(-0.94435 0.328941 0.328941 0.94435 28.588 172.792)" fill="#F5EFEC"/>
<ellipse rx="0.512821" ry="0.2109" transform="matrix(-0.94435 0.328941 0.328941 0.94435 33.2924 170.707)" fill="#F5EFEC"/>
<ellipse rx="0.512821" ry="0.2109" transform="matrix(-0.94435 0.328941 0.328941 0.94435 31.7006 170.815)" fill="#F5EFEC"/>
<ellipse rx="0.512821" ry="0.2109" transform="matrix(-0.94435 0.328941 0.328941 0.94435 30.5253 172.117)" fill="#F5EFEC"/>
<ellipse rx="0.512821" ry="0.2109" transform="matrix(-0.94435 0.328941 0.328941 0.94435 32.601 171.841)" fill="#F5EFEC"/>
<ellipse rx="0.512821" ry="0.2109" transform="matrix(-0.94435 0.328941 0.328941 0.94435 29.2098 171.459)" fill="#F5EFEC"/>
<ellipse rx="4.10256" ry="1.90884" transform="matrix(-0.997125 0.0757695 0.0757695 0.997125 36.1234 169.881)" fill="#DBBD99"/>
<ellipse rx="0.512821" ry="0.31814" transform="matrix(-0.997125 0.0757695 0.0757695 0.997125 33.5909 170.392)" fill="#F5EFEC"/>
<ellipse rx="0.512821" ry="0.31814" transform="matrix(-0.997125 0.0757695 0.0757695 0.997125 38.6563 169.369)" fill="#F5EFEC"/>
<ellipse rx="0.512821" ry="0.31814" transform="matrix(-0.997125 0.0757695 0.0757695 0.997125 37.0738 168.851)" fill="#F5EFEC"/>
<ellipse rx="0.512821" ry="0.31814" transform="matrix(-0.997125 0.0757695 0.0757695 0.997125 35.636 170.237)" fill="#F5EFEC"/>
<ellipse rx="0.512821" ry="0.31814" transform="matrix(-0.997125 0.0757695 0.0757695 0.997125 37.7298 170.716)" fill="#F5EFEC"/>
<ellipse rx="0.512821" ry="0.31814" transform="matrix(-0.997125 0.0757695 0.0757695 0.997125 34.4932 168.728)" fill="#F5EFEC"/>
<g opacity="0.45" filter="url(#filter0_b_215_5298)">
<path d="M41.3845 168.615C41.3845 166.959 40.0414 165.615 38.3845 165.615H28.9999C27.3431 165.615 25.9999 166.959 25.9999 168.615V175C25.9999 178.314 28.6862 181 31.9999 181H35.3845C38.6982 181 41.3845 178.314 41.3845 175V168.615Z" fill="#BEDBF5" fill-opacity="0.1"/>
</g>
<path d="M10 168.615C10 166.959 11.3431 165.615 13 165.615H22.3846C24.0415 165.615 25.3846 166.959 25.3846 168.615V175C25.3846 178.314 22.6983 181 19.3846 181H16C12.6863 181 10 178.314 10 175V168.615Z" fill="#F0F8FF"/>
<path d="M11.0256 166.206C11.0256 165.896 11.3025 165.658 11.6096 165.705L11.9029 165.75C15.7399 166.341 19.6447 166.341 23.4817 165.75L23.775 165.705C24.0821 165.658 24.359 165.896 24.359 166.206V166.206C24.359 166.456 24.1764 166.669 23.9292 166.707L23.69 166.744C19.7149 167.356 15.6697 167.356 11.6946 166.744L11.4554 166.707C11.2082 166.669 11.0256 166.456 11.0256 166.206V166.206Z" fill="#D6E2ED"/>
<path d="M23.8461 166.128C22.8536 166.128 21.091 166.128 17.6923 166.128C14.2936 166.128 13.5236 166.128 11.5385 166.128C11.5385 163.862 14.2936 162.026 17.6923 162.026C21.091 162.026 23.8461 163.862 23.8461 166.128Z" fill="#EEF7FF"/>
<path d="M19.2308 162.538C18.9826 162.538 18.542 162.538 17.6923 162.538C16.8426 162.538 16.6501 162.538 16.1538 162.538C16.1538 161.689 16.8426 161 17.6923 161C18.542 161 19.2308 161.689 19.2308 162.538Z" fill="#EEF7FF"/>
<path d="M11.0256 165.856C11.0256 165.453 11.3742 165.138 11.7752 165.179L14.4874 165.458C16.6184 165.676 18.7662 165.676 20.8973 165.458L23.6094 165.179C24.0104 165.138 24.359 165.453 24.359 165.856C24.359 166.205 24.0951 166.497 23.7482 166.533L21.2382 166.79C18.8804 167.032 16.5042 167.032 14.1464 166.79L11.6364 166.533C11.2895 166.497 11.0256 166.205 11.0256 165.856Z" fill="#EEF7FF"/>
<path d="M12.564 165.296C12.564 165.194 12.6542 165.115 12.7558 165.128L13.3141 165.203C16.2199 165.59 19.1644 165.59 22.0703 165.203L22.6285 165.128C22.7301 165.115 22.8204 165.194 22.8204 165.296V165.296C22.8204 165.381 22.7575 165.453 22.6733 165.464L22.2251 165.524C19.2165 165.925 16.1679 165.925 13.1593 165.524L12.711 165.464C12.6268 165.453 12.564 165.381 12.564 165.296V165.296Z" fill="#D6E2ED"/>
<path d="M16.1538 162.779C16.1538 162.666 16.2712 162.591 16.3745 162.637V162.637C17.2094 163.008 18.1751 163.008 19.01 162.637V162.637C19.1133 162.591 19.2307 162.666 19.2307 162.779V162.779C19.2307 162.841 19.1936 162.897 19.1372 162.922V162.922C18.2245 163.328 17.16 163.328 16.2473 162.922V162.922C16.1909 162.897 16.1538 162.841 16.1538 162.779V162.779Z" fill="#D6E2ED"/>
<ellipse cx="16.7306" cy="178.777" rx="4.10256" ry="1.53846" transform="rotate(4.84658 16.7306 178.777)" fill="#CB9F6C"/>
<ellipse cx="19.264" cy="179.249" rx="0.512821" ry="0.25641" transform="rotate(4.84658 19.264 179.249)" fill="#894211"/>
<ellipse cx="14.1976" cy="178.305" rx="0.512821" ry="0.25641" transform="rotate(4.84658 14.1976 178.305)" fill="#894211"/>
<ellipse cx="15.7737" cy="177.924" rx="0.512821" ry="0.25641" transform="rotate(4.84658 15.7737 177.924)" fill="#894211"/>
<ellipse cx="17.22" cy="179.076" rx="0.512821" ry="0.25641" transform="rotate(4.84658 17.22 179.076)" fill="#894211"/>
<ellipse cx="15.1326" cy="179.413" rx="0.512821" ry="0.25641" transform="rotate(4.84658 15.1326 179.413)" fill="#894211"/>
<ellipse cx="18.3502" cy="177.885" rx="0.512821" ry="0.25641" transform="rotate(4.84658 18.3502 177.885)" fill="#894211"/>
<ellipse cx="20.4136" cy="177.345" rx="4.10256" ry="1.86565" transform="rotate(-11.2088 20.4136 177.345)" fill="#CB9F6C"/>
<ellipse cx="22.9893" cy="177.151" rx="0.512821" ry="0.310942" transform="rotate(-11.2088 22.9893 177.151)" fill="#894211"/>
<ellipse cx="17.8381" cy="177.538" rx="0.512821" ry="0.310942" transform="rotate(-11.2088 17.8381 177.538)" fill="#894211"/>
<ellipse cx="19.2261" cy="176.629" rx="0.512821" ry="0.310942" transform="rotate(-11.2088 19.2261 176.629)" fill="#894211"/>
<ellipse cx="20.9771" cy="177.55" rx="0.512821" ry="0.310942" transform="rotate(-11.2088 20.9771 177.55)" fill="#894211"/>
<ellipse cx="19.0857" cy="178.559" rx="0.512821" ry="0.310942" transform="rotate(-11.2088 19.0857 178.559)" fill="#894211"/>
<ellipse cx="21.6812" cy="175.826" rx="0.512821" ry="0.310942" transform="rotate(-11.2088 21.6812 175.826)" fill="#894211"/>
<ellipse cx="15.2611" cy="176.035" rx="4.10256" ry="1.90884" transform="rotate(4.34544 15.2611 176.035)" fill="#CB9F6C"/>
<ellipse cx="17.7936" cy="176.546" rx="0.512821" ry="0.31814" transform="rotate(4.34544 17.7936 176.546)" fill="#894211"/>
<ellipse cx="12.7282" cy="175.523" rx="0.512821" ry="0.31814" transform="rotate(4.34544 12.7282 175.523)" fill="#894211"/>
<ellipse cx="14.3107" cy="175.005" rx="0.512821" ry="0.31814" transform="rotate(4.34544 14.3107 175.005)" fill="#894211"/>
<ellipse cx="15.7485" cy="176.391" rx="0.512821" ry="0.31814" transform="rotate(4.34544 15.7485 176.391)" fill="#894211"/>
<ellipse cx="13.6547" cy="176.87" rx="0.512821" ry="0.31814" transform="rotate(4.34544 13.6547 176.87)" fill="#894211"/>
<ellipse cx="16.8913" cy="174.882" rx="0.512821" ry="0.31814" transform="rotate(4.34544 16.8913 174.882)" fill="#894211"/>
<ellipse cx="19.8277" cy="174.367" rx="4.10256" ry="1.2654" transform="rotate(4.34544 19.8277 174.367)" fill="#CB9F6C"/>
<ellipse cx="22.3687" cy="174.772" rx="0.512821" ry="0.2109" transform="rotate(4.34544 22.3687 174.772)" fill="#894211"/>
<ellipse cx="17.2869" cy="173.963" rx="0.512821" ry="0.2109" transform="rotate(4.34544 17.2869 173.963)" fill="#894211"/>
<ellipse cx="18.853" cy="173.659" rx="0.512821" ry="0.2109" transform="rotate(4.34544 18.853 173.659)" fill="#894211"/>
<ellipse cx="20.3232" cy="174.617" rx="0.512821" ry="0.2109" transform="rotate(4.34544 20.3232 174.617)" fill="#894211"/>
<ellipse cx="18.2459" cy="174.882" rx="0.512821" ry="0.2109" transform="rotate(4.34544 18.2459 174.882)" fill="#894211"/>
<ellipse cx="21.4255" cy="173.643" rx="0.512821" ry="0.2109" transform="rotate(4.34544 21.4255 173.643)" fill="#894211"/>
<ellipse cx="14.7735" cy="172.706" rx="4.10256" ry="1.2654" transform="rotate(-10.0606 14.7735 172.706)" fill="#CB9F6C"/>
<ellipse cx="17.335" cy="172.466" rx="0.512821" ry="0.2109" transform="rotate(-10.0606 17.335 172.466)" fill="#894211"/>
<ellipse cx="12.2119" cy="172.946" rx="0.512821" ry="0.2109" transform="rotate(-10.0606 12.2119 172.946)" fill="#894211"/>
<ellipse cx="13.6529" cy="172.262" rx="0.512821" ry="0.2109" transform="rotate(-10.0606 13.6529 172.262)" fill="#894211"/>
<ellipse cx="15.3152" cy="172.824" rx="0.512821" ry="0.2109" transform="rotate(-10.0606 15.3152 172.824)" fill="#894211"/>
<ellipse cx="13.3692" cy="173.598" rx="0.512821" ry="0.2109" transform="rotate(-10.0606 13.3692 173.598)" fill="#894211"/>
<ellipse cx="16.1409" cy="171.607" rx="0.512821" ry="0.2109" transform="rotate(-10.0606 16.1409 171.607)" fill="#894211"/>
<ellipse cx="20.4443" cy="171.75" rx="4.10256" ry="1.2654" transform="rotate(19.2045 20.4443 171.75)" fill="#CB9F6C"/>
<ellipse cx="22.7965" cy="172.792" rx="0.512821" ry="0.2109" transform="rotate(19.2045 22.7965 172.792)" fill="#894211"/>
<ellipse cx="18.0922" cy="170.707" rx="0.512821" ry="0.2109" transform="rotate(19.2045 18.0922 170.707)" fill="#894211"/>
<ellipse cx="19.684" cy="170.815" rx="0.512821" ry="0.2109" transform="rotate(19.2045 19.684 170.815)" fill="#894211"/>
<ellipse cx="20.8592" cy="172.117" rx="0.512821" ry="0.2109" transform="rotate(19.2045 20.8592 172.117)" fill="#894211"/>
<ellipse cx="18.7836" cy="171.841" rx="0.512821" ry="0.2109" transform="rotate(19.2045 18.7836 171.841)" fill="#894211"/>
<ellipse cx="22.1747" cy="171.459" rx="0.512821" ry="0.2109" transform="rotate(19.2045 22.1747 171.459)" fill="#894211"/>
<ellipse cx="15.2611" cy="169.881" rx="4.10256" ry="1.90884" transform="rotate(4.34544 15.2611 169.881)" fill="#CB9F6C"/>
<ellipse cx="17.7936" cy="170.392" rx="0.512821" ry="0.31814" transform="rotate(4.34544 17.7936 170.392)" fill="#894211"/>
<ellipse cx="12.7282" cy="169.369" rx="0.512821" ry="0.31814" transform="rotate(4.34544 12.7282 169.369)" fill="#894211"/>
<ellipse cx="14.3107" cy="168.851" rx="0.512821" ry="0.31814" transform="rotate(4.34544 14.3107 168.851)" fill="#894211"/>
<ellipse cx="15.7485" cy="170.237" rx="0.512821" ry="0.31814" transform="rotate(4.34544 15.7485 170.237)" fill="#894211"/>
<ellipse cx="13.6547" cy="170.716" rx="0.512821" ry="0.31814" transform="rotate(4.34544 13.6547 170.716)" fill="#894211"/>
<ellipse cx="16.8913" cy="168.728" rx="0.512821" ry="0.31814" transform="rotate(4.34544 16.8913 168.728)" fill="#894211"/>
<g opacity="0.45" filter="url(#filter1_b_215_5298)">
<path d="M10 168.615C10 166.959 11.3431 165.615 13 165.615H22.3846C24.0415 165.615 25.3846 166.959 25.3846 168.615V175C25.3846 178.314 22.6983 181 19.3846 181H16C12.6863 181 10 178.314 10 175V168.615Z" fill="#BEDBF5" fill-opacity="0.1"/>
</g>
<path d="M53 167.615C53 165.959 54.3431 164.615 56 164.615H73C74.6569 164.615 76 165.959 76 167.615V174C76 177.314 73.3137 180 70 180H59C55.6863 180 53 177.314 53 174V167.615Z" fill="#F0F8FF"/>
<path d="M54.5334 165.181C54.5334 164.878 54.795 164.642 55.0958 164.673L56.2996 164.797C61.7522 165.358 67.248 165.358 72.7006 164.797L73.9044 164.673C74.2052 164.642 74.4668 164.878 74.4668 165.181V165.181C74.4668 165.442 74.269 165.661 74.0089 165.688L72.9797 165.794C67.3415 166.374 61.6587 166.374 56.0206 165.794L54.9914 165.688C54.7312 165.661 54.5334 165.442 54.5334 165.181V165.181Z" fill="#D6E2ED"/>
<path d="M73.7001 165.128C72.2162 165.128 69.5811 165.128 64.5001 165.128C59.4191 165.128 58.2679 165.128 55.3001 165.128C55.3001 162.862 59.4191 161.026 64.5001 161.026C69.5811 161.026 73.7001 162.862 73.7001 165.128Z" fill="#EEF7FF"/>
<path d="M66.8001 161.538C66.4291 161.538 65.7704 161.538 64.5001 161.538C63.2299 161.538 62.942 161.538 62.2001 161.538C62.2001 160.689 63.2299 160 64.5001 160C65.7704 160 66.8001 160.689 66.8001 161.538Z" fill="#EEF7FF"/>
<path d="M54.5334 164.856C54.5334 164.453 55.0546 164.138 55.6541 164.179L59.7087 164.458C62.8946 164.676 66.1056 164.676 69.2915 164.458L73.3461 164.179C73.9456 164.138 74.4668 164.453 74.4668 164.856C74.4668 165.205 74.0724 165.497 73.5536 165.533L69.8012 165.79C66.2764 166.032 62.7238 166.032 59.199 165.79L55.4466 165.533C54.9279 165.497 54.5334 165.205 54.5334 164.856Z" fill="#EEF7FF"/>
<path d="M56.833 164.289C56.833 164.189 56.9188 164.11 57.0184 164.119L58.3424 164.237C62.4391 164.603 66.5602 164.603 70.6569 164.237L71.981 164.119C72.0806 164.11 72.1663 164.189 72.1663 164.289V164.289C72.1663 164.377 72.099 164.45 72.0112 164.458L70.8613 164.561C66.6286 164.938 62.3707 164.938 58.138 164.561L56.9881 164.458C56.9003 164.45 56.833 164.377 56.833 164.289V164.289Z" fill="#D6E2ED"/>
<path d="M62.2 161.758C62.2 161.649 62.3055 161.57 62.4105 161.601L62.6231 161.664C63.8478 162.028 65.1521 162.028 66.3768 161.664L66.5894 161.601C66.6945 161.57 66.8 161.649 66.8 161.758V161.758C66.8 161.831 66.7523 161.895 66.6828 161.915L66.5436 161.957C65.21 162.353 63.7899 162.353 62.4563 161.957L62.3171 161.915C62.2476 161.895 62.2 161.831 62.2 161.758V161.758Z" fill="#D6E2ED"/>
<path d="M69 177.5C69 178.052 68.6046 178 67.5 178C66.3954 178 65 178.052 65 177.5C65 176.948 65.8954 176.5 67 176.5C68.1046 176.5 69 176.948 69 177.5Z" fill="#DC81A7"/>
<path d="M61 174.75C61 175.302 60.6046 175.25 59.5 175.25C58.3954 175.25 57 175.302 57 174.75C57 174.198 57.8954 173.75 59 173.75C60.1046 173.75 61 174.198 61 174.75Z" fill="#DC81A7"/>
<path d="M58 175.5C58 176.052 57.6046 176 56.5 176C55.3954 176 54 176.052 54 175.5C54 174.948 54.8954 174.5 56 174.5C57.1046 174.5 58 174.948 58 175.5Z" fill="#589EDD"/>
<path d="M72 178.5C72 179.052 71.1046 179.5 70 179.5C68.8954 179.5 68 179.052 68 178.5C68 177.948 68.3954 177.5 69.5 177.5C70.6046 177.5 72 177.948 72 178.5Z" fill="#4DA855"/>
<path d="M59 173C59 173.552 58.1046 174 57 174C55.8954 174 55 173.552 55 173C55 172.448 55.3954 172 56.5 172C57.6046 172 59 172.448 59 173Z" fill="#4DA855"/>
<path d="M66 176C66 176.552 65.1046 177 64 177C62.8954 177 62 176.552 62 176C62 175.448 62.3954 175 63.5 175C64.6046 175 66 175.448 66 176Z" fill="#4DA855"/>
<path d="M67 178.501C67 179.054 66.1046 179.501 65 179.501C63.8954 179.501 63 179.054 63 178.501C63 177.949 63.8954 178.001 65 178.001C66.1046 178.001 67 177.949 67 178.501Z" fill="#91D8F2"/>
<path d="M74.4059 176.406C74.4259 176.426 74.4911 176.518 74.4784 176.543C74.4015 176.697 74.3366 176.826 74.2777 176.937C73.7452 177.94 72.2693 178.28 71.3508 177.612C71.1296 177.451 71.0001 177.256 71.0001 177.046C71.0001 176.593 72.2748 176.209 73.3427 176.086C73.7042 176.044 74.1485 176.149 74.4059 176.406V176.406Z" fill="#E9565A"/>
<path d="M75.0001 175C75.0001 175.552 74.1046 176 73.0001 176C71.8955 176 71.0001 175.552 71.0001 175C71.0001 174.448 72.5001 173.999 74.0001 173.999C75.1046 173.999 75.0001 174.448 75.0001 175Z" fill="#B4C2C0"/>
<path d="M69 174.047C69 174.599 68.1046 175.047 67 175.047C65.8954 175.047 65 174.599 65 174.047C65 173.495 66.8954 173.046 68 173.046C69.1046 173.046 69 173.495 69 174.047Z" fill="#875387"/>
<path d="M69 172.001C69 172.553 68.1046 173.001 67 173.001C65.8954 173.001 65 172.553 65 172.001C65 171.449 66.5 171 68 171C69.1046 171 69 171.449 69 172.001Z" fill="#91D8F2"/>
<path d="M59 176.901C59 177.454 58.1046 177.901 57 177.901C55.8954 177.901 55 177.454 55 176.901C55 176.349 55.8954 176.401 57 176.401C58.1046 176.401 59 176.349 59 176.901Z" fill="#ECC300"/>
<path d="M71 175.501C71 176.054 70.1046 176.501 69 176.501C67.8954 176.501 67 176.054 67 175.501C67 174.949 67.8954 175.001 69 175.001C70.1046 175.001 71 174.949 71 175.501Z" fill="#ECC300"/>
<path d="M63 172.501C63 173.054 62.1046 173.501 61 173.501C59.8954 173.501 59 173.054 59 172.501C59 171.949 59.8954 172.001 61 172.001C62.1046 172.001 63 171.949 63 172.501Z" fill="#ECC300"/>
<path d="M64 177.501C64 178.054 63.1046 178.501 62 178.501C60.8954 178.501 60 178.054 60 177.501C60 176.949 60.3954 177.001 61.5 177.001C62.6046 177.001 64 176.949 64 177.501Z" fill="#DA730A"/>
<path d="M73 173.501C73 174.054 72.1046 174.501 71 174.501C69.8954 174.501 69 174.054 69 173.501C69 172.949 69.3954 173.001 70.5 173.001C71.6046 173.001 73 172.949 73 173.501Z" fill="#DA730A"/>
<path d="M62 176.001C62 176.554 61.1046 177.001 60 177.001C58.8954 177.001 58 176.554 58 176.001C58 175.449 58.3954 175.501 59.5 175.501C60.6046 175.501 62 175.449 62 176.001Z" fill="#8CCC24"/>
<path d="M74 172.001C74 172.554 73.1046 173.001 72 173.001C70.8954 173.001 70 172.554 70 172.001C70 171.449 70.3954 171.501 71.5 171.501C72.6046 171.501 74 171.449 74 172.001Z" fill="#8CCC24"/>
<path d="M61 178.625C61 179.177 60.1046 179.625 59 179.625C57.8954 179.625 57 179.177 57 178.625C57 177.625 58.5 178.125 59 178.125C59.5 178.125 61 178.073 61 178.625Z" fill="#E9565A"/>
<path d="M65 173.769C65 174.449 64.1046 175 63 175C61.8954 175 61 174.449 61 173.769C61 172.539 62.5 173.154 63 173.154C63.5 173.154 65 173.09 65 173.769Z" fill="#E9565A"/>
<g opacity="0.45" filter="url(#filter2_b_215_5298)">
<path d="M53 167.615C53 165.959 54.3431 164.615 56 164.615H73C74.6569 164.615 76 165.959 76 167.615V174C76 177.314 73.3137 180 70 180H59C55.6863 180 53 177.314 53 174V167.615Z" fill="#BEDBF5" fill-opacity="0.1"/>
</g>
<path d="M28 121C28 119.343 29.3431 118 31 118H38C39.6569 118 41 119.343 41 121V122C41 125.314 38.3137 128 35 128H34C30.6863 128 28 125.314 28 122V121Z" fill="#F0F8FF"/>
<path d="M28.8667 118.373C28.8667 118.174 29.0398 118.021 29.2366 118.044L29.7669 118.107C32.9113 118.479 36.0887 118.479 39.2332 118.107L39.7634 118.044C39.9603 118.021 40.1334 118.174 40.1334 118.373V118.373C40.1334 118.54 40.0079 118.682 39.8412 118.701L39.3978 118.754C36.144 119.139 32.8561 119.139 29.6022 118.754L29.1588 118.701C28.9922 118.682 28.8667 118.54 28.8667 118.373V118.373Z" fill="#D6E2ED"/>
<path d="M39.7 118.333C38.8613 118.333 37.3719 118.333 34.5 118.333C31.6282 118.333 30.9775 118.333 29.3 118.333C29.3 116.861 31.6282 115.667 34.5 115.667C37.3719 115.667 39.7 116.861 39.7 118.333Z" fill="#EEF7FF"/>
<path d="M35.8 116C35.5904 116 35.218 116 34.5 116C33.7821 116 33.6194 116 33.2 116C33.2 115.448 33.7821 115 34.5 115C35.218 115 35.8 115.448 35.8 116Z" fill="#EEF7FF"/>
<path d="M28.8667 118.156C28.8667 117.894 29.1613 117.69 29.5001 117.717L31.7918 117.897C33.5926 118.04 35.4075 118.04 37.2082 117.897L39.5 117.717C39.8388 117.69 40.1334 117.894 40.1334 118.156C40.1334 118.383 39.9104 118.573 39.6172 118.596L37.4963 118.764C35.504 118.921 33.496 118.921 31.5038 118.764L29.3828 118.596C29.0896 118.573 28.8667 118.383 28.8667 118.156Z" fill="#EEF7FF"/>
<path d="M30.1665 117.789C30.1665 117.724 30.2231 117.672 30.2883 117.679L30.9363 117.746C33.3058 117.989 35.6939 117.989 38.0634 117.746L38.7114 117.679C38.7765 117.672 38.8332 117.724 38.8332 117.789V117.789C38.8332 117.846 38.7903 117.893 38.7339 117.899L38.1846 117.955C35.7345 118.207 33.2652 118.207 30.8151 117.955L30.2658 117.899C30.2094 117.893 30.1665 117.846 30.1665 117.789V117.789Z" fill="#D6E2ED"/>
<path d="M33.2 116.147C33.2 116.075 33.2709 116.024 33.3391 116.048L33.4207 116.075C34.1203 116.315 34.8796 116.315 35.5792 116.075L35.6608 116.048C35.729 116.024 35.8 116.075 35.8 116.147V116.147C35.8 116.192 35.7714 116.232 35.7288 116.247L35.6769 116.264C34.9139 116.525 34.086 116.525 33.323 116.264L33.2711 116.247C33.2285 116.232 33.2 116.192 33.2 116.147V116.147Z" fill="#D6E2ED"/>
<path d="M36.9569 125.588C36.9569 126.046 36.7409 126.003 36.1376 126.003C35.5344 126.003 34.7723 126.046 34.7723 125.588C34.7723 125.131 35.2613 124.759 35.8646 124.759C36.4678 124.759 36.9569 125.131 36.9569 125.588Z" fill="#D08439"/>
<path d="M32.5877 123.309C32.5877 123.767 32.3717 123.723 31.7685 123.723C31.1652 123.723 30.4031 123.767 30.4031 123.309C30.4031 122.851 30.8921 122.48 31.4954 122.48C32.0986 122.48 32.5877 122.851 32.5877 123.309Z" fill="#D08439"/>
<path d="M30.9492 123.93C30.9492 124.388 30.7333 124.345 30.13 124.345C29.5268 124.345 28.7646 124.388 28.7646 123.93C28.7646 123.473 29.2537 123.101 29.8569 123.101C30.4602 123.101 30.9492 123.473 30.9492 123.93Z" fill="#B0714E"/>
<path d="M38.5953 126.417C38.5953 126.875 38.1063 127.246 37.503 127.246C36.8998 127.246 36.4107 126.875 36.4107 126.417C36.4107 125.96 36.6267 125.588 37.2299 125.588C37.8332 125.588 38.5953 125.96 38.5953 126.417Z" fill="#B0714E"/>
<path d="M31.4954 121.858C31.4954 122.316 31.0064 122.687 30.4031 122.687C29.7998 122.687 29.3108 122.316 29.3108 121.858C29.3108 121.4 29.5268 121.029 30.13 121.029C30.7333 121.029 31.4954 121.4 31.4954 121.858Z" fill="#B0714E"/>
<path d="M35.3184 124.345C35.3184 124.803 34.8294 125.174 34.2261 125.174C33.6229 125.174 33.1338 124.803 33.1338 124.345C33.1338 123.887 33.3498 123.516 33.9531 123.516C34.5563 123.516 35.3184 123.887 35.3184 124.345Z" fill="#B0714E"/>
<path d="M35.8646 126.418C35.8646 126.876 35.3755 127.247 34.7723 127.247C34.169 127.247 33.68 126.876 33.68 126.418C33.68 125.961 34.169 126.004 34.7723 126.004C35.3755 126.004 35.8646 125.961 35.8646 126.418Z" fill="#B0714E"/>
<path d="M39.9246 124.705C39.9326 124.717 39.9579 124.768 39.9534 124.781C39.9353 124.836 39.9184 124.888 39.9025 124.935C39.6219 125.779 38.2584 126.219 38.0646 125.351C38.0545 125.306 38.0492 125.259 38.0492 125.212C38.0492 124.859 38.6632 124.558 39.221 124.437C39.4751 124.383 39.7816 124.488 39.9246 124.705V124.705Z" fill="#B8682D"/>
<path d="M40.2338 123.516C40.2338 123.974 39.7448 124.345 39.1415 124.345C38.5382 124.345 38.0492 123.974 38.0492 123.516C38.0492 123.058 38.8684 122.686 39.6876 122.686C40.2909 122.686 40.2338 123.058 40.2338 123.516Z" fill="#D08439"/>
<path d="M36.9569 122.726C36.9569 123.184 36.4678 123.555 35.8646 123.555C35.2613 123.555 34.7723 123.184 34.7723 122.726C34.7723 122.268 35.8075 121.896 36.4107 121.896C37.014 121.896 36.9569 122.268 36.9569 122.726Z" fill="#B0714E"/>
<path d="M36.9569 121.03C36.9569 121.488 36.4678 121.859 35.8646 121.859C35.2613 121.859 34.7723 121.488 34.7723 121.03C34.7723 120.572 35.5915 120.2 36.4107 120.2C37.014 120.2 36.9569 120.572 36.9569 121.03Z" fill="#B0714E"/>
<path d="M31.4954 125.092C31.4954 125.55 31.0064 125.921 30.4031 125.921C29.7998 125.921 29.3108 125.55 29.3108 125.092C29.3108 124.634 29.7998 124.678 30.4031 124.678C31.0064 124.678 31.4954 124.634 31.4954 125.092Z" fill="#B8682D"/>
<path d="M38.0492 123.931C38.0492 124.389 37.5601 124.76 36.9569 124.76C36.3536 124.76 35.8646 124.389 35.8646 123.931C35.8646 123.474 36.3536 123.517 36.9569 123.517C37.5601 123.517 38.0492 123.474 38.0492 123.931Z" fill="#B8682D"/>
<path d="M33.68 121.445C33.68 121.902 33.1909 122.273 32.5877 122.273C31.9844 122.273 31.4954 121.902 31.4954 121.445C31.4954 120.987 31.9844 121.03 32.5877 121.03C33.1909 121.03 33.68 120.987 33.68 121.445Z" fill="#B8682D"/>
<path d="M34.2261 125.589C34.2261 126.047 33.7371 126.418 33.1338 126.418C32.5306 126.418 32.0415 126.047 32.0415 125.589C32.0415 125.132 32.2575 125.175 32.8608 125.175C33.464 125.175 34.2261 125.132 34.2261 125.589Z" fill="#D08439"/>
<path d="M39.1415 122.274C39.1415 122.731 38.6524 123.103 38.0492 123.103C37.4459 123.103 36.9569 122.731 36.9569 122.274C36.9569 121.816 37.1728 121.859 37.7761 121.859C38.3793 121.859 39.1415 121.816 39.1415 122.274Z" fill="#D08439"/>
<path d="M33.1338 124.346C33.1338 124.804 32.6448 125.175 32.0415 125.175C31.4383 125.175 30.9492 124.804 30.9492 124.346C30.9492 123.888 31.1652 123.932 31.7685 123.932C32.3717 123.932 33.1338 123.888 33.1338 124.346Z" fill="#D08439"/>
<path d="M39.6876 121.03C39.6876 121.488 39.1986 121.859 38.5953 121.859C37.9921 121.859 37.503 121.488 37.503 121.03C37.503 120.572 37.719 120.616 38.3222 120.616C38.9255 120.616 39.6876 120.572 39.6876 121.03Z" fill="#D08439"/>
<path d="M32.5877 126.521C32.5877 126.979 32.0986 127.35 31.4954 127.35C30.8921 127.35 30.4031 126.979 30.4031 126.521C30.4031 125.692 31.2223 126.107 31.4954 126.107C31.7685 126.107 32.5877 126.063 32.5877 126.521Z" fill="#B8682D"/>
<path d="M34.7723 122.496C34.7723 123.059 34.2832 123.516 33.68 123.516C33.0767 123.516 32.5877 123.059 32.5877 122.496C32.5877 121.475 33.4069 121.986 33.68 121.986C33.9531 121.986 34.7723 121.932 34.7723 122.496Z" fill="#B8682D"/>
<g opacity="0.45" filter="url(#filter3_b_215_5298)">
<path d="M28 121C28 119.343 29.3431 118 31 118H38C39.6569 118 41 119.343 41 121V122C41 125.314 38.3137 128 35 128H34C30.6863 128 28 125.314 28 122V121Z" fill="#BEDBF5" fill-opacity="0.1"/>
</g>
<path d="M51 147C51 145.343 52.3431 144 54 144H61C62.6569 144 64 145.343 64 147V148C64 151.314 61.3137 154 58 154H57C53.6863 154 51 151.314 51 148V147Z" fill="#F0F8FF"/>
<path d="M51.8667 144.373C51.8667 144.174 52.0398 144.021 52.2366 144.044L52.7669 144.107C55.9113 144.479 59.0887 144.479 62.2332 144.107L62.7634 144.044C62.9603 144.021 63.1334 144.174 63.1334 144.373V144.373C63.1334 144.54 63.0079 144.682 62.8412 144.701L62.3978 144.754C59.144 145.139 55.8561 145.139 52.6022 144.754L52.1588 144.701C51.9922 144.682 51.8667 144.54 51.8667 144.373V144.373Z" fill="#D6E2ED"/>
<path d="M62.7 144.333C61.8613 144.333 60.3719 144.333 57.5 144.333C54.6282 144.333 53.9775 144.333 52.3 144.333C52.3 142.861 54.6282 141.667 57.5 141.667C60.3719 141.667 62.7 142.861 62.7 144.333Z" fill="#EEF7FF"/>
<path d="M58.8 142C58.5904 142 58.218 142 57.5 142C56.7821 142 56.6194 142 56.2 142C56.2 141.448 56.7821 141 57.5 141C58.218 141 58.8 141.448 58.8 142Z" fill="#EEF7FF"/>
<path d="M51.8667 144.156C51.8667 143.894 52.1613 143.69 52.5001 143.717L54.7918 143.897C56.5926 144.04 58.4075 144.04 60.2082 143.897L62.5 143.717C62.8388 143.69 63.1334 143.894 63.1334 144.156C63.1334 144.383 62.9104 144.573 62.6172 144.596L60.4963 144.764C58.504 144.921 56.496 144.921 54.5038 144.764L52.3828 144.596C52.0896 144.573 51.8667 144.383 51.8667 144.156Z" fill="#EEF7FF"/>
<path d="M53.1665 143.789C53.1665 143.724 53.2231 143.672 53.2883 143.679L53.9363 143.746C56.3058 143.989 58.6939 143.989 61.0634 143.746L61.7114 143.679C61.7765 143.672 61.8332 143.724 61.8332 143.789V143.789C61.8332 143.846 61.7903 143.893 61.7339 143.899L61.1846 143.955C58.7345 144.207 56.2652 144.207 53.8151 143.955L53.2658 143.899C53.2094 143.893 53.1665 143.846 53.1665 143.789V143.789Z" fill="#D6E2ED"/>
<path d="M56.2 142.147C56.2 142.075 56.2709 142.024 56.3391 142.048L56.4207 142.075C57.1203 142.315 57.8796 142.315 58.5792 142.075L58.6608 142.048C58.729 142.024 58.8 142.075 58.8 142.147V142.147C58.8 142.192 58.7714 142.232 58.7288 142.247L58.6769 142.264C57.9139 142.525 57.086 142.525 56.323 142.264L56.2711 142.247C56.2285 142.232 56.2 142.192 56.2 142.147V142.147Z" fill="#D6E2ED"/>
<path d="M58.0111 153.226C57.9126 153.659 57.027 153.515 55.95 153.269C54.873 153.024 54.0798 152.475 54.1784 152.042C54.2769 151.61 55.0514 152.241 56.1284 152.487C57.2053 152.732 58.1096 152.794 58.0111 153.226Z" fill="#F56D6D"/>
<path fill-rule="evenodd" clip-rule="evenodd" d="M54.4781 152.615C54.5083 152.596 54.5385 152.575 54.5686 152.554C54.7568 152.424 54.9342 152.293 55.0994 152.172C55.109 152.165 55.1186 152.158 55.1281 152.151C55.3852 152.257 55.6849 152.374 56.0155 152.459C55.8121 152.645 55.5482 152.845 55.2533 153.055C54.9343 152.927 54.6673 152.775 54.4781 152.615ZM57.2104 153.494C56.8834 153.468 56.4793 153.388 56.0397 153.29C56.1971 153.205 56.3591 153.109 56.5186 152.999C56.6824 152.885 56.838 152.771 56.9845 152.664C57.405 152.75 57.7387 152.83 57.9043 152.958C57.7121 153.127 57.4737 153.307 57.2104 153.494Z" fill="#FFFEF7"/>
<path d="M60.0304 151.497C60.0769 151.938 59.1923 152.088 58.0938 152.204C56.9953 152.32 56.0672 152.056 56.0207 151.615C55.9742 151.174 56.9112 151.522 58.0097 151.406C59.1081 151.29 59.9839 151.056 60.0304 151.497Z" fill="#F56D6D"/>
<path fill-rule="evenodd" clip-rule="evenodd" d="M56.4896 152.061C56.5118 152.032 56.5338 152.003 56.5555 151.974C56.6915 151.789 56.8172 151.609 56.9342 151.44C56.9411 151.431 56.9478 151.421 56.9546 151.411C57.2322 151.428 57.5538 151.443 57.8941 151.416C57.7617 151.658 57.5766 151.932 57.3652 152.226C57.0222 152.209 56.7202 152.151 56.4896 152.061ZM59.3593 152.009C59.0413 152.09 58.6332 152.146 58.1854 152.194C58.307 152.063 58.4293 151.921 58.5445 151.764C58.6628 151.604 58.7734 151.446 58.8772 151.297C59.3028 151.242 59.6445 151.21 59.8428 151.278C59.7154 151.5 59.5479 151.747 59.3593 152.009Z" fill="#FFFEF7"/>
<path d="M58.8347 150.761C58.7473 151.233 57.8556 151.131 56.7695 150.93C55.6833 150.729 54.8737 150.183 54.9611 149.71C55.0486 149.237 55.8416 149.873 56.9278 150.074C58.0139 150.275 58.9222 150.288 58.8347 150.761Z" fill="#F56D6D"/>
<path fill-rule="evenodd" clip-rule="evenodd" d="M55.2769 150.311C55.3066 150.288 55.3363 150.264 55.3659 150.24C55.5512 150.088 55.7256 149.936 55.888 149.795C55.8975 149.787 55.9069 149.779 55.9163 149.771C56.1769 149.87 56.4804 149.979 56.8141 150.051C56.6151 150.264 56.3558 150.496 56.0656 150.74C55.7424 150.621 55.4707 150.473 55.2769 150.311ZM58.0392 151.097C57.7107 151.088 57.3035 151.027 56.8602 150.947C57.0157 150.846 57.1756 150.733 57.3326 150.604C57.4938 150.471 57.6469 150.339 57.791 150.214C58.2148 150.282 58.5514 150.348 58.7208 150.478C58.5325 150.671 58.2983 150.879 58.0392 151.097Z" fill="#FFFEF7"/>
<path d="M62.9362 149.593C63.1063 150.042 62.2904 150.416 61.2572 150.807C60.224 151.198 59.2486 151.15 59.0786 150.7C58.9085 150.25 59.9161 150.383 60.9493 149.993C61.9825 149.602 62.7661 149.143 62.9362 149.593Z" fill="#F56D6D"/>
<path fill-rule="evenodd" clip-rule="evenodd" d="M59.6601 151.051C59.6736 151.015 59.6867 150.98 59.6994 150.944C59.779 150.717 59.8498 150.498 59.9157 150.293C59.9196 150.281 59.9234 150.269 59.9272 150.257C60.2015 150.207 60.5177 150.143 60.8404 150.032C60.7803 150.317 60.6785 150.65 60.5566 151.009C60.2188 151.075 59.9094 151.088 59.6601 151.051ZM62.4303 150.293C62.1446 150.455 61.7644 150.613 61.3436 150.774C61.4244 150.608 61.5027 150.428 61.5701 150.236C61.6395 150.039 61.7021 149.847 61.7606 149.666C62.1581 149.504 62.4806 149.387 62.6924 149.41C62.6315 149.673 62.539 149.972 62.4303 150.293Z" fill="#FFFEF7"/>
<path d="M60.9333 148.507C61.1033 148.957 60.2875 149.331 59.2543 149.722C58.2211 150.112 57.2457 150.065 57.0756 149.615C56.9056 149.165 57.9132 149.298 58.9464 148.907C59.9796 148.517 60.7632 148.057 60.9333 148.507Z" fill="#F56D6D"/>
<path fill-rule="evenodd" clip-rule="evenodd" d="M57.6572 149.965C57.6706 149.93 57.6837 149.894 57.6965 149.858C57.7761 149.632 57.8469 149.412 57.9128 149.207C57.9166 149.195 57.9205 149.184 57.9243 149.172C58.1985 149.122 58.5148 149.058 58.8375 148.947C58.7774 149.232 58.6756 149.564 58.5537 149.923C58.2159 149.989 57.9065 150.003 57.6572 149.965ZM60.4273 149.207C60.1417 149.37 59.7615 149.528 59.3406 149.689C59.4215 149.522 59.4997 149.343 59.5672 149.151C59.6365 148.954 59.6991 148.762 59.7577 148.58C60.1552 148.419 60.4776 148.301 60.6894 148.324C60.6286 148.587 60.5361 148.887 60.4273 149.207Z" fill="#FFFEF7"/>
<path d="M55.3954 151.566C55.0839 151.881 54.4069 151.293 53.6208 150.517C52.8347 149.741 52.4498 148.856 52.7614 148.54C53.0729 148.225 53.3986 149.169 54.1848 149.945C54.9709 150.721 55.7069 151.25 55.3954 151.566Z" fill="#F56D6D"/>
<path fill-rule="evenodd" clip-rule="evenodd" d="M52.7143 149.185C52.7505 149.185 52.7868 149.183 52.8234 149.181C53.0522 149.169 53.2717 149.152 53.4761 149.136C53.488 149.135 53.4998 149.134 53.5116 149.133C53.6743 149.359 53.867 149.616 54.1033 149.863C53.8326 149.913 53.503 149.944 53.1419 149.967C52.9377 149.691 52.791 149.421 52.7143 149.185ZM54.5739 151.372C54.3099 151.177 54.0081 150.897 53.6865 150.581C53.8648 150.592 54.0529 150.596 54.2468 150.586C54.4459 150.576 54.638 150.561 54.8192 150.547C55.1314 150.841 55.3729 151.085 55.4458 151.282C55.1936 151.324 54.8964 151.351 54.5739 151.372Z" fill="#FFFEF7"/>
<path d="M53.3459 151.755C52.9561 151.966 52.4796 151.206 51.9532 150.235C51.4268 149.264 51.3159 148.305 51.7058 148.094C52.0956 147.883 52.1325 148.881 52.659 149.852C53.1854 150.823 53.7358 151.543 53.3459 151.755Z" fill="#F56D6D"/>
<path fill-rule="evenodd" clip-rule="evenodd" d="M51.473 148.697C51.5079 148.707 51.5431 148.716 51.5786 148.725C51.801 148.78 52.016 148.828 52.2163 148.871C52.228 148.874 52.2396 148.877 52.2511 148.879C52.3412 149.142 52.4505 149.445 52.605 149.749C52.3313 149.719 52.0068 149.653 51.6547 149.57C51.5398 149.246 51.478 148.945 51.473 148.697ZM52.6164 151.33C52.4203 151.067 52.2131 150.711 51.9971 150.316C52.1646 150.378 52.3434 150.437 52.5318 150.483C52.7253 150.531 52.9133 150.573 53.0908 150.612C53.304 150.985 53.4641 151.288 53.4766 151.498C53.2231 151.465 52.9309 151.404 52.6164 151.33Z" fill="#FFFEF7"/>
<path d="M61.84 151.454C62.0263 151.856 61.2374 152.284 60.2351 152.748C59.2327 153.212 58.2691 153.262 58.0828 152.859C57.8966 152.457 58.8954 152.483 59.8978 152.019C60.9002 151.555 61.6537 151.051 61.84 151.454Z" fill="#F56D6D"/>
<path fill-rule="evenodd" clip-rule="evenodd" d="M58.6704 153.13C58.6822 153.095 58.6937 153.061 58.7047 153.026C58.7739 152.808 58.8345 152.596 58.891 152.399C58.8943 152.387 58.8976 152.376 58.9009 152.365C59.1692 152.291 59.4783 152.201 59.7918 152.066C59.7444 152.338 59.6577 152.657 59.5524 153.003C59.2222 153.098 58.9177 153.14 58.6704 153.13ZM61.3699 152.155C61.095 152.334 60.7268 152.518 60.3186 152.709C60.3914 152.546 60.4611 152.371 60.5197 152.186C60.5799 151.996 60.6337 151.811 60.6838 151.636C61.069 151.447 61.3821 151.306 61.5918 151.307C61.5427 151.558 61.4639 151.846 61.3699 152.155Z" fill="#FFFEF7"/>
<g opacity="0.45" filter="url(#filter4_b_215_5298)">
<path d="M51 147C51 145.343 52.3431 144 54 144H61C62.6569 144 64 145.343 64 147V148C64 151.314 61.3137 154 58 154H57C53.6863 154 51 151.314 51 148V147Z" fill="#BEDBF5" fill-opacity="0.1"/>
</g>
<path d="M66 147C66 145.343 67.3431 144 69 144H76C77.6569 144 79 145.343 79 147V148C79 151.314 76.3137 154 73 154H72C68.6863 154 66 151.314 66 148V147Z" fill="#F0F8FF"/>
<path d="M66.8667 144.373C66.8667 144.174 67.0398 144.021 67.2366 144.044L67.7669 144.107C70.9113 144.479 74.0887 144.479 77.2332 144.107L77.7634 144.044C77.9603 144.021 78.1334 144.174 78.1334 144.373V144.373C78.1334 144.54 78.0079 144.682 77.8412 144.701L77.3978 144.754C74.144 145.139 70.8561 145.139 67.6022 144.754L67.1588 144.701C66.9922 144.682 66.8667 144.54 66.8667 144.373V144.373Z" fill="#D6E2ED"/>
<path d="M77.7 144.333C76.8613 144.333 75.3719 144.333 72.5 144.333C69.6282 144.333 68.9775 144.333 67.3 144.333C67.3 142.861 69.6282 141.667 72.5 141.667C75.3719 141.667 77.7 142.861 77.7 144.333Z" fill="#EEF7FF"/>
<path d="M73.8 142C73.5904 142 73.218 142 72.5 142C71.7821 142 71.6194 142 71.2 142C71.2 141.448 71.7821 141 72.5 141C73.218 141 73.8 141.448 73.8 142Z" fill="#EEF7FF"/>
<path d="M66.8667 144.156C66.8667 143.894 67.1613 143.69 67.5001 143.717L69.7918 143.897C71.5926 144.04 73.4075 144.04 75.2082 143.897L77.5 143.717C77.8388 143.69 78.1334 143.894 78.1334 144.156C78.1334 144.383 77.9104 144.573 77.6172 144.596L75.4963 144.764C73.504 144.921 71.496 144.921 69.5038 144.764L67.3828 144.596C67.0896 144.573 66.8667 144.383 66.8667 144.156Z" fill="#EEF7FF"/>
<path d="M68.1665 143.789C68.1665 143.724 68.2231 143.672 68.2883 143.679L68.9363 143.746C71.3058 143.989 73.6939 143.989 76.0634 143.746L76.7114 143.679C76.7765 143.672 76.8332 143.724 76.8332 143.789V143.789C76.8332 143.846 76.7903 143.893 76.7339 143.899L76.1846 143.955C73.7345 144.207 71.2652 144.207 68.8151 143.955L68.2658 143.899C68.2094 143.893 68.1665 143.846 68.1665 143.789V143.789Z" fill="#D6E2ED"/>
<path d="M71.2 142.147C71.2 142.075 71.2709 142.024 71.3391 142.048L71.4207 142.075C72.1203 142.315 72.8796 142.315 73.5792 142.075L73.6608 142.048C73.729 142.024 73.8 142.075 73.8 142.147V142.147C73.8 142.192 73.7714 142.232 73.7288 142.247L73.6769 142.264C72.9139 142.525 72.086 142.525 71.323 142.264L71.2711 142.247C71.2285 142.232 71.2 142.192 71.2 142.147V142.147Z" fill="#D6E2ED"/>
<path d="M71.6408 153.226C71.7302 153.659 72.5335 153.515 73.5103 153.269C74.4871 153.024 75.2065 152.475 75.1171 152.042C75.0278 151.61 74.3253 152.241 73.3485 152.487C72.3717 152.732 71.5515 152.794 71.6408 153.226Z" fill="#FBEC5F"/>
<path fill-rule="evenodd" clip-rule="evenodd" d="M74.8454 152.615C74.818 152.596 74.7906 152.575 74.7633 152.554C74.5926 152.424 74.4317 152.293 74.2819 152.172L74.2819 152.172C74.2732 152.165 74.2645 152.158 74.2559 152.151C74.0227 152.257 73.7509 152.374 73.451 152.459C73.6355 152.645 73.8748 152.845 74.1423 153.055C74.4316 152.927 74.6739 152.775 74.8454 152.615ZM72.3673 153.494C72.6639 153.468 73.0304 153.388 73.4291 153.29C73.2863 153.205 73.1394 153.109 72.9947 152.999C72.8461 152.885 72.705 152.771 72.5721 152.664C72.1908 152.75 71.8881 152.83 71.7379 152.958C71.9122 153.127 72.1284 153.307 72.3673 153.494Z" fill="#B7E46D"/>
<path d="M69.8095 151.497C69.7674 151.938 70.5697 152.088 71.566 152.204C72.5623 152.32 73.4042 152.056 73.4463 151.615C73.4885 151.174 72.6387 151.522 71.6423 151.406C70.646 151.29 69.8517 151.056 69.8095 151.497Z" fill="#FBEC5F"/>
<path fill-rule="evenodd" clip-rule="evenodd" d="M73.021 152.061C73.0008 152.032 72.9809 152.003 72.9611 151.974C72.8379 151.789 72.7239 151.609 72.6177 151.44L72.6177 151.44C72.6115 151.431 72.6054 151.421 72.5993 151.411C72.3475 151.428 72.0558 151.443 71.7471 151.416C71.8672 151.658 72.0351 151.932 72.2268 152.226C72.5379 152.209 72.8118 152.151 73.021 152.061ZM70.4182 152.009C70.7066 152.09 71.0767 152.146 71.4829 152.194C71.3727 152.063 71.2616 151.92 71.1571 151.764C71.0499 151.604 70.9496 151.446 70.8554 151.297C70.4694 151.242 70.1595 151.21 69.9796 151.278C70.0952 151.5 70.2471 151.747 70.4182 152.009Z" fill="#B7E46D"/>
<path d="M70.894 150.761C70.9733 151.233 71.782 151.131 72.7672 150.93C73.7523 150.729 74.4867 150.183 74.4073 149.71C74.328 149.237 73.6087 149.873 72.6236 150.074C71.6384 150.275 70.8147 150.288 70.894 150.761Z" fill="#FBEC5F"/>
<path fill-rule="evenodd" clip-rule="evenodd" d="M74.1209 150.312C74.0938 150.288 74.0669 150.265 74.04 150.24C73.872 150.088 73.7138 149.936 73.5665 149.795C73.5579 149.787 73.5493 149.779 73.5408 149.771C73.3045 149.87 73.0292 149.979 72.7266 150.051C72.907 150.264 73.1422 150.496 73.4054 150.74C73.6985 150.621 73.945 150.473 74.1209 150.312ZM71.6153 151.097C71.9133 151.088 72.2827 151.027 72.6847 150.947C72.5437 150.846 72.3987 150.733 72.2563 150.604C72.11 150.471 71.9712 150.339 71.8405 150.214C71.4561 150.282 71.1508 150.348 70.9972 150.478C71.1679 150.671 71.3804 150.879 71.6153 151.097Z" fill="#B7E46D"/>
<path d="M67.174 149.593C67.0197 150.042 67.7597 150.416 68.6968 150.807C69.6339 151.198 70.5186 151.15 70.6729 150.7C70.8271 150.25 69.9132 150.383 68.9761 149.993C68.039 149.602 67.3283 149.143 67.174 149.593Z" fill="#FBEC5F"/>
<path fill-rule="evenodd" clip-rule="evenodd" d="M70.1451 151.051C70.133 151.015 70.1211 150.98 70.1095 150.944C70.0373 150.717 69.9731 150.498 69.9133 150.293L69.9133 150.293L69.9133 150.293C69.9098 150.281 69.9064 150.269 69.9029 150.257C69.6541 150.207 69.3673 150.143 69.0746 150.032C69.1291 150.317 69.2215 150.65 69.332 151.009C69.6384 151.075 69.9191 151.088 70.1451 151.051ZM67.6326 150.293C67.8917 150.455 68.2365 150.613 68.6182 150.774C68.5449 150.607 68.474 150.428 68.4128 150.236C68.3499 150.039 68.2931 149.847 68.24 149.666C67.8795 149.504 67.587 149.387 67.3949 149.409C67.4501 149.672 67.534 149.972 67.6326 150.293Z" fill="#B7E46D"/>
<path d="M68.9904 148.507C68.8361 148.957 69.5761 149.331 70.5132 149.722C71.4503 150.112 72.335 150.065 72.4893 149.615C72.6435 149.165 71.7296 149.298 70.7925 148.907C69.8554 148.517 69.1447 148.057 68.9904 148.507Z" fill="#FBEC5F"/>
<path fill-rule="evenodd" clip-rule="evenodd" d="M71.9619 149.965C71.9497 149.93 71.9378 149.894 71.9263 149.858C71.854 149.632 71.7898 149.412 71.7301 149.207L71.7301 149.207L71.7301 149.207C71.7266 149.195 71.7231 149.184 71.7196 149.172C71.4709 149.122 71.1841 149.058 70.8914 148.947C70.9459 149.232 71.0382 149.564 71.1488 149.923C71.4551 149.989 71.7358 150.003 71.9619 149.965ZM69.4494 149.207C69.7085 149.37 70.0534 149.528 70.435 149.689C70.3617 149.522 70.2907 149.343 70.2295 149.151C70.1666 148.954 70.1098 148.762 70.0568 148.58C69.6963 148.419 69.4038 148.301 69.2116 148.324C69.2668 148.587 69.3508 148.887 69.4494 149.207Z" fill="#B7E46D"/>
<path d="M74.0134 151.566C74.296 151.881 74.91 151.293 75.623 150.517C76.336 149.741 76.6851 148.856 76.4025 148.54C76.12 148.225 75.8245 149.169 75.1115 149.945C74.3985 150.721 73.7309 151.25 74.0134 151.566Z" fill="#FBEC5F"/>
<path fill-rule="evenodd" clip-rule="evenodd" d="M76.4451 149.185C76.4124 149.185 76.3794 149.183 76.3463 149.181C76.1388 149.169 75.9397 149.152 75.7543 149.136L75.7543 149.136C75.7435 149.135 75.7327 149.134 75.722 149.133C75.5744 149.358 75.3997 149.616 75.1853 149.863C75.4308 149.913 75.7298 149.944 76.0573 149.967C76.2425 149.691 76.3756 149.421 76.4451 149.185ZM74.7585 151.372C74.998 151.177 75.2717 150.897 75.5634 150.581C75.4017 150.592 75.2311 150.596 75.0553 150.586C74.8746 150.576 74.7004 150.561 74.536 150.547C74.2528 150.841 74.0338 151.085 73.9677 151.282C74.1964 151.324 74.466 151.351 74.7585 151.372Z" fill="#B7E46D"/>
<path d="M75.8723 151.755C76.2259 151.966 76.658 151.206 77.1355 150.235C77.6129 149.264 77.7135 148.305 77.3599 148.094C77.0063 147.883 76.9728 148.881 76.4953 149.852C76.0179 150.823 75.5187 151.543 75.8723 151.755Z" fill="#FBEC5F"/>
<path fill-rule="evenodd" clip-rule="evenodd" d="M77.5709 148.697C77.5393 148.707 77.5073 148.716 77.4751 148.725C77.2734 148.78 77.0784 148.828 76.8967 148.871C76.8861 148.874 76.8756 148.877 76.8651 148.879C76.7834 149.142 76.6843 149.445 76.5442 149.749C76.7924 149.719 77.0867 149.653 77.4061 149.57C77.5103 149.246 77.5664 148.945 77.5709 148.697ZM76.5339 151.33C76.7116 151.067 76.8996 150.711 77.0955 150.316C76.9437 150.378 76.7814 150.437 76.6106 150.483C76.435 150.531 76.2645 150.573 76.1035 150.612C75.9102 150.985 75.765 151.288 75.7536 151.498C75.9835 151.465 76.2486 151.404 76.5339 151.33Z" fill="#B7E46D"/>
<path d="M68.168 151.454C67.999 151.856 68.7145 152.284 69.6237 152.748C70.5329 153.212 71.4068 153.262 71.5757 152.859C71.7447 152.457 70.8387 152.483 69.9296 152.019C69.0204 151.555 68.3369 151.051 68.168 151.454Z" fill="#FBEC5F"/>
<path fill-rule="evenodd" clip-rule="evenodd" d="M71.0429 153.13C71.0322 153.095 71.0218 153.061 71.0118 153.026C70.949 152.808 70.894 152.596 70.8427 152.399L70.8427 152.399L70.8427 152.399L70.8427 152.399C70.8398 152.387 70.8368 152.376 70.8338 152.365C70.5905 152.291 70.3101 152.201 70.0258 152.066C70.0688 152.338 70.1474 152.657 70.2429 153.003C70.5424 153.098 70.8186 153.14 71.0429 153.13ZM68.5944 152.155C68.8438 152.334 69.1778 152.518 69.548 152.709C69.482 152.546 69.4187 152.371 69.3656 152.186C69.311 151.996 69.2622 151.811 69.2167 151.636C68.8674 151.447 68.5834 151.306 68.3932 151.307C68.4377 151.558 68.5092 151.846 68.5944 152.155Z" fill="#B7E46D"/>
<g opacity="0.45" filter="url(#filter5_b_215_5298)">
<path d="M66 147C66 145.343 67.3431 144 69 144H76C77.6569 144 79 145.343 79 147V148C79 151.314 76.3137 154 73 154H72C68.6863 154 66 151.314 66 148V147Z" fill="#BEDBF5" fill-opacity="0.1"/>
</g>
<defs>
<filter id="filter0_b_215_5298" x="25" y="164.615" width="17.3845" height="17.3846" filterUnits="userSpaceOnUse" color-interpolation-filters="sRGB">
<feFlood flood-opacity="0" result="BackgroundImageFix"/>
<feGaussianBlur in="BackgroundImage" stdDeviation="0.5"/>
<feComposite in2="SourceAlpha" operator="in" result="effect1_backgroundBlur_215_5298"/>
<feBlend mode="normal" in="SourceGraphic" in2="effect1_backgroundBlur_215_5298" result="shape"/>
</filter>
<filter id="filter1_b_215_5298" x="9" y="164.615" width="17.3845" height="17.3846" filterUnits="userSpaceOnUse" color-interpolation-filters="sRGB">
<feFlood flood-opacity="0" result="BackgroundImageFix"/>
<feGaussianBlur in="BackgroundImage" stdDeviation="0.5"/>
<feComposite in2="SourceAlpha" operator="in" result="effect1_backgroundBlur_215_5298"/>
<feBlend mode="normal" in="SourceGraphic" in2="effect1_backgroundBlur_215_5298" result="shape"/>
</filter>
<filter id="filter2_b_215_5298" x="52" y="163.615" width="25" height="17.3846" filterUnits="userSpaceOnUse" color-interpolation-filters="sRGB">
<feFlood flood-opacity="0" result="BackgroundImageFix"/>
<feGaussianBlur in="BackgroundImage" stdDeviation="0.5"/>
<feComposite in2="SourceAlpha" operator="in" result="effect1_backgroundBlur_215_5298"/>
<feBlend mode="normal" in="SourceGraphic" in2="effect1_backgroundBlur_215_5298" result="shape"/>
</filter>
<filter id="filter3_b_215_5298" x="27" y="117" width="15" height="12" filterUnits="userSpaceOnUse" color-interpolation-filters="sRGB">
<feFlood flood-opacity="0" result="BackgroundImageFix"/>
<feGaussianBlur in="BackgroundImage" stdDeviation="0.5"/>
<feComposite in2="SourceAlpha" operator="in" result="effect1_backgroundBlur_215_5298"/>
<feBlend mode="normal" in="SourceGraphic" in2="effect1_backgroundBlur_215_5298" result="shape"/>
</filter>
<filter id="filter4_b_215_5298" x="50" y="143" width="15" height="12" filterUnits="userSpaceOnUse" color-interpolation-filters="sRGB">
<feFlood flood-opacity="0" result="BackgroundImageFix"/>
<feGaussianBlur in="BackgroundImage" stdDeviation="0.5"/>
<feComposite in2="SourceAlpha" operator="in" result="effect1_backgroundBlur_215_5298"/>
<feBlend mode="normal" in="SourceGraphic" in2="effect1_backgroundBlur_215_5298" result="shape"/>
</filter>
<filter id="filter5_b_215_5298" x="65" y="143" width="15" height="12" filterUnits="userSpaceOnUse" color-interpolation-filters="sRGB">
<feFlood flood-opacity="0" result="BackgroundImageFix"/>
<feGaussianBlur in="BackgroundImage" stdDeviation="0.5"/>
<feComposite in2="SourceAlpha" operator="in" result="effect1_backgroundBlur_215_5298"/>
<feBlend mode="normal" in="SourceGraphic" in2="effect1_backgroundBlur_215_5298" result="shape"/>
</filter>
</defs>
</svg>
