<svg width="90" height="250" viewBox="0 0 90 250" fill="none" xmlns="http://www.w3.org/2000/svg">
<path d="M5 135C5 112.909 22.9086 95 45 95V95C67.0914 95 85 112.909 85 135V181.434C85 183.643 83.2091 185.434 81 185.434H9C6.79086 185.434 5 183.643 5 181.434V135Z" fill="#EBEBEB"/>
<path d="M7.89404 135.417C7.89404 115.093 24.37 98.6173 44.694 98.6173V98.6173C65.0181 98.6173 81.494 115.093 81.494 135.417V177.816C81.494 180.025 79.7032 181.816 77.494 181.816H11.894C9.6849 181.816 7.89404 180.025 7.89404 177.816V135.417Z" fill="#BEDEFC"/>
<path d="M35.1557 180.23C35.1557 180.54 34.9675 180.916 34.4428 181.329C33.9237 181.738 33.1416 182.128 32.1305 182.465C30.1136 183.138 27.2956 183.562 24.1599 183.562C21.0242 183.562 18.2061 183.138 16.1892 182.465C15.1782 182.128 14.396 181.738 13.8769 181.329C13.3522 180.916 13.1641 180.54 13.1641 180.23C13.1641 179.92 13.3522 179.545 13.8769 179.131C14.396 178.722 15.1782 178.332 16.1892 177.995C18.2061 177.323 21.0242 176.898 24.1599 176.898C27.2956 176.898 30.1136 177.323 32.1305 177.995C33.1416 178.332 33.9237 178.722 34.4428 179.131C34.9675 179.545 35.1557 179.92 35.1557 180.23Z" fill="#FFF6D8" stroke="#EEBF19"/>
<path d="M20.6513 174.669C20.5765 174.418 20.7099 174.151 20.9562 174.06L22.3605 173.542C23.4761 173.13 24.7021 173.131 25.8171 173.544L27.351 174.113C27.5976 174.204 27.7306 174.472 27.6547 174.723L25.9574 180.354C25.8936 180.566 25.6979 180.71 25.4769 180.708L22.807 180.689C22.5879 180.687 22.3956 180.543 22.3332 180.332L20.6513 174.669Z" fill="#F4A86C"/>
<path d="M17.9078 176.546C17.8012 176.296 17.9158 176.006 18.1651 175.896L20.7136 174.771L22.3666 180.262L20.0271 180.588C19.8042 180.619 19.5882 180.497 19.5001 180.29L17.9078 176.546Z" fill="#D78759"/>
<path d="M30.3659 176.638C30.4762 176.389 30.3658 176.097 30.1182 175.984L27.5865 174.822L25.8529 180.288L28.1874 180.648C28.4098 180.682 28.6276 180.563 28.7187 180.357L30.3659 176.638Z" fill="#D78759"/>
<path d="M16.0312 178.615C16.0628 178.57 16.0994 178.529 16.1404 178.493L18.0339 176.819L19.5514 180.416L17.0195 180.843C17.012 180.845 17.0043 180.845 16.9966 180.845C15.9295 180.837 15.3115 179.633 15.9273 178.762L16.0312 178.615Z" fill="#F4A86C"/>
<path d="M32.2119 178.734C32.181 178.688 32.1449 178.647 32.1045 178.61L30.2358 176.908L28.6655 180.483L31.1909 180.948C31.1984 180.949 31.2061 180.95 31.2138 180.95C32.2809 180.958 32.9165 179.763 32.3136 178.882L32.2119 178.734Z" fill="#F4A86C"/>
<rect x="42.6206" y="95" width="3.61734" height="90.4336" fill="#EBEBEB"/>
<rect x="5" y="158.665" width="3.61734" height="79.5816" transform="rotate(-90 5 158.665)" fill="#EBEBEB"/>
<rect x="5.72363" y="132.62" width="3.61734" height="78.8581" transform="rotate(-90 5.72363 132.62)" fill="#EBEBEB"/>
<path d="M57.2199 140.878C57.9511 140.942 58.6974 141.421 59.3133 142.222C64.758 149.305 67.2034 160.104 65.3409 168.841C65.1302 169.829 64.6632 170.583 64.0308 170.956L62.9437 171.596C62.098 172.095 60.9945 171.171 60.6576 169.683L54.724 143.479C54.3871 141.991 54.9851 140.683 55.963 140.768L57.2199 140.878Z" fill="#AB8B4D"/>
<path d="M57.3593 141.419C58.0905 141.483 58.6974 141.421 59.3133 142.222C64.758 149.305 67.2034 160.104 65.3409 168.841C65.1302 169.829 64.6632 170.583 64.0308 170.956L62.9437 171.596C62.098 172.095 61.7337 171.011 61.3968 169.523L55.4745 143.369C55.3701 142.908 55.2884 142.547 55.2472 142.264C55.1425 141.541 56.3171 141.321 57.3593 141.419Z" fill="#CB9F6C"/>
<path d="M65.2723 155.876C64.0554 156.149 62.9739 155.94 62.8535 155.408C62.7331 154.877 63.6192 154.222 64.8347 153.944C64.9978 154.584 65.1438 155.229 65.2723 155.876Z" fill="#C79152"/>
<path d="M65.6109 157.872C65.4095 157.891 65.1994 157.925 64.9852 157.973C63.7631 158.25 62.8702 158.907 62.9911 159.441C63.1119 159.974 64.2007 160.183 65.4229 159.906C65.5633 159.874 65.6994 159.837 65.8301 159.796C65.7747 159.155 65.7015 158.513 65.6109 157.872Z" fill="#C79152"/>
<path d="M65.9473 161.889C65.6869 161.903 65.4085 161.941 65.1228 162.005C63.9006 162.282 63.0078 162.939 63.1287 163.473C63.2495 164.006 64.3382 164.215 65.5604 163.938C65.6906 163.908 65.817 163.875 65.9389 163.837C65.9611 163.192 65.9638 162.542 65.9473 161.889Z" fill="#C79152"/>
<path d="M65.794 165.946C65.6209 165.966 65.4421 165.996 65.2604 166.038C64.0382 166.314 63.1454 166.971 63.2662 167.505C63.3806 168.01 64.3617 168.224 65.5024 168.011C65.6244 167.332 65.7214 166.643 65.794 165.946Z" fill="#C79152"/>
<path d="M62.0069 146.473C61.8807 146.491 61.7521 146.515 61.6219 146.545C60.3997 146.821 59.5069 147.478 59.6278 148.012C59.7486 148.546 60.8373 148.754 62.0595 148.477C62.3452 148.413 62.6129 148.327 62.8538 148.227C62.5874 147.631 62.3049 147.045 62.0069 146.473Z" fill="#C79152"/>
<path d="M63.6496 150.166C63.5139 150.186 63.3752 150.211 63.2348 150.243C62.0126 150.52 61.1198 151.177 61.2406 151.71C61.3615 152.244 62.4502 152.452 63.6724 152.175C63.8866 152.127 64.0906 152.067 64.2808 151.998C64.0864 151.38 63.8759 150.769 63.6496 150.166Z" fill="#C79152"/>
<path d="M60.9677 144.632C60.6017 144.034 60.2173 143.454 59.8151 142.894C58.6939 143.193 57.9005 143.809 58.0149 144.314C58.1357 144.848 59.2245 145.056 60.4466 144.779C60.6284 144.738 60.8028 144.688 60.9677 144.632Z" fill="#C79152"/>
<path d="M62.8685 155.151C63.2071 155.511 64.1369 155.623 65.1629 155.393C65.1147 155.15 65.0641 154.908 65.011 154.666C64.9546 154.425 64.8959 154.184 64.8347 153.944C63.8098 154.179 63.0192 154.681 62.8685 155.151Z" fill="#E0CA92"/>
<path d="M65.567 157.876C65.379 157.896 65.1839 157.928 64.9852 157.973C63.9541 158.207 63.1574 158.711 63.0061 159.183C63.3461 159.544 64.2823 159.656 65.3135 159.423C65.4539 159.391 65.59 159.354 65.7207 159.313C65.6793 158.834 65.6281 158.355 65.567 157.876Z" fill="#E0CA92"/>
<path d="M65.8467 161.895C65.6156 161.913 65.372 161.949 65.1228 162.005C64.0917 162.239 63.295 162.743 63.1437 163.215C63.4837 163.577 64.4199 163.688 65.451 163.455C65.5812 163.425 65.7076 163.392 65.8295 163.354C65.8462 162.87 65.8518 162.384 65.8467 161.895Z" fill="#E0CA92"/>
<path d="M65.6275 165.968C65.5071 165.986 65.3844 166.009 65.2604 166.038C64.2292 166.271 63.4325 166.775 63.2813 167.248C63.5996 167.586 64.4407 167.705 65.393 167.527C65.4854 167.014 65.5635 166.493 65.6275 165.968Z" fill="#E0CA92"/>
<path d="M62.6508 147.782C62.4451 147.339 62.2303 146.902 62.0069 146.473C61.8807 146.491 61.7521 146.515 61.6219 146.545C60.5908 146.778 59.7941 147.282 59.6428 147.755C59.9828 148.116 60.919 148.228 61.9501 147.994C62.1993 147.938 62.4348 147.865 62.6508 147.782Z" fill="#E0CA92"/>
<path d="M64.1299 151.529C63.9787 151.071 63.8185 150.616 63.6496 150.166C63.5139 150.186 63.3752 150.211 63.2348 150.243C62.2036 150.476 61.4069 150.98 61.2557 151.453C61.5957 151.814 62.5319 151.926 63.563 151.692C63.7617 151.647 63.9516 151.592 64.1299 151.529Z" fill="#E0CA92"/>
<path d="M60.6985 144.2C60.4144 143.754 60.1199 143.318 59.8151 142.894C58.8791 143.144 58.1716 143.614 58.0299 144.057C58.3699 144.418 59.3061 144.529 60.3372 144.296C60.4613 144.268 60.5819 144.236 60.6985 144.2Z" fill="#E0CA92"/>
<path d="M53.2697 145.654C54.0275 145.679 54.8721 146.196 55.6389 147.105C62.4183 155.138 66.7735 167.793 66.3742 178.297C66.329 179.485 65.9817 180.413 65.3999 180.899L64.3998 181.735C63.6217 182.385 62.3358 181.365 61.7357 179.621L51.168 148.916C50.5679 147.172 50.9536 145.577 51.967 145.611L53.2697 145.654Z" fill="#FCCA6B"/>
<path d="M53.505 146.287C54.2629 146.312 54.8721 146.196 55.6389 147.105C62.4183 155.138 66.7735 167.793 66.3742 178.297C66.329 179.485 65.9817 180.413 65.3999 180.899L64.3998 181.735C63.6217 182.385 63.0633 181.123 62.4632 179.38L51.9155 148.733C51.7296 148.193 51.584 147.77 51.4933 147.436C51.2621 146.586 52.4238 146.242 53.505 146.287Z" fill="#FFD88D"/>
<path d="M64.074 162.907C62.8779 163.314 61.7375 163.141 61.523 162.518C61.3086 161.895 62.101 161.057 63.2946 160.642C63.5713 161.391 63.8313 162.146 64.074 162.907Z" fill="#FFE99B"/>
<path d="M64.763 165.252C64.5606 165.29 64.3518 165.344 64.1415 165.416C62.9408 165.83 62.1419 166.672 62.3572 167.297C62.5724 167.922 63.7202 168.094 64.9209 167.681C65.0588 167.633 65.1915 167.58 65.3179 167.523C65.151 166.765 64.9658 166.007 64.763 165.252Z" fill="#FFE99B"/>
<path d="M65.7976 169.999C65.534 170.034 65.2562 170.098 64.9756 170.195C63.7749 170.608 62.9761 171.45 63.1913 172.075C63.4065 172.701 64.5543 172.873 65.755 172.46C65.8829 172.416 66.0062 172.367 66.1242 172.314C66.0359 171.546 65.9268 170.774 65.7976 169.999Z" fill="#FFE99B"/>
<path d="M66.3389 174.828C66.1656 174.864 65.9882 174.912 65.8097 174.973C64.609 175.387 63.8102 176.229 64.0254 176.854C64.2291 177.446 65.2678 177.632 66.3963 177.3C66.4042 176.486 66.3847 175.661 66.3389 174.828Z" fill="#FFE99B"/>
<path d="M59.1212 151.966C58.9956 151.997 58.8683 152.034 58.7404 152.078C57.5398 152.492 56.7409 153.334 56.9561 153.959C57.1713 154.584 58.3192 154.756 59.5198 154.343C59.8005 154.246 60.0592 154.126 60.2881 153.991C59.9134 153.301 59.5242 152.626 59.1212 151.966Z" fill="#FFE99B"/>
<path d="M61.4344 156.239C61.2991 156.271 61.1619 156.311 61.0239 156.358C59.8232 156.771 59.0244 157.613 59.2396 158.239C59.4548 158.864 60.6026 159.036 61.8033 158.623C62.0137 158.55 62.2117 158.465 62.3941 158.369C62.0893 157.65 61.7692 156.939 61.4344 156.239Z" fill="#FFE99B"/>
<path d="M57.7433 149.853C57.2666 149.168 56.7741 148.505 56.2671 147.869C55.1734 148.302 54.469 149.087 54.6727 149.679C54.8879 150.304 56.0357 150.476 57.2364 150.063C57.4149 150.002 57.5845 149.931 57.7433 149.853Z" fill="#FFE99B"/>
<path d="M61.4941 162.212C61.9018 162.615 62.8707 162.684 63.8791 162.341C63.7881 162.056 63.6947 161.771 63.5988 161.487C63.4998 161.205 63.3983 160.923 63.2946 160.642C62.2882 160.992 61.5671 161.643 61.4941 162.212Z" fill="#FFF6D8"/>
<path d="M64.719 165.261C64.5304 165.298 64.3366 165.349 64.1415 165.416C63.1285 165.765 62.4015 166.419 62.3282 166.99C62.7376 167.396 63.713 167.463 64.726 167.115C64.864 167.067 64.9966 167.014 65.1231 166.956C64.9985 166.391 64.8637 165.825 64.719 165.261Z" fill="#FFF6D8"/>
<path d="M65.6959 170.014C65.463 170.051 65.2204 170.111 64.9756 170.195C63.9626 170.544 63.2356 171.197 63.1623 171.769C63.5718 172.174 64.5471 172.242 65.5601 171.893C65.688 171.849 65.8113 171.8 65.9293 171.748C65.8631 171.172 65.7852 170.594 65.6959 170.014Z" fill="#FFF6D8"/>
<path d="M66.1727 174.866C66.0529 174.896 65.9316 174.932 65.8097 174.973C64.7967 175.322 64.0697 175.976 63.9965 176.547C64.3798 176.927 65.2594 177.011 66.2014 176.733C66.2074 176.117 66.1977 175.494 66.1727 174.866Z" fill="#FFF6D8"/>
<path d="M60.0041 153.476C59.7177 152.964 59.4233 152.461 59.1212 151.966C58.9956 151.997 58.8683 152.034 58.7404 152.078C57.7274 152.427 57.0005 153.081 56.9272 153.652C57.3366 154.058 58.312 154.125 59.325 153.777C59.5698 153.693 59.7979 153.59 60.0041 153.476Z" fill="#FFF6D8"/>
<path d="M62.1594 157.824C61.9261 157.29 61.6843 156.761 61.4344 156.239C61.2991 156.271 61.1619 156.311 61.0239 156.358C60.0109 156.707 59.2839 157.361 59.2106 157.932C59.6201 158.337 60.5954 158.405 61.6084 158.057C61.8036 157.989 61.9881 157.911 62.1594 157.824Z" fill="#FFF6D8"/>
<path d="M57.394 149.359C57.0271 148.848 56.6513 148.351 56.2671 147.869C55.3541 148.23 54.7123 148.837 54.6437 149.373C55.0532 149.778 56.0285 149.846 57.0415 149.497C57.1634 149.455 57.2811 149.409 57.394 149.359Z" fill="#FFF6D8"/>
<path d="M54.957 160.143L56.873 161.675L59.1722 160.143L61.4713 161.675L63.7705 160.143L66.0696 161.675L68.3688 160.143L70.668 161.675L72.5839 160.143V183.134H58.0226C56.3295 183.134 54.957 181.762 54.957 180.069V160.143Z" fill="#F0AE62"/>
<path d="M78.715 160.143L77.1156 161.675L75.5162 160.143L73.9168 161.675L72.5839 160.143V183.134H75.6495C77.3425 183.134 78.715 181.762 78.715 180.069V160.143Z" fill="#E6994E"/>
</svg>
