<svg width="90" height="250" viewBox="0 0 90 250" fill="none" xmlns="http://www.w3.org/2000/svg">
<rect x="16" y="137" width="58" height="63" fill="#CCE3F9" fill-opacity="0.64"/>
<rect x="10" y="190" width="70" height="13" fill="#EBCFB9"/>
<path d="M26.2031 193.553C26.2031 197.172 23.4714 198 20.1016 198C16.7318 198 14 197.172 14 193.553C14 189.934 16.7318 187 20.1016 187C23.4714 187 26.2031 189.934 26.2031 193.553Z" fill="#B58154"/>
<path fill-rule="evenodd" clip-rule="evenodd" d="M17.3423 191.152C16.8518 191.797 16.4305 192.366 16.0834 192.842C15.2994 192.555 14.8594 192.5 14.8594 192.5C14.8594 192.5 15.1662 192.744 15.8199 193.206C15.2355 194.017 14.9256 194.478 14.9256 194.478C14.9256 194.478 15.451 194.167 16.2218 193.487C16.6723 193.798 17.2398 194.18 17.9319 194.627C17.1688 195.807 16.7342 196.636 16.7342 196.636C16.7342 196.636 17.446 195.989 18.4142 194.936L18.4537 194.961C19.0579 195.345 19.6026 195.681 20.0812 195.97C19.5169 197.036 19.3299 197.727 19.3299 197.727C19.3299 197.727 19.7873 197.207 20.5631 196.258C21.7546 196.965 22.4219 197.313 22.4219 197.313C22.4219 197.313 21.9743 196.674 20.9487 195.784C21.2973 195.352 21.6933 194.853 22.1278 194.294C23.6558 195.201 24.7422 195.766 24.7422 195.766C24.7422 195.766 23.9034 194.868 22.5386 193.765C23.0346 193.127 23.4495 192.598 23.7839 192.175C24.8584 192.629 25.5157 192.749 25.5157 192.749C25.5157 192.749 25.0414 192.382 24.1258 191.743C24.5948 191.153 24.8282 190.867 24.8282 190.867C24.8282 190.867 24.4132 191.027 23.7694 191.497C23.2734 191.156 22.6747 190.754 21.9769 190.302C22.6601 189.229 23.0461 188.493 23.0461 188.493C23.0461 188.493 22.4141 189.067 21.5311 190.014C20.8203 189.559 20.2195 189.181 19.7273 188.876C20.0752 188.06 20.1013 187.602 20.1013 187.602C20.1013 187.602 19.85 187.914 19.3021 188.614C18.4565 188.097 18.0391 187.859 18.0391 187.859C18.0391 187.859 18.2926 188.322 18.9854 189.021C18.6426 189.461 18.2162 190.012 17.6994 190.685C16.3458 190.016 15.375 189.664 15.375 189.664C15.375 189.664 16.1464 190.285 17.3423 191.152ZM18.4359 191.062C18.9016 191.309 19.3955 191.587 19.8989 191.896C20.2653 191.44 20.6268 191.017 20.9669 190.634C20.3497 190.218 19.85 189.82 19.45 189.462C19.2104 189.923 18.8831 190.46 18.4359 191.062ZM16.668 193.075C17.1557 193.284 17.731 193.568 18.3804 193.95C18.6777 193.513 19.0103 193.046 19.3742 192.567C18.8866 192.242 18.4248 191.923 18 191.623C17.5319 192.2 17.0775 192.681 16.668 193.075ZM20.5811 192.329C20.9273 191.864 21.2429 191.414 21.5241 190.994C22.147 191.381 22.7208 191.686 23.2276 191.926C22.8286 192.267 22.3785 192.707 21.9052 193.269C21.4968 192.958 21.0534 192.641 20.5811 192.329ZM20.4284 195.352C20.6976 194.898 21.0264 194.399 21.4251 193.872C20.9892 193.606 20.5288 193.319 20.0562 193.014C19.687 193.481 19.3202 193.918 18.9724 194.314C19.5313 194.672 20.0149 195.023 20.4284 195.352Z" fill="#D99F5B"/>
<path d="M38.8062 193.553C38.8062 197.172 36.0744 198 32.7046 198C29.3348 198 26.603 197.172 26.603 193.553C26.603 189.934 29.3348 187 32.7046 187C36.0744 187 38.8062 189.934 38.8062 193.553Z" fill="#B58154"/>
<path fill-rule="evenodd" clip-rule="evenodd" d="M29.9453 191.152C29.4548 191.797 29.0335 192.366 28.6864 192.842C27.9024 192.555 27.4624 192.5 27.4624 192.5C27.4624 192.5 27.7692 192.744 28.423 193.206C27.8386 194.017 27.5286 194.478 27.5286 194.478C27.5286 194.478 28.054 194.167 28.8248 193.487C29.2754 193.798 29.8429 194.18 30.5349 194.627C29.7718 195.807 29.3373 196.636 29.3373 196.636C29.3373 196.636 30.049 195.989 31.0172 194.936L31.0567 194.961C31.6609 195.345 32.2057 195.681 32.6842 195.97C32.1199 197.036 31.9329 197.727 31.9329 197.727C31.9329 197.727 32.3904 197.207 33.1661 196.258C34.3576 196.965 35.0249 197.313 35.0249 197.313C35.0249 197.313 34.5773 196.674 33.5517 195.784C33.9003 195.352 34.2963 194.853 34.7308 194.294C36.2588 195.201 37.3452 195.766 37.3452 195.766C37.3452 195.766 36.5065 194.868 35.1417 193.765C35.6376 193.127 36.0526 192.598 36.3869 192.175C37.4614 192.629 38.1188 192.749 38.1188 192.749C38.1188 192.749 37.6444 192.382 36.7288 191.743C37.1978 191.153 37.4313 190.867 37.4313 190.867C37.4313 190.867 37.0162 191.027 36.3725 191.497C35.8764 191.156 35.2777 190.754 34.58 190.302C35.2631 189.229 35.6491 188.493 35.6491 188.493C35.6491 188.493 35.0171 189.067 34.1341 190.014C33.4233 189.559 32.8225 189.181 32.3303 188.876C32.6783 188.06 32.7044 187.602 32.7044 187.602C32.7044 187.602 32.453 187.914 31.9052 188.614C31.0596 188.097 30.6421 187.859 30.6421 187.859C30.6421 187.859 30.8956 188.322 31.5884 189.021C31.2456 189.461 30.8192 190.012 30.3025 190.685C28.9488 190.016 27.978 189.664 27.978 189.664C27.978 189.664 28.7494 190.285 29.9453 191.152ZM31.039 191.062C31.5046 191.309 31.9985 191.587 32.5019 191.896C32.8683 191.44 33.2298 191.017 33.5699 190.634C32.9527 190.218 32.4531 189.82 32.0531 189.462C31.8135 189.923 31.4861 190.46 31.039 191.062ZM29.271 193.075C29.7587 193.284 30.3341 193.568 30.9834 193.95C31.2807 193.513 31.6134 193.046 31.9773 192.567C31.4896 192.242 31.0278 191.923 30.603 191.623C30.1349 192.2 29.6805 192.681 29.271 193.075ZM33.1841 192.329C33.5303 191.864 33.8459 191.414 34.1271 190.994C34.75 191.381 35.3238 191.686 35.8307 191.926C35.4317 192.267 34.9815 192.707 34.5083 193.269C34.0999 192.958 33.6564 192.641 33.1841 192.329ZM33.0315 195.352C33.3007 194.898 33.6294 194.399 34.0281 193.872C33.5922 193.606 33.1319 193.319 32.6592 193.014C32.29 193.481 31.9232 193.918 31.5754 194.314C32.1343 194.672 32.6179 195.023 33.0315 195.352Z" fill="#D99F5B"/>
<path d="M51.4092 193.553C51.4092 197.172 48.6774 198 45.3076 198C41.9378 198 39.2061 197.172 39.2061 193.553C39.2061 189.934 41.9378 187 45.3076 187C48.6774 187 51.4092 189.934 51.4092 193.553Z" fill="#B58154"/>
<path fill-rule="evenodd" clip-rule="evenodd" d="M42.5483 191.152C42.0578 191.797 41.6365 192.366 41.2894 192.842C40.5055 192.555 40.0654 192.5 40.0654 192.5C40.0654 192.5 40.3722 192.744 41.026 193.206C40.4416 194.017 40.1317 194.478 40.1317 194.478C40.1317 194.478 40.6571 194.167 41.4278 193.487C41.8784 193.798 42.4459 194.18 43.1379 194.627C42.3749 195.807 41.9403 196.636 41.9403 196.636C41.9403 196.636 42.6521 195.989 43.6202 194.936L43.6598 194.961C44.2639 195.345 44.8087 195.681 45.2872 195.97C44.723 197.036 44.536 197.727 44.536 197.727C44.536 197.727 44.9934 197.207 45.7692 196.258C46.9607 196.965 47.6279 197.313 47.6279 197.313C47.6279 197.313 47.1803 196.674 46.1548 195.784C46.5033 195.352 46.8993 194.853 47.3338 194.294C48.8618 195.201 49.9482 195.766 49.9482 195.766C49.9482 195.766 49.1095 194.868 47.7447 193.765C48.2406 193.127 48.6556 192.598 48.99 192.175C50.0644 192.629 50.7218 192.749 50.7218 192.749C50.7218 192.749 50.2475 192.382 49.3319 191.743C49.8008 191.153 50.0343 190.867 50.0343 190.867C50.0343 190.867 49.6193 191.027 48.9755 191.497C48.4795 191.156 47.8807 190.754 47.183 190.302C47.8662 189.229 48.2522 188.493 48.2522 188.493C48.2522 188.493 47.6202 189.067 46.7372 190.014C46.0263 189.559 45.4255 189.181 44.9334 188.876C45.2813 188.06 45.3074 187.602 45.3074 187.602C45.3074 187.602 45.056 187.914 44.5082 188.614C43.6626 188.097 43.2451 187.859 43.2451 187.859C43.2451 187.859 43.4987 188.322 44.1914 189.021C43.8487 189.461 43.4222 190.012 42.9055 190.685C41.5519 190.016 40.5811 189.664 40.5811 189.664C40.5811 189.664 41.3525 190.285 42.5483 191.152ZM43.642 191.062C44.1077 191.309 44.6016 191.587 45.1049 191.896C45.4714 191.44 45.8329 191.017 46.173 190.634C45.5558 190.218 45.0561 189.82 44.6561 189.462C44.4165 189.923 44.0891 190.46 43.642 191.062ZM41.8741 193.075C42.3617 193.284 42.9371 193.568 43.5864 193.95C43.8837 193.513 44.2164 193.046 44.5803 192.567C44.0927 192.242 43.6308 191.923 43.206 191.623C42.7379 192.2 42.2835 192.681 41.8741 193.075ZM45.7872 192.329C46.1334 191.864 46.449 191.414 46.7301 190.994C47.353 191.381 47.9269 191.686 48.4337 191.926C48.0347 192.267 47.5845 192.707 47.1113 193.269C46.7029 192.958 46.2595 192.641 45.7872 192.329ZM45.6345 195.352C45.9037 194.898 46.2324 194.399 46.6312 193.872C46.1952 193.606 45.7349 193.319 45.2622 193.014C44.8931 193.481 44.5262 193.918 44.1784 194.314C44.7373 194.672 45.2209 195.023 45.6345 195.352Z" fill="#D99F5B"/>
<path d="M64.0127 193.553C64.0127 197.172 61.2809 198 57.9111 198C54.5413 198 51.8096 197.172 51.8096 193.553C51.8096 189.934 54.5413 187 57.9111 187C61.2809 187 64.0127 189.934 64.0127 193.553Z" fill="#B58154"/>
<path fill-rule="evenodd" clip-rule="evenodd" d="M55.1518 191.152C54.6614 191.797 54.24 192.366 53.893 192.842C53.109 192.555 52.6689 192.5 52.6689 192.5C52.6689 192.5 52.9757 192.744 53.6295 193.206C53.0451 194.017 52.7352 194.478 52.7352 194.478C52.7352 194.478 53.2606 194.167 54.0313 193.487C54.4819 193.798 55.0494 194.18 55.7414 194.627C54.9784 195.807 54.5438 196.636 54.5438 196.636C54.5438 196.636 55.2556 195.989 56.2237 194.936L56.2633 194.961C56.8674 195.345 57.4122 195.681 57.8908 195.97C57.3265 197.036 57.1395 197.727 57.1395 197.727C57.1395 197.727 57.5969 197.207 58.3727 196.258C59.5642 196.965 60.2314 197.313 60.2314 197.313C60.2314 197.313 59.7838 196.674 58.7583 195.784C59.1068 195.352 59.5028 194.853 59.9374 194.294C61.4654 195.201 62.5518 195.766 62.5518 195.766C62.5518 195.766 61.713 194.868 60.3482 193.765C60.8441 193.127 61.2591 192.598 61.5935 192.175C62.6679 192.629 63.3253 192.749 63.3253 192.749C63.3253 192.749 62.851 192.382 61.9354 191.743C62.4043 191.153 62.6378 190.867 62.6378 190.867C62.6378 190.867 62.2228 191.027 61.579 191.497C61.083 191.156 60.4842 190.754 59.7865 190.302C60.4697 189.229 60.8557 188.493 60.8557 188.493C60.8557 188.493 60.2237 189.067 59.3407 190.014C58.6299 189.559 58.029 189.181 57.5369 188.876C57.8848 188.06 57.9109 187.602 57.9109 187.602C57.9109 187.602 57.6595 187.914 57.1117 188.614C56.2661 188.097 55.8486 187.859 55.8486 187.859C55.8486 187.859 56.1022 188.322 56.7949 189.021C56.4522 189.461 56.0257 190.012 55.509 190.685C54.1554 190.016 53.1846 189.664 53.1846 189.664C53.1846 189.664 53.956 190.285 55.1518 191.152ZM56.2455 191.062C56.7112 191.309 57.2051 191.587 57.7084 191.896C58.0749 191.44 58.4364 191.017 58.7765 190.634C58.1593 190.218 57.6596 189.82 57.2596 189.462C57.02 189.923 56.6927 190.46 56.2455 191.062ZM54.4776 193.075C54.9653 193.284 55.5406 193.568 56.19 193.95C56.4872 193.513 56.8199 193.046 57.1838 192.567C56.6962 192.242 56.2344 191.923 55.8096 191.623C55.3414 192.2 54.887 192.681 54.4776 193.075ZM58.3907 192.329C58.7369 191.864 59.0525 191.414 59.3336 190.994C59.9566 191.381 60.5304 191.686 61.0372 191.926C60.6382 192.267 60.188 192.707 59.7148 193.269C59.3064 192.958 58.863 192.641 58.3907 192.329ZM58.238 195.352C58.5072 194.898 58.8359 194.399 59.2347 193.872C58.7987 193.606 58.3384 193.319 57.8658 193.014C57.4966 193.481 57.1297 193.918 56.7819 194.314C57.3408 194.672 57.8245 195.023 58.238 195.352Z" fill="#D99F5B"/>
<path d="M76.6152 193.553C76.6152 197.172 73.8835 198 70.5137 198C67.1439 198 64.4121 197.172 64.4121 193.553C64.4121 189.934 67.1439 187 70.5137 187C73.8835 187 76.6152 189.934 76.6152 193.553Z" fill="#B58154"/>
<path fill-rule="evenodd" clip-rule="evenodd" d="M67.7544 191.152C67.2639 191.797 66.8426 192.366 66.4955 192.842C65.7115 192.555 65.2715 192.5 65.2715 192.5C65.2715 192.5 65.5783 192.744 66.232 193.206C65.6476 194.017 65.3377 194.478 65.3377 194.478C65.3377 194.478 65.8631 194.167 66.6339 193.487C67.0844 193.798 67.6519 194.18 68.344 194.627C67.5809 195.807 67.1464 196.636 67.1464 196.636C67.1464 196.636 67.8581 195.989 68.8263 194.936L68.8658 194.961C69.47 195.345 70.0147 195.681 70.4933 195.97C69.929 197.036 69.742 197.727 69.742 197.727C69.742 197.727 70.1994 197.207 70.9752 196.258C72.1667 196.965 72.834 197.313 72.834 197.313C72.834 197.313 72.3864 196.674 71.3608 195.784C71.7094 195.352 72.1054 194.853 72.5399 194.294C74.0679 195.201 75.1543 195.766 75.1543 195.766C75.1543 195.766 74.3155 194.868 72.9508 193.765C73.4467 193.127 73.8616 192.598 74.196 192.175C75.2705 192.629 75.9278 192.749 75.9278 192.749C75.9278 192.749 75.4535 192.382 74.5379 191.743C75.0069 191.153 75.2403 190.867 75.2403 190.867C75.2403 190.867 74.8253 191.027 74.1815 191.497C73.6855 191.156 73.0868 190.754 72.389 190.302C73.0722 189.229 73.4582 188.493 73.4582 188.493C73.4582 188.493 72.8262 189.067 71.9432 190.014C71.2324 189.559 70.6316 189.181 70.1394 188.876C70.4874 188.06 70.5134 187.602 70.5134 187.602C70.5134 187.602 70.2621 187.914 69.7142 188.614C68.8686 188.097 68.4512 187.859 68.4512 187.859C68.4512 187.859 68.7047 188.322 69.3975 189.021C69.0547 189.461 68.6283 190.012 68.1116 190.685C66.7579 190.016 65.7871 189.664 65.7871 189.664C65.7871 189.664 66.5585 190.285 67.7544 191.152ZM68.8481 191.062C69.3137 191.309 69.8076 191.587 70.311 191.896C70.6774 191.44 71.0389 191.017 71.379 190.634C70.7618 190.218 70.2621 189.82 69.8621 189.462C69.6226 189.923 69.2952 190.46 68.8481 191.062ZM67.0801 193.075C67.5678 193.284 68.1431 193.568 68.7925 193.95C69.0898 193.513 69.4224 193.046 69.7863 192.567C69.2987 192.242 68.8369 191.923 68.4121 191.623C67.944 192.2 67.4896 192.681 67.0801 193.075ZM70.9932 192.329C71.3394 191.864 71.655 191.414 71.9362 190.994C72.5591 191.381 73.1329 191.686 73.6397 191.926C73.2407 192.267 72.7906 192.707 72.3173 193.269C71.9089 192.958 71.4655 192.641 70.9932 192.329ZM70.8405 195.352C71.1097 194.898 71.4385 194.399 71.8372 193.872C71.4013 193.606 70.941 193.319 70.4683 193.014C70.0991 193.481 69.7323 193.918 69.3845 194.314C69.9434 194.672 70.427 195.023 70.8405 195.352Z" fill="#D99F5B"/>
<rect x="10" y="197" width="70" height="3" fill="#8C5632"/>
<rect x="10" y="173" width="70" height="11" fill="#EBCFB9"/>
<ellipse cx="15.983" cy="174" rx="6.11886" ry="8.83102" transform="rotate(-13.2736 15.983 174)" fill="#D08439"/>
<ellipse cx="17.4431" cy="176.838" rx="4.37124" ry="0.710988" transform="rotate(-26.7116 17.4431 176.838)" fill="#B8682D"/>
<ellipse cx="16.0987" cy="174.036" rx="5.11671" ry="0.710988" transform="rotate(-26.7116 16.0987 174.036)" fill="#B8682D"/>
<ellipse cx="15.101" cy="171.06" rx="4.61958" ry="0.710988" transform="rotate(-26.7116 15.101 171.06)" fill="#B8682D"/>
<ellipse cx="29.983" cy="174" rx="6.11886" ry="8.83102" transform="rotate(-13.2736 29.983 174)" fill="#D08439"/>
<ellipse cx="31.4431" cy="176.838" rx="4.37124" ry="0.710988" transform="rotate(-26.7116 31.4431 176.838)" fill="#B8682D"/>
<ellipse cx="30.0987" cy="174.036" rx="5.11671" ry="0.710988" transform="rotate(-26.7116 30.0987 174.036)" fill="#B8682D"/>
<ellipse cx="29.101" cy="171.06" rx="4.61958" ry="0.710988" transform="rotate(-26.7116 29.101 171.06)" fill="#B8682D"/>
<ellipse cx="43.983" cy="174" rx="6.11886" ry="8.83102" transform="rotate(-13.2736 43.983 174)" fill="#D08439"/>
<ellipse cx="45.4431" cy="176.838" rx="4.37124" ry="0.710988" transform="rotate(-26.7116 45.4431 176.838)" fill="#B8682D"/>
<ellipse cx="44.0987" cy="174.036" rx="5.11671" ry="0.710988" transform="rotate(-26.7116 44.0987 174.036)" fill="#B8682D"/>
<ellipse cx="43.101" cy="171.06" rx="4.61958" ry="0.710988" transform="rotate(-26.7116 43.101 171.06)" fill="#B8682D"/>
<ellipse cx="57.983" cy="174" rx="6.11886" ry="8.83102" transform="rotate(-13.2736 57.983 174)" fill="#D08439"/>
<ellipse cx="59.4431" cy="176.838" rx="4.37124" ry="0.710988" transform="rotate(-26.7116 59.4431 176.838)" fill="#B8682D"/>
<ellipse cx="58.0987" cy="174.036" rx="5.11671" ry="0.710988" transform="rotate(-26.7116 58.0987 174.036)" fill="#B8682D"/>
<ellipse cx="57.101" cy="171.06" rx="4.61958" ry="0.710988" transform="rotate(-26.7116 57.101 171.06)" fill="#B8682D"/>
<ellipse cx="71.983" cy="174" rx="6.11886" ry="8.83102" transform="rotate(-13.2736 71.983 174)" fill="#D08439"/>
<ellipse cx="73.4431" cy="176.838" rx="4.37124" ry="0.710988" transform="rotate(-26.7116 73.4431 176.838)" fill="#B8682D"/>
<ellipse cx="72.0987" cy="174.036" rx="5.11671" ry="0.710988" transform="rotate(-26.7116 72.0987 174.036)" fill="#B8682D"/>
<ellipse cx="71.101" cy="171.06" rx="4.61958" ry="0.710988" transform="rotate(-26.7116 71.101 171.06)" fill="#B8682D"/>
<rect x="10" y="181" width="70" height="3" fill="#8C5632"/>
<rect x="10" y="152" width="70" height="11" fill="#EBCFB9"/>
<path d="M26.5662 156.082C24.9831 160.936 22.6173 163.022 19.0702 161.865C15.5231 160.708 14.8421 157.629 16.4252 152.775C18.0083 147.921 20.4843 145.497 24.0314 146.654C27.5785 147.811 28.1493 151.228 26.5662 156.082Z" fill="#A25A30"/>
<path d="M24.6481 155.083C23.4912 158.63 20.2578 160.757 19.5111 160.513C18.7643 160.269 17.4066 156.645 18.5635 153.098C19.7204 149.551 22.9537 147.424 23.7005 147.668C24.4472 147.911 25.8049 151.536 24.6481 155.083Z" fill="#894211"/>
<path d="M23.9722 154.862C22.8153 158.409 20.0921 160.702 19.5113 160.513C18.9305 160.324 18.0829 156.866 19.2398 153.319C20.3966 149.772 23.1199 147.478 23.7007 147.668C24.2815 147.857 25.1291 151.315 23.9722 154.862Z" fill="#CD8344"/>
<path d="M38.5662 156.082C36.9831 160.936 34.6173 163.022 31.0702 161.865C27.5231 160.708 26.8421 157.629 28.4252 152.775C30.0083 147.921 32.4843 145.497 36.0314 146.654C39.5785 147.811 40.1493 151.228 38.5662 156.082Z" fill="#A25A30"/>
<path d="M36.6481 155.083C35.4912 158.63 32.2578 160.757 31.5111 160.513C30.7643 160.269 29.4066 156.645 30.5635 153.098C31.7204 149.551 34.9537 147.424 35.7005 147.668C36.4472 147.911 37.8049 151.536 36.6481 155.083Z" fill="#894211"/>
<path d="M35.9722 154.862C34.8153 158.409 32.0921 160.702 31.5113 160.513C30.9305 160.324 30.0829 156.866 31.2398 153.319C32.3966 149.772 35.1199 147.478 35.7007 147.668C36.2815 147.857 37.1291 151.315 35.9722 154.862Z" fill="#CD8344"/>
<path d="M51.5662 156.082C49.9831 160.936 47.6173 163.022 44.0702 161.865C40.5231 160.708 39.8421 157.629 41.4252 152.775C43.0083 147.921 45.4843 145.497 49.0314 146.654C52.5785 147.811 53.1493 151.228 51.5662 156.082Z" fill="#A25A30"/>
<path d="M49.6481 155.083C48.4912 158.63 45.2578 160.757 44.5111 160.513C43.7643 160.269 42.4066 156.645 43.5635 153.098C44.7204 149.551 47.9537 147.424 48.7005 147.668C49.4472 147.911 50.8049 151.536 49.6481 155.083Z" fill="#894211"/>
<path d="M48.9722 154.862C47.8153 158.409 45.0921 160.702 44.5113 160.513C43.9305 160.324 43.0829 156.866 44.2398 153.319C45.3966 149.772 48.1199 147.478 48.7007 147.668C49.2815 147.857 50.1291 151.315 48.9722 154.862Z" fill="#CD8344"/>
<path d="M63.5662 156.082C61.9831 160.936 59.6173 163.022 56.0702 161.865C52.5231 160.708 51.8421 157.629 53.4252 152.775C55.0083 147.921 57.4843 145.497 61.0314 146.654C64.5785 147.811 65.1493 151.228 63.5662 156.082Z" fill="#A25A30"/>
<path d="M61.6481 155.083C60.4912 158.63 57.2578 160.757 56.5111 160.513C55.7643 160.269 54.4066 156.645 55.5635 153.098C56.7204 149.551 59.9537 147.424 60.7005 147.668C61.4472 147.911 62.8049 151.536 61.6481 155.083Z" fill="#894211"/>
<path d="M60.9722 154.862C59.8153 158.409 57.0921 160.702 56.5113 160.513C55.9305 160.324 55.0829 156.866 56.2398 153.319C57.3966 149.772 60.1199 147.478 60.7007 147.668C61.2815 147.857 62.1291 151.315 60.9722 154.862Z" fill="#CD8344"/>
<path d="M75.5662 156.082C73.9831 160.936 71.6173 163.022 68.0702 161.865C64.5231 160.708 63.8421 157.629 65.4252 152.775C67.0083 147.921 69.4843 145.497 73.0314 146.654C76.5785 147.811 77.1493 151.228 75.5662 156.082Z" fill="#A25A30"/>
<path d="M73.6481 155.083C72.4912 158.63 69.2578 160.757 68.5111 160.513C67.7643 160.269 66.4066 156.645 67.5635 153.098C68.7204 149.551 71.9537 147.424 72.7005 147.668C73.4472 147.911 74.8049 151.536 73.6481 155.083Z" fill="#894211"/>
<path d="M72.9722 154.862C71.8153 158.409 69.0921 160.702 68.5113 160.513C67.9305 160.324 67.0829 156.866 68.2398 153.319C69.3966 149.772 72.1199 147.478 72.7007 147.668C73.2815 147.857 74.1291 151.315 72.9722 154.862Z" fill="#CD8344"/>
<rect x="10" y="161" width="70" height="3" fill="#8C5632"/>
<g filter="url(#filter0_b_211_572)">
<rect x="16" y="137" width="58" height="63" fill="#CCE3F9" fill-opacity="0.1"/>
</g>
<path fill-rule="evenodd" clip-rule="evenodd" d="M10 131H7V210H83V131H80V206.962H10V131Z" fill="#A3A3A3"/>
<path fill-rule="evenodd" clip-rule="evenodd" d="M80 131H10V207H80V131ZM13 134H43V203H13V134ZM47 134H77V203H47V134Z" fill="#C7C7C7"/>
<path fill-rule="evenodd" clip-rule="evenodd" d="M80 131H83C83 108.356 65.9868 90 45 90C24.0132 90 7 108.356 7 131H10C10 110.013 25.67 93 45 93C64.33 93 80 110.013 80 131Z" fill="#A3A3A3"/>
<path d="M80 131C63.8125 131 64.33 131 45 131C25.67 131 33.625 131 10 131C10 110.013 25.67 93 45 93C64.33 93 80 110.013 80 131Z" fill="#CCE3F9"/>
<path fill-rule="evenodd" clip-rule="evenodd" d="M45 131H80C80 110.013 64.33 93 45 93C25.67 93 10 110.013 10 131H45ZM46 94C42.6863 94 40 96.2386 40 99L43 121L46.5 121.5L52 99C52 96.2386 49.3137 94 46 94ZM36.9679 99.9602L36.9451 99.9724L41.9992 121.498L39.5032 122.999L26.423 105.643L26.4042 105.653C25.0942 103.222 26.397 99.9771 29.3141 98.405C32.1804 96.8603 35.5389 97.5057 36.8977 99.835L36.9111 99.8276L36.9233 99.8794C36.9384 99.9061 36.9533 99.933 36.9679 99.9602ZM24.8075 106.768L24.7841 106.804L38.5 123.5L36.5 126L18.1894 116.723L18.1638 116.761C15.8642 115.232 15.4873 111.756 17.3219 108.997C19.1565 106.237 22.508 105.239 24.8075 106.768ZM16 130V129.966L35 130L36 127L16 118C13.2386 118 11 120.686 11 124C11 127.314 13.2386 130 16 130ZM65.3321 107.21L65.3555 107.245L51.6396 123.941L53.6396 126.441L71.9503 117.164L71.9759 117.203C74.2755 115.674 74.6524 112.197 72.8178 109.438C70.9831 106.678 67.6317 105.681 65.3321 107.21ZM53.1945 100.414L53.1717 100.402C53.1863 100.374 53.2012 100.348 53.2164 100.321L53.2285 100.269L53.2419 100.276C54.6007 97.9471 57.9592 97.3017 60.8256 98.8465C63.7427 100.418 65.0454 103.664 63.7354 106.094L63.7166 106.084L50.6365 123.44L48.1404 121.94L53.1945 100.414ZM74 118L54 127L55 130L74 129.966V130C76.7614 130 79 127.314 79 124C79 120.686 76.7614 118 74 118Z" fill="#C7C7C7"/>
<path d="M55 131C50.375 131 50.5228 131 45 131C39.4772 131 41.75 131 35 131C35 125.477 39.4772 121 45 121C50.5228 121 55 125.477 55 131Z" fill="#C7C7C7"/>
<path d="M43 203H13L16 200H40L43 203Z" fill="#A3A3A3"/>
<path d="M13 134H43L40 137H16L13 134Z" fill="#DCDCDC"/>
<path d="M13 203V134L16 137V200L13 203Z" fill="#DCDCDC"/>
<path d="M43 134V203L40 200V137L43 134Z" fill="#A3A3A3"/>
<path d="M77 203H47L50 200H74L77 203Z" fill="#A3A3A3"/>
<path d="M47 134H77L74 137H50L47 134Z" fill="#DCDCDC"/>
<path d="M47 203V134L50 137V200L47 203Z" fill="#DCDCDC"/>
<path d="M77 134V203L74 200V137L77 134Z" fill="#A3A3A3"/>
<defs>
<filter id="filter0_b_211_572" x="15.7" y="136.7" width="58.6" height="63.6" filterUnits="userSpaceOnUse" color-interpolation-filters="sRGB">
<feFlood flood-opacity="0" result="BackgroundImageFix"/>
<feGaussianBlur in="BackgroundImage" stdDeviation="0.15"/>
<feComposite in2="SourceAlpha" operator="in" result="effect1_backgroundBlur_211_572"/>
<feBlend mode="normal" in="SourceGraphic" in2="effect1_backgroundBlur_211_572" result="shape"/>
</filter>
</defs>
</svg>
