<svg width="40" height="40" viewBox="0 0 40 40" fill="none" xmlns="http://www.w3.org/2000/svg">
<circle cx="20" cy="20" r="20" fill="#C5DBFF"/>
<g clip-path="url(#clip0_153_983)">
<path d="M8 29.3981C13.504 29.8541 11.533 24.0061 16.626 23.9531L18.832 25.7941C19.381 32.4391 11.253 33.9211 8 29.3981H8ZM24.878 20.8601C26.591 18.1731 31.894 9.16206 31.894 9.16206C32.317 8.41506 31.379 7.63406 30.724 8.18606C30.724 8.18606 22.837 15.0431 20.511 17.2161C18.673 18.9351 18.665 19.7201 18.07 22.5521L20.086 24.2331C22.756 23.1351 23.525 22.9851 24.878 20.8601Z" fill="white"/>
</g>
<defs>
<clipPath id="clip0_153_983">
<rect width="24" height="24" fill="white" transform="translate(8 8)"/>
</clipPath>
</defs>
</svg>
