<svg width="110" height="70" viewBox="0 0 110 70" fill="none" xmlns="http://www.w3.org/2000/svg">
<path d="M79.1787 18.4894C79.1795 18.4182 79.1799 18.3468 79.1799 18.2753C79.1799 8.18214 71.6444 0 62.3489 0C54.1729 0 47.3586 6.32987 45.8357 14.7225C43.4959 13.3841 40.8305 12.6266 38.0021 12.6266C29.8693 12.6266 23.0838 18.8898 21.5135 27.2163C20.027 26.6593 18.4559 26.3608 16.831 26.3608C7.5355 26.3608 0 36.1297 0 48.1804C0 48.7928 0.0194593 49.3992 0.05762 49.9988C0.019453 50.495 0 50.9967 0 51.5032C0 59.0984 4.37515 65.6244 10.6323 68.4726C12.5506 69.4583 14.642 70 16.831 70C16.9632 70 17.0951 69.998 17.2266 69.9941C17.3766 69.998 17.527 70 17.6779 70H91.7767C101.54 70 109.455 61.7187 109.455 51.5032C109.455 43.4379 104.521 36.5783 97.6396 34.0479C96.4718 25.1928 89.4577 18.3861 80.9794 18.3861C80.3711 18.3861 79.7704 18.4211 79.1787 18.4894Z" fill="#BEDEFC"/>
<path d="M80.9454 55.7455C62.3636 55.7455 69.1502 55.7455 54.6 55.7455C40.0498 55.7455 47.7273 55.7455 28.2545 55.7455C28.2545 39.5786 40.0498 26.4727 54.6 26.4727C69.1502 26.4727 80.9454 39.5786 80.9454 55.7455Z" fill="#FFDE6A"/>
<path d="M23.1636 58.9273C23.1636 57.17 24.5882 55.7455 26.3455 55.7455H83.1091C84.8664 55.7455 86.2909 57.17 86.2909 58.9273C86.2909 60.6845 84.8664 62.1091 83.1091 62.1091H26.3455C24.5882 62.1091 23.1636 60.6845 23.1636 58.9273Z" fill="#FFDE6A"/>
<path d="M32.5818 54.7273C32.5818 54.1649 33.0377 53.7091 33.6 53.7091H76.1091C76.6714 53.7091 77.1273 54.1649 77.1273 54.7273C77.1273 55.2896 76.6714 55.7455 76.1091 55.7455H33.6C33.0377 55.7455 32.5818 55.2896 32.5818 54.7273Z" fill="#FFEAA0"/>
<path d="M45.5636 37.0364C45.5636 42.1676 49.7233 46.3273 54.8545 46.3273C59.9858 46.3273 64.1455 42.1676 64.1455 37.0364V26.8981C61.2244 25.3151 57.9954 24.4364 54.6 24.4364C51.4006 24.4364 48.3491 25.2165 45.5636 26.6309V37.0364Z" fill="#FFEAA0"/>
</svg>
