<svg width="855" height="600" viewBox="0 0 855 600" fill="none" xmlns="http://www.w3.org/2000/svg">
<rect width="854.4" height="600" rx="5" fill="white"/>
<path fill-rule="evenodd" clip-rule="evenodd" d="M0 5C0 2.23858 2.23858 0 5 0H849.4C852.161 0 854.4 2.23858 854.4 5V186.511C852.085 185.5 849.605 184.952 847.026 184.952C844.798 184.952 842.643 185.361 840.605 186.125C838.451 174.706 829.145 166.117 817.992 166.117C814.113 166.117 810.457 167.155 807.249 168.991C805.16 157.481 795.815 148.8 784.602 148.8C771.854 148.8 761.519 160.021 761.519 173.863C761.519 173.961 761.52 174.059 761.521 174.157C760.71 174.063 759.886 174.015 759.051 174.015C747.424 174.015 737.805 183.35 736.203 195.494C726.766 198.965 720 208.372 720 219.433C720 233.443 730.854 244.8 744.244 244.8H845.865C846.072 244.8 846.278 244.797 846.484 244.792C846.664 244.797 846.845 244.8 847.026 244.8C849.605 244.8 852.085 244.252 854.4 243.241V482.2C854.4 484.961 852.161 487.2 849.4 487.2H4.99999C2.23856 487.2 0 484.961 0 482.2V208.8H75.465C88.8546 208.8 99.709 197.443 99.709 183.433C99.709 172.372 92.9432 162.965 83.5057 159.494C81.9041 147.35 72.2847 138.015 60.6574 138.015C59.8231 138.015 58.9992 138.063 58.1879 138.157C58.1889 138.059 58.1894 137.961 58.1894 137.863C58.1894 124.021 47.855 112.8 35.1069 112.8C23.8942 112.8 14.5488 121.481 12.4603 132.991C9.25143 131.155 5.59598 130.117 1.71706 130.117C1.13951 130.117 0.566909 130.14 0 130.185V5ZM668.175 84.5251C661.202 84.5251 654.822 86.8088 649.907 90.5905C646.897 81.1184 639.338 74.4001 630.487 74.4001C622.991 74.4001 616.42 79.2206 612.756 86.452C611.104 85.208 609.306 84.5251 607.425 84.5251C599.348 84.5251 592.8 97.117 592.8 112.65C592.8 121 594.692 128.5 597.696 133.651C601.631 141.226 609.549 146.4 618.675 146.4H708.675C721.723 146.4 732.3 135.823 732.3 122.775C732.3 114.176 727.706 106.65 720.839 102.518C717.867 95.2901 710.268 90.1501 701.362 90.1501C697.012 90.1501 692.973 91.3766 689.634 93.474C684.475 87.9995 676.776 84.5251 668.175 84.5251ZM275.842 25.5962C272.903 21.7368 267.932 19.2001 262.294 19.2001C253.265 19.2001 245.945 25.7063 245.945 33.7322C245.945 34.2618 245.977 34.7848 246.039 35.2997C238.556 39.557 233.593 47.0267 233.593 55.5303C233.593 56.034 233.61 56.5342 233.644 57.0303C228.713 61.3584 225.6 67.7083 225.6 74.7852C225.6 87.8273 236.173 98.3999 249.215 98.3999H342.947C355.989 98.3999 366.561 87.8273 366.561 74.7852C366.561 61.7432 355.989 51.1706 342.947 51.1706H338.864C337.801 40.1826 327.185 31.5523 314.246 31.5523C312.62 31.5523 311.03 31.6886 309.492 31.9489C306.663 26.2241 298.8 22.1063 289.542 22.1063C284.311 22.1063 279.526 23.4205 275.842 25.5962ZM286.918 51.1706L289.458 51.1704C288.59 51.1681 287.735 51.1296 286.894 51.057L286.918 51.1706Z" fill="#BEDEFC"/>
</svg>
