<svg width="54" height="98" viewBox="0 0 54 98" fill="none" xmlns="http://www.w3.org/2000/svg">
<mask id="path-1-inside-1_58_1189" fill="white">
<path d="M0 2C0 0.89543 0.895431 0 2 0H52C53.1046 0 54 0.89543 54 2V98H0V2Z"/>
</mask>
<path d="M0 2C0 0.89543 0.895431 0 2 0H52C53.1046 0 54 0.89543 54 2V98H0V2Z" fill="#F0F8FF"/>
<path d="M-5 2C-5 -1.31371 -2.31371 -4 1 -4H53C56.3137 -4 59 -1.31371 59 2L49 4H5L-5 2ZM54 98H0H54ZM-5 98V2C-5 -1.31371 -2.31371 -4 1 -4L5 4V98H-5ZM53 -4C56.3137 -4 59 -1.31371 59 2V98H49V4L53 -4Z" fill="#D99F5B" mask="url(#path-1-inside-1_58_1189)"/>
<g filter="url(#filter0_b_58_1189)">
<path d="M5 4H49V28H5V4Z" fill="#0054A0" fill-opacity="0.2"/>
</g>
<rect x="5" y="30" width="44" height="68" fill="#D99F5B"/>
<mask id="mask0_58_1189" style="mask-type:alpha" maskUnits="userSpaceOnUse" x="0" y="0" width="54" height="98">
<path d="M0 2C0 0.89543 0.895431 0 2 0H52C53.1046 0 54 0.89543 54 2V98H0V2Z" fill="#F0F8FF"/>
</mask>
<g mask="url(#mask0_58_1189)">
<path fill-rule="evenodd" clip-rule="evenodd" d="M3 14H-13V30H3H19H35H51H67H83V14H67H51H35H19H3ZM1 16H-11V28H1V16ZM17 16H5V28H17V16ZM21 16H33V28H21V16ZM49 16H37V28H49V16ZM53 16H65V28H53V16ZM81 16H69V28H81V16Z" fill="#D99F5B"/>
<path fill-rule="evenodd" clip-rule="evenodd" d="M3 0H-13V16H3H19H35H51H67H83V0H67H51H35H19H3ZM1 2H-11V14H1V2ZM17 2H5V14H17V2ZM21 2H33V14H21V2ZM49 2H37V14H49V2ZM53 2H65V14H53V2ZM81 2H69V14H81V2Z" fill="#D99F5B"/>
</g>
<mask id="path-8-inside-2_58_1189" fill="white">
<rect x="5" y="37" width="44" height="25" rx="2"/>
</mask>
<rect x="5" y="37" width="44" height="25" rx="2" fill="#D99F5B" stroke="#DBBD99" stroke-width="8" stroke-linejoin="round" mask="url(#path-8-inside-2_58_1189)"/>
<mask id="path-9-inside-3_58_1189" fill="white">
<rect x="5" y="67" width="44" height="25" rx="2"/>
</mask>
<rect x="5" y="67" width="44" height="25" rx="2" fill="#D99F5B" stroke="#DBBD99" stroke-width="8" stroke-linejoin="round" mask="url(#path-9-inside-3_58_1189)"/>
<defs>
<filter id="filter0_b_58_1189" x="1" y="0" width="52" height="32" filterUnits="userSpaceOnUse" color-interpolation-filters="sRGB">
<feFlood flood-opacity="0" result="BackgroundImageFix"/>
<feGaussianBlur in="BackgroundImage" stdDeviation="2"/>
<feComposite in2="SourceAlpha" operator="in" result="effect1_backgroundBlur_58_1189"/>
<feBlend mode="normal" in="SourceGraphic" in2="effect1_backgroundBlur_58_1189" result="shape"/>
</filter>
</defs>
</svg>
