<svg width="66" height="129" viewBox="0 0 66 129" fill="none" xmlns="http://www.w3.org/2000/svg">
<path fill-rule="evenodd" clip-rule="evenodd" d="M66 41H0V129H3V44H63V129H66V41Z" fill="#062428"/>
<path fill-rule="evenodd" clip-rule="evenodd" d="M63 44H3V129H6V47H60V129H63V44Z" fill="#012D33"/>
<path fill-rule="evenodd" clip-rule="evenodd" d="M60 47H6V129H8V49H58V129H60V47Z" fill="#104147"/>
<path fill-rule="evenodd" clip-rule="evenodd" d="M66 0H0V41H66V0ZM63 3H3V38H63V3Z" fill="#062428"/>
<path fill-rule="evenodd" clip-rule="evenodd" d="M63 3H3V38H63V3ZM60 6H6V35H60V6Z" fill="#012D33"/>
<path fill-rule="evenodd" clip-rule="evenodd" d="M60 6H6V35H60V6ZM58 8H8V33H58V8Z" fill="#062428"/>
<rect x="8" y="8" width="50" height="25" fill="#CCE3F9"/>
<path d="M8 49H58L53 52H13L8 49Z" fill="#104147"/>
<path fill-rule="evenodd" clip-rule="evenodd" d="M58 49L53 52V129H58V49ZM13 129V52L8 49V129H13Z" fill="#062428"/>
<rect x="13" y="52" width="40" height="77" fill="#012D33"/>
<path d="M17 57L20 60V73L17 76V57Z" fill="#062428"/>
<path d="M17 85L20 88V120L17 123V85Z" fill="#062428"/>
<path d="M49 76L46 73V60L49 57V76Z" fill="#062428"/>
<path d="M49 123L46 120V88L49 85V123Z" fill="#062428"/>
<path d="M17 76L20 73H46L49 76H17Z" fill="#104147"/>
<path d="M17 123L20 120L46 120L49 123L17 123Z" fill="#104147"/>
<path d="M49 57L46 60L20 60L17 57L49 57Z" fill="#104147"/>
<path d="M49 85L46 88L20 88L17 85L49 85Z" fill="#104147"/>
<rect x="32.5908" y="79.6907" width="0.690627" height="15.6256" transform="rotate(36.6241 32.5908 79.6907)" fill="#876047"/>
<rect x="32.3594" y="80.1748" width="0.690627" height="11.7707" transform="rotate(-44.5144 32.3594 80.1748)" fill="#876047"/>
<circle cx="32.7049" cy="80.0359" r="1.03594" fill="#B49D72"/>
<rect x="22" y="92.1476" width="20.7188" height="7.04914" transform="rotate(-13.5663 22 92.1476)" fill="#C7B471"/>
<path d="M26.6571 94.613C26.766 95.0639 26.9551 95.3933 27.2246 95.6012C27.4938 95.8075 27.8309 95.8617 28.2359 95.764C28.6409 95.6662 28.9146 95.4645 29.0568 95.159C29.2006 94.853 29.2179 94.4738 29.1087 94.0213C28.9972 93.5593 28.807 93.2259 28.5383 93.0212C28.2711 92.8162 27.9374 92.7619 27.5371 92.8585C27.1368 92.9552 26.8622 93.1562 26.7133 93.4618C26.5643 93.7673 26.5456 94.151 26.6571 94.613ZM29.5477 93.9153C29.6123 94.1827 29.6341 94.4361 29.6132 94.6756C29.5939 94.9146 29.5339 95.1309 29.4332 95.3243C29.3338 95.5157 29.1895 95.6811 29.0005 95.8205C28.8111 95.9583 28.585 96.059 28.3224 96.1223C27.968 96.2079 27.6461 96.2061 27.3566 96.1169C27.0684 96.0257 26.8286 95.8609 26.6371 95.6225C26.4468 95.3821 26.3077 95.08 26.2199 94.7161C26.0843 94.1544 26.1237 93.6761 26.3381 93.2811C26.5525 92.8861 26.9232 92.625 27.45 92.4978C27.969 92.3726 28.4144 92.4384 28.7861 92.6952C29.1591 92.9501 29.4129 93.3568 29.5477 93.9153ZM31.5867 95.2792L31.1666 95.3806L30.3097 91.8302L31.4536 91.5541C31.6276 91.5121 31.7894 91.4923 31.939 91.4947C32.0886 91.4971 32.227 91.5223 32.3541 91.5703C32.4812 91.6183 32.5899 91.6976 32.6802 91.808C32.7705 91.9185 32.8357 92.0568 32.8758 92.2229C32.909 92.3606 32.9261 92.4871 32.9272 92.6023C32.9278 92.716 32.9088 92.8278 32.87 92.9376C32.8312 93.0474 32.7696 93.146 32.6852 93.2334C32.6004 93.3191 32.4841 93.3991 32.3362 93.4733C32.1896 93.5455 32.0134 93.6065 31.8077 93.6561C31.6448 93.6955 31.4493 93.7318 31.2212 93.7651L31.5867 95.2792ZM31.7604 93.2833C31.9155 93.2459 32.0448 93.1988 32.1483 93.142C32.2518 93.0852 32.3274 93.0276 32.3753 92.9691C32.4247 92.9103 32.4574 92.8413 32.4735 92.7621C32.4911 92.6825 32.4968 92.6125 32.4906 92.552C32.484 92.49 32.4706 92.417 32.4503 92.3332C32.4018 92.1322 32.2981 92.0007 32.1391 91.9386C31.9817 91.8762 31.7867 91.873 31.5541 91.9291L30.8208 92.1061L31.1399 93.428C31.446 93.3575 31.6528 93.3093 31.7604 93.2833ZM34.5693 94.5593L33.7221 91.0492L35.7346 90.5635L35.8056 90.9306L34.2203 91.3132L34.4975 92.4619L36.0046 92.0981L36.091 92.4565L34.584 92.8203L34.8922 94.0971L36.5298 93.7018L36.5984 94.0695L34.5693 94.5593ZM40.6395 93.0941L40.1743 93.2064L37.6849 90.8838L37.5267 90.7487C37.6196 91.0779 37.6975 91.3731 37.7605 91.6341L38.252 93.6704L37.8675 93.7632L37.0203 90.2531L37.4784 90.1426L39.9725 92.464L40.1331 92.5985C40.0002 92.0965 39.9242 91.8059 39.9051 91.7268L39.4102 89.6763L39.7923 89.5841L40.6395 93.0941Z" fill="#FFF6D8"/>
</svg>
