<svg width="71" height="122" viewBox="0 0 71 122" fill="none" xmlns="http://www.w3.org/2000/svg">
<path d="M0 35.0877C0 15.7093 15.7093 0 35.0877 0C54.4661 0 70.1754 15.7093 70.1754 35.0877V121.93H0V35.0877Z" fill="#B1CF7F"/>
<path fill-rule="evenodd" clip-rule="evenodd" d="M0 121.93H3V35.0877C3 17.3662 17.3662 3 35.0877 3C52.8093 3 67.1754 17.3662 67.1754 35.0877V121.93H70.1754V35.0877C70.1754 15.7093 54.4661 0 35.0877 0C15.7093 0 0 15.7093 0 35.0877V121.93Z" fill="#9BAF7A"/>
<path d="M14 35.5C14 24.1782 23.1782 15 34.5 15C45.8218 15 55 24.1782 55 35.5V43.7037C55 44.9719 53.9719 46 52.7037 46H16.2963C15.0281 46 14 44.9719 14 43.7037V35.5Z" fill="#CCE3F9"/>
<path fill-rule="evenodd" clip-rule="evenodd" d="M14 35.5V43.7037C14 44.9719 15.0281 46 16.2963 46H52.7037C53.9719 46 55 44.9719 55 43.7037V35.5C55 24.1782 45.8218 15 34.5 15C23.1782 15 14 24.1782 14 35.5ZM53 35.5C53 25.2827 44.7173 17 34.5 17C24.2827 17 16 25.2827 16 35.5V43.7037C16 43.8673 16.1327 44 16.2963 44H52.7037C52.8673 44 53 43.8673 53 43.7037V35.5Z" fill="#9BAF7A"/>
<path d="M64 64.5C64 65.8807 62.8807 67 61.5 67C60.1193 67 59 65.8807 59 64.5C59 63.1193 60.1193 62 61.5 62C62.8807 62 64 63.1193 64 64.5Z" fill="#9BAF7A"/>
</svg>
