<svg width="70" height="122" viewBox="0 0 70 122" fill="none" xmlns="http://www.w3.org/2000/svg">
<path d="M0 0H70V122H0V0Z" fill="#B49D72"/>
<path d="M33 9H5V48H33V9Z" fill="#FFFDF2"/>
<path d="M5 52V64H33V52H5Z" fill="#FFFDF2"/>
<path d="M5 68V80H33V68H5Z" fill="#FFFDF2"/>
<path d="M5 84V96H33V84H5Z" fill="#FFFDF2"/>
<path d="M5 100V113.571H33V100H5Z" fill="#FFFDF2"/>
<path d="M37 113.571H65V100H37V113.571Z" fill="#FFFDF2"/>
<path d="M65 96V84H37V96H65Z" fill="#FFFDF2"/>
<path d="M65 80V68H37V80H65Z" fill="#FFFDF2"/>
<path d="M65 64V52H37V64H65Z" fill="#FFFDF2"/>
<path d="M65 48V9H37V48H65Z" fill="#FFFDF2"/>
<rect y="4" width="70" height="4" fill="#7E6755"/>
<path d="M2 10H68V58H54L53 29L52 58H18L17 29L16 58H2V10Z" fill="#98C3EB"/>
<path d="M34 4H36V10H34V4Z" fill="#98C3EB"/>
<path d="M42 4H44V10H42V4Z" fill="#98C3EB"/>
<path d="M50 4H52V10H50V4Z" fill="#98C3EB"/>
<path d="M58 4H60V10H58V4Z" fill="#98C3EB"/>
<path d="M66 4H68V10H66V4Z" fill="#98C3EB"/>
<path d="M2 4H4V10H2V4Z" fill="#98C3EB"/>
<path d="M10 4H12V10H10V4Z" fill="#98C3EB"/>
<path d="M18 4H20V10H18V4Z" fill="#98C3EB"/>
<path d="M26 4H28V10H26V4Z" fill="#98C3EB"/>
</svg>
