<svg width="71" height="122" viewBox="0 0 71 122" fill="none" xmlns="http://www.w3.org/2000/svg">
<path d="M0 35.0877C0 15.7093 15.7093 0 35.0877 0C54.4661 0 70.1754 15.7093 70.1754 35.0877V121.93H0V35.0877Z" fill="#F56D6D"/>
<path fill-rule="evenodd" clip-rule="evenodd" d="M0 121.93H3V35.0877C3 17.3662 17.3662 3 35.0877 3C52.8093 3 67.1754 17.3662 67.1754 35.0877V121.93H70.1754V35.0877C70.1754 15.7093 54.4661 0 35.0877 0C15.7093 0 0 15.7093 0 35.0877V121.93Z" fill="#FFB2B2"/>
<path d="M14 35.5C14 24.1782 23.1782 15 34.5 15C45.8218 15 55 24.1782 55 35.5V43.7037C55 44.9719 53.9719 46 52.7037 46H16.2963C15.0281 46 14 44.9719 14 43.7037V35.5Z" fill="#CCE3F9"/>
<path fill-rule="evenodd" clip-rule="evenodd" d="M14 35.5V43.7037C14 44.9719 15.0281 46 16.2963 46H52.7037C53.9719 46 55 44.9719 55 43.7037V35.5C55 24.1782 45.8218 15 34.5 15C23.1782 15 14 24.1782 14 35.5ZM53 35.5C53 25.2827 44.7173 17 34.5 17C24.2827 17 16 25.2827 16 35.5V43.7037C16 43.8673 16.1327 44 16.2963 44H52.7037C52.8673 44 53 43.8673 53 43.7037V35.5Z" fill="#FFB2B2"/>
<path d="M14 56C14 53.7909 15.7909 52 18 52H51C53.2091 52 55 53.7909 55 56V72C55 74.2091 53.2091 76 51 76H18C15.7909 76 14 74.2091 14 72V56Z" fill="#CCE3F9"/>
<path fill-rule="evenodd" clip-rule="evenodd" d="M14 56V72C14 74.2091 15.7909 76 18 76H51C53.2091 76 55 74.2091 55 72V56C55 53.7909 53.2091 52 51 52H18C15.7909 52 14 53.7909 14 56ZM51 54H18C16.8954 54 16 54.8954 16 56V72C16 73.1046 16.8954 74 18 74H51C52.1046 74 53 73.1046 53 72V56C53 54.8954 52.1046 54 51 54Z" fill="#FFB2B2"/>
<path d="M14 86C14 83.7909 15.7909 82 18 82H51C53.2091 82 55 83.7909 55 86V102C55 104.209 53.2091 106 51 106H18C15.7909 106 14 104.209 14 102V86Z" fill="#CCE3F9"/>
<path fill-rule="evenodd" clip-rule="evenodd" d="M14 86V102C14 104.209 15.7909 106 18 106H51C53.2091 106 55 104.209 55 102V86C55 83.7909 53.2091 82 51 82H18C15.7909 82 14 83.7909 14 86ZM51 84H18C16.8954 84 16 84.8954 16 86V102C16 103.105 16.8954 104 18 104H51C52.1046 104 53 103.105 53 102V86C53 84.8954 52.1046 84 51 84Z" fill="#FFB2B2"/>
<path d="M64 64.5C64 65.8807 62.8807 67 61.5 67C60.1193 67 59 65.8807 59 64.5C59 63.1193 60.1193 62 61.5 62C62.8807 62 64 63.1193 64 64.5Z" fill="#FFB2B2"/>
</svg>
