<svg width="71" height="122" viewBox="0 0 71 122" fill="none" xmlns="http://www.w3.org/2000/svg">
<mask id="path-1-inside-1_2_826" fill="white">
<path d="M0 35.0877C0 15.7093 15.7093 0 35.0877 0C54.4661 0 70.1754 15.7093 70.1754 35.0877V121.93H0V35.0877Z"/>
</mask>
<path d="M0 35.0877C0 15.7093 15.7093 0 35.0877 0C54.4661 0 70.1754 15.7093 70.1754 35.0877V121.93H0V35.0877Z" fill="#EEBF19"/>
<path d="M-3 35.0877C-3 14.0525 14.0525 -3 35.0877 -3C56.123 -3 73.1754 14.0525 73.1754 35.0877H67.1754C67.1754 17.3662 52.8093 3 35.0877 3C17.3662 3 3 17.3662 3 35.0877H-3ZM70.1754 121.93H0H70.1754ZM-3 121.93V35.0877C-3 14.0525 14.0525 -3 35.0877 -3V3C17.3662 3 3 17.3662 3 35.0877V121.93H-3ZM35.0877 -3C56.123 -3 73.1754 14.0525 73.1754 35.0877V121.93H67.1754V35.0877C67.1754 17.3662 52.8093 3 35.0877 3V-3Z" fill="#FFEAA0" mask="url(#path-1-inside-1_2_826)"/>
<mask id="path-3-inside-2_2_826" fill="white">
<path d="M14 35.5C14 24.1782 23.1782 15 34.5 15C45.8218 15 55 24.1782 55 35.5V43.7037C55 44.9719 53.9719 46 52.7037 46H16.2963C15.0281 46 14 44.9719 14 43.7037V35.5Z"/>
</mask>
<path d="M14 35.5C14 24.1782 23.1782 15 34.5 15C45.8218 15 55 24.1782 55 35.5V43.7037C55 44.9719 53.9719 46 52.7037 46H16.2963C15.0281 46 14 44.9719 14 43.7037V35.5Z" fill="#CCE3F9"/>
<path d="M12 35.5C12 23.0736 22.0736 13 34.5 13C46.9264 13 57 23.0736 57 35.5H53C53 25.2827 44.7173 17 34.5 17C24.2827 17 16 25.2827 16 35.5H12ZM57 43.7037C57 46.0765 55.0765 48 52.7037 48H16.2963C13.9235 48 12 46.0765 12 43.7037L16 43.7037C16 43.8673 16.1327 44 16.2963 44H52.7037C52.8673 44 53 43.8673 53 43.7037L57 43.7037ZM16.2963 48C13.9235 48 12 46.0765 12 43.7037V35.5C12 23.0736 22.0736 13 34.5 13V17C24.2827 17 16 25.2827 16 35.5V43.7037C16 43.8673 16.1327 44 16.2963 44L16.2963 48ZM34.5 13C46.9264 13 57 23.0736 57 35.5V43.7037C57 46.0765 55.0765 48 52.7037 48V44C52.8673 44 53 43.8673 53 43.7037V35.5C53 25.2827 44.7173 17 34.5 17V13Z" fill="#FFEAA0" mask="url(#path-3-inside-2_2_826)"/>
<mask id="path-5-inside-3_2_826" fill="white">
<path d="M14 56C14 53.7909 15.7909 52 18 52H51C53.2091 52 55 53.7909 55 56V102C55 104.209 53.2091 106 51 106H18C15.7909 106 14 104.209 14 102V56Z"/>
</mask>
<path d="M14 56C14 53.7909 15.7909 52 18 52H51C53.2091 52 55 53.7909 55 56V102C55 104.209 53.2091 106 51 106H18C15.7909 106 14 104.209 14 102V56Z" fill="#CCE3F9"/>
<path d="M12 56C12 52.6863 14.6863 50 18 50H51C54.3137 50 57 52.6863 57 56H53C53 54.8954 52.1046 54 51 54H18C16.8954 54 16 54.8954 16 56H12ZM57 102C57 105.314 54.3137 108 51 108H18C14.6863 108 12 105.314 12 102H16C16 103.105 16.8954 104 18 104H51C52.1046 104 53 103.105 53 102H57ZM18 108C14.6863 108 12 105.314 12 102V56C12 52.6863 14.6863 50 18 50V54C16.8954 54 16 54.8954 16 56V102C16 103.105 16.8954 104 18 104V108ZM51 50C54.3137 50 57 52.6863 57 56V102C57 105.314 54.3137 108 51 108V104C52.1046 104 53 103.105 53 102V56C53 54.8954 52.1046 54 51 54V50Z" fill="#FFEAA0" mask="url(#path-5-inside-3_2_826)"/>
<circle cx="61.5" cy="64.5" r="2.5" fill="#FFEAA0"/>
</svg>
