<svg width="34" height="50" viewBox="0 0 34 50" fill="none" xmlns="http://www.w3.org/2000/svg">
<rect width="34" height="44" fill="#C5B9A4"/>
<rect x="3" y="3" width="28" height="38" fill="#556965"/>
<rect y="44" width="3" height="6" fill="#C5B9A4"/>
<rect x="3" y="44" width="2" height="4" fill="#A39B8D"/>
<rect x="29" y="44" width="2" height="4" fill="#A39B8D"/>
<rect x="31" y="44" width="3" height="6" fill="#C5B9A4"/>
<path d="M12.7754 19.1858C12.7353 19.0658 12.8153 18.9392 12.9409 18.9238L22.5728 17.7486C22.6984 17.7333 22.8065 17.837 22.7964 17.9631L22.2914 24.2693C22.2534 24.743 21.8874 25.1246 21.4157 25.1821L15.8514 25.861C15.3796 25.9186 14.9326 25.6362 14.7819 25.1856L12.7754 19.1858Z" fill="#F0F8FF"/>
<path d="M22.3006 24.1549L22.2444 24.857C22.2339 24.9883 22.1241 25.0958 21.9831 25.113L15.284 25.9304C15.143 25.9476 15.0107 25.8696 14.9689 25.7447L14.4322 24.1398C14.5909 23.8742 14.8536 23.6846 15.2447 23.6143C15.6112 23.5486 15.4044 23.8123 15.1538 24.1318C14.7884 24.5976 14.3301 25.1821 15.4184 25.0379C15.4665 25.0331 15.5144 25.0296 15.562 25.0275C15.4892 23.9233 15.8497 22.9279 16.9092 22.9467C17.2809 22.9533 17.0199 23.172 16.7035 23.4371C16.2424 23.8234 15.6638 24.3082 16.7563 24.378C16.8144 24.3836 16.8717 24.3911 16.9282 24.4004C17.0458 23.8914 17.3688 23.5188 17.9754 23.4456C18.3451 23.4011 18.1213 23.6526 17.8499 23.9574C17.681 24.1472 17.4937 24.3578 17.4198 24.5303C17.6562 24.6177 17.874 24.7363 18.0695 24.8774C18.2269 24.8719 18.3812 24.8803 18.5313 24.901C18.385 24.0243 18.6126 23.2543 19.4973 23.0955C19.8637 23.0297 19.657 23.2934 19.4063 23.613C19.041 24.0788 18.5827 24.6633 19.671 24.519C19.7711 24.5091 19.8702 24.5049 19.9682 24.506C19.8971 23.3917 20.2628 22.384 21.3296 22.41C21.7013 22.419 21.4386 22.636 21.1203 22.899C20.6563 23.2824 20.074 23.7634 21.1658 23.8404C21.3065 23.855 21.4428 23.8805 21.5742 23.9155C21.6095 23.3638 21.8575 22.9221 22.4124 22.7584L22.3612 23.3978C22.1033 23.7379 21.8909 24.0895 22.3006 24.1549Z" fill="#589EDD"/>
<ellipse cx="19.8433" cy="23.2415" rx="0.0738636" ry="0.068289" transform="rotate(-6.95623 19.8433 23.2415)" fill="#589EDD"/>
<ellipse cx="18.0196" cy="24.1519" rx="0.0738636" ry="0.068289" transform="rotate(-6.95623 18.0196 24.1519)" fill="#589EDD"/>
<ellipse cx="14.9546" cy="23.4251" rx="0.0738636" ry="0.068289" transform="rotate(-6.95623 14.9546 23.4251)" fill="#589EDD"/>
<ellipse cx="21.2105" cy="22.249" rx="0.0738636" ry="0.068289" transform="rotate(-6.95623 21.2105 22.249)" fill="#589EDD"/>
<ellipse cx="21.066" cy="23.505" rx="0.0738636" ry="0.068289" transform="rotate(-6.95623 21.066 23.505)" fill="#589EDD"/>
<ellipse cx="19.2261" cy="24.2799" rx="0.0738636" ry="0.068289" transform="rotate(-6.95623 19.2261 24.2799)" fill="#589EDD"/>
<ellipse cx="16.6338" cy="23.7706" rx="0.0738636" ry="0.068289" transform="rotate(-6.95623 16.6338 23.7706)" fill="#589EDD"/>
<ellipse cx="14.9571" cy="24.6632" rx="0.0738636" ry="0.068289" transform="rotate(-6.95623 14.9571 24.6632)" fill="#589EDD"/>
<ellipse cx="17.5469" cy="23.9345" rx="0.0738636" ry="0.068289" transform="rotate(-6.95623 17.5469 23.9345)" fill="#F0F8FF"/>
<ellipse cx="20.6739" cy="22.7273" rx="0.0738636" ry="0.068289" transform="rotate(-6.95623 20.6739 22.7273)" fill="#F0F8FF"/>
<ellipse cx="22.2227" cy="23.2263" rx="0.0738636" ry="0.068289" transform="rotate(-6.95623 22.2227 23.2263)" fill="#F0F8FF"/>
<ellipse cx="21.2789" cy="24.0294" rx="0.0738636" ry="0.068289" transform="rotate(-6.95623 21.2789 24.0294)" fill="#F0F8FF"/>
<ellipse cx="19.2735" cy="23.4486" rx="0.0738636" ry="0.068289" transform="rotate(-6.95623 19.2735 23.4486)" fill="#F0F8FF"/>
<ellipse cx="18.836" cy="24.7402" rx="0.0738636" ry="0.068289" transform="rotate(-6.95623 18.836 24.7402)" fill="#F0F8FF"/>
<ellipse cx="16.0142" cy="23.5709" rx="0.0738636" ry="0.068289" transform="rotate(-6.95623 16.0142 23.5709)" fill="#F0F8FF"/>
<ellipse cx="20.2193" cy="23.8834" rx="0.0738636" ry="0.068289" transform="rotate(-6.95623 20.2193 23.8834)" fill="#F0F8FF"/>
<ellipse cx="14.5972" cy="24.1566" rx="0.0738636" ry="0.068289" transform="rotate(-6.95623 14.5972 24.1566)" fill="#F0F8FF"/>
<ellipse cx="15.8531" cy="24.6914" rx="0.0738636" ry="0.068289" transform="rotate(-6.95623 15.8531 24.6914)" fill="#F0F8FF"/>
<path d="M17.999 21.047C17.9673 21.2253 17.9237 21.3922 17.8683 21.5478C17.8149 21.7008 17.7487 21.8449 17.6699 21.9801C17.5971 22.1076 17.5163 22.2175 17.4276 22.3097C17.3411 22.4016 17.2519 22.4706 17.1598 22.5167C17.0907 22.5601 17.0403 22.5662 17.0086 22.5352C16.9767 22.5019 16.9895 22.455 17.0473 22.3944C17.1058 22.3408 17.1656 22.2684 17.2266 22.1772C17.2872 22.0838 17.3429 21.9782 17.3937 21.8604C17.4467 21.7423 17.4923 21.6111 17.5306 21.467C17.5688 21.3228 17.5968 21.1717 17.6148 21.0137L17.1267 21.0732L16.9789 21.1192L16.8584 20.9037L17.0688 20.9129L17.6221 20.8454L17.6397 20.7037C17.6413 20.6593 17.6743 20.6437 17.7386 20.6568C17.8027 20.6675 17.8708 20.7011 17.9428 20.7574C18.0045 20.8057 18.0429 20.844 18.058 20.8724C18.0608 20.8767 18.0624 20.88 18.0627 20.8823L17.9083 19.6176C17.9106 19.6173 17.9454 19.6165 18.0127 19.6153C18.0823 19.6138 18.154 19.6201 18.2278 19.6344C18.3016 19.6486 18.3458 19.6677 18.3603 19.6915C18.3746 19.713 18.3801 19.739 18.3769 19.7697C18.3685 19.7963 18.3565 19.8221 18.341 19.8473C18.3277 19.8722 18.3222 19.8938 18.3245 19.9121L18.3962 20.4998C18.424 20.5755 18.4576 20.6504 18.4969 20.7247C18.5362 20.799 18.5654 20.8477 18.5845 20.871L19.0038 20.2199L19.2711 20.4663C19.3125 20.5008 19.3362 20.5328 19.3421 20.5623C19.35 20.5892 19.3471 20.6128 19.3333 20.6331C19.3235 20.6483 19.3031 20.6624 19.2722 20.6755C19.2412 20.6885 19.2097 20.697 19.1776 20.7009C19.1687 20.7043 19.1474 20.7197 19.1135 20.7471C19.0794 20.7722 19.04 20.8026 18.9956 20.8383C18.9468 20.8768 18.896 20.9178 18.8432 20.9615C18.7924 21.0026 18.746 21.0419 18.7041 21.0796C18.7671 21.1766 18.8378 21.2703 18.9163 21.3607C18.997 21.4508 19.0814 21.5324 19.1694 21.6053C19.2571 21.676 19.3445 21.7351 19.4317 21.7826C19.5189 21.8301 19.5992 21.8598 19.6728 21.8718C19.7251 21.8817 19.759 21.8927 19.7745 21.9047C19.7899 21.9168 19.7911 21.9364 19.7781 21.9636C19.7709 21.9807 19.7524 22.0004 19.7226 22.0227C19.6927 22.0449 19.66 22.0722 19.6244 22.1044C19.5868 22.1392 19.5575 22.1661 19.5366 22.1849C19.5179 22.2035 19.5034 22.218 19.4931 22.2286C19.4781 22.2397 19.4641 22.2484 19.4509 22.2547C19.4374 22.2586 19.4243 22.2556 19.4114 22.2455C19.3611 22.2331 19.3009 22.2067 19.2308 22.1664C19.1628 22.1235 19.0906 22.0649 19.0141 21.9905C18.9378 21.9185 18.8601 21.8338 18.7808 21.7365C18.7012 21.6369 18.6295 21.5259 18.5657 21.4034C18.5501 21.3705 18.5324 21.3308 18.5128 21.2843C18.5037 21.2668 18.4943 21.2471 18.4847 21.225L18.6285 22.4038C18.6338 22.4474 18.6292 22.4863 18.6148 22.5206C18.6004 22.5549 18.5803 22.5899 18.5544 22.6256C18.5343 22.6513 18.508 22.6743 18.4756 22.6945C18.4435 22.7171 18.4125 22.7301 18.3827 22.7338C18.3736 22.7349 18.3653 22.7336 18.3578 22.7298C18.3507 22.7284 18.3447 22.7268 18.3398 22.7251C18.3324 22.7213 18.3261 22.7174 18.3209 22.7134C18.3161 22.7117 18.3124 22.7098 18.3098 22.7078C18.2767 22.6839 18.2395 22.6652 18.1983 22.6516C18.1597 22.6401 18.1202 22.6309 18.0799 22.6242C18.0418 22.6173 18.0063 22.6123 17.9734 22.6093C17.943 22.6084 17.9266 22.6069 17.924 22.6049C17.8708 22.6067 17.8403 22.586 17.8327 22.5428C17.8274 22.4992 17.858 22.4734 17.9244 22.4653L18.2509 22.4255L18.071 20.9511C18.0644 20.9728 18.0523 20.9882 18.0348 20.9973C18.0156 21.0113 18.0037 21.0279 17.999 21.047ZM17.7288 20.4905C17.68 20.5476 17.6293 20.5608 17.5767 20.53C17.5238 20.4969 17.4811 20.4522 17.4487 20.3957C17.4034 20.3291 17.3563 20.2767 17.3074 20.2385C17.2609 20.2 17.2197 20.1678 17.184 20.1419C17.1506 20.1158 17.1235 20.0935 17.1026 20.0751C17.0841 20.0565 17.0931 20.0356 17.1299 20.0125C17.174 19.9932 17.243 19.9871 17.3369 19.9942C17.4331 20.0011 17.5266 20.0246 17.6176 20.0646C17.7216 20.117 17.7833 20.1839 17.8025 20.2653C17.8217 20.3467 17.7972 20.4217 17.7288 20.4905Z" fill="#DE2E2E"/>
<path fill-rule="evenodd" clip-rule="evenodd" d="M13.5286 16.808C13.5776 14.6711 15.0487 12.8626 17.0592 12.6173C19.0697 12.372 20.9324 13.7736 21.4938 15.8359C22.0595 16.3536 22.4321 17.0107 22.5229 17.7547L17.7571 18.3362L12.9913 18.9176C12.9005 18.1737 13.1041 17.4464 13.5286 16.808Z" fill="#FFFEF6"/>
<path fill-rule="evenodd" clip-rule="evenodd" d="M21.4006 15.5337C20.7469 13.6385 18.9698 12.3841 17.0591 12.6172C15.0486 12.8625 13.5775 14.671 13.5285 16.8079C13.3628 17.0572 13.2307 17.3199 13.1367 17.5919C13.8918 17.3759 14.5415 16.8474 14.8008 16.0266C14.8211 15.9623 14.8382 15.8963 14.8523 15.8285C15.1857 16.1636 15.4981 15.971 15.6498 15.2407C16.0523 16.4944 16.6105 17.0005 17.0287 16.7492C17.892 17.8174 19.0766 17.9876 19.9269 17.2974C20.3155 17.3677 20.6819 17.0948 20.8742 16.4811C21.1094 16.4806 21.3061 16.1663 21.4006 15.5337Z" fill="#FCCA6B"/>
<ellipse cx="18.6966" cy="13.3602" rx="0.312344" ry="0.147727" transform="rotate(-68.3037 18.6966 13.3602)" fill="#FFEAA0"/>
<ellipse cx="19.5354" cy="13.8415" rx="0.312344" ry="0.147727" transform="rotate(-137.526 19.5354 13.8415)" fill="#FFEAA0"/>
<ellipse cx="17.3793" cy="13.3052" rx="0.312344" ry="0.147727" transform="rotate(-94.5525 17.3793 13.3052)" fill="#FFEAA0"/>
<path d="M15.4903 13.777C15.5651 13.8096 15.5699 13.9642 15.5011 14.1224C15.4322 14.2805 15.3157 14.3823 15.2409 14.3498C15.1661 14.3172 15.1613 14.1626 15.2302 14.0044C15.2991 13.8462 15.4155 13.7444 15.4903 13.777Z" fill="#FFEAA0"/>
<ellipse cx="16.1629" cy="13.3318" rx="0.312344" ry="0.147727" transform="rotate(-68.3037 16.1629 13.3318)" fill="#FFEAA0"/>
<ellipse cx="16.7004" cy="14.3472" rx="0.312344" ry="0.147727" transform="rotate(-117.227 16.7004 14.3472)" fill="#FFEAA0"/>
<ellipse cx="18.2722" cy="14.573" rx="0.312344" ry="0.147727" transform="rotate(-98.264 18.2722 14.573)" fill="#FFEAA0"/>
<path d="M17.541 18.3969C16.6613 18.5043 16.7203 18.4971 15.708 18.6206C14.6957 18.7441 14.8446 18.7292 13.875 18.8442C13.7515 17.8319 14.472 16.9111 15.4844 16.7876C16.4967 16.6641 17.4175 17.3846 17.541 18.3969Z" fill="#F0AE62"/>
<path d="M17.3944 18.4148C16.7345 18.4953 16.6394 18.507 15.708 18.6206C14.7767 18.7342 15.4889 18.6548 14.0216 18.8263C13.908 17.895 14.5709 17.0479 15.5023 16.9342C16.4336 16.8206 17.2807 17.4835 17.3944 18.4148Z" fill="#FFE7BA"/>
<path d="M15.7599 18.4696C15.7468 18.5018 15.7034 18.5071 15.683 18.479L14.8652 17.3539C14.8495 17.3323 14.8563 17.3018 14.8797 17.289L15.015 17.2148C15.3476 17.0323 15.7376 16.9847 16.1042 17.0819L16.2534 17.1214C16.2792 17.1282 16.2931 17.1562 16.2831 17.1809L15.7599 18.4696Z" fill="#F0AE62"/>
<path d="M15.5807 18.4951C15.6008 18.5224 15.5841 18.5613 15.5504 18.5654L14.2419 18.725C14.2148 18.7284 14.1911 18.7065 14.1923 18.6792L14.1994 18.5098C14.2157 18.1196 14.3858 17.7518 14.6725 17.4867L14.7348 17.4291C14.7542 17.4112 14.7849 17.4141 14.8006 17.4354L15.5807 18.4951Z" fill="#F0AE62"/>
<path d="M15.8746 18.46C15.8616 18.4911 15.8869 18.5248 15.9204 18.521L17.2268 18.3755C17.2541 18.3725 17.2721 18.3455 17.2644 18.319L17.217 18.1568C17.1073 17.782 16.8537 17.4659 16.5117 17.2775L16.4373 17.2366C16.4141 17.2238 16.3851 17.234 16.375 17.2583L15.8746 18.46Z" fill="#F0AE62"/>
<path d="M5.3968 30.5795C5.36435 30.4572 5.45219 30.3359 5.57851 30.3286L15.2655 29.7659C15.3918 29.7585 15.4931 29.8689 15.475 29.9941L14.5716 36.2556C14.5037 36.726 14.1142 37.0836 13.6398 37.1112L8.04369 37.4362C7.56928 37.4638 7.141 37.1537 7.01914 36.6943L5.3968 30.5795Z" fill="#F0F8FF"/>
<path d="M14.5879 36.142L14.4873 36.8392C14.4685 36.9695 14.3522 37.0699 14.2104 37.0781L7.47296 37.4695C7.33115 37.4777 7.20398 37.3915 7.17021 37.2642L6.73624 35.6285C6.91148 35.3736 7.18566 35.2009 7.58043 35.1556C7.9503 35.1132 7.72722 35.3632 7.45687 35.6663C7.06279 36.108 6.56831 36.6623 7.66359 36.5873C7.71188 36.5856 7.7599 36.5852 7.80759 36.586C7.80485 35.4794 8.22766 34.5088 9.28386 34.5948C9.65443 34.6249 9.38006 34.8266 9.04757 35.0711C8.56288 35.4274 7.95472 35.8746 9.04058 36.0135C9.09818 36.0228 9.15492 36.0339 9.21079 36.0467C9.3603 35.5463 9.70634 35.1948 10.3163 35.1602C10.6881 35.1392 10.4488 35.376 10.1587 35.6631C9.97811 35.8418 9.77776 36.04 9.69314 36.2075C9.92352 36.3097 10.1333 36.4419 10.3195 36.5951C10.477 36.5996 10.6304 36.6178 10.7789 36.6479C10.6884 35.7637 10.9644 35.0097 11.8573 34.9072C12.2272 34.8648 12.0041 35.1148 11.7338 35.4179C11.3397 35.8596 10.8452 36.4139 11.9405 36.3389C12.041 36.3353 12.1403 36.3374 12.238 36.3447C12.2376 35.2281 12.6664 34.2456 13.7294 34.3391C14.0997 34.3717 13.8238 34.5716 13.4895 34.8139C13.0021 35.1671 12.3906 35.6103 13.4753 35.7563C13.6148 35.7798 13.7492 35.8138 13.8781 35.8571C13.9483 35.3088 14.2238 34.8837 14.788 34.7554L14.6964 35.3903C14.4174 35.7134 14.1832 36.0509 14.5879 36.142Z" fill="#589EDD"/>
<ellipse cx="12.1939" cy="35.0748" rx="0.0738636" ry="0.068289" transform="rotate(-3.32438 12.1939 35.0748)" fill="#589EDD"/>
<ellipse cx="10.3165" cy="35.8678" rx="0.0738636" ry="0.068289" transform="rotate(-3.32438 10.3165 35.8678)" fill="#589EDD"/>
<ellipse cx="7.30329" cy="34.9484" rx="0.0738636" ry="0.068289" transform="rotate(-3.32438 7.30329 34.9484)" fill="#589EDD"/>
<ellipse cx="13.6212" cy="34.1709" rx="0.0738636" ry="0.068289" transform="rotate(-3.32438 13.6212 34.1709)" fill="#589EDD"/>
<ellipse cx="13.3975" cy="35.4153" rx="0.0738636" ry="0.068289" transform="rotate(-3.32438 13.3975 35.4153)" fill="#589EDD"/>
<ellipse cx="11.5123" cy="36.0719" rx="0.0738636" ry="0.068289" transform="rotate(-3.32438 11.5123 36.0719)" fill="#589EDD"/>
<ellipse cx="8.95709" cy="35.3996" rx="0.0738636" ry="0.068289" transform="rotate(-3.32438 8.95709 35.3996)" fill="#589EDD"/>
<ellipse cx="7.22711" cy="36.1841" rx="0.0738636" ry="0.068289" transform="rotate(-3.32438 7.22711 36.1841)" fill="#589EDD"/>
<ellipse cx="9.85797" cy="35.6209" rx="0.0738636" ry="0.068289" transform="rotate(-3.32438 9.85797 35.6209)" fill="#F0F8FF"/>
<ellipse cx="13.0552" cy="34.6143" rx="0.0738636" ry="0.068289" transform="rotate(-3.32438 13.0552 34.6143)" fill="#F0F8FF"/>
<ellipse cx="14.5694" cy="35.2104" rx="0.0738636" ry="0.068289" transform="rotate(-3.32438 14.5694 35.2104)" fill="#F0F8FF"/>
<ellipse cx="13.5767" cy="35.9521" rx="0.0738636" ry="0.068289" transform="rotate(-3.32438 13.5767 35.9521)" fill="#F0F8FF"/>
<ellipse cx="11.6119" cy="35.2454" rx="0.0738636" ry="0.068289" transform="rotate(-3.32438 11.6119 35.2454)" fill="#F0F8FF"/>
<ellipse cx="11.0933" cy="36.5068" rx="0.0738636" ry="0.068289" transform="rotate(-3.32438 11.0933 36.5068)" fill="#F0F8FF"/>
<ellipse cx="8.35163" cy="35.1611" rx="0.0738636" ry="0.068289" transform="rotate(-3.32438 8.35163 35.1611)" fill="#F0F8FF"/>
<ellipse cx="12.5284" cy="35.7393" rx="0.0738636" ry="0.068289" transform="rotate(-3.32438 12.5284 35.7393)" fill="#F0F8FF"/>
<ellipse cx="6.90045" cy="35.6558" rx="0.0738636" ry="0.068289" transform="rotate(-3.32438 6.90045 35.6558)" fill="#F0F8FF"/>
<ellipse cx="8.11969" cy="36.2691" rx="0.0738636" ry="0.068289" transform="rotate(-3.32438 8.11969 36.2691)" fill="#F0F8FF"/>
<path d="M10.4921 32.7679C10.4491 32.9438 10.3951 33.1077 10.3299 33.2594C10.2669 33.4088 10.1918 33.5484 10.1045 33.6783C10.0238 33.8009 9.93622 33.9054 9.84182 33.9918C9.74972 34.0781 9.65628 34.1413 9.56151 34.1815C9.48978 34.2204 9.43908 34.2233 9.40942 34.1904C9.37963 34.1551 9.39545 34.1091 9.4569 34.0523C9.51874 34.0025 9.58297 33.934 9.64959 33.8469C9.71607 33.7575 9.77836 33.6556 9.83646 33.5413C9.89686 33.4268 9.9507 33.2988 9.99797 33.1573C10.0452 33.0159 10.0828 32.8669 10.1107 32.7103L9.6199 32.7388L9.46942 32.7753L9.36284 32.5526L9.57224 32.5751L10.1287 32.5428L10.1553 32.4025C10.1597 32.3583 10.1935 32.3448 10.257 32.3619C10.3203 32.3768 10.386 32.4146 10.4543 32.4753C10.5128 32.5274 10.5487 32.5681 10.562 32.5974C10.5645 32.6019 10.5659 32.6053 10.566 32.6076L10.4921 31.3356C10.4945 31.3354 10.5292 31.3369 10.5964 31.3399C10.666 31.3428 10.7371 31.3537 10.8099 31.3726C10.8827 31.3915 10.9256 31.4133 10.9386 31.438C10.9514 31.4603 10.9553 31.4867 10.9501 31.5171C10.94 31.5431 10.9265 31.5681 10.9094 31.5923C10.8946 31.6162 10.8877 31.6374 10.8888 31.6559L10.9231 32.2469C10.9461 32.3242 10.9749 32.4012 11.0094 32.4778C11.0439 32.5544 11.0699 32.6049 11.0875 32.6293L11.5473 32.0061L11.7984 32.2689C11.8375 32.306 11.8591 32.3394 11.8632 32.3692C11.8694 32.3966 11.865 32.42 11.8499 32.4394C11.8392 32.4538 11.818 32.4666 11.7862 32.4777C11.7545 32.4888 11.7225 32.4953 11.6903 32.4972C11.6812 32.5 11.6589 32.514 11.6233 32.5392C11.5877 32.5621 11.5465 32.5899 11.4999 32.6227C11.4487 32.658 11.3954 32.6958 11.34 32.736C11.2867 32.7738 11.2379 32.8102 11.1937 32.8451C11.2504 32.9458 11.3151 33.0438 11.3877 33.139C11.4625 33.2341 11.5416 33.3208 11.6247 33.3992C11.7078 33.4754 11.7913 33.5399 11.8753 33.5928C11.9593 33.6457 12.0376 33.6805 12.1102 33.6971C12.1619 33.7102 12.195 33.7233 12.2096 33.7364C12.2243 33.7494 12.2242 33.769 12.2096 33.7953C12.2013 33.812 12.1816 33.8305 12.1504 33.8508C12.1192 33.8711 12.0848 33.8962 12.0472 33.9262C12.0075 33.9585 11.9766 33.9834 11.9545 34.0009C11.9347 34.0182 11.9193 34.0318 11.9083 34.0417C11.8927 34.0519 11.8781 34.0597 11.8646 34.0651C11.8509 34.0682 11.8379 34.0643 11.8257 34.0535C11.7763 34.0378 11.7179 34.0077 11.6505 33.9631C11.5854 33.916 11.517 33.8529 11.4453 33.7738C11.3738 33.6971 11.3016 33.6076 11.2286 33.5055C11.1555 33.4011 11.091 33.2857 11.0351 33.1595C11.0216 33.1256 11.0065 33.0849 10.9898 33.0373C10.9819 33.0193 10.9737 32.9989 10.9655 32.9763L11.0343 34.1619C11.0369 34.2056 11.0299 34.2442 11.0133 34.2775C10.9968 34.3109 10.9744 34.3445 10.9464 34.3785C10.9247 34.4029 10.897 34.4242 10.8634 34.4423C10.8299 34.4628 10.7981 34.4738 10.7682 34.4756C10.759 34.4761 10.7508 34.4743 10.7436 34.4701C10.7365 34.4682 10.7306 34.4662 10.7259 34.4642C10.7187 34.46 10.7127 34.4557 10.7078 34.4513C10.7031 34.4493 10.6995 34.4472 10.697 34.445C10.6655 34.4191 10.6296 34.3981 10.5893 34.3819C10.5515 34.3679 10.5127 34.3563 10.4729 34.3471C10.4353 34.3377 10.4002 34.3305 10.3676 34.3255C10.3373 34.3226 10.321 34.3201 10.3186 34.3179C10.2653 34.3164 10.2362 34.2938 10.2314 34.2501C10.2288 34.2063 10.261 34.1825 10.3278 34.1786L10.6562 34.1596L10.57 32.6767C10.562 32.698 10.549 32.7126 10.531 32.7206C10.5109 32.7333 10.498 32.7491 10.4921 32.7679ZM10.2577 32.1954C10.2053 32.2493 10.1539 32.2593 10.1034 32.2252C10.0527 32.1888 10.0129 32.1414 9.98412 32.083C9.9431 32.0137 9.89943 31.9584 9.8531 31.9172C9.80908 31.8758 9.77007 31.8411 9.73607 31.813C9.70437 31.7848 9.6787 31.7608 9.65906 31.7412C9.64173 31.7214 9.65211 31.7011 9.69022 31.6804C9.7355 31.6639 9.80476 31.6622 9.89801 31.6753C9.99356 31.6882 10.0854 31.7176 10.1736 31.7633C10.2742 31.8222 10.3315 31.8929 10.3455 31.9753C10.3595 32.0577 10.3303 32.1311 10.2577 32.1954Z" fill="#DE2E2E"/>
<path fill-rule="evenodd" clip-rule="evenodd" d="M6.2989 28.2542C6.48318 26.1247 8.06584 24.413 10.0879 24.2956C12.1099 24.1781 13.88 25.6949 14.3097 27.7887C14.8414 28.3411 15.1717 29.0205 15.2151 29.7688L10.4221 30.0472L5.62901 30.3256C5.58556 29.5774 5.83483 28.8645 6.2989 28.2542Z" fill="#FFFEF6"/>
<path fill-rule="evenodd" clip-rule="evenodd" d="M14.2362 27.4817C13.7041 25.5486 12.0098 24.1839 10.088 24.2956C8.06596 24.413 6.4833 26.1247 6.29902 28.2542C6.11788 28.4924 5.96947 28.7463 5.85841 29.0117C6.62572 28.8441 7.30776 28.3577 7.61853 27.5549C7.64287 27.492 7.66417 27.4272 7.68254 27.3605C7.99401 27.716 8.318 27.5436 8.51561 26.8244C8.83793 28.101 9.36288 28.6415 9.79617 28.4172C10.5901 29.538 11.7615 29.7828 12.6539 29.1479C13.0372 29.2426 13.4202 28.9935 13.6509 28.3932C13.8857 28.4076 14.1018 28.1066 14.2362 27.4817Z" fill="#D8F2AC"/>
<ellipse cx="11.6749" cy="25.1407" rx="0.312344" ry="0.147727" transform="rotate(-64.6719 11.6749 25.1407)" fill="#FEFBB1"/>
<ellipse cx="12.4817" cy="25.6742" rx="0.312344" ry="0.147727" transform="rotate(-133.894 12.4817 25.6742)" fill="#FEFBB1"/>
<ellipse cx="10.3639" cy="25.0025" rx="0.312344" ry="0.147727" transform="rotate(-90.9206 10.3639 25.0025)" fill="#FEFBB1"/>
<path d="M8.44886 25.3537C8.52145 25.3909 8.51645 25.5456 8.43769 25.699C8.35894 25.8525 8.23625 25.9467 8.16366 25.9095C8.09107 25.8722 8.09607 25.7176 8.17483 25.5641C8.25358 25.4107 8.37627 25.3165 8.44886 25.3537Z" fill="#FEFBB1"/>
<ellipse cx="9.14801" cy="24.9519" rx="0.312344" ry="0.147727" transform="rotate(-64.6719 9.14801 24.9519)" fill="#FEFBB1"/>
<ellipse cx="9.62022" cy="25.9992" rx="0.312344" ry="0.147727" transform="rotate(-113.595 9.62022 25.9992)" fill="#FEFBB1"/>
<ellipse cx="11.1748" cy="26.3242" rx="0.312344" ry="0.147727" transform="rotate(-94.6321 11.1748 26.3242)" fill="#FEFBB1"/>
<path d="M10.2027 30.0942C9.31803 30.1456 9.37738 30.1421 8.35926 30.2012C7.34113 30.2604 7.49071 30.2549 6.51577 30.3083C6.45663 29.2902 7.23405 28.4169 8.25217 28.3578C9.2703 28.2986 10.1436 29.076 10.2027 30.0942Z" fill="#B1CF7F"/>
<path d="M10.0553 30.1027C9.39161 30.1413 9.29593 30.1468 8.35926 30.2012C7.42258 30.2557 8.13847 30.2215 6.66325 30.2998C6.60884 29.3631 7.32406 28.5596 8.26074 28.5052C9.19742 28.4508 10.0009 29.1661 10.0553 30.1027Z" fill="#DEF3BB"/>
<path d="M8.42057 30.0538C8.40548 30.0852 8.36184 30.0877 8.34323 30.0583L7.59839 28.8837C7.58409 28.8612 7.59283 28.8312 7.61701 28.8199L7.75672 28.7543C8.10014 28.5933 8.49239 28.5705 8.85215 28.6907L8.99851 28.7396C9.02383 28.7481 9.03598 28.7768 9.02439 28.8009L8.42057 30.0538Z" fill="#B1CF7F"/>
<path d="M8.24019 30.068C8.25852 30.0965 8.23932 30.1342 8.20548 30.1362L6.8895 30.2126C6.8622 30.2142 6.83999 30.1909 6.84285 30.1637L6.86066 29.9951C6.90165 29.6067 7.09473 29.2504 7.3977 29.004L7.46349 28.9505C7.484 28.9339 7.51445 28.9387 7.52873 28.961L8.24019 30.068Z" fill="#B1CF7F"/>
<path d="M8.53569 30.0515C8.52076 30.0818 8.54383 30.117 8.57755 30.1154L9.8905 30.0529C9.91801 30.0516 9.93768 30.0258 9.93164 29.9989L9.89455 29.834C9.80887 29.453 9.57583 29.1214 9.24637 28.9118L9.17471 28.8662C9.15245 28.852 9.12284 28.8603 9.11117 28.884L8.53569 30.0515Z" fill="#B1CF7F"/>
<path d="M18.5307 30.8754C18.5322 30.7489 18.6494 30.6556 18.7731 30.6824L28.2561 32.7384C28.3797 32.7652 28.4477 32.8986 28.3967 33.0144L25.847 38.8043C25.6555 39.2392 25.1844 39.4792 24.72 39.3785L19.2417 38.1908C18.7772 38.0901 18.4478 37.6765 18.4536 37.2013L18.5307 30.8754Z" fill="#F0F8FF"/>
<path d="M25.8935 38.6989L25.6096 39.3435C25.5565 39.4641 25.4175 39.5296 25.2787 39.4995L18.6831 38.0695C18.5443 38.0394 18.4449 37.9222 18.4465 37.7905L18.4671 36.0984C18.7043 35.8998 19.0148 35.807 19.4072 35.8692C19.7749 35.9275 19.493 36.1086 19.1512 36.328C18.6531 36.6479 18.0281 37.0493 19.1034 37.2707C19.1504 37.282 19.1967 37.2945 19.2424 37.3081C19.5366 36.2413 20.2042 35.4197 21.1987 35.7858C21.5476 35.9142 21.2292 36.0349 20.8433 36.1813C20.2808 36.3946 19.575 36.6622 20.5838 37.0872C20.6368 37.1117 20.6885 37.1376 20.7389 37.1649C21.0171 36.7229 21.4448 36.4771 22.0417 36.6074C22.4055 36.6868 22.1114 36.8508 21.7549 37.0496C21.533 37.1733 21.2869 37.3105 21.1604 37.4492C21.355 37.6094 21.5216 37.7931 21.6599 37.9906C21.8104 38.0371 21.9533 38.0958 22.0883 38.1646C22.2383 37.2885 22.7064 36.6362 23.5941 36.777C23.9618 36.8353 23.6798 37.0164 23.3381 37.2358C22.84 37.5556 22.2149 37.957 23.2902 38.1785C23.388 38.202 23.483 38.2306 23.5752 38.2639C23.8743 37.1881 24.5509 36.3566 25.5499 36.7318C25.8979 36.8625 25.5785 36.9811 25.1914 37.1248C24.6272 37.3344 23.9192 37.5973 24.925 38.0289C25.0531 38.0889 25.1735 38.1578 25.286 38.234C25.5007 37.7246 25.8801 37.389 26.4581 37.4167L26.1995 38.0038C25.8441 38.2402 25.528 38.5025 25.8935 38.6989Z" fill="#589EDD"/>
<ellipse cx="23.8731" cy="37.0286" rx="0.0738636" ry="0.068289" transform="rotate(12.2327 23.8731 37.0286)" fill="#589EDD"/>
<ellipse cx="21.8517" cy="37.2891" rx="0.0738636" ry="0.068289" transform="rotate(12.2327 21.8517 37.2891)" fill="#589EDD"/>
<ellipse cx="19.1959" cy="35.5952" rx="0.0738636" ry="0.068289" transform="rotate(12.2327 19.1959 35.5952)" fill="#589EDD"/>
<ellipse cx="25.4903" cy="36.5408" rx="0.0738636" ry="0.068289" transform="rotate(12.2327 25.4903 36.5408)" fill="#589EDD"/>
<ellipse cx="24.9415" cy="37.6794" rx="0.0738636" ry="0.068289" transform="rotate(12.2327 24.9415 37.6794)" fill="#589EDD"/>
<ellipse cx="22.9488" cy="37.8064" rx="0.0738636" ry="0.068289" transform="rotate(12.2327 22.9488 37.8064)" fill="#589EDD"/>
<ellipse cx="20.6681" cy="36.4735" rx="0.0738636" ry="0.068289" transform="rotate(12.2327 20.6681 36.4735)" fill="#589EDD"/>
<ellipse cx="18.7911" cy="36.7653" rx="0.0738636" ry="0.068289" transform="rotate(12.2327 18.7911 36.7653)" fill="#589EDD"/>
<ellipse cx="21.4767" cy="36.9282" rx="0.0738636" ry="0.068289" transform="rotate(12.2327 21.4767 36.9282)" fill="#F0F8FF"/>
<ellipse cx="24.8263" cy="36.816" rx="0.0738636" ry="0.068289" transform="rotate(12.2327 24.8263 36.816)" fill="#F0F8FF"/>
<ellipse cx="26.1251" cy="37.7964" rx="0.0738636" ry="0.068289" transform="rotate(12.2327 26.1251 37.7964)" fill="#F0F8FF"/>
<ellipse cx="24.9698" cy="38.2446" rx="0.0738636" ry="0.068289" transform="rotate(12.2327 24.9698 38.2446)" fill="#F0F8FF"/>
<ellipse cx="23.2667" cy="37.0369" rx="0.0738636" ry="0.068289" transform="rotate(12.2327 23.2667 37.0369)" fill="#F0F8FF"/>
<ellipse cx="22.4288" cy="38.113" rx="0.0738636" ry="0.068289" transform="rotate(12.2327 22.4288 38.113)" fill="#F0F8FF"/>
<ellipse cx="20.1485" cy="36.0813" rx="0.0738636" ry="0.068289" transform="rotate(12.2327 20.1485 36.0813)" fill="#F0F8FF"/>
<ellipse cx="24.0172" cy="37.7585" rx="0.0738636" ry="0.068289" transform="rotate(12.2327 24.0172 37.7585)" fill="#F0F8FF"/>
<ellipse cx="18.6178" cy="36.1687" rx="0.0738636" ry="0.068289" transform="rotate(12.2327 18.6178 36.1687)" fill="#F0F8FF"/>
<ellipse cx="19.628" cy="37.0865" rx="0.0738636" ry="0.068289" transform="rotate(12.2327 19.628 37.0865)" fill="#F0F8FF"/>
<path d="M22.8525 34.3504C22.7639 34.5083 22.6679 34.6516 22.5644 34.7803C22.4637 34.9073 22.3538 35.0217 22.2349 35.1234C22.1243 35.2199 22.0119 35.2971 21.8978 35.355C21.7859 35.4134 21.6789 35.4493 21.5769 35.4626C21.4973 35.4808 21.4477 35.47 21.428 35.4303C21.4087 35.3883 21.4363 35.3483 21.5107 35.3101C21.5837 35.2786 21.6639 35.2299 21.7514 35.1639C21.8395 35.0956 21.9268 35.0141 22.0134 34.9195C22.1023 34.8254 22.1885 34.7166 22.272 34.593C22.3555 34.4693 22.4317 34.3359 22.5005 34.1926L22.02 34.0884L21.8653 34.0832L21.8223 33.8401L22.018 33.9179L22.5628 34.036L22.626 33.908C22.6421 33.8666 22.6783 33.8627 22.7348 33.8962C22.7918 33.9274 22.8451 33.9815 22.8945 34.0583C22.9369 34.1242 22.9606 34.173 22.9655 34.2048C22.9668 34.2098 22.9672 34.2134 22.9667 34.2157L23.2367 32.9705C23.2389 32.971 23.272 32.9817 23.336 33.0026C23.4022 33.0241 23.4678 33.0537 23.5329 33.0914C23.5979 33.1291 23.6334 33.1616 23.6393 33.1888C23.6457 33.2138 23.6423 33.2403 23.6292 33.2681C23.6125 33.2905 23.5927 33.311 23.5698 33.3297C23.5491 33.3488 23.5368 33.3674 23.5329 33.3854L23.4074 33.9641C23.4088 34.0447 23.4159 34.1265 23.4286 34.2096C23.4413 34.2926 23.4529 34.3483 23.4633 34.3765L24.0733 33.8994L24.2447 34.22C24.2725 34.2662 24.2843 34.3042 24.2802 34.334C24.2789 34.362 24.2684 34.3834 24.2487 34.398C24.2344 34.4091 24.2106 34.4157 24.177 34.4179C24.1435 34.42 24.1109 34.4177 24.0793 34.4109C24.0698 34.4112 24.0446 34.4187 24.0036 34.4334C23.9631 34.4459 23.916 34.4617 23.8623 34.4807C23.8035 34.501 23.7421 34.5231 23.6778 34.547C23.6164 34.5691 23.5596 34.5911 23.5077 34.6129C23.5353 34.7251 23.5713 34.8369 23.6157 34.948C23.6623 35.0597 23.7152 35.1645 23.7743 35.2623C23.8339 35.3579 23.897 35.4424 23.9638 35.516C24.0305 35.5895 24.0966 35.644 24.1621 35.6794C24.2083 35.706 24.2367 35.7275 24.2473 35.744C24.2579 35.7604 24.2527 35.7794 24.2315 35.8007C24.219 35.8146 24.1951 35.8271 24.1596 35.8383C24.1241 35.8495 24.0842 35.8645 24.04 35.8832C23.993 35.9037 23.9566 35.9195 23.9306 35.9304C23.9069 35.9418 23.8884 35.9507 23.8751 35.9573C23.8574 35.9629 23.8413 35.9665 23.8268 35.9681C23.8127 35.9674 23.8013 35.9602 23.7925 35.9465C23.749 35.9182 23.7008 35.8735 23.6479 35.8124C23.5978 35.7496 23.5488 35.6704 23.501 35.5751C23.4527 35.4819 23.4071 35.3764 23.3642 35.2584C23.3217 35.1382 23.2905 35.0098 23.2705 34.8732C23.2666 34.8369 23.263 34.7936 23.2597 34.7433C23.2569 34.7238 23.2545 34.702 23.2526 34.678L23.001 35.8386C22.9917 35.8815 22.9746 35.9168 22.9497 35.9444C22.9248 35.9721 22.8943 35.9986 22.8581 36.0238C22.8307 36.0414 22.7983 36.0545 22.7611 36.063C22.7233 36.0737 22.6898 36.0759 22.6604 36.0695C22.6514 36.0675 22.644 36.0636 22.6382 36.0576C22.632 36.0539 22.6268 36.0504 22.6228 36.0472C22.617 36.0412 22.6123 36.0354 22.6088 36.03C22.6048 36.0267 22.6019 36.0237 22.6001 36.021C22.5767 35.9876 22.5477 35.9577 22.5133 35.9313C22.4806 35.9077 22.4463 35.8861 22.4104 35.8665C22.3768 35.8474 22.3449 35.831 22.3148 35.8174C22.2864 35.8065 22.2714 35.7997 22.2696 35.797C22.2187 35.7812 22.1968 35.7517 22.2038 35.7083C22.2131 35.6655 22.2504 35.6511 22.3159 35.6653L22.6373 35.735L22.952 34.2834C22.9386 34.3017 22.9221 34.3123 22.9026 34.3152C22.8799 34.3221 22.8632 34.3338 22.8525 34.3504ZM22.7802 33.736C22.7153 33.7738 22.6631 33.7696 22.6235 33.7232C22.5845 33.6746 22.5589 33.6183 22.5468 33.5543C22.5259 33.4765 22.4986 33.4116 22.4651 33.3594C22.4337 33.3077 22.4055 33.2638 22.3802 33.2276C22.3573 33.192 22.339 33.162 22.3253 33.1378C22.3139 33.1141 22.3294 33.0973 22.3716 33.0876C22.4197 33.0839 22.4869 33.1008 22.5732 33.1384C22.6618 33.1765 22.7424 33.2294 22.8151 33.2971C22.8962 33.3808 22.9324 33.4643 22.9238 33.5474C22.9152 33.6306 22.8674 33.6934 22.7802 33.736Z" fill="#DE2E2E"/>
<path fill-rule="evenodd" clip-rule="evenodd" d="M20.0233 28.8773C20.772 26.8752 22.7557 25.6508 24.7351 26.0799C26.7146 26.5091 28.0131 28.4452 27.8654 30.5775C28.2294 31.2523 28.3653 31.9953 28.2065 32.7277L23.5144 31.7105L18.8223 30.6932C18.9811 29.9607 19.4125 29.3407 20.0233 28.8773Z" fill="#FFFEF6"/>
<path fill-rule="evenodd" clip-rule="evenodd" d="M27.8769 30.2614C27.8826 28.2565 26.6164 26.4877 24.7353 26.0798C22.7558 25.6507 20.7721 26.8752 20.0234 28.8772C19.785 29.0581 19.5739 29.2628 19.3957 29.4888C20.1799 29.533 20.9673 29.2473 21.482 28.5573C21.5223 28.5033 21.5601 28.4467 21.5957 28.3873C21.8004 28.8133 22.1588 28.734 22.542 28.0941C22.5102 29.4104 22.8709 30.0718 23.3484 29.9721C23.8127 31.2647 24.8754 31.8147 25.9053 31.4425C26.2493 31.6366 26.685 31.4993 27.0684 30.9828C27.2907 31.0597 27.5797 30.8276 27.8769 30.2614Z" fill="#FFE99B"/>
<ellipse cx="26.0373" cy="27.3197" rx="0.312344" ry="0.147727" transform="rotate(-49.1148 26.0373 27.3197)" fill="#EEBF19"/>
<ellipse cx="26.6717" cy="28.0499" rx="0.312344" ry="0.147727" transform="rotate(-118.337 26.6717 28.0499)" fill="#EEBF19"/>
<ellipse cx="24.8117" cy="26.8349" rx="0.312344" ry="0.147727" transform="rotate(-75.3635 24.8117 26.8349)" fill="#EEBF19"/>
<path d="M22.8727 26.6596C22.9326 26.715 22.8863 26.8626 22.7693 26.9893C22.6523 27.116 22.5088 27.1739 22.4489 27.1185C22.3889 27.0632 22.4352 26.9156 22.5522 26.7888C22.6693 26.6621 22.8127 26.6042 22.8727 26.6596Z" fill="#EEBF19"/>
<ellipse cx="23.654" cy="26.46" rx="0.312344" ry="0.147727" transform="rotate(-49.1148 23.654 26.46)" fill="#EEBF19"/>
<ellipse cx="23.8277" cy="27.5956" rx="0.312344" ry="0.147727" transform="rotate(-98.0376 23.8277 27.5956)" fill="#EEBF19"/>
<ellipse cx="25.2384" cy="28.3257" rx="0.312344" ry="0.147727" transform="rotate(-79.075 25.2384 28.3257)" fill="#EEBF19"/>
<path d="M28.0984 31.8323C27.8823 32.829 26.8992 33.4618 25.9025 33.2457C24.9058 33.0296 24.273 32.0465 24.4891 31.0498C24.7052 30.0531 25.6883 29.4203 26.685 29.6364C27.6817 29.8525 28.3145 30.8356 28.0984 31.8323Z" fill="#FFDE6A"/>
<path d="M27.9541 31.801C27.7553 32.718 26.8508 33.3001 25.9338 33.1013C25.0169 32.9025 24.4347 31.998 24.6335 31.0811C24.8323 30.1641 25.7368 29.582 26.6537 29.7808C27.5707 29.9796 28.1529 30.8841 27.9541 31.801Z" fill="#FFFCE4"/>
<path d="M26.3924 31.3155C26.3694 31.3416 26.3267 31.3324 26.3167 31.2991L25.9141 29.9677C25.9064 29.9422 25.9229 29.9156 25.9492 29.9112L26.1014 29.8856C26.4754 29.8225 26.8594 29.9057 27.1737 30.118L27.3016 30.2044C27.3237 30.2194 27.3277 30.2503 27.3101 30.2704L26.3924 31.3155Z" fill="#FFDE6A"/>
<path d="M26.3012 31.5896C26.2911 31.5563 26.2484 31.547 26.2255 31.5732L25.3077 32.6183C25.2901 32.6383 25.2941 32.6693 25.3163 32.6842L25.4441 32.7706C25.7585 32.9829 26.1425 33.0662 26.5165 33.0031L26.6687 32.9775C26.695 32.973 26.7114 32.9465 26.7037 32.9209L26.3012 31.5896Z" fill="#FFDE6A"/>
<path d="M26.1428 31.4124C26.1772 31.4181 26.1919 31.4592 26.1689 31.4854L25.251 32.5308C25.2334 32.5507 25.2025 32.5509 25.1847 32.5312L25.1282 32.4683C24.867 32.178 24.7315 31.7961 24.7511 31.4061L24.7598 31.2341C24.7611 31.2077 24.7851 31.1883 24.8112 31.1927L26.1428 31.4124Z" fill="#FFDE6A"/>
<path d="M26.2148 31.2807C26.2248 31.3131 26.1962 31.3443 26.1631 31.3371L24.8748 31.0578C24.8481 31.052 24.8329 31.0236 24.843 30.9982L24.9054 30.8405C25.049 30.4774 25.3306 30.1859 25.6885 30.0298L25.7663 29.9959C25.7905 29.9853 25.8185 29.9982 25.8263 30.0234L26.2148 31.2807Z" fill="#FFDE6A"/>
<path d="M26.4432 31.4767C26.4095 31.468 26.3794 31.4996 26.3897 31.5328L26.8023 32.8523C26.8102 32.8775 26.8382 32.8903 26.8623 32.8797L26.9402 32.8458C27.2982 32.6897 27.5798 32.3982 27.7234 32.035L27.7865 31.8755C27.7963 31.8507 27.7822 31.8229 27.7564 31.8162L26.4432 31.4767Z" fill="#FFDE6A"/>
<path d="M26.5039 31.3441C26.4814 31.3693 26.4942 31.4094 26.5271 31.4169L27.8087 31.7088C27.8356 31.7149 27.8614 31.6953 27.8628 31.6678L27.8713 31.499C27.891 31.109 27.7554 30.7271 27.4942 30.4367L27.4374 30.3736C27.4198 30.354 27.389 30.354 27.3714 30.3737L26.5039 31.3441Z" fill="#FFDE6A"/>
<path d="M7 13.7286C7 13.7191 7.00135 13.7097 7.004 13.7006L7.43485 12.2234C7.45944 12.139 7.57298 12.1251 7.61723 12.201L8.41362 13.5662C8.45221 13.6324 8.54779 13.6324 8.58638 13.5662L9.41362 12.1481C9.45221 12.0819 9.54779 12.0819 9.58638 12.1481L10.4136 13.5662C10.4522 13.6324 10.5478 13.6324 10.5864 13.5662L11.3828 12.201C11.427 12.1251 11.5406 12.139 11.5651 12.2234L11.996 13.7006C11.9987 13.7097 12 13.7191 12 13.7286V15.4C12 15.7314 11.7314 16 11.4 16H7.6C7.26863 16 7 15.7314 7 15.4V13.7286Z" fill="#FFDE6A"/>
<path d="M8.69286 14.63C8.67786 14.63 8.66321 14.6289 8.64893 14.6268C8.63464 14.6246 8.62214 14.6204 8.61143 14.6139C8.60071 14.6068 8.59179 14.5968 8.58464 14.5839C8.57821 14.5711 8.575 14.5536 8.575 14.5314C8.575 14.5071 8.57821 14.4882 8.58464 14.4746C8.59179 14.4611 8.60071 14.4511 8.61143 14.4446C8.62214 14.4382 8.63464 14.4343 8.64893 14.4329C8.66321 14.4314 8.67786 14.4307 8.69286 14.4307H8.83214L8.85571 14.2914C8.85643 14.2843 8.85821 14.275 8.86107 14.2636C8.86464 14.2521 8.86964 14.2411 8.87607 14.2304C8.88321 14.2196 8.89214 14.2104 8.90286 14.2025C8.91429 14.1946 8.92857 14.1907 8.94571 14.1907C8.95929 14.1907 8.97286 14.1918 8.98643 14.1939C9 14.1961 9.01179 14.2004 9.02179 14.2068C9.0325 14.2132 9.04107 14.2225 9.0475 14.2346C9.05393 14.2468 9.05714 14.2629 9.05714 14.2829C9.05714 14.285 9.05679 14.2879 9.05607 14.2914C9.05607 14.2943 9.05536 14.3007 9.05393 14.3107C9.0525 14.32 9.05 14.3343 9.04643 14.3536C9.04357 14.3721 9.03929 14.3979 9.03357 14.4307H9.21571L9.23929 14.2914C9.24 14.2843 9.24179 14.275 9.24464 14.2636C9.24821 14.2521 9.25321 14.2411 9.25964 14.2304C9.26679 14.2196 9.27571 14.2104 9.28643 14.2025C9.29786 14.1946 9.31214 14.1907 9.32929 14.1907C9.34286 14.1907 9.35643 14.1918 9.37 14.1939C9.38357 14.1961 9.39536 14.2004 9.40536 14.2068C9.41607 14.2132 9.42464 14.2225 9.43107 14.2346C9.4375 14.2468 9.44071 14.2629 9.44071 14.2829C9.44071 14.285 9.44036 14.2879 9.43964 14.2914C9.43964 14.2943 9.43893 14.3007 9.4375 14.3107C9.43607 14.32 9.43357 14.3343 9.43 14.3536C9.42714 14.3721 9.42286 14.3979 9.41714 14.4307H9.50929C9.52286 14.4307 9.53679 14.4314 9.55107 14.4329C9.56536 14.4343 9.57786 14.4382 9.58857 14.4446C9.6 14.4511 9.60929 14.4611 9.61643 14.4746C9.62357 14.4882 9.62714 14.5071 9.62714 14.5314C9.62714 14.5536 9.62357 14.5711 9.61643 14.5839C9.60929 14.5968 9.6 14.6068 9.58857 14.6139C9.57786 14.6204 9.56536 14.6246 9.55107 14.6268C9.53679 14.6289 9.52286 14.63 9.50929 14.63H9.385L9.34214 14.87H9.43214C9.44571 14.87 9.45964 14.8707 9.47393 14.8721C9.48821 14.8736 9.50071 14.8775 9.51143 14.8839C9.52286 14.8904 9.53214 14.9004 9.53929 14.9139C9.54643 14.9275 9.55 14.9464 9.55 14.9707C9.55 14.9936 9.54643 15.0114 9.53929 15.0243C9.53214 15.0371 9.52286 15.0471 9.51143 15.0543C9.50071 15.0607 9.48821 15.065 9.47393 15.0671C9.45964 15.0686 9.44571 15.0693 9.43214 15.0693H9.30786L9.29071 15.1807C9.28714 15.2014 9.28286 15.2207 9.27786 15.2386C9.27357 15.2564 9.2675 15.2721 9.25964 15.2857C9.2525 15.2986 9.24321 15.3089 9.23179 15.3168C9.22107 15.3246 9.20786 15.3286 9.19214 15.3286C9.17857 15.3286 9.165 15.3279 9.15143 15.3264C9.13857 15.325 9.12679 15.3214 9.11607 15.3157C9.10536 15.3093 9.09679 15.3004 9.09036 15.2889C9.08393 15.2775 9.08071 15.2614 9.08071 15.2407C9.08071 15.2386 9.08071 15.2357 9.08071 15.2321C9.08143 15.2279 9.0825 15.22 9.08393 15.2086C9.08536 15.1971 9.08786 15.1807 9.09143 15.1593C9.095 15.1371 9.1 15.1071 9.10643 15.0693H8.92429L8.90714 15.1807C8.90357 15.2014 8.89929 15.2207 8.89429 15.2386C8.89 15.2564 8.88393 15.2721 8.87607 15.2857C8.86893 15.2986 8.85964 15.3089 8.84821 15.3168C8.8375 15.3246 8.82429 15.3286 8.80857 15.3286C8.795 15.3286 8.78143 15.3279 8.76786 15.3264C8.755 15.325 8.74321 15.3214 8.7325 15.3157C8.72179 15.3093 8.71321 15.3004 8.70679 15.2889C8.70036 15.2775 8.69714 15.2614 8.69714 15.2407C8.69714 15.2386 8.69714 15.2357 8.69714 15.2321C8.69786 15.2279 8.69893 15.22 8.70036 15.2086C8.70179 15.1971 8.70429 15.1807 8.70786 15.1593C8.71143 15.1371 8.71643 15.1071 8.72286 15.0693H8.61786C8.60286 15.0693 8.58821 15.0686 8.57393 15.0671C8.55964 15.065 8.54714 15.0607 8.53643 15.0543C8.52571 15.0471 8.51679 15.0371 8.50964 15.0243C8.50321 15.0114 8.5 14.9936 8.5 14.9707C8.5 14.9464 8.50321 14.9275 8.50964 14.9139C8.51679 14.9004 8.52571 14.8904 8.53643 14.8839C8.54714 14.8775 8.55964 14.8736 8.57393 14.8721C8.58821 14.8707 8.60286 14.87 8.61786 14.87H8.755L8.79786 14.63H8.69286ZM8.95857 14.87H9.13857L9.18143 14.63H9.00143L8.95857 14.87Z" fill="white"/>
<path d="M10.1179 14.4693C10.0943 14.4907 10.0686 14.5075 10.0407 14.5196C10.0129 14.5318 9.98 14.5379 9.94214 14.5379C9.92071 14.5379 9.90071 14.5339 9.88214 14.5261C9.86429 14.5175 9.84893 14.5064 9.83607 14.4929C9.82321 14.4786 9.81286 14.4625 9.805 14.4446C9.79786 14.4268 9.79429 14.4079 9.79429 14.3879C9.79429 14.3679 9.7975 14.3507 9.80393 14.3364C9.81036 14.3214 9.81929 14.3086 9.83071 14.2979C9.84214 14.2871 9.85536 14.2775 9.87036 14.2689C9.88536 14.2604 9.90143 14.2514 9.91857 14.2421C9.95429 14.2186 9.98607 14.1946 10.0139 14.1704C10.0425 14.1461 10.0679 14.1236 10.09 14.1029C10.1121 14.0814 10.1314 14.0632 10.1479 14.0482C10.1643 14.0332 10.1786 14.0229 10.1907 14.0171C10.1979 14.0136 10.2043 14.0107 10.21 14.0086C10.2164 14.0057 10.2229 14.0039 10.2293 14.0032C10.2357 14.0018 10.2429 14.0011 10.2507 14.0011C10.2586 14.0004 10.2686 14 10.2807 14C10.3179 14 10.3471 14.0075 10.3686 14.0225C10.3907 14.0375 10.4071 14.0571 10.4179 14.0814C10.4293 14.105 10.4364 14.1318 10.4393 14.1618C10.4421 14.1918 10.4436 14.2221 10.4436 14.2529V15.2471C10.4436 15.2786 10.4421 15.3096 10.4393 15.3404C10.4364 15.3704 10.4293 15.3971 10.4179 15.4207C10.4071 15.4443 10.3907 15.4636 10.3686 15.4786C10.3471 15.4929 10.3179 15.5 10.2807 15.5C10.2429 15.5 10.2132 15.4929 10.1918 15.4786C10.1704 15.4636 10.1539 15.4443 10.1425 15.4207C10.1318 15.3971 10.125 15.3704 10.1221 15.3404C10.1193 15.3096 10.1179 15.2786 10.1179 15.2471V14.4693Z" fill="white"/>
<path d="M22.4722 14.3487C22.3028 14.4538 22.1006 14.2735 22.1859 14.0933L23.1755 12.001C23.2326 11.8802 23.3897 11.8483 23.4894 11.9373L24.4663 12.809C24.566 12.898 24.5522 13.0577 24.4387 13.1282L22.4722 14.3487Z" fill="#F0AE62"/>
<path d="M23.0163 15.3107C22.817 15.318 22.7309 15.0612 22.8942 14.9469L24.7906 13.6201C24.9001 13.5435 25.0524 13.5937 25.0949 13.7204L25.5114 14.9617C25.5539 15.0883 25.4627 15.2202 25.3292 15.2252L23.0163 15.3107Z" fill="#F0AE62"/>
<path d="M23.1296 16.3952C22.9559 16.2973 23.0167 16.0334 23.2157 16.0213L25.5259 15.8815C25.6593 15.8734 25.7629 15.9958 25.7329 16.126L25.4391 17.4019C25.4091 17.5321 25.2624 17.5969 25.146 17.5313L23.1296 16.3952Z" fill="#F0AE62"/>
<path d="M9.49707 9.77148C9.56934 9.74609 9.64453 9.72754 9.72266 9.71582C9.80273 9.70215 9.87988 9.68848 9.9541 9.6748V7.53613H9.4502L9.41504 7.28418C9.43848 7.27441 9.47656 7.26074 9.5293 7.24316C9.58398 7.22559 9.64453 7.20898 9.71094 7.19336C9.7793 7.17578 9.84766 7.16113 9.91602 7.14941C9.98633 7.1377 10.0498 7.13184 10.1064 7.13184C10.1885 7.13184 10.251 7.14258 10.2939 7.16406C10.3389 7.18555 10.3711 7.21191 10.3906 7.24316C10.4121 7.27441 10.4238 7.30859 10.4258 7.3457C10.4297 7.38281 10.4316 7.41602 10.4316 7.44531V7.49512C10.5156 7.43457 10.5957 7.38184 10.6719 7.33691C10.75 7.29004 10.8271 7.25195 10.9033 7.22266C10.9814 7.19141 11.0605 7.16895 11.1406 7.15527C11.2207 7.13965 11.3047 7.13184 11.3926 7.13184C11.498 7.13184 11.5918 7.13867 11.6738 7.15234C11.7578 7.16406 11.8301 7.18555 11.8906 7.2168C11.9531 7.24609 12.0049 7.28613 12.0459 7.33691C12.0869 7.38574 12.1201 7.44824 12.1455 7.52441L12.21 7.48047C12.2939 7.42383 12.376 7.37402 12.4561 7.33105C12.5381 7.28613 12.6191 7.24902 12.6992 7.21973C12.7793 7.19043 12.8604 7.16895 12.9424 7.15527C13.0264 7.13965 13.1133 7.13184 13.2031 7.13184C13.3574 7.13184 13.4863 7.14551 13.5898 7.17285C13.6953 7.2002 13.7793 7.24902 13.8418 7.31934C13.9062 7.38965 13.9521 7.48633 13.9795 7.60938C14.0068 7.73047 14.0205 7.88574 14.0205 8.0752V9.68359L14.4775 9.7627C14.4814 9.77441 14.4834 9.78809 14.4834 9.80371C14.4834 9.81934 14.4834 9.83398 14.4834 9.84766C14.4834 9.875 14.4795 9.9043 14.4717 9.93555C14.4639 9.96484 14.4561 9.98633 14.4482 10H13.1533L13.1299 9.77148C13.2002 9.74609 13.2666 9.72852 13.3291 9.71875C13.3916 9.70898 13.457 9.69727 13.5254 9.68359V8.10449C13.5254 8.00098 13.5176 7.91309 13.502 7.84082C13.4883 7.7666 13.4639 7.70703 13.4287 7.66211C13.3936 7.61523 13.3477 7.58105 13.291 7.55957C13.2344 7.53809 13.165 7.52734 13.083 7.52734C12.9951 7.52734 12.9141 7.53125 12.8398 7.53906C12.7676 7.54688 12.6982 7.55859 12.6318 7.57422C12.5654 7.58984 12.5 7.61035 12.4355 7.63574C12.373 7.65918 12.3076 7.6875 12.2393 7.7207L12.1924 7.74414C12.2041 7.8418 12.21 7.95215 12.21 8.0752V9.68359L12.667 9.7627C12.6709 9.77441 12.6729 9.78809 12.6729 9.80371C12.6748 9.81934 12.6758 9.83398 12.6758 9.84766C12.6758 9.875 12.6719 9.9043 12.6641 9.93555C12.6562 9.96484 12.6484 9.98633 12.6406 10H11.3457L11.3252 9.77148C11.3936 9.74609 11.459 9.72852 11.5215 9.71875C11.5859 9.70898 11.6523 9.69727 11.7207 9.68359V8.10449C11.7207 8.00293 11.7129 7.91602 11.6973 7.84375C11.6836 7.76953 11.6592 7.70898 11.624 7.66211C11.5889 7.61523 11.543 7.58105 11.4863 7.55957C11.4297 7.53809 11.3604 7.52734 11.2783 7.52734C11.1904 7.52734 11.1094 7.53125 11.0352 7.53906C10.9629 7.54688 10.8936 7.55859 10.8271 7.57422C10.7607 7.58984 10.6953 7.60938 10.6309 7.63281C10.5684 7.65625 10.502 7.68359 10.4316 7.71484V9.6748L10.9092 9.7627C10.9131 9.77441 10.915 9.78809 10.915 9.80371C10.915 9.81934 10.915 9.83398 10.915 9.84766C10.915 9.875 10.9111 9.9043 10.9033 9.93555C10.8975 9.96484 10.8906 9.98633 10.8828 10H9.52344L9.49707 9.77148ZM14.9346 8.74023C14.9326 8.45508 14.9609 8.21094 15.0195 8.00781C15.0801 7.80469 15.165 7.63867 15.2744 7.50977C15.3838 7.37891 15.5166 7.2832 15.6729 7.22266C15.8311 7.16211 16.0078 7.13184 16.2031 7.13184C16.416 7.13184 16.5908 7.15723 16.7275 7.20801C16.8643 7.25684 16.9717 7.33496 17.0498 7.44238C17.1279 7.54785 17.1816 7.68359 17.2109 7.84961C17.2422 8.01562 17.2568 8.21484 17.2549 8.44727L15.4385 8.46191C15.4385 8.60059 15.4404 8.72754 15.4443 8.84277C15.4502 8.95801 15.4629 9.0625 15.4824 9.15625C15.5039 9.24805 15.5342 9.3291 15.5732 9.39941C15.6123 9.46777 15.666 9.52539 15.7344 9.57227C15.8047 9.61719 15.8906 9.65137 15.9922 9.6748C16.0957 9.69824 16.2207 9.70996 16.3672 9.70996C16.4414 9.70996 16.5215 9.70312 16.6074 9.68945C16.6953 9.67578 16.7773 9.66016 16.8535 9.64258C16.9316 9.625 16.998 9.6084 17.0527 9.59277C17.1094 9.5752 17.1455 9.56348 17.1611 9.55762L17.2607 9.80664C17.2471 9.81641 17.2119 9.83691 17.1553 9.86816C17.0986 9.89746 17.0244 9.92871 16.9326 9.96191C16.8428 9.99316 16.7363 10.0215 16.6133 10.0469C16.4902 10.0723 16.3555 10.085 16.209 10.085C16.0273 10.085 15.8584 10.0684 15.7021 10.0352C15.5479 10.0039 15.4141 9.94043 15.3008 9.84473C15.1875 9.74902 15.0986 9.61328 15.0342 9.4375C14.9697 9.26172 14.9365 9.0293 14.9346 8.74023ZM16.751 8.13086C16.7471 7.96484 16.7256 7.83496 16.6865 7.74121C16.6494 7.64746 16.6025 7.57812 16.5459 7.5332C16.4912 7.48633 16.4316 7.45801 16.3672 7.44824C16.3027 7.43652 16.2412 7.43066 16.1826 7.43066C16.0557 7.43066 15.9482 7.44531 15.8604 7.47461C15.7744 7.50195 15.7031 7.5459 15.6465 7.60645C15.5898 7.66699 15.5469 7.74512 15.5176 7.84082C15.4883 7.93457 15.4678 8.04688 15.4561 8.17773L16.751 8.13086ZM17.8584 9.77148C17.9307 9.75 18.0068 9.73242 18.0869 9.71875C18.1689 9.70312 18.2451 9.68848 18.3154 9.6748V7.53613H17.8115L17.7764 7.28418C17.7998 7.27441 17.8379 7.26074 17.8906 7.24316C17.9453 7.22559 18.0059 7.20898 18.0723 7.19336C18.1406 7.17578 18.209 7.16113 18.2773 7.14941C18.3477 7.1377 18.4111 7.13184 18.4678 7.13184C18.5498 7.13184 18.6133 7.14258 18.6582 7.16406C18.7031 7.18555 18.7363 7.21191 18.7578 7.24316C18.7793 7.27441 18.792 7.30859 18.7959 7.3457C18.8018 7.38281 18.8057 7.41602 18.8076 7.44531V7.49512C18.9736 7.37207 19.1367 7.28125 19.2969 7.22266C19.457 7.16211 19.626 7.13184 19.8037 7.13184C19.958 7.13184 20.0869 7.14551 20.1904 7.17285C20.2959 7.2002 20.3799 7.24902 20.4424 7.31934C20.5068 7.38965 20.5527 7.48633 20.5801 7.60938C20.6074 7.73047 20.6211 7.88574 20.6211 8.0752V9.68359L21.0811 9.7627C21.085 9.77441 21.0869 9.78809 21.0869 9.80371C21.0869 9.81934 21.0869 9.83398 21.0869 9.84766C21.0869 9.875 21.082 9.9043 21.0723 9.93555C21.0645 9.96484 21.0566 9.98633 21.0488 10H19.7539L19.7334 9.77148C19.8037 9.75 19.8701 9.7334 19.9326 9.72168C19.9951 9.70996 20.0605 9.69727 20.1289 9.68359V8.10449C20.1289 7.99316 20.1211 7.90039 20.1055 7.82617C20.0918 7.75195 20.0674 7.69336 20.0322 7.65039C19.9971 7.60547 19.9512 7.57422 19.8945 7.55664C19.8379 7.53711 19.7686 7.52734 19.6865 7.52734C19.5986 7.52734 19.5156 7.53125 19.4375 7.53906C19.3613 7.54688 19.2881 7.55859 19.2178 7.57422C19.1475 7.58984 19.0791 7.60938 19.0127 7.63281C18.9463 7.65625 18.8779 7.68359 18.8076 7.71484V9.6748L19.2705 9.7627C19.2744 9.77441 19.2764 9.78809 19.2764 9.80371C19.2764 9.81934 19.2764 9.83398 19.2764 9.84766C19.2764 9.875 19.2725 9.9043 19.2646 9.93555C19.2588 9.96484 19.252 9.98633 19.2441 10H17.8848L17.8584 9.77148ZM21.8633 7.53613H21.4268L21.3916 7.29297C21.417 7.2832 21.4521 7.26953 21.4971 7.25195C21.5439 7.23242 21.5957 7.21387 21.6523 7.19629C21.7109 7.17871 21.7705 7.16406 21.8311 7.15234C21.8936 7.13867 21.9521 7.13184 22.0068 7.13184C22.0889 7.13184 22.1523 7.14258 22.1973 7.16406C22.2441 7.18555 22.2783 7.21191 22.2998 7.24316C22.3232 7.27441 22.3369 7.30859 22.3408 7.3457C22.3467 7.38281 22.3496 7.41602 22.3496 7.44531V9.11523C22.3496 9.23047 22.3574 9.32422 22.373 9.39648C22.3887 9.46875 22.415 9.52539 22.4521 9.56641C22.4893 9.60742 22.5381 9.63574 22.5986 9.65137C22.6592 9.66504 22.7354 9.67285 22.8271 9.6748C22.8877 9.67676 22.9561 9.6709 23.0322 9.65723C23.1104 9.6416 23.1885 9.62207 23.2666 9.59863C23.3447 9.57324 23.4199 9.54492 23.4922 9.51367C23.5664 9.48242 23.6309 9.45117 23.6855 9.41992V7.53613H23.1787L23.1436 7.28418C23.1689 7.27441 23.208 7.26074 23.2607 7.24316C23.3154 7.22559 23.375 7.20898 23.4395 7.19336C23.5059 7.17578 23.5732 7.16113 23.6416 7.14941C23.71 7.1377 23.7725 7.13184 23.8291 7.13184C23.9111 7.13184 23.9746 7.14258 24.0195 7.16406C24.0645 7.18555 24.0977 7.21191 24.1191 7.24316C24.1426 7.27441 24.1562 7.30859 24.1602 7.3457C24.166 7.38281 24.1689 7.41602 24.1689 7.44531V9.68945H24.7021L24.7227 9.93262C24.6992 9.94238 24.6602 9.95605 24.6055 9.97363C24.5527 9.99121 24.4941 10.0078 24.4297 10.0234C24.3652 10.041 24.2979 10.0557 24.2275 10.0674C24.1592 10.0791 24.0977 10.085 24.043 10.085C23.9609 10.085 23.8975 10.0732 23.8525 10.0498C23.8076 10.0283 23.7744 10.002 23.7529 9.9707C23.7314 9.9375 23.7178 9.90234 23.7119 9.86523C23.708 9.82617 23.7061 9.79199 23.7061 9.7627V9.64258H23.6973C23.6465 9.68164 23.582 9.72754 23.5039 9.78027C23.4258 9.83105 23.3379 9.87891 23.2402 9.92383C23.1445 9.96875 23.042 10.0068 22.9326 10.0381C22.8232 10.0693 22.7129 10.085 22.6016 10.085C22.4668 10.085 22.3525 10.0713 22.2588 10.0439C22.165 10.0166 22.0889 9.96777 22.0303 9.89746C21.9717 9.8252 21.9287 9.72852 21.9014 9.60742C21.876 9.48438 21.8633 9.3291 21.8633 9.1416V7.53613Z" fill="white"/>
</svg>
