<svg width="54" height="152" viewBox="0 0 54 152" fill="none" xmlns="http://www.w3.org/2000/svg">
<path d="M25 24H29L30 152H24L25 24Z" fill="#5F7A93"/>
<path d="M19 126C19 121.582 22.5817 118 27 118V118C31.4183 118 35 121.582 35 126V150C35 151.105 34.1046 152 33 152H21C19.8954 152 19 151.105 19 150V126Z" fill="#5F7A93"/>
<rect x="22" y="103" width="10" height="7" rx="3.5" fill="#5F7A93"/>
<rect x="22" y="108" width="10" height="2" rx="1" fill="#5F7A93"/>
<rect x="17" y="125" width="20" height="4" rx="2" fill="#5F7A93"/>
<rect x="9" y="28" width="36" height="2" rx="1" fill="#5F7A93"/>
<g filter="url(#filter0_f_215_877)">
<circle cx="46" cy="22" r="3" fill="#F7E197"/>
</g>
<rect x="40" y="26" width="12" height="2" rx="1" fill="#5F7A93"/>
<rect x="41" y="27" width="10" height="2" rx="1" fill="#5F7A93"/>
<rect x="42" y="28" width="8" height="2" rx="1" fill="#5F7A93"/>
<rect x="43" y="29" width="6" height="2" rx="1" fill="#5F7A93"/>
<rect x="44" y="30" width="4" height="2" rx="1" fill="#5F7A93"/>
<rect x="38" y="13" width="16" height="1" rx="0.5" fill="#5F7A93"/>
<rect x="41" y="27.1606" width="14.1097" height="1.2" transform="rotate(-95 41 27.1606)" fill="#5F7A93"/>
<rect width="14.1097" height="1.2" transform="matrix(-0.0871557 0.996195 0.996195 0.0871557 51 13)" fill="#5F7A93"/>
<circle cx="46" cy="7" r="1" fill="#5F7A93"/>
<path d="M45.6721 6.59016C45.815 6.33294 46.1849 6.33294 46.3279 6.59016V6.59016C47.7559 9.16066 49.7684 11.3593 52.2029 13.0086L52.9282 13.5H39.0718L39.7971 13.0086C42.2315 11.3593 44.2441 9.16067 45.6721 6.59016V6.59016Z" fill="#5F7A93"/>
<g filter="url(#filter1_f_215_877)">
<circle cx="8" cy="22" r="3" fill="#F7E197"/>
</g>
<rect x="2" y="26" width="12" height="2" rx="1" fill="#5F7A93"/>
<rect x="3" y="27" width="10" height="2" rx="1" fill="#5F7A93"/>
<rect x="4" y="28" width="8" height="2" rx="1" fill="#5F7A93"/>
<rect x="5" y="29" width="6" height="2" rx="1" fill="#5F7A93"/>
<rect x="6" y="30" width="4" height="2" rx="1" fill="#5F7A93"/>
<rect y="13" width="16" height="1" rx="0.5" fill="#5F7A93"/>
<rect x="3" y="27.1606" width="14.1097" height="1.2" transform="rotate(-95 3 27.1606)" fill="#5F7A93"/>
<rect width="14.1097" height="1.2" transform="matrix(-0.0871557 0.996195 0.996195 0.0871557 13 13)" fill="#5F7A93"/>
<circle cx="8" cy="7" r="1" fill="#5F7A93"/>
<path d="M7.67212 6.59016C7.81502 6.33294 8.18495 6.33294 8.32785 6.59016V6.59016C9.75592 9.16066 11.7684 11.3593 14.2029 13.0086L14.9282 13.5H1.07178L1.79707 13.0086C4.23155 11.3593 6.24407 9.16067 7.67212 6.59016V6.59016Z" fill="#5F7A93"/>
<g filter="url(#filter2_f_215_877)">
<circle cx="27" cy="16" r="3" fill="#F7E197"/>
</g>
<rect x="21" y="20" width="12" height="2" rx="1" fill="#5F7A93"/>
<rect x="22" y="21" width="10" height="2" rx="1" fill="#5F7A93"/>
<rect x="23" y="22" width="8" height="2" rx="1" fill="#5F7A93"/>
<rect x="24" y="23" width="6" height="2" rx="1" fill="#5F7A93"/>
<rect x="25" y="24" width="4" height="2" rx="1" fill="#5F7A93"/>
<rect x="19" y="7" width="16" height="1" rx="0.5" fill="#5F7A93"/>
<rect x="22" y="21.1606" width="14.1097" height="1.2" transform="rotate(-95 22 21.1606)" fill="#5F7A93"/>
<rect width="14.1097" height="1.2" transform="matrix(-0.0871557 0.996195 0.996195 0.0871557 32 7)" fill="#5F7A93"/>
<circle cx="27" cy="1" r="1" fill="#5F7A93"/>
<path d="M26.6721 0.590161C26.815 0.332937 27.1849 0.332937 27.3279 0.590161V0.590161C28.7559 3.16066 30.7684 5.35935 33.2029 7.00865L33.9282 7.5H20.0718L20.7971 7.00863C23.2315 5.35934 25.2441 3.16067 26.6721 0.590161V0.590161Z" fill="#5F7A93"/>
<rect x="5" y="41" width="1" height="3" fill="#5F7A93"/>
<rect x="33" y="41" width="1" height="3" fill="#5F7A93"/>
<rect x="20" y="41" width="1" height="3" fill="#5F7A93"/>
<rect x="48" y="41" width="1" height="3" fill="#5F7A93"/>
<rect x="2" y="39" width="50" height="2" rx="1" fill="#5F7A93"/>
<path d="M5 43H21V65.8C21 66.2944 20.4355 66.5767 20.04 66.28L14.2 61.9C13.4889 61.3667 12.5111 61.3667 11.8 61.9L5.96 66.28C5.56446 66.5767 5 66.2944 5 65.8V43Z" fill="#FCD3D3"/>
<path fill-rule="evenodd" clip-rule="evenodd" d="M8 43H5V65.8C5 66.2944 5.56446 66.5767 5.96 66.28L8 64.75V43ZM21 65.8V43H18V64.75L20.04 66.28C20.4355 66.5767 21 66.2944 21 65.8Z" fill="#FFB2B2"/>
<path d="M33 43H49V65.8C49 66.2944 48.4355 66.5767 48.04 66.28L42.2 61.9C41.4889 61.3667 40.5111 61.3667 39.8 61.9L33.96 66.28C33.5645 66.5767 33 66.2944 33 65.8V43Z" fill="#FCD3D3"/>
<path fill-rule="evenodd" clip-rule="evenodd" d="M36 43H33V65.8C33 66.2944 33.5645 66.5767 33.96 66.28L36 64.75V43ZM49 65.8V43H46V64.75L48.04 66.28C48.4355 66.5767 49 66.2944 49 65.8Z" fill="#FFB2B2"/>
<ellipse cx="48.5" cy="40" rx="1.5" ry="2" fill="#5F7A93"/>
<ellipse cx="5.5" cy="40" rx="1.5" ry="2" fill="#5F7A93"/>
<ellipse cx="20.5" cy="40" rx="1.5" ry="2" fill="#5F7A93"/>
<ellipse cx="33.5" cy="40" rx="1.5" ry="2" fill="#5F7A93"/>
<defs>
<filter id="filter0_f_215_877" x="39" y="15" width="14" height="14" filterUnits="userSpaceOnUse" color-interpolation-filters="sRGB">
<feFlood flood-opacity="0" result="BackgroundImageFix"/>
<feBlend mode="normal" in="SourceGraphic" in2="BackgroundImageFix" result="shape"/>
<feGaussianBlur stdDeviation="2" result="effect1_foregroundBlur_215_877"/>
</filter>
<filter id="filter1_f_215_877" x="1" y="15" width="14" height="14" filterUnits="userSpaceOnUse" color-interpolation-filters="sRGB">
<feFlood flood-opacity="0" result="BackgroundImageFix"/>
<feBlend mode="normal" in="SourceGraphic" in2="BackgroundImageFix" result="shape"/>
<feGaussianBlur stdDeviation="2" result="effect1_foregroundBlur_215_877"/>
</filter>
<filter id="filter2_f_215_877" x="20" y="9" width="14" height="14" filterUnits="userSpaceOnUse" color-interpolation-filters="sRGB">
<feFlood flood-opacity="0" result="BackgroundImageFix"/>
<feBlend mode="normal" in="SourceGraphic" in2="BackgroundImageFix" result="shape"/>
<feGaussianBlur stdDeviation="2" result="effect1_foregroundBlur_215_877"/>
</filter>
</defs>
</svg>
