<svg width="37" height="57" viewBox="0 0 37 57" fill="none" xmlns="http://www.w3.org/2000/svg">
<path d="M9.13817 1.86264C10.0923 1.94591 11.066 2.57114 11.8697 3.61653C18.9741 12.8581 22.1649 26.9491 19.7346 38.3497C19.4597 39.6394 18.8503 40.6231 18.0251 41.1092L16.6067 41.9449C15.5032 42.5951 14.0633 41.3903 13.6237 39.4486L5.88144 5.25735C5.44178 3.31574 6.2221 1.60815 7.49813 1.71951L9.13817 1.86264Z" fill="#AB8B4D"/>
<path d="M9.32001 2.56848C10.2741 2.65175 11.066 2.57114 11.8697 3.61653C18.9741 12.8581 22.1649 26.9491 19.7346 38.3497C19.4597 39.6394 18.8503 40.6231 18.0251 41.1092L16.6067 41.9449C15.5032 42.5951 15.0279 41.1814 14.5882 39.2398L6.8607 5.11342C6.72446 4.51172 6.61782 4.0408 6.56418 3.6709C6.42752 2.72858 7.9602 2.4406 9.32001 2.56848Z" fill="#CB9F6C"/>
<path d="M19.6451 21.4333C18.0573 21.7887 16.6461 21.5164 16.489 20.8225C16.3319 20.1287 17.4881 19.275 19.0741 18.9117C19.2869 19.7467 19.4775 20.5881 19.6451 21.4333Z" fill="#C79152"/>
<path d="M20.087 24.0365C19.8241 24.062 19.55 24.1059 19.2706 24.1692C17.6758 24.5303 16.5109 25.3875 16.6685 26.0839C16.8262 26.7802 18.2468 27.052 19.8416 26.6909C20.0248 26.6494 20.2024 26.6013 20.373 26.5477C20.3007 25.7109 20.2052 24.873 20.087 24.0365Z" fill="#C79152"/>
<path d="M20.5259 29.2783C20.186 29.2963 19.8228 29.3461 19.4501 29.4305C17.8553 29.7916 16.6904 30.6488 16.848 31.3452C17.0057 32.0415 18.4263 32.3133 20.0211 31.9522C20.1909 31.9137 20.3559 31.8696 20.5149 31.8207C20.5439 30.9787 20.5474 30.1304 20.5259 29.2783Z" fill="#C79152"/>
<path d="M20.3258 34.572C20.1 34.5984 19.8667 34.6381 19.6296 34.6918C18.0348 35.0529 16.8699 35.9102 17.0276 36.6065C17.1768 37.2655 18.4569 37.5442 19.9453 37.2662C20.1045 36.3814 20.2311 35.4822 20.3258 34.572Z" fill="#C79152"/>
<path d="M15.3843 9.16289C15.2197 9.18725 15.0518 9.21853 14.882 9.25699C13.2873 9.6181 12.1223 10.4753 12.28 11.1717C12.4377 11.868 13.8583 12.1398 15.453 11.7787C15.8257 11.6943 16.175 11.5828 16.4894 11.4525C16.1418 10.6743 15.7732 9.91029 15.3843 9.16289Z" fill="#C79152"/>
<path d="M17.5277 13.9827C17.3507 14.0078 17.1698 14.0409 16.9865 14.0824C15.3918 14.4435 14.2268 15.3008 14.3845 15.9971C14.5422 16.6935 15.9628 16.9652 17.5575 16.6041C17.837 16.5408 18.1032 16.4623 18.3514 16.3721C18.0977 15.5663 17.823 14.769 17.5277 13.9827Z" fill="#C79152"/>
<path d="M14.0284 6.76143C13.5508 5.98083 13.0492 5.22387 12.5244 4.49393C11.0614 4.88428 10.0262 5.6873 10.1754 6.34625C10.3331 7.0426 11.7537 7.31436 13.3485 6.95325C13.5856 6.89956 13.8132 6.8349 14.0284 6.76143Z" fill="#C79152"/>
<path d="M16.5086 20.4867C16.9504 20.956 18.1636 21.1025 19.5023 20.8029C19.4395 20.4859 19.3734 20.1695 19.3041 19.8537C19.2306 19.5389 19.1539 19.2249 19.0741 18.9117C17.7368 19.218 16.7052 19.8729 16.5086 20.4867Z" fill="#E0CA92"/>
<path d="M20.0297 24.0423C19.7844 24.0685 19.5298 24.1105 19.2706 24.1692C17.9251 24.4738 16.8855 25.1317 16.6881 25.748C17.1318 26.2193 18.3533 26.3651 19.6988 26.0604C19.8821 26.0189 20.0596 25.9709 20.2302 25.9173C20.1762 25.2925 20.1093 24.6672 20.0297 24.0423Z" fill="#E0CA92"/>
<path d="M20.3946 29.2868C20.0931 29.3095 19.7752 29.3569 19.4501 29.4305C18.1046 29.7352 17.065 30.393 16.8676 31.0094C17.3113 31.4806 18.5328 31.6264 19.8783 31.3218C20.0482 31.2833 20.2131 31.2392 20.3721 31.1903C20.3939 30.559 20.4013 29.9241 20.3946 29.2868Z" fill="#E0CA92"/>
<path d="M20.1086 34.6012C19.9515 34.625 19.7914 34.6552 19.6296 34.6918C18.2841 34.9965 17.2446 35.6543 17.0471 36.2707C17.4626 36.7119 18.56 36.8679 19.8026 36.6358C19.9232 35.9654 20.0251 35.2867 20.1086 34.6012Z" fill="#E0CA92"/>
<path d="M16.2245 10.8711C15.956 10.293 15.6759 9.72327 15.3843 9.16289C15.2197 9.18725 15.0518 9.21853 14.882 9.25699C13.5365 9.56166 12.497 10.2195 12.2996 10.8359C12.7433 11.3071 13.9648 11.4529 15.3102 11.1483C15.6354 11.0746 15.9427 10.9804 16.2245 10.8711Z" fill="#E0CA92"/>
<path d="M18.1545 15.7611C17.9572 15.1629 17.7482 14.5697 17.5277 13.9827C17.3507 14.0078 17.1698 14.0409 16.9865 14.0824C15.641 14.3871 14.6015 15.0449 14.4041 15.6613C14.8478 16.1325 16.0693 16.2783 17.4148 15.9737C17.674 15.915 17.9218 15.8432 18.1545 15.7611Z" fill="#E0CA92"/>
<path d="M13.677 6.19824C13.3064 5.61561 12.9221 5.04701 12.5244 4.49393C11.3031 4.8198 10.3799 5.43328 10.195 6.01044C10.6387 6.48167 11.8603 6.6275 13.2057 6.32283C13.3676 6.28618 13.525 6.24442 13.677 6.19824Z" fill="#E0CA92"/>
<path d="M3.9835 8.09463C4.97231 8.12747 6.07438 8.80249 7.075 9.98822C15.9208 20.4704 21.6036 36.982 21.0826 50.688C21.0236 52.2384 20.5704 53.4487 19.8113 54.0831L18.5063 55.1736C17.491 56.0221 15.8132 54.691 15.0302 52.4159L1.24119 12.3512C0.458154 10.076 0.961398 7.99429 2.28382 8.0382L3.9835 8.09463Z" fill="#FCCA6B"/>
<path d="M4.29064 8.9202C5.27946 8.95304 6.07438 8.80249 7.075 9.98822C15.9208 20.4704 21.6036 36.982 21.0826 50.688C21.0236 52.2384 20.5704 53.4487 19.8113 54.0831L18.5063 55.1736C17.491 56.0221 16.7625 54.3762 15.9794 52.1011L2.2166 12.1124C1.97394 11.4074 1.78402 10.8556 1.6656 10.42C1.36393 9.31054 2.87979 8.86247 4.29064 8.9202Z" fill="#FFD88D"/>
<path d="M18.0812 30.6067C16.5206 31.1386 15.0325 30.9129 14.7527 30.0998C14.4729 29.2868 15.5069 28.1931 17.0643 27.6519C17.4253 28.6287 17.7646 29.6146 18.0812 30.6067Z" fill="#FFE99B"/>
<path d="M18.9803 33.6672C18.7162 33.7158 18.4438 33.7868 18.1693 33.8813C16.6026 34.4205 15.5603 35.519 15.8411 36.335C16.1219 37.151 17.6196 37.3753 19.1863 36.8361C19.3663 36.7742 19.5394 36.7048 19.7044 36.6294C19.4866 35.6407 19.2449 34.6524 18.9803 33.6672Z" fill="#FFE99B"/>
<path d="M20.3303 39.8613C19.9863 39.9061 19.6239 39.9904 19.2577 40.1164C17.691 40.6556 16.6486 41.7542 16.9295 42.5702C17.2103 43.3861 18.708 43.6105 20.2746 43.0713C20.4415 43.0139 20.6024 42.9501 20.7564 42.881C20.6412 41.8791 20.4988 40.8716 20.3303 39.8613Z" fill="#FFE99B"/>
<path d="M21.0365 46.1612C20.8104 46.2082 20.579 46.2714 20.3461 46.3516C18.7794 46.8908 17.737 47.9894 18.0178 48.8054C18.2836 49.5775 19.639 49.8199 21.1114 49.3868C21.1218 48.3251 21.0964 47.2485 21.0365 46.1612Z" fill="#FFE99B"/>
<path d="M11.6187 16.331C11.4548 16.3713 11.2888 16.4201 11.1219 16.4775C9.55523 17.0167 8.51286 18.1153 8.79369 18.9312C9.07452 19.7472 10.5722 19.9716 12.1389 19.4324C12.5051 19.3063 12.8426 19.1497 13.1413 18.9733C12.6524 18.0733 12.1445 17.1916 11.6187 16.331Z" fill="#FFE99B"/>
<path d="M14.637 21.9059C14.4606 21.948 14.2814 21.9998 14.1014 22.0618C12.5347 22.601 11.4924 23.6996 11.7732 24.5155C12.054 25.3315 13.5517 25.5559 15.1184 25.0167C15.3929 24.9222 15.6513 24.8105 15.8893 24.6862C15.4916 23.7469 15.0739 22.8192 14.637 21.9059Z" fill="#FFE99B"/>
<path d="M9.8208 13.5732C9.19874 12.6793 8.55624 11.8152 7.89466 10.9848C6.46759 11.5496 5.54843 12.5748 5.81418 13.3469C6.09501 14.1629 7.5927 14.3873 9.15936 13.8481C9.39231 13.7679 9.61366 13.6754 9.8208 13.5732Z" fill="#FFE99B"/>
<path d="M14.715 29.6997C15.2469 30.2263 16.5112 30.3164 17.827 29.868C17.7082 29.4959 17.5863 29.1247 17.4612 28.7545C17.332 28.3858 17.1997 28.0182 17.0643 27.6519C15.7512 28.1082 14.8101 28.9573 14.715 29.6997Z" fill="#FFF6D8"/>
<path d="M18.9228 33.6781C18.6768 33.7262 18.4239 33.7936 18.1693 33.8813C16.8475 34.3362 15.8989 35.1893 15.8033 35.9349C16.3376 36.4637 17.6102 36.5523 18.932 36.0974C19.1121 36.0355 19.2852 35.9661 19.4501 35.8907C19.2876 35.1526 19.1117 34.4147 18.9228 33.6781Z" fill="#FFF6D8"/>
<path d="M20.1976 39.8804C19.8937 39.9283 19.5771 40.0065 19.2577 40.1164C17.9359 40.5714 16.9873 41.4245 16.8917 42.1701C17.4259 42.6989 18.6986 42.7875 20.0204 42.3326C20.1873 42.2752 20.3482 42.2114 20.5022 42.1423C20.4158 41.3911 20.3141 40.6367 20.1976 39.8804Z" fill="#FFF6D8"/>
<path d="M20.8197 46.2109C20.6633 46.25 20.505 46.2969 20.3461 46.3516C19.0243 46.8065 18.0757 47.6596 17.9801 48.4052C18.4803 48.9004 19.628 49.0096 20.8572 48.6481C20.865 47.8436 20.8523 47.0306 20.8197 46.2109Z" fill="#FFF6D8"/>
<path d="M12.7707 18.3012C12.3971 17.6334 12.0129 16.9762 11.6187 16.331C11.4548 16.3713 11.2888 16.4201 11.1219 16.4775C9.80011 16.9324 8.85153 17.7855 8.75594 18.5311C9.29015 19.06 10.5628 19.1486 11.8846 18.6936C12.204 18.5837 12.5017 18.4505 12.7707 18.3012Z" fill="#FFF6D8"/>
<path d="M15.5831 23.9743C15.2786 23.2776 14.9631 22.5877 14.637 21.9059C14.4606 21.948 14.2814 21.9998 14.1014 22.0618C12.7796 22.5167 11.831 23.3698 11.7354 24.1154C12.2697 24.6443 13.5424 24.7329 14.8641 24.278C15.1188 24.1903 15.3596 24.0879 15.5831 23.9743Z" fill="#FFF6D8"/>
<path d="M9.36506 12.9288C8.88628 12.2626 8.39595 11.614 7.89466 10.9848C6.70331 11.4563 5.86593 12.2487 5.77643 12.9468C6.31064 13.4757 7.58333 13.5643 8.90512 13.1093C9.06411 13.0546 9.2177 12.9941 9.36506 12.9288Z" fill="#FFF6D8"/>
<path d="M6 27L8.5 29L11.5 27L14.5 29L17.5 27L20.5 29L23.5 27L26.5 29L29 27V57H10C7.79086 57 6 55.2091 6 53V27Z" fill="#F0AE62"/>
<path d="M37 27L34.913 29L32.8261 27L30.7391 29L29 27V57H33C35.2091 57 37 55.2091 37 53V27Z" fill="#E6994E"/>
</svg>
