<svg width="212" height="65" viewBox="0 0 212 65" fill="none" xmlns="http://www.w3.org/2000/svg">
<rect y="50" width="212" height="3.48387" fill="#FFF5F6"/>
<path d="M0 53H20V55C20 60.5228 15.5228 65 10 65V65C4.47715 65 0 60.5228 0 55V53Z" fill="#0054A0"/>
<path d="M20 53H39V55.5C39 60.7467 34.7467 65 29.5 65V65C24.2533 65 20 60.7467 20 55.5V53Z" fill="#FFF5F6"/>
<path d="M39 53H58V55.5C58 60.7467 53.7467 65 48.5 65V65C43.2533 65 39 60.7467 39 55.5V53Z" fill="#0054A0"/>
<path d="M58 53H78V55C78 60.5228 73.5228 65 68 65V65C62.4772 65 58 60.5228 58 55V53Z" fill="#FFF5F6"/>
<path d="M78 53H97V55.5C97 60.7467 92.7467 65 87.5 65V65C82.2533 65 78 60.7467 78 55.5V53Z" fill="#0054A0"/>
<path d="M97 53H116V55.5C116 60.7467 111.747 65 106.5 65V65C101.253 65 97 60.7467 97 55.5V53Z" fill="#FFF5F6"/>
<path d="M116 53H135V55.5C135 60.7467 130.747 65 125.5 65V65C120.253 65 116 60.7467 116 55.5V53Z" fill="#0054A0"/>
<path d="M135 53H154V55.5C154 60.7467 149.747 65 144.5 65V65C139.253 65 135 60.7467 135 55.5V53Z" fill="#FFF5F6"/>
<path d="M154 53H174V55C174 60.5228 169.523 65 164 65V65C158.477 65 154 60.5228 154 55V53Z" fill="#0054A0"/>
<path d="M174 53H193V55.5C193 60.7467 188.747 65 183.5 65V65C178.253 65 174 60.7467 174 55.5V53Z" fill="#FFF5F6"/>
<path d="M193 53H212V55.5C212 60.7467 207.747 65 202.5 65V65C197.253 65 193 60.7467 193 55.5V53Z" fill="#0054A0"/>
<rect x="16" y="20" width="180" height="12.1101" fill="#0054A0"/>
<path d="M15.9 31.8348H196.1L212 50H0L15.9 31.8348Z" fill="#0054A0"/>
<path fill-rule="evenodd" clip-rule="evenodd" d="M20 0C20 2.20914 18.2091 4 16 4V25C18.2091 25 20 26.7909 20 29H192C192 26.7909 193.791 25 196 25V4C193.791 4 192 2.20914 192 0H20Z" fill="#F69D9D"/>
<path fill-rule="evenodd" clip-rule="evenodd" d="M24 4C24 6.20914 22.2091 8 20 8V21C22.2091 21 24 22.7909 24 25H188C188 22.7909 189.791 21 192 21V8C189.791 8 188 6.20914 188 4H24Z" fill="#F56D6D"/>
<path fill-rule="evenodd" clip-rule="evenodd" d="M25.9071 6C25.9071 7.78832 24.1579 9.23803 22.0001 9.23803C22.0001 9.23803 22 9.23803 22 9.23803V19.7619C22 19.7619 22.0001 19.7619 22.0001 19.7619C24.1579 19.7619 25.9071 21.2116 25.9071 23C25.9071 23 25.9071 23 25.9071 23L186.093 22.9999C186.093 21.2116 187.842 19.7618 190 19.7618C190 19.7618 190 19.7618 190 19.7618V9.23803C190 9.23803 190 9.23803 190 9.23803C187.842 9.23803 186.093 7.78832 186.093 6H25.9071Z" fill="#FFF5F6"/>
</svg>
