<svg width="180" height="57" viewBox="0 0 180 57" fill="none" xmlns="http://www.w3.org/2000/svg">
<path fill-rule="evenodd" clip-rule="evenodd" d="M180 55L90 4L0 55H11L90 9L169 55H180Z" fill="#A39B8D"/>
<path d="M8 54H0V56H1V57H7V56H8V54Z" fill="#A39B8D"/>
<path d="M180 54H172V56H173V57H179V56H180V54Z" fill="#A39B8D"/>
<path d="M90 9L169 55H11L90 9Z" fill="#A78D78"/>
<path d="M90 10L168 55H12L90 10Z" fill="#E4E4E4"/>
<path d="M74.9414 9.08542L87.5829 2.4575V2.4575C89.3622 3.01722 90.3809 4.88314 89.8896 6.68253L89.8583 6.79739L77.2168 13.4253L77.2165 13.1812C77.2143 11.5152 76.3547 9.96763 74.9414 9.08542V9.08542Z" fill="#9D9D9D"/>
<path fill-rule="evenodd" clip-rule="evenodd" d="M77.3161 13.3732L77.2166 13.1835L77.2166 13.1811C77.2149 11.9062 76.7111 10.7007 75.8414 9.80966L88.7141 3.06054C89.7617 3.90157 90.2641 5.31132 89.8898 6.68245L89.8584 6.79731L77.3161 13.3732Z" fill="#7F7F7F"/>
<path d="M64.6357 15.2873L77.2772 8.6594V8.6594C79.0565 9.21912 80.0753 11.085 79.584 12.8844L79.5526 12.9993L66.9111 19.6272L66.9108 19.3831C66.9086 17.7171 66.049 16.1695 64.6357 15.2873V15.2873Z" fill="#9D9D9D"/>
<path fill-rule="evenodd" clip-rule="evenodd" d="M67.0104 19.5751L66.9109 19.3854L66.9109 19.383C66.9092 18.1082 66.4055 16.9027 65.5358 16.0116L78.4084 9.26244C79.456 10.1035 79.9584 11.5132 79.5841 12.8843L79.5527 12.9992L67.0104 19.5751Z" fill="#7F7F7F"/>
<path d="M54.3301 21.4892L66.9716 14.8613V14.8613C68.7508 15.421 69.7696 17.2869 69.2783 19.0863L69.247 19.2012L56.6055 25.8291L56.6052 25.585C56.603 23.919 55.7433 22.3714 54.3301 21.4892V21.4892Z" fill="#9D9D9D"/>
<path fill-rule="evenodd" clip-rule="evenodd" d="M56.7048 25.777L56.6053 25.5873L56.6053 25.5849C56.6036 24.3101 56.0998 23.1046 55.2301 22.2135L68.1028 15.4643C69.1503 16.3054 69.6528 17.7151 69.2784 19.0863L69.2471 19.2011L56.7048 25.777Z" fill="#7F7F7F"/>
<path d="M44.0239 27.6911L56.6654 21.0632V21.0632C58.4447 21.6229 59.4634 23.4889 58.9722 25.2882L58.9408 25.4031L46.2993 32.031L46.299 31.7869C46.2968 30.1209 45.4372 28.5733 44.0239 27.6911V27.6911Z" fill="#9D9D9D"/>
<path fill-rule="evenodd" clip-rule="evenodd" d="M46.3986 31.9789L46.2991 31.7892L46.2991 31.7868C46.2974 30.512 45.7937 29.3065 44.924 28.4154L57.7966 21.6663C58.8442 22.5073 59.3466 23.917 58.9723 25.2882L58.9409 25.403L46.3986 31.9789Z" fill="#7F7F7F"/>
<path d="M33.7183 33.893L46.3597 27.2651V27.2651C48.139 27.8248 49.1578 29.6908 48.6665 31.4901L48.6351 31.605L35.9937 38.2329L35.9933 37.9888C35.9911 36.3228 35.1315 34.7752 33.7183 33.893V33.893Z" fill="#9D9D9D"/>
<path fill-rule="evenodd" clip-rule="evenodd" d="M36.0929 38.1809L35.9934 37.9911L35.9934 37.9887C35.9918 36.7139 35.488 35.5084 34.6183 34.6173L47.4909 27.8682C48.5385 28.7092 49.041 30.1189 48.6666 31.4901L48.6352 31.6049L36.0929 38.1809Z" fill="#7F7F7F"/>
<path d="M23.4126 40.0951L36.0541 33.4672V33.4672C37.8334 34.0269 38.8521 35.8928 38.3608 37.6922L38.3295 37.8071L25.688 44.435L25.6877 44.1909C25.6855 42.5249 24.8259 40.9773 23.4126 40.0951V40.0951Z" fill="#9D9D9D"/>
<path fill-rule="evenodd" clip-rule="evenodd" d="M25.7873 44.3829L25.6878 44.1932L25.6878 44.1908C25.6861 42.916 25.1823 41.7105 24.3126 40.8194L37.1853 34.0702C38.2329 34.9113 38.7353 36.321 38.3609 37.6922L38.3296 37.807L25.7873 44.3829Z" fill="#7F7F7F"/>
<path d="M13.1069 46.297L25.7484 39.6691V39.6691C27.5277 40.2288 28.5464 42.0947 28.0552 43.8941L28.0238 44.009L15.3823 50.6369L15.382 50.3928C15.3798 48.7268 14.5202 47.1792 13.1069 46.297V46.297Z" fill="#9D9D9D"/>
<path fill-rule="evenodd" clip-rule="evenodd" d="M15.4816 50.5848L15.3821 50.3951L15.3821 50.3927C15.3804 49.1179 14.8767 47.9124 14.007 47.0213L26.8796 40.2721C27.9272 41.1132 28.4296 42.5229 28.0553 43.8941L28.0239 44.0089L15.4816 50.5848Z" fill="#7F7F7F"/>
<path d="M3.10693 52.0854L15.7484 45.4575V45.4575C17.5277 46.0172 18.5464 47.8831 18.0552 49.6825L18.0238 49.7974L5.38234 56.4253L5.38201 56.1812C5.37981 54.5152 4.52019 52.9676 3.10693 52.0854V52.0854Z" fill="#9D9D9D"/>
<path fill-rule="evenodd" clip-rule="evenodd" d="M5.48161 56.3732L5.38212 56.1834L5.38212 56.1811C5.38043 54.9062 4.87667 53.7007 4.00696 52.8096L16.8796 46.0605C17.9272 46.9015 18.4296 48.3113 18.0553 49.6824L18.0239 49.7973L5.48161 56.3732Z" fill="#7F7F7F"/>
<path d="M105.059 9.08542L92.4171 2.4575V2.4575C90.6378 3.01722 89.6191 4.88314 90.1104 6.68253L90.1417 6.79739L102.783 13.4253L102.784 13.1812C102.786 11.5152 103.645 9.96763 105.059 9.08542V9.08542Z" fill="#9D9D9D"/>
<path fill-rule="evenodd" clip-rule="evenodd" d="M102.684 13.3732L102.783 13.1835L102.783 13.1811C102.785 11.9062 103.289 10.7007 104.159 9.80966L91.2859 3.06054C90.2383 3.90157 89.7359 5.31132 90.1102 6.68245L90.1416 6.79731L102.684 13.3732Z" fill="#7F7F7F"/>
<path d="M115.364 15.2873L102.723 8.6594V8.6594C100.943 9.21912 99.9247 11.085 100.416 12.8844L100.447 12.9993L113.089 19.6272L113.089 19.3831C113.091 17.7171 113.951 16.1695 115.364 15.2873V15.2873Z" fill="#9D9D9D"/>
<path fill-rule="evenodd" clip-rule="evenodd" d="M112.99 19.5751L113.089 19.3854L113.089 19.383C113.091 18.1082 113.595 16.9027 114.464 16.0116L101.592 9.26244C100.544 10.1035 100.042 11.5132 100.416 12.8843L100.447 12.9992L112.99 19.5751Z" fill="#7F7F7F"/>
<path d="M125.67 21.4892L113.028 14.8613V14.8613C111.249 15.421 110.23 17.2869 110.722 19.0863L110.753 19.2012L123.395 25.8291L123.395 25.585C123.397 23.919 124.257 22.3714 125.67 21.4892V21.4892Z" fill="#9D9D9D"/>
<path fill-rule="evenodd" clip-rule="evenodd" d="M123.295 25.777L123.395 25.5873L123.395 25.5849C123.396 24.3101 123.9 23.1046 124.77 22.2135L111.897 15.4643C110.85 16.3054 110.347 17.7151 110.722 19.0863L110.753 19.2011L123.295 25.777Z" fill="#7F7F7F"/>
<path d="M135.976 27.6911L123.335 21.0632V21.0632C121.555 21.6229 120.537 23.4889 121.028 25.2882L121.059 25.4031L133.701 32.031L133.701 31.7869C133.703 30.1209 134.563 28.5733 135.976 27.6911V27.6911Z" fill="#9D9D9D"/>
<path fill-rule="evenodd" clip-rule="evenodd" d="M133.601 31.9789L133.701 31.7892L133.701 31.7868C133.703 30.512 134.206 29.3065 135.076 28.4154L122.203 21.6663C121.156 22.5073 120.653 23.917 121.028 25.2882L121.059 25.403L133.601 31.9789Z" fill="#7F7F7F"/>
<path d="M146.282 33.893L133.64 27.2651V27.2651C131.861 27.8248 130.842 29.6908 131.333 31.4901L131.365 31.605L144.006 38.2329L144.007 37.9888C144.009 36.3228 144.868 34.7752 146.282 33.893V33.893Z" fill="#9D9D9D"/>
<path fill-rule="evenodd" clip-rule="evenodd" d="M143.907 38.1809L144.007 37.9911L144.007 37.9887C144.008 36.7139 144.512 35.5084 145.382 34.6173L132.509 27.8682C131.461 28.7092 130.959 30.1189 131.333 31.4901L131.365 31.6049L143.907 38.1809Z" fill="#7F7F7F"/>
<path d="M156.587 40.0951L143.946 33.4672V33.4672C142.167 34.0269 141.148 35.8928 141.639 37.6922L141.671 37.8071L154.312 44.435L154.312 44.1909C154.315 42.5249 155.174 40.9773 156.587 40.0951V40.0951Z" fill="#9D9D9D"/>
<path fill-rule="evenodd" clip-rule="evenodd" d="M154.213 44.3829L154.312 44.1932L154.312 44.1908C154.314 42.916 154.818 41.7105 155.687 40.8194L142.815 34.0702C141.767 34.9113 141.265 36.321 141.639 37.6922L141.67 37.807L154.213 44.3829Z" fill="#7F7F7F"/>
<path d="M166.893 46.297L154.252 39.6691V39.6691C152.472 40.2288 151.454 42.0947 151.945 43.8941L151.976 44.009L164.618 50.6369L164.618 50.3928C164.62 48.7268 165.48 47.1792 166.893 46.297V46.297Z" fill="#9D9D9D"/>
<path fill-rule="evenodd" clip-rule="evenodd" d="M164.518 50.5848L164.618 50.3951L164.618 50.3927C164.62 49.1179 165.123 47.9124 165.993 47.0213L153.12 40.2721C152.073 41.1132 151.57 42.5229 151.945 43.8941L151.976 44.0089L164.518 50.5848Z" fill="#7F7F7F"/>
<path d="M176.893 52.0854L164.252 45.4575V45.4575C162.472 46.0172 161.454 47.8831 161.945 49.6825L161.976 49.7974L174.618 56.4253L174.618 56.1812C174.62 54.5152 175.48 52.9676 176.893 52.0854V52.0854Z" fill="#9D9D9D"/>
<path fill-rule="evenodd" clip-rule="evenodd" d="M174.518 56.3732L174.618 56.1834L174.618 56.1811C174.62 54.9062 175.123 53.7007 175.993 52.8096L163.12 46.0605C162.073 46.9015 161.57 48.3113 161.945 49.6824L161.976 49.7973L174.518 56.3732Z" fill="#7F7F7F"/>
<circle cx="90" cy="3" r="3" fill="#9D9D9D"/>
<path fill-rule="evenodd" clip-rule="evenodd" d="M86.9648 4.19936C87.068 2.63601 88.3688 1.3999 89.9582 1.3999C91.5481 1.3999 92.8491 2.63663 92.9517 4.20054C92.8485 5.76389 91.5478 7 89.9583 7C88.3685 7 87.0674 5.76327 86.9648 4.19936Z" fill="#7F7F7F"/>
</svg>
