<svg width="180" height="57" viewBox="0 0 180 57" fill="none" xmlns="http://www.w3.org/2000/svg">
<path fill-rule="evenodd" clip-rule="evenodd" d="M180 55L90 4L0 55H11L90 9L169 55H180Z" fill="#A39B8D"/>
<path d="M8 54H0V56H1V57H7V56H8V54Z" fill="#A39B8D"/>
<path d="M180 54H172V56H173V57H179V56H180V54Z" fill="#A39B8D"/>
<path d="M90 9L169 55H11L90 9Z" fill="#A78D78"/>
<path d="M90 10L168 55H12L90 10Z" fill="#FFE2CA"/>
<path d="M74.9413 9.08545L87.5828 2.45753C89.362 3.01725 90.3808 4.88317 89.8895 6.68256L89.8582 6.79742L77.2167 13.4253L77.2164 13.1812C77.2142 11.5152 76.3545 9.96766 74.9413 9.08545Z" fill="#D98C62"/>
<path fill-rule="evenodd" clip-rule="evenodd" d="M77.316 13.3732L77.2165 13.1834L77.2165 13.1811C77.2148 11.9062 76.711 10.7007 75.8413 9.80963L88.714 3.06051C89.7615 3.90154 90.264 5.31129 89.8896 6.68242L89.8583 6.79728L77.316 13.3732Z" fill="#B0714E"/>
<path d="M64.6355 15.2874L77.277 8.65943C79.0563 9.21915 80.075 11.0851 79.5837 12.8845L79.5524 12.9993L66.9109 19.6272L66.9106 19.3831C66.9084 17.7171 66.0488 16.1696 64.6355 15.2874Z" fill="#D98C62"/>
<path fill-rule="evenodd" clip-rule="evenodd" d="M67.0102 19.5751L66.9107 19.3853L66.9107 19.383C66.909 18.1081 66.4052 16.9026 65.5355 16.0115L78.4082 9.26241C79.4558 10.1034 79.9582 11.5132 79.5838 12.8843L79.5525 12.9992L67.0102 19.5751Z" fill="#B0714E"/>
<path d="M54.33 21.4893L66.9714 14.8613C68.7507 15.4211 69.7695 17.287 69.2782 19.0864L69.2468 19.2012L56.6054 25.8292L56.605 25.585C56.6028 23.919 55.7432 22.3715 54.33 21.4893Z" fill="#D98C62"/>
<path fill-rule="evenodd" clip-rule="evenodd" d="M56.7046 25.777L56.6051 25.5873L56.6051 25.5849C56.6035 24.31 56.0997 23.1045 55.23 22.2134L68.1026 15.4643C69.1502 16.3054 69.6526 17.7151 69.2783 19.0862L69.2469 19.2011L56.7046 25.777Z" fill="#B0714E"/>
<path d="M44.0242 27.6912L56.6656 21.0632C58.4449 21.623 59.4637 23.4889 58.9724 25.2883L58.9411 25.4031L46.2996 32.0311L46.2993 31.7869C46.297 30.1209 45.4374 28.5734 44.0242 27.6912Z" fill="#D98C62"/>
<path fill-rule="evenodd" clip-rule="evenodd" d="M46.3988 31.9789L46.2994 31.7892L46.2994 31.7868C46.2977 30.5119 45.7939 29.3064 44.9242 28.4153L57.7968 21.6662C58.8444 22.5073 59.3469 23.917 58.9725 25.2881L58.9412 25.403L46.3988 31.9789Z" fill="#B0714E"/>
<path d="M33.7184 33.8931L46.3599 27.2651C48.1391 27.8249 49.1579 29.6908 48.6666 31.4902L48.6353 31.605L35.9938 38.233L35.9935 37.9888C35.9913 36.3228 35.1316 34.7753 33.7184 33.8931Z" fill="#D98C62"/>
<path fill-rule="evenodd" clip-rule="evenodd" d="M36.0931 38.1808L35.9936 37.9911L35.9936 37.9887C35.9919 36.7138 35.4881 35.5083 34.6184 34.6172L47.4911 27.8681C48.5386 28.7092 49.0411 30.1189 48.6667 31.49L48.6354 31.6049L36.0931 38.1808Z" fill="#B0714E"/>
<path d="M23.4126 40.0952L36.0541 33.4673C37.8334 34.027 38.8521 35.8929 38.3608 37.6923L38.3295 37.8072L25.688 44.4351L25.6877 44.191C25.6855 42.525 24.8259 40.9774 23.4126 40.0952Z" fill="#D98C62"/>
<path fill-rule="evenodd" clip-rule="evenodd" d="M25.7873 44.383L25.6878 44.1932L25.6878 44.1908C25.6861 42.916 25.1823 41.7105 24.3126 40.8194L37.1853 34.0703C38.2329 34.9113 38.7353 36.3211 38.3609 37.6922L38.3296 37.807L25.7873 44.383Z" fill="#B0714E"/>
<path d="M13.1069 46.2971L25.7484 39.6692C27.5277 40.2289 28.5464 42.0948 28.0552 43.8942L28.0238 44.0091L15.3823 50.637L15.382 50.3929C15.3798 48.7269 14.5202 47.1793 13.1069 46.2971Z" fill="#D98C62"/>
<path fill-rule="evenodd" clip-rule="evenodd" d="M15.4816 50.5849L15.3821 50.3951L15.3821 50.3928C15.3804 49.1179 14.8767 47.9124 14.007 47.0213L26.8796 40.2722C27.9272 41.1132 28.4296 42.523 28.0553 43.8941L28.0239 44.009L15.4816 50.5849Z" fill="#B0714E"/>
<path d="M3.10693 52.0854L15.7484 45.4575C17.5277 46.0172 18.5464 47.8832 18.0552 49.6826L18.0238 49.7974L5.38234 56.4253L5.38201 56.1812C5.37981 54.5152 4.52019 52.9677 3.10693 52.0854Z" fill="#D98C62"/>
<path fill-rule="evenodd" clip-rule="evenodd" d="M5.48161 56.3732L5.38212 56.1834L5.38212 56.1811C5.38043 54.9062 4.87667 53.7007 4.00696 52.8096L16.8796 46.0605C17.9272 46.9015 18.4296 48.3113 18.0553 49.6824L18.0239 49.7973L5.48161 56.3732Z" fill="#B0714E"/>
<path d="M105.059 9.08545L92.4172 2.45753C90.638 3.01725 89.6192 4.88317 90.1105 6.68256L90.1418 6.79742L102.783 13.4253L102.784 13.1812C102.786 11.5152 103.645 9.96766 105.059 9.08545Z" fill="#D98C62"/>
<path fill-rule="evenodd" clip-rule="evenodd" d="M102.684 13.3732L102.784 13.1834L102.784 13.1811C102.785 11.9062 103.289 10.7007 104.159 9.80963L91.286 3.06051C90.2385 3.90154 89.736 5.31129 90.1104 6.68242L90.1417 6.79728L102.684 13.3732Z" fill="#B0714E"/>
<path d="M115.365 15.2874L102.723 8.65943C100.944 9.21915 99.925 11.0851 100.416 12.8845L100.448 12.9993L113.089 19.6272L113.089 19.3831C113.092 17.7171 113.951 16.1696 115.365 15.2874Z" fill="#D98C62"/>
<path fill-rule="evenodd" clip-rule="evenodd" d="M112.99 19.5751L113.089 19.3853L113.089 19.383C113.091 18.1081 113.595 16.9026 114.464 16.0115L101.592 9.26241C100.544 10.1034 100.042 11.5132 100.416 12.8843L100.448 12.9992L112.99 19.5751Z" fill="#B0714E"/>
<path d="M125.67 21.4893L113.029 14.8613C111.249 15.4211 110.231 17.287 110.722 19.0864L110.753 19.2012L123.395 25.8292L123.395 25.585C123.397 23.919 124.257 22.3715 125.67 21.4893Z" fill="#D98C62"/>
<path fill-rule="evenodd" clip-rule="evenodd" d="M123.295 25.777L123.395 25.5873L123.395 25.5849C123.397 24.31 123.9 23.1045 124.77 22.2134L111.897 15.4643C110.85 16.3054 110.347 17.7151 110.722 19.0862L110.753 19.2011L123.295 25.777Z" fill="#B0714E"/>
<path d="M135.976 27.6912L123.334 21.0632C121.555 21.623 120.536 23.4889 121.028 25.2883L121.059 25.4031L133.7 32.0311L133.701 31.7869C133.703 30.1209 134.563 28.5734 135.976 27.6912Z" fill="#D98C62"/>
<path fill-rule="evenodd" clip-rule="evenodd" d="M133.601 31.9789L133.701 31.7892L133.701 31.7868C133.702 30.5119 134.206 29.3064 135.076 28.4153L122.203 21.6662C121.156 22.5073 120.653 23.917 121.027 25.2881L121.059 25.403L133.601 31.9789Z" fill="#B0714E"/>
<path d="M146.282 33.8931L133.64 27.2651C131.861 27.8249 130.842 29.6908 131.333 31.4902L131.365 31.605L144.006 38.233L144.007 37.9888C144.009 36.3228 144.868 34.7753 146.282 33.8931Z" fill="#D98C62"/>
<path fill-rule="evenodd" clip-rule="evenodd" d="M143.907 38.1808L144.007 37.9911L144.007 37.9887C144.008 36.7138 144.512 35.5083 145.382 34.6172L132.509 27.8681C131.461 28.7092 130.959 30.1189 131.333 31.49L131.365 31.6049L143.907 38.1808Z" fill="#B0714E"/>
<path d="M156.587 40.0952L143.946 33.4673C142.167 34.027 141.148 35.8929 141.639 37.6923L141.671 37.8072L154.312 44.4351L154.312 44.191C154.315 42.525 155.174 40.9774 156.587 40.0952Z" fill="#D98C62"/>
<path fill-rule="evenodd" clip-rule="evenodd" d="M154.213 44.383L154.312 44.1932L154.312 44.1908C154.314 42.916 154.818 41.7105 155.687 40.8194L142.815 34.0703C141.767 34.9113 141.265 36.3211 141.639 37.6922L141.67 37.807L154.213 44.383Z" fill="#B0714E"/>
<path d="M166.893 46.2971L154.252 39.6692C152.472 40.2289 151.454 42.0948 151.945 43.8942L151.976 44.0091L164.618 50.637L164.618 50.3929C164.62 48.7269 165.48 47.1793 166.893 46.2971Z" fill="#D98C62"/>
<path fill-rule="evenodd" clip-rule="evenodd" d="M164.518 50.5849L164.618 50.3951L164.618 50.3928C164.62 49.1179 165.123 47.9124 165.993 47.0213L153.12 40.2722C152.073 41.1132 151.57 42.523 151.945 43.8941L151.976 44.009L164.518 50.5849Z" fill="#B0714E"/>
<path d="M176.893 52.0854L164.252 45.4575C162.472 46.0172 161.454 47.8832 161.945 49.6826L161.976 49.7974L174.618 56.4253L174.618 56.1812C174.62 54.5152 175.48 52.9677 176.893 52.0854Z" fill="#D98C62"/>
<path fill-rule="evenodd" clip-rule="evenodd" d="M174.518 56.3732L174.618 56.1834L174.618 56.1811C174.62 54.9062 175.123 53.7007 175.993 52.8096L163.12 46.0605C162.073 46.9015 161.57 48.3113 161.945 49.6824L161.976 49.7973L174.518 56.3732Z" fill="#B0714E"/>
<circle cx="90" cy="3" r="3" fill="#D98C62"/>
<path fill-rule="evenodd" clip-rule="evenodd" d="M86.9651 4.19936C87.0683 2.63601 88.369 1.3999 89.9585 1.3999C91.5484 1.3999 92.8494 2.63663 92.952 4.20054C92.8488 5.76389 91.548 7 89.9586 7C88.3687 7 87.0677 5.76327 86.9651 4.19936Z" fill="#B0714E"/>
</svg>
