<svg width="180" height="160" viewBox="0 0 180 160" fill="none" xmlns="http://www.w3.org/2000/svg">
<rect width="180" height="160" fill="#FFE99B"/>
<mask id="mask0_57_778" style="mask-type:alpha" maskUnits="userSpaceOnUse" x="0" y="0" width="180" height="160">
<rect width="180" height="160" fill="#FFE99B"/>
</mask>
<g mask="url(#mask0_57_778)">
<mask id="mask1_57_778" style="mask-type:alpha" maskUnits="userSpaceOnUse" x="0" y="0" width="270" height="160">
<rect width="270" height="159.649" fill="#FFE99B"/>
</mask>
<g mask="url(#mask1_57_778)">
<path d="M15.4452 63.5C15.4452 61.567 17.174 60 19.3065 60H34.7517C36.8842 60 38.613 61.567 38.613 63.5C38.613 65.433 36.8842 67 34.7517 67H19.3065C17.174 67 15.4452 65.433 15.4452 63.5Z" fill="#E0CA92"/>
<path d="M4.41296 56.5C4.41296 54.567 6.14172 53 8.27425 53H23.7194C25.8519 53 27.5807 54.567 27.5807 56.5C27.5807 58.433 25.8519 60 23.7194 60H8.27425C6.14172 60 4.41296 58.433 4.41296 56.5Z" fill="#E0CA92"/>
<path d="M27.5807 56.5C27.5807 54.567 29.3095 53 31.442 53H46.8872C49.0197 53 50.7484 54.567 50.7484 56.5C50.7484 58.433 49.0197 60 46.8872 60H31.442C29.3095 60 27.5807 58.433 27.5807 56.5Z" fill="#E0CA92"/>
<path d="M107.013 83.5C107.013 85.433 108.742 87 110.874 87H126.319C128.452 87 130.181 85.433 130.181 83.5C130.181 81.567 128.452 80 126.319 80H110.874C108.742 80 107.013 81.567 107.013 83.5Z" fill="#E0CA92"/>
<path d="M95.9806 90.5C95.9806 92.433 97.7093 94 99.8419 94H115.287C117.42 94 119.148 92.433 119.148 90.5C119.148 88.567 117.42 87 115.287 87H99.8419C97.7094 87 95.9806 88.567 95.9806 90.5Z" fill="#E0CA92"/>
<path d="M119.148 90.5C119.148 92.433 120.877 94 123.01 94H138.455C140.587 94 142.316 92.433 142.316 90.5C142.316 88.567 140.587 87 138.455 87H123.01C120.877 87 119.148 88.567 119.148 90.5Z" fill="#E0CA92"/>
<path d="M132.387 133.5C132.387 135.433 134.116 137 136.248 137H151.694C153.826 137 155.555 135.433 155.555 133.5C155.555 131.567 153.826 130 151.694 130H136.248C134.116 130 132.387 131.567 132.387 133.5Z" fill="#E0CA92"/>
<path d="M121.355 140.5C121.355 142.433 123.084 144 125.216 144H140.661C142.794 144 144.523 142.433 144.523 140.5C144.523 138.567 142.794 137 140.661 137H125.216C123.084 137 121.355 138.567 121.355 140.5Z" fill="#E0CA92"/>
<path d="M144.523 140.5C144.523 142.433 146.251 144 148.384 144H163.829C165.962 144 167.69 142.433 167.69 140.5C167.69 138.567 165.962 137 163.829 137H148.384C146.251 137 144.523 138.567 144.523 140.5Z" fill="#E0CA92"/>
<path d="M65.0904 122.5C65.0904 120.567 66.8191 119 68.9517 119H84.3968C86.5293 119 88.2581 120.567 88.2581 122.5C88.2581 124.433 86.5293 126 84.3968 126H68.9517C66.8191 126 65.0904 124.433 65.0904 122.5Z" fill="#E0CA92"/>
<path d="M54.0581 115.5C54.0581 113.567 55.7869 112 57.9194 112H73.3646C75.4971 112 77.2258 113.567 77.2258 115.5C77.2258 117.433 75.4971 119 73.3646 119H57.9194C55.7869 119 54.0581 117.433 54.0581 115.5Z" fill="#E0CA92"/>
<path d="M187.548 57.5C187.548 55.567 185.82 54 183.687 54H168.242C166.109 54 164.381 55.567 164.381 57.5C164.381 59.433 166.109 61 168.242 61H183.687C185.82 61 187.548 59.433 187.548 57.5Z" fill="#E0CA92"/>
<path d="M198.581 50.5C198.581 48.567 196.852 47 194.719 47H179.274C177.142 47 175.413 48.567 175.413 50.5C175.413 52.433 177.142 54 179.274 54H194.719C196.852 54 198.581 52.433 198.581 50.5Z" fill="#E0CA92"/>
<rect x="-5.51611" y="73" width="23.1677" height="7" rx="3.5" fill="#E0CA92"/>
<path d="M14.342 148.5C14.342 146.567 16.0707 145 18.2032 145H33.6484C35.7809 145 37.5097 146.567 37.5097 148.5C37.5097 150.433 35.7809 152 33.6484 152H18.2032C16.0707 152 14.342 150.433 14.342 148.5Z" fill="#E0CA92"/>
<path d="M3.30969 141.5C3.30969 139.567 5.03845 138 7.17098 138H22.6161C24.7487 138 26.4774 139.567 26.4774 141.5C26.4774 143.433 24.7487 145 22.6161 145H7.17098C5.03845 145 3.30969 143.433 3.30969 141.5Z" fill="#E0CA92"/>
<path d="M26.4774 141.5C26.4774 139.567 28.2062 138 30.3387 138H45.7839C47.9164 138 49.6452 139.567 49.6452 141.5C49.6452 143.433 47.9164 145 45.7839 145H30.3387C28.2062 145 26.4774 143.433 26.4774 141.5Z" fill="#E0CA92"/>
<path d="M48.542 155.5C48.542 153.567 50.2707 152 52.4032 152H67.8484C69.9809 152 71.7097 153.567 71.7097 155.5C71.7097 157.433 69.9809 159 67.8484 159H52.4032C50.2707 159 48.542 157.433 48.542 155.5Z" fill="#E0CA92"/>
<path d="M37.5097 148.5C37.5097 146.567 39.2385 145 41.371 145H56.8161C58.9487 145 60.6774 146.567 60.6774 148.5C60.6774 150.433 58.9487 152 56.8161 152H41.371C39.2385 152 37.5097 150.433 37.5097 148.5Z" fill="#E0CA92"/>
<path d="M60.6774 148.5C60.6774 146.567 62.4062 145 64.5387 145H79.9839C82.1164 145 83.8452 146.567 83.8452 148.5C83.8452 150.433 82.1164 152 79.9839 152H64.5387C62.4062 152 60.6774 150.433 60.6774 148.5Z" fill="#E0CA92"/>
<path d="M14.342 134.5C14.342 132.567 16.0707 131 18.2032 131H33.6484C35.7809 131 37.5097 132.567 37.5097 134.5C37.5097 136.433 35.7809 138 33.6484 138H18.2032C16.0707 138 14.342 136.433 14.342 134.5Z" fill="#E0CA92"/>
<path d="M55.1613 12.5C55.1613 10.567 56.89 9 59.0226 9H74.4677C76.6003 9 78.329 10.567 78.329 12.5C78.329 14.433 76.6003 16 74.4677 16H59.0226C56.89 16 55.1613 14.433 55.1613 12.5Z" fill="#E0CA92"/>
<path d="M44.129 5.5C44.129 3.567 45.8578 2 47.9903 2H63.4355C65.568 2 67.2968 3.567 67.2968 5.5C67.2968 7.433 65.568 9 63.4355 9H47.9903C45.8578 9 44.129 7.433 44.129 5.5Z" fill="#E0CA92"/>
<path d="M67.2968 5.5C67.2968 3.567 69.0255 2 71.1581 2H86.6032C88.7358 2 90.4645 3.567 90.4645 5.5C90.4645 7.433 88.7358 9 86.6032 9H71.1581C69.0255 9 67.2968 7.433 67.2968 5.5Z" fill="#E0CA92"/>
<path d="M89.3613 19.5C89.3613 17.567 91.09 16 93.2226 16H108.668C110.8 16 112.529 17.567 112.529 19.5C112.529 21.433 110.8 23 108.668 23H93.2226C91.09 23 89.3613 21.433 89.3613 19.5Z" fill="#E0CA92"/>
<path d="M78.329 12.5C78.329 10.567 80.0578 9 82.1903 9H97.6355C99.768 9 101.497 10.567 101.497 12.5C101.497 14.433 99.768 16 97.6355 16H82.1903C80.0578 16 78.329 14.433 78.329 12.5Z" fill="#E0CA92"/>
<path d="M101.497 12.5C101.497 10.567 103.226 9 105.358 9H120.803C122.936 9 124.665 10.567 124.665 12.5C124.665 14.433 122.936 16 120.803 16H105.358C103.226 16 101.497 14.433 101.497 12.5Z" fill="#E0CA92"/>
<path d="M55.1613 -1.5C55.1613 -3.433 56.89 -5 59.0226 -5H74.4677C76.6003 -5 78.329 -3.433 78.329 -1.5C78.329 0.432997 76.6003 2 74.4677 2H59.0226C56.89 2 55.1613 0.432997 55.1613 -1.5Z" fill="#E0CA92"/>
</g>
</g>
</svg>
