<svg width="180" height="160" viewBox="0 0 180 160" fill="none" xmlns="http://www.w3.org/2000/svg">
<rect width="180" height="160" fill="#E4E0D5"/>
<mask id="mask0_106_4" style="mask-type:alpha" maskUnits="userSpaceOnUse" x="0" y="0" width="180" height="160">
<rect width="180" height="160" fill="#E4E0D5"/>
</mask>
<g mask="url(#mask0_106_4)">
<path d="M0 0C4.83333 7 19.7 20.2 40.5 17C66.5 13 70.2092 12.8766 72.5 17C75 21.5 61 51.5 68 55C73.6 57.8 76.6667 56.1667 77.5 55" stroke="#889A6B"/>
<path d="M71.2015 33.7978C71.2318 33.8213 71.2759 33.8057 71.282 33.7682C71.313 33.5774 71.3068 33.3823 71.2534 33.1844C71.0929 32.5898 70.573 32.0004 70.0252 31.5748C69.4775 31.1493 68.7778 30.7913 68.162 30.7828C67.937 30.7796 67.7294 30.8308 67.5378 30.9229C67.5272 30.928 67.5269 30.9431 67.5363 30.9504L68.2262 31.4864C68.3215 31.5604 68.3277 31.7118 68.2401 31.8245C68.1526 31.9372 68.0044 31.9686 67.9091 31.8946L67.2192 31.3586C67.1986 31.3426 67.1821 31.3229 67.1699 31.3009C67.1477 31.2608 67.0877 31.2337 67.0549 31.2649C66.8307 31.4779 66.6344 31.7452 66.4624 32.0325C66.4384 32.0727 66.4811 32.13 66.5262 32.1443C66.5472 32.1509 66.567 32.1611 66.5849 32.175L67.2749 32.711C67.3701 32.785 67.3764 32.9364 67.2888 33.0491C67.2012 33.1618 67.053 33.1932 66.9577 33.1192L66.2678 32.5832C66.237 32.5593 66.181 32.5584 66.1644 32.5931C66.0739 32.783 65.9923 32.9722 65.9187 33.152C65.8741 33.2611 65.8315 33.3737 65.7907 33.4891C65.785 33.5052 65.7924 33.523 65.8061 33.5336L66.496 34.0696C66.5912 34.1436 66.5975 34.295 66.5099 34.4077C66.4223 34.5204 66.2741 34.5518 66.1789 34.4778L65.6762 34.0873C65.647 34.0646 65.6045 34.0781 65.5946 34.1132C65.5033 34.4383 65.4237 34.7744 65.3533 35.1086C65.3493 35.128 65.3568 35.1483 65.3727 35.1606L65.7171 35.4282C65.8124 35.5022 65.8186 35.6536 65.731 35.7663C65.6435 35.879 65.4953 35.9104 65.4 35.8364L65.3033 35.7613C65.2724 35.7373 65.2273 35.754 65.2205 35.7922C65.14 36.2383 65.0739 36.6644 65.0161 37.0373C64.9865 37.2281 64.9591 37.405 64.933 37.5635C64.9135 37.6818 64.9009 37.8071 64.9543 37.9155C64.9929 37.994 65.0496 38.038 65.1352 38.0561C65.2535 38.081 65.3717 38.0378 65.4815 37.9897C65.6287 37.9252 65.7933 37.8549 65.9709 37.779C66.3179 37.6308 66.7144 37.4614 67.1268 37.2732C67.1621 37.2571 67.1672 37.2093 67.1362 37.1852L67.1248 37.1764C67.0296 37.1024 67.0233 36.951 67.1109 36.8383C67.1985 36.7255 67.3467 36.6942 67.4419 36.7682L67.7011 36.9695C67.717 36.9819 67.7385 36.9842 67.7564 36.9754C68.0628 36.8246 68.3687 36.6643 68.6611 36.4955C68.6928 36.4773 68.6953 36.4327 68.6661 36.41L68.2487 36.0857C68.1534 36.0117 68.1472 35.8604 68.2347 35.7476C68.3223 35.6349 68.4705 35.6035 68.5658 35.6775L69.1649 36.143C69.1828 36.1568 69.2074 36.1579 69.2259 36.1455C69.3246 36.0793 69.4204 36.0121 69.5124 35.9438C69.6708 35.8263 69.8364 35.6985 70.0004 35.5615C70.0255 35.5405 70.0243 35.5015 69.9981 35.4811L69.3725 34.9951C69.2772 34.9211 69.271 34.7698 69.3586 34.657C69.4461 34.5443 69.5944 34.5129 69.6896 34.5869L70.3795 35.1229C70.3805 35.1237 70.3815 35.1244 70.3824 35.1252C70.4091 35.1468 70.4499 35.1531 70.4737 35.129C70.6991 34.9005 70.9007 34.655 71.0484 34.3968C71.065 34.3678 71.048 34.331 71.0204 34.3114C71.0182 34.3098 71.016 34.3082 71.0138 34.3065L70.3238 33.7705C70.2286 33.6965 70.2224 33.5451 70.3099 33.4324C70.3975 33.3197 70.5457 33.2883 70.641 33.3623L71.2015 33.7978Z" fill="#9BAF7A"/>
<path d="M69.3614 31.7126C69.5201 31.4813 69.8432 31.4335 70.0678 31.6079C70.2925 31.7824 70.326 32.1074 70.1411 32.3183L66.4888 36.4862C66.4314 36.5517 66.3322 36.5606 66.2624 36.5064C66.1927 36.4522 66.1767 36.3539 66.226 36.2821L69.3614 31.7126Z" fill="#889A6B"/>
<path d="M68.299 44.8786C68.322 44.8673 68.3222 44.8295 68.2986 44.8091C68.179 44.7053 68.0475 44.6259 67.9028 44.5785C67.4682 44.4364 66.9507 44.55 66.5357 44.7536C66.1208 44.9573 65.7143 45.2971 65.5608 45.7279C65.5048 45.8853 65.489 46.0537 65.5044 46.2284C65.5052 46.2381 65.5152 46.2448 65.5223 46.2413L66.045 45.9848C66.1172 45.9494 66.2195 46.01 66.2736 46.1202C66.3277 46.2304 66.313 46.3484 66.2409 46.3839L65.7182 46.6404C65.7026 46.648 65.6855 46.6512 65.6679 46.6503C65.6358 46.6488 65.6034 46.6794 65.6163 46.716C65.7044 46.9656 65.8354 47.219 65.9855 47.4637C66.0065 47.4979 66.0549 47.4924 66.0753 47.4667C66.0847 47.4547 66.0963 47.4451 66.1099 47.4385L66.6325 47.182C66.7047 47.1465 66.807 47.2072 66.8611 47.3174C66.9152 47.4276 66.9005 47.5456 66.8284 47.581L66.3057 47.8375C66.2824 47.849 66.2683 47.8881 66.2875 47.9147C66.3922 48.0602 66.4987 48.199 66.6009 48.3281C66.6628 48.4065 66.7276 48.4849 66.7947 48.5632C66.8041 48.5741 66.8177 48.5766 66.828 48.5715L67.3507 48.315C67.4229 48.2796 67.5252 48.3402 67.5793 48.4504C67.6334 48.5606 67.6187 48.6786 67.5466 48.7141L67.1657 48.9009C67.1436 48.9118 67.1424 48.9476 67.1634 48.9697C67.3581 49.1737 67.5629 49.3742 67.7686 49.5674C67.7806 49.5786 67.7959 49.582 67.808 49.5761L68.0689 49.448C68.1411 49.4126 68.2434 49.4732 68.2975 49.5834C68.3516 49.6936 68.3369 49.8117 68.2647 49.8471L68.1915 49.883C68.1681 49.8945 68.1684 49.9335 68.1922 49.9548C68.4701 50.2031 68.7381 50.4328 68.9727 50.6337C69.0927 50.7366 69.2039 50.8319 69.3033 50.9184C69.3774 50.9829 69.4579 51.0457 69.5429 51.0546C69.6045 51.061 69.6474 51.0399 69.68 50.9873C69.725 50.9146 69.7246 50.8126 69.7189 50.7145C69.7112 50.5829 69.7039 50.4366 69.696 50.2787C69.6805 49.9703 69.6628 49.6178 69.6364 49.246C69.6341 49.2142 69.6035 49.1901 69.5801 49.2016L69.5714 49.2058C69.4993 49.2412 69.3969 49.1806 69.3428 49.0704C69.2888 48.9602 69.3034 48.8422 69.3756 48.8068L69.572 48.7104C69.584 48.7045 69.5907 48.6903 69.5891 48.674C69.5622 48.393 69.5289 48.1083 69.4866 47.8296C69.482 47.7994 69.4529 47.7785 69.4308 47.7893L69.1146 47.9445C69.0424 47.98 68.9401 47.9193 68.886 47.8091C68.8319 47.6989 68.8466 47.5809 68.9187 47.5455L69.3726 47.3227C69.3862 47.3161 69.3928 47.2992 69.3889 47.2808C69.3685 47.1827 69.3467 47.0863 69.3233 46.992C69.2831 46.8299 69.2377 46.658 69.1858 46.4836C69.1778 46.4568 69.1516 46.4409 69.1317 46.4506L68.6577 46.6832C68.5856 46.7187 68.4832 46.658 68.4292 46.5478C68.3751 46.4376 68.3897 46.3196 68.4619 46.2842L68.9846 46.0277C68.9853 46.0273 68.9861 46.027 68.9868 46.0266C69.0076 46.0171 69.0216 45.991 69.0113 45.9639C68.9131 45.7067 68.7979 45.459 68.6614 45.244C68.646 45.2198 68.6175 45.2159 68.5978 45.227C68.5962 45.2279 68.5945 45.2288 68.5929 45.2296L68.0702 45.4861C67.9981 45.5215 67.8957 45.4609 67.8416 45.3507C67.7876 45.2405 67.8022 45.1224 67.8744 45.087L68.299 44.8786Z" fill="#9BAF7A"/>
<path d="M66.4682 45.2811C66.3522 45.0698 66.3979 44.8213 66.568 44.7378C66.7382 44.6543 66.9627 44.7702 67.0589 44.9912L68.959 49.3581C68.9889 49.4267 68.9709 49.5005 68.9181 49.5265C68.8653 49.5524 68.7959 49.5214 68.7599 49.4558L66.4682 45.2811Z" fill="#889A6B"/>
<path d="M71.7688 56.9897C71.7999 56.9978 71.8271 56.9773 71.8181 56.9515C71.7722 56.8206 71.6971 56.6956 71.5858 56.58C71.2516 56.2325 70.6514 55.973 70.0899 55.8264C69.5283 55.6797 68.878 55.6126 68.4165 55.7522C68.2479 55.8032 68.1118 55.8853 68.0024 55.9901C67.9964 55.9959 68.0016 56.0058 68.0112 56.0083L68.7185 56.193C68.8162 56.2186 68.8755 56.3152 68.851 56.4089C68.8266 56.5026 68.7276 56.5578 68.6299 56.5323L67.9226 56.3476C67.9015 56.3421 67.8821 56.3332 67.865 56.3218C67.834 56.301 67.7796 56.2976 67.7664 56.3256C67.6765 56.5165 67.6269 56.7359 67.6027 56.9627C67.5993 56.9944 67.6518 57.0214 67.6906 57.0201C67.7085 57.0194 67.727 57.0214 67.7454 57.0262L68.4527 57.2109C68.5504 57.2364 68.6097 57.333 68.5852 57.4267C68.5607 57.5204 68.4617 57.5757 68.3641 57.5502L67.6568 57.3654C67.6252 57.3572 67.5831 57.3698 67.5833 57.3962C67.5845 57.5406 67.5921 57.6825 67.6023 57.8164C67.6085 57.8976 67.6175 57.9806 67.6289 58.0649C67.6304 58.0767 67.6423 58.0865 67.6564 58.0902L68.3637 58.2749C68.4613 58.3004 68.5207 58.3971 68.4962 58.4907C68.4717 58.5844 68.3727 58.6397 68.2751 58.6142L67.7597 58.4796C67.7298 58.4718 67.703 58.4905 67.7083 58.5157C67.7578 58.7478 67.82 58.9844 67.8884 59.2175C67.8923 59.2311 67.9053 59.2425 67.9216 59.2467L68.2747 59.3389C68.3723 59.3645 68.4317 59.4611 68.4072 59.5548C68.3827 59.6485 68.2837 59.7037 68.1861 59.6782L68.087 59.6524C68.0553 59.6441 68.0278 59.6655 68.0364 59.6919C68.1377 60 68.2425 60.2917 68.3342 60.5469C68.3811 60.6776 68.4246 60.7987 68.4624 60.9076C68.4907 60.9888 68.5265 61.073 68.6054 61.1306C68.6626 61.1724 68.7207 61.1876 68.791 61.1791C68.888 61.1674 68.9604 61.1115 69.0248 61.0545C69.1111 60.978 69.2082 60.8936 69.313 60.8026C69.5178 60.6247 69.7518 60.4215 69.9909 60.2023C70.0113 60.1836 69.9978 60.1514 69.9661 60.1431L69.9544 60.1401C69.8567 60.1146 69.7974 60.0179 69.8219 59.9242C69.8463 59.8305 69.9453 59.7753 70.043 59.8008L70.3087 59.8702C70.325 59.8744 70.3418 59.8709 70.352 59.861C70.5256 59.691 70.6955 59.5151 70.8522 59.3367C70.8692 59.3175 70.8549 59.288 70.825 59.2802L70.397 59.1684C70.2994 59.1429 70.2401 59.0463 70.2645 58.9526C70.289 58.8589 70.388 58.8036 70.4857 58.8291L71.0999 58.9895C71.1182 58.9943 71.1369 58.9892 71.1462 58.9768C71.1958 58.9106 71.2428 58.8445 71.2866 58.7785C71.3621 58.6651 71.4393 58.5432 71.5118 58.4158C71.523 58.3963 71.508 58.3713 71.4811 58.3643L70.8397 58.1967C70.742 58.1712 70.6827 58.0746 70.7072 57.9809C70.7317 57.8872 70.8307 57.832 70.9283 57.8575L71.6356 58.0422C71.6366 58.0425 71.6376 58.0427 71.6386 58.043C71.6663 58.0507 71.699 58.0452 71.708 58.024C71.7932 57.8227 71.8546 57.6161 71.8713 57.414C71.8731 57.3913 71.8472 57.3714 71.8196 57.3653C71.8173 57.3648 71.8151 57.3642 71.8129 57.3636L71.1055 57.1789C71.0079 57.1534 70.9485 57.0568 70.973 56.9631C70.9975 56.8694 71.0965 56.8141 71.1942 56.8396L71.7688 56.9897Z" fill="#9BAF7A"/>
<path d="M69.6454 56.0721C69.68 55.8848 69.9033 55.7776 70.1336 55.8378C70.3639 55.8979 70.5062 56.1006 70.4448 56.2809L69.2315 59.8427C69.2125 59.8987 69.1417 59.9278 69.0702 59.9092C68.9988 59.8905 68.9513 59.8305 68.9621 59.7724L69.6454 56.0721Z" fill="#889A6B"/>
<path d="M75.9631 53.592C75.9407 53.5637 75.8953 53.5695 75.88 53.6035C75.8024 53.7762 75.7585 53.9605 75.7581 54.1571C75.7571 54.7473 76.0945 55.4054 76.4997 55.9152C76.9049 56.4249 77.4698 56.9021 78.0451 57.0343C78.2553 57.0826 78.463 57.0765 78.6661 57.0288C78.6773 57.0261 78.6815 57.012 78.6746 57.0033L78.1642 56.3611C78.0937 56.2725 78.1264 56.1292 78.2373 56.0411C78.3481 55.953 78.4951 55.9534 78.5656 56.0421L79.076 56.6842C79.0912 56.7034 79.1016 56.7252 79.1075 56.7484C79.1181 56.7905 79.1674 56.828 79.2061 56.8053C79.4706 56.6506 79.7228 56.4395 79.9573 56.2046C79.9901 56.1717 79.9647 56.1093 79.9259 56.0868C79.908 56.0764 79.892 56.0628 79.8787 56.0461L79.3683 55.404C79.2979 55.3153 79.3306 55.172 79.4414 55.0839C79.5523 54.9958 79.6993 54.9963 79.7697 55.0849L80.2801 55.7271C80.3029 55.7557 80.3553 55.7679 80.3796 55.7386C80.5129 55.5788 80.6377 55.4177 80.7525 55.2638C80.8221 55.1704 80.8907 55.0734 80.9583 54.9734C80.9678 54.9593 80.9655 54.9412 80.9553 54.9284L80.4449 54.2863C80.3744 54.1977 80.4072 54.0544 80.518 53.9663C80.6289 53.8782 80.7758 53.8786 80.8463 53.9673L81.2182 54.4351C81.2398 54.4623 81.2831 54.4583 81.3013 54.4272C81.4697 54.1407 81.63 53.8414 81.7812 53.542C81.79 53.5245 81.7881 53.504 81.7763 53.4892L81.5215 53.1686C81.451 53.08 81.4837 52.9367 81.5946 52.8486C81.7054 52.7605 81.8524 52.7609 81.9229 52.8496L81.9944 52.9396C82.0173 52.9684 82.0638 52.9617 82.08 52.9273C82.2691 52.5249 82.4396 52.1384 82.5889 51.8002C82.6652 51.6271 82.736 51.4667 82.8009 51.3232C82.8493 51.2162 82.8931 51.1011 82.8706 50.9887C82.8544 50.9072 82.8124 50.8544 82.7368 50.8202C82.6322 50.773 82.5103 50.7897 82.3951 50.8127C82.2407 50.8435 82.0684 50.8763 81.8825 50.9116C81.5193 50.9807 81.1044 51.0596 80.6697 51.153C80.6325 51.161 80.6155 51.2049 80.6384 51.2337L80.6469 51.2443C80.7174 51.3329 80.6846 51.4762 80.5738 51.5643C80.4629 51.6524 80.316 51.652 80.2455 51.5633L80.0537 51.3221C80.042 51.3073 80.0224 51.3008 80.0034 51.3054C79.6777 51.3851 79.3499 51.4737 79.0327 51.5731C78.9984 51.5839 78.9847 51.6252 79.0063 51.6524L79.3151 52.0409C79.3856 52.1295 79.3529 52.2728 79.242 52.3609C79.1312 52.449 78.9842 52.4486 78.9137 52.3599L78.4705 51.8023C78.4573 51.7857 78.4345 51.7797 78.4139 51.7877C78.3045 51.8298 78.1976 51.8736 78.0939 51.9191C77.9154 51.9974 77.7275 52.0839 77.5389 52.1793C77.51 52.194 77.5011 52.2308 77.5205 52.2552L77.9833 52.8375C78.0538 52.9261 78.0211 53.0694 77.9102 53.1575C77.7994 53.2456 77.6524 53.2452 77.5819 53.1565L77.0715 52.5144C77.0708 52.5135 77.0701 52.5126 77.0694 52.5117C77.0499 52.486 77.0132 52.4718 76.9848 52.4897C76.7152 52.6586 76.4636 52.8483 76.2593 53.0607C76.2364 53.0846 76.2429 53.1226 76.2638 53.1465C76.2655 53.1485 76.2672 53.1505 76.2688 53.1525L76.7792 53.7946C76.8496 53.8833 76.8169 54.0266 76.7061 54.1147C76.5952 54.2028 76.4482 54.2023 76.3778 54.1137L75.9631 53.592Z" fill="#9BAF7A"/>
<path d="M77.1573 55.9198C76.9495 56.1048 76.6343 56.0845 76.4682 55.8755C76.302 55.6664 76.3534 55.3548 76.5805 55.1941L81.0674 52.0202C81.1379 51.9703 81.2333 51.982 81.2849 52.0469C81.3364 52.1118 81.3264 52.2074 81.2619 52.2648L77.1573 55.9198Z" fill="#889A6B"/>
<path d="M76.1896 19.5594C76.2451 19.5527 76.2745 19.4907 76.2424 19.4451C76.0792 19.213 75.8732 19.0148 75.6156 18.8624C74.8418 18.4046 73.7023 18.3238 72.702 18.4437C71.7018 18.5636 70.6137 18.9114 69.97 19.539C69.7348 19.7683 69.573 20.0366 69.4696 20.3312C69.4639 20.3475 69.4791 20.3637 69.4962 20.3616L70.7562 20.2106C70.9301 20.1898 71.0914 20.3421 71.1164 20.5509C71.1415 20.7596 71.0207 20.9457 70.8468 20.9666L69.5868 21.1176C69.5492 21.1221 69.5121 21.1185 69.4769 21.108C69.413 21.0889 69.3234 21.1224 69.3214 21.1891C69.3083 21.6443 69.3793 22.1276 69.4959 22.6067C69.5122 22.6737 69.6148 22.6897 69.676 22.658C69.7044 22.6433 69.7353 22.6335 69.768 22.6296L71.028 22.4785C71.2019 22.4577 71.3633 22.61 71.3883 22.8188C71.4133 23.0275 71.2926 23.2137 71.1186 23.2345L69.8586 23.3855C69.8024 23.3923 69.7437 23.4493 69.7621 23.5028C69.863 23.7956 69.9725 24.0784 70.0806 24.343C70.1462 24.5036 70.2174 24.6657 70.2934 24.8288C70.3041 24.8516 70.3298 24.8627 70.3548 24.8597L71.6148 24.7087C71.7888 24.6878 71.9501 24.8402 71.9751 25.0489C72.0001 25.2577 71.8794 25.4438 71.7054 25.4647L70.7874 25.5747C70.7341 25.5811 70.704 25.6392 70.7298 25.6863C70.9683 26.1216 71.23 26.5564 71.4994 26.9796C71.5151 27.0043 71.5436 27.0177 71.5726 27.0142L72.2016 26.9389C72.3756 26.918 72.5369 27.0703 72.5619 27.2791C72.5869 27.4878 72.4662 27.674 72.2922 27.6948L72.1157 27.716C72.0592 27.7228 72.0299 27.7869 72.0618 27.834C72.4354 28.3851 72.8032 28.9004 73.125 29.3512C73.2898 29.582 73.4425 29.7959 73.5778 29.9891C73.6787 30.1333 73.7939 30.2778 73.9598 30.3363C74.08 30.3786 74.1835 30.3662 74.2903 30.2967C74.4377 30.2006 74.5155 30.033 74.5795 29.8691C74.6653 29.6493 74.7631 29.4054 74.8687 29.1422C75.0749 28.628 75.3105 28.0405 75.5432 27.4167C75.5631 27.3634 75.5195 27.308 75.4629 27.3148L75.4421 27.3173C75.2681 27.3381 75.1068 27.1858 75.0818 26.9771C75.0568 26.7683 75.1775 26.5822 75.3515 26.5613L75.8248 26.5046C75.8539 26.5011 75.8784 26.4813 75.8878 26.4536C76.0495 25.9787 76.2011 25.4944 76.3299 25.015C76.3439 24.9632 76.3009 24.9139 76.2476 24.9202L75.4853 25.0116C75.3113 25.0325 75.15 24.8801 75.125 24.6714C75.1 24.4626 75.2207 24.2765 75.3947 24.2556L76.4888 24.1245C76.5214 24.1206 76.5478 24.0963 76.5542 24.0641C76.5884 23.8926 76.6183 23.7231 76.6434 23.5563C76.6865 23.2695 76.7265 22.9641 76.7555 22.651C76.7599 22.603 76.7188 22.5633 76.6709 22.569L75.5284 22.706C75.3545 22.7268 75.1932 22.5745 75.1681 22.3657C75.1431 22.157 75.2639 21.9708 75.4378 21.95L76.6978 21.799C76.6995 21.7987 76.7013 21.7986 76.7031 21.7984C76.7527 21.7934 76.8013 21.7579 76.8012 21.708C76.7999 21.2353 76.7565 20.7694 76.6447 20.346C76.6321 20.2984 76.577 20.2773 76.5284 20.2853C76.5245 20.286 76.5205 20.2865 76.5165 20.287L75.2566 20.438C75.0826 20.4589 74.9213 20.3066 74.8963 20.0978C74.8713 19.8891 74.992 19.7029 75.166 19.6821L76.1896 19.5594Z" fill="#9BAF7A"/>
<path d="M72.1584 19.2744C72.0854 18.8678 72.3697 18.4836 72.7799 18.4344C73.1901 18.3852 73.5571 18.6914 73.5823 19.1038L74.0801 27.2509C74.0879 27.3789 73.9945 27.4908 73.8672 27.5061C73.7399 27.5213 73.6227 27.4346 73.6001 27.3084L72.1584 19.2744Z" fill="#889A6B"/>
<path d="M53.304 15.9999C53.3375 15.9959 53.3566 15.9697 53.3384 15.9516C53.2456 15.8596 53.1264 15.7825 52.9751 15.7256C52.5207 15.5545 51.838 15.5473 51.2343 15.6197C50.6306 15.692 49.969 15.8604 49.5678 16.1339C49.4213 16.2339 49.3179 16.3483 49.2491 16.4722C49.2453 16.479 49.254 16.4853 49.2643 16.4841L50.0248 16.393C50.1298 16.3804 50.2232 16.4395 50.2334 16.525C50.2437 16.6106 50.1669 16.6901 50.0619 16.7027L49.3015 16.7938C49.2787 16.7965 49.2566 16.7959 49.2356 16.7924C49.1977 16.786 49.1431 16.8019 49.1404 16.8294C49.1221 17.0174 49.1536 17.2151 49.2127 17.4101C49.221 17.4373 49.2823 17.4416 49.3198 17.4271C49.3372 17.4204 49.3559 17.4156 49.3757 17.4133L50.1361 17.3221C50.2411 17.3095 50.3345 17.3687 50.3448 17.4542C50.355 17.5397 50.2782 17.6193 50.1733 17.6318L49.4128 17.723C49.3789 17.7271 49.3423 17.7519 49.3522 17.7736C49.4061 17.892 49.4653 18.0061 49.5242 18.1128C49.56 18.1775 49.5991 18.2428 49.641 18.3083C49.6469 18.3175 49.6621 18.3214 49.6772 18.3196L50.4376 18.2285C50.5426 18.2159 50.636 18.275 50.6463 18.3606C50.6565 18.4461 50.5797 18.5256 50.4747 18.5382L49.9207 18.6046C49.8885 18.6085 49.8691 18.6331 49.8835 18.652C50.0168 18.826 50.1641 18.9994 50.3163 19.1678C50.3251 19.1776 50.3419 19.1825 50.3594 19.1804L50.7391 19.1349C50.8441 19.1223 50.9375 19.1814 50.9477 19.2669C50.958 19.3525 50.8812 19.432 50.7762 19.4446L50.6697 19.4574C50.6356 19.4614 50.6165 19.4886 50.6346 19.5073C50.8464 19.726 51.0555 19.9301 51.2386 20.1087C51.3323 20.2001 51.4191 20.2848 51.496 20.3614C51.5533 20.4186 51.6192 20.4755 51.7176 20.4958C51.7888 20.5106 51.8513 20.5031 51.917 20.4719C52.0078 20.4289 52.0583 20.358 52.1006 20.289C52.1571 20.1963 52.2215 20.0935 52.2909 19.9825C52.4266 19.7657 52.5816 19.518 52.7357 19.2554C52.7489 19.233 52.7239 19.2111 52.6898 19.2152L52.6772 19.2167C52.5722 19.2293 52.4788 19.1702 52.4686 19.0847C52.4583 18.9991 52.5351 18.9196 52.6401 18.907L52.9258 18.8728C52.9433 18.8707 52.9585 18.8619 52.9648 18.8503C53.0728 18.6507 53.175 18.4475 53.2634 18.2469C53.2729 18.2251 53.2482 18.2058 53.2161 18.2096L52.756 18.2648C52.651 18.2774 52.5576 18.2182 52.5473 18.1327C52.5371 18.0472 52.6139 17.9677 52.7189 17.9551L53.3792 17.8759C53.3989 17.8736 53.4153 17.8629 53.4199 17.8495C53.4443 17.778 53.4662 17.7074 53.4851 17.638C53.5176 17.5187 53.5486 17.3919 53.5732 17.2621C53.577 17.2422 53.5532 17.2267 53.5242 17.2302L52.8347 17.3128C52.7297 17.3254 52.6363 17.2663 52.626 17.1808C52.6158 17.0952 52.6926 17.0157 52.7976 17.0031L53.558 16.912C53.5591 16.9119 53.5602 16.9117 53.5612 16.9116C53.5912 16.9084 53.6211 16.8927 53.6222 16.8721C53.6322 16.6772 53.6169 16.486 53.5594 16.3139C53.5529 16.2946 53.5203 16.2872 53.4909 16.2916C53.4885 16.2919 53.4862 16.2923 53.4838 16.2925L52.7233 16.3837C52.6184 16.3963 52.5249 16.3371 52.5147 16.2516C52.5044 16.1661 52.5812 16.0865 52.6862 16.074L53.304 15.9999Z" fill="#9BAF7A"/>
<path d="M50.8886 15.9747C50.8541 15.8087 51.0337 15.6437 51.2813 15.614C51.5288 15.5843 51.7423 15.7022 51.748 15.8717L51.8605 19.2205C51.8622 19.2732 51.8036 19.3214 51.7267 19.3307C51.6499 19.3399 51.5815 19.3068 51.5708 19.2553L50.8886 15.9747Z" fill="#889A6B"/>
<path d="M55.304 14.769C55.3375 14.773 55.3566 14.7993 55.3384 14.8174C55.2456 14.9094 55.1264 14.9864 54.9751 15.0433C54.5207 15.2144 53.838 15.2216 53.2343 15.1493C52.6306 15.0769 51.969 14.9086 51.5678 14.635C51.4213 14.535 51.3179 14.4207 51.2491 14.2968C51.2453 14.2899 51.254 14.2836 51.2643 14.2848L52.0248 14.376C52.1298 14.3885 52.2232 14.3294 52.2334 14.2439C52.2437 14.1584 52.1669 14.0788 52.0619 14.0662L51.3015 13.9751C51.2787 13.9724 51.2566 13.973 51.2356 13.9765C51.1977 13.983 51.1431 13.9671 51.1404 13.9395C51.1221 13.7515 51.1536 13.5538 51.2127 13.3588C51.221 13.3316 51.2823 13.3274 51.3198 13.3418C51.3372 13.3485 51.3559 13.3533 51.3757 13.3557L52.1361 13.4468C52.2411 13.4594 52.3345 13.4003 52.3448 13.3147C52.355 13.2292 52.2782 13.1497 52.1733 13.1371L51.4128 13.0459C51.3789 13.0419 51.3423 13.017 51.3522 12.9954C51.4061 12.8769 51.4653 12.7628 51.5242 12.6561C51.56 12.5914 51.5991 12.5261 51.641 12.4606C51.6469 12.4514 51.6621 12.4475 51.6772 12.4493L52.4376 12.5404C52.5426 12.553 52.636 12.4939 52.6463 12.4084C52.6565 12.3228 52.5797 12.2433 52.4747 12.2307L51.9207 12.1643C51.8885 12.1604 51.8691 12.1358 51.8835 12.117C52.0168 11.9429 52.1641 11.7696 52.3163 11.6012C52.3251 11.5913 52.3419 11.5865 52.3594 11.5886L52.7391 11.6341C52.8441 11.6466 52.9375 11.5875 52.9477 11.502C52.958 11.4165 52.8812 11.3369 52.7762 11.3243L52.6697 11.3116C52.6356 11.3075 52.6165 11.2804 52.6346 11.2616C52.8464 11.0429 53.0555 10.8388 53.2386 10.6602C53.3323 10.5688 53.4191 10.4841 53.496 10.4075C53.5533 10.3504 53.6192 10.2934 53.7176 10.2731C53.7888 10.2584 53.8513 10.2658 53.917 10.297C54.0078 10.34 54.0583 10.4109 54.1006 10.48C54.1571 10.5726 54.2215 10.6754 54.2909 10.7864C54.4266 11.0032 54.5816 11.2509 54.7357 11.5135C54.7489 11.5359 54.7239 11.5578 54.6898 11.5537L54.6772 11.5522C54.5722 11.5396 54.4788 11.5987 54.4686 11.6843C54.4583 11.7698 54.5351 11.8493 54.6401 11.8619L54.9258 11.8962C54.9433 11.8983 54.9585 11.907 54.9648 11.9186C55.0728 12.1182 55.175 12.3214 55.2634 12.5221C55.2729 12.5438 55.2482 12.5631 55.2161 12.5593L54.756 12.5041C54.651 12.4916 54.5576 12.5507 54.5473 12.6362C54.5371 12.7217 54.6139 12.8013 54.7189 12.8139L55.3792 12.893C55.3989 12.8954 55.4153 12.906 55.4199 12.9194C55.4443 12.9909 55.4662 13.0615 55.4851 13.1309C55.5176 13.2502 55.5486 13.3771 55.5732 13.5068C55.577 13.5268 55.5532 13.5422 55.5242 13.5387L54.8347 13.4561C54.7297 13.4435 54.6363 13.5026 54.626 13.5882C54.6158 13.6737 54.6926 13.7532 54.7976 13.7658L55.558 13.8569C55.5591 13.8571 55.5602 13.8572 55.5612 13.8573C55.5912 13.8605 55.6211 13.8763 55.6222 13.8968C55.6322 14.0917 55.6169 14.2829 55.5594 14.455C55.5529 14.4743 55.5203 14.4818 55.4909 14.4773C55.4885 14.477 55.4862 14.4767 55.4838 14.4764L54.7233 14.3852C54.6184 14.3727 54.5249 14.4318 54.5147 14.5173C54.5044 14.6028 54.5812 14.6824 54.6862 14.695L55.304 14.769Z" fill="#9BAF7A"/>
<path d="M52.8886 14.7942C52.8541 14.9602 53.0337 15.1252 53.2813 15.1549C53.5288 15.1846 53.7423 15.0667 53.748 14.8972L53.8605 11.5484C53.8622 11.4958 53.8036 11.4475 53.7267 11.4383C53.6499 11.4291 53.5815 11.4621 53.5708 11.5137L52.8886 14.7942Z" fill="#889A6B"/>
<path d="M24.2431 14.9347C24.2814 14.9155 24.2913 14.8725 24.2602 14.8559C24.1023 14.7713 23.9199 14.7177 23.709 14.7042C23.0756 14.6638 22.2493 14.9371 21.5581 15.284C20.8669 15.631 20.1541 16.1303 19.808 16.6624C19.6815 16.8568 19.6144 17.0525 19.5936 17.2467C19.5924 17.2575 19.6061 17.2623 19.618 17.2564L20.4886 16.8194C20.6088 16.759 20.7511 16.7994 20.8063 16.9095C20.8616 17.0196 20.809 17.1578 20.6888 17.2181L19.8181 17.6552C19.7921 17.6682 19.7651 17.6766 19.7381 17.6805C19.6891 17.6876 19.6313 17.7315 19.6419 17.7695C19.7142 18.0285 19.8514 18.2798 20.0205 18.516C20.0441 18.549 20.1201 18.5292 20.158 18.4943C20.1756 18.4782 20.1958 18.464 20.2185 18.4527L21.0891 18.0157C21.2093 17.9553 21.3516 17.9957 21.4068 18.1058C21.4621 18.2159 21.4095 18.3541 21.2893 18.4144L20.4186 18.8514C20.3798 18.8709 20.3482 18.9194 20.3709 18.9442C20.4953 19.0803 20.624 19.2083 20.7485 19.3266C20.8241 19.3983 20.9039 19.4693 20.9873 19.5395C20.999 19.5494 21.0193 19.5484 21.0366 19.5397L21.9072 19.1027C22.0275 19.0424 22.1697 19.0827 22.225 19.1928C22.2803 19.3029 22.2276 19.4411 22.1074 19.5015L21.4731 19.8199C21.4363 19.8384 21.4252 19.8794 21.452 19.8986C21.7 20.0761 21.9645 20.2468 22.2324 20.4089C22.248 20.4184 22.2707 20.418 22.2907 20.4079L22.7254 20.1897C22.8456 20.1294 22.9879 20.1697 23.0431 20.2799C23.0984 20.39 23.0458 20.5282 22.9256 20.5885L22.8036 20.6497C22.7645 20.6693 22.7551 20.7135 22.7863 20.731C23.1514 20.9357 23.5058 21.1219 23.8161 21.2849C23.9748 21.3683 24.122 21.4456 24.253 21.5161C24.3508 21.5688 24.4588 21.6176 24.5876 21.6041C24.6808 21.5942 24.7523 21.5583 24.8159 21.4894C24.9037 21.3943 24.9291 21.2786 24.9452 21.1687C24.967 21.0214 24.9929 20.8572 25.0209 20.6801C25.0756 20.334 25.1381 19.9385 25.192 19.5235C25.1966 19.488 25.1556 19.4691 25.1165 19.4887L25.1021 19.4959C24.9819 19.5563 24.8396 19.5159 24.7844 19.4058C24.7291 19.2957 24.7817 19.1575 24.9019 19.0972L25.229 18.933C25.2491 18.9229 25.263 18.905 25.2647 18.8868C25.2948 18.5751 25.3159 18.2611 25.3217 17.9561C25.3223 17.9231 25.2829 17.9075 25.246 17.926L24.7193 18.1904C24.5991 18.2507 24.4568 18.2104 24.4015 18.1003C24.3463 17.9902 24.3989 17.852 24.5191 17.7916L25.2752 17.4121C25.2977 17.4008 25.3121 17.3798 25.3109 17.3599C25.3045 17.2542 25.2954 17.1507 25.2834 17.0502C25.2626 16.8772 25.2364 16.6946 25.2009 16.5109C25.1954 16.4827 25.159 16.472 25.1259 16.4886L24.3364 16.8849C24.2162 16.9452 24.074 16.9048 24.0187 16.7947C23.9634 16.6846 24.0161 16.5464 24.1363 16.4861L25.0069 16.0491C25.0081 16.0485 25.0093 16.0478 25.0106 16.0472C25.0451 16.0306 25.0733 15.9971 25.0642 15.9691C24.9785 15.7043 24.864 15.4551 24.7084 15.2488C24.6909 15.2256 24.6478 15.2292 24.6147 15.2473C24.612 15.2487 24.6093 15.2502 24.6065 15.2515L23.7359 15.6886C23.6157 15.7489 23.4735 15.7086 23.4182 15.5984C23.3629 15.4883 23.4156 15.3501 23.5358 15.2898L24.2431 14.9347Z" fill="#9BAF7A"/>
<path d="M21.3198 15.9021C21.1948 15.6944 21.3284 15.3993 21.6119 15.257C21.8953 15.1148 22.2117 15.1839 22.3037 15.4082L24.1197 19.8395C24.1483 19.9092 24.1018 19.998 24.0139 20.0422C23.9259 20.0864 23.8269 20.0705 23.7881 20.006L21.3198 15.9021Z" fill="#889A6B"/>
<path d="M5.92693 4.29927C5.90576 4.26201 5.86228 4.25435 5.84726 4.28624C5.77093 4.4483 5.7268 4.63317 5.72423 4.84448C5.71648 5.47915 6.03194 6.29032 6.41403 6.96273C6.79611 7.63512 7.33148 8.32129 7.88066 8.63951C8.08134 8.7558 8.28028 8.81279 8.47528 8.82355C8.48605 8.82414 8.49021 8.8102 8.48366 8.79869L8.00239 7.95173C7.93594 7.83479 7.96891 7.69064 8.07604 7.62977C8.18316 7.5689 8.32387 7.61436 8.39032 7.7313L8.87159 8.57826C8.88597 8.60357 8.8957 8.63016 8.90102 8.6569C8.91068 8.70543 8.95748 8.7609 8.99483 8.74838C9.2498 8.66288 9.49368 8.51285 9.72085 8.33188C9.75261 8.30659 9.72897 8.23169 9.69216 8.19561C9.6751 8.17889 9.65996 8.15941 9.64744 8.13739L9.16617 7.29043C9.09972 7.17349 9.13269 7.02934 9.23982 6.96847C9.34694 6.9076 9.48765 6.95305 9.5541 7.06999L10.0354 7.91695C10.0568 7.95475 10.1068 7.98385 10.1305 7.95985C10.2599 7.82861 10.3812 7.69347 10.4929 7.56304C10.5606 7.48391 10.6274 7.40052 10.6933 7.31358C10.7025 7.3014 10.7005 7.28117 10.6909 7.26435L10.2096 6.41739C10.1432 6.30045 10.1762 6.1563 10.2833 6.09543C10.3904 6.03456 10.5311 6.08001 10.5976 6.19695L10.9482 6.81403C10.9686 6.84987 11.0101 6.85878 11.0279 6.831C11.1924 6.57421 11.3493 6.30129 11.4974 6.02542C11.506 6.00934 11.5045 5.9867 11.4934 5.96718L11.2531 5.54434C11.1866 5.4274 11.2196 5.28326 11.3267 5.22239C11.4339 5.16152 11.5746 5.20697 11.641 5.32391L11.7084 5.44256C11.73 5.48056 11.7746 5.48767 11.7905 5.4556C11.9762 5.08053 12.1439 4.71693 12.2906 4.39873C12.3657 4.23589 12.4353 4.08494 12.4991 3.95042C12.5466 3.85006 12.5899 3.73972 12.5697 3.61183C12.555 3.51925 12.5155 3.44965 12.4434 3.3897C12.3439 3.3069 12.227 3.28754 12.1164 3.27703C11.9682 3.26293 11.8029 3.24547 11.6246 3.22664C11.2761 3.18985 10.8779 3.14781 10.4607 3.11532C10.425 3.11255 10.4083 3.15452 10.4299 3.19251L10.4378 3.20651C10.5043 3.32345 10.4713 3.4676 10.3642 3.52847C10.2571 3.58934 10.1164 3.54389 10.0499 3.42695L9.86911 3.10876C9.85802 3.08924 9.83938 3.07629 9.82115 3.07548C9.50834 3.06151 9.19358 3.0566 8.88877 3.0665C8.85579 3.06757 8.84219 3.1078 8.86256 3.14364L9.15374 3.65608C9.22019 3.77302 9.18722 3.91716 9.0801 3.97803C8.97297 4.0389 8.83227 3.99345 8.76582 3.87651L8.34788 3.14101C8.33543 3.1191 8.31367 3.10573 8.29391 3.10796C8.18864 3.11984 8.0858 3.13424 7.98597 3.15145C7.81427 3.18105 7.63335 3.21667 7.4517 3.26161C7.42382 3.2685 7.41493 3.30542 7.43323 3.33762L7.86964 4.10564C7.93609 4.22258 7.90312 4.36672 7.796 4.42759C7.68888 4.48847 7.54817 4.44301 7.48172 4.32607L7.00044 3.47911C6.99976 3.47792 6.99909 3.47672 6.99843 3.47551C6.98003 3.44194 6.9451 3.41549 6.91766 3.42596C6.65761 3.5252 6.4146 3.65236 6.21661 3.81839C6.19436 3.83705 6.20015 3.87989 6.21992 3.91207C6.22151 3.91467 6.22307 3.91731 6.22459 3.91998L6.70586 4.76694C6.77231 4.88388 6.73934 5.02803 6.63222 5.0889C6.52509 5.14977 6.38439 5.10431 6.31794 4.98737L5.92693 4.29927Z" fill="#9BAF7A"/>
<path d="M7.04351 7.16892C6.8425 7.30438 6.54098 7.18614 6.3843 6.9104C6.22761 6.63466 6.28036 6.3151 6.49962 6.21175L10.8316 4.16988C10.8996 4.13779 10.9908 4.17959 11.0394 4.26519C11.0881 4.35078 11.0773 4.45049 11.0149 4.49254L7.04351 7.16892Z" fill="#889A6B"/>
<path d="M33.5 17.5C29.9082 20.9814 23.2778 29.6902 27.2971 38.6739C32.3211 49.9034 32.7764 51.586 30.6032 53.3811C28.2314 55.3401 9.2514 54.3058 7.92903 58.153C6.87113 61.2308 8.14258 62.3462 8.91053 62.5192" stroke="#889A6B"/>
<path d="M22.691 56.9727C22.7232 56.9803 22.751 56.9466 22.7414 56.9103C22.6925 56.7257 22.6135 56.5538 22.4973 56.4004C22.1482 55.9397 21.5261 55.6436 20.9452 55.5067C20.3643 55.3698 19.6928 55.361 19.2187 55.6277C19.0454 55.7252 18.9061 55.8635 18.7946 56.0313C18.7884 56.0405 18.7939 56.0542 18.8039 56.0566L19.5356 56.229C19.6366 56.2528 19.699 56.3856 19.6749 56.5255C19.6509 56.6654 19.5494 56.7596 19.4484 56.7358L18.7167 56.5633C18.6948 56.5582 18.6748 56.5479 18.657 56.5336C18.6248 56.5076 18.5686 56.51 18.5554 56.5526C18.465 56.8432 18.4166 57.17 18.3944 57.5038C18.3913 57.5505 18.4458 57.5828 18.4858 57.5754C18.5043 57.572 18.5234 57.5723 18.5424 57.5768L19.2741 57.7493C19.3751 57.7731 19.4375 57.9058 19.4134 58.0457C19.3894 58.1857 19.2879 58.2798 19.1869 58.256L18.4552 58.0835C18.4226 58.0759 18.3793 58.1 18.3799 58.1385C18.3829 58.3488 18.3925 58.5546 18.4047 58.7483C18.4121 58.8659 18.4224 58.9856 18.4351 59.1071C18.4369 59.1241 18.4493 59.1367 18.4638 59.1401L19.1955 59.3126C19.2965 59.3364 19.3589 59.4691 19.3349 59.6091C19.3108 59.749 19.2094 59.8431 19.1083 59.8193L18.5752 59.6937C18.5443 59.6864 18.5169 59.7174 18.5227 59.7533C18.5766 60.0849 18.6436 60.4213 18.717 60.7518C18.7213 60.7711 18.7348 60.7859 18.7516 60.7898L19.1169 60.8759C19.218 60.8997 19.2804 61.0325 19.2563 61.1724C19.2322 61.3123 19.1308 61.4065 19.0298 61.3827L18.9273 61.3585C18.8944 61.3508 18.8663 61.3858 18.8756 61.423C18.9839 61.8583 19.0956 62.2692 19.1933 62.6288C19.2433 62.8128 19.2896 62.9834 19.33 63.137C19.3601 63.2515 19.3982 63.3693 19.4803 63.4426C19.5397 63.4956 19.5998 63.5098 19.6722 63.4878C19.7721 63.4574 19.8461 63.366 19.9118 63.2741C19.9998 63.1508 20.0989 63.0145 20.2059 62.8674C20.4149 62.5801 20.6537 62.2518 20.8974 61.8995C20.9183 61.8694 20.904 61.8244 20.8711 61.8166L20.859 61.8138C20.758 61.79 20.6956 61.6572 20.7197 61.5173C20.7438 61.3774 20.8452 61.2832 20.9462 61.307L21.2211 61.3718C21.238 61.3758 21.2553 61.3683 21.2656 61.3524C21.4426 61.0809 21.6156 60.8011 21.7749 60.5197C21.7922 60.4893 21.7771 60.4483 21.7462 60.441L21.3035 60.3367C21.2024 60.3129 21.1401 60.1801 21.1641 60.0402C21.1882 59.9002 21.2896 59.8061 21.3906 59.8299L22.0261 59.9797C22.045 59.9841 22.0642 59.9741 22.0736 59.9547C22.124 59.8515 22.1716 59.7486 22.216 59.6465C22.2924 59.4708 22.3705 59.2825 22.4437 59.0869C22.455 59.0569 22.4392 59.0225 22.4114 59.0159L21.7479 58.8596C21.6469 58.8357 21.5845 58.703 21.6086 58.5631C21.6326 58.4231 21.734 58.329 21.8351 58.3528L22.5668 58.5253C22.5678 58.5255 22.5688 58.5258 22.5699 58.526C22.5985 58.5335 22.6321 58.5209 22.6411 58.4888C22.7266 58.1838 22.7873 57.8741 22.802 57.5772C22.8036 57.5439 22.7767 57.5185 22.748 57.5132C22.7457 57.5128 22.7434 57.5123 22.7411 57.5118L22.0094 57.3393C21.9084 57.3155 21.846 57.1828 21.8701 57.0429C21.8941 56.9029 21.9955 56.8088 22.0966 56.8326L22.691 56.9727Z" fill="#9BAF7A"/>
<path d="M20.49 55.9258C20.5233 55.648 20.7522 55.4612 20.9904 55.5173C21.2287 55.5735 21.378 55.8494 21.3169 56.1207L20.1099 61.4793C20.0909 61.5635 20.0184 61.6156 19.9444 61.5982C19.8705 61.5808 19.8208 61.4998 19.8312 61.4136L20.49 55.9258Z" fill="#889A6B"/>
<path d="M30.7455 43.886C30.7923 43.8971 30.8328 43.8474 30.8189 43.794C30.7485 43.5225 30.6342 43.2698 30.4658 43.0445C29.9602 42.3678 29.0571 41.9348 28.2133 41.7359C27.3696 41.5371 26.3937 41.5273 25.7037 41.9221C25.4516 42.0664 25.2486 42.2706 25.0861 42.5182C25.0771 42.5319 25.085 42.552 25.0995 42.5554L26.1623 42.8059C26.309 42.8405 26.3992 43.0356 26.3638 43.2417C26.3283 43.4478 26.1806 43.5869 26.0339 43.5523L24.9711 43.3018C24.9393 43.2943 24.9102 43.2793 24.8844 43.2583C24.8377 43.2202 24.756 43.2241 24.7366 43.2868C24.6044 43.715 24.5329 44.1963 24.4995 44.6879C24.4949 44.7566 24.5739 44.8038 24.6321 44.7929C24.659 44.7878 24.6867 44.7881 24.7143 44.7946L25.7771 45.0451C25.9238 45.0797 26.0141 45.2748 25.9786 45.4809C25.9432 45.687 25.7955 45.8261 25.6487 45.7915L24.5859 45.541C24.5385 45.5299 24.4756 45.5656 24.4763 45.6223C24.4799 45.9319 24.4932 46.2348 24.5103 46.5199C24.5206 46.6929 24.5351 46.8692 24.5533 47.0479C24.5558 47.0729 24.5737 47.0915 24.5948 47.0965L25.6576 47.3469C25.8044 47.3815 25.8946 47.5766 25.8591 47.7828C25.8237 47.9889 25.676 48.1279 25.5292 48.0933L24.7549 47.9108C24.7099 47.9002 24.67 47.946 24.6783 47.9988C24.7556 48.4868 24.8518 48.9817 24.9574 49.4679C24.9636 49.4963 24.9831 49.5179 25.0075 49.5237L25.5381 49.6488C25.6849 49.6833 25.7751 49.8785 25.7396 50.0846C25.7042 50.2907 25.5565 50.4297 25.4097 50.3952L25.2609 50.3601C25.2132 50.3488 25.1722 50.4006 25.1856 50.4553C25.3415 51.0956 25.5024 51.7 25.6431 52.2289C25.7152 52.4996 25.782 52.7505 25.8401 52.9764C25.8835 53.1449 25.9384 53.3181 26.0575 53.4256C26.1437 53.5034 26.231 53.524 26.3362 53.4913C26.4815 53.4461 26.5894 53.3112 26.6851 53.1755C26.8135 52.9936 26.958 52.7925 27.1139 52.5755C27.4186 52.1516 27.7668 51.6672 28.1222 51.1474C28.1526 51.103 28.132 51.0367 28.0843 51.0255L28.0667 51.0213C27.92 50.9868 27.8298 50.7916 27.8652 50.5855C27.9007 50.3794 28.0484 50.2404 28.1951 50.2749L28.5944 50.369C28.6189 50.3748 28.6441 50.3637 28.6591 50.3403C28.9172 49.9398 29.1696 49.5271 29.4022 49.1121C29.4273 49.0672 29.4056 49.0069 29.3606 48.9963L28.7176 48.8448C28.5709 48.8102 28.4807 48.615 28.5161 48.4089C28.5516 48.2028 28.6993 48.0638 28.846 48.0984L29.769 48.3159C29.7964 48.3223 29.8244 48.3075 29.8382 48.2789C29.9117 48.1267 29.9812 47.9751 30.0461 47.8245C30.1578 47.5655 30.2718 47.2879 30.379 46.9996C30.3954 46.9554 30.3726 46.9048 30.3322 46.8953L29.3685 46.6682C29.2218 46.6336 29.1315 46.4385 29.167 46.2323C29.2024 46.0262 29.3501 45.8872 29.4969 45.9218L30.5597 46.1722C30.5612 46.1726 30.5627 46.173 30.5642 46.1733C30.6058 46.1842 30.6547 46.1656 30.6679 46.1182C30.7931 45.6688 30.8823 45.2127 30.9047 44.7755C30.9072 44.7264 30.8681 44.6891 30.8265 44.6815C30.8232 44.6809 30.8198 44.6802 30.8165 44.6794L29.7537 44.429C29.6069 44.3944 29.5167 44.1993 29.5522 43.9931C29.5876 43.787 29.7353 43.648 29.8821 43.6826L30.7455 43.886Z" fill="#9BAF7A"/>
<path d="M27.5503 42.355C27.5997 41.946 27.933 41.6699 28.279 41.7514C28.625 41.833 28.8411 42.2385 28.7514 42.6381L26.9792 50.5324C26.9513 50.6565 26.8457 50.7336 26.7383 50.7083C26.6309 50.6829 26.5589 50.564 26.5743 50.437L27.5503 42.355Z" fill="#889A6B"/>
<path d="M25.2439 25.8574C25.2251 25.8319 25.2383 25.7894 25.2688 25.7797C25.4239 25.7303 25.5821 25.7149 25.7421 25.7429C26.2227 25.8269 26.6951 26.244 27.0343 26.7046C27.3734 27.1652 27.6561 27.7737 27.6561 28.3424C27.6561 28.5502 27.6123 28.7478 27.5355 28.935C27.5312 28.9453 27.5189 28.9473 27.5131 28.9394L27.086 28.3593C27.027 28.2792 26.9043 28.2898 26.8118 28.383C26.7194 28.4763 26.6923 28.6168 26.7513 28.6969L27.1784 29.277C27.1912 29.2944 27.2069 29.3075 27.2247 29.3164C27.257 29.3326 27.2783 29.3851 27.2526 29.4189C27.0773 29.6493 26.8583 29.8599 26.6233 30.0502C26.5904 30.0768 26.5444 30.0435 26.5333 30.0032C26.5282 29.9846 26.5201 29.9674 26.509 29.9523L26.0819 29.3721C26.0229 29.292 25.9002 29.3027 25.8077 29.3959C25.7153 29.4892 25.6882 29.6297 25.7472 29.7098L26.1743 30.2899C26.1934 30.3158 26.1935 30.3676 26.1651 30.3867C26.0101 30.491 25.8557 30.587 25.709 30.6746C25.62 30.7277 25.5282 30.7793 25.4341 30.8295C25.4209 30.8365 25.4066 30.8317 25.3981 30.8201L24.971 30.24C24.912 30.1599 24.7893 30.1705 24.6969 30.2638C24.6044 30.357 24.5773 30.4975 24.6363 30.5776L24.9475 31.0003C24.9656 31.0249 24.9542 31.0657 24.9255 31.0786C24.6608 31.1983 24.3873 31.3084 24.1154 31.4097C24.0995 31.4156 24.0832 31.4109 24.0734 31.3975L23.8601 31.1079C23.8011 31.0278 23.6784 31.0384 23.586 31.1316C23.4935 31.2249 23.4664 31.3654 23.5254 31.4455L23.5852 31.5268C23.6044 31.5528 23.5903 31.5963 23.5593 31.6068C23.1964 31.7296 22.85 31.8369 22.5469 31.9308C22.3917 31.9789 22.2479 32.0234 22.119 32.0648C22.0228 32.0956 21.9211 32.1209 21.8337 32.0832C21.7705 32.056 21.7354 32.0083 21.7217 31.9311C21.7028 31.8244 21.7392 31.7103 21.7794 31.6035C21.8334 31.4604 21.8922 31.3005 21.9558 31.1279C22.0799 30.7909 22.2217 30.4057 22.379 30.0038C22.3925 29.9694 22.4313 29.9595 22.4505 29.9855L22.4575 29.9951C22.5165 30.0752 22.6392 30.0646 22.7317 29.9713C22.8241 29.8781 22.8512 29.7376 22.7922 29.6575L22.6318 29.4395C22.6219 29.4262 22.6203 29.4066 22.6276 29.3891C22.7534 29.0892 22.8868 28.7888 23.027 28.5C23.0422 28.4688 23.0783 28.4616 23.0964 28.4862L23.3549 28.8372C23.4138 28.9173 23.5366 28.9067 23.629 28.8134C23.7214 28.7202 23.7485 28.5797 23.6896 28.4996L23.3186 27.9958C23.3076 27.9808 23.307 27.9581 23.3173 27.9396C23.3721 27.8411 23.4277 27.7453 23.4841 27.6527C23.5811 27.4935 23.6867 27.3263 23.7996 27.1599C23.817 27.1343 23.8486 27.1311 23.8648 27.1532L24.2522 27.6793C24.3111 27.7594 24.4339 27.7487 24.5263 27.6555C24.6187 27.5623 24.6458 27.4217 24.5869 27.3416L24.1597 26.7615C24.1591 26.7607 24.1585 26.7599 24.1579 26.7591C24.1407 26.7367 24.136 26.6997 24.1558 26.675C24.3437 26.4417 24.5452 26.2286 24.7562 26.064C24.7799 26.0455 24.8096 26.0572 24.8252 26.0807C24.8265 26.0826 24.8278 26.0844 24.8291 26.0862L25.2563 26.6664C25.3152 26.7465 25.438 26.7358 25.5304 26.6426C25.6228 26.5494 25.6499 26.4089 25.591 26.3288L25.2439 25.8574Z" fill="#9BAF7A"/>
<path d="M26.9151 27.3336C27.1045 27.1617 27.1469 26.8576 27.0079 26.6687C26.8688 26.4799 26.6056 26.4841 26.4324 26.678L23.0103 30.5087C22.9566 30.5688 22.9483 30.6617 22.9915 30.7203C23.0346 30.7789 23.1143 30.783 23.1731 30.7297L26.9151 27.3336Z" fill="#889A6B"/>
<path d="M33.225 51.8997C33.2544 51.8742 33.2565 51.8301 33.2279 51.819C33.0827 51.7624 32.9214 51.7406 32.7419 51.7631C32.2027 51.8308 31.5466 52.2403 31.015 52.6995C30.4833 53.1587 29.9556 53.7718 29.7413 54.3548C29.663 54.5679 29.6349 54.7722 29.6455 54.9671C29.6461 54.9779 29.6583 54.9803 29.6675 54.9725L30.3371 54.3941C30.4296 54.3142 30.5552 54.3298 30.6177 54.429C30.6802 54.5281 30.6559 54.6732 30.5634 54.7531L29.8938 55.3315C29.8738 55.3488 29.8522 55.3616 29.8301 55.37C29.7899 55.3854 29.7476 55.4385 29.762 55.4741C29.8604 55.7171 30.0124 55.9414 30.1889 56.1455C30.2136 56.174 30.2747 56.1417 30.3016 56.1008C30.3141 56.0819 30.3291 56.0646 30.3465 56.0495L31.0161 55.4711C31.1086 55.3912 31.2342 55.4069 31.2967 55.506C31.3592 55.6051 31.3349 55.7502 31.2425 55.8301L30.5728 56.4085C30.5429 56.4343 30.5233 56.4874 30.5461 56.5081C30.6705 56.621 30.7975 56.7254 30.9194 56.8208C30.9934 56.8786 31.0709 56.9351 31.1514 56.9901C31.1626 56.9979 31.1796 56.9934 31.1929 56.982L31.8626 56.4035C31.955 56.3237 32.0806 56.3393 32.1431 56.4384C32.2056 56.5376 32.1814 56.6827 32.0889 56.7625L31.601 57.184C31.5727 57.2084 31.5693 57.2507 31.5947 57.2651C31.8292 57.398 32.0766 57.5214 32.3257 57.6357C32.3402 57.6423 32.3592 57.6381 32.3747 57.6247L32.709 57.336C32.8014 57.2561 32.9271 57.2717 32.9896 57.3709C33.0521 57.47 33.0278 57.6151 32.9353 57.695L32.8415 57.776C32.8115 57.802 32.81 57.8471 32.8388 57.8591C33.1758 57.9989 33.5012 58.1222 33.786 58.2302C33.9318 58.2854 34.0669 58.3366 34.1875 58.3839C34.2774 58.4192 34.3754 58.449 34.4819 58.4138C34.5589 58.3883 34.6139 58.3408 34.6575 58.2621C34.7176 58.1534 34.7222 58.0351 34.7199 57.924C34.7168 57.7752 34.7149 57.609 34.7127 57.4297C34.7086 57.0793 34.7039 56.6789 34.6891 56.2608C34.6879 56.225 34.6506 56.2134 34.6205 56.2394L34.6095 56.2489C34.517 56.3288 34.3914 56.3132 34.3289 56.214C34.2664 56.1149 34.2907 55.9698 34.3831 55.8899L34.6347 55.6726C34.6501 55.6593 34.6592 55.6392 34.6581 55.621C34.6382 55.3088 34.6104 54.9957 34.5711 54.6942C34.5669 54.6616 34.5314 54.6528 34.503 54.6773L34.0979 55.0273C34.0054 55.1072 33.8798 55.0915 33.8173 54.9924C33.7548 54.8932 33.7791 54.7481 33.8715 54.6683L34.4531 54.166C34.4704 54.151 34.4795 54.1278 34.4756 54.1085C34.4549 54.0053 34.4322 53.9049 34.4075 53.8079C34.365 53.6409 34.3164 53.4655 34.2599 53.2904C34.2512 53.2636 34.219 53.2591 34.1935 53.2811L33.5863 53.8056C33.4938 53.8855 33.3682 53.8699 33.3057 53.7707C33.2432 53.6716 33.2675 53.5265 33.3599 53.4466L34.0296 52.8682C34.0305 52.8674 34.0315 52.8666 34.0324 52.8658C34.059 52.8435 34.0779 52.8057 34.0663 52.7797C33.9557 52.5333 33.8232 52.3071 33.6623 52.1302C33.6442 52.1103 33.6084 52.1212 33.5831 52.1446C33.5811 52.1465 33.579 52.1484 33.5769 52.1502L32.9072 52.7286C32.8148 52.8085 32.6892 52.7928 32.6267 52.6937C32.5642 52.5946 32.5884 52.4494 32.6809 52.3696L33.225 51.8997Z" fill="#9BAF7A"/>
<path d="M30.9039 53.349C30.7686 53.1655 30.8383 52.8521 31.0563 52.6638C31.2744 52.4755 31.5508 52.4899 31.6607 52.6953L33.8322 56.7542C33.8663 56.818 33.8401 56.9135 33.7724 56.9719C33.7047 57.0304 33.6191 57.0316 33.5771 56.9746L30.9039 53.349Z" fill="#889A6B"/>
<path d="M6.62868 60.985C6.62311 61.0217 6.65535 61.0532 6.68839 61.0422C6.85632 60.986 7.01124 60.8956 7.14748 60.7629C7.55668 60.3644 7.80207 59.6553 7.9026 58.9936C8.00313 58.3318 7.98161 57.5673 7.7149 57.028C7.61743 56.831 7.48385 56.6727 7.32429 56.5462C7.31548 56.5392 7.30309 56.5455 7.30137 56.5568L7.17475 57.3904C7.15726 57.5055 7.03769 57.5768 6.90768 57.5498C6.77767 57.5227 6.68645 57.4075 6.70393 57.2924L6.83056 56.4588C6.83434 56.4339 6.84291 56.4111 6.85533 56.3908C6.87788 56.354 6.87313 56.2901 6.83332 56.2751C6.56154 56.173 6.25829 56.1186 5.94967 56.0942C5.90653 56.0908 5.87918 56.1529 5.88771 56.1984C5.89166 56.2195 5.89222 56.2412 5.88893 56.2629L5.7623 57.0964C5.74482 57.2115 5.62525 57.2829 5.49524 57.2558C5.36523 57.2287 5.274 57.1135 5.29149 56.9984L5.41811 56.1649C5.42376 56.1277 5.39959 56.0785 5.36416 56.0792C5.17048 56.0832 4.98129 56.0947 4.80327 56.109C4.69528 56.1177 4.58537 56.1297 4.47404 56.1445C4.45845 56.1466 4.44734 56.1607 4.44483 56.1773L4.3182 57.0108C4.30072 57.1259 4.18115 57.1973 4.05114 57.1702C3.92113 57.1432 3.8299 57.0279 3.84739 56.9128L3.93964 56.3055C3.945 56.2702 3.91523 56.2391 3.88242 56.2458C3.57916 56.3081 3.27217 56.3852 2.97081 56.4696C2.95325 56.4745 2.94023 56.4899 2.93732 56.5091L2.8741 56.9252C2.85662 57.0403 2.73705 57.1117 2.60704 57.0846C2.47703 57.0576 2.3858 56.9423 2.40329 56.8272L2.42102 56.7105C2.42671 56.6731 2.39315 56.6412 2.35927 56.6518C1.96293 56.7762 1.58922 56.9044 1.26216 57.0165C1.09479 57.0739 0.939632 57.1271 0.799916 57.1734C0.695681 57.208 0.588817 57.2516 0.524924 57.3453C0.478668 57.4131 0.468263 57.4816 0.491714 57.5639C0.524108 57.6776 0.611582 57.7616 0.69924 57.8362C0.816744 57.9361 0.94673 58.0486 1.08695 58.17C1.36093 58.4073 1.67399 58.6783 2.00938 58.955C2.03806 58.9787 2.07895 58.9623 2.08463 58.9249L2.08672 58.9111C2.1042 58.796 2.22377 58.7247 2.35379 58.7517C2.4838 58.7788 2.57502 58.894 2.55754 59.0091L2.50996 59.3222C2.50705 59.3415 2.51474 59.3611 2.52977 59.3728C2.78781 59.5737 3.05325 59.7699 3.3196 59.9507C3.34842 59.9703 3.38554 59.9531 3.3909 59.9178L3.46751 59.4135C3.48499 59.2984 3.60456 59.227 3.73457 59.2541C3.86459 59.2811 3.95581 59.3964 3.93832 59.5115L3.82836 60.2353C3.82509 60.2569 3.83518 60.2787 3.85345 60.2894C3.9508 60.3465 4.04768 60.4004 4.14377 60.4508C4.30905 60.5373 4.486 60.6257 4.6695 60.7086C4.69766 60.7214 4.72866 60.7034 4.73347 60.6717L4.8483 59.9158C4.86578 59.8007 4.98535 59.7294 5.11536 59.7564C5.24537 59.7835 5.3366 59.8987 5.31911 60.0138L5.19249 60.8474L5.19192 60.8509C5.18633 60.8835 5.19935 60.9218 5.2294 60.9319C5.51423 61.0285 5.80224 61.0968 6.07648 61.1128C6.1073 61.1146 6.12953 61.0838 6.13309 61.0512C6.13337 61.0486 6.13372 61.046 6.13412 61.0433L6.26074 60.2098C6.27823 60.0947 6.39779 60.0233 6.52781 60.0504C6.65782 60.0775 6.74904 60.1927 6.73156 60.3078L6.62868 60.985Z" fill="#9BAF7A"/>
<path d="M7.49631 58.4763C7.75375 58.5135 7.936 58.7737 7.89478 59.0451C7.85355 59.3165 7.60584 59.4872 7.35321 59.4183L2.36188 58.0573C2.28346 58.0359 2.2322 57.9534 2.245 57.8692C2.2578 57.785 2.33021 57.7282 2.41012 57.7398L7.49631 58.4763Z" fill="#889A6B"/>
<path d="M11.4771 61.4322C11.5141 61.397 11.507 61.3288 11.463 61.3074C11.2391 61.1986 10.9998 61.1413 10.7442 61.1504C9.97648 61.1775 9.11706 61.7187 8.44978 62.355C7.78252 62.9913 7.15604 63.8671 6.97815 64.7417C6.91314 65.0613 6.91894 65.3745 6.97897 65.6787C6.98229 65.6956 7.00064 65.7012 7.01206 65.6903L7.85255 64.8887C7.9686 64.7781 8.15465 64.8205 8.26811 64.9835C8.38156 65.1465 8.37946 65.3683 8.26341 65.479L7.42292 66.2805C7.39781 66.3045 7.36941 66.3213 7.33917 66.3312C7.2843 66.3492 7.23497 66.4255 7.26405 66.4829C7.46252 66.8745 7.73462 67.2449 8.03774 67.5874C8.08012 67.6353 8.16153 67.5938 8.19122 67.5343C8.20498 67.5067 8.22279 67.4819 8.24465 67.4611L9.08513 66.6596C9.20118 66.5489 9.38723 66.5913 9.50069 66.7543C9.61414 66.9173 9.61204 67.1392 9.49599 67.2498L8.65551 68.0514C8.618 68.0871 8.60164 68.1667 8.63942 68.2021C8.84603 68.3955 9.05428 68.5759 9.25326 68.7417C9.37398 68.8423 9.49948 68.9411 9.6289 69.0383C9.64703 69.0519 9.67065 69.0475 9.68735 69.0315L10.5278 68.23C10.6439 68.1193 10.8299 68.1618 10.9434 68.3248C11.0568 68.4878 11.0547 68.7096 10.9387 68.8203L10.3263 69.4043C10.2908 69.4382 10.2956 69.5034 10.3357 69.5294C10.7068 69.7696 11.0944 69.997 11.4823 70.2105C11.5049 70.2229 11.5316 70.2191 11.5509 70.2006L11.9705 69.8005C12.0866 69.6898 12.2726 69.7322 12.3861 69.8952C12.4995 70.0582 12.4974 70.2801 12.3814 70.3907L12.2637 70.503C12.226 70.539 12.2341 70.6089 12.2787 70.6316C12.8002 70.8975 13.3011 71.136 13.7395 71.3448C13.9638 71.4517 14.1718 71.5507 14.3578 71.6417C14.4965 71.7095 14.6457 71.7699 14.7922 71.7306C14.8983 71.7021 14.9674 71.6363 15.0127 71.5204C15.0752 71.3603 15.0547 71.1771 15.026 71.0044C14.9875 70.7728 14.9467 70.5144 14.9026 70.2356C14.8165 69.6908 14.7181 69.0684 14.6011 68.4169C14.5911 68.3612 14.5342 68.3377 14.4965 68.3737L14.4826 68.3869C14.3666 68.4976 14.1805 68.4552 14.0671 68.2922C13.9536 68.1292 13.9557 67.9073 14.0718 67.7967L14.3875 67.4955C14.4069 67.4771 14.4155 67.4473 14.4097 67.4188C14.3094 66.931 14.1975 66.4407 14.0715 65.9668C14.0578 65.9155 14.0043 65.8969 13.9687 65.9308L13.4602 66.4157C13.3441 66.5264 13.1581 66.484 13.0446 66.321C12.9312 66.158 12.9333 65.9361 13.0493 65.8255L13.7792 65.1294C13.8009 65.1087 13.8089 65.074 13.7988 65.0434C13.7451 64.8802 13.6892 64.721 13.6311 64.5667C13.5312 64.3012 13.4205 64.0218 13.2984 63.7418C13.2796 63.6988 13.2318 63.6872 13.1999 63.7177L12.4377 64.4445C12.3217 64.5552 12.1356 64.5128 12.0222 64.3498C11.9087 64.1868 11.9108 63.9649 12.0268 63.8542L12.8673 63.0527C12.8685 63.0516 12.8697 63.0505 12.8709 63.0494C12.9045 63.0186 12.9233 62.9626 12.9004 62.9206C12.6835 62.5219 12.4392 62.1514 12.1651 61.8535C12.1342 61.82 12.0848 61.8317 12.0534 61.8644C12.0509 61.8671 12.0483 61.8696 12.0456 61.8722L11.2051 62.6737C11.0891 62.7844 10.903 62.7419 10.7896 62.5789C10.6761 62.4159 10.6782 62.1941 10.7943 62.0834L11.4771 61.4322Z" fill="#9BAF7A"/>
<path d="M8.43695 63.3477C8.19846 63.0431 8.22808 62.5664 8.50171 62.3055C8.77534 62.0446 9.18018 62.1069 9.3868 62.4419L13.4691 69.0594C13.5332 69.1633 13.517 69.3078 13.432 69.3888C13.3471 69.4698 13.2229 69.4592 13.1489 69.3647L8.43695 63.3477Z" fill="#889A6B"/>
<path d="M165.103 -0.89624C161.554 4.39048 156.296 17.5016 163.662 27.6524C172.87 40.3409 173.88 42.3202 171.65 45.1305C169.217 48.1975 145.338 51.8943 144.707 57.041C144.203 61.1584 146.078 62.2158 147.079 62.2298" stroke="#889A6B"/>
<path d="M162.756 51.6897C162.798 51.6907 162.824 51.6414 162.802 51.5986C162.693 51.3812 162.549 51.1876 162.364 51.0267C161.809 50.5437 160.957 50.3378 160.198 50.3196C159.44 50.3015 158.602 50.4669 158.083 50.9242C157.893 51.0914 157.756 51.3005 157.662 51.5391C157.657 51.5523 157.667 51.5679 157.68 51.5682L158.636 51.5911C158.767 51.5943 158.88 51.7435 158.887 51.9243C158.894 52.1052 158.793 52.2493 158.661 52.2462L157.705 52.2233C157.677 52.2226 157.649 52.2151 157.623 52.2019C157.576 52.1779 157.507 52.1957 157.502 52.2523C157.466 52.6386 157.492 53.0589 157.552 53.4812C157.561 53.5402 157.637 53.5662 157.685 53.5465C157.707 53.5374 157.731 53.5328 157.755 53.5334L158.711 53.5562C158.843 53.5594 158.955 53.7086 158.962 53.8895C158.969 54.0704 158.868 54.2144 158.736 54.2113L157.781 54.1884C157.738 54.1874 157.691 54.2289 157.701 54.2768C157.761 54.5383 157.827 54.7925 157.893 55.031C157.933 55.1757 157.977 55.3224 158.025 55.4705C158.032 55.4913 158.051 55.5038 158.07 55.5042L159.025 55.5271C159.157 55.5303 159.27 55.6795 159.277 55.8603C159.284 56.0412 159.182 56.1853 159.05 56.1821L158.354 56.1655C158.314 56.1645 158.288 56.2104 158.305 56.2536C158.459 56.6532 158.631 57.0552 158.809 57.4482C158.82 57.4711 158.84 57.486 158.862 57.4865L159.339 57.498C159.471 57.5011 159.584 57.6503 159.591 57.8312C159.598 58.0121 159.497 58.1562 159.365 58.153L159.231 58.1498C159.188 58.1488 159.162 58.1999 159.184 58.2439C159.433 58.7584 159.68 59.2417 159.896 59.6646C160.007 59.881 160.11 60.0816 160.2 60.2625C160.268 60.3975 160.346 60.5345 160.468 60.6043C160.556 60.6549 160.634 60.6567 160.718 60.6103C160.835 60.5462 160.903 60.4127 160.96 60.2807C161.037 60.1038 161.124 59.9077 161.219 59.6962C161.403 59.2828 161.613 58.8106 161.824 58.3071C161.842 58.264 161.812 58.2116 161.769 58.2105L161.753 58.2102C161.621 58.207 161.509 58.0578 161.502 57.8769C161.495 57.696 161.596 57.552 161.728 57.5551L162.087 57.5637C162.109 57.5642 162.129 57.5503 162.137 57.5279C162.286 57.1426 162.427 56.7482 162.551 56.3552C162.565 56.3127 162.535 56.2655 162.495 56.2646L161.917 56.2507C161.785 56.2476 161.672 56.0984 161.665 55.9175C161.658 55.7366 161.76 55.5925 161.892 55.5957L162.721 55.6155C162.746 55.6161 162.767 55.5986 162.774 55.5719C162.809 55.4299 162.842 55.2891 162.87 55.15C162.919 54.9108 162.966 54.6554 163.006 54.3921C163.012 54.3517 162.983 54.3129 162.947 54.312L162.08 54.2913C161.948 54.2882 161.836 54.139 161.829 53.9581C161.822 53.7772 161.923 53.6331 162.055 53.6363L163.011 53.6591C163.012 53.6592 163.013 53.6592 163.015 53.6593C163.052 53.661 163.091 53.6366 163.094 53.5941C163.119 53.1911 163.113 52.7889 163.053 52.4147C163.047 52.3726 163.006 52.348 162.969 52.349C162.966 52.3491 162.963 52.3491 162.96 52.349L162.005 52.3262C161.873 52.323 161.76 52.1738 161.753 51.9929C161.746 51.812 161.848 51.668 161.98 51.6711L162.756 51.6897Z" fill="#9BAF7A"/>
<path d="M159.743 50.962C159.711 50.6068 159.946 50.3136 160.257 50.321C160.568 50.3285 160.827 50.6335 160.822 50.9879L160.733 57.9898C160.732 58.0998 160.656 58.1839 160.559 58.1816C160.462 58.1793 160.379 58.0913 160.369 57.981L159.743 50.962Z" fill="#889A6B"/>
<path d="M169.325 33.2483C169.386 33.2498 169.423 33.1772 169.392 33.1142C169.233 32.794 169.024 32.5088 168.755 32.272C167.948 31.5607 166.711 31.2578 165.609 31.2315C164.507 31.2051 163.291 31.4492 162.537 32.1231C162.261 32.3694 162.063 32.6775 161.926 33.029C161.918 33.0484 161.933 33.0715 161.952 33.0719L163.34 33.1051C163.532 33.1097 163.695 33.3294 163.705 33.5958C163.716 33.8623 163.569 34.0746 163.377 34.07L161.989 34.0368C161.948 34.0358 161.908 34.0247 161.87 34.0053C161.802 33.97 161.701 33.9963 161.694 34.0796C161.642 34.6486 161.68 35.2677 161.768 35.8897C161.78 35.9766 161.891 36.0148 161.96 35.9859C161.993 35.9724 162.027 35.9656 162.063 35.9665L163.451 35.9997C163.643 36.0043 163.806 36.224 163.817 36.4904C163.827 36.7568 163.68 36.9691 163.488 36.9645L162.1 36.9313C162.038 36.9298 161.969 36.991 161.985 37.0615C162.071 37.4467 162.168 37.8211 162.264 38.1723C162.323 38.3855 162.387 38.6015 162.457 38.8197C162.466 38.8502 162.494 38.8687 162.521 38.8693L163.909 38.9025C164.101 38.9071 164.264 39.1268 164.275 39.3932C164.285 39.6597 164.138 39.872 163.946 39.8674L162.935 39.8432C162.876 39.8418 162.839 39.9094 162.863 39.973C163.088 40.5615 163.338 41.1535 163.597 41.7324C163.612 41.7661 163.642 41.788 163.674 41.7888L164.367 41.8054C164.559 41.81 164.722 42.0297 164.733 42.2961C164.743 42.5625 164.596 42.7748 164.404 42.7702L164.21 42.7656C164.147 42.7641 164.11 42.8394 164.141 42.9042C164.504 43.662 164.863 44.3736 165.178 44.9964C165.339 45.3152 165.488 45.6106 165.62 45.8771C165.718 46.0759 165.832 46.2776 166.008 46.3804C166.136 46.4548 166.25 46.4575 166.372 46.3891C166.541 46.2946 166.64 46.098 166.723 45.9035C166.835 45.6429 166.962 45.354 167.098 45.0423C167.365 44.4334 167.671 43.7377 167.976 42.9959C168.002 42.9325 167.959 42.8553 167.897 42.8538L167.874 42.8532C167.682 42.8487 167.518 42.6289 167.508 42.3625C167.498 42.0961 167.645 41.8838 167.837 41.8884L168.358 41.9009C168.39 41.9016 168.418 41.8811 168.431 41.848C168.646 41.2805 168.852 40.6994 169.031 40.1206C169.051 40.058 169.008 39.9885 168.949 39.9871L168.11 39.967C167.918 39.9624 167.754 39.7427 167.744 39.4763C167.734 39.2098 167.881 38.9976 168.073 39.0021L169.278 39.031C169.314 39.0318 169.345 39.006 169.354 38.9667C169.405 38.7575 169.452 38.5501 169.493 38.3452C169.564 37.9928 169.632 37.6165 169.69 37.2287C169.698 37.1692 169.657 37.1121 169.604 37.1109L168.345 37.0807C168.154 37.0762 167.99 36.8565 167.98 36.59C167.97 36.3236 168.117 36.1113 168.308 36.1159L169.696 36.1491C169.698 36.1491 169.7 36.1492 169.702 36.1493C169.757 36.1519 169.813 36.1158 169.817 36.0532C169.854 35.4597 169.845 34.8673 169.757 34.3161C169.747 34.2541 169.689 34.2179 169.635 34.2194C169.631 34.2195 169.627 34.2195 169.622 34.2194L168.234 34.1862C168.043 34.1816 167.879 33.9619 167.869 33.6955C167.859 33.429 168.006 33.2168 168.197 33.2213L169.325 33.2483Z" fill="#9BAF7A"/>
<path d="M164.947 32.178C164.901 31.6547 165.243 31.2227 165.695 31.2335C166.147 31.2443 166.522 31.6935 166.516 32.2155L166.392 42.5291C166.39 42.6911 166.279 42.8151 166.139 42.8117C165.999 42.8084 165.878 42.6789 165.864 42.5164L164.947 32.178Z" fill="#889A6B"/>
<path d="M157.731 12.2037C157.701 12.1768 157.706 12.1204 157.741 12.1002C157.921 11.9979 158.114 11.9371 158.32 11.93C158.94 11.9085 159.638 12.3047 160.181 12.7901C160.724 13.2756 161.236 13.9604 161.386 14.6698C161.441 14.929 161.438 15.1871 161.392 15.4408C161.389 15.4548 161.375 15.4605 161.365 15.4522L160.681 14.8407C160.587 14.7563 160.437 14.8018 160.347 14.9424C160.256 15.083 160.26 15.2654 160.354 15.3498L161.038 15.9613C161.059 15.9796 161.082 15.9918 161.106 15.9982C161.15 16.0099 161.191 16.0699 161.168 16.1187C161.01 16.4523 160.794 16.7726 160.551 17.0716C160.518 17.1135 160.452 17.084 160.427 17.0367C160.416 17.0148 160.401 16.9954 160.384 16.9795L159.699 16.3681C159.605 16.2836 159.455 16.3292 159.365 16.4698C159.274 16.6104 159.278 16.7928 159.372 16.8772L160.056 17.4887C160.087 17.516 160.101 17.5805 160.07 17.6118C159.905 17.7827 159.738 17.943 159.579 18.0908C159.482 18.1804 159.382 18.2689 159.278 18.3563C159.263 18.3685 159.244 18.3662 159.231 18.3541L158.546 17.7426C158.452 17.6581 158.302 17.7037 158.212 17.8443C158.121 17.9849 158.125 18.1673 158.219 18.2517L158.718 18.6972C158.747 18.7231 158.743 18.777 158.711 18.8007C158.413 19.0195 158.102 19.2287 157.791 19.4266C157.772 19.4381 157.751 19.4364 157.735 19.4224L157.394 19.1171C157.299 19.0327 157.149 19.0782 157.059 19.2188C156.968 19.3594 156.972 19.5418 157.066 19.6262L157.162 19.7119C157.193 19.7393 157.187 19.7973 157.151 19.8185C156.732 20.067 156.329 20.2919 155.977 20.4888C155.797 20.5895 155.63 20.6829 155.48 20.7683C155.369 20.832 155.249 20.8903 155.13 20.8663C155.044 20.8489 154.988 20.7987 154.951 20.7059C154.899 20.5778 154.914 20.4259 154.936 20.2821C154.966 20.0894 154.997 19.8744 155.03 19.6425C155.096 19.1894 155.171 18.6717 155.26 18.1289C155.268 18.0825 155.314 18.06 155.345 18.0874L155.356 18.0975C155.45 18.1819 155.6 18.1364 155.691 17.9958C155.781 17.8552 155.778 17.6728 155.683 17.5884L155.426 17.3587C155.41 17.3446 155.403 17.3205 155.408 17.2968C155.485 16.8897 155.572 16.4799 155.67 16.0828C155.681 16.0399 155.724 16.0214 155.753 16.0473L156.167 16.4173C156.261 16.5017 156.411 16.4562 156.501 16.3156C156.592 16.175 156.588 15.9926 156.494 15.9081L155.9 15.3771C155.882 15.3613 155.876 15.3332 155.883 15.3075C155.926 15.1702 155.97 15.036 156.015 14.9057C156.094 14.6815 156.181 14.4453 156.278 14.208C156.293 14.1715 156.331 14.1593 156.357 14.1825L156.978 14.737C157.072 14.8215 157.222 14.7759 157.312 14.6353C157.403 14.4947 157.399 14.3123 157.305 14.2279L156.621 13.6164C156.62 13.6156 156.619 13.6147 156.618 13.6139C156.59 13.5905 156.575 13.5455 156.593 13.5096C156.765 13.1692 156.96 12.8504 157.179 12.5896C157.203 12.5603 157.243 12.5671 157.269 12.5922C157.271 12.5943 157.273 12.5962 157.275 12.5982L157.959 13.2096C158.054 13.2941 158.204 13.2485 158.294 13.108C158.385 12.9674 158.381 12.785 158.287 12.7005L157.731 12.2037Z" fill="#9BAF7A"/>
<path d="M160.198 13.6061C160.389 13.3419 160.361 12.9514 160.139 12.7523C159.916 12.5533 159.59 12.6277 159.425 12.9151L156.179 18.5929C156.128 18.6821 156.142 18.8 156.211 18.8618C156.28 18.9236 156.38 18.9079 156.439 18.8258L160.198 13.6061Z" fill="#889A6B"/>
<path d="M174.52 42.5936C174.55 42.5541 174.541 42.4986 174.503 42.4922C174.307 42.4598 174.101 42.4749 173.884 42.5502C173.231 42.7763 172.523 43.4596 171.983 44.1721C171.442 44.8846 170.948 45.788 170.835 46.5717C170.794 46.8581 170.812 47.1203 170.877 47.3607C170.88 47.3739 170.896 47.3738 170.906 47.3616L171.586 46.4641C171.68 46.3402 171.84 46.3267 171.944 46.4339C172.048 46.5412 172.056 46.7286 171.962 46.8525L171.282 47.75C171.261 47.7768 171.238 47.7985 171.213 47.8148C171.167 47.8446 171.128 47.9219 171.155 47.9625C171.342 48.2398 171.59 48.4797 171.863 48.6879C171.902 48.717 171.969 48.6606 171.992 48.6026C172.002 48.5757 172.016 48.5501 172.034 48.5268L172.714 47.6293C172.808 47.5053 172.969 47.4918 173.073 47.5991C173.176 47.7063 173.184 47.8937 173.091 48.0176L172.41 48.9152C172.38 48.9552 172.369 49.0266 172.403 49.0464C172.588 49.1545 172.773 49.2514 172.95 49.3383C173.057 49.3911 173.168 49.4411 173.283 49.4887C173.299 49.4953 173.319 49.4854 173.332 49.4676L174.013 48.57C174.107 48.4461 174.267 48.4326 174.371 48.5399C174.475 48.6471 174.483 48.8345 174.389 48.9584L173.893 49.6123C173.864 49.6503 173.871 49.7039 173.907 49.7152C174.233 49.8193 174.574 49.9082 174.914 49.9854C174.933 49.9899 174.956 49.9796 174.972 49.9589L175.311 49.5108C175.405 49.3869 175.566 49.3734 175.67 49.4806C175.773 49.5879 175.781 49.7753 175.687 49.8992L175.592 50.0249C175.562 50.0652 175.572 50.1219 175.611 50.1293C176.067 50.2151 176.504 50.2835 176.887 50.3433C177.082 50.3739 177.264 50.4023 177.426 50.4296C177.548 50.45 177.677 50.4615 177.8 50.3896C177.889 50.3375 177.945 50.2637 177.979 50.1542C178.025 50.0028 177.999 49.8539 177.967 49.716C177.924 49.5312 177.878 49.3244 177.828 49.1012C177.731 48.6652 177.619 48.167 177.491 47.6493C177.48 47.605 177.43 47.6003 177.4 47.6406L177.389 47.6554C177.295 47.7794 177.134 47.7929 177.03 47.6856C176.927 47.5784 176.918 47.391 177.012 47.267L177.268 46.9299C177.284 46.9092 177.29 46.8818 177.284 46.8594C177.177 46.4751 177.059 46.0918 176.931 45.726C176.917 45.6864 176.871 45.6849 176.842 45.7229L176.43 46.2659C176.336 46.3898 176.176 46.4033 176.072 46.2961C175.968 46.1888 175.96 46.0014 176.054 45.8775L176.645 45.0981C176.663 45.0749 176.668 45.0435 176.658 45.0204C176.605 44.8972 176.55 44.7779 176.494 44.6633C176.397 44.4662 176.29 44.2602 176.174 44.0567C176.156 44.0254 176.115 44.0284 176.089 44.0625L175.472 44.8763C175.378 45.0003 175.218 45.0138 175.114 44.9065C175.01 44.7993 175.002 44.6119 175.096 44.488L175.776 43.5904C175.777 43.5892 175.778 43.5879 175.779 43.5867C175.806 43.5519 175.82 43.4998 175.799 43.4704C175.596 43.192 175.372 42.9447 175.125 42.7663C175.097 42.7463 175.056 42.7692 175.03 42.8051C175.028 42.808 175.026 42.8108 175.024 42.8137L174.344 43.7112C174.25 43.8351 174.089 43.8486 173.986 43.7414C173.882 43.6341 173.874 43.4467 173.968 43.3228L174.52 42.5936Z" fill="#9BAF7A"/>
<path d="M172.016 45.0115C171.799 44.8182 171.803 44.4088 172.025 44.1166C172.246 43.8244 172.594 43.7698 172.785 43.9972L176.555 48.49C176.614 48.5606 176.607 48.6866 176.538 48.7773C176.469 48.868 176.363 48.892 176.296 48.8319L172.016 45.0115Z" fill="#889A6B"/>
<path d="M143.836 60.9155C143.839 60.9628 143.887 60.9936 143.925 60.9712C144.12 60.857 144.288 60.7036 144.423 60.5022C144.827 59.8975 144.945 58.9485 144.896 58.0966C144.846 57.2447 144.618 56.2966 144.144 55.694C143.971 55.4738 143.763 55.3114 143.531 55.1955C143.519 55.1891 143.505 55.2002 143.506 55.2148L143.568 56.2879C143.577 56.4361 143.447 56.5565 143.278 56.5569C143.109 56.5573 142.965 56.4375 142.957 56.2894L142.894 55.2163C142.893 55.1842 142.897 55.1534 142.907 55.1249C142.926 55.0731 142.903 54.9945 142.849 54.9863C142.484 54.9303 142.093 54.9422 141.703 54.9929C141.648 54.9999 141.631 55.0846 141.653 55.1391C141.664 55.1644 141.67 55.1913 141.672 55.2192L141.734 56.2923C141.742 56.4405 141.612 56.5609 141.444 56.5613C141.275 56.5617 141.131 56.4419 141.122 56.2938L141.06 55.2207C141.057 55.1728 141.014 55.1178 140.971 55.128C140.731 55.1839 140.498 55.2479 140.281 55.3125C140.149 55.3518 140.015 55.3956 139.881 55.4434C139.862 55.45 139.852 55.4706 139.853 55.4919L139.915 56.565C139.924 56.7131 139.794 56.8336 139.625 56.834C139.456 56.8344 139.312 56.7146 139.304 56.5664L139.258 55.7846C139.256 55.7392 139.211 55.7082 139.172 55.7252C138.811 55.8825 138.449 56.0594 138.097 56.2439C138.076 56.2546 138.064 56.2772 138.065 56.3019L138.097 56.8376C138.105 56.9858 137.975 57.1062 137.806 57.1067C137.638 57.1071 137.494 56.9873 137.485 56.8391L137.476 56.6888C137.474 56.6406 137.424 56.6097 137.384 56.6318C136.924 56.8912 136.493 57.1492 136.116 57.375C135.923 57.4906 135.744 57.5977 135.582 57.6923C135.462 57.7628 135.34 57.8453 135.286 57.9789C135.246 58.0756 135.251 58.1638 135.302 58.2603C135.372 58.3937 135.503 58.4755 135.632 58.5455C135.804 58.6392 135.995 58.7455 136.202 58.8601C136.605 59.084 137.066 59.3399 137.556 59.597C137.598 59.6189 137.644 59.5877 137.642 59.5396L137.641 59.5218C137.632 59.3737 137.762 59.2532 137.931 59.2528C138.1 59.2524 138.243 59.3722 138.252 59.5204L138.275 59.9235C138.277 59.9482 138.292 59.9708 138.313 59.9814C138.687 60.1642 139.069 60.3393 139.448 60.4948C139.489 60.5116 139.531 60.4804 139.528 60.435L139.49 59.7857C139.482 59.6376 139.612 59.5171 139.78 59.5167C139.949 59.5163 140.093 59.6361 140.102 59.7842L140.156 60.7161C140.157 60.7439 140.176 60.7685 140.201 60.777C140.337 60.8226 140.472 60.8645 140.605 60.902C140.833 60.9666 141.077 61.0304 141.327 61.0856C141.365 61.0941 141.399 61.0635 141.396 61.0227L141.34 60.0496C141.331 59.9014 141.461 59.781 141.63 59.7806C141.799 59.7802 141.943 59.9 141.951 60.0481L142.014 61.1212L142.014 61.1258C142.015 61.1679 142.042 61.2122 142.082 61.217C142.462 61.2626 142.838 61.2722 143.183 61.2201C143.222 61.2142 143.241 61.17 143.237 61.1284C143.237 61.125 143.237 61.1217 143.236 61.1183L143.174 60.0452C143.166 59.897 143.296 59.7766 143.464 59.7762C143.633 59.7758 143.777 59.8956 143.786 60.0437L143.836 60.9155Z" fill="#9BAF7A"/>
<path d="M144.254 57.558C144.584 57.5369 144.879 57.8135 144.9 58.1629C144.92 58.5123 144.657 58.7903 144.324 58.7707L137.758 58.3845C137.655 58.3784 137.569 58.289 137.563 58.1805C137.557 58.0721 137.632 57.9822 137.734 57.9757L144.254 57.558Z" fill="#889A6B"/>
<path d="M149.984 60.1996C150.021 60.1459 149.994 60.0627 149.934 60.0476C149.627 59.9706 149.314 59.9621 148.999 60.0405C148.051 60.2761 147.125 61.177 146.462 62.1462C145.8 63.1153 145.252 64.3724 145.261 65.5102C145.264 65.9259 145.354 66.3151 145.509 66.6789C145.518 66.699 145.542 66.7011 145.553 66.6845L146.387 65.4638C146.503 65.2953 146.745 65.2993 146.929 65.4728C147.113 65.6464 147.169 65.9237 147.054 66.0922L146.22 67.3129C146.195 67.3494 146.164 67.3778 146.129 67.3981C146.066 67.4351 146.024 67.5432 146.076 67.6071C146.426 68.0435 146.862 68.4341 147.329 68.7816C147.394 68.8302 147.485 68.7571 147.506 68.6751C147.516 68.6371 147.531 68.6015 147.553 68.5697L148.387 67.349C148.502 67.1805 148.745 67.1845 148.929 67.358C149.113 67.5316 149.169 67.8089 149.054 67.9774L148.219 69.1981C148.182 69.2526 148.183 69.3562 148.239 69.3904C148.547 69.5773 148.854 69.7477 149.145 69.9022C149.322 69.996 149.504 70.0863 149.69 70.1735C149.716 70.1857 149.745 70.174 149.761 70.1497L150.595 68.929C150.71 68.7605 150.953 68.7645 151.137 68.938C151.321 69.1116 151.377 69.3889 151.262 69.5574L150.654 70.4468C150.619 70.4985 150.642 70.5785 150.699 70.6004C151.224 70.8026 151.766 70.9844 152.304 71.1488C152.336 71.1584 152.368 71.1466 152.387 71.1185L152.803 70.509C152.919 70.3405 153.161 70.3445 153.345 70.5181C153.529 70.6916 153.585 70.9689 153.47 71.1374L153.353 71.3084C153.316 71.3632 153.344 71.4483 153.406 71.4649C154.124 71.6595 154.81 71.8255 155.411 71.9708C155.718 72.0451 156.003 72.1141 156.258 72.1786C156.448 72.2268 156.65 72.263 156.822 72.1754C156.946 72.112 157.015 72.0117 157.04 71.8553C157.076 71.6392 157.002 71.416 156.921 71.2081C156.812 70.9293 156.693 70.6176 156.565 70.2814C156.314 69.6245 156.028 68.8739 155.71 68.0919C155.683 68.025 155.606 68.0107 155.569 68.0655L155.555 68.0857C155.44 68.2542 155.198 68.2502 155.013 68.0766C154.829 67.9031 154.774 67.6258 154.889 67.4573L155.202 66.9986C155.221 66.9705 155.224 66.9311 155.209 66.8971C154.956 66.3149 154.688 65.7327 154.406 65.1747C154.376 65.1143 154.304 65.1051 154.269 65.1567L153.764 65.8953C153.649 66.0638 153.406 66.0598 153.222 65.8863C153.038 65.7127 152.982 65.4354 153.098 65.2669L153.822 64.2068C153.843 64.1752 153.844 64.1299 153.824 64.0943C153.714 63.9049 153.602 63.721 153.489 63.5437C153.295 63.2388 153.084 62.9193 152.858 62.6021C152.824 62.5534 152.761 62.5516 152.729 62.598L151.973 63.7049C151.858 63.8735 151.615 63.8694 151.431 63.6959C151.247 63.5224 151.191 63.2451 151.306 63.0765L152.141 61.8558C152.142 61.8541 152.143 61.8524 152.144 61.8507C152.178 61.8035 152.186 61.7287 152.147 61.6823C151.772 61.2419 151.371 60.844 150.951 60.5443C150.904 60.5106 150.845 60.5382 150.815 60.5873C150.813 60.5912 150.81 60.5952 150.807 60.599L149.973 61.8197C149.858 61.9883 149.616 61.9842 149.431 61.8107C149.247 61.6372 149.192 61.3599 149.307 61.1913L149.984 60.1996Z" fill="#9BAF7A"/>
<path d="M146.708 63.3879C146.331 63.0706 146.242 62.4682 146.514 62.0707C146.785 61.6733 147.305 61.6448 147.651 62.0083L154.472 69.1908C154.579 69.3036 154.597 69.4881 154.513 69.6115C154.428 69.7349 154.271 69.7543 154.154 69.6558L146.708 63.3879Z" fill="#889A6B"/>
<path d="M180.429 33.3094C172.501 36.3923 152.789 38.9785 137.366 24.6601C118.087 6.76208 115.086 4.57894 110.877 6.70706C106.282 9.02955 101.041 41.7178 93.2824 40.6879C87.0759 39.8639 85.4537 36.7913 85.4184 35.3581" stroke="#889A6B"/>
<path d="M102.527 21.3407C102.489 21.3432 102.461 21.3055 102.477 21.271C102.559 21.0957 102.673 20.9377 102.829 20.8038C103.295 20.4017 104.056 20.2054 104.748 20.1605C105.44 20.1155 106.22 20.2117 106.735 20.5501C106.923 20.6738 107.066 20.8326 107.173 21.0163C107.179 21.0265 107.171 21.0392 107.159 21.0399L106.287 21.0965C106.167 21.1044 106.077 21.2262 106.086 21.3686C106.095 21.5111 106.2 21.6202 106.321 21.6124L107.192 21.5558C107.218 21.5541 107.243 21.547 107.266 21.5356C107.306 21.5149 107.371 21.5261 107.381 21.5703C107.447 21.8724 107.46 22.2038 107.441 22.5382C107.438 22.5849 107.371 22.6084 107.325 22.5949C107.304 22.5886 107.282 22.5859 107.259 22.5874L106.388 22.644C106.267 22.6518 106.177 22.7736 106.186 22.9161C106.196 23.0585 106.301 23.1677 106.421 23.1598L107.293 23.1032C107.332 23.1007 107.379 23.1314 107.373 23.1694C107.341 23.3774 107.303 23.5798 107.263 23.77C107.238 23.8853 107.211 24.0024 107.18 24.1207C107.175 24.1373 107.159 24.1479 107.142 24.149L106.27 24.2056C106.15 24.2135 106.06 24.3353 106.069 24.4777C106.078 24.6201 106.183 24.7293 106.304 24.7215L106.939 24.6802C106.976 24.6778 107.003 24.7128 106.992 24.7475C106.885 25.0678 106.762 25.3906 106.633 25.7067C106.625 25.7252 106.608 25.7377 106.588 25.739L106.153 25.7673C106.032 25.7751 105.942 25.8969 105.951 26.0393C105.961 26.1818 106.066 26.2909 106.186 26.2831L106.308 26.2752C106.347 26.2726 106.375 26.3118 106.359 26.3472C106.176 26.7617 105.991 27.1514 105.83 27.4925C105.748 27.6671 105.671 27.8289 105.604 27.9748C105.553 28.0836 105.494 28.1944 105.389 28.2542C105.313 28.2975 105.241 28.3021 105.16 28.269C105.048 28.2233 104.974 28.1212 104.91 28.0198C104.825 27.8839 104.728 27.7333 104.624 27.5708C104.419 27.2535 104.186 26.8908 103.951 26.5036C103.93 26.4705 103.953 26.4281 103.992 26.4255L104.006 26.4246C104.127 26.4168 104.217 26.295 104.208 26.1525C104.198 26.0101 104.093 25.901 103.973 25.9088L103.645 25.93C103.625 25.9313 103.606 25.9212 103.596 25.9039C103.427 25.6072 103.264 25.3029 103.117 24.9991C103.101 24.9662 103.124 24.9279 103.161 24.9255L103.688 24.8913C103.808 24.8835 103.899 24.7617 103.889 24.6192C103.88 24.4768 103.775 24.3676 103.655 24.3755L102.897 24.4246C102.875 24.4261 102.854 24.4131 102.846 24.3925C102.801 24.2823 102.759 24.1729 102.722 24.0647C102.656 23.8787 102.591 23.6799 102.532 23.4746C102.523 23.4431 102.546 23.4114 102.579 23.4093L103.37 23.358C103.49 23.3501 103.58 23.2283 103.571 23.0859C103.562 22.9435 103.457 22.8343 103.336 22.8421L102.464 22.8987C102.463 22.8988 102.462 22.8989 102.461 22.899C102.426 22.9019 102.389 22.8843 102.383 22.851C102.325 22.5354 102.295 22.219 102.318 21.9225C102.321 21.8891 102.355 21.8682 102.389 21.8675C102.392 21.8674 102.395 21.8673 102.397 21.8671L103.269 21.8105C103.39 21.8027 103.48 21.6809 103.47 21.5384C103.461 21.396 103.356 21.2869 103.236 21.2947L102.527 21.3407Z" fill="#9BAF7A"/>
<path d="M105.22 20.6469C105.219 20.3664 104.978 20.1455 104.694 20.164C104.411 20.1824 104.2 20.4326 104.235 20.7109L104.92 26.2101C104.931 26.2965 105.008 26.3596 105.096 26.3538C105.184 26.3481 105.253 26.2756 105.252 26.1886L105.22 20.6469Z" fill="#889A6B"/>
<path d="M98.7134 32.1417C98.7007 32.1194 98.7217 32.088 98.7527 32.0843C98.91 32.0655 99.0633 32.0735 99.2097 32.1155C99.6492 32.2417 100.014 32.6261 100.243 33.0274C100.472 33.4288 100.618 33.9382 100.504 34.3808C100.462 34.5426 100.38 34.6909 100.269 34.8269C100.263 34.8344 100.251 34.8343 100.247 34.8275L99.9586 34.3219C99.9187 34.2521 99.8 34.2449 99.6934 34.3057C99.5868 34.3666 99.5327 34.4726 99.5726 34.5424L99.8614 35.0479C99.87 35.063 99.8823 35.0752 99.8974 35.0844C99.9248 35.1011 99.9345 35.1447 99.9033 35.1677C99.6903 35.3249 99.4398 35.4611 99.1782 35.5795C99.1416 35.5961 99.1046 35.5643 99.1022 35.5316C99.1011 35.5164 99.0969 35.502 99.0894 35.4889L98.8006 34.9833C98.7608 34.9135 98.642 34.9062 98.5354 34.9671C98.4288 35.028 98.3748 35.1339 98.4146 35.2038L98.7034 35.7093C98.7163 35.7319 98.7059 35.7722 98.6752 35.7835C98.5068 35.8451 98.3408 35.9003 98.1838 35.9499C98.0886 35.9799 97.9909 36.0085 97.8915 36.0357C97.8776 36.0395 97.8649 36.0339 97.8592 36.0239L97.5704 35.5183C97.5306 35.4485 97.4118 35.4412 97.3053 35.5021C97.1987 35.563 97.1446 35.6689 97.1844 35.7387L97.3948 36.1071C97.4071 36.1285 97.388 36.1588 97.3582 36.1653C97.0826 36.225 96.8006 36.2761 96.5219 36.3205C96.5056 36.3231 96.4911 36.3173 96.4844 36.3057L96.3403 36.0533C96.3004 35.9835 96.1817 35.9762 96.0751 36.0371C95.9685 36.098 95.9144 36.2039 95.9543 36.2737L95.9947 36.3446C96.0077 36.3672 95.9855 36.3993 95.9539 36.4036C95.5845 36.4533 95.2338 36.493 94.9269 36.5278C94.7699 36.5455 94.6243 36.562 94.4935 36.5779C94.396 36.5897 94.2942 36.5965 94.2188 36.5562C94.1642 36.527 94.1405 36.4854 94.1431 36.4236C94.1466 36.3382 94.2042 36.254 94.2639 36.1759C94.344 36.0714 94.4322 35.9543 94.5273 35.8281C94.7132 35.5814 94.9256 35.2996 95.1561 35.0066C95.1758 34.9816 95.2146 34.9788 95.2276 35.0015L95.2324 35.0098C95.2722 35.0796 95.391 35.0869 95.4976 35.026C95.6041 34.9651 95.6582 34.8592 95.6184 34.7893L95.5099 34.5994C95.5032 34.5878 95.5056 34.5723 95.5161 34.5596C95.696 34.3421 95.8833 34.1252 96.0747 33.9181C96.0954 33.8957 96.1312 33.8947 96.1435 33.9161L96.3182 34.222C96.358 34.2918 96.4768 34.2991 96.5834 34.2382C96.6899 34.1773 96.744 34.0714 96.7042 34.0016L96.4534 33.5625C96.4459 33.5495 96.45 33.5318 96.4635 33.5187C96.5354 33.4489 96.6075 33.3813 96.6798 33.3164C96.8041 33.2048 96.938 33.088 97.0789 32.9727C97.1005 32.955 97.1311 32.9566 97.1421 32.9758L97.404 33.4342C97.4438 33.5041 97.5626 33.5113 97.6692 33.4504C97.7757 33.3895 97.8298 33.2836 97.79 33.2138L97.5012 32.7082C97.5008 32.7075 97.5004 32.7068 97.5 32.7061C97.4881 32.6865 97.4911 32.6571 97.5149 32.6404C97.7404 32.4826 97.9748 32.3422 98.2084 32.2408C98.2347 32.2294 98.2605 32.2422 98.2706 32.2624C98.2714 32.2641 98.2723 32.2657 98.2732 32.2673L98.562 32.7729C98.6018 32.8427 98.7206 32.8499 98.8271 32.789C98.9337 32.7281 98.9878 32.6222 98.948 32.5524L98.7134 32.1417Z" fill="#9BAF7A"/>
<path d="M100.003 33.502C100.218 33.3921 100.319 33.1608 100.225 32.9962C100.131 32.8316 99.8804 32.8016 99.6768 32.9306L95.6539 35.4794C95.5907 35.5195 95.5641 35.5907 95.5933 35.6418C95.6225 35.6929 95.6973 35.7061 95.7639 35.672L100.003 33.502Z" fill="#889A6B"/>
<path d="M89.0464 40.2205C89.0161 40.2098 89.0051 40.1776 89.027 40.1613C89.1384 40.0786 89.2707 40.0173 89.4277 39.984C89.8994 39.8839 90.5417 40.0058 91.0889 40.1995C91.636 40.3931 92.212 40.7024 92.5157 41.0769C92.6267 41.2137 92.6933 41.358 92.725 41.5062C92.7267 41.5144 92.7169 41.5196 92.7075 41.5163L92.0183 41.2724C91.9232 41.2387 91.8199 41.2854 91.7875 41.3767C91.7552 41.468 91.8062 41.5693 91.9013 41.603L92.5905 41.8469C92.6111 41.8542 92.6321 41.8577 92.6526 41.8578C92.6899 41.858 92.7369 41.8857 92.7321 41.9163C92.6995 42.1247 92.6174 42.3342 92.5102 42.5355C92.4953 42.5637 92.4366 42.5566 92.4053 42.5337C92.3908 42.5231 92.3744 42.5143 92.3565 42.508L91.6673 42.2641C91.5722 42.2304 91.4689 42.2771 91.4366 42.3684C91.4042 42.4597 91.4552 42.561 91.5503 42.5947L92.2395 42.8386C92.2703 42.8495 92.298 42.8835 92.283 42.9053C92.201 43.0241 92.1151 43.1373 92.0316 43.2424C91.9809 43.3061 91.9269 43.3698 91.8702 43.4332C91.8622 43.4421 91.8469 43.4436 91.8332 43.4387L91.1441 43.1948C91.0489 43.1611 90.9456 43.2078 90.9133 43.2991C90.881 43.3904 90.9319 43.4917 91.0271 43.5254L91.5292 43.7031C91.5583 43.7134 91.57 43.744 91.5515 43.7618C91.3803 43.9262 91.1961 44.0871 91.0087 44.2418C90.9978 44.2508 90.9807 44.2529 90.9648 44.2473L90.6208 44.1256C90.5256 44.0919 90.4223 44.1386 90.39 44.2299C90.3577 44.3211 90.4086 44.4224 90.5038 44.4561L90.6003 44.4903C90.6312 44.5012 90.642 44.5344 90.62 44.5514C90.3633 44.7496 90.1129 44.9323 89.8938 45.0922C89.7817 45.174 89.6778 45.2498 89.5853 45.3187C89.5164 45.3701 89.4395 45.4197 89.3418 45.4231C89.2711 45.4257 89.2144 45.4056 89.161 45.3592C89.0873 45.295 89.0587 45.2081 89.0374 45.1248C89.0089 45.0131 88.9758 44.8887 88.9401 44.7546C88.8704 44.4925 88.7907 44.193 88.7158 43.8774C88.7094 43.8504 88.7386 43.8314 88.7695 43.8423L88.7809 43.8463C88.876 43.88 88.9794 43.8333 89.0117 43.742C89.044 43.6508 88.993 43.5495 88.8979 43.5158L88.639 43.4241C88.6231 43.4185 88.6112 43.4061 88.6084 43.3923C88.56 43.1541 88.518 42.9132 88.4884 42.6777C88.4852 42.6522 88.5135 42.6358 88.5426 42.6461L88.9596 42.7937C89.0547 42.8273 89.1581 42.7806 89.1904 42.6894C89.2227 42.5981 89.1717 42.4968 89.0766 42.4631L88.4781 42.2513C88.4603 42.245 88.4477 42.2302 88.447 42.2147C88.443 42.1322 88.4412 42.051 88.4419 41.9718C88.4431 41.8356 88.4476 41.6914 88.459 41.5453C88.4608 41.5228 88.4872 41.5105 88.5134 41.5198L89.1383 41.741C89.2334 41.7747 89.3368 41.728 89.3691 41.6367C89.4014 41.5454 89.3504 41.4441 89.2553 41.4104L88.5661 41.1665C88.5652 41.1662 88.5642 41.1658 88.5632 41.1655C88.536 41.1563 88.512 41.1334 88.5165 41.1108C88.5588 40.8964 88.6239 40.691 88.7235 40.5143C88.7347 40.4945 88.7673 40.4925 88.7937 40.5029C88.7958 40.5038 88.7979 40.5046 88.8001 40.5054L89.4893 40.7493C89.5844 40.7829 89.6878 40.7362 89.7201 40.645C89.7524 40.5537 89.7014 40.4524 89.6063 40.4187L89.0464 40.2205Z" fill="#9BAF7A"/>
<path d="M91.3189 40.6522C91.3953 40.4778 91.2706 40.2638 91.0463 40.1844C90.8219 40.105 90.5904 40.1929 90.5401 40.3766L89.5461 44.0058C89.5305 44.0628 89.5727 44.1266 89.6423 44.1512C89.712 44.1759 89.7849 44.1528 89.8086 44.0987L91.3189 40.6522Z" fill="#889A6B"/>
<path d="M87.4805 35.0548C87.5149 35.044 87.5492 35.0743 87.5428 35.111C87.5102 35.2975 87.4431 35.4747 87.3331 35.6376C87.0028 36.1268 86.3544 36.4822 85.7329 36.6769C85.1115 36.8715 84.3761 36.9496 83.8258 36.7363C83.6247 36.6584 83.4562 36.5368 83.3148 36.3833C83.307 36.3748 83.3115 36.3608 83.3221 36.3574L84.1049 36.1122C84.213 36.0784 84.2663 35.9414 84.2239 35.8063C84.1816 35.6712 84.0597 35.5891 83.9516 35.6229L83.1689 35.8681C83.1455 35.8755 83.1246 35.8876 83.1068 35.9036C83.0744 35.9325 83.0125 35.9359 82.9931 35.8954C82.861 35.6189 82.7707 35.3026 82.7084 34.9766C82.6997 34.9311 82.7557 34.8937 82.8004 34.8968C82.8211 34.8982 82.842 34.8959 82.8623 34.8896L83.6451 34.6444C83.7531 34.6105 83.8064 34.4735 83.7641 34.3384C83.7218 34.2033 83.5999 34.1212 83.4918 34.1551L82.709 34.4003C82.6741 34.4112 82.6239 34.3919 82.6202 34.354C82.5995 34.1469 82.5867 33.9435 82.578 33.7518C82.5727 33.6354 82.5703 33.5166 82.5705 33.3958C82.5705 33.3789 82.5826 33.3652 82.5982 33.3604L83.3809 33.1152C83.489 33.0813 83.5423 32.9443 83.5 32.8092C83.4577 32.6741 83.3357 32.592 83.2277 32.6259L82.6574 32.8045C82.6242 32.8149 82.5906 32.7872 82.593 32.7513C82.6143 32.4196 82.6495 32.082 82.6924 31.7493C82.6949 31.7299 82.708 31.714 82.726 31.7084L83.1168 31.586C83.2249 31.5521 83.2782 31.4151 83.2359 31.28C83.1935 31.1449 83.0716 31.0628 82.9635 31.0967L82.8539 31.131C82.8188 31.142 82.784 31.1104 82.7899 31.0729C82.8591 30.6337 82.9348 30.2181 83.001 29.8544C83.0349 29.6682 83.0663 29.4957 83.0931 29.3405C83.1131 29.2248 83.1414 29.105 83.2231 29.0245C83.2822 28.9662 83.3465 28.946 83.4284 28.9602C83.5414 28.9797 83.633 29.0619 83.7154 29.1456C83.826 29.2577 83.9502 29.3815 84.0842 29.5151C84.3461 29.776 84.6453 30.0741 84.9528 30.3954C84.9791 30.4228 84.9685 30.4686 84.9334 30.4796L84.9204 30.4837C84.8124 30.5175 84.7591 30.6545 84.8014 30.7896C84.8437 30.9247 84.9656 31.0068 85.0737 30.973L85.3678 30.8808C85.3858 30.8752 85.4056 30.8808 85.4187 30.8953C85.6437 31.144 85.8653 31.4012 86.0721 31.6615C86.0945 31.6897 86.0827 31.7315 86.0495 31.7419L85.5759 31.8903C85.4679 31.9241 85.4146 32.0611 85.4569 32.1962C85.4992 32.3313 85.6211 32.4134 85.7292 32.3796L86.409 32.1666C86.4292 32.1603 86.4514 32.1682 86.464 32.1862C86.5309 32.2825 86.5949 32.3788 86.6552 32.4746C86.759 32.6395 86.866 32.8166 86.9686 33.0014C86.9844 33.0297 86.971 33.0652 86.9413 33.0745L86.2315 33.2968C86.1234 33.3307 86.0701 33.4677 86.1124 33.6028C86.1547 33.7379 86.2767 33.82 86.3847 33.7861L87.1675 33.5409C87.1686 33.5406 87.1697 33.5402 87.1708 33.5399C87.2014 33.5296 87.2396 33.5384 87.2532 33.5691C87.3816 33.8602 87.4834 34.1584 87.5333 34.4489C87.5389 34.4815 87.5122 34.5093 87.4815 34.5174C87.479 34.5181 87.4765 34.5188 87.474 34.5195L86.6913 34.7647C86.5832 34.7986 86.5299 34.9356 86.5722 35.0707C86.6145 35.2058 86.7365 35.2879 86.8446 35.254L87.4805 35.0548Z" fill="#9BAF7A"/>
<path d="M85.186 36.3118C85.2542 36.5815 85.5264 36.7416 85.7813 36.6617C86.0361 36.5819 86.1684 36.2951 86.0706 36.0347L84.137 30.89C84.1066 30.8092 84.0211 30.7654 83.942 30.7902C83.8629 30.8149 83.8176 30.8997 83.8388 30.9834L85.186 36.3118Z" fill="#889A6B"/>
<path d="M106.386 6.75564C106.344 6.71903 106.355 6.65117 106.407 6.63138C106.672 6.53081 106.954 6.48233 107.253 6.50071C108.15 6.55594 109.139 7.12831 109.899 7.78876C110.66 8.44918 111.366 9.34748 111.546 10.2281C111.613 10.5499 111.596 10.8628 111.516 11.1647C111.512 11.1814 111.49 11.1863 111.477 11.175L110.519 10.3431C110.387 10.2282 110.168 10.2638 110.03 10.4226C109.892 10.5814 109.887 10.8032 110.02 10.918L110.978 11.7499C111.007 11.7748 111.039 11.7926 111.074 11.8036C111.138 11.8237 111.193 11.9017 111.158 11.958C110.913 12.3422 110.583 12.7024 110.218 13.0336C110.167 13.0799 110.073 13.0355 110.04 12.975C110.025 12.9469 110.005 12.9215 109.98 12.8998L109.021 12.0679C108.889 11.9531 108.67 11.9887 108.532 12.1474C108.395 12.3062 108.39 12.528 108.522 12.6429L109.481 13.4748C109.523 13.5119 109.54 13.5921 109.495 13.626C109.247 13.8118 108.998 13.9845 108.76 14.1429C108.615 14.239 108.465 14.3332 108.311 14.4256C108.289 14.4385 108.262 14.4332 108.243 14.4167L107.285 13.5848C107.152 13.47 106.933 13.5056 106.795 13.6643C106.658 13.8231 106.653 14.0449 106.785 14.1598L107.484 14.7659C107.524 14.8011 107.516 14.8661 107.469 14.8906C107.027 15.1171 106.566 15.3302 106.106 15.5294C106.079 15.541 106.048 15.5362 106.026 15.517L105.548 15.1017C105.415 14.9869 105.196 15.0225 105.058 15.1812C104.921 15.34 104.916 15.5618 105.048 15.6767L105.183 15.7932C105.226 15.8305 105.214 15.9001 105.161 15.9212C104.543 16.1678 103.949 16.388 103.43 16.5806C103.164 16.6792 102.918 16.7706 102.697 16.8547C102.533 16.9174 102.356 16.9724 102.186 16.9277C102.063 16.8953 101.984 16.827 101.935 16.7095C101.867 16.5472 101.896 16.3649 101.935 16.1933C101.988 15.9632 102.043 15.7064 102.104 15.4293C102.221 14.888 102.356 14.2695 102.513 13.6226C102.527 13.5672 102.594 13.5459 102.637 13.5832L102.653 13.597C102.785 13.7118 103.004 13.6762 103.142 13.5175C103.28 13.3587 103.284 13.1369 103.152 13.022L102.792 12.7095C102.77 12.6903 102.761 12.6602 102.768 12.632C102.901 12.1481 103.047 11.6621 103.21 11.1931C103.227 11.1423 103.29 11.1256 103.331 11.1608L103.911 11.6641C104.043 11.779 104.262 11.7434 104.4 11.5846C104.538 11.4259 104.542 11.204 104.41 11.0892L103.578 10.3668C103.553 10.3453 103.545 10.3103 103.557 10.28C103.625 10.1189 103.696 9.96185 103.768 9.80972C103.894 9.54805 104.032 9.27279 104.184 8.99739C104.207 8.95513 104.263 8.94533 104.3 8.97696L105.168 9.7313C105.301 9.84616 105.52 9.81056 105.658 9.6518C105.795 9.49303 105.8 9.27121 105.668 9.15635L104.709 8.32446C104.708 8.32329 104.707 8.32213 104.705 8.32098C104.667 8.28904 104.647 8.23238 104.675 8.19117C104.941 7.80061 105.238 7.43928 105.568 7.1515C105.606 7.11916 105.663 7.13262 105.699 7.16651C105.702 7.16925 105.705 7.17193 105.708 7.17456L106.666 8.00644C106.798 8.1213 107.017 8.08571 107.155 7.92694C107.293 7.76817 107.297 7.54635 107.165 7.43149L106.386 6.75564Z" fill="#9BAF7A"/>
<path d="M109.883 8.7814C110.172 8.48573 110.152 8.00819 109.84 7.73736C109.528 7.46653 109.053 7.51406 108.8 7.84127L103.818 14.3061C103.739 14.4077 103.754 14.5527 103.851 14.6368C103.947 14.7209 104.093 14.7148 104.183 14.6231L109.883 8.7814Z" fill="#889A6B"/>
<path d="M127.328 16.6489C127.303 16.6268 127.301 16.5943 127.327 16.5896C127.455 16.5654 127.597 16.5686 127.754 16.6063C128.226 16.7196 128.796 17.0967 129.255 17.4953C129.714 17.8939 130.167 18.4044 130.346 18.8559C130.411 19.0209 130.432 19.1736 130.42 19.3147C130.419 19.3225 130.408 19.3229 130.4 19.3161L129.822 18.814C129.742 18.7447 129.632 18.7412 129.575 18.8063C129.519 18.8713 129.538 18.9802 129.618 19.0495L130.196 19.5516C130.213 19.5666 130.232 19.5785 130.251 19.5873C130.286 19.6033 130.323 19.6471 130.309 19.6714C130.219 19.8374 130.082 19.9833 129.924 20.1115C129.902 20.1295 129.848 20.0986 129.825 20.0655C129.815 20.0502 129.802 20.0358 129.787 20.0227L129.209 19.5207C129.129 19.4513 129.018 19.4479 128.962 19.5129C128.905 19.578 128.924 19.6869 129.004 19.7562L129.582 20.2583C129.608 20.2807 129.625 20.3218 129.604 20.3342C129.493 20.402 129.38 20.4632 129.272 20.5185C129.206 20.552 129.137 20.5841 129.065 20.6148C129.055 20.6191 129.04 20.6139 129.029 20.6039L128.451 20.1018C128.371 20.0325 128.26 20.029 128.204 20.0941C128.147 20.1591 128.166 20.2681 128.246 20.3374L128.667 20.7032C128.692 20.7244 128.694 20.7557 128.672 20.7632C128.464 20.8325 128.244 20.8934 128.024 20.9474C128.011 20.9506 127.995 20.9452 127.981 20.9336L127.692 20.683C127.613 20.6137 127.502 20.6102 127.446 20.6752C127.389 20.7403 127.408 20.8492 127.488 20.9185L127.569 20.9889C127.595 21.0114 127.596 21.0446 127.57 21.0499C127.272 21.1121 126.984 21.1637 126.733 21.2088C126.604 21.2319 126.484 21.2534 126.378 21.2737C126.298 21.2888 126.212 21.299 126.119 21.2606C126.052 21.2328 126.004 21.1916 125.967 21.1289C125.916 21.0424 125.914 20.9553 125.918 20.8745C125.923 20.7661 125.928 20.6448 125.932 20.514C125.942 20.2585 125.952 19.9664 125.972 19.6626C125.974 19.6366 126.007 19.6325 126.033 19.6551L126.042 19.6634C126.122 19.7327 126.233 19.7361 126.289 19.6711C126.345 19.6061 126.326 19.4971 126.247 19.4278L126.029 19.2392C126.016 19.2276 126.008 19.2119 126.01 19.1987C126.032 18.9729 126.062 18.7473 126.101 18.5317C126.105 18.5083 126.137 18.5062 126.161 18.5274L126.511 18.8312C126.591 18.9005 126.701 18.904 126.758 18.8389C126.814 18.7739 126.795 18.6649 126.716 18.5956L126.213 18.1596C126.198 18.1466 126.191 18.1286 126.194 18.1149C126.214 18.042 126.236 17.9713 126.259 17.9033C126.299 17.7863 126.345 17.6639 126.397 17.5427C126.405 17.5241 126.434 17.5246 126.456 17.5437L126.98 17.999C127.06 18.0683 127.17 18.0718 127.227 18.0067C127.283 17.9417 127.264 17.8328 127.184 17.7634L126.606 17.2614C126.605 17.2607 126.604 17.26 126.604 17.2593C126.581 17.2398 126.565 17.21 126.575 17.1923C126.676 17.0253 126.796 16.8757 126.94 16.7655C126.957 16.7531 126.988 16.7653 127.01 16.7854C127.011 16.7871 127.013 16.7887 127.015 16.7903L127.593 17.2923C127.673 17.3616 127.784 17.3651 127.84 17.3001C127.897 17.235 127.878 17.1261 127.798 17.0568L127.328 16.6489Z" fill="#9BAF7A"/>
<path d="M129.342 17.9831C129.463 17.865 129.407 17.6277 129.219 17.4642C129.031 17.3008 128.788 17.2786 128.688 17.4157L126.716 20.1247C126.685 20.1673 126.707 20.2402 126.765 20.2909C126.823 20.3417 126.899 20.3527 126.936 20.316L129.342 17.9831Z" fill="#889A6B"/>
<path d="M126.363 14.5078C126.333 14.4924 126.303 14.5034 126.307 14.5286C126.333 14.6568 126.388 14.7874 126.481 14.9195C126.762 15.316 127.323 15.705 127.863 15.9838C128.403 16.2626 129.045 16.4944 129.531 16.493C129.708 16.4925 129.858 16.4558 129.985 16.3919C129.992 16.3883 129.988 16.3782 129.979 16.3734L129.298 16.0222C129.204 15.9738 129.16 15.8724 129.199 15.7958C129.239 15.7193 129.347 15.6965 129.441 15.745L130.122 16.0962C130.142 16.1067 130.16 16.1197 130.175 16.1343C130.203 16.1609 130.257 16.1784 130.275 16.1571C130.396 16.0118 130.48 15.8304 130.541 15.6359C130.549 15.6087 130.501 15.5708 130.462 15.5617C130.444 15.5575 130.426 15.5509 130.408 15.5418L129.727 15.1906C129.633 15.1421 129.589 15.0408 129.629 14.9642C129.668 14.8877 129.776 14.8649 129.87 14.9134L130.551 15.2646C130.581 15.2802 130.625 15.2802 130.629 15.2567C130.651 15.1285 130.666 15.0007 130.677 14.8794C130.684 14.8057 130.688 14.7298 130.69 14.652C130.691 14.6411 130.68 14.6293 130.667 14.6224L129.986 14.2712C129.892 14.2227 129.848 14.1213 129.888 14.0448C129.927 13.9682 130.035 13.9455 130.129 13.994L130.625 14.2498C130.654 14.2647 130.684 14.2552 130.682 14.2315C130.67 14.0126 130.645 13.7865 130.614 13.5617C130.612 13.5486 130.601 13.5352 130.585 13.5271L130.245 13.3518C130.151 13.3033 130.107 13.2019 130.146 13.1254C130.186 13.0488 130.294 13.0261 130.388 13.0745L130.483 13.1237C130.514 13.1395 130.545 13.1278 130.541 13.1021C130.488 12.8022 130.429 12.5159 130.378 12.2654C130.352 12.1372 130.327 12.0183 130.307 11.9118C130.291 11.8323 130.269 11.7482 130.199 11.6762C130.148 11.624 130.092 11.5952 130.02 11.5841C129.921 11.5687 129.839 11.5991 129.766 11.6326C129.667 11.6775 129.556 11.7265 129.436 11.7794C129.202 11.8828 128.935 12.0009 128.66 12.1318C128.636 12.143 128.645 12.1751 128.675 12.1908L128.687 12.1966C128.781 12.2451 128.825 12.3465 128.785 12.423C128.746 12.4996 128.638 12.5223 128.544 12.4738L128.288 12.3419C128.272 12.3338 128.255 12.3325 128.243 12.3386C128.042 12.4432 127.843 12.5541 127.657 12.6706C127.637 12.6832 127.647 12.7131 127.676 12.728L128.087 12.9405C128.181 12.9889 128.226 13.0903 128.186 13.1669C128.147 13.2434 128.038 13.2662 127.944 13.2177L127.353 12.9127C127.336 12.9036 127.316 12.9032 127.305 12.9118C127.244 12.9572 127.187 13.0034 127.132 13.0502C127.038 13.1308 126.942 13.2184 126.848 13.312C126.834 13.3264 126.845 13.3525 126.871 13.3659L127.488 13.6843C127.582 13.7328 127.626 13.8341 127.587 13.9107C127.547 13.9872 127.439 14.01 127.345 13.9615L126.664 13.6103C126.664 13.6098 126.663 13.6093 126.662 13.6088C126.635 13.5947 126.601 13.5909 126.589 13.6073C126.471 13.7631 126.377 13.9299 126.328 14.1046C126.322 14.1243 126.345 14.1487 126.372 14.1615C126.374 14.1626 126.376 14.1636 126.378 14.1648L127.059 14.5159C127.153 14.5644 127.197 14.6658 127.158 14.7423C127.118 14.8189 127.01 14.8416 126.916 14.7931L126.363 14.5078Z" fill="#9BAF7A"/>
<path d="M128.348 15.8838C128.284 16.0406 128.043 16.0764 127.821 15.9621C127.599 15.8478 127.489 15.6304 127.579 15.4869L129.365 12.6517C129.393 12.6072 129.469 12.6001 129.537 12.6356C129.606 12.6711 129.644 12.7368 129.624 12.7855L128.348 15.8838Z" fill="#889A6B"/>
<path d="M151.982 32.0711C151.961 32.0337 151.977 31.9925 152.012 31.9962C152.19 32.0148 152.371 32.0727 152.553 32.1799C153.1 32.5018 153.631 33.1916 154.009 33.8666C154.386 34.5416 154.696 35.3549 154.684 35.9895C154.68 36.2214 154.626 36.4211 154.534 36.5935C154.529 36.603 154.515 36.5993 154.508 36.5878L154.033 35.7376C153.967 35.6202 153.827 35.5738 153.719 35.6339C153.612 35.6941 153.578 35.838 153.643 35.9554L154.119 36.8056C154.133 36.831 154.151 36.8531 154.171 36.8715C154.207 36.9049 154.231 36.9736 154.201 36.9991C153.995 37.173 153.741 37.304 153.468 37.4047C153.43 37.4187 153.378 37.3597 153.367 37.3096C153.361 37.2863 153.352 37.2633 153.34 37.2412L152.864 36.391C152.799 36.2736 152.658 36.2272 152.551 36.2873C152.443 36.3474 152.409 36.4914 152.475 36.6088L152.951 37.459C152.972 37.4969 152.971 37.5547 152.938 37.5626C152.759 37.6054 152.58 37.6392 152.411 37.6672C152.308 37.6842 152.202 37.6982 152.094 37.7095C152.079 37.7111 152.062 37.6989 152.053 37.682L151.577 36.8318C151.512 36.7144 151.371 36.668 151.264 36.7281C151.156 36.7883 151.122 36.9322 151.188 37.0496L151.534 37.669C151.554 37.705 151.541 37.7452 151.508 37.746C151.203 37.7538 150.888 37.7468 150.575 37.7307C150.557 37.7298 150.539 37.7167 150.528 37.6971L150.29 37.2726C150.225 37.1552 150.084 37.1088 149.977 37.169C149.869 37.2291 149.835 37.373 149.901 37.4904L149.967 37.6095C149.989 37.6477 149.972 37.6895 149.936 37.6865C149.519 37.6512 149.121 37.6064 148.773 37.5673C148.595 37.5472 148.43 37.5287 148.281 37.5136C148.171 37.5023 148.054 37.4822 147.955 37.3987C147.884 37.3382 147.844 37.2684 147.831 37.1757C147.811 37.0477 147.855 36.9376 147.903 36.8376C147.968 36.7035 148.039 36.553 148.115 36.3907C148.264 36.0735 148.434 35.711 148.622 35.3372C148.638 35.3053 148.683 35.3127 148.704 35.3508L148.712 35.3649C148.778 35.4823 148.918 35.5287 149.026 35.4686C149.133 35.4084 149.167 35.2645 149.101 35.1471L148.923 34.8277C148.912 34.8081 148.91 34.7855 148.919 34.7694C149.069 34.4946 149.228 34.2227 149.394 33.9671C149.412 33.9394 149.454 33.9486 149.474 33.9846L149.761 34.499C149.827 34.6164 149.967 34.6628 150.075 34.6026C150.182 34.5425 150.216 34.3986 150.151 34.2812L149.738 33.5428C149.726 33.5209 149.725 33.4953 149.738 33.4796C149.802 33.3956 149.868 33.3151 149.934 33.2386C150.048 33.107 150.172 32.9707 150.305 32.8385C150.325 32.8182 150.361 32.8297 150.38 32.8621L150.811 33.633C150.876 33.7504 151.017 33.7968 151.124 33.7367C151.232 33.6765 151.266 33.5326 151.2 33.4152L150.725 32.565C150.724 32.5638 150.723 32.5626 150.723 32.5614C150.703 32.5283 150.699 32.4847 150.722 32.4667C150.942 32.2956 151.176 32.1535 151.421 32.07C151.448 32.0606 151.482 32.0878 151.499 32.1213C151.501 32.1241 151.502 32.1268 151.503 32.1294L151.979 32.9796C152.045 33.097 152.185 33.1434 152.293 33.0833C152.4 33.0232 152.434 32.8792 152.368 32.7619L151.982 32.0711Z" fill="#9BAF7A"/>
<path d="M153.859 34.5119C154.079 34.4101 154.134 34.0909 153.979 33.8141C153.825 33.5373 153.524 33.417 153.322 33.5511L149.332 36.2005C149.27 36.2421 149.258 36.3417 149.306 36.4276C149.354 36.5136 149.445 36.556 149.514 36.5244L153.859 34.5119Z" fill="#889A6B"/>
<path d="M173.111 33.5432C173.149 33.5242 173.19 33.5422 173.184 33.5771C173.157 33.754 173.089 33.9318 172.973 34.1082C172.623 34.6379 171.907 35.1324 171.213 35.4747C170.52 35.8169 169.692 36.0846 169.059 36.0399C168.827 36.0235 168.631 35.9591 168.463 35.8586C168.454 35.8531 168.458 35.8392 168.47 35.8333L169.344 35.4022C169.464 35.3427 169.518 35.2049 169.463 35.0944C169.409 34.9839 169.267 34.9426 169.146 35.0021L168.273 35.4332C168.247 35.4461 168.224 35.4627 168.204 35.4818C168.169 35.5166 168.099 35.5362 168.075 35.5049C167.912 35.2911 167.794 35.0301 167.708 34.7528C167.696 34.7141 167.757 34.6653 167.808 34.6561C167.832 34.6518 167.855 34.6442 167.878 34.633L168.751 34.2019C168.872 34.1424 168.926 34.0046 168.871 33.8941C168.817 33.7836 168.675 33.7423 168.554 33.8018L167.68 34.2329C167.641 34.2521 167.584 34.2482 167.578 34.215C167.544 34.0338 167.52 33.8539 167.5 33.6832C167.489 33.5797 167.48 33.4732 167.474 33.3643C167.474 33.3491 167.487 33.3334 167.504 33.3249L168.377 32.8938C168.498 32.8343 168.552 32.6964 168.497 32.5859C168.443 32.4755 168.301 32.4341 168.18 32.4937L167.544 32.8078C167.507 32.826 167.467 32.8101 167.468 32.7771C167.476 32.4722 167.499 32.1583 167.531 31.8468C167.533 31.8287 167.547 31.8108 167.567 31.8009L168.003 31.5857C168.124 31.5261 168.178 31.3883 168.123 31.2778C168.069 31.1673 167.927 31.126 167.806 31.1856L167.684 31.2459C167.644 31.2653 167.604 31.2461 167.608 31.2107C167.665 30.796 167.73 30.401 167.787 30.0552C167.817 29.8783 167.844 29.7143 167.866 29.5672C167.883 29.4574 167.909 29.3418 167.998 29.2473C168.062 29.1789 168.134 29.1434 168.227 29.1342C168.356 29.1215 168.463 29.1711 168.561 29.2244C168.691 29.2959 168.838 29.3742 168.996 29.4587C169.305 29.6237 169.659 29.8123 170.022 30.0195C170.053 30.0372 170.044 30.0813 170.004 30.1007L169.99 30.1078C169.869 30.1673 169.816 30.3052 169.87 30.4156C169.925 30.5261 170.067 30.5674 170.187 30.5079L170.516 30.346C170.536 30.336 170.558 30.3358 170.574 30.3453C170.841 30.5093 171.104 30.6818 171.351 30.861C171.378 30.8804 171.366 30.9213 171.329 30.9395L170.801 31.2004C170.68 31.2599 170.627 31.3977 170.681 31.5082C170.736 31.6187 170.878 31.66 170.998 31.6005L171.757 31.2261C171.779 31.215 171.805 31.2161 171.82 31.229C171.9 31.2979 171.978 31.3676 172.05 31.4378C172.176 31.5586 172.306 31.6896 172.431 31.8287C172.45 31.8501 172.437 31.8856 172.404 31.902L171.611 32.2929C171.491 32.3525 171.437 32.4903 171.492 32.6008C171.546 32.7113 171.688 32.7526 171.809 32.6931L172.682 32.262C172.684 32.2613 172.685 32.2607 172.686 32.2601C172.72 32.2426 172.764 32.2403 172.781 32.2644C172.94 32.4924 173.07 32.7341 173.141 32.9826C173.149 33.0105 173.12 33.0427 173.086 33.0583C173.083 33.0595 173.08 33.0608 173.077 33.0622L172.204 33.4933C172.083 33.5528 172.03 33.6906 172.084 33.8011C172.139 33.9116 172.281 33.9529 172.401 33.8934L173.111 33.5432Z" fill="#9BAF7A"/>
<path d="M170.577 35.2922C170.667 35.5171 170.983 35.5884 171.267 35.448C171.552 35.3077 171.687 35.0136 171.564 34.805L169.124 30.6844C169.085 30.6196 168.986 30.6031 168.898 30.6467C168.81 30.6902 168.763 30.7788 168.791 30.8486L170.577 35.2922Z" fill="#889A6B"/>
</g>
</svg>
