<svg width="180" height="160" viewBox="0 0 180 160" fill="none" xmlns="http://www.w3.org/2000/svg">
<rect width="180" height="160" fill="#E4E0D5"/>
<mask id="mask0_106_4" style="mask-type:alpha" maskUnits="userSpaceOnUse" x="0" y="0" width="180" height="160">
<rect width="180" height="160" fill="#E4E0D5"/>
</mask>
<g mask="url(#mask0_106_4)">
<path d="M40.576 17.4942C38.2021 17.8594 35.9049 18.0137 33.69 17.9898C31.9371 19.7163 29.5177 22.647 27.9899 26.2046C26.4287 29.8399 25.8068 34.1037 27.7441 38.434C30.2472 44.0289 31.6428 47.3087 32.1264 49.4161C32.37 50.4776 32.4013 51.3145 32.1749 52.0334C31.9443 52.7659 31.4728 53.2919 30.8919 53.7717C30.6781 53.9483 30.4036 54.0835 30.1103 54.1934C29.8112 54.3054 29.4609 54.4025 29.0736 54.4888C28.2992 54.6612 27.3377 54.7988 26.2654 54.9187C24.9164 55.0696 23.3603 55.1956 21.7463 55.3263C20.8016 55.4028 19.8362 55.481 18.8819 55.5666C16.2786 55.8002 13.7389 56.0906 11.7741 56.5563C10.7901 56.7896 9.97833 57.0606 9.38397 57.3748C8.77673 57.6959 8.48617 58.0139 8.3895 58.2952C7.8885 59.7528 7.96711 60.6617 8.18798 61.1991C8.41027 61.74 8.7996 61.9657 9.04476 62.0209L8.77621 63.0176C8.25341 62.8998 7.62304 62.4813 7.28209 61.6517C6.93973 60.8187 6.91157 59.6311 7.46846 58.0109C7.70238 57.3303 8.29422 56.8392 8.98733 56.4727C9.69331 56.0995 10.5998 55.8048 11.6182 55.5634C13.6582 55.0798 16.2597 54.785 18.8632 54.5513C19.8382 54.4639 20.8119 54.3851 21.76 54.3083C23.3612 54.1787 24.8891 54.0551 26.2259 53.9056C27.2872 53.7869 28.208 53.6538 28.9307 53.4928C29.2919 53.4124 29.5939 53.3271 29.834 53.2371C30.08 53.145 30.2317 53.0587 30.3143 52.9905C30.8201 52.5728 31.1067 52.2153 31.2449 51.7765C31.3873 51.3242 31.3983 50.702 31.1717 49.7148C30.715 47.7247 29.3708 44.5485 26.8499 38.9138C24.768 34.2605 25.4517 29.6781 27.0988 25.8427C28.5124 22.5511 30.6417 19.7907 32.3745 17.9545C16.1534 17.258 4.55424 7.07312 0 0.861979V2.83122e-06L0.610696 0C5.5796 6.97297 20.1581 19.6237 40.4239 16.5059C53.4072 14.5084 60.879 13.4694 65.3892 13.4538C67.6471 13.446 69.2263 13.6927 70.4025 14.2455C71.6026 14.8096 72.3316 15.6675 72.937 16.7572C73.1424 17.1269 73.2437 17.5882 73.283 18.091C73.3226 18.5994 73.3013 19.1865 73.2346 19.8326C73.1012 21.1245 72.7804 22.7053 72.353 24.462C71.8151 26.6726 71.0978 29.2025 70.3529 31.8297L70.3523 31.8318C69.9158 33.3715 69.4698 34.9446 69.0449 36.5063C67.8886 40.7566 66.8845 44.9363 66.5997 48.2615C66.4572 49.9257 66.4986 51.3389 66.7711 52.4253C67.0423 53.5068 67.5249 54.2035 68.2236 54.5528C73.6988 57.2905 76.4569 55.6 77.0931 54.7094L77.9068 55.2907C76.8763 56.7334 73.501 58.3096 67.7763 55.4473C66.7249 54.9216 66.1138 53.9152 65.8011 52.6686C65.4896 51.4268 65.4568 49.8869 65.6033 48.1761C65.8967 44.7513 66.9238 40.4934 68.08 36.2438C68.5118 34.6567 68.961 33.0725 69.3987 31.5289L69.399 31.5279L69.3993 31.5268C70.1398 28.9156 70.8472 26.4208 71.3813 24.2256C71.8055 22.4823 72.1135 20.9537 72.2399 19.7299C72.3031 19.1183 72.3193 18.596 72.286 18.1688C72.2522 17.7361 72.17 17.4357 72.0629 17.2429C71.5229 16.2709 70.9292 15.598 69.9771 15.1505C69.001 14.6917 67.5983 14.4461 65.3926 14.4538C60.9755 14.469 53.5927 15.4917 40.576 17.4942Z" fill="#889A6B"/>
<path d="M71.2015 33.7978C71.2318 33.8213 71.2759 33.8057 71.282 33.7682C71.313 33.5774 71.3068 33.3823 71.2534 33.1844C71.0929 32.5898 70.573 32.0004 70.0252 31.5748C69.4775 31.1493 68.7778 30.7913 68.162 30.7828C67.937 30.7796 67.7294 30.8308 67.5378 30.9229C67.5272 30.928 67.5269 30.9431 67.5363 30.9504L68.2262 31.4864C68.3215 31.5604 68.3277 31.7118 68.2401 31.8245C68.1526 31.9372 68.0044 31.9686 67.9091 31.8946L67.2192 31.3586C67.1986 31.3426 67.1821 31.3229 67.1699 31.3009C67.1477 31.2608 67.0877 31.2337 67.0549 31.2649C66.8307 31.4779 66.6344 31.7452 66.4624 32.0325C66.4384 32.0727 66.4811 32.13 66.5262 32.1443C66.5472 32.1509 66.567 32.1611 66.5849 32.175L67.2749 32.711C67.3701 32.785 67.3764 32.9364 67.2888 33.0491C67.2012 33.1618 67.053 33.1932 66.9577 33.1192L66.2678 32.5832C66.237 32.5593 66.181 32.5584 66.1644 32.5931C66.0739 32.783 65.9923 32.9722 65.9187 33.152C65.8741 33.2611 65.8315 33.3737 65.7907 33.4891C65.785 33.5052 65.7924 33.523 65.8061 33.5336L66.496 34.0696C66.5912 34.1436 66.5975 34.295 66.5099 34.4077C66.4223 34.5204 66.2741 34.5518 66.1789 34.4778L65.6762 34.0873C65.647 34.0646 65.6045 34.0781 65.5946 34.1132C65.5033 34.4383 65.4237 34.7744 65.3533 35.1086C65.3493 35.128 65.3568 35.1483 65.3727 35.1606L65.7171 35.4282C65.8124 35.5022 65.8186 35.6536 65.731 35.7663C65.6435 35.879 65.4953 35.9104 65.4 35.8364L65.3033 35.7613C65.2724 35.7373 65.2273 35.754 65.2205 35.7922C65.14 36.2383 65.0739 36.6644 65.0161 37.0373C64.9865 37.2281 64.9591 37.405 64.933 37.5635C64.9135 37.6818 64.9009 37.8071 64.9543 37.9155C64.9929 37.994 65.0496 38.038 65.1352 38.0561C65.2535 38.081 65.3717 38.0378 65.4815 37.9897C65.6287 37.9252 65.7933 37.8549 65.9709 37.779C66.3179 37.6308 66.7144 37.4614 67.1268 37.2732C67.1621 37.2571 67.1672 37.2093 67.1362 37.1852L67.1248 37.1764C67.0296 37.1024 67.0233 36.951 67.1109 36.8383C67.1985 36.7255 67.3467 36.6942 67.4419 36.7682L67.7011 36.9695C67.717 36.9819 67.7385 36.9842 67.7564 36.9754C68.0628 36.8246 68.3687 36.6643 68.6611 36.4955C68.6928 36.4773 68.6953 36.4327 68.6661 36.41L68.2487 36.0857C68.1534 36.0117 68.1472 35.8604 68.2347 35.7476C68.3223 35.6349 68.4705 35.6035 68.5658 35.6775L69.1649 36.143C69.1828 36.1568 69.2074 36.1579 69.2259 36.1455C69.3246 36.0793 69.4204 36.0121 69.5124 35.9438C69.6708 35.8263 69.8364 35.6985 70.0004 35.5615C70.0255 35.5405 70.0243 35.5015 69.9981 35.4811L69.3725 34.9951C69.2772 34.9211 69.271 34.7698 69.3586 34.657C69.4461 34.5443 69.5944 34.5129 69.6896 34.5869L70.3795 35.1229C70.3805 35.1237 70.3815 35.1244 70.3824 35.1252C70.4091 35.1468 70.4499 35.1531 70.4737 35.129C70.6991 34.9005 70.9007 34.655 71.0484 34.3968C71.065 34.3678 71.048 34.331 71.0204 34.3114C71.0182 34.3098 71.016 34.3082 71.0138 34.3065L70.3238 33.7705C70.2286 33.6965 70.2224 33.5451 70.3099 33.4324C70.3975 33.3197 70.5457 33.2883 70.641 33.3623L71.2015 33.7978Z" fill="#9BAF7A"/>
<path d="M69.3614 31.7126C69.5201 31.4813 69.8432 31.4335 70.0678 31.6079C70.2925 31.7824 70.326 32.1074 70.1411 32.3183L66.4888 36.4862C66.4314 36.5517 66.3322 36.5606 66.2624 36.5064C66.1927 36.4522 66.1767 36.3539 66.226 36.2821L69.3614 31.7126Z" fill="#889A6B"/>
<path d="M68.299 44.8786C68.322 44.8673 68.3222 44.8295 68.2986 44.8091C68.179 44.7053 68.0475 44.6259 67.9028 44.5785C67.4682 44.4364 66.9507 44.55 66.5357 44.7536C66.1208 44.9573 65.7143 45.2971 65.5608 45.7279C65.5048 45.8853 65.489 46.0537 65.5044 46.2284C65.5052 46.2381 65.5152 46.2448 65.5223 46.2413L66.045 45.9848C66.1172 45.9494 66.2195 46.01 66.2736 46.1202C66.3277 46.2304 66.313 46.3484 66.2409 46.3839L65.7182 46.6404C65.7026 46.648 65.6855 46.6512 65.6679 46.6503C65.6358 46.6488 65.6034 46.6794 65.6163 46.716C65.7044 46.9656 65.8354 47.219 65.9855 47.4637C66.0065 47.4979 66.0549 47.4924 66.0753 47.4667C66.0847 47.4547 66.0963 47.4451 66.1099 47.4385L66.6325 47.182C66.7047 47.1465 66.807 47.2072 66.8611 47.3174C66.9152 47.4276 66.9005 47.5456 66.8284 47.581L66.3057 47.8375C66.2824 47.849 66.2683 47.8881 66.2875 47.9147C66.3922 48.0602 66.4987 48.199 66.6009 48.3281C66.6628 48.4065 66.7276 48.4849 66.7947 48.5632C66.8041 48.5741 66.8177 48.5766 66.828 48.5715L67.3507 48.315C67.4229 48.2796 67.5252 48.3402 67.5793 48.4504C67.6334 48.5606 67.6187 48.6786 67.5466 48.7141L67.1657 48.9009C67.1436 48.9118 67.1424 48.9476 67.1634 48.9697C67.3581 49.1737 67.5629 49.3742 67.7686 49.5674C67.7806 49.5786 67.7959 49.582 67.808 49.5761L68.0689 49.448C68.1411 49.4126 68.2434 49.4732 68.2975 49.5834C68.3516 49.6936 68.3369 49.8117 68.2647 49.8471L68.1915 49.883C68.1681 49.8945 68.1684 49.9335 68.1922 49.9548C68.4701 50.2031 68.7381 50.4328 68.9727 50.6337C69.0927 50.7366 69.2039 50.8319 69.3033 50.9184C69.3774 50.9829 69.4579 51.0457 69.5429 51.0546C69.6045 51.061 69.6474 51.0399 69.68 50.9873C69.725 50.9146 69.7246 50.8126 69.7189 50.7145C69.7112 50.5829 69.7039 50.4366 69.696 50.2787C69.6805 49.9703 69.6628 49.6178 69.6364 49.246C69.6341 49.2142 69.6035 49.1901 69.5801 49.2016L69.5714 49.2058C69.4993 49.2412 69.3969 49.1806 69.3428 49.0704C69.2888 48.9602 69.3034 48.8422 69.3756 48.8068L69.572 48.7104C69.584 48.7045 69.5907 48.6903 69.5891 48.674C69.5622 48.393 69.5289 48.1083 69.4866 47.8296C69.482 47.7994 69.4529 47.7785 69.4308 47.7893L69.1146 47.9445C69.0424 47.98 68.9401 47.9193 68.886 47.8091C68.8319 47.6989 68.8466 47.5809 68.9187 47.5455L69.3726 47.3227C69.3862 47.3161 69.3928 47.2992 69.3889 47.2808C69.3685 47.1827 69.3467 47.0863 69.3233 46.992C69.2831 46.8299 69.2377 46.658 69.1858 46.4836C69.1778 46.4568 69.1516 46.4409 69.1317 46.4506L68.6577 46.6832C68.5856 46.7187 68.4832 46.658 68.4292 46.5478C68.3751 46.4376 68.3897 46.3196 68.4619 46.2842L68.9846 46.0277C68.9853 46.0273 68.9861 46.027 68.9868 46.0266C69.0076 46.0171 69.0216 45.991 69.0113 45.9639C68.9131 45.7067 68.7979 45.459 68.6614 45.244C68.646 45.2198 68.6175 45.2159 68.5978 45.227C68.5962 45.2279 68.5945 45.2288 68.5929 45.2296L68.0702 45.4861C67.9981 45.5215 67.8957 45.4609 67.8416 45.3507C67.7876 45.2405 67.8022 45.1224 67.8744 45.087L68.299 44.8786Z" fill="#9BAF7A"/>
<path d="M66.4682 45.2811C66.3522 45.0698 66.3979 44.8213 66.568 44.7378C66.7382 44.6543 66.9627 44.7702 67.0589 44.9912L68.959 49.3581C68.9889 49.4267 68.9709 49.5005 68.9181 49.5265C68.8653 49.5524 68.7959 49.5214 68.7599 49.4558L66.4682 45.2811Z" fill="#889A6B"/>
<path d="M71.7688 56.9897C71.7999 56.9978 71.8271 56.9773 71.8181 56.9515C71.7722 56.8206 71.6971 56.6956 71.5858 56.58C71.2516 56.2325 70.6514 55.973 70.0899 55.8264C69.5283 55.6797 68.878 55.6126 68.4165 55.7522C68.2479 55.8032 68.1118 55.8853 68.0024 55.9901C67.9964 55.9959 68.0016 56.0058 68.0112 56.0083L68.7185 56.193C68.8162 56.2186 68.8755 56.3152 68.851 56.4089C68.8266 56.5026 68.7276 56.5578 68.6299 56.5323L67.9226 56.3476C67.9015 56.3421 67.8821 56.3332 67.865 56.3218C67.834 56.301 67.7796 56.2976 67.7664 56.3256C67.6765 56.5165 67.6269 56.7359 67.6027 56.9627C67.5993 56.9944 67.6518 57.0214 67.6906 57.0201C67.7085 57.0194 67.727 57.0214 67.7454 57.0262L68.4527 57.2109C68.5504 57.2364 68.6097 57.333 68.5852 57.4267C68.5607 57.5204 68.4617 57.5757 68.3641 57.5502L67.6568 57.3654C67.6252 57.3572 67.5831 57.3698 67.5833 57.3962C67.5845 57.5406 67.5921 57.6825 67.6023 57.8164C67.6085 57.8976 67.6175 57.9806 67.6289 58.0649C67.6304 58.0767 67.6423 58.0865 67.6564 58.0902L68.3637 58.2749C68.4613 58.3004 68.5207 58.3971 68.4962 58.4907C68.4717 58.5844 68.3727 58.6397 68.2751 58.6142L67.7597 58.4796C67.7298 58.4718 67.703 58.4905 67.7083 58.5157C67.7578 58.7478 67.82 58.9844 67.8884 59.2175C67.8923 59.2311 67.9053 59.2425 67.9216 59.2467L68.2747 59.3389C68.3723 59.3645 68.4317 59.4611 68.4072 59.5548C68.3827 59.6485 68.2837 59.7037 68.1861 59.6782L68.087 59.6524C68.0553 59.6441 68.0278 59.6655 68.0364 59.6919C68.1377 60 68.2425 60.2917 68.3342 60.5469C68.3811 60.6776 68.4246 60.7987 68.4624 60.9076C68.4907 60.9888 68.5265 61.073 68.6054 61.1306C68.6626 61.1724 68.7207 61.1876 68.791 61.1791C68.888 61.1674 68.9604 61.1115 69.0248 61.0545C69.1111 60.978 69.2082 60.8936 69.313 60.8026C69.5178 60.6247 69.7518 60.4215 69.9909 60.2023C70.0113 60.1836 69.9978 60.1514 69.9661 60.1431L69.9544 60.1401C69.8567 60.1146 69.7974 60.0179 69.8219 59.9242C69.8463 59.8305 69.9453 59.7753 70.043 59.8008L70.3087 59.8702C70.325 59.8744 70.3418 59.8709 70.352 59.861C70.5256 59.691 70.6955 59.5151 70.8522 59.3367C70.8692 59.3175 70.8549 59.288 70.825 59.2802L70.397 59.1684C70.2994 59.1429 70.2401 59.0463 70.2645 58.9526C70.289 58.8589 70.388 58.8036 70.4857 58.8291L71.0999 58.9895C71.1182 58.9943 71.1369 58.9892 71.1462 58.9768C71.1958 58.9106 71.2428 58.8445 71.2866 58.7785C71.3621 58.6651 71.4393 58.5432 71.5118 58.4158C71.523 58.3963 71.508 58.3713 71.4811 58.3643L70.8397 58.1967C70.742 58.1712 70.6827 58.0746 70.7072 57.9809C70.7317 57.8872 70.8307 57.832 70.9283 57.8575L71.6356 58.0422C71.6366 58.0425 71.6376 58.0427 71.6386 58.043C71.6663 58.0507 71.699 58.0452 71.708 58.024C71.7932 57.8227 71.8546 57.6161 71.8713 57.414C71.8731 57.3913 71.8472 57.3714 71.8196 57.3653C71.8173 57.3648 71.8151 57.3642 71.8129 57.3636L71.1055 57.1789C71.0079 57.1534 70.9485 57.0568 70.973 56.9631C70.9975 56.8694 71.0965 56.8141 71.1942 56.8396L71.7688 56.9897Z" fill="#9BAF7A"/>
<path d="M69.6454 56.0721C69.68 55.8848 69.9033 55.7776 70.1336 55.8378C70.3639 55.8979 70.5062 56.1006 70.4448 56.2809L69.2315 59.8427C69.2125 59.8987 69.1417 59.9278 69.0702 59.9092C68.9988 59.8905 68.9513 59.8305 68.9621 59.7724L69.6454 56.0721Z" fill="#889A6B"/>
<path d="M75.9631 53.592C75.9407 53.5637 75.8953 53.5695 75.88 53.6035C75.8024 53.7762 75.7585 53.9605 75.7581 54.1571C75.7571 54.7473 76.0945 55.4054 76.4997 55.9152C76.9049 56.4249 77.4698 56.9021 78.0451 57.0343C78.2553 57.0826 78.463 57.0765 78.6661 57.0288C78.6773 57.0261 78.6815 57.012 78.6746 57.0033L78.1642 56.3611C78.0937 56.2725 78.1264 56.1292 78.2373 56.0411C78.3481 55.953 78.4951 55.9534 78.5656 56.0421L79.076 56.6842C79.0912 56.7034 79.1016 56.7252 79.1075 56.7484C79.1181 56.7905 79.1674 56.828 79.2061 56.8053C79.4706 56.6506 79.7228 56.4395 79.9573 56.2046C79.9901 56.1717 79.9647 56.1093 79.9259 56.0868C79.908 56.0764 79.892 56.0628 79.8787 56.0461L79.3683 55.404C79.2979 55.3153 79.3306 55.172 79.4414 55.0839C79.5523 54.9958 79.6993 54.9963 79.7697 55.0849L80.2801 55.7271C80.3029 55.7557 80.3553 55.7679 80.3796 55.7386C80.5129 55.5788 80.6377 55.4177 80.7525 55.2638C80.8221 55.1704 80.8907 55.0734 80.9583 54.9734C80.9678 54.9593 80.9655 54.9412 80.9553 54.9284L80.4449 54.2863C80.3744 54.1977 80.4072 54.0544 80.518 53.9663C80.6289 53.8782 80.7758 53.8786 80.8463 53.9673L81.2182 54.4351C81.2398 54.4623 81.2831 54.4583 81.3013 54.4272C81.4697 54.1407 81.63 53.8414 81.7812 53.542C81.79 53.5245 81.7881 53.504 81.7763 53.4892L81.5215 53.1686C81.451 53.08 81.4837 52.9367 81.5946 52.8486C81.7054 52.7605 81.8524 52.7609 81.9229 52.8496L81.9944 52.9396C82.0173 52.9684 82.0638 52.9617 82.08 52.9273C82.2691 52.5249 82.4396 52.1384 82.5889 51.8002C82.6652 51.6271 82.736 51.4667 82.8009 51.3232C82.8493 51.2162 82.8931 51.1011 82.8706 50.9887C82.8544 50.9072 82.8124 50.8544 82.7368 50.8202C82.6322 50.773 82.5103 50.7897 82.3951 50.8127C82.2407 50.8435 82.0684 50.8763 81.8825 50.9116C81.5193 50.9807 81.1044 51.0596 80.6697 51.153C80.6325 51.161 80.6155 51.2049 80.6384 51.2337L80.6469 51.2443C80.7174 51.3329 80.6846 51.4762 80.5738 51.5643C80.4629 51.6524 80.316 51.652 80.2455 51.5633L80.0537 51.3221C80.042 51.3073 80.0224 51.3008 80.0034 51.3054C79.6777 51.3851 79.3499 51.4737 79.0327 51.5731C78.9984 51.5839 78.9847 51.6252 79.0063 51.6524L79.3151 52.0409C79.3856 52.1295 79.3529 52.2728 79.242 52.3609C79.1312 52.449 78.9842 52.4486 78.9137 52.3599L78.4705 51.8023C78.4573 51.7857 78.4345 51.7797 78.4139 51.7877C78.3045 51.8298 78.1976 51.8736 78.0939 51.9191C77.9154 51.9974 77.7275 52.0839 77.5389 52.1793C77.51 52.194 77.5011 52.2308 77.5205 52.2552L77.9833 52.8375C78.0538 52.9261 78.0211 53.0694 77.9102 53.1575C77.7994 53.2456 77.6524 53.2452 77.5819 53.1565L77.0715 52.5144C77.0708 52.5135 77.0701 52.5126 77.0694 52.5117C77.0499 52.486 77.0132 52.4718 76.9848 52.4897C76.7152 52.6586 76.4636 52.8483 76.2593 53.0607C76.2364 53.0846 76.2429 53.1226 76.2638 53.1465C76.2655 53.1485 76.2672 53.1505 76.2688 53.1525L76.7792 53.7946C76.8496 53.8833 76.8169 54.0266 76.7061 54.1147C76.5952 54.2028 76.4482 54.2023 76.3778 54.1137L75.9631 53.592Z" fill="#9BAF7A"/>
<path d="M77.1573 55.9198C76.9495 56.1048 76.6343 56.0845 76.4682 55.8755C76.302 55.6664 76.3534 55.3548 76.5805 55.1941L81.0674 52.0202C81.1379 51.9703 81.2333 51.982 81.2849 52.0469C81.3364 52.1118 81.3264 52.2074 81.2619 52.2648L77.1573 55.9198Z" fill="#889A6B"/>
<path d="M76.1896 19.5594C76.2451 19.5527 76.2745 19.4907 76.2424 19.4451C76.0792 19.213 75.8732 19.0148 75.6156 18.8624C74.8418 18.4046 73.7023 18.3238 72.702 18.4437C71.7018 18.5636 70.6137 18.9114 69.97 19.539C69.7348 19.7683 69.573 20.0366 69.4696 20.3312C69.4639 20.3475 69.4791 20.3637 69.4962 20.3616L70.7562 20.2106C70.9301 20.1898 71.0914 20.3421 71.1164 20.5509C71.1415 20.7596 71.0207 20.9457 70.8468 20.9666L69.5868 21.1176C69.5492 21.1221 69.5121 21.1185 69.4769 21.108C69.413 21.0889 69.3234 21.1224 69.3214 21.1891C69.3083 21.6443 69.3793 22.1276 69.4959 22.6067C69.5122 22.6737 69.6148 22.6897 69.676 22.658C69.7044 22.6433 69.7353 22.6335 69.768 22.6296L71.028 22.4785C71.2019 22.4577 71.3633 22.61 71.3883 22.8188C71.4133 23.0275 71.2926 23.2137 71.1186 23.2345L69.8586 23.3855C69.8024 23.3923 69.7437 23.4493 69.7621 23.5028C69.863 23.7956 69.9725 24.0784 70.0806 24.343C70.1462 24.5036 70.2174 24.6657 70.2934 24.8288C70.3041 24.8516 70.3298 24.8627 70.3548 24.8597L71.6148 24.7087C71.7888 24.6878 71.9501 24.8402 71.9751 25.0489C72.0001 25.2577 71.8794 25.4438 71.7054 25.4647L70.7874 25.5747C70.7341 25.5811 70.704 25.6392 70.7298 25.6863C70.9683 26.1216 71.23 26.5564 71.4994 26.9796C71.5151 27.0043 71.5436 27.0177 71.5726 27.0142L72.2016 26.9389C72.3756 26.918 72.5369 27.0703 72.5619 27.2791C72.5869 27.4878 72.4662 27.674 72.2922 27.6948L72.1157 27.716C72.0592 27.7228 72.0299 27.7869 72.0618 27.834C72.4354 28.3851 72.8032 28.9004 73.125 29.3512C73.2898 29.582 73.4425 29.7959 73.5778 29.9891C73.6787 30.1333 73.7939 30.2778 73.9598 30.3363C74.08 30.3786 74.1835 30.3662 74.2903 30.2967C74.4377 30.2006 74.5155 30.033 74.5795 29.8691C74.6653 29.6493 74.7631 29.4054 74.8687 29.1422C75.0749 28.628 75.3105 28.0405 75.5432 27.4167C75.5631 27.3634 75.5195 27.308 75.4629 27.3148L75.4421 27.3173C75.2681 27.3381 75.1068 27.1858 75.0818 26.9771C75.0568 26.7683 75.1775 26.5822 75.3515 26.5613L75.8248 26.5046C75.8539 26.5011 75.8784 26.4813 75.8878 26.4536C76.0495 25.9787 76.2011 25.4944 76.3299 25.015C76.3439 24.9632 76.3009 24.9139 76.2476 24.9202L75.4853 25.0116C75.3113 25.0325 75.15 24.8801 75.125 24.6714C75.1 24.4626 75.2207 24.2765 75.3947 24.2556L76.4888 24.1245C76.5214 24.1206 76.5478 24.0963 76.5542 24.0641C76.5884 23.8926 76.6183 23.7231 76.6434 23.5563C76.6865 23.2695 76.7265 22.9641 76.7555 22.651C76.7599 22.603 76.7188 22.5633 76.6709 22.569L75.5284 22.706C75.3545 22.7268 75.1932 22.5745 75.1681 22.3657C75.1431 22.157 75.2639 21.9708 75.4378 21.95L76.6978 21.799C76.6995 21.7987 76.7013 21.7986 76.7031 21.7984C76.7527 21.7934 76.8013 21.7579 76.8012 21.708C76.7999 21.2353 76.7565 20.7694 76.6447 20.346C76.6321 20.2984 76.577 20.2773 76.5284 20.2853C76.5245 20.286 76.5205 20.2865 76.5165 20.287L75.2566 20.438C75.0826 20.4589 74.9213 20.3066 74.8963 20.0978C74.8713 19.8891 74.992 19.7029 75.166 19.6821L76.1896 19.5594Z" fill="#9BAF7A"/>
<path d="M72.1584 19.2744C72.0854 18.8678 72.3697 18.4836 72.7799 18.4344C73.1901 18.3852 73.5571 18.6914 73.5823 19.1038L74.0801 27.2509C74.0879 27.3789 73.9945 27.4908 73.8672 27.5061C73.7399 27.5213 73.6227 27.4346 73.6001 27.3084L72.1584 19.2744Z" fill="#889A6B"/>
<path d="M53.304 15.9999C53.3375 15.9959 53.3566 15.9697 53.3384 15.9516C53.2456 15.8596 53.1264 15.7825 52.9751 15.7256C52.5207 15.5545 51.838 15.5473 51.2343 15.6197C50.6306 15.692 49.969 15.8604 49.5678 16.1339C49.4213 16.2339 49.3179 16.3483 49.2491 16.4722C49.2453 16.479 49.254 16.4853 49.2643 16.4841L50.0248 16.393C50.1298 16.3804 50.2232 16.4395 50.2334 16.525C50.2437 16.6106 50.1669 16.6901 50.0619 16.7027L49.3015 16.7938C49.2787 16.7965 49.2566 16.7959 49.2356 16.7924C49.1977 16.786 49.1431 16.8019 49.1404 16.8294C49.1221 17.0174 49.1536 17.2151 49.2127 17.4101C49.221 17.4373 49.2823 17.4416 49.3198 17.4271C49.3372 17.4204 49.3559 17.4156 49.3757 17.4133L50.1361 17.3221C50.2411 17.3095 50.3345 17.3687 50.3448 17.4542C50.355 17.5397 50.2782 17.6193 50.1733 17.6318L49.4128 17.723C49.3789 17.7271 49.3423 17.7519 49.3522 17.7736C49.4061 17.892 49.4653 18.0061 49.5242 18.1128C49.56 18.1775 49.5991 18.2428 49.641 18.3083C49.6469 18.3175 49.6621 18.3214 49.6772 18.3196L50.4376 18.2285C50.5426 18.2159 50.636 18.275 50.6463 18.3606C50.6565 18.4461 50.5797 18.5256 50.4747 18.5382L49.9207 18.6046C49.8885 18.6085 49.8691 18.6331 49.8835 18.652C50.0168 18.826 50.1641 18.9994 50.3163 19.1678C50.3251 19.1776 50.3419 19.1825 50.3594 19.1804L50.7391 19.1349C50.8441 19.1223 50.9375 19.1814 50.9477 19.2669C50.958 19.3525 50.8812 19.432 50.7762 19.4446L50.6697 19.4574C50.6356 19.4614 50.6165 19.4886 50.6346 19.5073C50.8464 19.726 51.0555 19.9301 51.2386 20.1087C51.3323 20.2001 51.4191 20.2848 51.496 20.3614C51.5533 20.4186 51.6192 20.4755 51.7176 20.4958C51.7888 20.5106 51.8513 20.5031 51.917 20.4719C52.0078 20.4289 52.0583 20.358 52.1006 20.289C52.1571 20.1963 52.2215 20.0935 52.2909 19.9825C52.4266 19.7657 52.5816 19.518 52.7357 19.2554C52.7489 19.233 52.7239 19.2111 52.6898 19.2152L52.6772 19.2167C52.5722 19.2293 52.4788 19.1702 52.4686 19.0847C52.4583 18.9991 52.5351 18.9196 52.6401 18.907L52.9258 18.8728C52.9433 18.8707 52.9585 18.8619 52.9648 18.8503C53.0728 18.6507 53.175 18.4475 53.2634 18.2469C53.2729 18.2251 53.2482 18.2058 53.2161 18.2096L52.756 18.2648C52.651 18.2774 52.5576 18.2182 52.5473 18.1327C52.5371 18.0472 52.6139 17.9677 52.7189 17.9551L53.3792 17.8759C53.3989 17.8736 53.4153 17.8629 53.4199 17.8495C53.4443 17.778 53.4662 17.7074 53.4851 17.638C53.5176 17.5187 53.5486 17.3919 53.5732 17.2621C53.577 17.2422 53.5532 17.2267 53.5242 17.2302L52.8347 17.3128C52.7297 17.3254 52.6363 17.2663 52.626 17.1808C52.6158 17.0952 52.6926 17.0157 52.7976 17.0031L53.558 16.912C53.5591 16.9119 53.5602 16.9117 53.5612 16.9116C53.5912 16.9084 53.6211 16.8927 53.6222 16.8721C53.6322 16.6772 53.6169 16.486 53.5594 16.3139C53.5529 16.2946 53.5203 16.2872 53.4909 16.2916C53.4885 16.2919 53.4862 16.2923 53.4838 16.2925L52.7233 16.3837C52.6184 16.3963 52.5249 16.3371 52.5147 16.2516C52.5044 16.1661 52.5812 16.0865 52.6862 16.074L53.304 15.9999Z" fill="#9BAF7A"/>
<path d="M50.8886 15.9747C50.8541 15.8087 51.0337 15.6437 51.2813 15.614C51.5288 15.5843 51.7423 15.7022 51.748 15.8717L51.8605 19.2205C51.8622 19.2732 51.8036 19.3214 51.7267 19.3307C51.6499 19.3399 51.5815 19.3068 51.5708 19.2553L50.8886 15.9747Z" fill="#889A6B"/>
<path d="M55.304 14.769C55.3375 14.773 55.3566 14.7993 55.3384 14.8174C55.2456 14.9094 55.1264 14.9864 54.9751 15.0433C54.5207 15.2144 53.838 15.2216 53.2343 15.1493C52.6306 15.0769 51.969 14.9086 51.5678 14.635C51.4213 14.535 51.3179 14.4207 51.2491 14.2968C51.2453 14.2899 51.254 14.2836 51.2643 14.2848L52.0248 14.376C52.1298 14.3885 52.2232 14.3294 52.2334 14.2439C52.2437 14.1584 52.1669 14.0788 52.0619 14.0662L51.3015 13.9751C51.2787 13.9724 51.2566 13.973 51.2356 13.9765C51.1977 13.983 51.1431 13.9671 51.1404 13.9395C51.1221 13.7515 51.1536 13.5538 51.2127 13.3588C51.221 13.3316 51.2823 13.3274 51.3198 13.3418C51.3372 13.3485 51.3559 13.3533 51.3757 13.3557L52.1361 13.4468C52.2411 13.4594 52.3345 13.4003 52.3448 13.3147C52.355 13.2292 52.2782 13.1497 52.1733 13.1371L51.4128 13.0459C51.3789 13.0419 51.3423 13.017 51.3522 12.9954C51.4061 12.8769 51.4653 12.7628 51.5242 12.6561C51.56 12.5914 51.5991 12.5261 51.641 12.4606C51.6469 12.4514 51.6621 12.4475 51.6772 12.4493L52.4376 12.5404C52.5426 12.553 52.636 12.4939 52.6463 12.4084C52.6565 12.3228 52.5797 12.2433 52.4747 12.2307L51.9207 12.1643C51.8885 12.1604 51.8691 12.1358 51.8835 12.117C52.0168 11.9429 52.1641 11.7696 52.3163 11.6012C52.3251 11.5913 52.3419 11.5865 52.3594 11.5886L52.7391 11.6341C52.8441 11.6466 52.9375 11.5875 52.9477 11.502C52.958 11.4165 52.8812 11.3369 52.7762 11.3243L52.6697 11.3116C52.6356 11.3075 52.6165 11.2804 52.6346 11.2616C52.8464 11.0429 53.0555 10.8388 53.2386 10.6602C53.3323 10.5688 53.4191 10.4841 53.496 10.4075C53.5533 10.3504 53.6192 10.2934 53.7176 10.2731C53.7888 10.2584 53.8513 10.2658 53.917 10.297C54.0078 10.34 54.0583 10.4109 54.1006 10.48C54.1571 10.5726 54.2215 10.6754 54.2909 10.7864C54.4266 11.0032 54.5816 11.2509 54.7357 11.5135C54.7489 11.5359 54.7239 11.5578 54.6898 11.5537L54.6772 11.5522C54.5722 11.5396 54.4788 11.5987 54.4686 11.6843C54.4583 11.7698 54.5351 11.8493 54.6401 11.8619L54.9258 11.8962C54.9433 11.8983 54.9585 11.907 54.9648 11.9186C55.0728 12.1182 55.175 12.3214 55.2634 12.5221C55.2729 12.5438 55.2482 12.5631 55.2161 12.5593L54.756 12.5041C54.651 12.4916 54.5576 12.5507 54.5473 12.6362C54.5371 12.7217 54.6139 12.8013 54.7189 12.8139L55.3792 12.893C55.3989 12.8954 55.4153 12.906 55.4199 12.9194C55.4443 12.9909 55.4662 13.0615 55.4851 13.1309C55.5176 13.2502 55.5486 13.3771 55.5732 13.5068C55.577 13.5268 55.5532 13.5422 55.5242 13.5387L54.8347 13.4561C54.7297 13.4435 54.6363 13.5026 54.626 13.5882C54.6158 13.6737 54.6926 13.7532 54.7976 13.7658L55.558 13.8569C55.5591 13.8571 55.5602 13.8572 55.5612 13.8573C55.5912 13.8605 55.6211 13.8763 55.6222 13.8968C55.6322 14.0917 55.6169 14.2829 55.5594 14.455C55.5529 14.4743 55.5203 14.4818 55.4909 14.4773C55.4885 14.477 55.4862 14.4767 55.4838 14.4764L54.7233 14.3852C54.6184 14.3727 54.5249 14.4318 54.5147 14.5173C54.5044 14.6028 54.5812 14.6824 54.6862 14.695L55.304 14.769Z" fill="#9BAF7A"/>
<path d="M52.8886 14.7942C52.8541 14.9602 53.0337 15.1252 53.2813 15.1549C53.5288 15.1846 53.7423 15.0667 53.748 14.8972L53.8605 11.5484C53.8622 11.4958 53.8036 11.4475 53.7267 11.4383C53.6499 11.4291 53.5815 11.4621 53.5708 11.5137L52.8886 14.7942Z" fill="#889A6B"/>
<path d="M24.2431 14.9347C24.2814 14.9155 24.2913 14.8725 24.2602 14.8559C24.1023 14.7713 23.9199 14.7177 23.709 14.7042C23.0756 14.6638 22.2493 14.9371 21.5581 15.284C20.8669 15.631 20.1541 16.1303 19.808 16.6624C19.6815 16.8568 19.6144 17.0525 19.5936 17.2467C19.5924 17.2575 19.6061 17.2623 19.618 17.2564L20.4886 16.8194C20.6088 16.759 20.7511 16.7994 20.8063 16.9095C20.8616 17.0196 20.809 17.1578 20.6888 17.2181L19.8181 17.6552C19.7921 17.6682 19.7651 17.6766 19.7381 17.6805C19.6891 17.6876 19.6313 17.7315 19.6419 17.7695C19.7142 18.0285 19.8514 18.2798 20.0205 18.516C20.0441 18.549 20.1201 18.5292 20.158 18.4943C20.1756 18.4782 20.1958 18.464 20.2185 18.4527L21.0891 18.0157C21.2093 17.9553 21.3516 17.9957 21.4068 18.1058C21.4621 18.2159 21.4095 18.3541 21.2893 18.4144L20.4186 18.8514C20.3798 18.8709 20.3482 18.9194 20.3709 18.9442C20.4953 19.0803 20.624 19.2083 20.7485 19.3266C20.8241 19.3983 20.9039 19.4693 20.9873 19.5395C20.999 19.5494 21.0193 19.5484 21.0366 19.5397L21.9072 19.1027C22.0275 19.0424 22.1697 19.0827 22.225 19.1928C22.2803 19.3029 22.2276 19.4411 22.1074 19.5015L21.4731 19.8199C21.4363 19.8384 21.4252 19.8794 21.452 19.8986C21.7 20.0761 21.9645 20.2468 22.2324 20.4089C22.248 20.4184 22.2707 20.418 22.2907 20.4079L22.7254 20.1897C22.8456 20.1294 22.9879 20.1697 23.0431 20.2799C23.0984 20.39 23.0458 20.5282 22.9256 20.5885L22.8036 20.6497C22.7645 20.6693 22.7551 20.7135 22.7863 20.731C23.1514 20.9357 23.5058 21.1219 23.8161 21.2849C23.9748 21.3683 24.122 21.4456 24.253 21.5161C24.3508 21.5688 24.4588 21.6176 24.5876 21.6041C24.6808 21.5942 24.7523 21.5583 24.8159 21.4894C24.9037 21.3943 24.9291 21.2786 24.9452 21.1687C24.967 21.0214 24.9929 20.8572 25.0209 20.6801C25.0756 20.334 25.1381 19.9385 25.192 19.5235C25.1966 19.488 25.1556 19.4691 25.1165 19.4887L25.1021 19.4959C24.9819 19.5563 24.8396 19.5159 24.7844 19.4058C24.7291 19.2957 24.7817 19.1575 24.9019 19.0972L25.229 18.933C25.2491 18.9229 25.263 18.905 25.2647 18.8868C25.2948 18.5751 25.3159 18.2611 25.3217 17.9561C25.3223 17.9231 25.2829 17.9075 25.246 17.926L24.7193 18.1904C24.5991 18.2507 24.4568 18.2104 24.4015 18.1003C24.3463 17.9902 24.3989 17.852 24.5191 17.7916L25.2752 17.4121C25.2977 17.4008 25.3121 17.3798 25.3109 17.3599C25.3045 17.2542 25.2954 17.1507 25.2834 17.0502C25.2626 16.8772 25.2364 16.6946 25.2009 16.5109C25.1954 16.4827 25.159 16.472 25.1259 16.4886L24.3364 16.8849C24.2162 16.9452 24.074 16.9048 24.0187 16.7947C23.9634 16.6846 24.0161 16.5464 24.1363 16.4861L25.0069 16.0491C25.0081 16.0485 25.0093 16.0478 25.0106 16.0472C25.0451 16.0306 25.0733 15.9971 25.0642 15.9691C24.9785 15.7043 24.864 15.4551 24.7084 15.2488C24.6909 15.2256 24.6478 15.2292 24.6147 15.2473C24.612 15.2487 24.6093 15.2502 24.6065 15.2515L23.7359 15.6886C23.6157 15.7489 23.4735 15.7086 23.4182 15.5984C23.3629 15.4883 23.4156 15.3501 23.5358 15.2898L24.2431 14.9347Z" fill="#9BAF7A"/>
<path d="M21.3198 15.9021C21.1948 15.6944 21.3284 15.3993 21.6119 15.257C21.8953 15.1148 22.2117 15.1839 22.3037 15.4082L24.1197 19.8395C24.1483 19.9092 24.1018 19.998 24.0139 20.0422C23.9259 20.0864 23.8269 20.0705 23.7881 20.006L21.3198 15.9021Z" fill="#889A6B"/>
<path d="M5.92693 4.29927C5.90576 4.26201 5.86228 4.25435 5.84726 4.28624C5.77093 4.4483 5.7268 4.63317 5.72423 4.84448C5.71648 5.47915 6.03194 6.29032 6.41403 6.96273C6.79611 7.63512 7.33148 8.32129 7.88066 8.63951C8.08134 8.7558 8.28028 8.81279 8.47528 8.82355C8.48605 8.82414 8.49021 8.8102 8.48366 8.79869L8.00239 7.95173C7.93594 7.83479 7.96891 7.69064 8.07604 7.62977C8.18316 7.5689 8.32387 7.61436 8.39032 7.7313L8.87159 8.57826C8.88597 8.60357 8.8957 8.63016 8.90102 8.6569C8.91068 8.70543 8.95748 8.7609 8.99483 8.74838C9.2498 8.66288 9.49368 8.51285 9.72085 8.33188C9.75261 8.30659 9.72897 8.23169 9.69216 8.19561C9.6751 8.17889 9.65996 8.15941 9.64744 8.13739L9.16617 7.29043C9.09972 7.17349 9.13269 7.02934 9.23982 6.96847C9.34694 6.9076 9.48765 6.95305 9.5541 7.06999L10.0354 7.91695C10.0568 7.95475 10.1068 7.98385 10.1305 7.95985C10.2599 7.82861 10.3812 7.69347 10.4929 7.56304C10.5606 7.48391 10.6274 7.40052 10.6933 7.31358C10.7025 7.3014 10.7005 7.28117 10.6909 7.26435L10.2096 6.41739C10.1432 6.30045 10.1762 6.1563 10.2833 6.09543C10.3904 6.03456 10.5311 6.08001 10.5976 6.19695L10.9482 6.81403C10.9686 6.84987 11.0101 6.85878 11.0279 6.831C11.1924 6.57421 11.3493 6.30129 11.4974 6.02542C11.506 6.00934 11.5045 5.9867 11.4934 5.96718L11.2531 5.54434C11.1866 5.4274 11.2196 5.28326 11.3267 5.22239C11.4339 5.16152 11.5746 5.20697 11.641 5.32391L11.7084 5.44256C11.73 5.48056 11.7746 5.48767 11.7905 5.4556C11.9762 5.08053 12.1439 4.71693 12.2906 4.39873C12.3657 4.23589 12.4353 4.08494 12.4991 3.95042C12.5466 3.85006 12.5899 3.73972 12.5697 3.61183C12.555 3.51925 12.5155 3.44965 12.4434 3.3897C12.3439 3.3069 12.227 3.28754 12.1164 3.27703C11.9682 3.26293 11.8029 3.24547 11.6246 3.22664C11.2761 3.18985 10.8779 3.14781 10.4607 3.11532C10.425 3.11255 10.4083 3.15452 10.4299 3.19251L10.4378 3.20651C10.5043 3.32345 10.4713 3.4676 10.3642 3.52847C10.2571 3.58934 10.1164 3.54389 10.0499 3.42695L9.86911 3.10876C9.85802 3.08924 9.83938 3.07629 9.82115 3.07548C9.50834 3.06151 9.19358 3.0566 8.88877 3.0665C8.85579 3.06757 8.84219 3.1078 8.86256 3.14364L9.15374 3.65608C9.22019 3.77302 9.18722 3.91716 9.0801 3.97803C8.97297 4.0389 8.83227 3.99345 8.76582 3.87651L8.34788 3.14101C8.33543 3.1191 8.31367 3.10573 8.29391 3.10796C8.18864 3.11984 8.0858 3.13424 7.98597 3.15145C7.81427 3.18105 7.63335 3.21667 7.4517 3.26161C7.42382 3.2685 7.41493 3.30542 7.43323 3.33762L7.86964 4.10564C7.93609 4.22258 7.90312 4.36672 7.796 4.42759C7.68888 4.48847 7.54817 4.44301 7.48172 4.32607L7.00044 3.47911C6.99976 3.47792 6.99909 3.47672 6.99843 3.47551C6.98003 3.44194 6.9451 3.41549 6.91766 3.42596C6.65761 3.5252 6.4146 3.65236 6.21661 3.81839C6.19436 3.83705 6.20015 3.87989 6.21992 3.91207C6.22151 3.91467 6.22307 3.91731 6.22459 3.91998L6.70586 4.76694C6.77231 4.88388 6.73934 5.02803 6.63222 5.0889C6.52509 5.14977 6.38439 5.10431 6.31794 4.98737L5.92693 4.29927Z" fill="#9BAF7A"/>
<path d="M7.04351 7.16892C6.8425 7.30438 6.54098 7.18614 6.3843 6.9104C6.22761 6.63466 6.28036 6.3151 6.49962 6.21175L10.8316 4.16988C10.8996 4.13779 10.9908 4.17959 11.0394 4.26519C11.0881 4.35078 11.0773 4.45049 11.0149 4.49254L7.04351 7.16892Z" fill="#889A6B"/>
<path d="M22.691 56.9726C22.7232 56.9802 22.751 56.9465 22.7414 56.9102C22.6925 56.7256 22.6135 56.5537 22.4973 56.4003C22.1482 55.9395 21.5261 55.6435 20.9452 55.5066C20.3643 55.3697 19.6928 55.3609 19.2187 55.6276C19.0454 55.7251 18.9061 55.8633 18.7946 56.0312C18.7884 56.0404 18.7939 56.0541 18.8039 56.0565L19.5356 56.2289C19.6366 56.2527 19.699 56.3855 19.6749 56.5254C19.6509 56.6653 19.5494 56.7595 19.4484 56.7357L18.7167 56.5632C18.6948 56.5581 18.6748 56.5478 18.657 56.5335C18.6248 56.5075 18.5686 56.5099 18.5554 56.5525C18.465 56.8431 18.4166 57.1698 18.3944 57.5037C18.3913 57.5504 18.4458 57.5826 18.4858 57.5753C18.5043 57.5719 18.5234 57.5722 18.5424 57.5767L19.2741 57.7491C19.3751 57.7729 19.4375 57.9057 19.4134 58.0456C19.3894 58.1855 19.2879 58.2797 19.1869 58.2559L18.4552 58.0834C18.4226 58.0757 18.3793 58.0999 18.3799 58.1384C18.3829 58.3487 18.3925 58.5545 18.4047 58.7482C18.4121 58.8658 18.4224 58.9855 18.4351 59.1069C18.4369 59.124 18.4493 59.1366 18.4638 59.14L19.1955 59.3125C19.2965 59.3363 19.3589 59.469 19.3349 59.6089C19.3108 59.7489 19.2094 59.843 19.1083 59.8192L18.5752 59.6936C18.5443 59.6863 18.5169 59.7173 18.5227 59.7531C18.5766 60.0848 18.6436 60.4212 18.717 60.7517C18.7213 60.771 18.7348 60.7857 18.7516 60.7897L19.1169 60.8758C19.218 60.8996 19.2804 61.0323 19.2563 61.1723C19.2322 61.3122 19.1308 61.4063 19.0298 61.3825L18.9273 61.3584C18.8944 61.3506 18.8663 61.3857 18.8756 61.4229C18.9839 61.8582 19.0956 62.2691 19.1933 62.6287C19.2433 62.8127 19.2896 62.9833 19.33 63.1368C19.3601 63.2514 19.3982 63.3692 19.4803 63.4424C19.5397 63.4955 19.5998 63.5097 19.6722 63.4877C19.7721 63.4573 19.8461 63.3659 19.9118 63.2739C19.9998 63.1506 20.0989 63.0143 20.2059 62.8673C20.4149 62.58 20.6537 62.2517 20.8974 61.8994C20.9183 61.8693 20.904 61.8242 20.8711 61.8165L20.859 61.8136C20.758 61.7898 20.6956 61.6571 20.7197 61.5172C20.7438 61.3772 20.8452 61.2831 20.9462 61.3069L21.2211 61.3717C21.238 61.3757 21.2553 61.3682 21.2656 61.3523C21.4426 61.0808 21.6156 60.801 21.7749 60.5196C21.7922 60.4892 21.7771 60.4482 21.7462 60.4409L21.3035 60.3365C21.2024 60.3127 21.1401 60.18 21.1641 60.0401C21.1882 59.9001 21.2896 59.806 21.3906 59.8298L22.0261 59.9796C22.045 59.984 22.0642 59.974 22.0736 59.9546C22.124 59.8514 22.1716 59.7485 22.216 59.6464C22.2924 59.4707 22.3705 59.2824 22.4437 59.0868C22.455 59.0568 22.4392 59.0224 22.4114 59.0158L21.7479 58.8594C21.6469 58.8356 21.5845 58.7029 21.6086 58.5629C21.6326 58.423 21.734 58.3289 21.8351 58.3527L22.5668 58.5251C22.5678 58.5254 22.5688 58.5256 22.5699 58.5259C22.5985 58.5333 22.6321 58.5208 22.6411 58.4886C22.7266 58.1836 22.7873 57.874 22.802 57.5771C22.8036 57.5437 22.7767 57.5183 22.748 57.5131C22.7457 57.5127 22.7434 57.5122 22.7411 57.5117L22.0094 57.3392C21.9084 57.3154 21.846 57.1827 21.8701 57.0427C21.8941 56.9028 21.9955 56.8087 22.0966 56.8325L22.691 56.9726Z" fill="#9BAF7A"/>
<path d="M20.49 55.9257C20.5233 55.6479 20.7522 55.4611 20.9904 55.5172C21.2287 55.5734 21.378 55.8493 21.3169 56.1205L20.1099 61.4792C20.0909 61.5634 20.0184 61.6155 19.9444 61.5981C19.8705 61.5807 19.8208 61.4997 19.8312 61.4135L20.49 55.9257Z" fill="#889A6B"/>
<path d="M30.7455 43.8859C30.7923 43.8969 30.8328 43.8473 30.8189 43.7939C30.7485 43.5224 30.6342 43.2697 30.4658 43.0444C29.9602 42.3677 29.0571 41.9347 28.2133 41.7358C27.3696 41.537 26.3937 41.5271 25.7037 41.922C25.4516 42.0663 25.2486 42.2705 25.0861 42.5181C25.0771 42.5318 25.085 42.5519 25.0995 42.5553L26.1623 42.8058C26.309 42.8404 26.3992 43.0355 26.3638 43.2416C26.3283 43.4477 26.1806 43.5868 26.0339 43.5522L24.9711 43.3017C24.9393 43.2942 24.9102 43.2792 24.8844 43.2582C24.8377 43.2201 24.756 43.2239 24.7366 43.2867C24.6044 43.7149 24.5329 44.1962 24.4995 44.6877C24.4949 44.7564 24.5739 44.8037 24.6321 44.7927C24.659 44.7876 24.6867 44.788 24.7143 44.7945L25.7771 45.045C25.9238 45.0796 26.0141 45.2747 25.9786 45.4808C25.9432 45.6869 25.7955 45.826 25.6487 45.7914L24.5859 45.5409C24.5385 45.5297 24.4756 45.5655 24.4763 45.6221C24.4799 45.9318 24.4932 46.2346 24.5103 46.5198C24.5206 46.6928 24.5351 46.8691 24.5533 47.0478C24.5558 47.0728 24.5737 47.0914 24.5948 47.0963L25.6576 47.3468C25.8044 47.3814 25.8946 47.5765 25.8591 47.7826C25.8237 47.9887 25.676 48.1278 25.5292 48.0932L24.7549 47.9107C24.7099 47.9001 24.67 47.9459 24.6783 47.9987C24.7556 48.4867 24.8518 48.9815 24.9574 49.4678C24.9636 49.4961 24.9831 49.5178 25.0075 49.5236L25.5381 49.6486C25.6849 49.6832 25.7751 49.8783 25.7396 50.0845C25.7042 50.2906 25.5565 50.4296 25.4097 50.395L25.2609 50.3599C25.2132 50.3487 25.1722 50.4005 25.1856 50.4552C25.3415 51.0955 25.5024 51.6999 25.6431 52.2288C25.7152 52.4995 25.782 52.7504 25.8401 52.9762C25.8835 53.1447 25.9384 53.318 26.0575 53.4255C26.1437 53.5033 26.231 53.5238 26.3362 53.4911C26.4815 53.446 26.5894 53.3111 26.6851 53.1754C26.8135 52.9935 26.958 52.7923 27.1139 52.5754C27.4186 52.1514 27.7668 51.667 28.1222 51.1473C28.1526 51.1029 28.132 51.0366 28.0843 51.0254L28.0667 51.0212C27.92 50.9866 27.8298 50.7915 27.8652 50.5854C27.9007 50.3793 28.0484 50.2402 28.1951 50.2748L28.5944 50.3689C28.6189 50.3747 28.6441 50.3635 28.6591 50.3402C28.9172 49.9396 29.1696 49.527 29.4022 49.112C29.4273 49.0671 29.4056 49.0068 29.3606 48.9962L28.7176 48.8446C28.5709 48.8101 28.4807 48.6149 28.5161 48.4088C28.5516 48.2027 28.6993 48.0636 28.846 48.0982L29.769 48.3157C29.7964 48.3222 29.8244 48.3074 29.8382 48.2788C29.9117 48.1266 29.9812 47.975 30.0461 47.8244C30.1578 47.5654 30.2718 47.2878 30.379 46.9995C30.3954 46.9553 30.3726 46.9047 30.3322 46.8952L29.3685 46.668C29.2218 46.6335 29.1315 46.4383 29.167 46.2322C29.2024 46.0261 29.3501 45.8871 29.4969 45.9216L30.5597 46.1721C30.5612 46.1725 30.5627 46.1728 30.5642 46.1732C30.6058 46.184 30.6547 46.1655 30.6679 46.118C30.7931 45.6686 30.8823 45.2125 30.9047 44.7754C30.9072 44.7263 30.8681 44.689 30.8265 44.6814C30.8232 44.6808 30.8198 44.6801 30.8165 44.6793L29.7537 44.4288C29.6069 44.3943 29.5167 44.1991 29.5522 43.993C29.5876 43.7869 29.7353 43.6478 29.8821 43.6824L30.7455 43.8859Z" fill="#9BAF7A"/>
<path d="M27.5503 42.3549C27.5997 41.9458 27.933 41.6698 28.279 41.7513C28.625 41.8329 28.8411 42.2384 28.7514 42.638L26.9792 50.5323C26.9513 50.6563 26.8457 50.7335 26.7383 50.7081C26.6309 50.6828 26.5589 50.5639 26.5743 50.4369L27.5503 42.3549Z" fill="#889A6B"/>
<path d="M25.2439 25.8573C25.2251 25.8318 25.2383 25.7893 25.2688 25.7796C25.4239 25.7302 25.5821 25.7148 25.7421 25.7428C26.2227 25.8268 26.6951 26.2439 27.0343 26.7045C27.3734 27.165 27.6561 27.7735 27.6561 28.3422C27.6561 28.55 27.6123 28.7477 27.5355 28.9349C27.5312 28.9452 27.5189 28.9472 27.5131 28.9393L27.086 28.3591C27.027 28.279 26.9043 28.2897 26.8118 28.3829C26.7194 28.4762 26.6923 28.6167 26.7513 28.6968L27.1784 29.2769C27.1912 29.2943 27.2069 29.3073 27.2247 29.3163C27.257 29.3324 27.2783 29.385 27.2526 29.4187C27.0773 29.6492 26.8583 29.8598 26.6233 30.0501C26.5904 30.0767 26.5444 30.0434 26.5333 30.0031C26.5282 29.9845 26.5201 29.9673 26.509 29.9522L26.0819 29.372C26.0229 29.2919 25.9002 29.3026 25.8077 29.3958C25.7153 29.489 25.6882 29.6296 25.7472 29.7097L26.1743 30.2898C26.1934 30.3157 26.1935 30.3675 26.1651 30.3865C26.0101 30.4909 25.8557 30.5869 25.709 30.6745C25.62 30.7276 25.5282 30.7792 25.4341 30.8294C25.4209 30.8364 25.4066 30.8315 25.3981 30.82L24.971 30.2399C24.912 30.1598 24.7893 30.1704 24.6969 30.2637C24.6044 30.3569 24.5773 30.4974 24.6363 30.5775L24.9475 31.0002C24.9656 31.0247 24.9542 31.0656 24.9255 31.0785C24.6608 31.1982 24.3873 31.3083 24.1154 31.4096C24.0995 31.4155 24.0832 31.4107 24.0734 31.3974L23.8601 31.1077C23.8011 31.0276 23.6784 31.0383 23.586 31.1315C23.4935 31.2247 23.4664 31.3653 23.5254 31.4454L23.5852 31.5266C23.6044 31.5527 23.5903 31.5962 23.5593 31.6067C23.1964 31.7294 22.85 31.8368 22.5469 31.9307C22.3917 31.9788 22.2479 32.0233 22.119 32.0647C22.0228 32.0955 21.9211 32.1207 21.8337 32.0831C21.7705 32.0559 21.7354 32.0082 21.7217 31.931C21.7028 31.8243 21.7392 31.7102 21.7794 31.6034C21.8334 31.4603 21.8922 31.3003 21.9558 31.1278C22.0799 30.7907 22.2217 30.4056 22.379 30.0036C22.3925 29.9693 22.4313 29.9594 22.4505 29.9854L22.4575 29.995C22.5165 30.0751 22.6392 30.0645 22.7317 29.9712C22.8241 29.878 22.8512 29.7375 22.7922 29.6574L22.6318 29.4394C22.6219 29.4261 22.6203 29.4064 22.6276 29.389C22.7534 29.0891 22.8868 28.7887 23.027 28.4999C23.0422 28.4687 23.0783 28.4615 23.0964 28.4861L23.3549 28.8371C23.4138 28.9172 23.5366 28.9065 23.629 28.8133C23.7214 28.7201 23.7485 28.5795 23.6896 28.4994L23.3186 27.9956C23.3076 27.9806 23.307 27.958 23.3173 27.9395C23.3721 27.841 23.4277 27.7451 23.4841 27.6526C23.5811 27.4933 23.6867 27.3262 23.7996 27.1597C23.817 27.1342 23.8486 27.131 23.8648 27.1531L24.2522 27.6792C24.3111 27.7593 24.4339 27.7486 24.5263 27.6554C24.6187 27.5621 24.6458 27.4216 24.5869 27.3415L24.1597 26.7614C24.1591 26.7606 24.1585 26.7598 24.1579 26.7589C24.1407 26.7366 24.136 26.6995 24.1558 26.6749C24.3437 26.4416 24.5452 26.2285 24.7562 26.0639C24.7799 26.0454 24.8096 26.0571 24.8252 26.0805C24.8265 26.0824 24.8278 26.0843 24.8291 26.0861L25.2563 26.6663C25.3152 26.7464 25.438 26.7357 25.5304 26.6425C25.6228 26.5493 25.6499 26.4087 25.591 26.3286L25.2439 25.8573Z" fill="#9BAF7A"/>
<path d="M26.9151 27.3335C27.1045 27.1616 27.1469 26.8575 27.0079 26.6686C26.8688 26.4797 26.6056 26.484 26.4324 26.6779L23.0103 30.5085C22.9566 30.5687 22.9483 30.6615 22.9915 30.7202C23.0346 30.7788 23.1143 30.7829 23.1731 30.7296L26.9151 27.3335Z" fill="#889A6B"/>
<path d="M33.225 51.8995C33.2544 51.8741 33.2565 51.83 33.2279 51.8189C33.0827 51.7623 32.9214 51.7405 32.7419 51.763C32.2027 51.8306 31.5466 52.2402 31.015 52.6994C30.4833 53.1586 29.9556 53.7716 29.7413 54.3547C29.663 54.5678 29.6349 54.7721 29.6455 54.967C29.6461 54.9777 29.6583 54.9802 29.6675 54.9724L30.3371 54.3939C30.4296 54.3141 30.5552 54.3297 30.6177 54.4288C30.6802 54.528 30.6559 54.6731 30.5634 54.7529L29.8938 55.3314C29.8738 55.3487 29.8522 55.3615 29.8301 55.3699C29.7899 55.3853 29.7476 55.4383 29.762 55.4739C29.8604 55.7169 30.0124 55.9413 30.1889 56.1454C30.2136 56.1739 30.2747 56.1415 30.3016 56.1007C30.3141 56.0818 30.3291 56.0644 30.3465 56.0494L31.0161 55.471C31.1086 55.3911 31.2342 55.4067 31.2967 55.5059C31.3592 55.605 31.3349 55.7501 31.2425 55.83L30.5728 56.4084C30.5429 56.4342 30.5233 56.4873 30.5461 56.5079C30.6705 56.6209 30.7975 56.7253 30.9194 56.8206C30.9934 56.8785 31.0709 56.935 31.1514 56.99C31.1626 56.9977 31.1796 56.9933 31.1929 56.9818L31.8626 56.4034C31.955 56.3235 32.0806 56.3392 32.1431 56.4383C32.2056 56.5375 32.1814 56.6826 32.0889 56.7624L31.601 57.1838C31.5727 57.2083 31.5693 57.2506 31.5947 57.265C31.8292 57.3979 32.0766 57.5212 32.3257 57.6355C32.3402 57.6422 32.3592 57.6379 32.3747 57.6246L32.709 57.3358C32.8014 57.256 32.9271 57.2716 32.9896 57.3707C33.0521 57.4699 33.0278 57.615 32.9353 57.6949L32.8415 57.7759C32.8115 57.8018 32.81 57.847 32.8388 57.8589C33.1758 57.9988 33.5012 58.1221 33.786 58.23C33.9318 58.2853 34.0669 58.3365 34.1875 58.3838C34.2774 58.4191 34.3754 58.4489 34.4819 58.4137C34.5589 58.3882 34.6139 58.3406 34.6575 58.262C34.7176 58.1533 34.7222 58.0349 34.7199 57.9239C34.7168 57.7751 34.7149 57.6089 34.7127 57.4295C34.7086 57.0792 34.7039 56.6788 34.6891 56.2607C34.6879 56.2249 34.6506 56.2133 34.6205 56.2392L34.6095 56.2488C34.517 56.3287 34.3914 56.313 34.3289 56.2139C34.2664 56.1148 34.2907 55.9697 34.3831 55.8898L34.6347 55.6725C34.6501 55.6592 34.6592 55.6391 34.6581 55.6209C34.6382 55.3087 34.6104 54.9956 34.5711 54.6941C34.5669 54.6615 34.5314 54.6527 34.503 54.6772L34.0979 55.0272C34.0054 55.107 33.8798 55.0914 33.8173 54.9923C33.7548 54.8931 33.7791 54.748 33.8715 54.6682L34.4531 54.1658C34.4704 54.1509 34.4795 54.1277 34.4756 54.1083C34.4549 54.0052 34.4322 53.9048 34.4075 53.8077C34.365 53.6408 34.3164 53.4654 34.2599 53.2903C34.2512 53.2635 34.219 53.259 34.1935 53.281L33.5863 53.8055C33.4938 53.8854 33.3682 53.8698 33.3057 53.7706C33.2432 53.6715 33.2675 53.5264 33.3599 53.4465L34.0296 52.8681C34.0305 52.8673 34.0315 52.8665 34.0324 52.8657C34.059 52.8434 34.0779 52.8056 34.0663 52.7796C33.9557 52.5332 33.8232 52.307 33.6623 52.1301C33.6442 52.1102 33.6084 52.121 33.5831 52.1445C33.5811 52.1464 33.579 52.1482 33.5769 52.1501L32.9072 52.7285C32.8148 52.8083 32.6892 52.7927 32.6267 52.6936C32.5642 52.5944 32.5884 52.4493 32.6809 52.3695L33.225 51.8995Z" fill="#9BAF7A"/>
<path d="M30.9039 53.3489C30.7686 53.1654 30.8383 52.852 31.0563 52.6637C31.2744 52.4753 31.5508 52.4898 31.6607 52.6952L33.8322 56.7541C33.8663 56.8179 33.8401 56.9134 33.7724 56.9718C33.7047 57.0303 33.6191 57.0314 33.5771 56.9745L30.9039 53.3489Z" fill="#889A6B"/>
<path d="M6.62868 60.9849C6.62311 61.0215 6.65535 61.0531 6.68839 61.042C6.85632 60.9859 7.01124 60.8955 7.14748 60.7628C7.55668 60.3643 7.80207 59.6552 7.9026 58.9935C8.00313 58.3317 7.98161 57.5672 7.7149 57.0279C7.61743 56.8309 7.48385 56.6726 7.32429 56.5461C7.31548 56.5391 7.30309 56.5454 7.30137 56.5567L7.17475 57.3903C7.15726 57.5053 7.03769 57.5767 6.90768 57.5496C6.77767 57.5226 6.68645 57.4074 6.70393 57.2923L6.83056 56.4587C6.83434 56.4338 6.84291 56.4109 6.85533 56.3907C6.87788 56.3539 6.87313 56.29 6.83332 56.275C6.56154 56.1728 6.25829 56.1185 5.94967 56.0941C5.90653 56.0907 5.87918 56.1528 5.88771 56.1983C5.89166 56.2194 5.89222 56.2411 5.88893 56.2627L5.7623 57.0963C5.74482 57.2114 5.62525 57.2827 5.49524 57.2557C5.36523 57.2286 5.274 57.1134 5.29149 56.9983L5.41811 56.1647C5.42376 56.1275 5.39959 56.0784 5.36416 56.0791C5.17048 56.0831 4.98129 56.0945 4.80327 56.1089C4.69528 56.1176 4.58537 56.1296 4.47404 56.1444C4.45845 56.1465 4.44734 56.1606 4.44483 56.1772L4.3182 57.0107C4.30072 57.1258 4.18115 57.1971 4.05114 57.1701C3.92113 57.143 3.8299 57.0278 3.84739 56.9127L3.93964 56.3054C3.945 56.2701 3.91523 56.239 3.88242 56.2457C3.57916 56.3079 3.27217 56.3851 2.97081 56.4695C2.95325 56.4744 2.94023 56.4898 2.93732 56.509L2.8741 56.9251C2.85662 57.0402 2.73705 57.1116 2.60704 57.0845C2.47703 57.0574 2.3858 56.9422 2.40329 56.8271L2.42102 56.7103C2.42671 56.673 2.39315 56.6411 2.35927 56.6517C1.96293 56.7761 1.58922 56.9042 1.26216 57.0164C1.09479 57.0738 0.939632 57.127 0.799916 57.1733C0.695681 57.2079 0.588817 57.2515 0.524924 57.3452C0.478668 57.413 0.468263 57.4815 0.491714 57.5638C0.524108 57.6775 0.611582 57.7615 0.69924 57.836C0.816744 57.9359 0.94673 58.0485 1.08695 58.1699C1.36093 58.4071 1.67399 58.6782 2.00938 58.9549C2.03806 58.9786 2.07895 58.9622 2.08463 58.9248L2.08672 58.911C2.1042 58.7959 2.22377 58.7245 2.35379 58.7516C2.4838 58.7787 2.57502 58.8939 2.55754 59.009L2.50996 59.3221C2.50705 59.3413 2.51474 59.361 2.52977 59.3727C2.78781 59.5735 3.05325 59.7698 3.3196 59.9506C3.34842 59.9702 3.38554 59.9529 3.3909 59.9177L3.46751 59.4133C3.48499 59.2983 3.60456 59.2269 3.73457 59.254C3.86459 59.281 3.95581 59.3962 3.93832 59.5113L3.82836 60.2352C3.82509 60.2567 3.83518 60.2786 3.85345 60.2893C3.9508 60.3464 4.04768 60.4003 4.14377 60.4506C4.30905 60.5372 4.486 60.6256 4.6695 60.7085C4.69766 60.7212 4.72866 60.7032 4.73347 60.6716L4.8483 59.9157C4.86578 59.8006 4.98535 59.7293 5.11536 59.7563C5.24537 59.7834 5.3366 59.8986 5.31911 60.0137L5.19249 60.8472L5.19192 60.8508C5.18633 60.8834 5.19935 60.9216 5.2294 60.9318C5.51423 61.0283 5.80224 61.0967 6.07648 61.1127C6.1073 61.1145 6.12953 61.0837 6.13309 61.0511C6.13337 61.0485 6.13372 61.0459 6.13412 61.0432L6.26074 60.2097C6.27823 60.0946 6.39779 60.0232 6.52781 60.0503C6.65782 60.0773 6.74904 60.1926 6.73156 60.3077L6.62868 60.9849Z" fill="#9BAF7A"/>
<path d="M7.49631 58.4761C7.75375 58.5134 7.936 58.7736 7.89478 59.045C7.85355 59.3163 7.60584 59.487 7.35321 59.4181L2.36188 58.0572C2.28346 58.0358 2.2322 57.9533 2.245 57.8691C2.2578 57.7848 2.33021 57.7281 2.41012 57.7396L7.49631 58.4761Z" fill="#889A6B"/>
<path d="M11.4772 61.4321C11.5142 61.3968 11.5072 61.3287 11.4631 61.3073C11.2392 61.1985 10.9999 61.1412 10.7443 61.1502C9.9766 61.1774 9.11718 61.7186 8.4499 62.3549C7.78265 62.9912 7.15617 63.867 6.97827 64.7416C6.91327 65.0612 6.91906 65.3744 6.9791 65.6786C6.98241 65.6954 7.00076 65.701 7.01219 65.6901L7.85268 64.8886C7.96872 64.7779 8.15477 64.8204 8.26823 64.9834C8.38168 65.1464 8.37958 65.3682 8.26354 65.4789L7.42305 66.2804C7.39793 66.3044 7.36953 66.3211 7.33929 66.3311C7.28442 66.3491 7.2351 66.4254 7.26417 66.4828C7.46265 66.8744 7.73474 67.2448 8.03786 67.5873C8.08024 67.6351 8.16165 67.5937 8.19134 67.5342C8.2051 67.5066 8.22292 67.4818 8.24477 67.461L9.08526 66.6594C9.2013 66.5488 9.38735 66.5912 9.50081 66.7542C9.61426 66.9172 9.61216 67.1391 9.49612 67.2497L8.65563 68.0512C8.61812 68.087 8.60176 68.1666 8.63955 68.202C8.84615 68.3954 9.0544 68.5758 9.25338 68.7416C9.3741 68.8421 9.49961 68.941 9.62902 69.0381C9.64715 69.0517 9.67078 69.0473 9.68747 69.0314L10.528 68.2299C10.644 68.1192 10.8301 68.1616 10.9435 68.3246C11.057 68.4876 11.0549 68.7095 10.9388 68.8202L10.3265 69.4041C10.2909 69.4381 10.2957 69.5032 10.3358 69.5292C10.7069 69.7695 11.0945 69.9969 11.4824 70.2104C11.505 70.2228 11.5317 70.219 11.5511 70.2005L11.9707 69.8003C12.0867 69.6897 12.2728 69.7321 12.3862 69.8951C12.4997 70.0581 12.4976 70.2799 12.3815 70.3906L12.2638 70.5029C12.2261 70.5389 12.2342 70.6087 12.2788 70.6315C12.8003 70.8973 13.3012 71.1359 13.7396 71.3447C13.964 71.4516 14.1719 71.5506 14.3579 71.6415C14.4966 71.7094 14.6458 71.7698 14.7923 71.7305C14.8984 71.702 14.9675 71.6361 15.0128 71.5203C15.0753 71.3602 15.0549 71.177 15.0262 71.0043C14.9877 70.7727 14.9468 70.5143 14.9027 70.2355C14.8166 69.6907 14.7182 69.0683 14.6012 68.4168C14.5912 68.361 14.5343 68.3376 14.4966 68.3736L14.4827 68.3868C14.3667 68.4975 14.1806 68.4551 14.0672 68.2921C13.9537 68.1291 13.9558 67.9072 14.0719 67.7965L14.3876 67.4954C14.407 67.4769 14.4156 67.4471 14.4098 67.4187C14.3095 66.9309 14.1976 66.4406 14.0716 65.9667C14.0579 65.9154 14.0044 65.8967 13.9688 65.9307L13.4603 66.4156C13.3442 66.5263 13.1582 66.4838 13.0447 66.3208C12.9313 66.1578 12.9334 65.936 13.0494 65.8253L13.7793 65.1293C13.801 65.1086 13.809 65.0739 13.7989 65.0432C13.7452 64.8801 13.6894 64.7209 13.6312 64.5665C13.5313 64.3011 13.4207 64.0216 13.2985 63.7416C13.2797 63.6987 13.2319 63.6871 13.2 63.7176L12.4378 64.4444C12.3218 64.5551 12.1357 64.5126 12.0223 64.3496C11.9088 64.1866 11.9109 63.9648 12.027 63.8541L12.8675 63.0526C12.8686 63.0515 12.8698 63.0504 12.871 63.0492C12.9046 63.0185 12.9234 62.9625 12.9005 62.9205C12.6836 62.5218 12.4394 62.1513 12.1652 61.8534C12.1344 61.8199 12.0849 61.8315 12.0535 61.8643C12.051 61.8669 12.0484 61.8695 12.0457 61.872L11.2052 62.6736C11.0892 62.7842 10.9032 62.7418 10.7897 62.5788C10.6762 62.4158 10.6783 62.194 10.7944 62.0833L11.4772 61.4321Z" fill="#9BAF7A"/>
<path d="M8.43707 63.3476C8.19858 63.043 8.2282 62.5663 8.50183 62.3054C8.77547 62.0444 9.1803 62.1068 9.38692 62.4417L13.4692 69.0592C13.5333 69.1632 13.5171 69.3077 13.4322 69.3887C13.3472 69.4697 13.223 69.4591 13.149 69.3646L8.43707 63.3476Z" fill="#889A6B"/>
<path d="M160.512 11.8109C161.317 14.0737 162.272 16.169 163.344 18.1071C162.656 20.4694 161.225 23.9899 158.819 27.0232C156.36 30.1227 152.902 32.6938 148.171 33.0438C142.059 33.496 138.509 33.8244 136.425 34.3989C135.375 34.6882 134.623 35.0579 134.098 35.5984C133.563 36.1491 133.324 36.8137 133.177 37.5527C133.123 37.8247 133.134 38.1305 133.177 38.4408C133.22 38.7572 133.301 39.1117 133.409 39.4935C133.625 40.257 133.96 41.1686 134.363 42.1693C134.871 43.4283 135.498 44.8578 136.149 46.3405C136.53 47.2083 136.92 48.0951 137.297 48.9758C138.327 51.378 139.277 53.7512 139.8 55.7017C140.061 56.6785 140.208 57.5216 140.214 58.1939C140.219 58.8808 140.077 59.2875 139.876 59.5061C138.83 60.6389 137.993 61.0011 137.415 61.0617C136.834 61.1228 136.45 60.8872 136.285 60.6976L135.535 61.407C135.887 61.8113 136.555 62.1675 137.447 62.0739C138.342 61.9799 139.401 61.441 140.563 60.1818C141.051 59.6529 141.202 58.8989 141.196 58.1149C141.189 57.3164 141.019 56.3786 140.748 55.3677C140.205 53.3426 139.23 50.9128 138.2 48.5103C137.814 47.6106 137.421 46.7161 137.039 45.8452C136.393 44.3744 135.777 42.9708 135.274 41.7232C134.875 40.7327 134.555 39.8591 134.353 39.1466C134.253 38.7904 134.184 38.4842 134.15 38.2301C134.114 37.9699 134.118 37.7954 134.139 37.6903C134.266 37.0469 134.445 36.625 134.766 36.2951C135.096 35.955 135.639 35.6501 136.615 35.381C138.584 34.8384 142.017 34.5141 148.173 34.0586C153.257 33.6825 156.966 30.9059 159.56 27.6358C161.787 24.8293 163.206 21.645 163.999 19.2483C172.311 33.1954 186.781 38.571 194.41 39.6316L195.168 39.2225L194.878 38.685C186.383 37.6209 168.328 30.7933 161.454 11.4757C157.05 -0.900136 154.418 -7.9699 152.292 -11.9471C151.227 -13.9382 150.26 -15.2111 149.215 -15.984C148.149 -16.7727 147.048 -17.0071 145.802 -17.0228C145.379 -17.0281 144.925 -16.8984 144.463 -16.6942C143.997 -16.4879 143.49 -16.1905 142.953 -15.8251C141.88 -15.0945 140.64 -14.0618 139.297 -12.8519C137.607 -11.3293 135.72 -9.49718 133.761 -7.59463L133.76 -7.59312C132.612 -6.47811 131.439 -5.33893 130.266 -4.22372C127.074 -1.18862 123.871 1.67888 121.08 3.50775C119.682 4.42307 118.419 5.05739 117.333 5.33313C116.253 5.60765 115.41 5.51355 114.771 5.06443C109.763 1.54446 109.942 -1.68553 110.424 -2.66813L109.526 -3.10851C108.745 -1.51669 108.96 2.20226 114.196 5.88258C115.158 6.5585 116.334 6.61878 117.58 6.30235C118.82 5.98714 120.191 5.28518 121.628 4.34423C124.503 2.46058 127.763 -0.464397 130.955 -3.499C132.147 -4.63228 133.328 -5.77959 134.479 -6.89744L134.48 -6.8982L134.481 -6.89899C136.427 -8.79009 138.288 -10.5969 139.966 -12.1088C141.299 -13.3096 142.499 -14.3063 143.516 -14.9983C144.024 -15.3442 144.476 -15.6064 144.868 -15.7798C145.265 -15.9554 145.568 -16.0256 145.789 -16.0229C146.901 -16.0089 147.775 -15.8057 148.621 -15.1801C149.488 -14.5386 150.37 -13.4206 151.41 -11.4755C153.493 -7.58037 156.097 -0.596699 160.512 11.8109Z" fill="#889A6B"/>
<path d="M131.626 -7.4073C131.591 -7.42283 131.584 -7.46907 131.614 -7.49225C131.767 -7.61006 131.942 -7.69718 132.142 -7.74411C132.741 -7.88505 133.507 -7.70715 134.141 -7.42699C134.776 -7.14684 135.423 -6.70089 135.723 -6.16296C135.832 -5.96639 135.886 -5.75937 135.896 -5.54703C135.896 -5.5353 135.883 -5.52783 135.872 -5.53262L135.073 -5.88551C134.963 -5.93423 134.826 -5.86787 134.769 -5.7373C134.711 -5.60672 134.754 -5.46136 134.864 -5.41264L135.663 -5.05976C135.687 -5.04921 135.712 -5.04406 135.738 -5.04378C135.783 -5.04327 135.836 -5.00335 135.824 -4.95963C135.743 -4.66123 135.601 -4.36157 135.429 -4.07382C135.405 -4.0336 135.335 -4.04399 135.301 -4.07697C135.285 -4.09225 135.267 -4.10485 135.246 -4.11402L134.447 -4.46691C134.336 -4.51563 134.2 -4.44927 134.142 -4.3187C134.085 -4.18812 134.127 -4.04277 134.238 -3.99404L135.037 -3.64116C135.073 -3.62541 135.1 -3.57649 135.077 -3.54543C134.953 -3.37562 134.825 -3.21398 134.702 -3.06389C134.627 -2.97284 134.548 -2.8819 134.466 -2.79131C134.455 -2.77862 134.435 -2.77664 134.42 -2.78365L133.62 -3.13653C133.51 -3.18525 133.374 -3.1189 133.316 -2.98832C133.259 -2.85774 133.301 -2.71239 133.412 -2.66366L133.994 -2.40656C134.028 -2.39163 134.036 -2.3478 134.01 -2.32241C133.767 -2.0878 133.509 -1.85822 133.248 -1.63768C133.233 -1.62483 133.212 -1.62185 133.193 -1.62998L132.794 -1.80615C132.684 -1.85488 132.548 -1.78852 132.49 -1.65794C132.432 -1.52736 132.475 -1.38201 132.585 -1.33329L132.697 -1.28385C132.733 -1.26802 132.74 -1.22041 132.71 -1.19625C132.355 -0.913695 132.011 -0.653311 131.711 -0.425434C131.557 -0.308817 131.414 -0.200713 131.287 -0.102507C131.192 -0.0292402 131.088 0.0413344 130.967 0.0457948C130.88 0.0490239 130.814 0.0200272 130.757 -0.0467553C130.679 -0.139001 130.661 -0.263612 130.651 -0.383074C130.638 -0.543212 130.622 -0.721495 130.605 -0.913818C130.57 -1.2896 130.531 -1.71897 130.501 -2.17133C130.499 -2.21 130.538 -2.23716 130.574 -2.22133L130.587 -2.2155C130.698 -2.16677 130.834 -2.23313 130.892 -2.36371C130.949 -2.49429 130.907 -2.63964 130.796 -2.68836L130.496 -2.82094C130.477 -2.82907 130.465 -2.84688 130.465 -2.86677C130.452 -3.20807 130.448 -3.55341 130.457 -3.89089C130.459 -3.9274 130.497 -3.95076 130.53 -3.93582L131.014 -3.72232C131.124 -3.67359 131.26 -3.73995 131.318 -3.87053C131.376 -4.00111 131.333 -4.14646 131.223 -4.19518L130.529 -4.50163C130.508 -4.51076 130.495 -4.53191 130.498 -4.55412C130.509 -4.67244 130.523 -4.78861 130.539 -4.90205C130.567 -5.09717 130.601 -5.30368 130.644 -5.51295C130.651 -5.54506 130.685 -5.56255 130.716 -5.54913L131.44 -5.22914C131.551 -5.18041 131.687 -5.24677 131.745 -5.37735C131.802 -5.50793 131.76 -5.65328 131.649 -5.702L130.85 -6.05489C130.849 -6.05539 130.848 -6.05587 130.847 -6.05635C130.815 -6.0696 130.79 -6.10251 130.8 -6.13489C130.894 -6.44175 131.015 -6.7357 131.172 -6.9882C131.189 -7.01659 131.23 -7.01915 131.26 -7.00411C131.263 -7.0029 131.265 -7.00174 131.268 -7.00062L132.067 -6.64774C132.177 -6.59901 132.313 -6.66537 132.371 -6.79595C132.429 -6.92653 132.386 -7.07188 132.276 -7.1206L131.626 -7.4073Z" fill="#9BAF7A"/>
<path d="M134.335 -6.77733C134.463 -7.02679 134.352 -7.33391 134.092 -7.4488C133.832 -7.56368 133.53 -7.43897 133.432 -7.17613L131.497 -1.98324C131.466 -1.90165 131.506 -1.81006 131.586 -1.7744C131.667 -1.73874 131.761 -1.77137 131.801 -1.8488L134.335 -6.77733Z" fill="#889A6B"/>
<path d="M123.251 0.406601C123.25 0.381002 123.283 0.362898 123.312 0.373926C123.46 0.429969 123.592 0.507996 123.703 0.612893C124.034 0.927949 124.18 1.43741 124.197 1.89931C124.215 2.36119 124.109 2.88028 123.803 3.21978C123.691 3.34384 123.55 3.43766 123.389 3.50705C123.38 3.51088 123.369 3.50527 123.369 3.49736L123.347 2.91557C123.344 2.83524 123.242 2.77393 123.119 2.77863C122.996 2.78333 122.899 2.85226 122.902 2.93259L122.925 3.51439C122.925 3.53177 122.931 3.54827 122.94 3.5634C122.956 3.59086 122.945 3.63398 122.907 3.63997C122.645 3.68088 122.36 3.68585 122.073 3.66985C122.033 3.66762 122.015 3.62238 122.028 3.59224C122.034 3.57828 122.037 3.56356 122.036 3.54843L122.014 2.96663C122.011 2.8863 121.909 2.82499 121.786 2.8297C121.664 2.8344 121.567 2.90333 121.57 2.98366L121.592 3.56545C121.593 3.59142 121.565 3.62238 121.533 3.61814C121.355 3.59495 121.182 3.56713 121.02 3.53852C120.922 3.52116 120.822 3.50136 120.721 3.47947C120.707 3.4764 120.699 3.46561 120.698 3.45405L120.676 2.87225C120.673 2.79192 120.571 2.73061 120.448 2.73531C120.326 2.74001 120.229 2.80895 120.232 2.88927L120.248 3.31316C120.249 3.33778 120.218 3.35587 120.189 3.34781C119.917 3.27331 119.643 3.18823 119.375 3.0988C119.36 3.09358 119.349 3.08173 119.349 3.06833L119.338 2.77787C119.335 2.69754 119.233 2.63623 119.11 2.64093C118.987 2.64563 118.891 2.71456 118.894 2.79489L118.897 2.8764C118.898 2.9025 118.863 2.9207 118.833 2.90987C118.483 2.78311 118.153 2.65621 117.865 2.54515C117.718 2.48831 117.581 2.43562 117.458 2.38923C117.366 2.35461 117.272 2.31358 117.224 2.24296C117.189 2.19183 117.187 2.14402 117.218 2.09037C117.261 2.01627 117.351 1.96821 117.44 1.92666C117.559 1.87096 117.692 1.80796 117.834 1.74C118.113 1.60721 118.432 1.45547 118.772 1.30227C118.801 1.28917 118.836 1.30468 118.837 1.33078L118.838 1.3404C118.841 1.42073 118.943 1.48204 119.066 1.47734C119.188 1.47264 119.285 1.40371 119.282 1.32338L119.274 1.1048C119.273 1.0914 119.282 1.0788 119.298 1.07241C119.558 0.962748 119.824 0.856974 120.09 0.761877C120.118 0.751588 120.15 0.767256 120.151 0.791877L120.165 1.14388C120.168 1.22421 120.27 1.28552 120.393 1.28082C120.515 1.27612 120.612 1.20719 120.609 1.12686L120.59 0.621623C120.589 0.606578 120.601 0.592744 120.619 0.587375C120.715 0.558764 120.81 0.532214 120.904 0.50806C121.066 0.466517 121.239 0.424953 121.417 0.387818C121.444 0.382119 121.471 0.397675 121.472 0.419797L121.492 0.947365C121.495 1.02769 121.597 1.089 121.72 1.0843C121.842 1.0796 121.939 1.01067 121.936 0.930342L121.914 0.348544C121.914 0.347722 121.914 0.346901 121.914 0.346083C121.912 0.323243 121.928 0.29854 121.957 0.294774C122.23 0.259077 122.503 0.242947 122.757 0.261042C122.786 0.263076 122.803 0.286413 122.802 0.309007C122.802 0.310831 122.802 0.312662 122.802 0.314499L122.824 0.896297C122.828 0.976626 122.929 1.03794 123.052 1.03323C123.175 1.02853 123.272 0.959603 123.269 0.879274L123.251 0.406601Z" fill="#9BAF7A"/>
<path d="M123.765 2.2091C124.006 2.21091 124.203 2.05277 124.196 1.86336C124.189 1.67395 123.98 1.53135 123.74 1.5516L118.995 1.95171C118.92 1.958 118.863 2.00883 118.866 2.06763C118.868 2.12643 118.928 2.17279 119.003 2.17335L123.765 2.2091Z" fill="#889A6B"/>
<path d="M110.944 3.10072C110.922 3.07718 110.927 3.04351 110.954 3.03922C111.091 3.01744 111.237 3.02424 111.391 3.0673C111.856 3.19661 112.369 3.60169 112.764 4.02636C113.16 4.45101 113.528 4.99157 113.624 5.46404C113.659 5.63669 113.651 5.79544 113.611 5.94146C113.609 5.94952 113.598 5.94962 113.591 5.94235L113.093 5.40744C113.024 5.33359 112.911 5.32723 112.84 5.39323C112.769 5.45924 112.767 5.57261 112.836 5.64647L113.334 6.18137C113.349 6.19736 113.366 6.21018 113.384 6.21979C113.417 6.23724 113.446 6.28353 113.428 6.3084C113.303 6.47813 113.133 6.62596 112.945 6.7549C112.918 6.77293 112.87 6.73957 112.853 6.70476C112.845 6.68863 112.834 6.67332 112.821 6.65942L112.323 6.12452C112.254 6.05066 112.141 6.0443 112.07 6.1103C111.999 6.17631 111.997 6.28969 112.066 6.36354L112.565 6.89844C112.587 6.92231 112.596 6.96534 112.572 6.97768C112.445 7.04516 112.316 7.10579 112.194 7.16034C112.119 7.19344 112.042 7.22495 111.962 7.25498C111.951 7.25919 111.937 7.25339 111.927 7.24276L111.429 6.70786C111.36 6.63401 111.247 6.62764 111.176 6.69365C111.105 6.75965 111.103 6.87303 111.172 6.94689L111.535 7.3366C111.556 7.35924 111.552 7.39174 111.528 7.39895C111.3 7.46557 111.062 7.52315 110.824 7.57362C110.811 7.57656 110.795 7.57058 110.783 7.55825L110.534 7.29121C110.465 7.21735 110.352 7.21099 110.281 7.27699C110.211 7.343 110.209 7.45638 110.278 7.53023L110.347 7.60517C110.37 7.62916 110.364 7.66356 110.337 7.66844C110.017 7.72548 109.711 7.77172 109.443 7.81219C109.306 7.8329 109.178 7.8521 109.064 7.87046C108.98 7.88416 108.888 7.89254 108.8 7.85045C108.736 7.81998 108.695 7.77602 108.67 7.71016C108.634 7.61919 108.649 7.5289 108.668 7.44518C108.695 7.33295 108.723 7.20739 108.753 7.07193C108.813 6.80727 108.88 6.50485 108.96 6.19042C108.967 6.16353 109.001 6.16014 109.024 6.18413L109.032 6.19298C109.101 6.26683 109.214 6.27319 109.285 6.20719C109.356 6.14119 109.357 6.02781 109.288 5.95395L109.101 5.753C109.09 5.74067 109.085 5.72418 109.089 5.71057C109.156 5.47705 109.23 5.24401 109.313 5.02146C109.322 4.99737 109.354 4.99591 109.376 5.01855L109.677 5.34218C109.746 5.41603 109.859 5.4224 109.93 5.35639C110.001 5.29039 110.002 5.17701 109.934 5.10316L109.501 4.63864C109.488 4.62481 109.484 4.60593 109.49 4.59184C109.525 4.51678 109.561 4.44404 109.598 4.37412C109.662 4.25387 109.733 4.1281 109.81 4.00378C109.822 3.9847 109.851 3.986 109.87 4.00634L110.322 4.49138C110.391 4.56524 110.504 4.5716 110.575 4.5056C110.646 4.43959 110.648 4.32621 110.579 4.25236L110.08 3.71746C110.08 3.7167 110.079 3.71595 110.078 3.71521C110.058 3.6945 110.048 3.66313 110.062 3.64514C110.199 3.47458 110.352 3.32252 110.522 3.21192C110.541 3.19948 110.57 3.21287 110.589 3.23428C110.591 3.23601 110.592 3.23772 110.594 3.23941L111.092 3.77431C111.161 3.84817 111.274 3.85453 111.345 3.78853C111.416 3.72252 111.417 3.60914 111.349 3.53529L110.944 3.10072Z" fill="#9BAF7A"/>
<path d="M112.759 4.53417C112.908 4.41484 112.896 4.16745 112.734 3.9933C112.571 3.81916 112.326 3.79005 112.196 3.92967L109.637 6.68811C109.596 6.73145 109.604 6.80753 109.655 6.86159C109.705 6.91565 109.78 6.92894 109.827 6.89189L112.759 4.53417Z" fill="#889A6B"/>
<path d="M155.786 -0.101189C155.774 -0.132543 155.788 -0.161842 155.813 -0.154371C155.938 -0.116409 156.062 -0.0480138 156.184 0.0581197C156.55 0.376892 156.881 0.974369 157.103 1.54009C157.326 2.10579 157.492 2.76806 157.442 3.25096C157.423 3.42743 157.372 3.57267 157.295 3.69206C157.291 3.69866 157.281 3.69398 157.277 3.6843L156.997 2.97173C156.958 2.87334 156.862 2.81917 156.781 2.85074C156.701 2.88231 156.668 2.98766 156.707 3.08605L156.987 3.79862C156.996 3.81992 157.007 3.83914 157.02 3.85587C157.043 3.88624 157.055 3.94183 157.032 3.95727C156.876 4.06266 156.687 4.1287 156.487 4.16922C156.459 4.17489 156.426 4.12292 156.421 4.08305C156.419 4.06456 156.414 4.04579 156.407 4.02727L156.126 3.3147C156.087 3.21631 155.991 3.16214 155.911 3.19371C155.831 3.22528 155.797 3.33063 155.836 3.42902L156.117 4.14159C156.129 4.17339 156.125 4.2174 156.101 4.21901C155.971 4.22776 155.842 4.22977 155.721 4.22856C155.647 4.22782 155.571 4.22438 155.493 4.21856C155.482 4.21774 155.471 4.20625 155.466 4.19209L155.185 3.47952C155.146 3.38114 155.05 3.32697 154.97 3.35854C154.89 3.39011 154.856 3.49546 154.895 3.59385L155.099 4.11301C155.111 4.14317 155.099 4.17196 155.075 4.1682C154.859 4.1335 154.637 4.08613 154.416 4.03212C154.403 4.02897 154.391 4.01651 154.384 4.0001L154.244 3.64435C154.206 3.54596 154.109 3.4918 154.029 3.52337C153.949 3.55494 153.915 3.66029 153.954 3.75867L153.993 3.8585C154.006 3.89046 153.991 3.92015 153.966 3.91309C153.673 3.83048 153.394 3.74323 153.15 3.66687C153.025 3.62779 152.909 3.59156 152.806 3.56027C152.728 3.53693 152.647 3.50597 152.582 3.42903C152.535 3.37332 152.512 3.31477 152.508 3.24214C152.503 3.14182 152.542 3.06367 152.582 2.99373C152.637 2.89998 152.697 2.79451 152.762 2.68074C152.888 2.45843 153.033 2.20442 153.191 1.94414C153.204 1.92189 153.235 1.9335 153.248 1.96547L153.252 1.97725C153.291 2.07563 153.388 2.1298 153.468 2.09823C153.548 2.06666 153.581 1.96131 153.543 1.86292L153.437 1.59522C153.431 1.5788 153.431 1.56132 153.438 1.55025C153.563 1.36041 153.693 1.17404 153.828 1.00102C153.842 0.982302 153.871 0.994852 153.883 1.02501L154.053 1.45613C154.092 1.55452 154.188 1.60868 154.268 1.57711C154.348 1.54555 154.382 1.4402 154.343 1.34181L154.099 0.72301C154.092 0.704583 154.094 0.68506 154.103 0.674654C154.155 0.619209 154.206 0.566468 154.259 0.51692C154.348 0.431701 154.445 0.344155 154.548 0.260935C154.563 0.248163 154.588 0.261776 154.599 0.28887L154.853 0.935021C154.892 1.03341 154.989 1.08757 155.069 1.056C155.149 1.02443 155.182 0.919084 155.144 0.820698L154.863 0.108127C154.863 0.10712 154.862 0.106117 154.862 0.105119C154.85 0.0772679 154.85 0.0433889 154.868 0.0326944C155.034 -0.0686649 155.21 -0.145846 155.389 -0.176931C155.409 -0.180424 155.431 -0.15522 155.441 -0.127279C155.442 -0.125023 155.443 -0.122769 155.443 -0.120519L155.724 0.592051C155.763 0.690437 155.859 0.744602 155.939 0.713032C156.02 0.681463 156.053 0.576114 156.014 0.477728L155.786 -0.101189Z" fill="#9BAF7A"/>
<path d="M156.955 2.01283C157.117 1.96442 157.177 1.72805 157.086 1.49606C156.995 1.26407 156.79 1.13211 156.638 1.20754L153.637 2.69797C153.59 2.72139 153.575 2.79593 153.603 2.86794C153.632 2.93995 153.693 2.98446 153.744 2.96943L156.955 2.01283Z" fill="#889A6B"/>
<path d="M155.92 -2.44586C155.901 -2.47341 155.869 -2.47779 155.862 -2.45314C155.825 -2.32785 155.813 -2.18634 155.835 -2.02614C155.9 -1.54499 156.218 -0.940656 156.568 -0.44362C156.918 0.0533966 157.381 0.555858 157.812 0.779068C157.969 0.860635 158.119 0.89733 158.261 0.899123C158.269 0.899222 158.27 0.888527 158.264 0.880016L157.823 0.253961C157.762 0.167521 157.77 0.0572262 157.84 0.00761072C157.91 -0.0420047 158.017 -0.0121524 158.078 0.0742877L158.519 0.700342C158.532 0.719053 158.542 0.738882 158.549 0.758971C158.561 0.795431 158.601 0.835935 158.627 0.825226C158.801 0.752134 158.96 0.6305 159.104 0.485973C159.124 0.46577 159.098 0.409788 159.068 0.383653C159.053 0.371542 159.04 0.357272 159.029 0.340996L158.588 -0.285059C158.527 -0.371499 158.535 -0.481794 158.605 -0.53141C158.675 -0.581025 158.782 -0.551173 158.843 -0.464733L159.284 0.161322C159.304 0.189262 159.343 0.209681 159.357 0.190722C159.436 0.0870615 159.508 -0.0192885 159.574 -0.121758C159.614 -0.183923 159.653 -0.249287 159.691 -0.317308C159.696 -0.326836 159.692 -0.342102 159.684 -0.354538L159.243 -0.980593C159.182 -1.06703 159.189 -1.17733 159.26 -1.22694C159.33 -1.27656 159.437 -1.24671 159.498 -1.16027L159.819 -0.704135C159.838 -0.677641 159.868 -0.672243 159.878 -0.693877C159.968 -0.893813 160.051 -1.10572 160.127 -1.31958C160.131 -1.33204 160.128 -1.34915 160.117 -1.36357L159.897 -1.67613C159.836 -1.76257 159.844 -1.87286 159.914 -1.92248C159.985 -1.97209 160.091 -1.94224 160.152 -1.8558L160.214 -1.7681C160.234 -1.74001 160.267 -1.73607 160.275 -1.76089C160.367 -2.05114 160.447 -2.33211 160.517 -2.578C160.553 -2.70383 160.587 -2.82048 160.618 -2.92448C160.641 -3.00208 160.66 -3.08709 160.631 -3.18334C160.61 -3.25301 160.574 -3.30446 160.515 -3.34753C160.434 -3.40703 160.348 -3.41788 160.267 -3.42224C160.158 -3.42809 160.037 -3.43593 159.907 -3.44438C159.652 -3.4609 159.36 -3.47977 159.056 -3.49078C159.03 -3.49172 159.022 -3.45937 159.042 -3.43129L159.049 -3.42094C159.11 -3.3345 159.103 -3.2242 159.032 -3.17459C158.962 -3.12497 158.855 -3.15482 158.794 -3.24126L158.629 -3.47646C158.618 -3.49089 158.604 -3.50009 158.59 -3.50012C158.363 -3.5005 158.136 -3.49396 157.918 -3.47652C157.894 -3.47463 157.889 -3.44371 157.907 -3.41721L158.174 -3.03843C158.235 -2.95199 158.227 -2.8417 158.157 -2.79208C158.086 -2.74246 157.98 -2.77232 157.919 -2.85876L157.536 -3.40243C157.525 -3.41862 157.507 -3.42804 157.493 -3.4257C157.419 -3.41327 157.346 -3.39901 157.276 -3.38271C157.156 -3.35468 157.03 -3.3218 156.904 -3.28183C156.884 -3.27569 156.882 -3.24743 156.899 -3.22362L157.299 -2.65592C157.36 -2.56948 157.352 -2.45919 157.282 -2.40957C157.211 -2.35996 157.105 -2.38981 157.044 -2.47625L156.603 -3.10231C156.602 -3.10319 156.601 -3.10408 156.601 -3.10497C156.584 -3.1298 156.556 -3.14871 156.537 -3.13988C156.361 -3.05621 156.2 -2.95193 156.076 -2.81968C156.062 -2.80481 156.071 -2.77254 156.088 -2.7488C156.09 -2.74688 156.091 -2.74494 156.093 -2.74296L156.534 -2.1169C156.595 -2.03046 156.587 -1.92017 156.517 -1.87055C156.446 -1.82094 156.34 -1.85079 156.279 -1.93723L155.92 -2.44586Z" fill="#9BAF7A"/>
<path d="M157.045 -0.307916C156.915 -0.19872 156.684 -0.278485 156.541 -0.482305C156.397 -0.686126 156.4 -0.929975 156.546 -1.01543L159.44 -2.70383C159.486 -2.73036 159.556 -2.70166 159.601 -2.63839C159.645 -2.57512 159.649 -2.49922 159.608 -2.46532L157.045 -0.307916Z" fill="#889A6B"/>
<path d="M170.517 24.9724C170.515 24.9296 170.549 24.9004 170.578 24.9199C170.727 25.0187 170.861 25.1538 170.973 25.3331C171.309 25.8714 171.461 26.7284 171.484 27.5015C171.506 28.2745 171.405 29.139 171.101 29.6961C170.99 29.8997 170.85 30.0517 170.688 30.1622C170.68 30.1683 170.669 30.1585 170.668 30.1453L170.64 29.1715C170.636 29.0371 170.533 28.931 170.41 28.9346C170.287 28.9383 170.19 29.0502 170.194 29.1846L170.222 30.1583C170.223 30.1875 170.229 30.2152 170.238 30.2408C170.255 30.2873 170.244 30.359 170.205 30.3677C169.943 30.4271 169.657 30.4255 169.369 30.3888C169.328 30.3837 169.31 30.3074 169.322 30.2575C169.328 30.2343 169.331 30.2098 169.33 30.1845L169.302 29.2108C169.298 29.0763 169.195 28.9703 169.072 28.9739C168.949 28.9775 168.852 29.0894 168.856 29.2238L168.884 30.1976C168.886 30.241 168.858 30.2919 168.825 30.2836C168.647 30.2387 168.473 30.1862 168.31 30.1327C168.211 30.1003 168.11 30.0637 168.009 30.0236C167.995 30.018 167.986 29.9996 167.985 29.9803L167.957 29.0066C167.953 28.8721 167.85 28.7661 167.727 28.7697C167.603 28.7733 167.507 28.8852 167.511 29.0196L167.532 29.7291C167.533 29.7703 167.502 29.7995 167.472 29.785C167.198 29.651 166.923 29.4992 166.653 29.3404C166.637 29.3311 166.627 29.3109 166.626 29.2885L166.612 28.8024C166.608 28.6679 166.505 28.5619 166.382 28.5655C166.258 28.5691 166.162 28.681 166.166 28.8154L166.17 28.9519C166.171 28.9955 166.137 29.0248 166.106 29.0056C165.753 28.7815 165.421 28.5579 165.13 28.3621C164.981 28.262 164.843 28.1691 164.719 28.0873C164.626 28.0262 164.532 27.9544 164.483 27.8346C164.447 27.7479 164.445 27.6679 164.475 27.5792C164.518 27.4568 164.607 27.3795 164.696 27.3131C164.816 27.2241 164.948 27.1233 165.091 27.0146C165.369 26.8022 165.688 26.5595 166.027 26.3151C166.056 26.2942 166.093 26.3213 166.094 26.365L166.094 26.3811C166.098 26.5156 166.201 26.6216 166.324 26.618C166.448 26.6144 166.544 26.5025 166.54 26.368L166.53 26.0022C166.529 25.9798 166.538 25.959 166.553 25.9489C166.813 25.7745 167.08 25.6068 167.345 25.457C167.374 25.4408 167.407 25.4681 167.408 25.5093L167.425 26.0985C167.429 26.2329 167.532 26.339 167.655 26.3354C167.778 26.3317 167.875 26.2198 167.871 26.0854L167.846 25.2398C167.846 25.2146 167.857 25.1919 167.875 25.1835C167.971 25.139 168.067 25.0979 168.161 25.0608C168.323 24.9969 168.496 24.9334 168.675 24.8775C168.702 24.8689 168.729 24.8958 168.73 24.9328L168.756 25.8158C168.76 25.9502 168.863 26.0563 168.986 26.0527C169.109 26.0491 169.206 25.9372 169.202 25.8027L169.173 24.829C169.173 24.8276 169.173 24.8262 169.173 24.8249C169.172 24.7866 169.188 24.7459 169.217 24.7406C169.49 24.6903 169.764 24.6728 170.019 24.7119C170.048 24.7163 170.065 24.7559 170.065 24.7937C170.065 24.7967 170.065 24.7998 170.065 24.8028L170.094 25.7766C170.098 25.911 170.201 26.0171 170.324 26.0135C170.447 26.0099 170.544 25.8979 170.54 25.7635L170.517 24.9724Z" fill="#9BAF7A"/>
<path d="M171.053 28.0046C171.295 28.016 171.491 27.7583 171.482 27.4413C171.473 27.1243 171.262 26.8786 171.02 26.9042L166.258 27.4089C166.183 27.4168 166.127 27.4998 166.13 27.5983C166.133 27.6967 166.194 27.7763 166.269 27.7798L171.053 28.0046Z" fill="#889A6B"/>
<path d="M134.252 46.2905C134.23 46.2657 134.246 46.2253 134.283 46.2165C134.469 46.172 134.657 46.1599 134.848 46.1894C135.419 46.278 135.975 46.685 136.371 47.1313C136.767 47.5777 137.094 48.1645 137.084 48.7085C137.08 48.9073 137.025 49.0955 136.93 49.2733C136.925 49.2831 136.91 49.2848 136.903 49.2771L136.404 48.7149C136.335 48.6373 136.189 48.6454 136.077 48.733C135.965 48.8206 135.931 48.9545 135.999 49.0322L136.499 49.5944C136.513 49.6112 136.532 49.6239 136.553 49.6328C136.591 49.6488 136.616 49.6994 136.585 49.7313C136.372 49.9487 136.107 50.1464 135.824 50.3244C135.784 50.3493 135.73 50.3166 135.717 50.278C135.712 50.26 135.702 50.2434 135.689 50.2288L135.19 49.6666C135.121 49.589 134.975 49.5971 134.863 49.6847C134.751 49.7723 134.717 49.9062 134.786 49.9838L135.285 50.546C135.307 50.5711 135.306 50.6207 135.272 50.6384C135.085 50.7356 134.9 50.8248 134.723 50.906C134.616 50.9553 134.506 51.0031 134.393 51.0495C134.377 51.056 134.36 51.0511 134.35 51.04L133.851 50.4778C133.783 50.4001 133.636 50.4082 133.524 50.4958C133.413 50.5834 133.378 50.7174 133.447 50.795L133.81 51.2046C133.831 51.2284 133.817 51.2672 133.783 51.2791C133.465 51.3891 133.137 51.4897 132.812 51.582C132.793 51.5874 132.773 51.5825 132.762 51.5696L132.513 51.2889C132.444 51.2113 132.297 51.2194 132.186 51.307C132.074 51.3946 132.039 51.5285 132.108 51.6061L132.178 51.6849C132.2 51.7101 132.183 51.7515 132.146 51.761C131.711 51.8722 131.296 51.969 130.934 52.0537C130.748 52.097 130.576 52.1372 130.421 52.1745C130.306 52.2023 130.185 52.2248 130.081 52.1873C130.006 52.1601 129.965 52.1139 129.95 52.0398C129.93 51.9375 129.975 51.8289 130.025 51.7275C130.091 51.5915 130.164 51.4396 130.243 51.2756C130.397 50.9553 130.572 50.5893 130.767 50.2076C130.783 50.1749 130.83 50.1661 130.852 50.1913L130.86 50.2006C130.929 50.2783 131.076 50.2702 131.187 50.1826C131.299 50.095 131.334 49.961 131.265 49.8834L131.078 49.6722C131.066 49.6592 131.064 49.6405 131.073 49.6239C131.228 49.3392 131.393 49.0541 131.565 48.7803C131.583 48.7507 131.626 48.7444 131.648 48.7682L131.95 49.1084C132.018 49.186 132.165 49.1779 132.277 49.0903C132.388 49.0027 132.423 48.8688 132.354 48.7912L131.921 48.3029C131.908 48.2884 131.908 48.2667 131.92 48.2492C131.987 48.1559 132.055 48.0652 132.124 47.9776C132.242 47.827 132.371 47.6689 132.508 47.5116C132.529 47.4874 132.567 47.485 132.586 47.5063L133.039 48.0161C133.108 48.0938 133.254 48.0857 133.366 47.9981C133.478 47.9105 133.512 47.7765 133.443 47.6989L132.944 47.1367C132.944 47.1359 132.943 47.1351 132.942 47.1344C132.922 47.1127 132.917 47.0771 132.941 47.0539C133.169 46.834 133.413 46.6336 133.667 46.4798C133.696 46.4625 133.731 46.4741 133.749 46.4968C133.751 46.4987 133.752 46.5005 133.754 46.5022L134.253 47.0644C134.322 47.1421 134.468 47.134 134.58 47.0464C134.692 46.9588 134.726 46.8248 134.657 46.7472L134.252 46.2905Z" fill="#9BAF7A"/>
<path d="M136.218 47.731C136.447 47.5698 136.503 47.2796 136.34 47.0966C136.178 46.9136 135.864 46.9131 135.654 47.0956L131.51 50.7013C131.445 50.7579 131.434 50.8466 131.484 50.9034C131.535 50.9602 131.629 50.9655 131.7 50.9154L136.218 47.731Z" fill="#889A6B"/>
<path d="M141.948 32.9897C141.916 32.9538 141.941 32.8946 141.994 32.8814C142.267 32.8146 142.543 32.7952 142.821 32.8365C143.657 32.9604 144.467 33.5498 145.042 34.1981C145.618 34.8464 146.09 35.7006 146.069 36.4954C146.062 36.7858 145.979 37.0614 145.838 37.322C145.83 37.3364 145.809 37.3389 145.799 37.3278L145.074 36.5112C144.974 36.3985 144.759 36.4117 144.595 36.5407C144.43 36.6697 144.378 36.8657 144.478 36.9785L145.203 37.7951C145.224 37.8195 145.251 37.838 145.282 37.8507C145.338 37.8737 145.373 37.9475 145.327 37.9943C145.013 38.314 144.623 38.6053 144.207 38.868C144.148 38.9047 144.069 38.8575 144.051 38.8011C144.043 38.775 144.03 38.7508 144.011 38.7296L143.286 37.913C143.186 37.8003 142.971 37.8135 142.807 37.9425C142.642 38.0715 142.59 38.2675 142.69 38.3803L143.415 39.1969C143.447 39.2333 143.445 39.3057 143.395 39.3319C143.121 39.4757 142.848 39.6077 142.589 39.7281C142.432 39.8011 142.27 39.872 142.104 39.9408C142.081 39.9504 142.056 39.9435 142.041 39.9273L141.316 39.1107C141.216 38.9979 141.002 39.0111 140.837 39.1402C140.673 39.2692 140.62 39.4652 140.72 39.5779L141.249 40.1729C141.279 40.2074 141.258 40.2643 141.207 40.282C140.741 40.4457 140.26 40.5958 139.782 40.7337C139.754 40.7417 139.726 40.7348 139.709 40.716L139.347 40.3083C139.247 40.1956 139.032 40.2088 138.868 40.3378C138.703 40.4668 138.651 40.6628 138.751 40.7756L138.853 40.89C138.885 40.9266 138.859 40.9872 138.805 41.0015C138.167 41.1681 137.559 41.3134 137.026 41.4405C136.754 41.5055 136.501 41.5659 136.275 41.6218C136.106 41.6636 135.927 41.6975 135.776 41.6437C135.667 41.6048 135.607 41.5377 135.586 41.4296C135.557 41.2802 135.625 41.1213 135.699 40.9726C135.798 40.7733 135.906 40.5506 136.023 40.3104C136.252 39.841 136.513 39.3047 136.802 38.7451C136.826 38.6973 136.894 38.684 136.927 38.7206L136.939 38.7341C137.039 38.8469 137.254 38.8337 137.418 38.7046C137.583 38.5756 137.635 38.3796 137.535 38.2669L137.263 37.9601C137.246 37.9413 137.244 37.9138 137.257 37.8895C137.487 37.4722 137.731 37.0542 137.986 36.6525C138.013 36.6091 138.077 36.5996 138.107 36.6341L138.546 37.1282C138.646 37.2409 138.86 37.2277 139.025 37.0987C139.19 36.9697 139.242 36.7737 139.142 36.6609L138.512 35.9518C138.494 35.9307 138.493 35.899 138.512 35.8733C138.611 35.7364 138.712 35.6032 138.813 35.4746C138.988 35.2534 139.178 35.0213 139.381 34.7902C139.412 34.7547 139.468 34.7507 139.495 34.7818L140.153 35.5222C140.253 35.635 140.467 35.6218 140.632 35.4927C140.797 35.3637 140.849 35.1677 140.749 35.055L140.024 34.2384C140.023 34.2372 140.022 34.2361 140.021 34.235C139.991 34.2035 139.985 34.1516 140.02 34.1175C140.356 33.794 140.715 33.499 141.089 33.2718C141.132 33.2463 141.183 33.263 141.209 33.296C141.211 33.2986 141.214 33.3013 141.216 33.3038L141.941 34.1204C142.041 34.2332 142.255 34.22 142.42 34.0909C142.585 33.9619 142.637 33.7659 142.537 33.6532L141.948 32.9897Z" fill="#9BAF7A"/>
<path d="M144.812 35.0755C145.149 34.8379 145.233 34.4135 144.997 34.1476C144.761 33.8818 144.302 33.8841 143.993 34.1527L137.885 39.4593C137.789 39.5427 137.772 39.6723 137.845 39.7548C137.918 39.8374 138.057 39.8442 138.162 39.7704L144.812 35.0755Z" fill="#889A6B"/>
<path d="M160.428 29.2756C160.459 29.28 160.49 29.2482 160.484 29.2167C160.454 29.0568 160.393 28.9102 160.292 28.7827C159.99 28.3996 159.399 28.1817 158.832 28.1018C158.266 28.0219 157.596 28.0619 157.096 28.3318C156.913 28.4304 156.76 28.5627 156.631 28.7192C156.624 28.7279 156.628 28.7396 156.638 28.741L157.351 28.8416C157.45 28.8555 157.499 28.9686 157.461 29.0942C157.422 29.2198 157.312 29.3104 157.213 29.2965L156.5 29.1958C156.478 29.1928 156.459 29.1852 156.443 29.1738C156.414 29.153 156.357 29.1592 156.34 29.1978C156.22 29.4615 156.139 29.7543 156.083 30.0514C156.075 30.093 156.126 30.1177 156.167 30.1083C156.186 30.104 156.205 30.1029 156.223 30.1055L156.936 30.2062C157.035 30.2201 157.084 30.3331 157.046 30.4587C157.007 30.5843 156.897 30.6749 156.798 30.661L156.085 30.5604C156.053 30.5559 156.007 30.5804 156.004 30.6144C155.986 30.8004 155.974 30.9819 155.967 31.1525C155.963 31.2561 155.961 31.3614 155.961 31.468C155.961 31.4829 155.972 31.4932 155.986 31.4952L156.7 31.5958C156.798 31.6097 156.847 31.7228 156.809 31.8484C156.771 31.974 156.66 32.0646 156.561 32.0507L156.042 31.9774C156.012 31.9731 155.981 32.0025 155.983 32.0339C156.004 32.3237 156.036 32.6167 156.076 32.9041C156.079 32.9209 156.091 32.933 156.107 32.9353L156.463 32.9855C156.562 32.9994 156.611 33.1125 156.572 33.2381C156.534 33.3637 156.423 33.4543 156.325 33.4404L156.225 33.4263C156.193 33.4218 156.161 33.4548 156.167 33.4871C156.231 33.8648 156.301 34.2206 156.362 34.532C156.393 34.6914 156.422 34.8391 156.447 34.9722C156.466 35.0715 156.492 35.1731 156.566 35.2321C156.62 35.2748 156.679 35.2831 156.753 35.2585C156.856 35.2245 156.94 35.1383 157.014 35.0522C157.115 34.9368 157.228 34.8091 157.349 34.6713C157.587 34.402 157.859 34.0944 158.138 33.7651C158.162 33.737 158.152 33.6981 158.12 33.6936L158.108 33.6919C158.01 33.6781 157.961 33.565 157.999 33.4394C158.037 33.3138 158.148 33.2232 158.247 33.2371L158.515 33.2749C158.531 33.2772 158.549 33.2693 158.561 33.2546C158.765 33.0016 158.966 32.7416 159.154 32.4811C159.174 32.4529 159.163 32.4177 159.133 32.4134L158.702 32.3526C158.603 32.3387 158.554 32.2256 158.592 32.1C158.631 31.9744 158.741 31.8838 158.84 31.8977L159.459 31.9851C159.478 31.9877 159.498 31.9775 159.509 31.9596C159.57 31.8647 159.628 31.7702 159.683 31.6766C159.777 31.5156 159.874 31.3434 159.967 31.165C159.981 31.1376 159.969 31.1083 159.942 31.1044L159.295 31.0132C159.196 30.9993 159.148 30.8862 159.186 30.7606C159.224 30.635 159.335 30.5444 159.433 30.5583L160.147 30.659C160.148 30.6591 160.149 30.6593 160.15 30.6594C160.177 30.664 160.212 30.6505 160.225 30.6214C160.341 30.3453 160.433 30.0668 160.477 29.8029C160.482 29.7732 160.458 29.7527 160.43 29.7501C160.428 29.7499 160.425 29.7496 160.423 29.7493L159.71 29.6487C159.611 29.6348 159.562 29.5217 159.601 29.3961C159.639 29.2705 159.75 29.1799 159.848 29.1938L160.428 29.2756Z" fill="#9BAF7A"/>
<path d="M158.335 28.5052C158.397 28.257 158.644 28.0753 158.876 28.108C159.109 28.1408 159.23 28.3745 159.141 28.619L157.394 33.4491C157.366 33.525 157.289 33.5763 157.217 33.5662C157.144 33.556 157.103 33.4879 157.122 33.4108L158.335 28.5052Z" fill="#889A6B"/>
<path d="M133.718 34.6109C133.726 34.5729 133.764 34.5501 133.787 34.57C133.906 34.671 134.002 34.8026 134.067 34.9713C134.263 35.478 134.214 36.2498 134.062 36.9357C133.911 37.6216 133.621 38.3771 133.21 38.8424C133.06 39.0125 132.893 39.1342 132.716 39.2174C132.707 39.222 132.699 39.2123 132.701 39.2006L132.893 38.3366C132.919 38.2174 132.846 38.1142 132.729 38.1062C132.612 38.0983 132.496 38.1885 132.469 38.3078L132.278 39.1718C132.272 39.1976 132.271 39.2227 132.274 39.2462C132.28 39.2888 132.253 39.3513 132.215 39.3555C131.954 39.3842 131.685 39.3569 131.421 39.2983C131.385 39.2902 131.384 39.221 131.407 39.178C131.418 39.158 131.426 39.1366 131.431 39.1141L131.622 38.2502C131.649 38.1309 131.575 38.0277 131.458 38.0198C131.342 38.0118 131.225 38.1021 131.199 38.2213L131.008 39.0853C130.999 39.1239 130.962 39.1663 130.933 39.1561C130.774 39.1001 130.622 39.0379 130.48 38.9759C130.394 38.9382 130.308 38.8968 130.221 38.8521C130.209 38.8458 130.205 38.8288 130.209 38.8117L130.4 37.9477C130.426 37.8284 130.353 37.7253 130.236 37.7173C130.119 37.7093 130.003 37.7996 129.976 37.9189L129.837 38.5483C129.829 38.5849 129.793 38.6079 129.769 38.5924C129.54 38.449 129.314 38.2898 129.096 38.1249C129.083 38.1152 129.078 38.0965 129.082 38.0766L129.177 37.6452C129.204 37.5259 129.13 37.4228 129.014 37.4148C128.897 37.4069 128.78 37.4971 128.754 37.6164L128.727 37.7374C128.719 37.7762 128.68 37.7989 128.655 37.7793C128.372 37.549 128.109 37.3211 127.879 37.1216C127.761 37.0195 127.652 36.9249 127.553 36.8412C127.48 36.7788 127.407 36.7067 127.387 36.5963C127.373 36.5164 127.389 36.4454 127.437 36.3697C127.505 36.2652 127.607 36.205 127.705 36.1543C127.838 36.0864 127.985 36.0092 128.144 35.926C128.454 35.7633 128.809 35.5775 129.184 35.392C129.216 35.3762 129.244 35.4035 129.235 35.4422L129.232 35.4565C129.206 35.5758 129.279 35.679 129.396 35.6869C129.513 35.6949 129.629 35.6046 129.656 35.4853L129.728 35.1608C129.732 35.1409 129.745 35.1233 129.762 35.1157C130.046 34.985 130.335 34.8608 130.619 34.7524C130.65 34.7406 130.674 34.7677 130.666 34.8043L130.55 35.327C130.524 35.4463 130.597 35.5495 130.714 35.5574C130.831 35.5654 130.947 35.4751 130.974 35.3558L131.14 34.6056C131.145 34.5832 131.161 34.5642 131.18 34.5584C131.28 34.5278 131.38 34.5 131.477 34.4757C131.644 34.4339 131.821 34.3934 132.002 34.3601C132.03 34.355 132.049 34.3812 132.042 34.4141L131.868 35.1975C131.842 35.3168 131.915 35.4199 132.032 35.4279C132.149 35.4359 132.265 35.3456 132.292 35.2263L132.483 34.3624C132.483 34.3612 132.484 34.3599 132.484 34.3587C132.491 34.3247 132.515 34.2901 132.544 34.2881C132.813 34.2684 133.075 34.2777 133.307 34.3354C133.333 34.3419 133.341 34.3785 133.332 34.4119C133.331 34.4146 133.331 34.4173 133.33 34.42L133.139 35.284C133.112 35.4033 133.186 35.5064 133.303 35.5144C133.42 35.5223 133.536 35.4321 133.562 35.3128L133.718 34.6109Z" fill="#9BAF7A"/>
<path d="M133.543 37.3418C133.769 37.3738 134.012 37.1636 134.074 36.8824C134.137 36.6011 133.993 36.3646 133.76 36.3654L129.156 36.3805C129.084 36.3807 129.012 36.4491 128.993 36.5364C128.974 36.6237 129.013 36.6997 129.084 36.7096L133.543 37.3418Z" fill="#889A6B"/>
<path d="M138.344 62.3327C138.314 62.355 138.271 62.3416 138.265 62.3073C138.235 62.1328 138.241 61.9536 138.293 61.7707C138.45 61.2213 138.957 60.6688 139.492 60.2663C140.027 59.8637 140.71 59.5198 141.311 59.4986C141.531 59.4909 141.734 59.5333 141.921 59.6137C141.931 59.6181 141.931 59.632 141.922 59.6389L141.249 60.146C141.156 60.216 141.149 60.3551 141.235 60.4567C141.32 60.5583 141.465 60.5839 141.558 60.5139L142.232 60.0068C142.252 59.9917 142.268 59.9733 142.28 59.9527C142.302 59.9154 142.36 59.8893 142.392 59.9172C142.611 60.1079 142.803 60.3491 142.971 60.6091C142.994 60.6455 142.953 60.699 142.909 60.7131C142.888 60.7197 142.869 60.7294 142.851 60.7426L142.178 61.2497C142.085 61.3197 142.079 61.4588 142.164 61.5604C142.25 61.662 142.394 61.6876 142.487 61.6176L143.161 61.1105C143.191 61.0879 143.246 61.0858 143.262 61.1174C143.35 61.2897 143.43 61.4617 143.502 61.6252C143.546 61.7244 143.587 61.8268 143.627 61.9318C143.632 61.9466 143.625 61.963 143.612 61.9731L142.938 62.4802C142.845 62.5502 142.839 62.6893 142.925 62.7909C143.01 62.8925 143.155 62.9181 143.248 62.8481L143.739 62.4786C143.767 62.4572 143.809 62.4686 143.819 62.5007C143.908 62.7971 143.985 63.1039 144.054 63.4093C144.058 63.4271 144.051 63.4458 144.035 63.4575L143.699 63.7106C143.606 63.7806 143.6 63.9198 143.686 64.0213C143.771 64.1229 143.916 64.1485 144.009 64.0785L144.103 64.0075C144.133 63.9847 144.177 63.9991 144.184 64.034C144.263 64.4419 144.327 64.8317 144.384 65.1728C144.413 65.3473 144.44 65.5091 144.465 65.6541C144.484 65.7623 144.496 65.877 144.444 65.9777C144.407 66.0506 144.351 66.0923 144.268 66.1107C144.152 66.1362 144.037 66.0991 143.93 66.0573C143.786 66.0013 143.625 65.9403 143.452 65.8745C143.113 65.7459 142.726 65.599 142.323 65.4351C142.288 65.4211 142.283 65.3773 142.314 65.3546L142.325 65.3462C142.418 65.2762 142.424 65.1371 142.338 65.0355C142.253 64.9339 142.108 64.9083 142.015 64.9783L141.762 65.1688C141.747 65.1805 141.726 65.1831 141.708 65.1754C141.409 65.0436 141.11 64.9031 140.825 64.7545C140.794 64.7384 140.791 64.6975 140.82 64.6761L141.227 64.3693C141.32 64.2993 141.326 64.1601 141.241 64.0586C141.155 63.957 141.011 63.9314 140.918 64.0014L140.333 64.4417C140.315 64.4548 140.291 64.4563 140.273 64.4453C140.177 64.3867 140.083 64.327 139.993 64.2664C139.839 64.162 139.677 64.0482 139.517 63.926C139.492 63.9073 139.493 63.8714 139.519 63.8521L140.13 63.3923C140.223 63.3223 140.229 63.1832 140.143 63.0816C140.058 62.98 139.913 62.9544 139.82 63.0244L139.147 63.5315L139.144 63.5337C139.118 63.5541 139.078 63.5608 139.055 63.5392C138.834 63.3343 138.638 63.1132 138.493 62.8794C138.477 62.8531 138.494 62.819 138.521 62.8004C138.523 62.7989 138.525 62.7973 138.527 62.7957L139.201 62.2886C139.294 62.2186 139.3 62.0795 139.214 61.9779C139.129 61.8763 138.984 61.8507 138.891 61.9207L138.344 62.3327Z" fill="#9BAF7A"/>
<path d="M140.14 60.3783C139.985 60.1694 139.67 60.1325 139.45 60.2976C139.231 60.4627 139.198 60.7617 139.379 60.9514L142.946 64.6988C143.002 64.7577 143.099 64.7636 143.167 64.7124C143.235 64.6611 143.25 64.5705 143.202 64.5056L140.14 60.3783Z" fill="#889A6B"/>
<path d="M135.649 58.2773C135.662 58.2281 135.726 58.2019 135.765 58.2305C135.968 58.3759 136.131 58.5594 136.245 58.7887C136.585 59.4773 136.517 60.4906 136.273 61.38C136.03 62.2693 135.557 63.2364 134.871 63.808C134.621 64.0169 134.342 64.1605 134.046 64.252C134.03 64.2571 134.016 64.2436 134.02 64.2284L134.327 63.1082C134.369 62.9535 134.243 62.8099 134.046 62.7874C133.849 62.7649 133.655 62.872 133.612 63.0267L133.306 64.1469C133.296 64.1804 133.295 64.2133 133.301 64.2447C133.311 64.3015 133.267 64.3811 133.203 64.3828C132.764 64.394 132.309 64.3303 131.864 64.226C131.801 64.2114 131.799 64.1201 131.837 64.0657C131.855 64.0405 131.869 64.0131 131.877 63.9839L132.183 62.8637C132.225 62.7091 132.1 62.5654 131.902 62.5429C131.705 62.5204 131.511 62.6276 131.469 62.7822L131.162 63.9025C131.148 63.9524 131.086 64.0046 131.037 63.9881C130.769 63.8981 130.511 63.8004 130.271 63.704C130.125 63.6454 129.978 63.5819 129.831 63.5141C129.811 63.5046 129.803 63.4817 129.81 63.4594L130.116 62.3392C130.158 62.1846 130.033 62.0409 129.835 62.0184C129.638 61.9959 129.444 62.1031 129.402 62.2578L129.178 63.0739C129.165 63.1213 129.106 63.148 129.064 63.125C128.676 62.9125 128.292 62.6792 127.92 62.4391C127.898 62.4251 127.889 62.3998 127.896 62.374L128.049 61.8147C128.091 61.6601 127.966 61.5164 127.768 61.4939C127.571 61.4714 127.377 61.5786 127.335 61.7333L127.292 61.8902C127.278 61.9404 127.212 61.9665 127.171 61.938C126.69 61.6052 126.242 61.2775 125.85 60.9907C125.65 60.844 125.464 60.7079 125.295 60.5874C125.17 60.4974 125.046 60.3949 125.011 60.2472C124.986 60.1403 125.011 60.0482 125.091 59.9534C125.203 59.8224 125.373 59.7535 125.539 59.6967C125.761 59.6207 126.008 59.534 126.274 59.4405C126.795 59.2577 127.389 59.0489 128.018 58.8427C128.072 58.8251 128.12 58.864 128.106 58.9142L128.101 58.9327C128.059 59.0874 128.184 59.231 128.382 59.2535C128.579 59.276 128.773 59.1689 128.816 59.0142L128.931 58.5934C128.938 58.5676 128.96 58.5458 128.988 58.5375C129.465 58.3942 129.949 58.26 130.426 58.146C130.478 58.1337 130.52 58.172 130.507 58.2194L130.321 58.8971C130.279 59.0518 130.405 59.1954 130.602 59.2179C130.799 59.2404 130.994 59.1333 131.036 58.9786L131.302 58.0058C131.31 57.9768 131.337 57.9534 131.369 57.9477C131.538 57.9176 131.704 57.8912 131.868 57.8691C132.149 57.831 132.447 57.7958 132.752 57.7704C132.798 57.7665 132.831 57.8031 132.82 57.8457L132.542 58.8615C132.499 59.0162 132.625 59.1598 132.822 59.1823C133.02 59.2048 133.214 59.0977 133.256 58.943L133.563 57.8228C133.563 57.8212 133.564 57.8196 133.564 57.818C133.575 57.7739 133.615 57.7308 133.663 57.731C134.117 57.7327 134.559 57.7718 134.952 57.8718C134.996 57.883 135.009 57.932 134.995 57.9752C134.994 57.9787 134.993 57.9822 134.992 57.9858L134.685 59.106C134.643 59.2606 134.769 59.4043 134.966 59.4268C135.163 59.4493 135.357 59.3421 135.4 59.1874L135.649 58.2773Z" fill="#9BAF7A"/>
<path d="M135.406 61.8624C135.787 61.9278 136.193 61.6754 136.292 61.3107C136.392 60.946 136.145 60.6193 135.752 60.5964L127.99 60.144C127.868 60.1369 127.749 60.2198 127.718 60.333C127.687 60.4462 127.755 60.5505 127.873 60.5708L135.406 61.8624Z" fill="#889A6B"/>
</g>
</svg>
