<svg width="245" height="160" viewBox="0 0 245 160" fill="none" xmlns="http://www.w3.org/2000/svg">
<rect width="244.737" height="159.649" fill="#FFE99B"/>
<mask id="mask0_2_904" style="mask-type:alpha" maskUnits="userSpaceOnUse" x="0" y="0" width="245" height="160">
<rect width="244.737" height="159.649" fill="#FFE99B"/>
</mask>
<g mask="url(#mask0_2_904)">
<path d="M14 63.5C14 61.567 15.567 60 17.5 60H31.5C33.433 60 35 61.567 35 63.5C35 65.433 33.433 67 31.5 67H17.5C15.567 67 14 65.433 14 63.5Z" fill="#E0CA92"/>
<path d="M4 56.5C4 54.567 5.567 53 7.5 53H21.5C23.433 53 25 54.567 25 56.5C25 58.433 23.433 60 21.5 60H7.5C5.567 60 4 58.433 4 56.5Z" fill="#E0CA92"/>
<path d="M25 56.5C25 54.567 26.567 53 28.5 53H42.5C44.433 53 46 54.567 46 56.5C46 58.433 44.433 60 42.5 60H28.5C26.567 60 25 58.433 25 56.5Z" fill="#E0CA92"/>
<path d="M97 83.5C97 85.433 98.567 87 100.5 87H114.5C116.433 87 118 85.433 118 83.5C118 81.567 116.433 80 114.5 80H100.5C98.567 80 97 81.567 97 83.5Z" fill="#E0CA92"/>
<path d="M87 90.5C87 92.433 88.567 94 90.5 94H104.5C106.433 94 108 92.433 108 90.5C108 88.567 106.433 87 104.5 87H90.5C88.567 87 87 88.567 87 90.5Z" fill="#E0CA92"/>
<path d="M108 90.5C108 92.433 109.567 94 111.5 94H125.5C127.433 94 129 92.433 129 90.5C129 88.567 127.433 87 125.5 87H111.5C109.567 87 108 88.567 108 90.5Z" fill="#E0CA92"/>
<path d="M120 133.5C120 135.433 121.567 137 123.5 137H137.5C139.433 137 141 135.433 141 133.5C141 131.567 139.433 130 137.5 130H123.5C121.567 130 120 131.567 120 133.5Z" fill="#E0CA92"/>
<path d="M110 140.5C110 142.433 111.567 144 113.5 144H127.5C129.433 144 131 142.433 131 140.5C131 138.567 129.433 137 127.5 137H113.5C111.567 137 110 138.567 110 140.5Z" fill="#E0CA92"/>
<path d="M131 140.5C131 142.433 132.567 144 134.5 144H148.5C150.433 144 152 142.433 152 140.5C152 138.567 150.433 137 148.5 137H134.5C132.567 137 131 138.567 131 140.5Z" fill="#E0CA92"/>
<path d="M59 122.5C59 120.567 60.567 119 62.5 119H76.5C78.433 119 80 120.567 80 122.5C80 124.433 78.433 126 76.5 126H62.5C60.567 126 59 124.433 59 122.5Z" fill="#E0CA92"/>
<path d="M49 115.5C49 113.567 50.567 112 52.5 112H66.5C68.433 112 70 113.567 70 115.5C70 117.433 68.433 119 66.5 119H52.5C50.567 119 49 117.433 49 115.5Z" fill="#E0CA92"/>
<path d="M191 154.5C191 152.567 192.567 151 194.5 151H208.5C210.433 151 212 152.567 212 154.5C212 156.433 210.433 158 208.5 158H194.5C192.567 158 191 156.433 191 154.5Z" fill="#E0CA92"/>
<path d="M181 147.5C181 145.567 182.567 144 184.5 144H198.5C200.433 144 202 145.567 202 147.5C202 149.433 200.433 151 198.5 151H184.5C182.567 151 181 149.433 181 147.5Z" fill="#E0CA92"/>
<path d="M170 57.5C170 55.567 168.433 54 166.5 54H152.5C150.567 54 149 55.567 149 57.5C149 59.433 150.567 61 152.5 61H166.5C168.433 61 170 59.433 170 57.5Z" fill="#E0CA92"/>
<path d="M180 50.5C180 48.567 178.433 47 176.5 47H162.5C160.567 47 159 48.567 159 50.5C159 52.433 160.567 54 162.5 54H176.5C178.433 54 180 52.433 180 50.5Z" fill="#E0CA92"/>
<rect x="-5" y="73" width="21" height="7" rx="3.5" fill="#E0CA92"/>
<path d="M13 148.5C13 146.567 14.567 145 16.5 145H30.5C32.433 145 34 146.567 34 148.5C34 150.433 32.433 152 30.5 152H16.5C14.567 152 13 150.433 13 148.5Z" fill="#E0CA92"/>
<path d="M3 141.5C3 139.567 4.567 138 6.5 138H20.5C22.433 138 24 139.567 24 141.5C24 143.433 22.433 145 20.5 145H6.5C4.567 145 3 143.433 3 141.5Z" fill="#E0CA92"/>
<path d="M24 141.5C24 139.567 25.567 138 27.5 138H41.5C43.433 138 45 139.567 45 141.5C45 143.433 43.433 145 41.5 145H27.5C25.567 145 24 143.433 24 141.5Z" fill="#E0CA92"/>
<path d="M44 155.5C44 153.567 45.567 152 47.5 152H61.5C63.433 152 65 153.567 65 155.5C65 157.433 63.433 159 61.5 159H47.5C45.567 159 44 157.433 44 155.5Z" fill="#E0CA92"/>
<path d="M34 148.5C34 146.567 35.567 145 37.5 145H51.5C53.433 145 55 146.567 55 148.5C55 150.433 53.433 152 51.5 152H37.5C35.567 152 34 150.433 34 148.5Z" fill="#E0CA92"/>
<path d="M55 148.5C55 146.567 56.567 145 58.5 145H72.5C74.433 145 76 146.567 76 148.5C76 150.433 74.433 152 72.5 152H58.5C56.567 152 55 150.433 55 148.5Z" fill="#E0CA92"/>
<path d="M13 134.5C13 132.567 14.567 131 16.5 131H30.5C32.433 131 34 132.567 34 134.5C34 136.433 32.433 138 30.5 138H16.5C14.567 138 13 136.433 13 134.5Z" fill="#E0CA92"/>
<path d="M50 12.5C50 10.567 51.567 9 53.5 9H67.5C69.433 9 71 10.567 71 12.5C71 14.433 69.433 16 67.5 16H53.5C51.567 16 50 14.433 50 12.5Z" fill="#E0CA92"/>
<path d="M40 5.5C40 3.567 41.567 2 43.5 2H57.5C59.433 2 61 3.567 61 5.5C61 7.433 59.433 9 57.5 9H43.5C41.567 9 40 7.433 40 5.5Z" fill="#E0CA92"/>
<path d="M61 5.5C61 3.567 62.567 2 64.5 2H78.5C80.433 2 82 3.567 82 5.5C82 7.433 80.433 9 78.5 9H64.5C62.567 9 61 7.433 61 5.5Z" fill="#E0CA92"/>
<path d="M81 19.5C81 17.567 82.567 16 84.5 16H98.5C100.433 16 102 17.567 102 19.5C102 21.433 100.433 23 98.5 23H84.5C82.567 23 81 21.433 81 19.5Z" fill="#E0CA92"/>
<path d="M71 12.5C71 10.567 72.567 9 74.5 9H88.5C90.433 9 92 10.567 92 12.5C92 14.433 90.433 16 88.5 16H74.5C72.567 16 71 14.433 71 12.5Z" fill="#E0CA92"/>
<path d="M92 12.5C92 10.567 93.567 9 95.5 9H109.5C111.433 9 113 10.567 113 12.5C113 14.433 111.433 16 109.5 16H95.5C93.567 16 92 14.433 92 12.5Z" fill="#E0CA92"/>
<path d="M50 -1.5C50 -3.433 51.567 -5 53.5 -5H67.5C69.433 -5 71 -3.433 71 -1.5C71 0.432997 69.433 2 67.5 2H53.5C51.567 2 50 0.432997 50 -1.5Z" fill="#E0CA92"/>
<path d="M202 12.5C202 10.567 203.567 9 205.5 9H219.5C221.433 9 223 10.567 223 12.5C223 14.433 221.433 16 219.5 16H205.5C203.567 16 202 14.433 202 12.5Z" fill="#E0CA92"/>
<path d="M192 5.5C192 3.567 193.567 2 195.5 2H209.5C211.433 2 213 3.567 213 5.5C213 7.433 211.433 9 209.5 9H195.5C193.567 9 192 7.433 192 5.5Z" fill="#E0CA92"/>
<path d="M213 5.5C213 3.567 214.567 2 216.5 2H230.5C232.433 2 234 3.567 234 5.5C234 7.433 232.433 9 230.5 9H216.5C214.567 9 213 7.433 213 5.5Z" fill="#E0CA92"/>
<path d="M233 19.5C233 17.567 234.567 16 236.5 16H250.5C252.433 16 254 17.567 254 19.5C254 21.433 252.433 23 250.5 23H236.5C234.567 23 233 21.433 233 19.5Z" fill="#E0CA92"/>
<path d="M223 12.5C223 10.567 224.567 9 226.5 9H240.5C242.433 9 244 10.567 244 12.5C244 14.433 242.433 16 240.5 16H226.5C224.567 16 223 14.433 223 12.5Z" fill="#E0CA92"/>
<path d="M244 12.5C244 10.567 245.567 9 247.5 9H261.5C263.433 9 265 10.567 265 12.5C265 14.433 263.433 16 261.5 16H247.5C245.567 16 244 14.433 244 12.5Z" fill="#E0CA92"/>
<path d="M202 -1.5C202 -3.433 203.567 -5 205.5 -5H219.5C221.433 -5 223 -3.433 223 -1.5C223 0.432997 221.433 2 219.5 2H205.5C203.567 2 202 0.432997 202 -1.5Z" fill="#E0CA92"/>
<path d="M251 100.5C251 98.567 249.433 97 247.5 97H233.5C231.567 97 230 98.567 230 100.5C230 102.433 231.567 104 233.5 104H247.5C249.433 104 251 102.433 251 100.5Z" fill="#E0CA92"/>
<path d="M261 93.5C261 91.567 259.433 90 257.5 90H243.5C241.567 90 240 91.567 240 93.5C240 95.433 241.567 97 243.5 97H257.5C259.433 97 261 95.433 261 93.5Z" fill="#E0CA92"/>
<path d="M240 93.5C240 91.567 238.433 90 236.5 90H222.5C220.567 90 219 91.567 219 93.5C219 95.433 220.567 97 222.5 97H236.5C238.433 97 240 95.433 240 93.5Z" fill="#E0CA92"/>
<path d="M220 107.5C220 105.567 218.433 104 216.5 104H202.5C200.567 104 199 105.567 199 107.5C199 109.433 200.567 111 202.5 111H216.5C218.433 111 220 109.433 220 107.5Z" fill="#E0CA92"/>
<path d="M230 100.5C230 98.567 228.433 97 226.5 97H212.5C210.567 97 209 98.567 209 100.5C209 102.433 210.567 104 212.5 104H226.5C228.433 104 230 102.433 230 100.5Z" fill="#E0CA92"/>
<path d="M209 100.5C209 98.567 207.433 97 205.5 97H191.5C189.567 97 188 98.567 188 100.5C188 102.433 189.567 104 191.5 104H205.5C207.433 104 209 102.433 209 100.5Z" fill="#E0CA92"/>
<path d="M251 86.5C251 84.567 249.433 83 247.5 83H233.5C231.567 83 230 84.567 230 86.5C230 88.433 231.567 90 233.5 90H247.5C249.433 90 251 88.433 251 86.5Z" fill="#E0CA92"/>
</g>
</svg>
