<svg width="180" height="160" viewBox="0 0 180 160" fill="none" xmlns="http://www.w3.org/2000/svg">
<rect width="180" height="160" fill="#012D33"/>
<path fill-rule="evenodd" clip-rule="evenodd" d="M0 10V12.7639C0.613749 13.3132 1 14.1115 1 15V19C1 19.8885 0.613749 20.6868 0 21.2361V24H13C14.6569 24 16 25.3431 16 27V31C16 32.6569 14.6569 34 13 34H0V36.7639C0.613749 37.3132 1 38.1115 1 39V43C1 43.8885 0.613749 44.6868 0 45.2361V48H13C14.6569 48 16 49.3431 16 51V55C16 56.6569 14.6569 58 13 58H0V60.7639C0.613749 61.3132 1 62.1115 1 63V67C1 67.8885 0.613749 68.6868 0 69.2361V72H13C14.6569 72 16 73.3431 16 75V79C16 80.6569 14.6569 82 13 82H0V84.7639C0.613749 85.3132 1 86.1115 1 87V91C1 91.8885 0.613749 92.6868 0 93.2361V96H13C14.6569 96 16 97.3431 16 99V103C16 104.657 14.6569 106 13 106H0V108.764C0.613749 109.313 1 110.112 1 111V115C1 115.888 0.613749 116.687 0 117.236V120H13C14.6569 120 16 121.343 16 123V127C16 128.657 14.6569 130 13 130H0V132.764C0.613749 133.313 1 134.111 1 135V139C1 139.889 0.613749 140.687 0 141.236V144H13C14.6569 144 16 145.343 16 147V151C16 152.657 14.6569 154 13 154H0V156.764C0.613749 157.313 1 158.111 1 159V160H3V159C3 157.343 4.34315 156 6 156H30C31.6569 156 33 157.343 33 159V160H35V159C35 157.343 36.3431 156 38 156H62C63.6569 156 65 157.343 65 159V160H67V159C67 157.343 68.3431 156 70 156H94C95.6569 156 97 157.343 97 159V160H99V159C99 157.343 100.343 156 102 156H126C127.657 156 129 157.343 129 159V160H131V159C131 157.343 132.343 156 134 156H158C159.657 156 161 157.343 161 159V160H163V159C163 157.343 164.343 156 166 156H180V153.829C178.835 153.417 178 152.306 178 151V147C178 145.694 178.835 144.583 180 144.171V142H166C164.343 142 163 140.657 163 139V135C163 133.343 164.343 132 166 132H180V129.829C178.835 129.417 178 128.306 178 127V123C178 121.694 178.835 120.583 180 120.171V118H166C164.343 118 163 116.657 163 115V111C163 109.343 164.343 108 166 108H180V105.829C178.835 105.417 178 104.306 178 103V99C178 97.6938 178.835 96.5825 180 96.1707V94H166C164.343 94 163 92.6569 163 91V87C163 85.3431 164.343 84 166 84H180V81.8293C178.835 81.4175 178 80.3062 178 79V75C178 73.6938 178.835 72.5825 180 72.1707V70H166C164.343 70 163 68.6569 163 67V63C163 61.3431 164.343 60 166 60H180V57.8293C178.835 57.4175 178 56.3062 178 55V51C178 49.6938 178.835 48.5825 180 48.1707V46H166C164.343 46 163 44.6569 163 43V39C163 37.3431 164.343 36 166 36H180V33.8293C178.835 33.4175 178 32.3062 178 31V27C178 25.6938 178.835 24.5825 180 24.1707V22H166C164.343 22 163 20.6569 163 19V15C163 13.3431 164.343 12 166 12H180V9.8293C178.835 9.41746 178 8.30622 178 7V3C178 1.69378 178.835 0.582541 180 0.170705V0H173C174.657 0 176 1.34315 176 3V7C176 8.65685 174.657 10 173 10H149C147.343 10 146 8.65685 146 7V3C146 1.34315 147.343 0 149 0H141C142.657 0 144 1.34315 144 3V7C144 8.65685 142.657 10 141 10H117C115.343 10 114 8.65685 114 7V3C114 1.34315 115.343 0 117 0H109C110.657 0 112 1.34315 112 3V7C112 8.65685 110.657 10 109 10H85C83.3431 10 82 8.65685 82 7V3C82 1.34315 83.3431 0 85 0H77C78.6569 0 80 1.34315 80 3V7C80 8.65685 78.6569 10 77 10H53C51.3431 10 50 8.65685 50 7V3C50 1.34315 51.3431 0 53 0H45C46.6569 0 48 1.34315 48 3V7C48 8.65685 46.6569 10 45 10H21C19.3431 10 18 8.65685 18 7V3C18 1.34315 19.3431 0 21 0H13C14.6569 0 16 1.34315 16 3V7C16 8.65685 14.6569 10 13 10H0ZM3 135C3 133.343 4.34315 132 6 132H30C31.6569 132 33 133.343 33 135V139C33 140.657 31.6569 142 30 142H6C4.34315 142 3 140.657 3 139V135ZM38 132C36.3431 132 35 133.343 35 135V139C35 140.657 36.3431 142 38 142H62C63.6569 142 65 140.657 65 139V135C65 133.343 63.6569 132 62 132H38ZM67 135C67 133.343 68.3431 132 70 132H94C95.6569 132 97 133.343 97 135V139C97 140.657 95.6569 142 94 142H70C68.3431 142 67 140.657 67 139V135ZM102 132C100.343 132 99 133.343 99 135V139C99 140.657 100.343 142 102 142H126C127.657 142 129 140.657 129 139V135C129 133.343 127.657 132 126 132H102ZM131 135C131 133.343 132.343 132 134 132H158C159.657 132 161 133.343 161 135V139C161 140.657 159.657 142 158 142H134C132.343 142 131 140.657 131 139V135ZM21 144C19.3431 144 18 145.343 18 147V151C18 152.657 19.3431 154 21 154H45C46.6569 154 48 152.657 48 151V147C48 145.343 46.6569 144 45 144H21ZM50 147C50 145.343 51.3431 144 53 144H77C78.6569 144 80 145.343 80 147V151C80 152.657 78.6569 154 77 154H53C51.3431 154 50 152.657 50 151V147ZM85 144C83.3431 144 82 145.343 82 147V151C82 152.657 83.3431 154 85 154H109C110.657 154 112 152.657 112 151V147C112 145.343 110.657 144 109 144H85ZM114 147C114 145.343 115.343 144 117 144H141C142.657 144 144 145.343 144 147V151C144 152.657 142.657 154 141 154H117C115.343 154 114 152.657 114 151V147ZM149 144C147.343 144 146 145.343 146 147V151C146 152.657 147.343 154 149 154H173C174.657 154 176 152.657 176 151V147C176 145.343 174.657 144 173 144H149ZM18 123C18 121.343 19.3431 120 21 120H45C46.6569 120 48 121.343 48 123V127C48 128.657 46.6569 130 45 130H21C19.3431 130 18 128.657 18 127V123ZM53 120C51.3431 120 50 121.343 50 123V127C50 128.657 51.3431 130 53 130H77C78.6569 130 80 128.657 80 127V123C80 121.343 78.6569 120 77 120H53ZM82 123C82 121.343 83.3431 120 85 120H109C110.657 120 112 121.343 112 123V127C112 128.657 110.657 130 109 130H85C83.3431 130 82 128.657 82 127V123ZM117 120C115.343 120 114 121.343 114 123V127C114 128.657 115.343 130 117 130H141C142.657 130 144 128.657 144 127V123C144 121.343 142.657 120 141 120H117ZM146 123C146 121.343 147.343 120 149 120H173C174.657 120 176 121.343 176 123V127C176 128.657 174.657 130 173 130H149C147.343 130 146 128.657 146 127V123ZM6 108C4.34315 108 3 109.343 3 111V115C3 116.657 4.34315 118 6 118H30C31.6569 118 33 116.657 33 115V111C33 109.343 31.6569 108 30 108H6ZM35 111C35 109.343 36.3431 108 38 108H62C63.6569 108 65 109.343 65 111V115C65 116.657 63.6569 118 62 118H38C36.3431 118 35 116.657 35 115V111ZM70 108C68.3431 108 67 109.343 67 111V115C67 116.657 68.3431 118 70 118H94C95.6569 118 97 116.657 97 115V111C97 109.343 95.6569 108 94 108H70ZM99 111C99 109.343 100.343 108 102 108H126C127.657 108 129 109.343 129 111V115C129 116.657 127.657 118 126 118H102C100.343 118 99 116.657 99 115V111ZM134 108C132.343 108 131 109.343 131 111V115C131 116.657 132.343 118 134 118H158C159.657 118 161 116.657 161 115V111C161 109.343 159.657 108 158 108H134ZM3 63C3 61.3431 4.34315 60 6 60H30C31.6569 60 33 61.3431 33 63V67C33 68.6569 31.6569 70 30 70H6C4.34315 70 3 68.6569 3 67V63ZM38 60C36.3431 60 35 61.3431 35 63V67C35 68.6569 36.3431 70 38 70H62C63.6569 70 65 68.6569 65 67V63C65 61.3431 63.6569 60 62 60H38ZM67 63C67 61.3431 68.3431 60 70 60H94C95.6569 60 97 61.3431 97 63V67C97 68.6569 95.6569 70 94 70H70C68.3431 70 67 68.6569 67 67V63ZM102 60C100.343 60 99 61.3431 99 63V67C99 68.6569 100.343 70 102 70H126C127.657 70 129 68.6569 129 67V63C129 61.3431 127.657 60 126 60H102ZM131 63C131 61.3431 132.343 60 134 60H158C159.657 60 161 61.3431 161 63V67C161 68.6569 159.657 70 158 70H134C132.343 70 131 68.6569 131 67V63ZM6 12C4.34315 12 3 13.3431 3 15V19C3 20.6569 4.34315 22 6 22H30C31.6569 22 33 20.6569 33 19V15C33 13.3431 31.6569 12 30 12H6ZM35 15C35 13.3431 36.3431 12 38 12H62C63.6569 12 65 13.3431 65 15V19C65 20.6569 63.6569 22 62 22H38C36.3431 22 35 20.6569 35 19V15ZM70 12C68.3431 12 67 13.3431 67 15V19C67 20.6569 68.3431 22 70 22H94C95.6569 22 97 20.6569 97 19V15C97 13.3431 95.6569 12 94 12H70ZM99 15C99 13.3431 100.343 12 102 12H126C127.657 12 129 13.3431 129 15V19C129 20.6569 127.657 22 126 22H102C100.343 22 99 20.6569 99 19V15ZM134 12C132.343 12 131 13.3431 131 15V19C131 20.6569 132.343 22 134 22H158C159.657 22 161 20.6569 161 19V15C161 13.3431 159.657 12 158 12H134ZM3 87C3 85.3431 4.34315 84 6 84H30C31.6569 84 33 85.3431 33 87V91C33 92.6569 31.6569 94 30 94H6C4.34315 94 3 92.6569 3 91V87ZM38 84C36.3431 84 35 85.3431 35 87V91C35 92.6569 36.3431 94 38 94H62C63.6569 94 65 92.6569 65 91V87C65 85.3431 63.6569 84 62 84H38ZM67 87C67 85.3431 68.3431 84 70 84H94C95.6569 84 97 85.3431 97 87V91C97 92.6569 95.6569 94 94 94H70C68.3431 94 67 92.6569 67 91V87ZM102 84C100.343 84 99 85.3431 99 87V91C99 92.6569 100.343 94 102 94H126C127.657 94 129 92.6569 129 91V87C129 85.3431 127.657 84 126 84H102ZM131 87C131 85.3431 132.343 84 134 84H158C159.657 84 161 85.3431 161 87V91C161 92.6569 159.657 94 158 94H134C132.343 94 131 92.6569 131 91V87ZM6 36C4.34315 36 3 37.3431 3 39V43C3 44.6569 4.34315 46 6 46H30C31.6569 46 33 44.6569 33 43V39C33 37.3431 31.6569 36 30 36H6ZM35 39C35 37.3431 36.3431 36 38 36H62C63.6569 36 65 37.3431 65 39V43C65 44.6569 63.6569 46 62 46H38C36.3431 46 35 44.6569 35 43V39ZM70 36C68.3431 36 67 37.3431 67 39V43C67 44.6569 68.3431 46 70 46H94C95.6569 46 97 44.6569 97 43V39C97 37.3431 95.6569 36 94 36H70ZM99 39C99 37.3431 100.343 36 102 36H126C127.657 36 129 37.3431 129 39V43C129 44.6569 127.657 46 126 46H102C100.343 46 99 44.6569 99 43V39ZM134 36C132.343 36 131 37.3431 131 39V43C131 44.6569 132.343 46 134 46H158C159.657 46 161 44.6569 161 43V39C161 37.3431 159.657 36 158 36H134ZM18 99C18 97.3431 19.3431 96 21 96H45C46.6569 96 48 97.3431 48 99V103C48 104.657 46.6569 106 45 106H21C19.3431 106 18 104.657 18 103V99ZM53 96C51.3431 96 50 97.3431 50 99V103C50 104.657 51.3431 106 53 106H77C78.6569 106 80 104.657 80 103V99C80 97.3431 78.6569 96 77 96H53ZM82 99C82 97.3431 83.3431 96 85 96H109C110.657 96 112 97.3431 112 99V103C112 104.657 110.657 106 109 106H85C83.3431 106 82 104.657 82 103V99ZM117 96C115.343 96 114 97.3431 114 99V103C114 104.657 115.343 106 117 106H141C142.657 106 144 104.657 144 103V99C144 97.3431 142.657 96 141 96H117ZM146 99C146 97.3431 147.343 96 149 96H173C174.657 96 176 97.3431 176 99V103C176 104.657 174.657 106 173 106H149C147.343 106 146 104.657 146 103V99ZM21 48C19.3431 48 18 49.3431 18 51V55C18 56.6569 19.3431 58 21 58H45C46.6569 58 48 56.6569 48 55V51C48 49.3431 46.6569 48 45 48H21ZM50 51C50 49.3431 51.3431 48 53 48H77C78.6569 48 80 49.3431 80 51V55C80 56.6569 78.6569 58 77 58H53C51.3431 58 50 56.6569 50 55V51ZM85 48C83.3431 48 82 49.3431 82 51V55C82 56.6569 83.3431 58 85 58H109C110.657 58 112 56.6569 112 55V51C112 49.3431 110.657 48 109 48H85ZM114 51C114 49.3431 115.343 48 117 48H141C142.657 48 144 49.3431 144 51V55C144 56.6569 142.657 58 141 58H117C115.343 58 114 56.6569 114 55V51ZM149 48C147.343 48 146 49.3431 146 51V55C146 56.6569 147.343 58 149 58H173C174.657 58 176 56.6569 176 55V51C176 49.3431 174.657 48 173 48H149ZM21 72C19.3431 72 18 73.3431 18 75V79C18 80.6569 19.3431 82 21 82H45C46.6569 82 48 80.6569 48 79V75C48 73.3431 46.6569 72 45 72H21ZM50 75C50 73.3431 51.3431 72 53 72H77C78.6569 72 80 73.3431 80 75V79C80 80.6569 78.6569 82 77 82H53C51.3431 82 50 80.6569 50 79V75ZM85 72C83.3431 72 82 73.3431 82 75V79C82 80.6569 83.3431 82 85 82H109C110.657 82 112 80.6569 112 79V75C112 73.3431 110.657 72 109 72H85ZM114 75C114 73.3431 115.343 72 117 72H141C142.657 72 144 73.3431 144 75V79C144 80.6569 142.657 82 141 82H117C115.343 82 114 80.6569 114 79V75ZM149 72C147.343 72 146 73.3431 146 75V79C146 80.6569 147.343 82 149 82H173C174.657 82 176 80.6569 176 79V75C176 73.3431 174.657 72 173 72H149ZM18 27C18 25.3431 19.3431 24 21 24H45C46.6569 24 48 25.3431 48 27V31C48 32.6569 46.6569 34 45 34H21C19.3431 34 18 32.6569 18 31V27ZM53 24C51.3431 24 50 25.3431 50 27V31C50 32.6569 51.3431 34 53 34H77C78.6569 34 80 32.6569 80 31V27C80 25.3431 78.6569 24 77 24H53ZM82 27C82 25.3431 83.3431 24 85 24H109C110.657 24 112 25.3431 112 27V31C112 32.6569 110.657 34 109 34H85C83.3431 34 82 32.6569 82 31V27ZM117 24C115.343 24 114 25.3431 114 27V31C114 32.6569 115.343 34 117 34H141C142.657 34 144 32.6569 144 31V27C144 25.3431 142.657 24 141 24H117ZM146 27C146 25.3431 147.343 24 149 24H173C174.657 24 176 25.3431 176 27V31C176 32.6569 174.657 34 173 34H149C147.343 34 146 32.6569 146 31V27Z" fill="#104147"/>
</svg>
