<svg width="80" height="91" viewBox="0 0 80 91" fill="none" xmlns="http://www.w3.org/2000/svg">
<path d="M2.8938 40.4172C2.8938 20.0931 19.3697 3.61719 39.6938 3.61719C60.0179 3.61719 76.4938 20.0931 76.4938 40.4172V82.8161C76.4938 85.0253 74.7029 86.8161 72.4938 86.8161H6.89379C4.68465 86.8161 2.8938 85.0253 2.8938 82.8161V40.4172Z" fill="#BEDEFC"/>
<rect x="39" y="3" width="4" height="87" fill="#C28383"/>
<rect x="2" y="36" width="4" height="76" transform="rotate(-90 2 36)" fill="#C28383"/>
<rect x="2" y="62" width="4" height="76" transform="rotate(-90 2 62)" fill="#C28383"/>
<rect x="1" y="88" width="4" height="76" transform="rotate(-90 1 88)" fill="#C28383"/>
<path fill-rule="evenodd" clip-rule="evenodd" d="M40 0C17.9086 0 0 17.9086 0 40V86.4336C0 88.6428 1.79086 90.4336 4 90.4336H76C78.2091 90.4336 80 88.6428 80 86.4336V40C80 17.9086 62.0914 0 40 0ZM39.6938 3.61719C19.3697 3.61719 2.8938 20.0931 2.8938 40.4172V82.8161C2.8938 85.0253 4.68465 86.8161 6.89379 86.8161H72.4938C74.7029 86.8161 76.4938 85.0253 76.4938 82.8161V40.4172C76.4938 20.0931 60.0179 3.61719 39.6938 3.61719Z" fill="#FFB2B2"/>
<rect x="37.6204" width="3.61734" height="90.4336" fill="#FFB2B2"/>
<rect y="63.6653" width="3.61734" height="79.5816" transform="rotate(-90 0 63.6653)" fill="#FFB2B2"/>
<rect x="0.723389" y="37.6204" width="3.61734" height="78.8581" transform="rotate(-90 0.723389 37.6204)" fill="#FFB2B2"/>
<path d="M36.3845 73.6155C36.3845 71.9586 35.0414 70.6155 33.3845 70.6155H23.9999C22.3431 70.6155 20.9999 71.9586 20.9999 73.6155V80.0001C20.9999 83.3138 23.6862 86.0001 26.9999 86.0001H30.3845C33.6982 86.0001 36.3845 83.3138 36.3845 80.0001V73.6155Z" fill="#F0F8FF"/>
<path d="M35.3589 71.2063C35.3589 70.8956 35.082 70.6581 34.775 70.7053L34.4816 70.7504C30.6446 71.3408 26.7398 71.3408 22.9028 70.7504L22.6095 70.7053C22.3024 70.6581 22.0256 70.8956 22.0256 71.2063C22.0256 71.4564 22.2081 71.6692 22.4553 71.7072L22.6945 71.744C26.6696 72.3556 30.7148 72.3556 34.69 71.744L34.9291 71.7072C35.1764 71.6692 35.3589 71.4564 35.3589 71.2063Z" fill="#D6E2ED"/>
<path d="M22.5384 71.1282C23.5309 71.1282 25.2935 71.1282 28.6922 71.1282C32.0909 71.1282 32.861 71.1282 34.8461 71.1282C34.8461 68.8624 32.0909 67.0256 28.6922 67.0256C25.2935 67.0256 22.5384 68.8624 22.5384 71.1282Z" fill="#EEF7FF"/>
<path d="M27.1538 67.5385C27.4019 67.5385 27.8426 67.5385 28.6922 67.5385C29.5419 67.5385 29.7344 67.5385 30.2307 67.5385C30.2307 66.6888 29.5419 66 28.6922 66C27.8426 66 27.1538 66.6888 27.1538 67.5385Z" fill="#EEF7FF"/>
<path d="M35.3589 70.8561C35.3589 70.453 35.0103 70.1383 34.6093 70.1794L31.8972 70.4576C29.7661 70.6762 27.6183 70.6762 25.4873 70.4576L22.7751 70.1794C22.3741 70.1383 22.0256 70.453 22.0256 70.8561C22.0256 71.2049 22.2894 71.4971 22.6363 71.5327L25.1463 71.7902C27.5041 72.032 29.8804 72.032 32.2381 71.7902L34.7481 71.5327C35.0951 71.4971 35.3589 71.2049 35.3589 70.8561Z" fill="#EEF7FF"/>
<path d="M33.8206 70.2961C33.8206 70.1936 33.7303 70.1146 33.6287 70.1281L33.0705 70.2026C30.1646 70.59 27.2201 70.59 24.3142 70.2026L23.756 70.1281C23.6544 70.1146 23.5641 70.1936 23.5641 70.2961C23.5641 70.381 23.627 70.4528 23.7112 70.464L24.1594 70.5238C27.1681 70.9249 30.2166 70.9249 33.2253 70.5238L33.6735 70.464C33.7577 70.4528 33.8206 70.381 33.8206 70.2961Z" fill="#D6E2ED"/>
<path d="M30.2307 67.7788C30.2307 67.6658 30.1133 67.5906 30.01 67.6365C29.1751 68.0076 28.2094 68.0076 27.3745 67.6365C27.2712 67.5906 27.1538 67.6658 27.1538 67.7788C27.1538 67.8405 27.1909 67.8968 27.2473 67.9219C28.16 68.3275 29.2245 68.3275 30.1372 67.9219C30.1936 67.8968 30.2307 67.8405 30.2307 67.7788Z" fill="#D6E2ED"/>
<ellipse rx="4.10256" ry="1.53846" transform="matrix(-0.996424 0.0844879 0.0844879 0.996424 29.6539 83.7769)" fill="#DBBD99"/>
<ellipse rx="0.512821" ry="0.25641" transform="matrix(-0.996424 0.0844879 0.0844879 0.996424 27.1205 84.2491)" fill="#F5EFEC"/>
<ellipse rx="0.512821" ry="0.25641" transform="matrix(-0.996424 0.0844879 0.0844879 0.996424 32.1869 83.3048)" fill="#F5EFEC"/>
<ellipse rx="0.512821" ry="0.25641" transform="matrix(-0.996424 0.0844879 0.0844879 0.996424 30.6108 82.9237)" fill="#F5EFEC"/>
<ellipse rx="0.512821" ry="0.25641" transform="matrix(-0.996424 0.0844879 0.0844879 0.996424 29.1645 84.0758)" fill="#F5EFEC"/>
<ellipse rx="0.512821" ry="0.25641" transform="matrix(-0.996424 0.0844879 0.0844879 0.996424 31.2519 84.4133)" fill="#F5EFEC"/>
<ellipse rx="0.512821" ry="0.25641" transform="matrix(-0.996424 0.0844879 0.0844879 0.996424 28.0344 82.8849)" fill="#F5EFEC"/>
<ellipse rx="4.10256" ry="1.86565" transform="matrix(-0.980925 -0.194384 -0.194384 0.980925 25.9709 81.3445)" fill="#DBBD99"/>
<ellipse rx="0.512821" ry="0.310942" transform="matrix(-0.980925 -0.194384 -0.194384 0.980925 23.3953 81.151)" fill="#F5EFEC"/>
<ellipse rx="0.512821" ry="0.310942" transform="matrix(-0.980925 -0.194384 -0.194384 0.980925 28.5464 81.538)" fill="#F5EFEC"/>
<ellipse rx="0.512821" ry="0.310942" transform="matrix(-0.980925 -0.194384 -0.194384 0.980925 27.1584 80.6288)" fill="#F5EFEC"/>
<ellipse rx="0.512821" ry="0.310942" transform="matrix(-0.980925 -0.194384 -0.194384 0.980925 25.4075 81.5498)" fill="#F5EFEC"/>
<ellipse rx="0.512821" ry="0.310942" transform="matrix(-0.980925 -0.194384 -0.194384 0.980925 27.2988 82.5585)" fill="#F5EFEC"/>
<ellipse rx="0.512821" ry="0.310942" transform="matrix(-0.980925 -0.194384 -0.194384 0.980925 24.7034 79.8254)" fill="#F5EFEC"/>
<ellipse rx="4.10256" ry="1.90884" transform="matrix(-0.997125 0.0757695 0.0757695 0.997125 31.1234 81.0346)" fill="#DBBD99"/>
<ellipse rx="0.512821" ry="0.31814" transform="matrix(-0.997125 0.0757695 0.0757695 0.997125 28.5909 81.5461)" fill="#F5EFEC"/>
<ellipse rx="0.512821" ry="0.31814" transform="matrix(-0.997125 0.0757695 0.0757695 0.997125 33.6563 80.5231)" fill="#F5EFEC"/>
<ellipse rx="0.512821" ry="0.31814" transform="matrix(-0.997125 0.0757695 0.0757695 0.997125 32.0738 80.0051)" fill="#F5EFEC"/>
<ellipse rx="0.512821" ry="0.31814" transform="matrix(-0.997125 0.0757695 0.0757695 0.997125 30.636 81.3906)" fill="#F5EFEC"/>
<ellipse rx="0.512821" ry="0.31814" transform="matrix(-0.997125 0.0757695 0.0757695 0.997125 32.7298 81.8696)" fill="#F5EFEC"/>
<ellipse rx="0.512821" ry="0.31814" transform="matrix(-0.997125 0.0757695 0.0757695 0.997125 29.4932 79.8822)" fill="#F5EFEC"/>
<ellipse rx="4.10256" ry="1.2654" transform="matrix(-0.997125 0.0757695 0.0757695 0.997125 26.5569 78.3674)" fill="#DBBD99"/>
<ellipse rx="0.512821" ry="0.2109" transform="matrix(-0.997125 0.0757695 0.0757695 0.997125 24.0159 78.7721)" fill="#F5EFEC"/>
<ellipse rx="0.512821" ry="0.2109" transform="matrix(-0.997125 0.0757695 0.0757695 0.997125 29.0977 77.9628)" fill="#F5EFEC"/>
<ellipse rx="0.512821" ry="0.2109" transform="matrix(-0.997125 0.0757695 0.0757695 0.997125 27.5315 77.6589)" fill="#F5EFEC"/>
<ellipse rx="0.512821" ry="0.2109" transform="matrix(-0.997125 0.0757695 0.0757695 0.997125 26.0613 78.6166)" fill="#F5EFEC"/>
<ellipse rx="0.512821" ry="0.2109" transform="matrix(-0.997125 0.0757695 0.0757695 0.997125 28.1387 78.8817)" fill="#F5EFEC"/>
<ellipse rx="0.512821" ry="0.2109" transform="matrix(-0.997125 0.0757695 0.0757695 0.997125 24.959 77.6429)" fill="#F5EFEC"/>
<ellipse rx="4.10256" ry="1.2654" transform="matrix(-0.984624 -0.174689 -0.174689 0.984624 31.611 77.7061)" fill="#DBBD99"/>
<ellipse rx="0.512821" ry="0.2109" transform="matrix(-0.984624 -0.174689 -0.174689 0.984624 29.0495 77.4659)" fill="#F5EFEC"/>
<ellipse rx="0.512821" ry="0.2109" transform="matrix(-0.984624 -0.174689 -0.174689 0.984624 34.1726 77.9463)" fill="#F5EFEC"/>
<ellipse rx="0.512821" ry="0.2109" transform="matrix(-0.984624 -0.174689 -0.174689 0.984624 32.7317 77.2622)" fill="#F5EFEC"/>
<ellipse rx="0.512821" ry="0.2109" transform="matrix(-0.984624 -0.174689 -0.174689 0.984624 31.0693 77.8241)" fill="#F5EFEC"/>
<ellipse rx="0.512821" ry="0.2109" transform="matrix(-0.984624 -0.174689 -0.174689 0.984624 33.0154 78.5978)" fill="#F5EFEC"/>
<ellipse rx="0.512821" ry="0.2109" transform="matrix(-0.984624 -0.174689 -0.174689 0.984624 30.2436 76.6067)" fill="#F5EFEC"/>
<ellipse rx="4.10256" ry="1.2654" transform="matrix(-0.94435 0.328941 0.328941 0.94435 25.9402 76.7496)" fill="#DBBD99"/>
<ellipse rx="0.512821" ry="0.2109" transform="matrix(-0.94435 0.328941 0.328941 0.94435 23.588 77.7922)" fill="#F5EFEC"/>
<ellipse rx="0.512821" ry="0.2109" transform="matrix(-0.94435 0.328941 0.328941 0.94435 28.2924 75.7068)" fill="#F5EFEC"/>
<ellipse rx="0.512821" ry="0.2109" transform="matrix(-0.94435 0.328941 0.328941 0.94435 26.7006 75.8146)" fill="#F5EFEC"/>
<ellipse rx="0.512821" ry="0.2109" transform="matrix(-0.94435 0.328941 0.328941 0.94435 25.5253 77.1174)" fill="#F5EFEC"/>
<ellipse rx="0.512821" ry="0.2109" transform="matrix(-0.94435 0.328941 0.328941 0.94435 27.601 76.841)" fill="#F5EFEC"/>
<ellipse rx="0.512821" ry="0.2109" transform="matrix(-0.94435 0.328941 0.328941 0.94435 24.2098 76.4588)" fill="#F5EFEC"/>
<ellipse rx="4.10256" ry="1.90884" transform="matrix(-0.997125 0.0757695 0.0757695 0.997125 31.1234 74.8808)" fill="#DBBD99"/>
<ellipse rx="0.512821" ry="0.31814" transform="matrix(-0.997125 0.0757695 0.0757695 0.997125 28.5909 75.3923)" fill="#F5EFEC"/>
<ellipse rx="0.512821" ry="0.31814" transform="matrix(-0.997125 0.0757695 0.0757695 0.997125 33.6563 74.3693)" fill="#F5EFEC"/>
<ellipse rx="0.512821" ry="0.31814" transform="matrix(-0.997125 0.0757695 0.0757695 0.997125 32.0738 73.8513)" fill="#F5EFEC"/>
<ellipse rx="0.512821" ry="0.31814" transform="matrix(-0.997125 0.0757695 0.0757695 0.997125 30.636 75.2368)" fill="#F5EFEC"/>
<ellipse rx="0.512821" ry="0.31814" transform="matrix(-0.997125 0.0757695 0.0757695 0.997125 32.7298 75.7158)" fill="#F5EFEC"/>
<ellipse rx="0.512821" ry="0.31814" transform="matrix(-0.997125 0.0757695 0.0757695 0.997125 29.4932 73.7284)" fill="#F5EFEC"/>
<g opacity="0.45" filter="url(#filter0_b_216_704)">
<path d="M36.3845 73.6155C36.3845 71.9586 35.0414 70.6155 33.3845 70.6155H23.9999C22.3431 70.6155 20.9999 71.9586 20.9999 73.6155V80.0001C20.9999 83.3138 23.6862 86.0001 26.9999 86.0001H30.3845C33.6982 86.0001 36.3845 83.3138 36.3845 80.0001V73.6155Z" fill="#BEDBF5" fill-opacity="0.1"/>
</g>
<path d="M5 73.6155C5 71.9586 6.34315 70.6155 8 70.6155H17.3846C19.0415 70.6155 20.3846 71.9586 20.3846 73.6155V80.0001C20.3846 83.3138 17.6983 86.0001 14.3846 86.0001H11C7.68629 86.0001 5 83.3138 5 80.0001V73.6155Z" fill="#F0F8FF"/>
<path d="M6.02563 71.2063C6.02563 70.8956 6.30253 70.6581 6.60956 70.7053L6.9029 70.7504C10.7399 71.3408 14.6447 71.3408 18.4817 70.7504L18.775 70.7053C19.0821 70.6581 19.359 70.8956 19.359 71.2063C19.359 71.4564 19.1764 71.6692 18.9292 71.7072L18.69 71.744C14.7149 72.3556 10.6697 72.3556 6.69456 71.744L6.45542 71.7072C6.20816 71.6692 6.02563 71.4564 6.02563 71.2063Z" fill="#D6E2ED"/>
<path d="M18.8461 71.1282C17.8536 71.1282 16.091 71.1282 12.6923 71.1282C9.29363 71.1282 8.52357 71.1282 6.53846 71.1282C6.53846 68.8624 9.29363 67.0256 12.6923 67.0256C16.091 67.0256 18.8461 68.8624 18.8461 71.1282Z" fill="#EEF7FF"/>
<path d="M14.2308 67.5385C13.9826 67.5385 13.542 67.5385 12.6923 67.5385C11.8426 67.5385 11.6501 67.5385 11.1538 67.5385C11.1538 66.6888 11.8426 66 12.6923 66C13.542 66 14.2308 66.6888 14.2308 67.5385Z" fill="#EEF7FF"/>
<path d="M6.02563 70.8561C6.02563 70.453 6.37422 70.1383 6.77523 70.1794L9.48735 70.4576C11.6184 70.6762 13.7662 70.6762 15.8973 70.4576L18.6094 70.1794C19.0104 70.1383 19.359 70.453 19.359 70.8561C19.359 71.2049 19.0951 71.4971 18.7482 71.5327L16.2382 71.7902C13.8804 72.032 11.5042 72.032 9.14642 71.7902L6.63643 71.5327C6.28946 71.4971 6.02563 71.2049 6.02563 70.8561Z" fill="#EEF7FF"/>
<path d="M7.56396 70.2961C7.56396 70.1936 7.65422 70.1146 7.7558 70.1281L8.31406 70.2026C11.2199 70.59 14.1644 70.59 17.0703 70.2026L17.6285 70.1281C17.7301 70.1146 17.8204 70.1936 17.8204 70.2961C17.8204 70.381 17.7575 70.4528 17.6733 70.464L17.2251 70.5238C14.2165 70.9249 11.1679 70.9249 8.15926 70.5238L7.71101 70.464C7.62683 70.4528 7.56396 70.381 7.56396 70.2961Z" fill="#D6E2ED"/>
<path d="M11.1538 67.7788C11.1538 67.6658 11.2712 67.5906 11.3745 67.6365C12.2094 68.0076 13.1751 68.0076 14.01 67.6365C14.1133 67.5906 14.2307 67.6658 14.2307 67.7788C14.2307 67.8405 14.1936 67.8968 14.1372 67.9219C13.2245 68.3275 12.16 68.3275 11.2473 67.9219C11.1909 67.8968 11.1538 67.8405 11.1538 67.7788Z" fill="#D6E2ED"/>
<ellipse cx="11.7306" cy="83.7769" rx="4.10256" ry="1.53846" transform="rotate(4.84658 11.7306 83.7769)" fill="#CB9F6C"/>
<ellipse cx="14.264" cy="84.2491" rx="0.512821" ry="0.25641" transform="rotate(4.84658 14.264 84.2491)" fill="#894211"/>
<ellipse cx="9.19758" cy="83.3048" rx="0.512821" ry="0.25641" transform="rotate(4.84658 9.19758 83.3048)" fill="#894211"/>
<ellipse cx="10.7737" cy="82.9237" rx="0.512821" ry="0.25641" transform="rotate(4.84658 10.7737 82.9237)" fill="#894211"/>
<ellipse cx="12.22" cy="84.0758" rx="0.512821" ry="0.25641" transform="rotate(4.84658 12.22 84.0758)" fill="#894211"/>
<ellipse cx="10.1326" cy="84.4133" rx="0.512821" ry="0.25641" transform="rotate(4.84658 10.1326 84.4133)" fill="#894211"/>
<ellipse cx="13.3502" cy="82.8849" rx="0.512821" ry="0.25641" transform="rotate(4.84658 13.3502 82.8849)" fill="#894211"/>
<ellipse cx="15.4136" cy="82.3445" rx="4.10256" ry="1.86565" transform="rotate(-11.2088 15.4136 82.3445)" fill="#CB9F6C"/>
<ellipse cx="17.9893" cy="82.151" rx="0.512821" ry="0.310942" transform="rotate(-11.2088 17.9893 82.151)" fill="#894211"/>
<ellipse cx="12.8381" cy="82.538" rx="0.512821" ry="0.310942" transform="rotate(-11.2088 12.8381 82.538)" fill="#894211"/>
<ellipse cx="14.2261" cy="81.6288" rx="0.512821" ry="0.310942" transform="rotate(-11.2088 14.2261 81.6288)" fill="#894211"/>
<ellipse cx="15.9771" cy="82.5498" rx="0.512821" ry="0.310942" transform="rotate(-11.2088 15.9771 82.5498)" fill="#894211"/>
<ellipse cx="14.0857" cy="83.5585" rx="0.512821" ry="0.310942" transform="rotate(-11.2088 14.0857 83.5585)" fill="#894211"/>
<ellipse cx="16.6812" cy="80.8254" rx="0.512821" ry="0.310942" transform="rotate(-11.2088 16.6812 80.8254)" fill="#894211"/>
<ellipse cx="10.2611" cy="81.0346" rx="4.10256" ry="1.90884" transform="rotate(4.34544 10.2611 81.0346)" fill="#CB9F6C"/>
<ellipse cx="12.7936" cy="81.5461" rx="0.512821" ry="0.31814" transform="rotate(4.34544 12.7936 81.5461)" fill="#894211"/>
<ellipse cx="7.72821" cy="80.5231" rx="0.512821" ry="0.31814" transform="rotate(4.34544 7.72821 80.5231)" fill="#894211"/>
<ellipse cx="9.31073" cy="80.0051" rx="0.512821" ry="0.31814" transform="rotate(4.34544 9.31073 80.0051)" fill="#894211"/>
<ellipse cx="10.7485" cy="81.3906" rx="0.512821" ry="0.31814" transform="rotate(4.34544 10.7485 81.3906)" fill="#894211"/>
<ellipse cx="8.65472" cy="81.8696" rx="0.512821" ry="0.31814" transform="rotate(4.34544 8.65472 81.8696)" fill="#894211"/>
<ellipse cx="11.8913" cy="79.8822" rx="0.512821" ry="0.31814" transform="rotate(4.34544 11.8913 79.8822)" fill="#894211"/>
<ellipse cx="14.8277" cy="79.3674" rx="4.10256" ry="1.2654" transform="rotate(4.34544 14.8277 79.3674)" fill="#CB9F6C"/>
<ellipse cx="17.3687" cy="79.7721" rx="0.512821" ry="0.2109" transform="rotate(4.34544 17.3687 79.7721)" fill="#894211"/>
<ellipse cx="12.2869" cy="78.9628" rx="0.512821" ry="0.2109" transform="rotate(4.34544 12.2869 78.9628)" fill="#894211"/>
<ellipse cx="13.853" cy="78.6589" rx="0.512821" ry="0.2109" transform="rotate(4.34544 13.853 78.6589)" fill="#894211"/>
<ellipse cx="15.3232" cy="79.6166" rx="0.512821" ry="0.2109" transform="rotate(4.34544 15.3232 79.6166)" fill="#894211"/>
<ellipse cx="13.2459" cy="79.8817" rx="0.512821" ry="0.2109" transform="rotate(4.34544 13.2459 79.8817)" fill="#894211"/>
<ellipse cx="16.4255" cy="78.643" rx="0.512821" ry="0.2109" transform="rotate(4.34544 16.4255 78.643)" fill="#894211"/>
<ellipse cx="9.77347" cy="77.7061" rx="4.10256" ry="1.2654" transform="rotate(-10.0606 9.77347 77.7061)" fill="#CB9F6C"/>
<ellipse cx="12.335" cy="77.4659" rx="0.512821" ry="0.2109" transform="rotate(-10.0606 12.335 77.4659)" fill="#894211"/>
<ellipse cx="7.21194" cy="77.9463" rx="0.512821" ry="0.2109" transform="rotate(-10.0606 7.21194 77.9463)" fill="#894211"/>
<ellipse cx="8.65286" cy="77.2622" rx="0.512821" ry="0.2109" transform="rotate(-10.0606 8.65286 77.2622)" fill="#894211"/>
<ellipse cx="10.3152" cy="77.8241" rx="0.512821" ry="0.2109" transform="rotate(-10.0606 10.3152 77.8241)" fill="#894211"/>
<ellipse cx="8.36917" cy="78.5978" rx="0.512821" ry="0.2109" transform="rotate(-10.0606 8.36917 78.5978)" fill="#894211"/>
<ellipse cx="11.1409" cy="76.6067" rx="0.512821" ry="0.2109" transform="rotate(-10.0606 11.1409 76.6067)" fill="#894211"/>
<ellipse cx="15.4443" cy="76.7496" rx="4.10256" ry="1.2654" transform="rotate(19.2045 15.4443 76.7496)" fill="#CB9F6C"/>
<ellipse cx="17.7965" cy="77.7922" rx="0.512821" ry="0.2109" transform="rotate(19.2045 17.7965 77.7922)" fill="#894211"/>
<ellipse cx="13.0922" cy="75.7068" rx="0.512821" ry="0.2109" transform="rotate(19.2045 13.0922 75.7068)" fill="#894211"/>
<ellipse cx="14.684" cy="75.8146" rx="0.512821" ry="0.2109" transform="rotate(19.2045 14.684 75.8146)" fill="#894211"/>
<ellipse cx="15.8592" cy="77.1174" rx="0.512821" ry="0.2109" transform="rotate(19.2045 15.8592 77.1174)" fill="#894211"/>
<ellipse cx="13.7836" cy="76.841" rx="0.512821" ry="0.2109" transform="rotate(19.2045 13.7836 76.841)" fill="#894211"/>
<ellipse cx="17.1747" cy="76.4588" rx="0.512821" ry="0.2109" transform="rotate(19.2045 17.1747 76.4588)" fill="#894211"/>
<ellipse cx="10.2611" cy="74.8808" rx="4.10256" ry="1.90884" transform="rotate(4.34544 10.2611 74.8808)" fill="#CB9F6C"/>
<ellipse cx="12.7936" cy="75.3923" rx="0.512821" ry="0.31814" transform="rotate(4.34544 12.7936 75.3923)" fill="#894211"/>
<ellipse cx="7.72821" cy="74.3693" rx="0.512821" ry="0.31814" transform="rotate(4.34544 7.72821 74.3693)" fill="#894211"/>
<ellipse cx="9.31073" cy="73.8513" rx="0.512821" ry="0.31814" transform="rotate(4.34544 9.31073 73.8513)" fill="#894211"/>
<ellipse cx="10.7485" cy="75.2368" rx="0.512821" ry="0.31814" transform="rotate(4.34544 10.7485 75.2368)" fill="#894211"/>
<ellipse cx="8.65472" cy="75.7158" rx="0.512821" ry="0.31814" transform="rotate(4.34544 8.65472 75.7158)" fill="#894211"/>
<ellipse cx="11.8913" cy="73.7284" rx="0.512821" ry="0.31814" transform="rotate(4.34544 11.8913 73.7284)" fill="#894211"/>
<g opacity="0.45" filter="url(#filter1_b_216_704)">
<path d="M5 73.6155C5 71.9586 6.34315 70.6155 8 70.6155H17.3846C19.0415 70.6155 20.3846 71.9586 20.3846 73.6155V80.0001C20.3846 83.3138 17.6983 86.0001 14.3846 86.0001H11C7.68629 86.0001 5 83.3138 5 80.0001V73.6155Z" fill="#BEDBF5" fill-opacity="0.1"/>
</g>
<path d="M48 72.6155C48 70.9586 49.3431 69.6155 51 69.6155H68C69.6569 69.6155 71 70.9586 71 72.6155V79.0001C71 82.3138 68.3137 85.0001 65 85.0001H54C50.6863 85.0001 48 82.3138 48 79.0001V72.6155Z" fill="#F0F8FF"/>
<path d="M49.5334 70.1808C49.5334 69.8784 49.795 69.6424 50.0958 69.6733L51.2996 69.7972C56.7522 70.3583 62.248 70.3583 67.7006 69.7972L68.9044 69.6733C69.2052 69.6424 69.4668 69.8784 69.4668 70.1808C69.4668 70.4423 69.269 70.6615 69.0089 70.6882L67.9797 70.7942C62.3415 71.3744 56.6587 71.3744 51.0206 70.7942L49.9914 70.6882C49.7312 70.6615 49.5334 70.4423 49.5334 70.1808Z" fill="#D6E2ED"/>
<path d="M68.7001 70.1282C67.2162 70.1282 64.5811 70.1282 59.5001 70.1282C54.4191 70.1282 53.2679 70.1282 50.3001 70.1282C50.3001 67.8624 54.4191 66.0256 59.5001 66.0256C64.5811 66.0256 68.7001 67.8624 68.7001 70.1282Z" fill="#EEF7FF"/>
<path d="M61.8001 66.5385C61.4291 66.5385 60.7704 66.5385 59.5001 66.5385C58.2299 66.5385 57.942 66.5385 57.2001 66.5385C57.2001 65.6888 58.2299 65 59.5001 65C60.7704 65 61.8001 65.6888 61.8001 66.5385Z" fill="#EEF7FF"/>
<path d="M49.5334 69.8561C49.5334 69.453 50.0546 69.1383 50.6541 69.1794L54.7087 69.4576C57.8946 69.6762 61.1056 69.6762 64.2915 69.4576L68.3461 69.1794C68.9456 69.1383 69.4668 69.453 69.4668 69.8561C69.4668 70.2049 69.0724 70.4971 68.5536 70.5327L64.8012 70.7902C61.2764 71.032 57.7238 71.032 54.199 70.7902L50.4466 70.5327C49.9279 70.4971 49.5334 70.2049 49.5334 69.8561Z" fill="#EEF7FF"/>
<path d="M51.833 69.2887C51.833 69.1887 51.9188 69.1102 52.0184 69.1191L53.3424 69.2372C57.4391 69.6025 61.5602 69.6025 65.6569 69.2372L66.981 69.1191C67.0806 69.1102 67.1663 69.1887 67.1663 69.2887C67.1663 69.3768 67.099 69.4504 67.0112 69.4583L65.8613 69.5608C61.6286 69.9383 57.3707 69.9383 53.138 69.5608L51.9881 69.4583C51.9003 69.4504 51.833 69.3768 51.833 69.2887Z" fill="#D6E2ED"/>
<path d="M57.2 66.7581C57.2 66.6485 57.3055 66.5698 57.4105 66.601L57.6231 66.6643C58.8478 67.0284 60.1521 67.0284 61.3768 66.6643L61.5894 66.601C61.6945 66.5698 61.8 66.6485 61.8 66.7581C61.8 66.8306 61.7523 66.8945 61.6828 66.9152L61.5436 66.9566C60.21 67.353 58.7899 67.353 57.4563 66.9566L57.3171 66.9152C57.2476 66.8945 57.2 66.8306 57.2 66.7581Z" fill="#D6E2ED"/>
<path d="M64 82.5001C64 83.0523 63.6046 83.0001 62.5 83.0001C61.3954 83.0001 60 83.0523 60 82.5001C60 81.9478 60.8954 81.5001 62 81.5001C63.1046 81.5001 64 81.9478 64 82.5001Z" fill="#DC81A7"/>
<path d="M56 79.7501C56 80.3023 55.6046 80.2501 54.5 80.2501C53.3954 80.2501 52 80.3023 52 79.7501C52 79.1978 52.8954 78.7501 54 78.7501C55.1046 78.7501 56 79.1978 56 79.7501Z" fill="#DC81A7"/>
<path d="M53 80.5001C53 81.0523 52.6046 81.0001 51.5 81.0001C50.3954 81.0001 49 81.0523 49 80.5001C49 79.9478 49.8954 79.5001 51 79.5001C52.1046 79.5001 53 79.9478 53 80.5001Z" fill="#589EDD"/>
<path d="M67 83.5001C67 84.0523 66.1046 84.5001 65 84.5001C63.8954 84.5001 63 84.0523 63 83.5001C63 82.9478 63.3954 82.5001 64.5 82.5001C65.6046 82.5001 67 82.9478 67 83.5001Z" fill="#4DA855"/>
<path d="M54 78.0001C54 78.5523 53.1046 79.0001 52 79.0001C50.8954 79.0001 50 78.5523 50 78.0001C50 77.4478 50.3954 77.0001 51.5 77.0001C52.6046 77.0001 54 77.4478 54 78.0001Z" fill="#4DA855"/>
<path d="M61 81.0001C61 81.5523 60.1046 82.0001 59 82.0001C57.8954 82.0001 57 81.5523 57 81.0001C57 80.4478 57.3954 80.0001 58.5 80.0001C59.6046 80.0001 61 80.4478 61 81.0001Z" fill="#4DA855"/>
<path d="M62 83.5012C62 84.0535 61.1046 84.5012 60 84.5012C58.8954 84.5012 58 84.0535 58 83.5012C58 82.9489 58.8954 83.0013 60 83.0013C61.1046 83.0013 62 82.9489 62 83.5012Z" fill="#91D8F2"/>
<path d="M69.4059 81.4059C69.4259 81.4259 69.4911 81.5178 69.4784 81.5431C69.4015 81.697 69.3366 81.8263 69.2777 81.9373C68.7452 82.9405 67.2693 83.2797 66.3508 82.6116C66.1296 82.4507 66.0001 82.2558 66.0001 82.0458C66.0001 81.5929 67.2748 81.2095 68.3427 81.0862C68.7042 81.0445 69.1485 81.1486 69.4059 81.4059Z" fill="#E9565A"/>
<path d="M70.0001 80C70.0001 80.5523 69.1046 81 68.0001 81C66.8955 81 66.0001 80.5523 66.0001 80C66.0001 79.4478 67.5001 78.9989 69.0001 78.9989C70.1046 78.9989 70.0001 79.4478 70.0001 80Z" fill="#B4C2C0"/>
<path d="M64 79.0469C64 79.5992 63.1046 80.0469 62 80.0469C60.8954 80.0469 60 79.5992 60 79.0469C60 78.4946 61.8954 78.0457 63 78.0457C64.1046 78.0457 64 78.4946 64 79.0469Z" fill="#875387"/>
<path d="M64 77.0012C64 77.5534 63.1046 78.0012 62 78.0012C60.8954 78.0012 60 77.5534 60 77.0012C60 76.4489 61.5 76 63 76C64.1046 76 64 76.4489 64 77.0012Z" fill="#91D8F2"/>
<path d="M54 81.9012C54 82.4535 53.1046 82.9012 52 82.9012C50.8954 82.9012 50 82.4535 50 81.9012C50 81.3489 50.8954 81.4013 52 81.4013C53.1046 81.4013 54 81.3489 54 81.9012Z" fill="#ECC300"/>
<path d="M66 80.5012C66 81.0535 65.1046 81.5012 64 81.5012C62.8954 81.5012 62 81.0535 62 80.5012C62 79.9489 62.8954 80.0013 64 80.0013C65.1046 80.0013 66 79.9489 66 80.5012Z" fill="#ECC300"/>
<path d="M58 77.5012C58 78.0535 57.1046 78.5012 56 78.5012C54.8954 78.5012 54 78.0535 54 77.5012C54 76.9489 54.8954 77.0013 56 77.0013C57.1046 77.0013 58 76.9489 58 77.5012Z" fill="#ECC300"/>
<path d="M59 82.5013C59 83.0536 58.1046 83.5013 57 83.5013C55.8954 83.5013 55 83.0536 55 82.5013C55 81.9491 55.3954 82.0014 56.5 82.0014C57.6046 82.0014 59 81.9491 59 82.5013Z" fill="#DA730A"/>
<path d="M68 78.5013C68 79.0536 67.1046 79.5013 66 79.5013C64.8954 79.5013 64 79.0536 64 78.5013C64 77.9491 64.3954 78.0014 65.5 78.0014C66.6046 78.0014 68 77.9491 68 78.5013Z" fill="#DA730A"/>
<path d="M57 81.0013C57 81.5536 56.1046 82.0013 55 82.0013C53.8954 82.0013 53 81.5536 53 81.0013C53 80.4491 53.3954 80.5014 54.5 80.5014C55.6046 80.5014 57 80.4491 57 81.0013Z" fill="#8CCC24"/>
<path d="M69 77.0013C69 77.5536 68.1046 78.0013 67 78.0013C65.8954 78.0013 65 77.5536 65 77.0013C65 76.4491 65.3954 76.5014 66.5 76.5014C67.6046 76.5014 69 76.4491 69 77.0013Z" fill="#8CCC24"/>
<path d="M56 83.6251C56 84.1773 55.1046 84.6251 54 84.6251C52.8954 84.6251 52 84.1773 52 83.6251C52 82.6251 53.5 83.1251 54 83.1251C54.5 83.1251 56 83.0728 56 83.6251Z" fill="#E9565A"/>
<path d="M60 78.7693C60 79.449 59.1046 80.0001 58 80.0001C56.8954 80.0001 56 79.449 56 78.7693C56 77.5386 57.5 78.1539 58 78.1539C58.5 78.154 60 78.0896 60 78.7693Z" fill="#E9565A"/>
<g opacity="0.45" filter="url(#filter2_b_216_704)">
<path d="M48 72.6155C48 70.9586 49.3431 69.6155 51 69.6155H68C69.6569 69.6155 71 70.9586 71 72.6155V79.0001C71 82.3138 68.3137 85.0001 65 85.0001H54C50.6863 85.0001 48 82.3138 48 79.0001V72.6155Z" fill="#BEDBF5" fill-opacity="0.1"/>
</g>
<path d="M23 26C23 24.3431 24.3431 23 26 23H33C34.6569 23 36 24.3431 36 26V27C36 30.3137 33.3137 33 30 33H29C25.6863 33 23 30.3137 23 27V26Z" fill="#F0F8FF"/>
<path d="M23.8667 23.3725C23.8667 23.1743 24.0398 23.0205 24.2366 23.0438L24.7669 23.1065C27.9113 23.4787 31.0887 23.4787 34.2332 23.1065L34.7634 23.0438C34.9603 23.0205 35.1334 23.1743 35.1334 23.3725C35.1334 23.5403 35.0079 23.6815 34.8412 23.7012L34.3978 23.7537C31.144 24.1388 27.8561 24.1388 24.6022 23.7537L24.1588 23.7012C23.9922 23.6815 23.8667 23.5403 23.8667 23.3725Z" fill="#D6E2ED"/>
<path d="M34.7 23.3333C33.8613 23.3333 32.3719 23.3333 29.5 23.3333C26.6282 23.3333 25.9775 23.3333 24.3 23.3333C24.3 21.8606 26.6282 20.6667 29.5 20.6667C32.3719 20.6667 34.7 21.8606 34.7 23.3333Z" fill="#EEF7FF"/>
<path d="M30.8 21C30.5904 21 30.218 21 29.5 21C28.7821 21 28.6194 21 28.2 21C28.2 20.4477 28.7821 20 29.5 20C30.218 20 30.8 20.4477 30.8 21Z" fill="#EEF7FF"/>
<path d="M23.8667 23.1565C23.8667 22.8944 24.1613 22.6899 24.5001 22.7166L26.7918 22.8974C28.5926 23.0395 30.4075 23.0395 32.2082 22.8974L34.5 22.7166C34.8388 22.6899 35.1334 22.8944 35.1334 23.1565C35.1334 23.3832 34.9104 23.5731 34.6172 23.5963L32.4963 23.7636C30.504 23.9208 28.496 23.9208 26.5038 23.7636L24.3828 23.5963C24.0896 23.5731 23.8667 23.3832 23.8667 23.1565Z" fill="#EEF7FF"/>
<path d="M25.1665 22.7891C25.1665 22.7236 25.2231 22.6724 25.2883 22.6791L25.9363 22.7456C28.3058 22.9886 30.6939 22.9886 33.0634 22.7456L33.7114 22.6791C33.7765 22.6724 33.8332 22.7236 33.8332 22.7891C33.8332 22.8458 33.7903 22.8932 33.7339 22.899L33.1846 22.9554C30.7345 23.2067 28.2652 23.2067 25.8151 22.9554L25.2658 22.899C25.2094 22.8932 25.1665 22.8458 25.1665 22.7891Z" fill="#D6E2ED"/>
<path d="M28.2 21.1471C28.2 21.075 28.2709 21.0242 28.3391 21.0476L28.4207 21.0755C29.1203 21.3147 29.8796 21.3147 30.5792 21.0755L30.6608 21.0476C30.729 21.0242 30.8 21.075 30.8 21.1471C30.8 21.192 30.7714 21.232 30.7288 21.2465L30.6769 21.2643C29.9139 21.5251 29.086 21.5251 28.323 21.2643L28.2711 21.2465C28.2285 21.232 28.2 21.192 28.2 21.1471Z" fill="#D6E2ED"/>
<path d="M31.9569 30.5884C31.9569 31.0462 31.7409 31.0029 31.1376 31.0029C30.5344 31.0029 29.7723 31.0462 29.7723 30.5884C29.7723 30.1305 30.2613 29.7594 30.8646 29.7594C31.4678 29.7594 31.9569 30.1305 31.9569 30.5884Z" fill="#D08439"/>
<path d="M27.5877 28.3087C27.5877 28.7665 27.3717 28.7232 26.7685 28.7232C26.1652 28.7232 25.4031 28.7665 25.4031 28.3087C25.4031 27.8508 25.8921 27.4797 26.4954 27.4797C27.0986 27.4797 27.5877 27.8508 27.5877 28.3087Z" fill="#D08439"/>
<path d="M25.9492 28.9304C25.9492 29.3882 25.7333 29.3449 25.13 29.3449C24.5268 29.3449 23.7646 29.3882 23.7646 28.9304C23.7646 28.4726 24.2537 28.1014 24.8569 28.1014C25.4602 28.1014 25.9492 28.4726 25.9492 28.9304Z" fill="#B0714E"/>
<path d="M33.5953 31.4173C33.5953 31.8752 33.1063 32.2463 32.503 32.2463C31.8998 32.2463 31.4107 31.8752 31.4107 31.4173C31.4107 30.9595 31.6267 30.5884 32.2299 30.5884C32.8332 30.5884 33.5953 30.9595 33.5953 31.4173Z" fill="#B0714E"/>
<path d="M26.4954 26.858C26.4954 27.3158 26.0064 27.6869 25.4031 27.6869C24.7998 27.6869 24.3108 27.3158 24.3108 26.858C24.3108 26.4001 24.5268 26.029 25.13 26.029C25.7333 26.029 26.4954 26.4001 26.4954 26.858Z" fill="#B0714E"/>
<path d="M30.3184 29.3449C30.3184 29.8027 29.8294 30.1739 29.2261 30.1739C28.6229 30.1739 28.1338 29.8027 28.1338 29.3449C28.1338 28.8871 28.3498 28.5159 28.9531 28.5159C29.5563 28.5159 30.3184 28.8871 30.3184 29.3449Z" fill="#B0714E"/>
<path d="M30.8646 31.4183C30.8646 31.8762 30.3755 32.2473 29.7723 32.2473C29.169 32.2473 28.68 31.8762 28.68 31.4183C28.68 30.9605 29.169 31.0039 29.7723 31.0039C30.3755 31.0039 30.8646 30.9605 30.8646 31.4183Z" fill="#B0714E"/>
<path d="M34.9246 29.7046C34.9326 29.7166 34.9579 29.7678 34.9534 29.7814C34.9353 29.8363 34.9184 29.8875 34.9025 29.9354C34.6219 30.7791 33.2584 31.219 33.0646 30.3513C33.0545 30.3059 33.0492 30.2593 33.0492 30.2118C33.0492 29.8592 33.6632 29.5575 34.221 29.4374C34.4751 29.3826 34.7816 29.4875 34.9246 29.7046Z" fill="#B8682D"/>
<path d="M35.2338 28.5159C35.2338 28.9737 34.7448 29.3449 34.1415 29.3449C33.5382 29.3449 33.0492 28.9737 33.0492 28.5159C33.0492 28.0581 33.8684 27.686 34.6876 27.686C35.2909 27.686 35.2338 28.0581 35.2338 28.5159Z" fill="#D08439"/>
<path d="M31.9569 27.7258C31.9569 28.1836 31.4678 28.5547 30.8646 28.5547C30.2613 28.5547 29.7723 28.1836 29.7723 27.7258C29.7723 27.2679 30.8075 26.8958 31.4107 26.8958C32.014 26.8958 31.9569 27.2679 31.9569 27.7258Z" fill="#B0714E"/>
<path d="M31.9569 26.0299C31.9569 26.4877 31.4678 26.8589 30.8646 26.8589C30.2613 26.8589 29.7723 26.4877 29.7723 26.0299C29.7723 25.5721 30.5915 25.2 31.4107 25.2C32.014 25.2 31.9569 25.5721 31.9569 26.0299Z" fill="#B0714E"/>
<path d="M26.4954 30.092C26.4954 30.5498 26.0064 30.9209 25.4031 30.9209C24.7998 30.9209 24.3108 30.5498 24.3108 30.092C24.3108 29.6341 24.7998 29.6775 25.4031 29.6775C26.0064 29.6775 26.4954 29.6341 26.4954 30.092Z" fill="#B8682D"/>
<path d="M33.0492 28.9314C33.0492 29.3892 32.5601 29.7604 31.9569 29.7604C31.3536 29.7604 30.8646 29.3892 30.8646 28.9314C30.8646 28.4735 31.3536 28.5169 31.9569 28.5169C32.5601 28.5169 33.0492 28.4735 33.0492 28.9314Z" fill="#B8682D"/>
<path d="M28.68 26.4444C28.68 26.9023 28.1909 27.2734 27.5877 27.2734C26.9844 27.2734 26.4954 26.9023 26.4954 26.4444C26.4954 25.9866 26.9844 26.03 27.5877 26.03C28.1909 26.03 28.68 25.9866 28.68 26.4444Z" fill="#B8682D"/>
<path d="M29.2261 30.5894C29.2261 31.0473 28.7371 31.4184 28.1338 31.4184C27.5306 31.4184 27.0415 31.0473 27.0415 30.5894C27.0415 30.1316 27.2575 30.175 27.8608 30.175C28.464 30.175 29.2261 30.1316 29.2261 30.5894Z" fill="#D08439"/>
<path d="M34.1415 27.2735C34.1415 27.7314 33.6524 28.1025 33.0492 28.1025C32.4459 28.1025 31.9569 27.7314 31.9569 27.2735C31.9569 26.8157 32.1728 26.8591 32.7761 26.8591C33.3793 26.8591 34.1415 26.8157 34.1415 27.2735Z" fill="#D08439"/>
<path d="M28.1338 29.346C28.1338 29.8038 27.6448 30.1749 27.0415 30.1749C26.4383 30.1749 25.9492 29.8038 25.9492 29.346C25.9492 28.8881 26.1652 28.9315 26.7685 28.9315C27.3717 28.9315 28.1338 28.8881 28.1338 29.346Z" fill="#D08439"/>
<path d="M34.6876 26.03C34.6876 26.4879 34.1986 26.859 33.5953 26.859C32.9921 26.859 32.503 26.4879 32.503 26.03C32.503 25.5722 32.719 25.6156 33.3222 25.6156C33.9255 25.6156 34.6876 25.5722 34.6876 26.03Z" fill="#D08439"/>
<path d="M27.5877 31.521C27.5877 31.9788 27.0986 32.35 26.4954 32.35C25.8921 32.35 25.4031 31.9788 25.4031 31.521C25.4031 30.692 26.2223 31.1065 26.4954 31.1065C26.7685 31.1065 27.5877 31.0631 27.5877 31.521Z" fill="#B8682D"/>
<path d="M29.7723 27.4956C29.7723 28.0591 29.2832 28.5159 28.68 28.5159C28.0767 28.5159 27.5877 28.0591 27.5877 27.4956C27.5877 26.4754 28.4069 26.9855 28.68 26.9855C28.9531 26.9855 29.7723 26.9322 29.7723 27.4956Z" fill="#B8682D"/>
<g opacity="0.45" filter="url(#filter3_b_216_704)">
<path d="M23 26C23 24.3431 24.3431 23 26 23H33C34.6569 23 36 24.3431 36 26V27C36 30.3137 33.3137 33 30 33H29C25.6863 33 23 30.3137 23 27V26Z" fill="#BEDBF5" fill-opacity="0.1"/>
</g>
<path d="M46 52C46 50.3431 47.3431 49 49 49H56C57.6569 49 59 50.3431 59 52V53C59 56.3137 56.3137 59 53 59H52C48.6863 59 46 56.3137 46 53V52Z" fill="#F0F8FF"/>
<path d="M46.8667 49.3725C46.8667 49.1743 47.0398 49.0205 47.2366 49.0438L47.7669 49.1065C50.9113 49.4787 54.0887 49.4787 57.2332 49.1065L57.7634 49.0438C57.9603 49.0205 58.1334 49.1743 58.1334 49.3725C58.1334 49.5403 58.0079 49.6815 57.8412 49.7012L57.3978 49.7537C54.144 50.1388 50.8561 50.1388 47.6022 49.7537L47.1588 49.7012C46.9922 49.6815 46.8667 49.5403 46.8667 49.3725Z" fill="#D6E2ED"/>
<path d="M57.7 49.3333C56.8613 49.3333 55.3719 49.3333 52.5 49.3333C49.6282 49.3333 48.9775 49.3333 47.3 49.3333C47.3 47.8606 49.6282 46.6667 52.5 46.6667C55.3719 46.6667 57.7 47.8606 57.7 49.3333Z" fill="#EEF7FF"/>
<path d="M53.8 47C53.5904 47 53.218 47 52.5 47C51.7821 47 51.6194 47 51.2 47C51.2 46.4477 51.7821 46 52.5 46C53.218 46 53.8 46.4477 53.8 47Z" fill="#EEF7FF"/>
<path d="M46.8667 49.1565C46.8667 48.8944 47.1613 48.6899 47.5001 48.7166L49.7918 48.8974C51.5926 49.0395 53.4075 49.0395 55.2082 48.8974L57.5 48.7166C57.8388 48.6899 58.1334 48.8944 58.1334 49.1565C58.1334 49.3832 57.9104 49.5731 57.6172 49.5963L55.4963 49.7636C53.504 49.9208 51.496 49.9208 49.5038 49.7636L47.3828 49.5963C47.0896 49.5731 46.8667 49.3832 46.8667 49.1565Z" fill="#EEF7FF"/>
<path d="M48.1665 48.7891C48.1665 48.7236 48.2231 48.6724 48.2883 48.6791L48.9363 48.7456C51.3058 48.9886 53.6939 48.9886 56.0634 48.7456L56.7114 48.6791C56.7765 48.6724 56.8332 48.7236 56.8332 48.7891C56.8332 48.8458 56.7903 48.8932 56.7339 48.899L56.1846 48.9554C53.7345 49.2067 51.2652 49.2067 48.8151 48.9554L48.2658 48.899C48.2094 48.8932 48.1665 48.8458 48.1665 48.7891Z" fill="#D6E2ED"/>
<path d="M51.2 47.1471C51.2 47.075 51.2709 47.0242 51.3391 47.0476L51.4207 47.0755C52.1203 47.3147 52.8796 47.3147 53.5792 47.0755L53.6608 47.0476C53.729 47.0242 53.8 47.075 53.8 47.1471C53.8 47.192 53.7714 47.232 53.7288 47.2465L53.6769 47.2643C52.9139 47.5251 52.086 47.5251 51.323 47.2643L51.2711 47.2465C51.2285 47.232 51.2 47.192 51.2 47.1471Z" fill="#D6E2ED"/>
<path d="M53.0111 58.2262C52.9126 58.6586 52.027 58.5148 50.95 58.2693C49.873 58.0239 49.0798 57.4746 49.1784 57.0422C49.2769 56.6099 50.0514 57.2412 51.1284 57.4866C52.2053 57.732 53.1096 57.7938 53.0111 58.2262Z" fill="#F56D6D"/>
<path fill-rule="evenodd" clip-rule="evenodd" d="M49.4781 57.6154C49.5083 57.5955 49.5385 57.5752 49.5686 57.5543C49.7568 57.4237 49.9342 57.2933 50.0994 57.1718C50.109 57.1647 50.1186 57.1577 50.1281 57.1507C50.3852 57.2567 50.6849 57.3744 51.0155 57.4593C50.8122 57.645 50.5482 57.845 50.2533 58.0546C49.9343 57.9274 49.6673 57.775 49.4781 57.6154ZM52.2104 58.4939C51.8834 58.4676 51.4793 58.3884 51.0397 58.2897C51.1971 58.2051 51.3591 58.1093 51.5186 57.9987C51.6824 57.885 51.838 57.7715 51.9845 57.6639C52.405 57.7495 52.7387 57.8296 52.9043 57.9584C52.7121 58.127 52.4737 58.3066 52.2104 58.4939Z" fill="#FFFEF7"/>
<path d="M55.0304 56.4973C55.0769 56.9383 54.1923 57.0884 53.0938 57.2042C51.9953 57.3199 51.0672 57.0564 51.0207 56.6154C50.9742 56.1744 51.9112 56.5216 53.0097 56.4058C54.1081 56.29 54.9839 56.0563 55.0304 56.4973Z" fill="#F56D6D"/>
<path fill-rule="evenodd" clip-rule="evenodd" d="M51.4896 57.0609C51.5118 57.0323 51.5338 57.0033 51.5555 56.9738C51.6915 56.7894 51.8172 56.6087 51.9342 56.4403C51.9411 56.4305 51.9478 56.4208 51.9546 56.4111C52.2322 56.4283 52.5538 56.4429 52.8941 56.4163C52.7617 56.6578 52.5766 56.9323 52.3652 57.226C52.0222 57.2087 51.7202 57.1508 51.4896 57.0609ZM54.3593 57.0093C54.0413 57.09 53.6332 57.1457 53.1854 57.1943C53.307 57.0634 53.4293 56.9205 53.5445 56.7642C53.6628 56.6037 53.7734 56.446 53.8772 56.2968C54.3028 56.242 54.6445 56.2099 54.8428 56.2783C54.7154 56.4999 54.5479 56.7469 54.3593 57.0093Z" fill="#FFFEF7"/>
<path d="M53.8347 55.7605C53.7473 56.2334 52.8556 56.1309 51.7695 55.93C50.6833 55.7292 49.8737 55.1832 49.9611 54.7103C50.0486 54.2374 50.8416 54.8731 51.9278 55.074C53.0139 55.2748 53.9222 55.2876 53.8347 55.7605Z" fill="#F56D6D"/>
<path fill-rule="evenodd" clip-rule="evenodd" d="M50.2767 55.3116C50.3065 55.2884 50.3362 55.2646 50.3658 55.2403C50.551 55.088 50.7255 54.9365 50.8879 54.7955C50.8974 54.7873 50.9068 54.7791 50.9162 54.7709C51.1768 54.8701 51.4803 54.9793 51.8139 55.0513C51.615 55.264 51.3556 55.4957 51.0655 55.7397C50.7423 55.6214 50.4706 55.4727 50.2767 55.3116ZM53.0391 56.0975C52.7106 56.0886 52.3033 56.0272 51.8601 55.9467C52.0156 55.846 52.1754 55.733 52.3324 55.6039C52.4937 55.4714 52.6468 55.3395 52.7908 55.2145C53.2146 55.2819 53.5513 55.3485 53.7206 55.4777C53.5324 55.6713 53.2982 55.8795 53.0391 56.0975Z" fill="#FFFEF7"/>
<path d="M57.9362 54.5926C58.1063 55.0424 57.2904 55.4164 56.2572 55.807C55.224 56.1977 54.2486 56.1499 54.0786 55.7C53.9085 55.2502 54.9161 55.3834 55.9493 54.9927C56.9825 54.6021 57.7661 54.1427 57.9362 54.5926Z" fill="#F56D6D"/>
<path fill-rule="evenodd" clip-rule="evenodd" d="M54.6601 56.0509C54.6735 56.0156 54.6866 55.9799 54.6993 55.9438C54.779 55.7176 54.8497 55.4977 54.9156 55.2929C54.9195 55.2809 54.9233 55.2691 54.9271 55.2572C55.2014 55.2071 55.5176 55.1434 55.8403 55.0322C55.7802 55.3172 55.6784 55.6497 55.5565 56.0087C55.2188 56.0748 54.9093 56.0883 54.6601 56.0509ZM57.4302 55.2928C57.1445 55.4552 56.7643 55.6136 56.3435 55.7743C56.4243 55.6076 56.5026 55.4281 56.5701 55.2365C56.6394 55.0396 56.702 54.8474 56.7605 54.6659C57.158 54.5041 57.4805 54.3868 57.6923 54.4096C57.6315 54.6726 57.5389 54.9721 57.4302 55.2928Z" fill="#FFFEF7"/>
<path d="M55.9333 53.5072C56.1033 53.9571 55.2875 54.3311 54.2543 54.7217C53.2211 55.1124 52.2457 55.0645 52.0756 54.6147C51.9056 54.1649 52.9132 54.298 53.9464 53.9074C54.9796 53.5168 55.7632 53.0574 55.9333 53.5072Z" fill="#F56D6D"/>
<path fill-rule="evenodd" clip-rule="evenodd" d="M52.6571 54.9656C52.6706 54.9303 52.6837 54.8946 52.6964 54.8585C52.776 54.6322 52.8468 54.4124 52.9127 54.2076C52.9166 54.1956 52.9204 54.1837 52.9242 54.1719C53.1985 54.1218 53.5147 54.0581 53.8374 53.9468C53.7773 54.2318 53.6755 54.5644 53.5536 54.9234C53.2158 54.9895 52.9064 55.003 52.6571 54.9656ZM55.4273 54.2074C55.1416 54.3699 54.7614 54.5283 54.3406 54.689C54.4214 54.5223 54.4996 54.3428 54.5671 54.1511C54.6365 53.9542 54.6991 53.7621 54.7576 53.5806C55.1551 53.4188 55.4776 53.3015 55.6894 53.3243C55.6285 53.5873 55.536 53.8867 55.4273 54.2074Z" fill="#FFFEF7"/>
<path d="M50.3954 56.5658C50.0839 56.8814 49.4069 56.2927 48.6208 55.5167C47.8347 54.7407 47.4498 53.856 47.7614 53.5404C48.0729 53.2248 48.3986 54.1694 49.1848 54.9454C49.9709 55.7213 50.7069 56.2502 50.3954 56.5658Z" fill="#F56D6D"/>
<path fill-rule="evenodd" clip-rule="evenodd" d="M47.7143 54.1855C47.7505 54.1845 47.7868 54.1831 47.8234 54.1812C48.0522 54.1694 48.2717 54.152 48.4761 54.1357C48.488 54.1348 48.4998 54.1339 48.5116 54.1329C48.6743 54.3585 48.867 54.6164 49.1033 54.8627C48.8326 54.9134 48.503 54.9444 48.1419 54.9672C47.9377 54.691 47.791 54.4208 47.7143 54.1855ZM49.5739 56.3716C49.3099 56.177 49.0081 55.8968 48.6865 55.5813C48.8648 55.5923 49.0529 55.5963 49.2468 55.5862C49.4459 55.5759 49.638 55.5614 49.8192 55.5471C50.1314 55.8414 50.3729 56.0853 50.4458 56.282C50.1936 56.324 49.8964 56.3511 49.5739 56.3716Z" fill="#FFFEF7"/>
<path d="M48.3459 56.7548C47.9561 56.9661 47.4796 56.2059 46.9532 55.2348C46.4268 54.2638 46.3159 53.3053 46.7058 53.094C47.0956 52.8826 47.1325 53.8812 47.659 54.8522C48.1854 55.8233 48.7358 56.5435 48.3459 56.7548Z" fill="#F56D6D"/>
<path fill-rule="evenodd" clip-rule="evenodd" d="M46.473 53.6975C46.5079 53.7071 46.5431 53.7163 46.5786 53.7252C46.801 53.7804 47.016 53.8275 47.2163 53.8715C47.228 53.874 47.2396 53.8766 47.2511 53.8791C47.3412 54.1423 47.4505 54.445 47.605 54.7494C47.3313 54.7192 47.0068 54.653 46.6547 54.5698C46.5398 54.2462 46.478 53.9449 46.473 53.6975ZM47.6164 56.33C47.4203 56.067 47.2131 55.7111 46.9972 55.3157C47.1646 55.3781 47.3434 55.4366 47.5318 55.4834C47.7253 55.5315 47.9133 55.5734 48.0908 55.6125C48.304 55.9849 48.4641 56.2884 48.4766 56.4978C48.2231 56.4647 47.9309 56.4042 47.6164 56.33Z" fill="#FFFEF7"/>
<path d="M56.84 56.4538C57.0263 56.8562 56.2374 57.2837 55.2351 57.7477C54.2327 58.2117 53.2691 58.2617 53.0828 57.8593C52.8966 57.4568 53.8954 57.4831 54.8978 57.0191C55.9002 56.5551 56.6537 56.0514 56.84 56.4538Z" fill="#F56D6D"/>
<path fill-rule="evenodd" clip-rule="evenodd" d="M53.6704 58.1296C53.6822 58.0954 53.6937 58.0609 53.7047 58.026C53.7739 57.8076 53.8345 57.5959 53.891 57.3988C53.8943 57.3873 53.8976 57.3759 53.9009 57.3646C54.1692 57.2913 54.4783 57.2013 54.7918 57.0664C54.7444 57.3377 54.6577 57.6573 54.5524 58.0034C54.2222 58.0977 53.9177 58.1403 53.6704 58.1296ZM56.3699 57.155C56.095 57.334 55.7268 57.5183 55.3186 57.7088C55.3914 57.5457 55.4611 57.3709 55.5197 57.1858C55.5799 56.9958 55.6337 56.8108 55.6838 56.6361C56.069 56.4469 56.3821 56.3063 56.5918 56.3071C56.5427 56.5579 56.4639 56.8458 56.3699 57.155Z" fill="#FFFEF7"/>
<g opacity="0.45" filter="url(#filter4_b_216_704)">
<path d="M46 52C46 50.3431 47.3431 49 49 49H56C57.6569 49 59 50.3431 59 52V53C59 56.3137 56.3137 59 53 59H52C48.6863 59 46 56.3137 46 53V52Z" fill="#BEDBF5" fill-opacity="0.1"/>
</g>
<path d="M61 52C61 50.3431 62.3431 49 64 49H71C72.6569 49 74 50.3431 74 52V53C74 56.3137 71.3137 59 68 59H67C63.6863 59 61 56.3137 61 53V52Z" fill="#F0F8FF"/>
<path d="M61.8667 49.3725C61.8667 49.1743 62.0398 49.0205 62.2366 49.0438L62.7669 49.1065C65.9113 49.4787 69.0887 49.4787 72.2332 49.1065L72.7634 49.0438C72.9603 49.0205 73.1334 49.1743 73.1334 49.3725C73.1334 49.5403 73.0079 49.6815 72.8412 49.7012L72.3978 49.7537C69.144 50.1388 65.8561 50.1388 62.6022 49.7537L62.1588 49.7012C61.9922 49.6815 61.8667 49.5403 61.8667 49.3725Z" fill="#D6E2ED"/>
<path d="M72.7 49.3333C71.8613 49.3333 70.3719 49.3333 67.5 49.3333C64.6282 49.3333 63.9775 49.3333 62.3 49.3333C62.3 47.8606 64.6282 46.6667 67.5 46.6667C70.3719 46.6667 72.7 47.8606 72.7 49.3333Z" fill="#EEF7FF"/>
<path d="M68.8 47C68.5904 47 68.218 47 67.5 47C66.7821 47 66.6194 47 66.2 47C66.2 46.4477 66.7821 46 67.5 46C68.218 46 68.8 46.4477 68.8 47Z" fill="#EEF7FF"/>
<path d="M61.8667 49.1565C61.8667 48.8944 62.1613 48.6899 62.5001 48.7166L64.7918 48.8974C66.5926 49.0395 68.4075 49.0395 70.2082 48.8974L72.5 48.7166C72.8388 48.6899 73.1334 48.8944 73.1334 49.1565C73.1334 49.3832 72.9104 49.5731 72.6172 49.5963L70.4963 49.7636C68.504 49.9208 66.496 49.9208 64.5038 49.7636L62.3828 49.5963C62.0896 49.5731 61.8667 49.3832 61.8667 49.1565Z" fill="#EEF7FF"/>
<path d="M63.1665 48.7891C63.1665 48.7236 63.2231 48.6724 63.2883 48.6791L63.9363 48.7456C66.3058 48.9886 68.6939 48.9886 71.0634 48.7456L71.7114 48.6791C71.7765 48.6724 71.8332 48.7236 71.8332 48.7891C71.8332 48.8458 71.7903 48.8932 71.7339 48.899L71.1846 48.9554C68.7345 49.2067 66.2652 49.2067 63.8151 48.9554L63.2658 48.899C63.2094 48.8932 63.1665 48.8458 63.1665 48.7891Z" fill="#D6E2ED"/>
<path d="M66.2 47.1471C66.2 47.075 66.2709 47.0242 66.3391 47.0476L66.4207 47.0755C67.1203 47.3147 67.8796 47.3147 68.5792 47.0755L68.6608 47.0476C68.729 47.0242 68.8 47.075 68.8 47.1471C68.8 47.192 68.7714 47.232 68.7288 47.2465L68.6769 47.2643C67.9139 47.5251 67.086 47.5251 66.323 47.2643L66.2711 47.2465C66.2285 47.232 66.2 47.192 66.2 47.1471Z" fill="#D6E2ED"/>
<path d="M66.6408 58.2262C66.7302 58.6586 67.5335 58.5148 68.5103 58.2693C69.4871 58.0239 70.2065 57.4746 70.1171 57.0422C70.0278 56.6099 69.3253 57.2412 68.3485 57.4866C67.3717 57.732 66.5515 57.7938 66.6408 58.2262Z" fill="#FBEC5F"/>
<path fill-rule="evenodd" clip-rule="evenodd" d="M69.8453 57.6154C69.8178 57.5955 69.7904 57.5752 69.7631 57.5543C69.5924 57.4237 69.4316 57.2933 69.2817 57.1718L69.2817 57.1718C69.273 57.1647 69.2644 57.1577 69.2557 57.1507C69.0225 57.2567 68.7507 57.3744 68.4509 57.4593C68.6353 57.645 68.8746 57.845 69.1421 58.0546C69.4315 57.9274 69.6737 57.775 69.8453 57.6154ZM67.3671 58.4939C67.6637 58.4676 68.0302 58.3884 68.4289 58.2897C68.2862 58.2051 68.1392 58.1093 67.9945 57.9986C67.8459 57.885 67.7048 57.7715 67.572 57.6639C67.1906 57.7495 66.8879 57.8296 66.7377 57.9584C66.912 58.127 67.1282 58.3066 67.3671 58.4939Z" fill="#B7E46D"/>
<path d="M64.8095 56.4973C64.7674 56.9383 65.5697 57.0884 66.566 57.2042C67.5623 57.3199 68.4042 57.0564 68.4463 56.6154C68.4885 56.1744 67.6387 56.5216 66.6423 56.4058C65.646 56.29 64.8517 56.0563 64.8095 56.4973Z" fill="#FBEC5F"/>
<path fill-rule="evenodd" clip-rule="evenodd" d="M68.0208 57.0608C68.0007 57.0323 67.9807 57.0033 67.961 56.9738C67.8377 56.7893 67.7237 56.6086 67.6175 56.4403L67.6175 56.4403C67.6114 56.4305 67.6052 56.4208 67.5991 56.4111C67.3473 56.4283 67.0556 56.4429 66.747 56.4163C66.8671 56.6578 67.035 56.9323 67.2267 57.226C67.5378 57.2087 67.8117 57.1508 68.0208 57.0608ZM65.4181 57.0093C65.7065 57.09 66.0766 57.1457 66.4828 57.1943C66.3725 57.0634 66.2615 56.9204 66.157 56.7641C66.0497 56.6036 65.9495 56.4459 65.8553 56.2968C65.4693 56.242 65.1594 56.2099 64.9795 56.2783C65.0951 56.4999 65.247 56.7469 65.4181 57.0093Z" fill="#B7E46D"/>
<path d="M65.894 55.7605C65.9733 56.2334 66.782 56.1309 67.7672 55.93C68.7523 55.7292 69.4867 55.1832 69.4073 54.7103C69.328 54.2374 68.6087 54.8731 67.6236 55.074C66.6384 55.2748 65.8147 55.2876 65.894 55.7605Z" fill="#FBEC5F"/>
<path fill-rule="evenodd" clip-rule="evenodd" d="M69.121 55.3116C69.094 55.2884 69.0671 55.2646 69.0402 55.2403C68.8722 55.088 68.714 54.9365 68.5666 54.7955C68.558 54.7872 68.5495 54.7791 68.541 54.7709C68.3046 54.8701 68.0294 54.9793 67.7267 55.0513C67.9072 55.264 68.1424 55.4957 68.4056 55.7397C68.6987 55.6214 68.9452 55.4727 69.121 55.3116ZM66.6155 56.0975C66.9135 56.0885 67.2828 56.0271 67.6849 55.9467C67.5438 55.846 67.3988 55.7329 67.2564 55.6039C67.1102 55.4714 66.9714 55.3394 66.8407 55.2144C66.4563 55.2819 66.151 55.3485 65.9974 55.4778C66.1681 55.6713 66.3805 55.8795 66.6155 56.0975Z" fill="#B7E46D"/>
<path d="M62.174 54.5926C62.0197 55.0424 62.7597 55.4164 63.6968 55.807C64.6339 56.1977 65.5186 56.1499 65.6729 55.7C65.8271 55.2502 64.9132 55.3834 63.9761 54.9927C63.039 54.6021 62.3283 54.1427 62.174 54.5926Z" fill="#FBEC5F"/>
<path fill-rule="evenodd" clip-rule="evenodd" d="M65.1452 56.0509C65.133 56.0156 65.1211 55.9799 65.1096 55.9438C65.0373 55.7176 64.9732 55.4977 64.9134 55.2929L64.9134 55.2929L64.9134 55.2929C64.9099 55.281 64.9064 55.2691 64.9029 55.2572C64.6542 55.2071 64.3674 55.1434 64.0747 55.0321C64.1292 55.3171 64.2215 55.6497 64.3321 56.0087C64.6384 56.0748 64.9191 56.0883 65.1452 56.0509ZM62.6327 55.2927C62.8918 55.4552 63.2366 55.6136 63.6183 55.7743C63.545 55.6076 63.474 55.4281 63.4128 55.2365C63.3499 55.0396 63.2931 54.8474 63.24 54.6659C62.8795 54.5041 62.587 54.3868 62.3949 54.4096C62.4501 54.6726 62.534 54.9721 62.6327 55.2927Z" fill="#B7E46D"/>
<path d="M63.9904 53.5072C63.8361 53.9571 64.5761 54.3311 65.5132 54.7217C66.4503 55.1124 67.335 55.0645 67.4893 54.6147C67.6435 54.1649 66.7296 54.298 65.7925 53.9074C64.8554 53.5168 64.1447 53.0574 63.9904 53.5072Z" fill="#FBEC5F"/>
<path fill-rule="evenodd" clip-rule="evenodd" d="M66.9619 54.9654C66.9497 54.9301 66.9378 54.8944 66.9263 54.8583C66.854 54.6321 66.7898 54.4122 66.7301 54.2074L66.7301 54.2074L66.7301 54.2074C66.7266 54.1955 66.7231 54.1836 66.7196 54.1718C66.4709 54.1217 66.1841 54.058 65.8914 53.9468C65.9459 54.2317 66.0382 54.5643 66.1488 54.9233C66.4551 54.9893 66.7358 55.0029 66.9619 54.9654ZM64.4494 54.2074C64.7085 54.3699 65.0534 54.5282 65.435 54.6889C65.3617 54.5222 65.2907 54.3427 65.2295 54.151C65.1666 53.9541 65.1098 53.762 65.0568 53.5805C64.6963 53.4188 64.4038 53.3014 64.2116 53.3241C64.2668 53.5872 64.3508 53.8867 64.4494 54.2074Z" fill="#B7E46D"/>
<path d="M69.0134 56.5658C69.296 56.8814 69.91 56.2927 70.623 55.5167C71.336 54.7407 71.6851 53.856 71.4025 53.5404C71.12 53.2248 70.8245 54.1694 70.1115 54.9454C69.3985 55.7213 68.7309 56.2502 69.0134 56.5658Z" fill="#FBEC5F"/>
<path fill-rule="evenodd" clip-rule="evenodd" d="M71.4451 54.1855C71.4124 54.1845 71.3794 54.1831 71.3463 54.1812C71.1388 54.1694 70.9397 54.152 70.7543 54.1358L70.7543 54.1358C70.7435 54.1348 70.7327 54.1339 70.722 54.1329C70.5744 54.3585 70.3997 54.6164 70.1853 54.8627C70.4308 54.9134 70.7298 54.9444 71.0573 54.9672C71.2425 54.691 71.3756 54.4208 71.4451 54.1855ZM69.7585 56.3716C69.998 56.177 70.2717 55.8968 70.5634 55.5813C70.4017 55.5923 70.2311 55.5963 70.0553 55.5862C69.8746 55.5759 69.7004 55.5614 69.536 55.5471C69.2528 55.8414 69.0338 56.0853 68.9677 56.282C69.1964 56.324 69.4659 56.3511 69.7585 56.3716Z" fill="#B7E46D"/>
<path d="M70.8723 56.7548C71.2259 56.9661 71.658 56.2059 72.1355 55.2348C72.6129 54.2638 72.7135 53.3053 72.3599 53.094C72.0063 52.8826 71.9728 53.8812 71.4953 54.8522C71.0179 55.8233 70.5187 56.5435 70.8723 56.7548Z" fill="#FBEC5F"/>
<path fill-rule="evenodd" clip-rule="evenodd" d="M72.5709 53.6975C72.5393 53.7071 72.5074 53.7163 72.4751 53.7252C72.2735 53.7804 72.0784 53.8275 71.8967 53.8715C71.8862 53.874 71.8756 53.8766 71.8652 53.8791C71.7835 54.1423 71.6843 54.4451 71.5442 54.7494C71.7925 54.7192 72.0867 54.653 72.4061 54.5698C72.5104 54.2462 72.5664 53.9449 72.5709 53.6975ZM71.5339 56.33C71.7117 56.067 71.8997 55.7111 72.0955 55.3157C71.9437 55.3781 71.7815 55.4366 71.6106 55.4834C71.4351 55.5315 71.2646 55.5734 71.1035 55.6125C70.9102 55.9849 70.765 56.2884 70.7537 56.4978C70.9835 56.4647 71.2486 56.4042 71.5339 56.33Z" fill="#B7E46D"/>
<path d="M63.168 56.4538C62.999 56.8562 63.7145 57.2837 64.6237 57.7477C65.5329 58.2117 66.4068 58.2617 66.5757 57.8593C66.7447 57.4568 65.8387 57.4831 64.9296 57.0191C64.0204 56.5551 63.3369 56.0514 63.168 56.4538Z" fill="#FBEC5F"/>
<path fill-rule="evenodd" clip-rule="evenodd" d="M66.0431 58.1296C66.0324 58.0954 66.022 58.0609 66.012 58.0259C65.9493 57.8075 65.8943 57.5959 65.843 57.3988L65.843 57.3988L65.843 57.3988L65.843 57.3988C65.84 57.3873 65.8371 57.3759 65.8341 57.3646C65.5907 57.2913 65.3104 57.2013 65.026 57.0664C65.069 57.3377 65.1476 57.6573 65.2431 58.0034C65.5426 58.0977 65.8188 58.1403 66.0431 58.1296ZM63.5947 57.155C63.844 57.334 64.178 57.5184 64.5483 57.7089C64.4822 57.5457 64.419 57.3709 64.3658 57.1858C64.3112 56.9958 64.2625 56.8108 64.217 56.6361C63.8676 56.4469 63.5837 56.3063 63.3934 56.3071C63.4379 56.5579 63.5095 56.8458 63.5947 57.155Z" fill="#B7E46D"/>
<g opacity="0.45" filter="url(#filter5_b_216_704)">
<path d="M61 52C61 50.3431 62.3431 49 64 49H71C72.6569 49 74 50.3431 74 52V53C74 56.3137 71.3137 59 68 59H67C63.6863 59 61 56.3137 61 53V52Z" fill="#BEDBF5" fill-opacity="0.1"/>
</g>
<defs>
<filter id="filter0_b_216_704" x="20" y="69.6155" width="17.3845" height="17.3846" filterUnits="userSpaceOnUse" color-interpolation-filters="sRGB">
<feFlood flood-opacity="0" result="BackgroundImageFix"/>
<feGaussianBlur in="BackgroundImage" stdDeviation="0.5"/>
<feComposite in2="SourceAlpha" operator="in" result="effect1_backgroundBlur_216_704"/>
<feBlend mode="normal" in="SourceGraphic" in2="effect1_backgroundBlur_216_704" result="shape"/>
</filter>
<filter id="filter1_b_216_704" x="4" y="69.6155" width="17.3845" height="17.3846" filterUnits="userSpaceOnUse" color-interpolation-filters="sRGB">
<feFlood flood-opacity="0" result="BackgroundImageFix"/>
<feGaussianBlur in="BackgroundImage" stdDeviation="0.5"/>
<feComposite in2="SourceAlpha" operator="in" result="effect1_backgroundBlur_216_704"/>
<feBlend mode="normal" in="SourceGraphic" in2="effect1_backgroundBlur_216_704" result="shape"/>
</filter>
<filter id="filter2_b_216_704" x="47" y="68.6155" width="25" height="17.3846" filterUnits="userSpaceOnUse" color-interpolation-filters="sRGB">
<feFlood flood-opacity="0" result="BackgroundImageFix"/>
<feGaussianBlur in="BackgroundImage" stdDeviation="0.5"/>
<feComposite in2="SourceAlpha" operator="in" result="effect1_backgroundBlur_216_704"/>
<feBlend mode="normal" in="SourceGraphic" in2="effect1_backgroundBlur_216_704" result="shape"/>
</filter>
<filter id="filter3_b_216_704" x="22" y="22" width="15" height="12" filterUnits="userSpaceOnUse" color-interpolation-filters="sRGB">
<feFlood flood-opacity="0" result="BackgroundImageFix"/>
<feGaussianBlur in="BackgroundImage" stdDeviation="0.5"/>
<feComposite in2="SourceAlpha" operator="in" result="effect1_backgroundBlur_216_704"/>
<feBlend mode="normal" in="SourceGraphic" in2="effect1_backgroundBlur_216_704" result="shape"/>
</filter>
<filter id="filter4_b_216_704" x="45" y="48" width="15" height="12" filterUnits="userSpaceOnUse" color-interpolation-filters="sRGB">
<feFlood flood-opacity="0" result="BackgroundImageFix"/>
<feGaussianBlur in="BackgroundImage" stdDeviation="0.5"/>
<feComposite in2="SourceAlpha" operator="in" result="effect1_backgroundBlur_216_704"/>
<feBlend mode="normal" in="SourceGraphic" in2="effect1_backgroundBlur_216_704" result="shape"/>
</filter>
<filter id="filter5_b_216_704" x="60" y="48" width="15" height="12" filterUnits="userSpaceOnUse" color-interpolation-filters="sRGB">
<feFlood flood-opacity="0" result="BackgroundImageFix"/>
<feGaussianBlur in="BackgroundImage" stdDeviation="0.5"/>
<feComposite in2="SourceAlpha" operator="in" result="effect1_backgroundBlur_216_704"/>
<feBlend mode="normal" in="SourceGraphic" in2="effect1_backgroundBlur_216_704" result="shape"/>
</filter>
</defs>
</svg>
