<svg width="79" height="69" viewBox="0 0 79 69" fill="none" xmlns="http://www.w3.org/2000/svg">
<path d="M1.5 39.476C1.5 18.5024 18.5024 1.5 39.476 1.5C60.4495 1.5 77.4519 18.5024 77.4519 39.476V65C77.4519 66.3807 76.3326 67.5 74.9519 67.5H4C2.61929 67.5 1.5 66.3807 1.5 65V39.476Z" fill="#BEDEFC" stroke="#EEBF19" stroke-width="3"/>
<path d="M1.5 39.476C1.5 18.5024 18.5024 1.5 39.476 1.5C60.4495 1.5 77.4519 18.5024 77.4519 39.476V65C77.4519 66.3807 76.3326 67.5 74.9519 67.5H4C2.61929 67.5 1.5 66.3807 1.5 65V39.476Z" fill="#BEDEFC" stroke="#EEBF19" stroke-width="3"/>
<line x1="1.5127" y1="55.9824" x2="77.1473" y2="55.9824" stroke="#EEBF19" stroke-width="3"/>
<path d="M32.5199 39.4617C32.3839 38.6999 33.1707 38.1063 33.8659 38.4462L36.0752 39.5266C39.3191 41.1129 41.3762 44.4085 41.3762 48.0196L41.3763 51.0335C41.3763 51.3875 41.0014 51.6159 40.6868 51.4536L38.1994 50.1698C35.5834 48.8197 33.7456 46.3279 33.2282 43.4298L32.5199 39.4617Z" fill="#B1CF7F"/>
<path d="M47.2313 40.0428C47.4104 39.0397 46.3743 38.2581 45.4589 38.7057C41.1873 40.7945 38.4787 45.1341 38.4786 49.8891L38.4786 50.6835C38.4786 51.1974 39.0286 51.5258 39.4853 51.2901C43.4457 49.2461 46.2653 45.4546 47.0485 41.0671L47.2313 40.0428Z" fill="#B1CF7F"/>
<path d="M38.474 37.0583C38.864 36.1169 40.1581 36.0172 40.6877 36.8878C43.159 40.95 43.1006 46.0652 40.537 50.0699L40.1087 50.739C39.8317 51.1718 39.1913 51.1518 38.9338 50.7071C36.7003 46.8503 36.3698 42.137 38.0757 38.0195L38.474 37.0583Z" fill="#9BAF7A"/>
<rect x="34.9353" y="49.9231" width="9.76675" height="5.29033" fill="#FFB2B2"/>
<rect x="33.2793" y="45.3806" width="12.8579" height="4.53808" rx="2.26904" fill="#F56D6D"/>
<path d="M54.4537 39.4614C54.3177 38.6996 55.1046 38.106 55.7997 38.446L58.009 39.5263C61.253 41.1127 63.31 44.4083 63.3101 48.0193L63.3101 51.0332C63.3102 51.3873 62.9353 51.6157 62.6206 51.4533L60.1333 50.1696C57.5172 48.8194 55.6794 46.3277 55.162 43.4296L54.4537 39.4614Z" fill="#B1CF7F"/>
<path d="M69.1656 40.0426C69.3447 39.0395 68.3086 38.2578 67.3932 38.7055C63.1216 40.7943 60.413 45.1339 60.4129 49.8888L60.4129 50.6832C60.4129 51.1971 60.9629 51.5256 61.4196 51.2899C65.3801 49.2459 68.1996 45.4544 68.9828 41.0669L69.1656 40.0426Z" fill="#B1CF7F"/>
<path d="M60.4083 37.058C60.7983 36.1167 62.0924 36.017 62.622 36.8875C65.0933 40.9498 65.0349 46.065 62.4713 50.0697L62.043 50.7387C61.766 51.1715 61.1257 51.1516 60.8681 50.7069C58.6346 46.8501 58.3042 42.1368 60.0101 38.0193L60.4083 37.058Z" fill="#9BAF7A"/>
<rect x="56.8696" y="49.9231" width="9.76675" height="5.29033" fill="#FFB2B2"/>
<rect x="55.2136" y="45.3806" width="12.8579" height="4.53808" rx="2.26904" fill="#F56D6D"/>
<path d="M10.585 39.4617C10.4491 38.6999 11.2359 38.1063 11.9311 38.4462L14.1404 39.5266C17.3843 41.1129 19.4413 44.4085 19.4414 48.0196L19.4415 51.0335C19.4415 51.3875 19.0666 51.6159 18.752 51.4536L16.2646 50.1698C13.6486 48.8197 11.8107 46.3279 11.2934 43.4298L10.585 39.4617Z" fill="#B1CF7F"/>
<path d="M25.297 40.0426C25.4761 39.0395 24.4399 38.2578 23.5245 38.7055C19.253 40.7943 16.5444 45.1339 16.5443 49.8888L16.5442 50.6832C16.5442 51.1971 17.0943 51.5256 17.5509 51.2899C21.5114 49.2459 24.3309 45.4544 25.1141 41.0669L25.297 40.0426Z" fill="#B1CF7F"/>
<path d="M16.5402 37.0583C16.9302 36.1169 18.2242 36.0172 18.7538 36.8878C21.2252 40.95 21.1667 46.0652 18.6032 50.0699L18.1749 50.739C17.8978 51.1718 17.2575 51.1518 17 50.7071C14.7664 46.8503 14.436 42.137 16.1419 38.0195L16.5402 37.0583Z" fill="#9BAF7A"/>
<rect x="13.002" y="49.9231" width="9.76675" height="5.29033" fill="#FFB2B2"/>
<rect x="11.3462" y="45.3806" width="12.8579" height="4.53808" rx="2.26904" fill="#F56D6D"/>
</svg>
