<svg width="76" height="120" viewBox="0 0 76 120" fill="none" xmlns="http://www.w3.org/2000/svg">
<path fill-rule="evenodd" clip-rule="evenodd" d="M3 41H0V120H76V41H73V116.962H3V41Z" fill="#062428"/>
<path fill-rule="evenodd" clip-rule="evenodd" d="M73 41H3V117H73V41ZM5.99997 44H36V113H5.99997V44ZM40 44H70V113H40V44Z" fill="#012D33"/>
<path fill-rule="evenodd" clip-rule="evenodd" d="M73 41H76C76 18.3563 58.9868 0 38 0C17.0132 0 0 18.3563 0 41H3C3 20.0132 18.6699 3 38 3C57.3301 3 73 20.0132 73 41Z" fill="#062428"/>
<path d="M73 41C56.8125 41 57.33 41 38 41C18.67 41 26.625 41 3 41C3 20.0132 18.67 3 38 3C57.33 3 73 20.0132 73 41Z" fill="#CCE3F9"/>
<path fill-rule="evenodd" clip-rule="evenodd" d="M38 41H73C73 20.0132 57.33 3 38 3C18.67 3 3 20.0132 3 41H38ZM39 4C35.6863 4 33 6.23858 33 9L36 31L39.5 31.5L45 9C45 6.23858 42.3137 4 39 4ZM29.9679 9.96016L29.9451 9.97245L34.9992 31.4983L32.5032 32.9986L19.423 15.6429L19.4042 15.653C18.0942 13.2221 19.397 9.97708 22.3141 8.40504C25.1804 6.86034 28.5389 7.50574 29.8977 9.83496L29.9111 9.82764L29.9233 9.87944C29.9384 9.90613 29.9533 9.93304 29.9679 9.96016ZM17.8075 16.7683L17.7841 16.8035L31.5 33.5L29.5 36L11.1894 26.7227L11.1638 26.7613C8.86417 25.2324 8.48726 21.756 10.3219 18.9965C12.1565 16.237 15.508 15.2394 17.8075 16.7683ZM9 40V39.9663L28 40L29 37L9 28C6.23858 28 4 30.6863 4 34C4 37.3137 6.23858 40 9 40ZM58.3321 17.2097L58.3555 17.2449L44.6396 33.9414L46.6396 36.4414L64.9503 27.1641L64.9759 27.2027C67.2755 25.6738 67.6524 22.1974 65.8178 19.4379C63.9831 16.6785 60.6317 15.6808 58.3321 17.2097ZM46.1945 10.4139L46.1717 10.4016C46.1863 10.3744 46.2012 10.3475 46.2164 10.3208L46.2285 10.269L46.2419 10.2764C47.6007 7.94714 50.9592 7.30174 53.8256 8.84645C56.7427 10.4185 58.0454 13.6635 56.7354 16.0944L56.7166 16.0843L43.6365 33.44L41.1404 31.9397L46.1945 10.4139ZM67 28L47 37L48 40L67 39.9663V40C69.7614 40 72 37.3137 72 34C72 30.6863 69.7614 28 67 28Z" fill="#012D33"/>
<path d="M48 41C43.375 41 43.5228 41 38 41C32.4772 41 34.75 41 28 41C28 35.4772 32.4772 31 38 31C43.5228 31 48 35.4772 48 41Z" fill="#012D33"/>
<path d="M36 113H6L9 110H33L36 113Z" fill="#062428"/>
<path d="M6 44H36L33 47H9L6 44Z" fill="#104147"/>
<path d="M6 113V44L9 47V110L6 113Z" fill="#104147"/>
<path d="M36 44V113L33 110V47L36 44Z" fill="#062428"/>
<path d="M70 113H40L43 110H67L70 113Z" fill="#062428"/>
<path d="M40 44H70L67 47H43L40 44Z" fill="#104147"/>
<path d="M40 113V44L43 47V110L40 113Z" fill="#104147"/>
<path d="M70 44V113L67 110V47L70 44Z" fill="#062428"/>
</svg>
