<svg width="105" height="92" viewBox="0 0 105 92" fill="none" xmlns="http://www.w3.org/2000/svg">
<path d="M1.5 50C1.5 23.2142 23.2142 1.5 50 1.5H54.386C81.1718 1.5 102.886 23.2142 102.886 50V87.2281C102.886 88.6088 101.767 89.7281 100.386 89.7281H4C2.61929 89.7281 1.5 88.6088 1.5 87.2281V50Z" fill="#BEDEFC" stroke="#EEBF19" stroke-width="3"/>
<path d="M1.5 50C1.5 23.2142 23.2142 1.5 50 1.5H54.386C81.1718 1.5 102.886 23.2142 102.886 50V87.2281C102.886 88.6088 101.767 89.7281 100.386 89.7281H4C2.61929 89.7281 1.5 88.6088 1.5 87.2281V50Z" fill="#BEDEFC" stroke="#EEBF19" stroke-width="3"/>
<line x1="2" y1="74.5" x2="102" y2="74.5" stroke="#EEBF19" stroke-width="3"/>
<path d="M42.9953 52.1744C42.8155 51.1672 43.8558 50.3824 44.775 50.8318L47.6959 52.2602C51.9849 54.3576 54.7046 58.7149 54.7047 63.4892L54.7048 67.474C54.7048 67.9421 54.2092 68.2441 53.7932 68.0294L50.5045 66.3321C47.0457 64.547 44.6158 61.2526 43.9318 57.4209L42.9953 52.1744Z" fill="#B1CF7F"/>
<path d="M62.4472 52.9425C62.6839 51.6163 61.314 50.5828 60.1038 51.1747C54.4561 53.9364 50.8749 59.674 50.8748 65.9607L50.8748 67.011C50.8748 67.6904 51.602 68.1247 52.2058 67.8131C57.4421 65.1106 61.1699 60.0977 62.2054 54.2968L62.4472 52.9425Z" fill="#B1CF7F"/>
<path d="M50.8678 48.996C51.3835 47.7514 53.0944 47.6196 53.7947 48.7706C57.0621 54.1415 56.9848 60.9045 53.5954 66.1993L53.0292 67.0839C52.6629 67.6562 51.8163 67.6298 51.4758 67.0418C48.5227 61.9426 48.0858 55.7108 50.3413 50.267L50.8678 48.996Z" fill="#9BAF7A"/>
<rect x="46.1904" y="66.0054" width="12.9131" height="6.99458" fill="#FFB2B2"/>
<rect x="44" y="60" width="17" height="6" rx="3" fill="#F56D6D"/>
<path d="M71.9953 52.1744C71.8155 51.1672 72.8558 50.3824 73.775 50.8318L76.6959 52.2602C80.9849 54.3576 83.7046 58.7149 83.7047 63.4892L83.7048 67.474C83.7048 67.9421 83.2092 68.2441 82.7932 68.0294L79.5045 66.3321C76.0457 64.547 73.6158 61.2526 72.9318 57.4209L71.9953 52.1744Z" fill="#B1CF7F"/>
<path d="M91.4472 52.9425C91.6839 51.6163 90.314 50.5828 89.1038 51.1747C83.4561 53.9364 79.8749 59.674 79.8748 65.9607L79.8748 67.011C79.8748 67.6904 80.602 68.1247 81.2058 67.8131C86.4421 65.1106 90.1699 60.0977 91.2054 54.2968L91.4472 52.9425Z" fill="#B1CF7F"/>
<path d="M79.8678 48.996C80.3835 47.7514 82.0944 47.6196 82.7947 48.7706C86.0621 54.1415 85.9848 60.9045 82.5954 66.1993L82.0292 67.0839C81.6629 67.6562 80.8163 67.6298 80.4758 67.0418C77.5227 61.9426 77.0858 55.7108 79.3413 50.267L79.8678 48.996Z" fill="#9BAF7A"/>
<rect x="75.1904" y="66.0054" width="12.9131" height="6.99458" fill="#FFB2B2"/>
<rect x="73" y="60" width="17" height="6" rx="3" fill="#F56D6D"/>
<path d="M13.9953 52.1744C13.8155 51.1672 14.8558 50.3824 15.775 50.8318L18.6959 52.2602C22.9849 54.3576 25.7046 58.7149 25.7047 63.4892L25.7048 67.474C25.7048 67.9421 25.2092 68.2441 24.7932 68.0294L21.5045 66.3321C18.0457 64.547 15.6158 61.2526 14.9318 57.4209L13.9953 52.1744Z" fill="#B1CF7F"/>
<path d="M33.4472 52.9425C33.6839 51.6163 32.314 50.5828 31.1038 51.1747C25.4561 53.9364 21.8749 59.674 21.8748 65.9607L21.8748 67.011C21.8748 67.6904 22.602 68.1247 23.2058 67.8131C28.4421 65.1106 32.1699 60.0977 33.2054 54.2968L33.4472 52.9425Z" fill="#B1CF7F"/>
<path d="M21.8678 48.996C22.3835 47.7514 24.0944 47.6196 24.7947 48.7706C28.0621 54.1415 27.9848 60.9045 24.5954 66.1993L24.0292 67.0839C23.6629 67.6562 22.8163 67.6298 22.4758 67.0418C19.5227 61.9426 19.0858 55.7108 21.3413 50.267L21.8678 48.996Z" fill="#9BAF7A"/>
<rect x="17.1904" y="66.0054" width="12.9131" height="6.99458" fill="#FFB2B2"/>
<rect x="15" y="60" width="17" height="6" rx="3" fill="#F56D6D"/>
</svg>
