<svg width="76" height="120" viewBox="0 0 76 120" fill="none" xmlns="http://www.w3.org/2000/svg">
<rect x="9" y="47" width="58" height="63" fill="#CCE3F9" fill-opacity="0.64"/>
<rect x="3" y="100" width="70" height="13" fill="#EBCFB9"/>
<path d="M19.2031 103.553C19.2031 107.172 16.4714 108 13.1016 108C9.73176 108 7 107.172 7 103.553C7 99.9338 9.73176 97 13.1016 97C16.4714 97 19.2031 99.9338 19.2031 103.553Z" fill="#B58154"/>
<path fill-rule="evenodd" clip-rule="evenodd" d="M10.3423 101.152C9.85178 101.797 9.43045 102.366 9.08339 102.842C8.29942 102.555 7.85938 102.5 7.85938 102.5C7.85938 102.5 8.16618 102.744 8.81994 103.206C8.23553 104.017 7.92562 104.478 7.92562 104.478C7.92562 104.478 8.45101 104.167 9.22178 103.487C9.67234 103.798 10.2398 104.18 10.9319 104.627C10.1688 105.807 9.73424 106.636 9.73424 106.636C9.73424 106.636 10.446 105.989 11.4142 104.936L11.4537 104.961C12.0579 105.345 12.6026 105.681 13.0812 105.97C12.5169 107.036 12.3299 107.727 12.3299 107.727C12.3299 107.727 12.7873 107.207 13.5631 106.258C14.7546 106.965 15.4219 107.313 15.4219 107.313C15.4219 107.313 14.9743 106.674 13.9487 105.784C14.2973 105.352 14.6933 104.853 15.1278 104.294C16.6558 105.201 17.7422 105.766 17.7422 105.766C17.7422 105.766 16.9034 104.868 15.5386 103.765C16.0346 103.127 16.4495 102.598 16.7839 102.175C17.8584 102.629 18.5157 102.749 18.5157 102.749C18.5157 102.749 18.0414 102.382 17.1258 101.743C17.5948 101.153 17.8282 100.867 17.8282 100.867C17.8282 100.867 17.4132 101.027 16.7694 101.497C16.2734 101.156 15.6747 100.754 14.9769 100.302C15.6601 99.2288 16.0461 98.4927 16.0461 98.4927C16.0461 98.4927 15.4141 99.0672 14.5311 100.014C13.8203 99.5587 13.2195 99.1812 12.7273 98.8764C13.0752 98.0602 13.1013 97.6016 13.1013 97.6016C13.1013 97.6016 12.85 97.9136 12.3021 98.6145C11.4565 98.0965 11.0391 97.8594 11.0391 97.8594C11.0391 97.8594 11.2926 98.3223 11.9854 99.0207C11.6426 99.4612 11.2162 100.012 10.6994 100.685C9.34581 100.016 8.375 99.6641 8.375 99.6641C8.375 99.6641 9.1464 100.285 10.3423 101.152ZM11.4359 101.062C11.9016 101.309 12.3955 101.587 12.8989 101.896C13.2653 101.44 13.6268 101.017 13.9669 100.634C13.3497 100.218 12.85 99.8198 12.45 99.4615C12.2104 99.9226 11.8831 100.46 11.4359 101.062ZM9.66802 103.075C10.1557 103.284 10.731 103.568 11.3804 103.95C11.6777 103.513 12.0103 103.046 12.3742 102.567C11.8866 102.242 11.4248 101.923 11 101.623C10.5319 102.2 10.0775 102.681 9.66802 103.075ZM13.5811 102.329C13.9273 101.864 14.2429 101.414 14.5241 100.994C15.147 101.381 15.7208 101.686 16.2276 101.926C15.8286 102.267 15.3785 102.707 14.9052 103.269C14.4968 102.958 14.0534 102.641 13.5811 102.329ZM13.4284 105.352C13.6976 104.898 14.0264 104.399 14.4251 103.872C13.9892 103.606 13.5288 103.319 13.0562 103.014C12.687 103.481 12.3202 103.918 11.9724 104.314C12.5313 104.672 13.0149 105.023 13.4284 105.352Z" fill="#D99F5B"/>
<path d="M31.8062 103.553C31.8062 107.172 29.0744 108 25.7046 108C22.3348 108 19.603 107.172 19.603 103.553C19.603 99.9338 22.3348 97 25.7046 97C29.0744 97 31.8062 99.9338 31.8062 103.553Z" fill="#B58154"/>
<path fill-rule="evenodd" clip-rule="evenodd" d="M22.9453 101.152C22.4548 101.797 22.0335 102.366 21.6864 102.842C20.9024 102.555 20.4624 102.5 20.4624 102.5C20.4624 102.5 20.7692 102.744 21.423 103.206C20.8386 104.017 20.5286 104.478 20.5286 104.478C20.5286 104.478 21.054 104.167 21.8248 103.487C22.2754 103.798 22.8429 104.18 23.5349 104.627C22.7718 105.807 22.3373 106.636 22.3373 106.636C22.3373 106.636 23.049 105.989 24.0172 104.936L24.0567 104.961C24.6609 105.345 25.2057 105.681 25.6842 105.97C25.1199 107.036 24.9329 107.727 24.9329 107.727C24.9329 107.727 25.3904 107.207 26.1661 106.258C27.3576 106.965 28.0249 107.313 28.0249 107.313C28.0249 107.313 27.5773 106.674 26.5517 105.784C26.9003 105.352 27.2963 104.853 27.7308 104.294C29.2588 105.201 30.3452 105.766 30.3452 105.766C30.3452 105.766 29.5065 104.868 28.1417 103.765C28.6376 103.127 29.0526 102.598 29.3869 102.175C30.4614 102.629 31.1188 102.749 31.1188 102.749C31.1188 102.749 30.6444 102.382 29.7288 101.743C30.1978 101.153 30.4313 100.867 30.4313 100.867C30.4313 100.867 30.0162 101.027 29.3725 101.497C28.8764 101.156 28.2777 100.754 27.58 100.302C28.2631 99.2288 28.6491 98.4927 28.6491 98.4927C28.6491 98.4927 28.0171 99.0672 27.1341 100.014C26.4233 99.5587 25.8225 99.1812 25.3303 98.8764C25.6783 98.0602 25.7044 97.6016 25.7044 97.6016C25.7044 97.6016 25.453 97.9136 24.9052 98.6145C24.0596 98.0965 23.6421 97.8594 23.6421 97.8594C23.6421 97.8594 23.8956 98.3223 24.5884 99.0207C24.2456 99.4612 23.8192 100.012 23.3025 100.685C21.9488 100.016 20.978 99.6641 20.978 99.6641C20.978 99.6641 21.7494 100.285 22.9453 101.152ZM24.039 101.062C24.5046 101.309 24.9985 101.587 25.5019 101.896C25.8683 101.44 26.2298 101.017 26.5699 100.634C25.9527 100.218 25.4531 99.8198 25.0531 99.4615C24.8135 99.9226 24.4861 100.46 24.039 101.062ZM22.271 103.075C22.7587 103.284 23.3341 103.568 23.9834 103.95C24.2807 103.513 24.6134 103.046 24.9773 102.567C24.4896 102.242 24.0278 101.923 23.603 101.623C23.1349 102.2 22.6805 102.681 22.271 103.075ZM26.1841 102.329C26.5303 101.864 26.8459 101.414 27.1271 100.994C27.75 101.381 28.3238 101.686 28.8307 101.926C28.4317 102.267 27.9815 102.707 27.5083 103.269C27.0999 102.958 26.6564 102.641 26.1841 102.329ZM26.0315 105.352C26.3007 104.898 26.6294 104.399 27.0281 103.872C26.5922 103.606 26.1319 103.319 25.6592 103.014C25.29 103.481 24.9232 103.918 24.5754 104.314C25.1343 104.672 25.6179 105.023 26.0315 105.352Z" fill="#D99F5B"/>
<path d="M44.4092 103.553C44.4092 107.172 41.6774 108 38.3076 108C34.9378 108 32.2061 107.172 32.2061 103.553C32.2061 99.9338 34.9378 97 38.3076 97C41.6774 97 44.4092 99.9338 44.4092 103.553Z" fill="#B58154"/>
<path fill-rule="evenodd" clip-rule="evenodd" d="M35.5483 101.152C35.0578 101.797 34.6365 102.366 34.2894 102.842C33.5055 102.555 33.0654 102.5 33.0654 102.5C33.0654 102.5 33.3722 102.744 34.026 103.206C33.4416 104.017 33.1317 104.478 33.1317 104.478C33.1317 104.478 33.6571 104.167 34.4278 103.487C34.8784 103.798 35.4459 104.18 36.1379 104.627C35.3749 105.807 34.9403 106.636 34.9403 106.636C34.9403 106.636 35.6521 105.989 36.6202 104.936L36.6598 104.961C37.2639 105.345 37.8087 105.681 38.2872 105.97C37.723 107.036 37.536 107.727 37.536 107.727C37.536 107.727 37.9934 107.207 38.7692 106.258C39.9607 106.965 40.6279 107.313 40.6279 107.313C40.6279 107.313 40.1803 106.674 39.1548 105.784C39.5033 105.352 39.8993 104.853 40.3338 104.294C41.8618 105.201 42.9482 105.766 42.9482 105.766C42.9482 105.766 42.1095 104.868 40.7447 103.765C41.2406 103.127 41.6556 102.598 41.99 102.175C43.0644 102.629 43.7218 102.749 43.7218 102.749C43.7218 102.749 43.2475 102.382 42.3319 101.743C42.8008 101.153 43.0343 100.867 43.0343 100.867C43.0343 100.867 42.6193 101.027 41.9755 101.497C41.4795 101.156 40.8807 100.754 40.183 100.302C40.8662 99.2288 41.2522 98.4927 41.2522 98.4927C41.2522 98.4927 40.6202 99.0672 39.7372 100.014C39.0263 99.5587 38.4255 99.1812 37.9334 98.8764C38.2813 98.0602 38.3074 97.6016 38.3074 97.6016C38.3074 97.6016 38.056 97.9136 37.5082 98.6145C36.6626 98.0965 36.2451 97.8594 36.2451 97.8594C36.2451 97.8594 36.4987 98.3223 37.1914 99.0207C36.8487 99.4612 36.4222 100.012 35.9055 100.685C34.5519 100.016 33.5811 99.6641 33.5811 99.6641C33.5811 99.6641 34.3525 100.285 35.5483 101.152ZM36.642 101.062C37.1077 101.309 37.6016 101.587 38.1049 101.896C38.4714 101.44 38.8329 101.017 39.173 100.634C38.5558 100.218 38.0561 99.8198 37.6561 99.4615C37.4165 99.9226 37.0891 100.46 36.642 101.062ZM34.8741 103.075C35.3617 103.284 35.9371 103.568 36.5864 103.95C36.8837 103.513 37.2164 103.046 37.5803 102.567C37.0927 102.242 36.6308 101.923 36.206 101.623C35.7379 102.2 35.2835 102.681 34.8741 103.075ZM38.7872 102.329C39.1334 101.864 39.449 101.414 39.7301 100.994C40.353 101.381 40.9269 101.686 41.4337 101.926C41.0347 102.267 40.5845 102.707 40.1113 103.269C39.7029 102.958 39.2595 102.641 38.7872 102.329ZM38.6345 105.352C38.9037 104.898 39.2324 104.399 39.6312 103.872C39.1952 103.606 38.7349 103.319 38.2622 103.014C37.8931 103.481 37.5262 103.918 37.1784 104.314C37.7373 104.672 38.2209 105.023 38.6345 105.352Z" fill="#D99F5B"/>
<path d="M57.0127 103.553C57.0127 107.172 54.2809 108 50.9111 108C47.5413 108 44.8096 107.172 44.8096 103.553C44.8096 99.9338 47.5413 97 50.9111 97C54.2809 97 57.0127 99.9338 57.0127 103.553Z" fill="#B58154"/>
<path fill-rule="evenodd" clip-rule="evenodd" d="M48.1518 101.152C47.6614 101.797 47.24 102.366 46.893 102.842C46.109 102.555 45.6689 102.5 45.6689 102.5C45.6689 102.5 45.9757 102.744 46.6295 103.206C46.0451 104.017 45.7352 104.478 45.7352 104.478C45.7352 104.478 46.2606 104.167 47.0313 103.487C47.4819 103.798 48.0494 104.18 48.7414 104.627C47.9784 105.807 47.5438 106.636 47.5438 106.636C47.5438 106.636 48.2556 105.989 49.2237 104.936L49.2633 104.961C49.8674 105.345 50.4122 105.681 50.8908 105.97C50.3265 107.036 50.1395 107.727 50.1395 107.727C50.1395 107.727 50.5969 107.207 51.3727 106.258C52.5642 106.965 53.2314 107.313 53.2314 107.313C53.2314 107.313 52.7838 106.674 51.7583 105.784C52.1068 105.352 52.5028 104.853 52.9374 104.294C54.4654 105.201 55.5518 105.766 55.5518 105.766C55.5518 105.766 54.713 104.868 53.3482 103.765C53.8441 103.127 54.2591 102.598 54.5935 102.175C55.6679 102.629 56.3253 102.749 56.3253 102.749C56.3253 102.749 55.851 102.382 54.9354 101.743C55.4043 101.153 55.6378 100.867 55.6378 100.867C55.6378 100.867 55.2228 101.027 54.579 101.497C54.083 101.156 53.4842 100.754 52.7865 100.302C53.4697 99.2288 53.8557 98.4927 53.8557 98.4927C53.8557 98.4927 53.2237 99.0672 52.3407 100.014C51.6299 99.5587 51.029 99.1812 50.5369 98.8764C50.8848 98.0602 50.9109 97.6016 50.9109 97.6016C50.9109 97.6016 50.6595 97.9136 50.1117 98.6145C49.2661 98.0965 48.8486 97.8594 48.8486 97.8594C48.8486 97.8594 49.1022 98.3223 49.7949 99.0207C49.4522 99.4612 49.0257 100.012 48.509 100.685C47.1554 100.016 46.1846 99.6641 46.1846 99.6641C46.1846 99.6641 46.956 100.285 48.1518 101.152ZM49.2455 101.062C49.7112 101.309 50.2051 101.587 50.7084 101.896C51.0749 101.44 51.4364 101.017 51.7765 100.634C51.1593 100.218 50.6596 99.8198 50.2596 99.4615C50.02 99.9226 49.6927 100.46 49.2455 101.062ZM47.4776 103.075C47.9653 103.284 48.5406 103.568 49.19 103.95C49.4872 103.513 49.8199 103.046 50.1838 102.567C49.6962 102.242 49.2344 101.923 48.8096 101.623C48.3414 102.2 47.887 102.681 47.4776 103.075ZM51.3907 102.329C51.7369 101.864 52.0525 101.414 52.3336 100.994C52.9566 101.381 53.5304 101.686 54.0372 101.926C53.6382 102.267 53.188 102.707 52.7148 103.269C52.3064 102.958 51.863 102.641 51.3907 102.329ZM51.238 105.352C51.5072 104.898 51.8359 104.399 52.2347 103.872C51.7987 103.606 51.3384 103.319 50.8658 103.014C50.4966 103.481 50.1297 103.918 49.7819 104.314C50.3408 104.672 50.8245 105.023 51.238 105.352Z" fill="#D99F5B"/>
<path d="M69.6152 103.553C69.6152 107.172 66.8835 108 63.5137 108C60.1439 108 57.4121 107.172 57.4121 103.553C57.4121 99.9338 60.1439 97 63.5137 97C66.8835 97 69.6152 99.9338 69.6152 103.553Z" fill="#B58154"/>
<path fill-rule="evenodd" clip-rule="evenodd" d="M60.7544 101.152C60.2639 101.797 59.8426 102.366 59.4955 102.842C58.7115 102.555 58.2715 102.5 58.2715 102.5C58.2715 102.5 58.5783 102.744 59.232 103.206C58.6476 104.017 58.3377 104.478 58.3377 104.478C58.3377 104.478 58.8631 104.167 59.6339 103.487C60.0844 103.798 60.6519 104.18 61.344 104.627C60.5809 105.807 60.1464 106.636 60.1464 106.636C60.1464 106.636 60.8581 105.989 61.8263 104.936L61.8658 104.961C62.47 105.345 63.0147 105.681 63.4933 105.97C62.929 107.036 62.742 107.727 62.742 107.727C62.742 107.727 63.1994 107.207 63.9752 106.258C65.1667 106.965 65.834 107.313 65.834 107.313C65.834 107.313 65.3864 106.674 64.3608 105.784C64.7094 105.352 65.1054 104.853 65.5399 104.294C67.0679 105.201 68.1543 105.766 68.1543 105.766C68.1543 105.766 67.3155 104.868 65.9508 103.765C66.4467 103.127 66.8616 102.598 67.196 102.175C68.2705 102.629 68.9278 102.749 68.9278 102.749C68.9278 102.749 68.4535 102.382 67.5379 101.743C68.0069 101.153 68.2403 100.867 68.2403 100.867C68.2403 100.867 67.8253 101.027 67.1815 101.497C66.6855 101.156 66.0868 100.754 65.389 100.302C66.0722 99.2288 66.4582 98.4927 66.4582 98.4927C66.4582 98.4927 65.8262 99.0672 64.9432 100.014C64.2324 99.5587 63.6316 99.1812 63.1394 98.8764C63.4874 98.0602 63.5134 97.6016 63.5134 97.6016C63.5134 97.6016 63.2621 97.9136 62.7142 98.6145C61.8686 98.0965 61.4512 97.8594 61.4512 97.8594C61.4512 97.8594 61.7047 98.3223 62.3975 99.0207C62.0547 99.4612 61.6283 100.012 61.1116 100.685C59.7579 100.016 58.7871 99.6641 58.7871 99.6641C58.7871 99.6641 59.5585 100.285 60.7544 101.152ZM61.8481 101.062C62.3137 101.309 62.8076 101.587 63.311 101.896C63.6774 101.44 64.0389 101.017 64.379 100.634C63.7618 100.218 63.2621 99.8198 62.8621 99.4615C62.6226 99.9226 62.2952 100.46 61.8481 101.062ZM60.0801 103.075C60.5678 103.284 61.1431 103.568 61.7925 103.95C62.0898 103.513 62.4224 103.046 62.7863 102.567C62.2987 102.242 61.8369 101.923 61.4121 101.623C60.944 102.2 60.4896 102.681 60.0801 103.075ZM63.9932 102.329C64.3394 101.864 64.655 101.414 64.9362 100.994C65.5591 101.381 66.1329 101.686 66.6397 101.926C66.2407 102.267 65.7906 102.707 65.3173 103.269C64.9089 102.958 64.4655 102.641 63.9932 102.329ZM63.8405 105.352C64.1097 104.898 64.4385 104.399 64.8372 103.872C64.4013 103.606 63.941 103.319 63.4683 103.014C63.0991 103.481 62.7323 103.918 62.3845 104.314C62.9434 104.672 63.427 105.023 63.8405 105.352Z" fill="#D99F5B"/>
<rect x="3" y="107" width="70" height="3" fill="#8C5632"/>
<rect x="3" y="83" width="70" height="11" fill="#EBCFB9"/>
<ellipse cx="8.98301" cy="84" rx="6.11886" ry="8.83102" transform="rotate(-13.2736 8.98301 84)" fill="#D08439"/>
<ellipse cx="10.4431" cy="86.8381" rx="4.37124" ry="0.710988" transform="rotate(-26.7116 10.4431 86.8381)" fill="#B8682D"/>
<ellipse cx="9.09899" cy="84.0357" rx="5.11671" ry="0.710988" transform="rotate(-26.7116 9.09899 84.0357)" fill="#B8682D"/>
<ellipse cx="8.1012" cy="81.0596" rx="4.61958" ry="0.710988" transform="rotate(-26.7116 8.1012 81.0596)" fill="#B8682D"/>
<ellipse cx="22.983" cy="84" rx="6.11886" ry="8.83102" transform="rotate(-13.2736 22.983 84)" fill="#D08439"/>
<ellipse cx="24.4431" cy="86.8381" rx="4.37124" ry="0.710988" transform="rotate(-26.7116 24.4431 86.8381)" fill="#B8682D"/>
<ellipse cx="23.099" cy="84.0357" rx="5.11671" ry="0.710988" transform="rotate(-26.7116 23.099 84.0357)" fill="#B8682D"/>
<ellipse cx="22.1012" cy="81.0596" rx="4.61958" ry="0.710988" transform="rotate(-26.7116 22.1012 81.0596)" fill="#B8682D"/>
<ellipse cx="36.983" cy="84" rx="6.11886" ry="8.83102" transform="rotate(-13.2736 36.983 84)" fill="#D08439"/>
<ellipse cx="38.4431" cy="86.8381" rx="4.37124" ry="0.710988" transform="rotate(-26.7116 38.4431 86.8381)" fill="#B8682D"/>
<ellipse cx="37.099" cy="84.0357" rx="5.11671" ry="0.710988" transform="rotate(-26.7116 37.099 84.0357)" fill="#B8682D"/>
<ellipse cx="36.1012" cy="81.0596" rx="4.61958" ry="0.710988" transform="rotate(-26.7116 36.1012 81.0596)" fill="#B8682D"/>
<ellipse cx="50.983" cy="84" rx="6.11886" ry="8.83102" transform="rotate(-13.2736 50.983 84)" fill="#D08439"/>
<ellipse cx="52.4431" cy="86.8381" rx="4.37124" ry="0.710988" transform="rotate(-26.7116 52.4431 86.8381)" fill="#B8682D"/>
<ellipse cx="51.099" cy="84.0357" rx="5.11671" ry="0.710988" transform="rotate(-26.7116 51.099 84.0357)" fill="#B8682D"/>
<ellipse cx="50.1012" cy="81.0596" rx="4.61958" ry="0.710988" transform="rotate(-26.7116 50.1012 81.0596)" fill="#B8682D"/>
<ellipse cx="64.983" cy="84" rx="6.11886" ry="8.83102" transform="rotate(-13.2736 64.983 84)" fill="#D08439"/>
<ellipse cx="66.4431" cy="86.8381" rx="4.37124" ry="0.710988" transform="rotate(-26.7116 66.4431 86.8381)" fill="#B8682D"/>
<ellipse cx="65.099" cy="84.0357" rx="5.11671" ry="0.710988" transform="rotate(-26.7116 65.099 84.0357)" fill="#B8682D"/>
<ellipse cx="64.1012" cy="81.0596" rx="4.61958" ry="0.710988" transform="rotate(-26.7116 64.1012 81.0596)" fill="#B8682D"/>
<rect x="3" y="91" width="70" height="3" fill="#8C5632"/>
<rect x="3" y="62" width="70" height="11" fill="#EBCFB9"/>
<path d="M19.5662 66.0822C17.9831 70.9361 15.6173 73.022 12.0702 71.8651C8.52314 70.7082 7.84214 67.6286 9.42523 62.7747C11.0083 57.9208 13.4843 55.4968 17.0314 56.6537C20.5785 57.8106 21.1493 61.2282 19.5662 66.0822Z" fill="#A25A30"/>
<path d="M17.6483 65.0826C16.4914 68.6297 13.2581 70.7565 12.5113 70.513C11.7645 70.2694 10.4069 66.6452 11.5637 63.0981C12.7206 59.551 15.954 57.4242 16.7007 57.6678C17.4475 57.9113 18.8052 61.5355 17.6483 65.0826Z" fill="#894211"/>
<path d="M16.9722 64.8622C15.8153 68.4093 13.0921 70.7025 12.5113 70.513C11.9305 70.3236 11.0829 66.8658 12.2398 63.3187C13.3966 59.7716 16.1199 57.4784 16.7007 57.6679C17.2815 57.8573 18.1291 61.3151 16.9722 64.8622Z" fill="#CD8344"/>
<path d="M31.5662 66.0822C29.9831 70.9361 27.6173 73.022 24.0702 71.8651C20.5231 70.7082 19.8421 67.6286 21.4252 62.7747C23.0083 57.9208 25.4843 55.4968 29.0314 56.6537C32.5785 57.8106 33.1493 61.2282 31.5662 66.0822Z" fill="#A25A30"/>
<path d="M29.6483 65.0826C28.4914 68.6297 25.2581 70.7565 24.5113 70.513C23.7645 70.2694 22.4069 66.6452 23.5637 63.0981C24.7206 59.551 27.954 57.4242 28.7007 57.6678C29.4475 57.9113 30.8052 61.5355 29.6483 65.0826Z" fill="#894211"/>
<path d="M28.9722 64.8622C27.8153 68.4093 25.0921 70.7025 24.5113 70.513C23.9305 70.3236 23.0829 66.8658 24.2398 63.3187C25.3966 59.7716 28.1199 57.4784 28.7007 57.6679C29.2815 57.8573 30.1291 61.3151 28.9722 64.8622Z" fill="#CD8344"/>
<path d="M44.5662 66.0822C42.9831 70.9361 40.6173 73.022 37.0702 71.8651C33.5231 70.7082 32.8421 67.6286 34.4252 62.7747C36.0083 57.9208 38.4843 55.4968 42.0314 56.6537C45.5785 57.8106 46.1493 61.2282 44.5662 66.0822Z" fill="#A25A30"/>
<path d="M42.6483 65.0826C41.4914 68.6297 38.2581 70.7565 37.5113 70.513C36.7645 70.2694 35.4069 66.6452 36.5637 63.0981C37.7206 59.551 40.954 57.4242 41.7007 57.6678C42.4475 57.9113 43.8052 61.5355 42.6483 65.0826Z" fill="#894211"/>
<path d="M41.9722 64.8622C40.8153 68.4093 38.0921 70.7025 37.5113 70.513C36.9305 70.3236 36.0829 66.8658 37.2398 63.3187C38.3966 59.7716 41.1199 57.4784 41.7007 57.6679C42.2815 57.8573 43.1291 61.3151 41.9722 64.8622Z" fill="#CD8344"/>
<path d="M56.5662 66.0822C54.9831 70.9361 52.6173 73.022 49.0702 71.8651C45.5231 70.7082 44.8421 67.6286 46.4252 62.7747C48.0083 57.9208 50.4843 55.4968 54.0314 56.6537C57.5785 57.8106 58.1493 61.2282 56.5662 66.0822Z" fill="#A25A30"/>
<path d="M54.6483 65.0826C53.4914 68.6297 50.2581 70.7565 49.5113 70.513C48.7645 70.2694 47.4069 66.6452 48.5637 63.0981C49.7206 59.551 52.954 57.4242 53.7007 57.6678C54.4475 57.9113 55.8052 61.5355 54.6483 65.0826Z" fill="#894211"/>
<path d="M53.9722 64.8622C52.8153 68.4093 50.0921 70.7025 49.5113 70.513C48.9305 70.3236 48.0829 66.8658 49.2398 63.3187C50.3966 59.7716 53.1199 57.4784 53.7007 57.6679C54.2815 57.8573 55.1291 61.3151 53.9722 64.8622Z" fill="#CD8344"/>
<path d="M68.5662 66.0822C66.9831 70.9361 64.6173 73.022 61.0702 71.8651C57.5231 70.7082 56.8421 67.6286 58.4252 62.7747C60.0083 57.9208 62.4843 55.4968 66.0314 56.6537C69.5785 57.8106 70.1493 61.2282 68.5662 66.0822Z" fill="#A25A30"/>
<path d="M66.6483 65.0826C65.4914 68.6297 62.2581 70.7565 61.5113 70.513C60.7645 70.2694 59.4069 66.6452 60.5637 63.0981C61.7206 59.551 64.954 57.4242 65.7007 57.6678C66.4475 57.9113 67.8052 61.5355 66.6483 65.0826Z" fill="#894211"/>
<path d="M65.9722 64.8622C64.8153 68.4093 62.0921 70.7025 61.5113 70.513C60.9305 70.3236 60.0829 66.8658 61.2398 63.3187C62.3966 59.7716 65.1199 57.4784 65.7007 57.6679C66.2815 57.8573 67.1291 61.3151 65.9722 64.8622Z" fill="#CD8344"/>
<rect x="3" y="71" width="70" height="3" fill="#8C5632"/>
<g filter="url(#filter0_b_142_727)">
<rect x="9" y="47" width="58" height="63" fill="#CCE3F9" fill-opacity="0.1"/>
</g>
<path fill-rule="evenodd" clip-rule="evenodd" d="M3 41H0V120H76V41H73V116.962H3V41Z" fill="#062428"/>
<path fill-rule="evenodd" clip-rule="evenodd" d="M73 41H3V117H73V41ZM5.99997 44H36V113H5.99997V44ZM40 44H70V113H40V44Z" fill="#012D33"/>
<path fill-rule="evenodd" clip-rule="evenodd" d="M73 41H76C76 18.3563 58.9868 0 38 0C17.0132 0 0 18.3563 0 41H3C3 20.0132 18.67 3 38 3C57.33 3 73 20.0132 73 41Z" fill="#062428"/>
<path d="M73 41C56.8125 41 57.33 41 38 41C18.67 41 26.625 41 3 41C3 20.0132 18.67 3 38 3C57.33 3 73 20.0132 73 41Z" fill="#CCE3F9"/>
<path fill-rule="evenodd" clip-rule="evenodd" d="M38 41H73C73 20.0132 57.33 3 38 3C18.67 3 3 20.0132 3 41H38ZM39 4C35.6863 4 33 6.23858 33 9L36 31L39.5 31.5L45 9C45 6.23858 42.3137 4 39 4ZM29.9679 9.96016L29.9451 9.97245L34.9992 31.4983L32.5032 32.9986L19.423 15.6429L19.4042 15.653C18.0942 13.2221 19.397 9.97708 22.3141 8.40504C25.1804 6.86034 28.5389 7.50574 29.8977 9.83496L29.9111 9.82764L29.9233 9.87944C29.9384 9.90613 29.9533 9.93304 29.9679 9.96016ZM17.8075 16.7683L17.7841 16.8035L31.5 33.5L29.5 36L11.1894 26.7227L11.1638 26.7613C8.86417 25.2324 8.48726 21.756 10.3219 18.9965C12.1565 16.237 15.508 15.2394 17.8075 16.7683ZM9 40V39.9663L28 40L29 37L9 28C6.23858 28 4 30.6863 4 34C4 37.3137 6.23858 40 9 40ZM58.3321 17.2097L58.3555 17.2449L44.6396 33.9414L46.6396 36.4414L64.9503 27.1641L64.9759 27.2027C67.2755 25.6738 67.6524 22.1974 65.8178 19.4379C63.9831 16.6785 60.6317 15.6808 58.3321 17.2097ZM46.1945 10.4139L46.1717 10.4016C46.1863 10.3744 46.2012 10.3475 46.2164 10.3208L46.2285 10.269L46.2419 10.2764C47.6007 7.94714 50.9592 7.30174 53.8256 8.84645C56.7427 10.4185 58.0454 13.6635 56.7354 16.0944L56.7166 16.0843L43.6365 33.44L41.1404 31.9397L46.1945 10.4139ZM67 28L47 37L48 40L67 39.9663V40C69.7614 40 72 37.3137 72 34C72 30.6863 69.7614 28 67 28Z" fill="#012D33"/>
<path d="M48 41C43.375 41 43.5228 41 38 41C32.4772 41 34.75 41 28 41C28 35.4772 32.4772 31 38 31C43.5228 31 48 35.4772 48 41Z" fill="#012D33"/>
<path d="M36 113H6L9 110H33L36 113Z" fill="#062428"/>
<path d="M6 44H36L33 47H9L6 44Z" fill="#104147"/>
<path d="M6 113V44L9 47V110L6 113Z" fill="#104147"/>
<path d="M36 44V113L33 110V47L36 44Z" fill="#062428"/>
<path d="M70 113H40L43 110H67L70 113Z" fill="#062428"/>
<path d="M40 44H70L67 47H43L40 44Z" fill="#104147"/>
<path d="M40 113V44L43 47V110L40 113Z" fill="#104147"/>
<path d="M70 44V113L67 110V47L70 44Z" fill="#062428"/>
<defs>
<filter id="filter0_b_142_727" x="8.7" y="46.7" width="58.6" height="63.6" filterUnits="userSpaceOnUse" color-interpolation-filters="sRGB">
<feFlood flood-opacity="0" result="BackgroundImageFix"/>
<feGaussianBlur in="BackgroundImage" stdDeviation="0.15"/>
<feComposite in2="SourceAlpha" operator="in" result="effect1_backgroundBlur_142_727"/>
<feBlend mode="normal" in="SourceGraphic" in2="effect1_backgroundBlur_142_727" result="shape"/>
</filter>
</defs>
</svg>
