<svg width="88" height="69" viewBox="0 0 88 69" fill="none" xmlns="http://www.w3.org/2000/svg">
<rect width="88" height="69" fill="#B49D72"/>
<path d="M16 3H4V14H16V3Z" fill="#FFFDF2"/>
<path d="M4 15V27H16V15H4Z" fill="#FFFDF2"/>
<path d="M4 28V40H16V28H4Z" fill="#FFFDF2"/>
<path d="M4 41V53H16V41H4Z" fill="#FFFDF2"/>
<path d="M4 54V66H16V54H4Z" fill="#FFFDF2"/>
<path d="M17 66H29V54H17V66Z" fill="#FFFDF2"/>
<path d="M30 66H42V54H30V66Z" fill="#FFFDF2"/>
<path d="M46 66H58V54H46V66Z" fill="#FFFDF2"/>
<path d="M59 66H71V54H59V66Z" fill="#FFFDF2"/>
<path d="M72 66H84V54H72V66Z" fill="#FFFDF2"/>
<path d="M84 53V41H72V53H84Z" fill="#FFFDF2"/>
<path d="M84 40V28H72V40H84Z" fill="#FFFDF2"/>
<path d="M84 27V15H72V27H84Z" fill="#FFFDF2"/>
<path d="M84 14V3H72V14H84Z" fill="#FFFDF2"/>
<path d="M71 3H59V14H71V3Z" fill="#FFFDF2"/>
<path d="M58 3H46V14H58V3Z" fill="#FFFDF2"/>
<path d="M42 3H30V14H42V3Z" fill="#FFFDF2"/>
<path d="M29 3V14H17V3H29Z" fill="#FFFDF2"/>
<path d="M17 15V27H29V15H17Z" fill="#FFFDF2"/>
<path d="M30 15V27H42V15H30Z" fill="#FFFDF2"/>
<path d="M46 15V27H58V15H46Z" fill="#FFFDF2"/>
<path d="M59 15V27H71V15H59Z" fill="#FFFDF2"/>
<path d="M17 40V28H29V40H17Z" fill="#FFFDF2"/>
<path d="M30 40V28H42V40H30Z" fill="#FFFDF2"/>
<path d="M46 40V28H58V40H46Z" fill="#FFFDF2"/>
<path d="M59 40V28H71V40H59Z" fill="#FFFDF2"/>
<path d="M17 41V53H29V41H17Z" fill="#FFFDF2"/>
<path d="M30 41V53H42V41H30Z" fill="#FFFDF2"/>
<path d="M46 41V53H58V41H46Z" fill="#FFFDF2"/>
<path d="M59 41V53H71V41H59Z" fill="#FFFDF2"/>
</svg>
