<svg width="111" height="125" viewBox="0 0 111 125" fill="none" xmlns="http://www.w3.org/2000/svg">
<mask id="path-1-inside-1_17_1152" fill="white">
<path d="M0 50C0 22.3858 22.3858 0 50 0H60.5784C88.1926 0 110.578 22.3858 110.578 50V121C110.578 123.209 108.787 125 106.578 125H4C1.79086 125 0 123.209 0 121V50Z"/>
</mask>
<path d="M0 50C0 22.3858 22.3858 0 50 0H60.5784C88.1926 0 110.578 22.3858 110.578 50V121C110.578 123.209 108.787 125 106.578 125H4C1.79086 125 0 123.209 0 121V50Z" fill="#BEDEFC"/>
<path d="M-3 50C-3 20.7289 20.7289 -3 50 -3H60.5783C89.8494 -3 113.578 20.7289 113.578 50H107.578C107.578 24.0426 86.5357 3 60.5783 3H50C24.0426 3 3 24.0426 3 50H-3ZM113.578 126C113.578 129.866 110.444 133 106.578 133H4C0.134007 133 -3 129.866 -3 126L3 117C3 117 3.44772 117 4 117H106.578C107.131 117 107.578 117 107.578 117L113.578 126ZM4 133C0.134007 133 -3 129.866 -3 126V50C-3 20.7289 20.7289 -3 50 -3V3C24.0426 3 3 24.0426 3 50V117C3 117 3.44772 117 4 117V133ZM60.5783 -3C89.8494 -3 113.578 20.7289 113.578 50V126C113.578 129.866 110.444 133 106.578 133V117C107.131 117 107.578 117 107.578 117V50C107.578 24.0426 86.5357 3 60.5783 3V-3Z" fill="#FFB2B2" mask="url(#path-1-inside-1_17_1152)"/>
<path d="M41.8729 117.808C41.8729 118.32 41.5618 118.888 40.8147 119.477C40.0733 120.061 38.9694 120.609 37.5608 121.079C34.7488 122.016 30.8322 122.604 26.4831 122.604C22.134 122.604 18.2174 122.016 15.4054 121.079C13.9968 120.609 12.8929 120.061 12.1515 119.477C11.4044 118.888 11.0933 118.32 11.0933 117.808C11.0933 117.295 11.4044 116.727 12.1515 116.139C12.8929 115.554 13.9968 115.006 15.4054 114.537C18.2174 113.599 22.134 113.011 26.4831 113.011C30.8322 113.011 34.7488 113.599 37.5608 114.537C38.9694 115.006 40.0733 115.554 40.8147 116.139C41.5618 116.727 41.8729 117.295 41.8729 117.808Z" fill="#FFF6D8" stroke="#EEBF19"/>
<path d="M21.6333 110.121C21.53 109.773 21.7144 109.405 22.0548 109.279L23.996 108.563C25.5379 107.993 27.2326 107.994 28.7737 108.566L30.8939 109.352C31.2348 109.478 31.4186 109.848 31.3137 110.196L28.9677 117.979C28.8795 118.271 28.609 118.471 28.3035 118.468L24.6131 118.441C24.3102 118.439 24.0444 118.239 23.9582 117.949L21.6333 110.121Z" fill="#F4A86C"/>
<path d="M17.8413 112.715C17.6939 112.369 17.8523 111.968 18.1969 111.816L21.7195 110.262L24.0044 117.852L20.7706 118.302C20.4625 118.345 20.1639 118.176 20.0422 117.89L17.8413 112.715Z" fill="#D78759"/>
<path d="M35.0611 112.842C35.2136 112.498 35.0611 112.095 34.7188 111.938L31.2194 110.332L28.8232 117.887L32.0499 118.385C32.3574 118.432 32.6584 118.268 32.7844 117.983L35.0611 112.842Z" fill="#D78759"/>
<path d="M15.2474 115.574C15.291 115.513 15.3416 115.456 15.3983 115.406L18.0155 113.092L20.1131 118.064L16.6135 118.655C16.603 118.657 16.5924 118.658 16.5817 118.658C15.1068 118.647 14.2525 116.982 15.1037 115.778L15.2474 115.574Z" fill="#F4A86C"/>
<path d="M37.6127 115.739C37.57 115.677 37.5202 115.619 37.4643 115.568L34.8814 113.216L32.7109 118.157L36.2015 118.799C36.2119 118.801 36.2226 118.802 36.2332 118.802C37.7081 118.813 38.5867 117.161 37.7534 115.944L37.6127 115.739Z" fill="#F4A86C"/>
<rect x="52" width="5" height="118" fill="#FFB2B2"/>
<rect x="3" y="88" width="5" height="107" transform="rotate(-90 3 88)" fill="#FFB2B2"/>
<rect x="3" y="52" width="5" height="107" transform="rotate(-90 3 52)" fill="#FFB2B2"/>
<path d="M72.1801 63.4136C73.1909 63.5018 74.2224 64.1641 75.0737 65.2715C82.5996 75.0613 85.9796 89.9882 83.4052 102.065C83.114 103.431 82.4684 104.473 81.5943 104.988L80.0918 105.874C78.9227 106.562 77.3975 105.286 76.9317 103.229L68.7302 67.0097C68.2645 64.9529 69.0911 63.144 70.4428 63.2619L72.1801 63.4136Z" fill="#AB8B4D"/>
<path d="M72.3728 64.1613C73.3835 64.2495 74.2224 64.1641 75.0737 65.2715C82.5996 75.0613 85.9796 89.9882 83.4052 102.065C83.114 103.431 82.4684 104.473 81.5943 104.988L80.0918 105.874C78.9227 106.562 78.4193 105.065 77.9535 103.008L69.7676 66.8572C69.6232 66.2198 69.5103 65.7209 69.4535 65.3291C69.3087 64.3309 70.9323 64.0258 72.3728 64.1613Z" fill="#CB9F6C"/>
<path d="M83.3104 84.1452C81.6283 84.5217 80.1335 84.2332 79.9671 83.4982C79.8006 82.7632 81.0254 81.8589 82.7055 81.474C82.931 82.3586 83.1328 83.2498 83.3104 84.1452Z" fill="#C79152"/>
<path d="M83.7784 86.9028C83.5 86.9299 83.2096 86.9763 82.9136 87.0434C81.2243 87.4259 79.9902 88.334 80.1572 89.0716C80.3243 89.8093 81.8291 90.0972 83.5185 89.7146C83.7126 89.6707 83.9007 89.6198 84.0814 89.563C84.0048 88.6765 83.9037 87.789 83.7784 86.9028Z" fill="#C79152"/>
<path d="M84.2434 92.4556C83.8834 92.4746 83.4986 92.5274 83.1038 92.6168C81.4144 92.9993 80.1804 93.9074 80.3474 94.6451C80.5144 95.3827 82.0193 95.6706 83.7086 95.2881C83.8886 95.2473 84.0633 95.2006 84.2318 95.1488C84.2625 94.2568 84.2662 93.3582 84.2434 92.4556Z" fill="#C79152"/>
<path d="M84.0315 98.0633C83.7922 98.0913 83.5451 98.1334 83.2939 98.1902C81.6046 98.5728 80.3705 99.4809 80.5375 100.219C80.6956 100.917 82.0517 101.212 83.6284 100.917C83.797 99.9801 83.9311 99.0275 84.0315 98.0633Z" fill="#C79152"/>
<path d="M78.7968 71.1469C78.6225 71.1727 78.4446 71.2058 78.2647 71.2466C76.5754 71.6291 75.3413 72.5372 75.5083 73.2748C75.6754 74.0125 77.1803 74.3004 78.8696 73.9178C79.2644 73.8284 79.6344 73.7103 79.9675 73.5724C79.5992 72.748 79.2088 71.9386 78.7968 71.1469Z" fill="#C79152"/>
<path d="M81.0674 76.2526C80.8799 76.2792 80.6882 76.3143 80.4941 76.3582C78.8047 76.7408 77.5707 77.6489 77.7377 78.3865C77.9047 79.1242 79.4096 79.4121 81.099 79.0295C81.395 78.9625 81.677 78.8793 81.94 78.7838C81.6712 77.9301 81.3802 77.0856 81.0674 76.2526Z" fill="#C79152"/>
<path d="M77.3605 68.603C76.8546 67.7761 76.3232 66.9742 75.7673 66.2009C74.2175 66.6145 73.1209 67.4651 73.279 68.1632C73.446 68.9008 74.9509 69.1887 76.6402 68.8062C76.8914 68.7493 77.1325 68.6808 77.3605 68.603Z" fill="#C79152"/>
<path d="M79.9878 83.1425C80.4559 83.6395 81.741 83.7948 83.1591 83.4774C83.0925 83.1416 83.0225 82.8064 82.9492 82.4719C82.8713 82.1384 82.79 81.8057 82.7055 81.474C81.2889 81.7985 80.1961 82.4922 79.9878 83.1425Z" fill="#E0CA92"/>
<path d="M83.7178 86.909C83.4579 86.9367 83.1882 86.9812 82.9136 87.0434C81.4883 87.3661 80.3871 88.0629 80.178 88.7159C80.648 89.2151 81.942 89.3696 83.3673 89.0468C83.5614 89.0029 83.7495 88.952 83.9302 88.8952C83.873 88.2334 83.8021 87.571 83.7178 86.909Z" fill="#E0CA92"/>
<path d="M84.1043 92.4646C83.785 92.4887 83.4482 92.5388 83.1038 92.6168C81.6785 92.9395 80.5773 93.6364 80.3681 94.2893C80.8382 94.7885 82.1321 94.943 83.5574 94.6203C83.7373 94.5795 83.9121 94.5328 84.0806 94.481C84.1036 93.8122 84.1114 93.1397 84.1043 92.4646Z" fill="#E0CA92"/>
<path d="M83.8013 98.0943C83.6349 98.1195 83.4654 98.1514 83.2939 98.1902C81.8686 98.513 80.7674 99.2098 80.5583 99.8628C80.9984 100.33 82.1609 100.495 83.4772 100.25C83.605 99.5393 83.7129 98.8204 83.8013 98.0943Z" fill="#E0CA92"/>
<path d="M79.6869 72.9564C79.4025 72.3441 79.1057 71.7405 78.7968 71.1469C78.6225 71.1727 78.4446 71.2058 78.2647 71.2466C76.8394 71.5693 75.7382 72.2661 75.5291 72.9191C75.9991 73.4183 77.2931 73.5728 78.7184 73.25C79.0628 73.172 79.3883 73.0722 79.6869 72.9564Z" fill="#E0CA92"/>
<path d="M81.7313 78.1365C81.5223 77.5028 81.3009 76.8745 81.0674 76.2526C80.8799 76.2792 80.6882 76.3143 80.4941 76.3582C79.0688 76.681 77.9676 77.3778 77.7585 78.0308C78.2285 78.53 79.5225 78.6844 80.9477 78.3617C81.2223 78.2995 81.4849 78.2235 81.7313 78.1365Z" fill="#E0CA92"/>
<path d="M76.9883 68.0064C76.5956 67.3892 76.1885 66.7868 75.7673 66.2009C74.4735 66.5462 73.4955 67.196 73.2997 67.8074C73.7697 68.3066 75.0637 68.4611 76.489 68.1383C76.6604 68.0995 76.8272 68.0553 76.9883 68.0064Z" fill="#E0CA92"/>
<path d="M66.7199 70.0152C67.7674 70.05 68.9348 70.7651 69.9948 72.0212C79.3654 83.1252 85.3853 100.616 84.8333 115.135C84.7709 116.778 84.2908 118.06 83.4866 118.732L82.1043 119.887C81.0288 120.786 79.2514 119.376 78.4219 116.966L63.8149 74.5243C62.9854 72.1142 63.5185 69.9089 64.9194 69.9555L66.7199 70.0152Z" fill="#FCCA6B"/>
<path d="M67.0453 70.8898C68.0928 70.9246 68.9348 70.7651 69.9948 72.0212C79.3654 83.1252 85.3853 100.616 84.8333 115.135C84.7709 116.778 84.2908 118.06 83.4866 118.732L82.1043 119.887C81.0288 120.786 80.257 119.042 79.4275 116.632L64.8482 74.2714C64.5912 73.5245 64.39 72.94 64.2645 72.4786C63.945 71.3033 65.5507 70.8286 67.0453 70.8898Z" fill="#FFD88D"/>
<path d="M81.6539 93.8628C80.0008 94.4262 78.4244 94.1871 78.128 93.3258C77.8315 92.4645 78.9269 91.306 80.5767 90.7327C80.9591 91.7674 81.3186 92.8118 81.6539 93.8628Z" fill="#FFE99B"/>
<path d="M82.6064 97.1049C82.3266 97.1563 82.038 97.2315 81.7472 97.3316C80.0876 97.9028 78.9834 99.0665 79.2809 99.9309C79.5784 100.795 81.1649 101.033 82.8245 100.462C83.0153 100.396 83.1986 100.323 83.3734 100.243C83.1427 99.1954 82.8867 98.1485 82.6064 97.1049Z" fill="#FFE99B"/>
<path d="M84.0364 103.666C83.672 103.714 83.2881 103.803 82.9002 103.937C81.2406 104.508 80.1364 105.672 80.4339 106.536C80.7314 107.4 82.3179 107.638 83.9775 107.067C84.1542 107.006 84.3247 106.938 84.4878 106.865C84.3658 105.804 84.215 104.737 84.0364 103.666Z" fill="#FFE99B"/>
<path d="M84.7846 110.34C84.545 110.39 84.2999 110.457 84.0531 110.542C82.3935 111.113 81.2893 112.277 81.5868 113.141C81.8683 113.959 83.3042 114.216 84.8639 113.757C84.8749 112.632 84.848 111.492 84.7846 110.34Z" fill="#FFE99B"/>
<path d="M74.8081 78.7402C74.6345 78.7829 74.4585 78.8346 74.2818 78.8954C72.6222 79.4666 71.518 80.6303 71.8155 81.4947C72.1129 82.3591 73.6995 82.5967 75.3591 82.0256C75.747 81.892 76.1046 81.7262 76.421 81.5393C75.903 80.5859 75.3651 79.6518 74.8081 78.7402Z" fill="#FFE99B"/>
<path d="M78.0054 84.6458C77.8185 84.6904 77.6288 84.7453 77.438 84.811C75.7784 85.3822 74.6742 86.5459 74.9717 87.4103C75.2692 88.2746 76.8557 88.5123 78.5153 87.9411C78.8061 87.841 79.0799 87.7228 79.332 87.5911C78.9107 86.596 78.4682 85.6133 78.0054 84.6458Z" fill="#FFE99B"/>
<path d="M72.9035 75.8188C72.2445 74.8719 71.5639 73.9565 70.8631 73.0768C69.3514 73.6751 68.3777 74.7612 68.6592 75.5791C68.9567 76.4435 70.5432 76.6812 72.2028 76.11C72.4496 76.0251 72.6841 75.927 72.9035 75.8188Z" fill="#FFE99B"/>
<path d="M78.088 92.902C78.6515 93.4599 79.9908 93.5553 81.3846 93.0802C81.2588 92.6861 81.1297 92.2929 80.9972 91.9007C80.8603 91.5101 80.7201 91.1207 80.5767 90.7327C79.1857 91.2161 78.1888 92.1155 78.088 92.902Z" fill="#FFF6D8"/>
<path d="M82.5455 97.1164C82.2848 97.1673 82.017 97.2388 81.7472 97.3316C80.3471 97.8135 79.3422 98.7172 79.2409 99.507C79.8068 100.067 81.155 100.161 82.5552 99.6792C82.7459 99.6136 82.9293 99.5401 83.1041 99.4602C82.9318 98.6783 82.7455 97.8966 82.5455 97.1164Z" fill="#FFF6D8"/>
<path d="M83.8959 103.687C83.5739 103.737 83.2386 103.82 82.9002 103.937C81.5 104.419 80.4951 105.322 80.3939 106.112C80.9598 106.672 82.308 106.766 83.7082 106.284C83.8849 106.223 84.0554 106.156 84.2185 106.083C84.127 105.287 84.0193 104.488 83.8959 103.687Z" fill="#FFF6D8"/>
<path d="M84.5549 110.393C84.3892 110.434 84.2216 110.484 84.0531 110.542C82.6529 111.024 81.6481 111.927 81.5468 112.717C82.0767 113.242 83.2925 113.357 84.5946 112.974C84.6029 112.122 84.5895 111.261 84.5549 110.393Z" fill="#FFF6D8"/>
<path d="M76.0284 80.8273C75.6326 80.1199 75.2257 79.4237 74.8081 78.7402C74.6345 78.7829 74.4585 78.8346 74.2818 78.8954C72.8816 79.3773 71.8767 80.281 71.7755 81.0708C72.3414 81.6311 73.6896 81.7249 75.0898 81.243C75.4281 81.1266 75.7434 80.9855 76.0284 80.8273Z" fill="#FFF6D8"/>
<path d="M79.0076 86.8369C78.6851 86.0989 78.3509 85.3681 78.0054 84.6458C77.8185 84.6904 77.6288 84.7453 77.438 84.811C76.0378 85.2929 75.033 86.1966 74.9317 86.9864C75.4976 87.5466 76.8458 87.6405 78.246 87.1586C78.5158 87.0658 78.7708 86.9573 79.0076 86.8369Z" fill="#FFF6D8"/>
<path d="M72.4207 75.1362C71.9135 74.4304 71.3941 73.7434 70.8631 73.0768C69.6011 73.5763 68.714 74.4157 68.6192 75.1553C69.1851 75.7155 70.5333 75.8093 71.9335 75.3274C72.1019 75.2695 72.2646 75.2054 72.4207 75.1362Z" fill="#FFF6D8"/>
<path d="M69.0515 90.042L71.6998 92.1606L74.8778 90.042L78.0558 92.1606L81.2337 90.042L84.4117 92.1606L87.5896 90.042L90.7676 92.1606L93.4159 90.042V121.822H73.2888C70.9486 121.822 69.0515 119.925 69.0515 117.584V90.042Z" fill="#F0AE62"/>
<path d="M101.89 90.042L99.6797 92.1606L97.469 90.042L95.2582 92.1606L93.4159 90.042V121.822H97.6532C99.9934 121.822 101.89 119.925 101.89 117.584V90.042Z" fill="#E6994E"/>
</svg>
